<svg width="30" height="30" viewBox="0 0 30 30" fill="none" xmlns="http://www.w3.org/2000/svg">
<path fill-rule="evenodd" clip-rule="evenodd" d="M27.3817 7.71834L29.1667 19.5333C29.8892 24.7042 26.3333 29.4075 21.5167 29.45H8.39835C3.66668 29.45 0.0683506 24.7042 0.833351 19.5333L2.61835 7.71834C3.04211 3.8117 6.25731 0.801217 10.1833 0.63501H19.8167C23.7427 0.801217 26.9579 3.8117 27.3817 7.71834ZM9.47502 9.06418C9.4828 12.1123 11.9519 14.5814 15 14.5892C18.0482 14.5814 20.5172 12.1123 20.525 9.06418C20.525 8.47737 20.0493 8.00168 19.4625 8.00168C18.8757 8.00168 18.4 8.47737 18.4 9.06418C18.4 10.9419 16.8778 12.4642 15 12.4642C13.1222 12.4642 11.6 10.9419 11.6 9.06418C11.6 8.47737 11.1243 8.00168 10.5375 8.00168C9.95071 8.00168 9.47502 8.47737 9.47502 9.06418Z" fill="#0199D6"/>
</svg>
