<svg width="28" height="24" viewBox="0 0 28 24" fill="none" xmlns="http://www.w3.org/2000/svg">
<path fill-rule="evenodd" clip-rule="evenodd" d="M23.5041 0.666687H5.08748C2.63894 0.781529 0.741405 2.84985 0.837477 5.29919V13.0342C0.741405 15.4835 2.63894 17.5518 5.08748 17.6667H10.4141C10.2597 18.5714 10.0323 19.4621 9.73414 20.33L9.25248 21.6617C9.10767 22.0173 9.13895 22.4203 9.3369 22.7493C9.53485 23.0783 9.87631 23.2947 10.2583 23.3334H18.3475C18.7298 23.2965 19.0715 23.0794 19.2674 22.7491C19.4634 22.4188 19.49 22.0149 19.3391 21.6617L18.8716 20.33C18.5606 19.4659 18.3329 18.5741 18.1916 17.6667H23.5041C25.9527 17.5518 27.8502 15.4835 27.7541 13.0342V5.29919C27.8502 2.84985 25.9527 0.781529 23.5041 0.666687ZM13.4883 14.9467C13.4883 14.3599 13.964 13.8842 14.5508 13.8842C15.1376 13.8842 15.6133 14.3599 15.6133 14.9467C15.6133 15.5335 15.1376 16.0092 14.5508 16.0092C13.964 16.0092 13.4883 15.5335 13.4883 14.9467ZM4.37914 12.6659H24.2125V12.7084C24.7993 12.7084 25.275 12.2327 25.275 11.6459C25.275 11.0591 24.7993 10.5834 24.2125 10.5834H4.37914C3.95699 10.4976 3.52486 10.6753 3.28506 11.0331C3.04526 11.391 3.04526 11.8582 3.28506 12.2161C3.52486 12.5739 3.95699 12.7516 4.37914 12.6659Z" fill="#0199D6"/>
</svg>
