<svg width="20" height="20" viewBox="0 0 20 20" fill="none" xmlns="http://www.w3.org/2000/svg">
<rect width="20" height="20" rx="10" fill="url(#paint0_linear_401_14391)"/>
<rect width="20" height="20" rx="10" fill="url(#paint1_linear_401_14391)"/>
<path d="M7.56409 9.892C6.40009 9.892 5.53609 9.016 5.53609 7.912C5.53609 6.82 6.40009 5.932 7.56409 5.932C8.71609 5.932 9.58009 6.796 9.58009 7.912C9.58009 9.016 8.72809 9.892 7.56409 9.892ZM6.38809 13.228L11.8601 7.144L12.5921 7.552L7.10809 13.648L6.38809 13.228ZM7.55209 8.68C7.99609 8.68 8.30809 8.332 8.30809 7.912C8.30809 7.492 7.99609 7.156 7.55209 7.156C7.12009 7.156 6.80809 7.492 6.80809 7.912C6.80809 8.344 7.12009 8.68 7.55209 8.68ZM11.6201 14.644C10.4561 14.644 9.60409 13.756 9.60409 12.664C9.60409 11.572 10.4561 10.684 11.6201 10.684C12.7841 10.684 13.6361 11.572 13.6361 12.664C13.6361 13.756 12.7841 14.644 11.6201 14.644ZM11.6201 13.432C12.0641 13.432 12.3641 13.072 12.3641 12.664C12.3641 12.232 12.0641 11.896 11.6201 11.896C11.1761 11.896 10.8761 12.232 10.8761 12.664C10.8761 13.096 11.1761 13.432 11.6201 13.432Z" fill="black"/>
<defs>
<linearGradient id="paint0_linear_401_14391" x1="36.7162" y1="-4.70033" x2="20.1109" y2="31.5802" gradientUnits="userSpaceOnUse">
<stop stop-color="#F0F4F8"/>
<stop offset="0.0754656" stop-color="#F0F4F8"/>
<stop offset="0.33956" stop-color="#DE97FF"/>
<stop offset="0.83" stop-color="#A827D8"/>
<stop offset="0.953982" stop-color="#8520AB"/>
</linearGradient>
<linearGradient id="paint1_linear_401_14391" x1="-7.14286" y1="-13.8095" x2="9.24185" y2="32.8586" gradientUnits="userSpaceOnUse">
<stop offset="0.2" stop-color="#FFFFA8"/>
<stop offset="0.53" stop-color="#FFCE4E"/>
<stop offset="0.94" stop-color="#C69024"/>
</linearGradient>
</defs>
</svg>
