<svg id="Слой_1" data-name="Слой 1" xmlns="http://www.w3.org/2000/svg" xmlns:xlink="http://www.w3.org/1999/xlink" viewBox="0 0 469.03 526.66"><defs><style>.cls-1{fill:#3a3a3a;}.cls-2{fill:url(#Безымянный_градиент_26);}.cls-3{fill:#eab892;}.cls-4{fill:url(#Безымянный_градиент_13);}.cls-5{fill:url(#Безымянный_градиент_13-2);}.cls-12,.cls-6{fill:none;stroke-width:1.39px;}.cls-6{stroke:#a37624;}.cls-12,.cls-15,.cls-16,.cls-6{stroke-miterlimit:10;}.cls-7{fill:url(#Безымянный_градиент_14);}.cls-8{fill:url(#Безымянный_градиент_14-2);}.cls-9{fill:#de97ff;}.cls-10{fill:#f9cca7;}.cls-11,.cls-22{fill:#f49c95;}.cls-12{stroke:#ab8360;}.cls-13{fill:#a37624;}.cls-14{fill:#ccc;}.cls-15,.cls-16{stroke:#c69024;stroke-width:1.33px;}.cls-15{fill:url(#Безымянный_градиент_18);}.cls-16{fill:url(#Безымянный_градиент_23);}.cls-17,.cls-18{font-size:174.67px;font-family:CocotteAlternate-Heavy, Cocotte Alternate;font-weight:800;}.cls-18{fill:#f8e02c;}.cls-19{fill:#fff;}.cls-20,.cls-21,.cls-22{opacity:0.34;}.cls-21{fill:#ffd066;}.cls-21,.cls-22{isolation:isolate;}.cls-23{fill:#00dc86;}.cls-24{fill:#009cd8;}</style><linearGradient id="Безымянный_градиент_26" x1="5.85" y1="185.47" x2="374.14" y2="185.47" gradientUnits="userSpaceOnUse"><stop offset="0" stop-color="#fff"/><stop offset="0.26" stop-color="#bbffeb"/><stop offset="1" stop-color="#0facbc"/><stop offset="1" stop-color="#1584a4"/><stop offset="1" stop-color="#0b7da0"/></linearGradient><linearGradient id="Безымянный_градиент_13" x1="-84" y1="125.14" x2="99.18" y2="124.07" gradientTransform="matrix(1, 0, 0, -1, 0, 553)" gradientUnits="userSpaceOnUse"><stop offset="0.42" stop-color="#0088c3"/><stop offset="1" stop-color="#0f1f42"/></linearGradient><linearGradient id="Безымянный_градиент_13-2" x1="352.79" y1="68.32" x2="104.95" y2="46.77" xlink:href="#Безымянный_градиент_13"/><linearGradient id="Безымянный_градиент_14" x1="322.86" y1="390.53" x2="368.86" y2="204.11" gradientTransform="matrix(1, 0, 0, -1, 1.04, 538.33)" gradientUnits="userSpaceOnUse"><stop offset="0.14" stop-color="#f0f4f8"/><stop offset="0.52" stop-color="#de97ff"/><stop offset="0.83" stop-color="#a827d8"/></linearGradient><linearGradient id="Безымянный_градиент_14-2" x1="41.98" y1="554.14" x2="81.78" y2="474.53" xlink:href="#Безымянный_градиент_14"/><linearGradient id="Безымянный_градиент_18" x1="32.85" y1="287.13" x2="113.22" y2="270.07" gradientTransform="matrix(1, 0, 0, -1, 0, 553)" gradientUnits="userSpaceOnUse"><stop offset="0.3" stop-color="#fff"/><stop offset="0.46" stop-color="#ffce4e"/><stop offset="0.94" stop-color="#c69024"/></linearGradient><linearGradient id="Безымянный_градиент_23" x1="269.35" y1="488.82" x2="324.75" y2="452.02" xlink:href="#Безымянный_градиент_18"/></defs><g id="_лой_2" data-name=" лой 2"><circle class="cls-1" cx="193.05" cy="184.15" r="184.15"/><circle class="cls-2" cx="190" cy="185.47" r="184.15"/><path class="cls-3" d="M189.92,371l36.77-8.46s17-10.72,25.08-13.4c0,0,15.09-14.16,33.89-12.31a5.1,5.1,0,0,1,3.06,1.91l-59,34.76L189.92,371Z" transform="translate(1.04 -14.67)"/><path class="cls-4" d="M107.7,383.73c-7.73-7.74-21.08-6.94-29.83,1.79-.45.46-.89,1-1.32,1.5a18.47,18.47,0,0,0-.1-2c-1.38-12.27-11.31-21.24-22.18-20S35.7,377.17,37.08,389.44a16,16,0,0,0,.35,2,18.2,18.2,0,0,0-1.63-1.16c-10.46-6.58-23.66-4.41-29.48,4.85s-2.07,22.1,8.38,28.68a17.27,17.27,0,0,0,1.76,1c-.67.16-1.31.34-1.92.55C2.87,429.36-3.65,441,0,451.36s16,15.39,27.65,11.32a16.08,16.08,0,0,0,1.84-.78,16.9,16.9,0,0,0-.77,1.85c-4.09,11.65,1,24,11.3,27.66s22-2.9,26.09-14.56a17.93,17.93,0,0,0,.53-1.92c.31.61.62,1.2,1,1.75,6.57,10.46,19.4,14.23,28.67,8.41s11.45-19,4.88-29.47A18.25,18.25,0,0,0,99.94,454a18.08,18.08,0,0,0,2,.34c12.28,1.39,23.22-6.3,24.45-17.17s-7.72-20.81-20-22.2a18.45,18.45,0,0,0-2-.09c.53-.44,1-.88,1.5-1.34,8.73-8.73,9.55-22.08,1.82-29.82Z" transform="translate(1.04 -14.67)"/><path class="cls-5" d="M218,516.35a21.46,21.46,0,0,0-2.22-.35c.65-.42,1.27-.85,1.84-1.3,10.8-8.68,13.32-23.48,5.63-33s-22.68-10.29-33.48-1.6a19.12,19.12,0,0,0-1.65,1.51c.07-.77.12-1.52.12-2.24-.05-13.86-10-25.06-22.31-25s-22.18,11.32-22.13,25.18a19.44,19.44,0,0,0,.15,2.24,21,21,0,0,0-1.68-1.5c-10.87-8.6-25.85-7.76-33.47,1.86s-5,24.4,5.89,33a18.23,18.23,0,0,0,1.85,1.27c-.77.1-1.51.22-2.22.38-12.46,2.89-20.83,13.55-19.84,24.58H238c1.23-11.23-7.29-22.13-20-25Z" transform="translate(1.04 -14.67)"/><path class="cls-3" d="M163.18,372.16s55.85-2.51,67-2.32c0,0,14.74-10.15,29.87-14.93,0,0,26.42-19.15,38.67-18,0,0,7.07-.86,9,7.42l-81.18,45.23s-70.07,9.77-71.22-1.72,7.9-15.69,7.9-15.69Z" transform="translate(1.04 -14.67)"/><path class="cls-6" d="M252.22,349.28l2.34,2.46" transform="translate(1.04 -14.67)"/><path class="cls-6" d="M227.62,362.62a1.66,1.66,0,0,1,1.29,1.13" transform="translate(1.04 -14.67)"/><path class="cls-6" d="M260.68,356.8c1.19-.5,2.29.84,2.89,2" transform="translate(1.04 -14.67)"/><path class="cls-6" d="M233,372.5a4.13,4.13,0,0,1,3.69,1.95" transform="translate(1.04 -14.67)"/><circle class="cls-7" cx="356.33" cy="279.21" r="25.67"/><circle class="cls-8" cx="70.09" cy="38.33" r="21.99"/><circle class="cls-9" cx="105.45" cy="344.11" r="20.25"/><path class="cls-10" d="M36.76,541.33s10.64-51.9,26.86-98.23c8.44-24.1,14.13-48,29.71-59.52C138.86,350,173.84,324.16,183,312.73c0,0,11,5,8.76,20.19s-28.57,39.24-28.57,39.24-14.09,14.47,7.24,15.23,59-4.19,59-4.19,27-16,37.72-20.19c0,0,28.19-22.09,43-18.28a11.33,11.33,0,0,1,5.44,3.12l2.19,4.22s-29.73,21.29-32.59,24-9,5.74-11.66,8.27-33.94,26.18-33.94,26.18-7.27,8.78-24.83,8.28-64.35,12.5-74,21.62-33,38.39-4.89,100.91H36.76Z" transform="translate(1.04 -14.67)"/><path class="cls-11" d="M301.4,364s-4.56-3.81,5.34-10.13c0,0,11.75-9.16,14.62-4.24L301.4,364Z" transform="translate(1.04 -14.67)"/><path class="cls-11" d="M164,330.22l7.3,5.93s9.55-7.45,14.32-14.81a8.1,8.1,0,0,0-.82-9.8l-1-1.16L164,330.22Z" transform="translate(1.04 -14.67)"/><path class="cls-12" d="M279,379.43c-.35-1.52-.57-3.43.71-4.33a3.94,3.94,0,0,1,2.43-.46,2.63,2.63,0,0,1,1.81.5" transform="translate(1.04 -14.67)"/><path class="cls-13" d="M31.23,319.79h0" transform="translate(1.04 -14.67)"/><path class="cls-13" d="M24.87,325.46h0" transform="translate(1.04 -14.67)"/><path class="cls-13" d="M20,329.85" transform="translate(1.04 -14.67)"/><path class="cls-14" d="M68.52,325.91l-7.45,6.65h0" transform="translate(1.04 -14.67)"/><path class="cls-15" d="M59.62,247.13,60.86,251c2.82,8.8,9.8,16.23,19.3,20.53h0c-9.5,4.3-16.48,11.73-19.3,20.53L59.62,296l-1.25-3.88c-2.82-8.8-9.8-16.23-19.3-20.53h0c9.5-4.3,16.48-11.73,19.3-20.53Z" transform="translate(1.04 -14.67)"/><path class="cls-12" d="M189.92,371l40.22-1.18A265,265,0,0,1,260,354.91s18.76-14.28,28.72-16.14" transform="translate(1.04 -14.67)"/><path class="cls-6" d="M141.6,351.25c2.08.82,4,2.23,6.27,2.25a5.17,5.17,0,0,0,4.51-7.72" transform="translate(1.04 -14.67)"/><path class="cls-16" d="M289.62,58.61l1.09,3c2.49,6.86,8.64,12.65,17,16h0c-8.37,3.35-14.52,9.14-17,16l-1.09,3-1.1-3c-2.49-6.86-8.64-12.65-17-16h0c8.37-3.35,14.52-9.14,17-16Z" transform="translate(1.04 -14.67)"/><text class="cls-17" transform="translate(105.15 243.26)">%</text><text class="cls-18" transform="translate(100.59 244.59)">%</text></g><path class="cls-19" d="M389.38,146.75a27,27,0,0,0-6.28-4.87,28.46,28.46,0,0,0,8-.51c11.3-2.52,15-9.69,13.34-17.13s-8.12-12.36-19.42-9.84a27.23,27.23,0,0,0-7.39,3,28,28,0,0,0,3.54-7.11c3.45-11-.94-17.75-8.27-20S358,91,354.57,102a26.28,26.28,0,0,0-1.1,7.83,28.21,28.21,0,0,0-4.44-6.59c-7.84-8.46-15.95-8.08-21.61-2.91s-6.71,13.16,1.13,21.62a27,27,0,0,0,6.28,4.87,28.53,28.53,0,0,0-8,.51c-11.3,2.52-15,9.69-13.33,17.13s8.12,12.36,19.42,9.84a27.23,27.23,0,0,0,7.39-3,27.47,27.47,0,0,0-3.54,7.11c-3.46,11,.94,17.75,8.27,20s14.84-.81,18.29-11.78a26.61,26.61,0,0,0,1.11-7.83,27.67,27.67,0,0,0,4.44,6.6c7.84,8.46,16,8.07,21.61,2.9s6.71-13.16-1.13-21.62Z" transform="translate(1.04 -14.67)"/><g class="cls-20"><g class="cls-20"><path class="cls-21" d="M353.62,139.11a2.32,2.32,0,1,0-2.34-2.32A2.33,2.33,0,0,0,353.62,139.11Z" transform="translate(1.04 -14.67)"/><path class="cls-21" d="M359.84,133.18a2.32,2.32,0,1,0-2.34-2.32A2.33,2.33,0,0,0,359.84,133.18Z" transform="translate(1.04 -14.67)"/><path class="cls-21" d="M362.63,141.23a2.32,2.32,0,1,0-2.34-2.32A2.33,2.33,0,0,0,362.63,141.23Z" transform="translate(1.04 -14.67)"/></g><path class="cls-22" d="M368.49,108.78c-1.43,4.83-5.25,14.84-6.2,14.56s1.32-10.74,2.76-15.57,3.37-8.52,4.33-8.24.55,4.42-.88,9.25Z" transform="translate(1.04 -14.67)"/><path class="cls-22" d="M349.07,161.41c1.44-4.83,5.26-14.83,6.21-14.55s-1.32,10.73-2.76,15.56-3.38,8.53-4.33,8.25-.56-4.43.88-9.26Z" transform="translate(1.04 -14.67)"/><path class="cls-22" d="M386.73,131.12c-5,1-15.65,2.44-15.86,1.47s10.15-3.93,15.12-5,9.16-1.08,9.37-.12S391.69,130.09,386.73,131.12Z" transform="translate(1.04 -14.67)"/><path class="cls-22" d="M330.84,139.07c5-1,15.65-2.43,15.85-1.46s-10.15,3.93-15.12,5-9.16,1.08-9.36.12S325.87,140.11,330.84,139.07Z" transform="translate(1.04 -14.67)"/><path class="cls-22" d="M376.33,157.05c-3.41-3.73-10-12.19-9.27-12.85s8.53,6.72,11.93,10.46,5.57,7.31,4.83,8S379.73,160.79,376.33,157.05Z" transform="translate(1.04 -14.67)"/><path class="cls-22" d="M341.24,113.14c3.4,3.74,10,12.2,9.26,12.86s-8.53-6.72-11.93-10.47-5.56-7.3-4.82-8S337.84,109.4,341.24,113.14Z" transform="translate(1.04 -14.67)"/></g><path class="cls-23" d="M358.16,427.1c-21.08-9.76-24.25-26.31-25-34.8a11.21,11.21,0,0,1,7.15-11.39c8-3.11,22.73-5.32,42.47,6.89,30.64,19,41,71,41,71S390.44,442,358.16,427.1Z" transform="translate(1.04 -14.67)"/><path class="cls-24" d="M334.41,386.23a30.92,30.92,0,0,1,15.87-.16c15.2,4.26,27,15.28,26.15,23.26-.32,3.14-15.07-22.24-42-23.1Z" transform="translate(1.04 -14.67)"/><path class="cls-23" d="M400.51,385.56c-21.34,9.21-35.92.59-42.78-4.51a11.15,11.15,0,0,1-3.84-12.87c2.95-8,11.07-20.41,33.36-27C421.87,331,468,357.78,468,357.78s-34.82,13.69-67.48,27.79Z" transform="translate(1.04 -14.67)"/><path class="cls-24" d="M354,376.12a30.48,30.48,0,0,1,10.41-11.91c13.29-8.47,29.4-9.91,34.87-4,2.16,2.31-26.76-3.54-45.28,15.92Z" transform="translate(1.04 -14.67)"/></svg>