<svg width="26" height="30" viewBox="0 0 26 30" fill="none" xmlns="http://www.w3.org/2000/svg">
<path fill-rule="evenodd" clip-rule="evenodd" d="M23.9934 18.9317L21.0184 17.94V13.435C20.9174 8.44163 18.3008 3.83722 14.0625 1.19499C13.3116 0.712753 12.3484 0.712753 11.5975 1.19499C7.3593 3.83722 4.74267 8.44163 4.64169 13.435V17.9967L1.66669 18.9883C0.816505 19.2752 0.245657 20.0744 0.250025 20.9717V26.6383C0.252063 27.4884 0.661922 28.2859 1.35195 28.7824C2.04199 29.2788 2.92836 29.414 3.73503 29.1458L5.15169 28.6642C5.55674 29.0698 6.10849 29.2946 6.68169 29.2875H8.84919C9.8513 29.3444 10.7144 28.5884 10.79 27.5875V23.7767C10.8658 22.721 11.7732 21.9207 12.83 21.9775C13.8868 21.9207 14.7943 22.721 14.87 23.7767V27.4742C14.9456 28.475 15.8088 29.2311 16.8109 29.1742H18.9642C19.5374 29.1813 20.0891 28.9565 20.4942 28.5508L21.9109 29.0325C22.7258 29.3138 23.6266 29.1809 24.3256 28.6764C25.0247 28.1718 25.4345 27.3587 25.4242 26.4967V20.83C25.3907 19.9604 24.8201 19.2033 23.9934 18.9317ZM13.8925 17.8408C13.8925 18.4276 13.4168 18.9033 12.83 18.9033C12.2432 18.9033 11.7675 18.4276 11.7675 17.8408V15.3617C11.7675 14.7749 12.2432 14.2992 12.83 14.2992C13.4168 14.2992 13.8925 14.7749 13.8925 15.3617V17.8408ZM10.6625 10.7575C10.6625 11.9546 11.6329 12.925 12.83 12.925C14.0239 12.9173 14.9898 11.9514 14.9975 10.7575C14.9975 9.56042 14.0271 8.58999 12.83 8.58999C11.6329 8.58999 10.6625 9.56042 10.6625 10.7575Z" fill="#0199D6"/>
</svg>
