<svg width="300" height="231" viewBox="0 0 300 231" fill="none" xmlns="http://www.w3.org/2000/svg">
<g clip-path="url(#clip0_469_1446)">
<path d="M177.5 215.582C235.766 215.582 283 168.348 283 110.082C283 51.816 235.766 4.58203 177.5 4.58203C119.234 4.58203 72 51.816 72 110.082C72 168.348 119.234 215.582 177.5 215.582Z" fill="url(#paint0_linear_469_1446)"/>
<path d="M140.788 111.016H100.57V172.23H140.788V111.016Z" fill="url(#paint1_linear_469_1446)" stroke="#264F85" stroke-width="0.41593" stroke-miterlimit="10"/>
<path d="M110.366 134.435C115.452 132.833 110.636 127.74 108.01 131.455C109.097 129.159 108.804 126.791 106.749 126.502C106.653 126.488 106.562 126.479 106.475 126.47C103.692 126.237 103.166 128.754 103.777 131.208C99.0753 124.227 94.9456 135.831 101.878 135.92C95.0005 137.687 99.0044 145.734 104.207 140.282C103.798 142.028 105.177 143.994 106.886 144.1C108.875 144.443 111.261 140.836 109.172 139.618C113.89 141.6 115.702 133.142 110.366 134.435Z" fill="url(#paint2_linear_469_1446)"/>
<path d="M109.162 84.5055C109.183 87.7508 109.148 90.9984 109.059 94.2414C108.984 96.9603 108.858 99.7296 107.913 102.279C106.968 104.829 106.08 106.012 103.477 106.788C103.477 106.788 108.416 129.017 120.037 128.395C131.124 127.8 130.751 107.124 130.751 107.124C130.751 107.124 123.942 104.993 126.157 70.3662C125.098 71.1215 124.281 72.6228 124.281 72.6228L122.652 75.2571C119.112 79.0356 114.88 82.0978 110.183 84.2766L109.071 84.7916" fill="#FEE2CC"/>
<path d="M109.27 84.5061C109.263 88.1519 109.334 93.1984 109.194 96.7893C109.091 98.8514 108.741 100.927 107.934 102.838C107.542 103.788 107.055 104.754 106.275 105.486C105.508 106.219 104.502 106.614 103.504 106.891L103.58 106.763C105.277 113.43 108.304 121.848 113.823 126.231C116.999 128.757 121.666 129.142 124.81 126.356C126.544 124.855 127.667 122.775 128.475 120.653C130.056 116.346 130.6 111.693 130.639 107.125L130.715 107.228C130.596 107.187 130.523 107.125 130.429 107.072C130.189 106.907 129.951 106.674 129.758 106.452C128.974 105.55 128.482 104.42 128.038 103.321C127.244 101.092 126.736 98.7347 126.416 96.3934C125.965 93.3632 125.773 90.0057 125.661 86.9412C125.572 83.4625 125.631 79.7549 125.741 76.2761C125.789 75.3469 125.992 71.3349 126.043 70.36L126.214 70.4561C125.819 70.7445 125.475 71.1084 125.167 71.4974C124.583 72.239 123.279 74.4773 122.741 75.3149C118.932 79.4139 114.232 82.65 109.114 84.8929L109.023 84.6961C114.093 82.4921 118.843 79.1896 122.556 75.2028L124.146 72.6326C124.659 71.7538 125.26 70.8978 126.091 70.2822L126.274 70.1494L126.262 70.3783C126.21 71.351 126.004 75.4408 125.96 76.2899C125.803 81.3592 125.734 86.6071 126.127 91.665C126.365 94.7639 126.748 97.9977 127.546 100.998C127.933 102.513 128.459 104.012 129.246 105.369C129.491 105.784 129.784 106.182 130.118 106.528C130.324 106.74 130.58 106.96 130.857 107.054C130.825 111.686 130.28 116.371 128.679 120.74C127.857 122.894 126.718 125.004 124.951 126.533C121.723 129.382 116.955 129.007 113.69 126.414C108.119 121.992 105.078 113.542 103.365 106.82L103.342 106.724L103.44 106.69C104.401 106.376 105.332 105.942 106.028 105.239C109.101 101.685 108.755 95.1369 108.92 90.6443L109.05 84.513H109.268L109.27 84.5061Z" fill="#C69024"/>
<path d="M136.955 185.463C138.118 192.564 141.6 198.739 142.128 205.905C188.093 201.948 199.142 190.784 181.353 159.391C179.163 155.527 173.425 144.386 171.297 139.607C153.101 105.786 163.123 106.287 126.156 103.644C126.156 103.644 134.594 108.807 131.421 128.061C128.247 147.316 123.834 191.997 123.834 191.997L136.958 185.461L136.955 185.463Z" fill="url(#paint3_linear_469_1446)"/>
<path d="M107.849 149.329L105.042 150.833L109.78 159.287L105.042 172.936C85.8206 204.536 65.0986 210.937 59.0973 188.957C55.9148 177.303 61.7994 170.982 71.7748 149.501C74.0056 144.699 80.7344 125.465 82.4298 122.307C86.4589 114.807 85.5712 107.019 100.759 105.584C103.639 105.311 106.069 103.252 107.911 102.222C105.877 106.19 104.746 110.504 104.6 114.894C104.371 121.771 103.964 127.431 105.344 135.199L107.849 149.327V149.329Z" fill="url(#paint4_linear_469_1446)"/>
<path d="M104.387 104.188C99.3967 108.118 93.2032 114.467 89.8308 119.85C89.6523 120.136 89.4693 120.486 89.6066 120.795C89.705 121.012 89.9338 121.136 90.1443 121.248C92.526 122.509 94.592 124.358 96.1066 126.587C96.2439 126.789 96.3812 127.011 96.3675 127.253C96.3469 127.601 96.0357 127.849 95.752 128.055C93.4481 129.732 91.4141 131.783 89.753 134.099C94.7407 139.621 97.8432 145.709 100.57 152.474" stroke="#0088C7" stroke-width="0.41593" stroke-miterlimit="10"/>
<path d="M88.0801 128.745C88.0801 128.745 86.7943 135.895 86.7188 161.068" stroke="#0088C7" stroke-width="0.41593" stroke-miterlimit="10"/>
<path d="M71.123 169.781L105.042 150.833" stroke="#0088C3" stroke-width="0.402795" stroke-miterlimit="10"/>
<path d="M130.236 99.8164C137.771 104.831 144.287 111.367 149.281 118.915C149.622 119.43 149.97 120.011 149.878 120.623C149.807 121.103 149.473 121.499 149.155 121.868C147.417 123.868 145.678 125.868 143.937 127.868C145.653 129.189 147.211 130.718 148.565 132.407C148.83 132.739 149.098 133.096 149.16 133.517C149.238 134.05 148.968 134.567 148.707 135.041C143.664 144.129 137.72 152.943 135.192 163.024" fill="white"/>
<path d="M130.236 99.8164C137.771 104.831 144.287 111.367 149.281 118.915C149.622 119.43 149.97 120.011 149.878 120.623C149.807 121.103 149.473 121.499 149.155 121.868C147.417 123.868 145.678 125.868 143.937 127.868C145.653 129.189 147.211 130.718 148.565 132.407C148.83 132.739 149.098 133.096 149.16 133.517C149.238 134.05 148.968 134.567 148.707 135.041C143.664 144.129 137.72 152.943 135.192 163.024" stroke="#009EDE" stroke-width="0.402795" stroke-miterlimit="10"/>
<path d="M222.419 193.888L181.574 217.459V170.003L222.419 146.433V193.888Z" fill="#FFD066"/>
<path d="M209.341 158.336L208.817 158.167L209.329 164.683L209.3 164.664L191.076 174.613L192.385 175.455C192.707 175.481 193.032 175.41 193.316 175.249L209.801 165.926C210.32 165.633 210.636 165.079 210.627 164.484L210.471 159.808C210.471 159.762 210.469 159.716 210.464 159.671C210.4 159.044 209.938 158.529 209.339 158.334L209.341 158.336Z" fill="#0B1E44"/>
<path d="M222.418 193.888L226.815 196.717V149.261L222.418 146.433V193.888Z" fill="#C69024" stroke="#F0F4F8" stroke-width="0.437821" stroke-miterlimit="10"/>
<path d="M222.419 193.888L181.574 217.459L185.972 219.974L226.816 196.716L222.419 193.888Z" fill="#A37624" stroke="#F0F4F8" stroke-width="0.437821" stroke-miterlimit="10"/>
<path d="M212.15 168.013L212.703 188.778L212.6 188.709L187.625 203.166L190.528 204.324C191.075 204.542 191.691 204.503 192.203 204.215L214.955 191.469C215.57 191.123 215.952 190.474 215.952 189.766V171.498C215.952 170.825 215.604 170.198 215.035 169.844L212.152 168.013H212.15Z" fill="#0B1E44" stroke="#F0F4F8" stroke-width="0.437821" stroke-miterlimit="10"/>
<path d="M212.487 168.507C212.484 168.096 212.038 167.842 211.681 168.047L209.313 169.414C208.789 169.716 208.137 169.331 208.146 168.727L208.222 165.617C208.226 165.429 208.327 165.258 208.49 165.166L209.071 164.832C209.242 164.734 209.345 164.548 209.338 164.351L209.174 158.584C209.162 158.179 208.721 157.932 208.368 158.135L191.451 167.896C190.932 168.196 190.621 168.762 190.648 169.363L190.866 174.154C190.888 174.68 191.463 174.994 191.918 174.73C192.275 174.524 192.723 174.783 192.723 175.195V176.873C192.723 178.051 192.094 179.138 191.076 179.726L189.799 180.674C189.786 180.683 189.774 180.692 189.76 180.699C188.225 181.594 187.292 183.249 187.317 185.029L187.573 202.258C187.58 202.668 188.024 202.92 188.379 202.716L212.365 188.872C212.532 188.776 212.635 188.597 212.633 188.403L212.482 168.51L212.487 168.507Z" fill="#F0F4F8" stroke="white" stroke-width="0.41593" stroke-miterlimit="10"/>
<path d="M150.372 155.131L150.621 155.485C150.832 155.785 151.248 155.858 151.548 155.646L223.087 105.315C223.388 105.103 223.461 104.688 223.249 104.387L223 104.033C222.789 103.732 222.373 103.66 222.073 103.872L150.534 154.203C150.233 154.414 150.161 154.83 150.372 155.131Z" fill="url(#paint5_linear_469_1446)" stroke="white" stroke-width="0.41593" stroke-miterlimit="10"/>
<path d="M153.109 159.658L174.476 144.629C179.248 141.088 183.655 135.22 182.049 132.936C180.443 130.652 173.284 133.206 168.662 136.36L147.295 151.389L153.109 159.658Z" fill="url(#paint6_linear_469_1446)" stroke="white" stroke-width="0.41593" stroke-miterlimit="10"/>
<path d="M85.5723 171.226L113.572 211.053L167.742 172.947L167.726 172.924C167.817 172.88 167.906 172.83 167.991 172.773C170.991 170.663 182.126 150.985 173.052 138.077C163.344 124.267 142.993 130.835 139.993 132.946C139.911 133.005 139.833 133.071 139.76 133.142L139.744 133.119L85.5745 171.226H85.5723Z" fill="url(#paint7_linear_469_1446)" stroke="white" stroke-width="0.41593" stroke-miterlimit="10"/>
<path d="M85.5723 171.224L113.572 211.052L167.742 172.946L167.726 172.923C167.817 172.879 167.906 172.829 167.991 172.772C170.576 170.952 178.9 155.712 175.548 143.555L122.783 145.049L85.5723 171.224Z" fill="url(#paint8_linear_469_1446)" stroke="white" stroke-width="0.41593" stroke-miterlimit="10"/>
<path d="M113.423 211.032L117.493 208.169L117.445 208.103C119.68 205.331 115.855 195.206 108.495 184.738C101.134 174.27 92.9022 167.243 89.539 168.411L85.4824 171.294L113.421 211.032H113.423Z" fill="#0088C3" stroke="white" stroke-width="0.41593" stroke-miterlimit="10"/>
<path d="M113.579 211.037C116.578 208.927 112.741 198.301 105.009 187.304C97.2766 176.307 88.5768 169.102 85.5774 171.212C82.578 173.323 86.4149 183.948 94.1473 194.946C101.88 205.943 110.58 213.147 113.579 211.037Z" fill="url(#paint9_linear_469_1446)"/>
<path d="M171.219 163.887C171.455 160.955 171.178 157.529 169.817 154.025L110.277 195.908C111.941 199.059 113.151 201.957 113.828 204.369L171.219 163.887Z" fill="url(#paint10_linear_469_1446)" stroke="white" stroke-width="0.41593" stroke-miterlimit="10"/>
<path d="M117.475 201.92C116.784 199.506 115.564 196.615 113.901 193.478L110.334 195.986C111.997 199.137 113.208 202.035 113.885 204.447L117.477 201.92H117.475Z" fill="#264F85" stroke="white" stroke-width="0.41593" stroke-miterlimit="10"/>
<path d="M148.716 132.51C151.553 133.279 154.741 134.705 157.868 137.03L98.3289 178.912C95.9266 176.28 93.6089 174.161 91.5703 172.71L148.716 132.51Z" fill="#BEF5FF" stroke="white" stroke-width="0.41593" stroke-miterlimit="10"/>
<path d="M99.2579 178.135L147.522 144.311L131.058 144.915L94.1055 170.804L99.2579 178.135Z" fill="url(#paint11_linear_469_1446)" stroke="white" stroke-width="0.41593" stroke-miterlimit="10"/>
<path d="M95.1116 170.105C97.1479 171.572 99.4564 173.696 101.845 176.326L98.2781 178.834C95.8758 176.202 93.5581 174.083 91.5195 172.632L95.1116 170.105Z" fill="#6DD2F2" stroke="white" stroke-width="0.41593" stroke-miterlimit="10"/>
<path d="M101.146 194.205L113.881 204.445C113.881 204.445 113.311 200.526 110.33 195.983L99.4785 191.2L100.142 192.143C100.584 192.772 100.922 193.468 101.146 194.205Z" fill="url(#paint12_linear_469_1446)"/>
<path d="M134.527 161.818C135.868 161.818 136.955 160.731 136.955 159.39C136.955 158.049 135.868 156.962 134.527 156.962C133.186 156.962 132.1 158.049 132.1 159.39C132.1 160.731 133.186 161.818 134.527 161.818Z" fill="#F5CCFF" stroke="white" stroke-width="0.41593" stroke-miterlimit="10"/>
<path d="M151.628 163.133C153.274 163.133 154.609 161.798 154.609 160.151C154.609 158.504 153.274 157.169 151.628 157.169C149.981 157.169 148.646 158.504 148.646 160.151C148.646 161.798 149.981 163.133 151.628 163.133Z" fill="#F5CCFF" stroke="white" stroke-width="0.41593" stroke-miterlimit="10"/>
<path d="M122.342 183.202C123.708 183.202 124.816 182.094 124.816 180.728C124.816 179.362 123.708 178.254 122.342 178.254C120.976 178.254 119.869 179.362 119.869 180.728C119.869 182.094 120.976 183.202 122.342 183.202Z" fill="#DE97FF" stroke="white" stroke-width="0.41593" stroke-miterlimit="10"/>
<path d="M167.678 172.876C167.77 172.832 167.859 172.782 167.944 172.725C170.943 170.615 182.079 150.937 173.005 138.029C163.297 124.219 142.945 130.788 139.946 132.898C139.864 132.957 139.786 133.024 139.713 133.095L139.697 133.072L139.074 133.509C146.496 129.611 157.835 134.401 165.152 144.81C172.883 155.807 173.197 168.914 165.85 174.082" fill="#8FEAFF"/>
<path d="M167.678 172.876C167.77 172.832 167.859 172.782 167.944 172.725C170.943 170.615 182.079 150.937 173.005 138.029C163.297 124.219 142.945 130.788 139.946 132.898C139.864 132.957 139.786 133.024 139.713 133.095L139.697 133.072L139.074 133.509C146.496 129.611 157.835 134.401 165.152 144.81C172.883 155.807 173.197 168.914 165.85 174.082" stroke="white" stroke-width="0.41593" stroke-miterlimit="10"/>
<path d="M175.625 143.555L164.545 143.868C164.776 144.177 165.005 144.491 165.229 144.811C172.96 155.808 173.273 168.915 165.927 174.083L167.755 172.877C167.846 172.833 167.936 172.783 168.02 172.726C168.654 172.28 169.654 171.046 170.748 169.259C174.033 163.667 178.156 152.734 175.628 143.555H175.625Z" fill="#C46EE5" stroke="white" stroke-width="0.41593" stroke-miterlimit="10"/>
<path d="M169.824 134.298L169.815 134.289C158.752 127.292 148.646 132.437 148.646 132.437L148.965 132.595C151.909 133.318 154.943 134.801 157.812 136.948C162.036 133.989 169.735 134.296 169.824 134.298Z" fill="#E9FCFF" stroke="white" stroke-width="0.41593" stroke-miterlimit="10"/>
<path d="M169.92 153.991C171.039 157.438 171.476 160.827 171.219 163.887C174.992 159.658 176.255 155.847 176.454 148.944C176.404 147.116 176.164 145.303 175.683 143.555C175.683 143.555 176.454 148.944 169.92 153.991Z" fill="url(#paint13_linear_469_1446)" stroke="white" stroke-width="0.41593" stroke-miterlimit="10"/>
<path d="M85.9348 206.912L101.262 196.13C101.884 195.693 101.088 193.484 99.4817 191.203C97.8756 188.918 96.0704 187.424 95.4481 187.861L80.1211 198.643L85.9348 206.912Z" fill="#6DD2F2" stroke="white" stroke-width="0.41593" stroke-miterlimit="10"/>
<path d="M84.9927 205.571L101.148 194.205C100.814 193.34 100.24 192.28 99.4823 191.2L83.0273 202.774L84.9927 205.568V205.571Z" fill="#009CD8" stroke="white" stroke-width="0.41593" stroke-miterlimit="10"/>
<path d="M91.5354 226.424L95.5576 223.492C97.793 220.721 93.9675 210.596 86.6072 200.128C79.2468 189.659 71.0148 182.633 67.6515 183.8L63.5332 186.597L91.5331 226.424H91.5354Z" fill="#0088C3" stroke="white" stroke-width="0.41593" stroke-miterlimit="10"/>
<path d="M91.5458 226.413C94.5452 224.303 90.7083 213.677 82.9758 202.68C75.2434 191.683 66.5435 184.478 63.5442 186.588C60.5448 188.699 64.3817 199.324 72.1141 210.322C79.8465 221.319 88.5464 228.523 91.5458 226.413Z" fill="#00A8E1" stroke="white" stroke-width="0.41593" stroke-miterlimit="10"/>
<path d="M95.543 217.351C94.8521 214.937 93.6326 212.046 91.9693 208.908L88.4023 211.417C90.0657 214.568 91.276 217.465 91.9532 219.878L95.5453 217.351H95.543Z" fill="#264F85" stroke="white" stroke-width="0.41593" stroke-miterlimit="10"/>
<path d="M74.0491 186.518C76.0854 187.985 78.3939 190.108 80.7825 192.738L77.2156 195.246C74.8133 192.615 72.4956 190.495 70.457 189.044L74.0491 186.518Z" fill="#6DD2F2" stroke="white" stroke-width="0.41593" stroke-miterlimit="10"/>
<path d="M109.236 84.79L109.328 84.7465C109.328 84.6664 109.328 84.584 109.328 84.5039L109.236 84.79Z" fill="#F9CCA7"/>
<path d="M126.32 70.3652C125.261 71.1205 124.444 72.6218 124.444 72.6218L122.815 75.2561C119.276 79.0346 115.043 82.0969 110.346 84.2757L109.328 84.7494C109.344 87.434 109.298 93.4119 109.236 96.0965C110.01 95.9729 116.626 93.8651 119.935 89.2283C123.376 84.4061 125.211 78.1764 126.016 76.2791C126.087 74.0545 126.156 72.9354 126.32 70.3652Z" fill="url(#paint14_linear_469_1446)"/>
<path d="M117.596 205.47C121.146 203.974 126.258 197.97 125.189 197.723C121.467 196.863 108.039 202.504 104.211 202.152C103.481 202.085 102.728 202.021 102.028 202.216C101.328 202.41 100.8 203.161 100.754 203.804C101.436 204.775 104.556 206.539 105.046 206.628" fill="url(#paint15_linear_469_1446)"/>
<path d="M138.699 189.059C134.164 190.334 129.126 189.693 125.053 187.327C123.703 186.542 122.424 185.562 120.91 185.175C119.283 184.761 117.574 185.077 115.897 185.111C113.678 185.155 108.85 184.669 107.027 183.404C106.885 183.305 106.725 183.198 106.555 183.232C106.402 183.262 106.297 183.399 106.219 183.532C105.59 184.608 105.905 186.04 106.676 187.018C107.447 187.995 111.159 188.558 112.268 189.119C116.185 191.101 113.078 195.147 111.996 196.218L111.989 196.225C109.916 198.275 107.96 199.516 105.217 199.216C101.908 198.854 99.0004 198.188 95.6211 198.692C96.8543 198.509 96.6827 200.532 98.7075 200.665C98.7075 201.324 98.6847 201.379 98.9684 202.091C99.0713 202.349 99.3756 202.711 100.101 203.23C101.016 203.885 102.043 204.37 103.123 204.688C106.386 205.649 106.802 206.293 108.678 206.313C111.612 206.345 114.561 205.574 117.35 204.835C117.956 204.674 118.567 204.51 119.118 204.21C119.585 203.956 119.995 203.613 120.418 203.29C123.193 201.164 126.547 199.866 129.988 199.253C133.429 198.639 136.964 198.697 140.435 199.095L138.701 189.057L138.699 189.059Z" fill="#BEF5FF"/>
<path d="M85.9348 206.812L101.262 196.03C101.884 195.593 101.088 193.385 99.4817 191.103C97.8756 188.819 96.0704 187.324 95.4481 187.761L80.1211 198.543L85.9348 206.812Z" fill="url(#paint16_linear_469_1446)"/>
<path d="M84.9946 205.47L101.15 194.105C100.816 193.239 100.242 192.18 99.4842 191.1L83.0293 202.673L84.9946 205.468V205.47Z" fill="#264F85"/>
<path d="M91.5354 226.325L95.5576 223.393C97.793 220.621 93.9675 210.496 86.6072 200.028C79.2468 189.56 71.0148 182.533 67.6515 183.701L63.5332 186.497L91.5331 226.325H91.5354Z" fill="#0088C3"/>
<path d="M91.5458 226.312C94.5451 224.201 90.7083 213.576 82.9758 202.578C75.2434 191.581 66.5435 184.377 63.5442 186.487C60.5448 188.597 64.3817 199.223 72.1141 210.22C79.8465 221.217 88.5464 228.422 91.5458 226.312Z" fill="url(#paint17_linear_469_1446)"/>
<path d="M95.543 217.25C94.8521 214.836 93.6326 211.945 91.9693 208.808L88.4023 211.316C90.0657 214.467 91.276 217.365 91.9532 219.777L95.5453 217.25H95.543Z" fill="#264F85"/>
<path d="M74.0491 186.417C76.0854 187.884 78.3939 190.008 80.7825 192.638L77.2156 195.146C74.8133 192.514 72.4956 190.395 70.457 188.944L74.0491 186.417Z" fill="#6DD2F2"/>
<path d="M105.041 150.778C105.041 150.778 113.23 146.686 117.952 140.642C117.952 140.642 119.936 139.603 128.245 136.863C136.555 134.124 138.955 132.814 141.55 131.482C141.55 131.482 142.788 132.517 140.616 134.311C140.616 134.311 143.559 133.705 144.3 133.178C144.3 133.178 145.716 135.35 140.239 137.618C140.239 137.618 130.89 142.246 128.058 144.043C128.058 144.043 130.89 144.61 132.307 144.61C133.723 144.61 134.855 145.555 137.029 146.121C139.202 146.686 137.313 148.293 134.858 148.009C132.403 147.725 130.419 146.78 128.248 146.97C126.076 147.16 122.498 149.425 120.839 150.277C119.181 151.126 113.115 152.549 107.562 155.646L105.043 150.778H105.041Z" fill="url(#paint18_linear_469_1446)"/>
<path d="M105.041 150.779C105.041 150.779 114.431 145.245 117.7 140.986C117.874 140.761 118.103 140.587 118.368 140.489C119.908 139.919 125.065 137.699 129.52 136.378C130.021 136.23 130.513 136.058 130.998 135.866C135.617 134.023 139.669 132.646 141.548 131.485" stroke="#0088C7" stroke-width="0.41593" stroke-miterlimit="10"/>
<path d="M142.124 205.905L137.926 186.141C137.926 186.141 156.232 175.441 171.293 172.232" fill="url(#paint19_linear_469_1446)"/>
<path d="M138.261 187.683C133.726 188.958 130.177 188.958 125.05 187.324C123.561 186.85 122.421 185.559 120.907 185.172C119.28 184.758 117.571 185.074 115.894 185.108C113.674 185.152 108.847 184.666 107.023 183.401C106.881 183.302 106.721 183.195 106.552 183.229C106.399 183.259 106.293 183.396 106.216 183.529C105.586 184.605 105.902 186.037 106.673 187.015C107.444 187.992 111.155 188.555 112.265 189.116C116.182 191.098 113.075 195.144 111.993 196.215L111.986 196.222C109.913 198.272 107.957 199.513 105.214 199.213C102.557 198.922 100.157 198.437 97.5672 198.517C96.7618 198.543 96.4186 199.559 97.041 200.069C97.4093 200.371 97.9058 200.609 98.7043 200.662C98.7043 201.321 98.6814 201.376 98.9651 202.088C99.0749 202.365 99.4181 202.763 100.265 203.344C101.141 203.946 102.113 204.388 103.131 204.688C106.385 205.649 106.804 206.287 108.675 206.31C111.608 206.342 114.557 205.571 117.347 204.832C117.953 204.672 118.564 204.507 119.115 204.207C119.582 203.953 119.991 203.61 120.415 203.287C123.19 201.161 126.544 199.863 129.985 199.25C133.426 198.636 137.316 198.838 140.789 199.236L138.263 187.678L138.261 187.683Z" fill="url(#paint20_linear_469_1446)"/>
<path d="M137.831 142.098C134.614 141.647 131.704 139.421 130.427 136.432C129.15 133.443 129.553 129.799 131.45 127.163C132.171 126.16 133.081 125.306 133.8 124.302C134.516 123.297 135.042 122.063 134.831 120.846C134.616 119.61 133.667 118.605 132.571 117.994C131.477 117.381 130.235 117.095 129.022 116.777C125.538 115.861 121.927 114.47 119.804 111.559C118.457 109.712 117.843 107.407 117.724 105.123C117.441 99.6713 120.003 94.1488 124.348 90.8485C124.561 89.5417 125.707 88.9558 127.004 88.6926C128.302 88.4294 129.642 88.7064 130.937 88.9924C131.896 89.2053 132.862 89.4273 133.749 89.8484C134.362 90.1391 134.932 90.5258 135.431 90.9859C136.923 92.3659 137.728 94.3959 137.815 96.426C137.902 98.456 137.314 100.477 136.351 102.267C136.001 102.917 135.598 103.551 135.408 104.267C135.218 104.983 135.284 105.814 135.786 106.356C136.431 107.054 137.511 107.036 138.458 107.125C142.745 107.533 146.248 111.375 146.937 115.628C147.626 119.88 145.834 124.288 142.883 127.423C141.075 129.341 138.831 130.884 137.421 133.111C136.742 134.184 136.277 135.39 136.065 136.642C135.916 137.512 135.891 138.42 136.156 139.263C136.538 140.476 136.611 141.734 137.829 142.098H137.831Z" fill="#FFD066"/>
<path d="M137.936 142.122C137.653 142.152 137.287 142.184 137.007 142.104C136.559 142.026 136.111 141.926 135.683 141.774C132.109 140.626 129.382 137.252 129.089 133.48C128.897 131.212 129.443 128.844 130.734 126.949C132.027 124.914 135.01 122.964 133.896 120.291C132.994 118.503 130.855 117.984 129.029 117.501C125.529 116.554 121.802 115.176 119.516 112.171C114.624 105.497 118.052 94.9189 124.241 90.8291C124.426 89.5429 125.705 88.8426 126.874 88.632C128.835 88.2475 130.832 88.8975 132.717 89.3919C135.882 90.289 137.833 93.4336 137.849 96.6331C137.879 98.2169 137.502 99.7892 136.872 101.236C136.433 102.33 135.644 103.279 135.381 104.44C135.095 105.753 135.786 106.815 137.131 106.985C137.909 107.111 138.707 107.099 139.474 107.291C142.583 107.987 145.091 110.445 146.303 113.336C148.154 117.803 146.626 123.017 143.638 126.621C142.144 128.471 140.19 129.858 138.62 131.629C137.055 133.364 136.014 135.655 136.046 138.012C136.053 138.802 136.36 139.541 136.55 140.294C136.657 140.669 136.781 141.04 136.991 141.351C137.117 141.55 137.291 141.704 137.483 141.829L137.607 141.891C137.659 141.919 137.721 141.942 137.778 141.976C137.852 142.022 137.902 142.083 137.941 142.12L137.936 142.122ZM137.724 142.077C137.671 142.081 137.63 142.109 137.609 142.12C137.575 142.136 137.545 142.102 137.508 142.088C137.229 141.948 136.98 141.731 136.815 141.468C136.586 141.12 136.465 140.729 136.36 140.349C136.172 139.577 135.87 138.822 135.873 138.019C135.847 134.705 137.824 131.981 140.215 129.887C141.371 128.816 142.581 127.795 143.572 126.571C146.557 122.992 148.097 117.805 146.267 113.352C145.066 110.461 142.572 108.003 139.469 107.298C138.344 106.976 137.042 107.257 136.028 106.58C134.596 105.46 135.582 103.524 136.321 102.286C138.014 99.2262 138.472 95.1959 136.413 92.2C134.992 90.0579 132.8 89.3804 130.393 88.9387C129.247 88.7053 128.059 88.5336 126.908 88.8014C125.812 89.0211 124.611 89.6551 124.453 90.8657C120.095 94.5047 117.638 100.279 118.297 105.82C118.795 110.347 121.241 113.198 125.405 114.878C126.682 115.402 128.016 115.803 129.382 116.144C131.578 116.661 134.093 117.437 135.193 119.659C135.992 121.19 135.507 123.081 134.607 124.415C133.406 126.191 131.715 127.461 130.986 129.491C128.961 134.501 131.727 140.035 136.831 141.713L137.316 141.864C137.458 141.91 137.563 142.031 137.726 142.077H137.724Z" fill="#E5AE4C"/>
<path d="M122.887 91.7715C123.45 91.7898 123.985 91.5609 124.5 91.3343C125.635 90.8377 126.772 90.3411 127.831 89.7025C128.218 89.4691 128.604 89.2059 128.849 88.826C129.325 88.0844 129.137 87.1163 128.934 86.2581L128.494 84.4043C126.712 84.8391 124.875 85.6196 123.326 86.6037C123.273 86.638 123.223 86.7273 123.283 86.7479C123.132 88.4689 123.035 90.0504 122.887 91.7692V91.7715Z" fill="#264F85" stroke="#264F85" stroke-width="0.41593" stroke-miterlimit="10"/>
<path d="M126.565 95.7922L125.739 100.642C125.112 103.91 124.416 108.648 128.192 110.188C129.315 110.657 130.514 110.819 131.717 111.055C133.353 111.332 134.991 111.959 136.263 113.06C140.425 116.475 140.384 122.814 136.293 126.259L136.154 126.092C140.775 122.013 139.606 114.571 133.95 112.151C131.688 111.181 128.967 111.492 126.894 109.986C124.009 107.776 124.776 103.656 125.389 100.575L126.352 95.751L126.567 95.7899L126.565 95.7922Z" fill="#E5AE4C"/>
<path d="M100.665 59.825C101.027 61.1066 100.846 62.6171 100.075 63.7019C99.7572 64.1505 99.3041 64.4869 98.9655 64.9218C98.0641 66.073 98.1075 67.6773 98.1922 69.1352C98.4393 73.3463 98.6841 77.5574 98.9312 81.7663C99.0181 83.2699 100.023 84.5722 101.462 85.0139C103.509 85.6432 105.639 86.1147 107.726 86.1605C108.914 86.1856 110.103 86.1307 111.282 85.9842C116.187 85.3686 122.255 81.748 125.364 77.903C126.263 78.3928 128.496 79.1137 131.589 75.9714C132.884 74.6554 133.628 72.7352 133.164 70.8288C132.919 69.8241 132.219 68.9658 131.228 68.666C129.7 68.2037 128.393 69.2771 127.322 70.2978C128.43 69.0528 129.361 67.4485 130.038 65.9265C131.699 62.1914 131.109 57.6874 129.05 54.1537C126.993 50.62 123.616 47.9926 119.921 46.2441C117.617 45.1524 112.826 43.6923 110.3 44.0287C107.323 44.4246 99.1669 54.5016 100.665 59.8272V59.825Z" fill="#FEE2CC"/>
<path d="M100.938 70.1821C100.778 69.999 100.758 69.7336 100.888 69.5276C101.629 68.3741 104.018 64.7168 104.56 64.536C105.206 64.3209 106.061 64.4537 105.798 67.6852C105.7 68.9005 105.629 69.761 105.581 70.3607C105.524 71.061 104.897 71.5736 104.197 71.489L103.194 71.3699C102.32 71.2647 101.517 70.8413 100.936 70.1799L100.938 70.1821Z" fill="#F9CCA7"/>
<path d="M98.1631 67.4453C98.1334 68.0083 98.1609 68.5828 98.1929 69.1366C98.273 70.5007 98.353 71.867 98.4331 73.231C98.7946 72.7687 99.0692 72.0959 99.1836 71.2857C99.4032 69.7248 98.9593 68.1571 98.1631 67.4453Z" fill="#F9CCA7"/>
<path d="M107.976 60.8375L108.097 60.334C108.145 60.1349 108.335 60.0068 108.539 60.0365C109.795 60.2196 113.973 60.849 114.57 61.1808C115.744 61.8354 117.487 63.8242 117.487 63.8242L114.725 62.7051C113.696 62.3549 109.598 61.5676 108.285 61.3182C108.063 61.277 107.923 61.0572 107.976 60.8375Z" fill="#C99239"/>
<path d="M100.668 59.3667C100.668 59.3667 102.608 60.1998 103.4 60.9093L103.283 59.5544C103.283 59.5544 101.762 58.0874 100.773 58.2476L100.668 59.3667Z" fill="#C99239"/>
<path d="M115.521 76.7328C117.414 76.7328 118.948 75.1978 118.948 73.3044C118.948 71.4109 117.414 69.876 115.521 69.876C113.628 69.876 112.094 71.4109 112.094 73.3044C112.094 75.1978 113.628 76.7328 115.521 76.7328Z" fill="#F9CCA7"/>
<path d="M126.719 74.0661C127.327 71.8118 130.736 69.974 132.487 72.0681L132.327 72.2146C130.439 70.7476 127.991 72.4503 126.918 74.1576L126.719 74.0661Z" fill="#F9CCA7"/>
<path d="M98.4391 69.7421C98.4391 69.7421 98.0707 82.4578 99.0248 84.3299C99.9812 86.2021 100.608 87.2731 104.109 87.3395C106.003 87.3761 109.215 87.4196 112.656 86.5637C115.571 85.8382 118.653 84.465 121.238 81.8925L128.192 69.6162C128.192 69.6162 116.04 72.4793 113.098 72.7517C111.888 72.8638 110.67 72.8592 109.458 72.7883C105.129 72.5388 98.4391 69.7421 98.4391 69.7421Z" fill="url(#paint21_linear_469_1446)"/>
<path d="M124.195 34.7109L87.1348 38.4894L88.2078 34.0403L125.268 30.2617L124.195 34.7109Z" fill="url(#paint22_linear_469_1446)"/>
<path d="M103.399 60.9092C103.399 60.9092 105.033 63.2367 103.937 65.1295L100.83 69.6152" fill="#FEE2CC"/>
<path d="M103.399 60.9092C103.399 60.9092 105.033 63.2367 103.937 65.1295L100.83 69.6152" stroke="#C69024" stroke-width="0.41593" stroke-linecap="round" stroke-linejoin="round"/>
<path d="M125.601 75.2772C124.73 77.5201 123.874 79.1245 122.373 81.0057C119.012 85.2191 117.609 90.0367 118.74 95.3075C117.268 94.1517 116.969 92.1583 116.912 90.2885C116.68 82.8618 122.075 77.5796 122.423 72.2951C122.485 71.3499 123.496 66.5689 121.405 64.9074C118.509 62.6073 115.166 60.8793 112.489 58.3275C109.812 55.7779 107.954 51.7545 109.462 48.3787C106.531 49.4818 104.044 51.6561 102.449 54.3429C101.692 55.62 100.933 57.2038 100.772 58.7028C100.617 60.1653 101.374 61.7078 100.704 63.1199C100.221 64.1338 99.3516 64.9508 98.7704 65.9121C97.6631 67.743 98.9352 69.947 98.3289 71.9999C97.7454 73.975 95.3545 75.1674 94.0916 76.7923C92.4923 78.8498 91.7007 81.3902 92.6021 83.8368C90.8976 82.1111 91.2271 79.216 92.2429 77.012C93.2588 74.8081 94.8374 72.8329 95.3843 70.4688C96.2445 66.7406 94.3684 62.9139 94.5194 59.0919C94.643 55.9976 96.0798 53.1277 97.4869 50.3676C98.8436 47.7081 100.404 44.8496 103.15 43.6755C107.046 42.0094 110.995 41.8103 115.223 42.0758C120.602 42.4145 125.393 46.8201 129.964 49.6764C134.536 52.5303 138.697 54.2216 138.1 59.5794C138.1 59.5794 143.502 75.0598 128.932 86.2559L123.114 87.581L123.123 87.2217C123.176 85.107 123.586 83.0174 124.331 81.04L125.565 77.7741C125.565 77.7741 128.864 80.0925 132.669 74.4831C132.669 74.4831 134.348 71.3453 131.779 69.1345C131.614 68.9926 131.369 68.8942 131.111 68.8209C127.85 67.8895 126.093 74.0024 125.599 75.2749L125.601 75.2772Z" fill="#FFD066"/>
<path d="M156.594 57.6134L124.123 34.8024L125.267 30.2617L157.667 53.1642L156.594 57.6134Z" fill="#0B1F43"/>
<path d="M156.595 57.6135L112.86 48.2346L87.1348 38.4895L124.195 34.7109L156.595 57.6135Z" fill="#030917"/>
<path d="M120.426 41.9301C112.246 39.955 104.433 40.4745 98.9991 42.8845L97.1367 50.6041C102.571 48.1941 110.384 47.6746 118.563 49.6497C127.919 51.9086 135.361 56.8521 138.617 62.3037L140.48 54.5841C137.222 49.1325 129.781 44.189 120.426 41.9301Z" fill="url(#paint23_linear_469_1446)"/>
<path d="M125.738 62.7178C127.276 63.5531 128.937 65.1415 128.623 67.0502C128.436 65.201 127.036 63.9193 125.738 62.7178Z" fill="#E5AE4C"/>
<path d="M111.021 50.0335C112.163 53.1827 114.689 55.492 117.249 57.5243C117.277 57.5449 117.247 57.593 117.217 57.5724C114.444 56.0207 111.58 53.1736 111.024 50.0312L111.021 50.0335Z" fill="#E5AE4C"/>
<path d="M115.059 50.6683C116.398 52.1857 117.995 53.4307 119.75 54.4286C123.243 56.4563 127.403 57.8181 129.979 61.1572C131.262 62.773 132.125 64.8923 131.798 66.9681C131.793 67.0116 131.72 67.007 131.722 66.9612C131.667 62.789 128.178 59.7817 124.785 57.9142C121.239 55.978 117.288 54.2546 114.888 50.8033C114.853 50.7553 114.862 50.6866 114.913 50.65C114.959 50.618 115.02 50.6248 115.057 50.666L115.059 50.6683Z" fill="#E5AE4C"/>
<path d="M127.308 91.2402C129.2 93.4236 130.163 96.3943 129.904 99.2871C129.495 103.132 128.58 106.56 133.384 107.65C134.069 107.817 134.769 107.936 135.473 108.087C137.587 108.538 139.695 109.346 141.376 110.746C142.98 112.126 144.456 114.248 144.227 116.457L144.01 116.463C143.515 113.523 141.978 111.351 139.338 109.945C138.104 109.282 136.755 108.835 135.377 108.536C133.975 108.227 132.499 108.05 131.222 107.304C128.275 105.585 129.266 102.011 129.548 99.2574C129.84 96.4584 128.957 93.5518 127.141 91.3821L127.305 91.2402H127.308Z" fill="#E5AE4C"/>
<path d="M137.983 128.428C136.473 130.6 134.128 133.083 133.43 135.66C132.952 137.55 134.357 139.427 135.789 140.523C135.876 140.585 135.894 140.709 135.83 140.793C135.766 140.878 135.645 140.896 135.56 140.832C135.057 140.457 134.615 140.013 134.231 139.523C133.474 138.541 132.872 137.324 133.021 136.042C133.359 134.209 134.515 132.643 135.602 131.195L137.809 128.295C137.892 128.19 138.07 128.306 137.983 128.425V128.428Z" fill="#E5AE4C"/>
<path d="M178.04 61.7513C186.283 58.2382 195.44 58.0093 203.793 61.1081C209.703 63.3007 215.857 68.2831 216.434 75.8013C217.047 83.791 211.215 90.1008 205.845 94.7147C197.028 102.29 187.457 109.497 176.743 110.905C173.157 111.376 168.403 109.996 168.103 105.602C167.902 102.645 169.991 100.246 172.027 98.6329C182.366 90.4372 196.909 90.1443 206.722 99.2577C216.535 108.371 220.024 126.868 213.409 139.581" stroke="#CAFFED" stroke-width="1.2653" stroke-linecap="round" stroke-linejoin="round"/>
<path d="M59.7011 128.776L18.0078 152.838V104.395L59.7011 80.334V128.776Z" fill="url(#paint24_linear_469_1446)"/>
<path d="M53.8717 127.03L49.4536 125.393L45.0059 132.145L46.7264 120.125L52.2724 117.388L53.8717 127.03Z" fill="url(#paint25_linear_469_1446)"/>
<path d="M59.7012 128.776L64.1924 131.664V83.22L59.7012 80.334V128.776Z" fill="#6DD2F2" stroke="#F0F4F8" stroke-width="0.437821" stroke-miterlimit="10"/>
<path d="M59.7011 128.455L18.0078 152.838L22.4991 155.841L64.1923 131.664L59.7011 128.455Z" fill="#4FBAD3" stroke="#F0F4F8" stroke-width="0.437821" stroke-miterlimit="10"/>
<path d="M36.2898 100.224L21.8574 108.244V107.282L36.2898 99.2607V100.224Z" fill="#019DD8"/>
<path d="M36.448 104.074L22.0156 112.093V111.132L36.448 103.11V104.074Z" fill="#019DD8"/>
<path d="M36.6101 107.923L22.1777 115.943V114.982L36.6101 106.96V107.923Z" fill="#019DD8"/>
<path d="M36.7722 111.772L22.3398 119.792V118.83L36.7722 110.809V111.772Z" fill="#019DD8"/>
<path d="M36.6101 126.851L22.1777 134.873V133.909L36.6101 125.89V126.851Z" fill="#019DD8"/>
<path d="M36.7722 130.702L22.3398 138.721V137.758L36.7722 129.738V130.702Z" fill="#019DD8"/>
<path d="M55.2136 90.2776L40.7812 98.2994V97.3358L55.2136 89.3164V90.2776Z" fill="#019DD8"/>
<path d="M55.3718 94.1273L40.9395 102.149V101.185L55.3718 93.166V94.1273Z" fill="#019DD8"/>
<path d="M55.5339 97.9769L41.1016 105.999V105.035L55.5339 97.0156V97.9769Z" fill="#019DD8"/>
<path d="M55.6941 101.825L41.2617 109.847V108.884L55.6941 100.864V101.825Z" fill="#019DD8"/>
<path d="M54.2604 118.49C55.4714 114.683 54.008 110.818 50.9917 109.858C47.9754 108.898 44.5484 111.206 43.3373 115.013C42.1263 118.821 43.5897 122.685 46.606 123.646C49.6224 124.606 53.0493 122.297 54.2604 118.49Z" fill="url(#paint26_linear_469_1446)"/>
<path d="M40.5417 85.9268C32.5224 98.8005 30.3099 104.717 28.8319 108.168C28.7335 108.397 28.507 108.532 28.2851 108.422L26.6835 108.241L26.679 100.201C25.3542 97.7706 23.7504 95.3538 21.8926 93.4473C23.9426 89.829 25.4869 86.7736 26.6675 84.1714L26.6584 68.7139L30.4609 69.8307C30.4609 69.8307 32.9525 76.5777 40.5439 85.9291L40.5417 85.9268Z" fill="#A37624" stroke="#F0F4F8" stroke-width="0.437821" stroke-miterlimit="10"/>
<path d="M37.644 86.0295C32.8096 92.8429 28.8674 101.144 26.6801 108.243C26.0349 105.813 22.8112 96.452 17.6016 91.1035C25.0008 78.0467 25.8336 72.2793 26.655 68.9219C28.3778 74.0507 33.6492 82.7659 37.644 86.0295Z" fill="#FFD066" stroke="#F0F4F8" stroke-width="0.437821" stroke-miterlimit="10"/>
<path d="M87.9727 38.708V54.9895" stroke="#0F1F42" stroke-width="0.836238" stroke-miterlimit="10"/>
<path d="M88.1371 57.5005C88.8902 57.5005 89.5007 56.8898 89.5007 56.1365C89.5007 55.3832 88.8902 54.7725 88.1371 54.7725C87.3839 54.7725 86.7734 55.3832 86.7734 56.1365C86.7734 56.8898 87.3839 57.5005 88.1371 57.5005Z" fill="url(#paint27_linear_469_1446)"/>
<path d="M91.4501 66.0297H84.8242L86.0986 59.0218C86.2633 58.1132 87.055 57.4541 87.977 57.4541C88.8693 57.4541 89.6403 58.072 89.8394 58.9417L91.4501 66.032V66.0297Z" fill="url(#paint28_linear_469_1446)"/>
<path d="M209.733 50.9691L166.338 76.0115V25.5926L209.733 0.547852V50.9691Z" fill="#F0F4F8"/>
<path d="M209.732 50.635L214.404 53.64V3.55514L209.732 0.547852V50.635Z" fill="#C5C3FF" stroke="#F0F4F8" stroke-width="0.437821" stroke-miterlimit="10"/>
<path d="M209.733 50.6357L166.338 75.6782L171.012 78.7244L214.405 53.6819L209.733 50.6357Z" fill="#8B89CA" stroke="#F0F4F8" stroke-width="0.437821" stroke-miterlimit="10"/>
<path d="M212.369 188.866L215.687 190.754" stroke="#F0F4F8" stroke-width="0.437821" stroke-miterlimit="10"/>
<path d="M144.299 133.181L136.248 135.808" stroke="#0088C7" stroke-width="0.41593" stroke-miterlimit="10" stroke-linecap="round"/>
<path d="M101.347 62.2347C101.082 62.1386 100.51 61.9257 100.835 62.4246C100.835 62.4246 100.231 63.6743 100.67 64.2418C101.109 64.8094 103.095 64.7408 103.095 64.7408L103.322 64.9239C103.45 64.9742 103.578 64.8529 103.534 64.7225L103.328 64.1961C102.891 63.2875 102.297 62.5849 101.349 62.237L101.347 62.2347Z" fill="#F0F4F8"/>
<path d="M215.879 44.1727C216.094 45.1614 216.202 45.6557 216.417 46.6421C217.286 45.6465 217.721 45.1476 218.59 44.1521C222.326 39.3207 225.571 44.3306 223.372 48.4868C222.77 49.7272 222.471 50.3451 221.871 51.5856C222.741 51.581 223.175 51.5787 224.042 51.5719C229.188 52.1509 224.621 60.0101 222.336 61.4039C221.37 61.9623 220.89 62.2393 219.924 62.7977C220.137 63.7864 220.244 64.2807 220.459 65.2717C221.009 68.3866 217.549 75.7034 213.548 73.1973C212.946 72.6526 212.644 72.3803 212.042 71.8379C211.44 73.076 211.138 73.6962 210.537 74.9344C209.004 78.2735 202.028 81.3152 203.625 74.9848C203.838 73.7489 203.945 73.1309 204.16 71.8951C203.195 72.4512 202.714 72.7281 201.749 73.2843C196.594 76.7905 198.257 67.4574 200.042 65.4205C200.911 64.4226 201.346 63.9237 202.213 62.9281C201.611 62.3812 201.312 62.1088 200.712 61.5618C197.942 58.4515 201.888 52.0502 205.494 51.7069C206.363 51.7 206.798 51.6954 207.668 51.6886C207.883 50.4527 207.99 49.8325 208.205 48.5966C208.633 46.2164 214.641 38.4053 215.877 44.1704L215.879 44.1727Z" fill="#0B1E44"/>
<path d="M214.467 42.3221C214.682 43.3108 214.79 43.8051 215.005 44.7915C215.874 43.796 216.309 43.297 217.178 42.3015C220.914 37.4701 224.159 42.48 221.96 46.6362C221.358 47.8766 221.058 48.4946 220.459 49.735C221.328 49.7304 221.763 49.7281 222.63 49.7213C227.776 50.3003 223.209 58.1595 220.924 59.5533C219.958 60.1118 219.478 60.3887 218.512 60.9471C218.725 61.9358 218.832 62.4302 219.047 63.4211C219.597 66.536 216.137 73.8528 212.135 71.3467C211.534 70.802 211.232 70.5297 210.63 69.9873C210.028 71.2254 209.726 71.8457 209.125 73.0838C207.592 76.423 200.616 79.4646 202.213 73.1342C202.425 71.8983 202.533 71.2804 202.748 70.0445C201.783 70.6006 201.302 70.8776 200.337 71.4337C195.182 74.9399 196.845 65.6068 198.63 63.5699C199.499 62.5721 199.934 62.0731 200.801 61.0776C200.199 60.5306 199.9 60.2582 199.3 59.7112C196.529 56.601 200.476 50.1996 204.082 49.8563C204.951 49.8494 205.386 49.8449 206.255 49.838C206.471 48.6021 206.578 47.9819 206.793 46.746C207.221 44.3658 213.229 36.5547 214.465 42.3198L214.467 42.3221Z" fill="#833CF6"/>
<path d="M109.671 65.1208C109.671 65.1208 110.192 63.8232 115.086 68.1144C115.086 68.1144 112.419 68.3844 110.259 67.7162C109.925 67.6132 109.687 67.2493 109.11 67.0822C109.042 67.0616 108.863 66.8831 109.014 66.6588C109.096 66.5375 109.362 66.6291 109.321 66.24C109.236 65.4138 109.671 65.1208 109.671 65.1208Z" fill="#F0F4F8"/>
<path d="M111.696 66.4613C111.985 65.7301 111.705 64.934 111.07 64.6832C110.435 64.4324 109.687 64.8218 109.398 65.553C109.109 66.2842 109.389 67.0803 110.024 67.3311C110.659 67.5819 111.407 67.1925 111.696 66.4613Z" fill="#E5AE4C"/>
<path d="M116.846 68.2864C117.011 68.307 115.526 68.4558 115.085 68.1125L112.973 66.412C109.98 63.9471 109.401 65.556 109.401 65.556C109.401 65.556 108.63 64.7848 108.651 63.6564C108.651 63.6564 111.634 63.4734 114.982 67.6753C114.982 67.6753 115.693 68.1491 116.849 68.2841L116.846 68.2864Z" fill="#E5AE4C"/>
<path d="M115.565 66.9951C112.561 62.8732 109.982 63.1089 109.982 63.1089" stroke="#F9CCA7" stroke-width="0.437821" stroke-linecap="round" stroke-linejoin="round"/>
<path d="M101.076 62.0355C100.81 61.9394 100.238 61.7265 100.563 62.2254C100.563 62.2254 99.9591 63.475 100.398 64.0426C100.483 64.1502 100.623 64.2349 100.794 64.3012C101.357 64.3653 101.943 63.99 102.19 63.3629C102.256 63.1935 102.291 63.0219 102.3 62.8548C101.968 62.5001 101.57 62.2186 101.073 62.0355H101.076Z" fill="#E5AE4C"/>
<path d="M103.532 64.7198C103.532 64.7198 102.439 62.2138 100.56 62.2252C100.56 62.2252 99.8691 61.6004 99.8691 61.1221C99.8691 61.1221 102.999 62.0352 103.532 64.7221V64.7198Z" fill="#E5AE4C"/>
<path d="M100.955 61.1221C100.955 61.1221 102.827 61.3692 103.534 63.1086" stroke="#F9CCA7" stroke-width="0.437821" stroke-linecap="round" stroke-linejoin="round"/>
<path d="M116.847 68.2856C117.012 68.3062 115.527 68.455 115.085 68.1117L113.955 66.9513C113.326 66.3059 112.587 65.7681 111.761 65.4042C109.75 64.5162 109.4 65.5575 109.4 65.5575C109.4 65.5575 108.91 65.4957 108.928 64.3674C108.928 64.3674 112.456 63.1865 114.774 66.7637C115.241 67.4846 116.021 67.9858 116.81 68.281C116.822 68.2856 116.833 68.2833 116.845 68.2856H116.847Z" fill="#E5AE4C"/>
<path d="M115.565 66.9951C112.561 62.8732 109.982 63.1089 109.982 63.1089" stroke="#F9CCA7" stroke-width="0.437821" stroke-linecap="round" stroke-linejoin="round"/>
<path d="M103.531 64.7204C103.531 64.7204 103.051 62.3036 100.667 62.4798C100.667 62.4798 100.262 62.2212 100.262 61.7429C100.262 61.7429 103.472 61.1227 103.531 64.7227V64.7204Z" fill="#E5AE4C"/>
<path d="M100.953 61.1221C100.953 61.1221 102.825 61.3692 103.532 63.1086" stroke="#F9CCA7" stroke-width="0.437821" stroke-linecap="round" stroke-linejoin="round"/>
<path d="M196.522 23.8693C196.167 25.1487 195.795 26.309 194.985 27.4099C194.781 27.6868 194.58 28.0667 194.497 28.3757C193.843 30.8612 192.672 33.191 191.148 35.2531C189.873 36.9764 188.446 38.5396 186.979 40.0684C186.759 40.2973 186.675 40.4483 186.679 40.6955C186.695 41.4027 186.686 42.1282 186.689 42.8491C187.203 42.6134 187.681 42.3548 188.139 42.1991C188.549 42.0595 188.967 41.9588 189.322 41.9794C190.338 42.0389 190.324 43.3961 189.267 44.5587C188.594 45.298 187.842 45.9411 187.105 46.5796C186.778 46.8634 186.682 47.0557 186.702 47.3738C186.727 47.7766 186.727 48.2 186.709 48.628C186.695 48.9232 186.773 48.985 187.068 48.866C187.572 48.6623 188.093 48.47 188.551 48.4243C189.816 48.3007 189.972 49.5137 188.88 51.0402C188.393 51.7222 187.821 52.3608 187.251 52.9718C186.846 53.4044 186.666 53.75 186.716 54.1871C186.753 54.5029 186.737 54.8577 186.716 55.2101C186.693 55.5809 186.84 55.7388 187.153 55.6473C187.784 55.4619 188.423 55.2673 189.061 55.0225C189.64 54.8027 190.23 54.4984 190.802 54.2649C191.04 54.1688 191.269 54.1413 191.498 54.0841C191.486 54.1345 191.477 54.1871 191.466 54.2374C187.935 56.2904 184.423 58.3685 180.93 60.4832L180.9 60.3642C181.122 60.1513 181.342 59.9156 181.573 59.7302C182.417 59.0551 183.289 58.4097 184.163 57.7116C185.602 56.5581 185.606 56.5444 185.561 55.0682C185.561 55.0041 185.549 54.9446 185.54 54.8325C184.705 55.645 183.893 56.4391 183.092 57.231C183.074 57.199 183.055 57.1669 183.039 57.1349C183.204 56.9472 183.366 56.755 183.533 56.5742C184.055 56.0134 184.584 55.4573 185.112 54.8966C185.426 54.5624 185.583 54.2443 185.574 53.8575C185.549 52.7727 185.565 51.6627 185.563 50.571C185.064 50.7312 184.586 50.912 184.131 51.0219C183.394 51.2004 182.71 51.2485 182.168 50.9807C181.559 50.6763 181.623 49.9897 182.367 49.0422C183.08 48.129 183.9 47.4379 184.739 46.7902C184.886 46.6757 185.037 46.5659 185.185 46.4629C185.437 46.289 185.572 46.0784 185.567 45.8038C185.563 45.5452 185.567 45.282 185.567 44.9753C185.08 45.2362 184.606 45.5314 184.149 45.7282C183.38 46.0578 182.598 46.44 181.895 46.5819C180.536 46.8588 180.358 45.401 181.463 43.7257C181.6 43.5174 181.744 43.3023 181.904 43.1261C182.952 41.9771 184.028 40.8214 185.124 39.6931C185.378 39.4322 185.492 39.2742 185.49 38.9653C185.469 37.1962 185.231 36.9444 183.689 37.1801C182.145 37.4182 180.612 37.7317 179.205 37.8713C178.477 37.9423 177.836 37.7889 177.203 37.6836C176.539 37.5738 176.416 36.7064 176.031 36.1159C176.221 35.9786 176.34 35.887 176.461 35.8115C181.747 32.5021 187.174 29.4353 192.555 26.2839C193.01 26.0138 193.033 25.9612 193.056 25.46C193.113 24.1119 192.804 23.0958 192.038 22.5373C191.322 22.0155 190.459 21.7523 189.256 22.2833C188.709 22.5236 188.187 22.9424 187.75 23.5421C187.53 23.8465 187.313 24.247 187.242 24.5628C187.066 25.3547 186.707 26.0825 186.144 26.7576C185.561 27.4579 184.97 28.1606 184.353 28.7991C183.671 29.504 183.33 29.3667 183.483 28.5016C183.982 25.7163 185.439 23.2056 187.379 21.1756C188.336 20.1571 189.347 19.4614 190.322 19.2165C191.322 18.9648 192.232 18.9693 193.012 19.2852C194.319 19.8116 194.863 21.1024 194.925 22.9607C194.941 23.4757 194.955 23.9952 194.946 24.5262C194.941 24.7962 195.035 24.81 195.25 24.6704C195.666 24.4026 196.076 24.1577 196.527 23.8762L196.522 23.8693ZM191.745 31.1724C191.528 31.3921 191.306 31.6118 191.086 31.8338C190.036 32.8981 188.96 33.9508 187.899 35.0448C187 35.974 186.608 37.0611 186.84 37.9445C188.86 35.9992 190.724 33.825 191.743 31.1724H191.745ZM186.743 52.9077L186.849 52.9398C187.247 52.3951 187.681 51.8664 188.027 51.3011C188.288 50.8731 188.462 50.3879 188.61 49.9394C188.665 49.7723 188.59 49.5274 188.478 49.4931C187.988 49.3512 187.391 49.58 186.741 49.9417C186.741 50.9578 186.746 51.9328 186.746 52.9055L186.743 52.9077ZM185.542 41.4164C184.588 42.3571 183.698 43.229 182.833 44.117C182.721 44.2315 182.655 44.4466 182.568 44.616C182.584 44.6549 182.6 44.6938 182.616 44.7327C183.563 44.3619 184.529 43.9866 185.542 43.5929C185.542 42.8629 185.542 42.2014 185.542 41.4141V41.4164ZM185.54 47.8338C184.879 48.2252 184.302 48.7424 183.767 49.3878C183.549 49.6487 183.581 49.7769 183.751 49.8272C184.256 49.9737 184.854 49.7906 185.54 49.3924C185.54 48.8706 185.54 48.3785 185.54 47.8315V47.8338ZM186.721 44.3688C186.721 44.6526 186.721 44.8929 186.721 45.179C187.224 44.7853 187.617 44.3459 187.951 43.6501C187.496 43.9156 187.121 44.1353 186.721 44.3688Z" fill="#019DD8"/>
</g>
<defs>
<linearGradient id="paint0_linear_469_1446" x1="148.219" y1="2.63392" x2="222.286" y2="274.417" gradientUnits="userSpaceOnUse">
<stop stop-color="#0088C3"/>
<stop offset="1" stop-color="#0F1F42"/>
</linearGradient>
<linearGradient id="paint1_linear_469_1446" x1="110.212" y1="98.872" x2="131.802" y2="187.005" gradientUnits="userSpaceOnUse">
<stop stop-color="#C5C3FF"/>
<stop offset="0.51" stop-color="#833CF6"/>
<stop offset="1" stop-color="#6B00F8"/>
</linearGradient>
<linearGradient id="paint2_linear_469_1446" x1="119.664" y1="124.035" x2="96.9342" y2="154.754" gradientUnits="userSpaceOnUse">
<stop offset="0.18" stop-color="#F0F4F8"/>
<stop offset="0.48" stop-color="#BEF5FF"/>
<stop offset="1" stop-color="#0088C3"/>
</linearGradient>
<linearGradient id="paint3_linear_469_1446" x1="123.191" y1="132.021" x2="298.117" y2="331.242" gradientUnits="userSpaceOnUse">
<stop offset="0.2" stop-color="#BEF5FF"/>
<stop offset="0.76" stop-color="#39C7DF"/>
</linearGradient>
<linearGradient id="paint4_linear_469_1446" x1="69.3542" y1="131.445" x2="204.816" y2="285.527" gradientUnits="userSpaceOnUse">
<stop offset="0.15" stop-color="#F0F4F8"/>
<stop offset="0.39" stop-color="#F0F4F8"/>
</linearGradient>
<linearGradient id="paint5_linear_469_1446" x1="180.745" y1="110.511" x2="186.557" y2="128.981" gradientUnits="userSpaceOnUse">
<stop stop-color="#BEF5FF"/>
<stop offset="1" stop-color="#0088C3"/>
</linearGradient>
<linearGradient id="paint6_linear_469_1446" x1="162.899" y1="126.347" x2="164.973" y2="143.78" gradientUnits="userSpaceOnUse">
<stop stop-color="#BEF5FF"/>
<stop offset="1" stop-color="#0088C3"/>
</linearGradient>
<linearGradient id="paint7_linear_469_1446" x1="128.275" y1="115.293" x2="131.388" y2="165.518" gradientUnits="userSpaceOnUse">
<stop offset="0.3" stop-color="#BEF5FF"/>
<stop offset="0.47" stop-color="#8CD8EF"/>
<stop offset="0.84" stop-color="#289FCF"/>
<stop offset="1" stop-color="#0088C3"/>
</linearGradient>
<linearGradient id="paint8_linear_469_1446" x1="130.951" y1="116.851" x2="130.951" y2="233.904" gradientUnits="userSpaceOnUse">
<stop offset="0.25" stop-color="#DE97FF"/>
<stop offset="1" stop-color="#A827D8"/>
</linearGradient>
<linearGradient id="paint9_linear_469_1446" x1="112.456" y1="163.496" x2="97.7688" y2="194.964" gradientUnits="userSpaceOnUse">
<stop stop-color="#0088C3"/>
<stop offset="1" stop-color="#0F1F42"/>
</linearGradient>
<linearGradient id="paint10_linear_469_1446" x1="139.158" y1="130.88" x2="140.797" y2="179.098" gradientUnits="userSpaceOnUse">
<stop offset="0.47" stop-color="#DE97FF"/>
<stop offset="0.53" stop-color="#B940DD"/>
<stop offset="1" stop-color="#8C00BC"/>
</linearGradient>
<linearGradient id="paint11_linear_469_1446" x1="120.813" y1="116.851" x2="120.813" y2="233.904" gradientUnits="userSpaceOnUse">
<stop offset="0.14" stop-color="#F0F4F8"/>
<stop offset="0.44" stop-color="#DE97FF"/>
<stop offset="0.83" stop-color="#A827D8"/>
</linearGradient>
<linearGradient id="paint12_linear_469_1446" x1="99.4808" y1="197.824" x2="113.883" y2="197.824" gradientUnits="userSpaceOnUse">
<stop stop-color="#0F1F42"/>
<stop offset="1" stop-color="#0F1F42"/>
</linearGradient>
<linearGradient id="paint13_linear_469_1446" x1="172.45" y1="129.75" x2="174.09" y2="177.967" gradientUnits="userSpaceOnUse">
<stop stop-color="#DE97FF"/>
<stop offset="0.53" stop-color="#B940DD"/>
<stop offset="1" stop-color="#8C00BC"/>
</linearGradient>
<linearGradient id="paint14_linear_469_1446" x1="124.913" y1="100.804" x2="116.643" y2="80.4439" gradientUnits="userSpaceOnUse">
<stop offset="0.52" stop-color="#FFE2C7"/>
<stop offset="0.74" stop-color="#D3B091"/>
<stop offset="0.91" stop-color="#B68F6D"/>
<stop offset="1" stop-color="#AB8360"/>
</linearGradient>
<linearGradient id="paint15_linear_469_1446" x1="100.749" y1="202.131" x2="125.331" y2="202.131" gradientUnits="userSpaceOnUse">
<stop offset="0.2" stop-color="#BEF5FF"/>
<stop offset="0.76" stop-color="#39C7DF"/>
</linearGradient>
<linearGradient id="paint16_linear_469_1446" x1="85.9439" y1="179.98" x2="103.871" y2="242.196" gradientUnits="userSpaceOnUse">
<stop offset="0.2" stop-color="#0088C3"/>
<stop offset="0.24" stop-color="#0372A8"/>
<stop offset="0.33" stop-color="#094571"/>
<stop offset="0.4" stop-color="#0D294E"/>
<stop offset="0.44" stop-color="#0F1F42"/>
</linearGradient>
<linearGradient id="paint17_linear_469_1446" x1="72.5259" y1="170.478" x2="80.5706" y2="228.172" gradientUnits="userSpaceOnUse">
<stop stop-color="#0088C3"/>
<stop offset="1" stop-color="#0F1F42"/>
</linearGradient>
<linearGradient id="paint18_linear_469_1446" x1="121.491" y1="117.444" x2="127.089" y2="160.033" gradientUnits="userSpaceOnUse">
<stop offset="0.2" stop-color="#BEF5FF"/>
<stop offset="0.76" stop-color="#39C7DF"/>
</linearGradient>
<linearGradient id="paint19_linear_469_1446" x1="138.804" y1="172.832" x2="218.36" y2="244.925" gradientUnits="userSpaceOnUse">
<stop offset="0.2" stop-color="#BEF5FF"/>
<stop offset="0.6" stop-color="#39C7DF"/>
</linearGradient>
<linearGradient id="paint20_linear_469_1446" x1="96.7206" y1="194.771" x2="140.787" y2="194.771" gradientUnits="userSpaceOnUse">
<stop offset="0.2" stop-color="#BEF5FF"/>
<stop offset="0.76" stop-color="#39C7DF"/>
</linearGradient>
<linearGradient id="paint21_linear_469_1446" x1="104.31" y1="64.6315" x2="139.117" y2="111.378" gradientUnits="userSpaceOnUse">
<stop offset="0.09" stop-color="#BEF5FF"/>
<stop offset="0.47" stop-color="#6DD2F2"/>
</linearGradient>
<linearGradient id="paint22_linear_469_1446" x1="87.1348" y1="34.3744" x2="125.268" y2="34.3744" gradientUnits="userSpaceOnUse">
<stop stop-color="#BEF5FF"/>
<stop offset="1" stop-color="#0088C3"/>
</linearGradient>
<linearGradient id="paint23_linear_469_1446" x1="98.887" y1="41.2298" x2="126.851" y2="54.1518" gradientUnits="userSpaceOnUse">
<stop stop-color="#0088C3"/>
<stop offset="1" stop-color="#0F1F42"/>
</linearGradient>
<linearGradient id="paint24_linear_469_1446" x1="16.2781" y1="94.4893" x2="67.9097" y2="144.991" gradientUnits="userSpaceOnUse">
<stop stop-color="#F0F4F8"/>
<stop offset="0.54" stop-color="#BEF5FF"/>
<stop offset="0.96" stop-color="#39C7DF"/>
</linearGradient>
<linearGradient id="paint25_linear_469_1446" x1="38.2335" y1="112.234" x2="54.0284" y2="131.245" gradientUnits="userSpaceOnUse">
<stop offset="0.06" stop-color="white"/>
<stop offset="0.46" stop-color="#FFCE4E"/>
<stop offset="0.94" stop-color="#C69024"/>
</linearGradient>
<linearGradient id="paint26_linear_469_1446" x1="42.2736" y1="108.886" x2="58.0685" y2="127.895" gradientUnits="userSpaceOnUse">
<stop offset="0.06" stop-color="white"/>
<stop offset="0.46" stop-color="#FFCE4E"/>
<stop offset="0.94" stop-color="#C69024"/>
</linearGradient>
<linearGradient id="paint27_linear_469_1446" x1="84.1286" y1="49.774" x2="94.2068" y2="65.7644" gradientUnits="userSpaceOnUse">
<stop offset="0.28" stop-color="#0088C3"/>
<stop offset="1" stop-color="#0F1F42"/>
</linearGradient>
<linearGradient id="paint28_linear_469_1446" x1="80.7357" y1="51.911" x2="90.8139" y2="67.9036" gradientUnits="userSpaceOnUse">
<stop offset="0.32" stop-color="#0088C3"/>
<stop offset="1" stop-color="#0F1F42"/>
</linearGradient>
<clipPath id="clip0_469_1446">
<rect width="404" height="230" fill="white" transform="translate(-52 0.791016)"/>
</clipPath>
</defs>
</svg>
