<svg width="204" height="419" viewBox="0 0 204 419" fill="none" xmlns="http://www.w3.org/2000/svg">
<g clip-path="url(#clip0_554_11327)">
<path d="M282.037 452.245C409.076 452.245 512.062 349.363 512.062 222.452C512.062 95.5413 409.076 -7.34033 282.037 -7.34033C154.998 -7.34033 52.0117 95.5413 52.0117 222.452C52.0117 349.363 154.998 452.245 282.037 452.245Z" fill="url(#paint0_linear_554_11327)"/>
<path d="M202.333 224.903H114.598V358.268H202.333V224.903Z" fill="url(#paint1_linear_554_11327)" stroke="#264F85" stroke-width="0.41593" stroke-miterlimit="10"/>
<path d="M135.962 275.925C147.058 272.434 136.551 261.34 130.821 269.433C133.192 264.432 132.553 259.271 128.071 258.643C127.862 258.613 127.662 258.593 127.472 258.573C121.403 258.064 120.255 263.549 121.588 268.894C111.331 253.686 102.322 278.966 117.445 279.161C102.441 283.01 111.176 300.542 122.526 288.664C121.633 292.469 124.642 296.752 128.371 296.981C132.708 297.729 137.914 289.871 133.357 287.218C143.649 291.536 147.602 273.108 135.962 275.925Z" fill="url(#paint2_linear_554_11327)"/>
<path d="M133.333 167.149C133.378 174.219 133.303 181.295 133.108 188.36C132.944 194.284 132.669 200.317 130.608 205.871C128.546 211.426 126.61 214.004 120.93 215.694C120.93 215.694 131.706 264.125 157.056 262.769C181.244 261.472 180.43 216.427 180.43 216.427C180.43 216.427 165.576 211.785 170.408 136.344C168.097 137.99 166.315 141.261 166.315 141.261L162.761 147C155.04 155.232 145.806 161.903 135.559 166.65L133.133 167.772" fill="#FEE2CC"/>
<path d="M133.573 167.148C133.558 175.091 133.713 186.086 133.408 193.909C133.184 198.402 132.42 202.924 130.658 207.088C129.804 209.157 128.741 211.261 127.039 212.857C125.367 214.452 123.171 215.315 120.995 215.918L121.16 215.639C124.863 230.164 131.467 248.503 143.505 258.051C150.433 263.556 160.615 264.394 167.473 258.325C171.257 255.055 173.707 250.522 175.469 245.9C178.918 236.516 180.106 226.379 180.191 216.427L180.356 216.651C180.096 216.561 179.936 216.427 179.732 216.312C179.208 215.953 178.688 215.444 178.269 214.961C176.557 212.996 175.484 210.533 174.516 208.14C172.784 203.283 171.676 198.147 170.977 193.047C169.994 186.445 169.575 179.13 169.33 172.454C169.135 164.875 169.265 156.797 169.505 149.218C169.609 147.194 170.054 138.453 170.163 136.329L170.538 136.538C169.674 137.167 168.926 137.959 168.252 138.807C166.979 140.422 164.134 145.299 162.961 147.124C154.651 156.054 144.399 163.105 133.233 167.991L133.034 167.562C144.094 162.761 154.456 155.565 162.557 146.88L166.026 141.28C167.144 139.365 168.456 137.501 170.268 136.159L170.668 135.87L170.643 136.369C170.528 138.488 170.079 147.398 169.984 149.248C169.639 160.292 169.49 171.726 170.348 182.745C170.867 189.496 171.701 196.542 173.443 203.079C174.286 206.38 175.434 209.645 177.151 212.602C177.685 213.505 178.324 214.372 179.053 215.125C179.502 215.589 180.061 216.068 180.665 216.272C180.595 226.364 179.407 236.571 175.913 246.089C174.122 250.781 171.636 255.379 167.783 258.709C160.74 264.917 150.338 264.099 143.216 258.45C131.062 248.817 124.429 230.408 120.691 215.764L120.641 215.554L120.855 215.479C122.952 214.796 124.983 213.849 126.5 212.318C133.204 204.575 132.45 190.309 132.809 180.521L133.094 167.163H133.568L133.573 167.148Z" fill="#C69024"/>
<path d="M193.968 387.097C196.504 402.569 204.101 416.022 205.254 431.633C305.527 423.012 329.63 398.69 290.823 330.294C286.046 321.878 273.528 297.605 268.887 287.194C229.191 213.508 251.053 214.6 170.41 208.841C170.41 208.841 188.817 220.09 181.895 262.039C174.972 303.987 165.344 401.332 165.344 401.332L193.973 387.092L193.968 387.097Z" fill="url(#paint3_linear_554_11327)"/>
<path d="M130.474 308.375L124.35 311.651L134.687 330.07L124.35 359.807C82.4189 428.651 37.2135 442.598 24.1215 394.71C17.1787 369.321 30.0161 355.549 51.7779 308.749C56.6443 298.288 71.3235 256.384 75.0219 249.503C83.8115 233.164 81.8749 216.196 115.007 213.069C121.291 212.476 126.591 207.988 130.609 205.745C126.172 214.391 123.706 223.79 123.387 233.353C122.888 248.336 121.999 260.667 125.009 277.59L130.474 308.37V308.375Z" fill="url(#paint4_linear_554_11327)"/>
<path d="M122.922 210.029C112.036 218.59 98.5251 232.422 91.1681 244.149C90.7787 244.772 90.3795 245.535 90.6789 246.208C90.8935 246.682 91.3927 246.951 91.8518 247.196C97.0477 249.943 101.555 253.972 104.859 258.828C105.158 259.267 105.458 259.751 105.428 260.279C105.383 261.037 104.704 261.576 104.085 262.025C99.0592 265.679 94.622 270.147 90.9984 275.193C101.879 287.225 108.647 300.488 114.597 315.227" stroke="#0088C7" stroke-width="0.41593" stroke-miterlimit="10"/>
<path d="M87.3487 263.531C87.3487 263.531 84.5436 279.108 84.3789 333.95" stroke="#0088C7" stroke-width="0.41593" stroke-miterlimit="10"/>
<path d="M50.3555 352.932L124.35 311.651" stroke="#0088C3" stroke-width="0.402795" stroke-miterlimit="10"/>
<path d="M179.312 200.504C195.749 211.429 209.964 225.669 220.859 242.113C221.603 243.235 222.362 244.502 222.162 245.833C222.007 246.88 221.279 247.743 220.585 248.546C216.792 252.904 212.998 257.261 209.2 261.619C212.943 264.496 216.342 267.827 219.297 271.507C219.876 272.23 220.46 273.008 220.595 273.925C220.765 275.087 220.176 276.214 219.607 277.246C208.606 297.046 195.639 316.248 190.123 338.212" fill="white"/>
<path d="M179.312 200.504C195.749 211.429 209.964 225.669 220.859 242.113C221.603 243.235 222.362 244.502 222.162 245.833C222.007 246.88 221.279 247.743 220.585 248.546C216.792 252.904 212.998 257.261 209.2 261.619C212.943 264.496 216.342 267.827 219.297 271.507C219.876 272.23 220.46 273.008 220.595 273.925C220.765 275.087 220.176 276.214 219.607 277.246C208.606 297.046 195.639 316.248 190.123 338.212" stroke="#009EDE" stroke-width="0.402795" stroke-miterlimit="10"/>
<path d="M81.8789 356.08L142.961 442.849L261.133 359.829L261.099 359.78C261.298 359.685 261.493 359.575 261.677 359.45C268.221 354.853 292.513 311.982 272.718 283.86C251.54 253.774 207.143 268.084 200.6 272.681C200.42 272.811 200.251 272.955 200.091 273.11L200.056 273.06L81.8839 356.08H81.8789Z" fill="url(#paint5_linear_554_11327)" stroke="white" stroke-width="0.41593" stroke-miterlimit="10"/>
<path d="M81.8789 356.08L142.961 442.849L261.133 359.829L261.099 359.779C261.298 359.685 261.493 359.575 261.677 359.45C267.318 355.486 285.476 322.283 278.163 295.797L163.056 299.053L81.8789 356.08Z" fill="url(#paint6_linear_554_11327)" stroke="white" stroke-width="0.41593" stroke-miterlimit="10"/>
<path d="M142.629 442.803L151.508 436.566L151.403 436.421C156.279 430.383 147.934 408.324 131.877 385.517C115.821 362.711 97.8623 347.403 90.5252 349.946L81.6758 356.229L142.624 442.803H142.629Z" fill="#0088C3" stroke="white" stroke-width="0.41593" stroke-miterlimit="10"/>
<path d="M142.973 442.815C149.516 438.217 141.146 415.067 124.277 391.108C107.409 367.149 88.4299 351.453 81.8867 356.05C75.3434 360.648 83.7137 383.797 100.582 407.757C117.451 431.716 136.43 447.412 142.973 442.815Z" fill="url(#paint7_linear_554_11327)"/>
<path d="M268.719 340.094C269.234 333.707 268.63 326.243 265.66 318.609L135.773 409.856C139.402 416.722 142.042 423.034 143.52 428.29L268.719 340.094Z" fill="url(#paint8_linear_554_11327)" stroke="white" stroke-width="0.41593" stroke-miterlimit="10"/>
<path d="M151.468 422.955C149.961 417.694 147.301 411.397 143.672 404.561L135.891 410.025C139.519 416.891 142.16 423.204 143.637 428.459L151.473 422.955H151.468Z" fill="#264F85" stroke="white" stroke-width="0.41593" stroke-miterlimit="10"/>
<path d="M219.63 271.733C225.82 273.409 232.772 276.515 239.595 281.581L109.709 372.828C104.468 367.094 99.412 362.477 94.9648 359.315L219.63 271.733Z" fill="#BEF5FF" stroke="white" stroke-width="0.41593" stroke-miterlimit="10"/>
<path d="M111.729 371.132L217.018 297.441L181.101 298.758L100.488 355.161L111.729 371.132Z" fill="url(#paint9_linear_554_11327)" stroke="white" stroke-width="0.41593" stroke-miterlimit="10"/>
<path d="M102.68 353.641C107.122 356.837 112.158 361.464 117.369 367.193L109.588 372.658C104.347 366.924 99.2909 362.307 94.8438 359.145L102.68 353.641Z" fill="#6DD2F2" stroke="white" stroke-width="0.41593" stroke-miterlimit="10"/>
<path d="M115.853 406.145L143.635 428.454C143.635 428.454 142.392 419.917 135.888 410.02L112.215 399.599L113.662 401.653C114.626 403.024 115.364 404.54 115.853 406.145Z" fill="url(#paint10_linear_554_11327)"/>
<path d="M188.671 335.585C191.595 335.585 193.966 333.216 193.966 330.295C193.966 327.373 191.595 325.004 188.671 325.004C185.746 325.004 183.375 327.373 183.375 330.295C183.375 333.216 185.746 335.585 188.671 335.585Z" fill="#F5CCFF" stroke="white" stroke-width="0.41593" stroke-miterlimit="10"/>
<path d="M162.091 382.171C165.071 382.171 167.486 379.758 167.486 376.781C167.486 373.804 165.071 371.391 162.091 371.391C159.111 371.391 156.695 373.804 156.695 376.781C156.695 379.758 159.111 382.171 162.091 382.171Z" fill="#DE97FF" stroke="white" stroke-width="0.41593" stroke-miterlimit="10"/>
<path d="M260.994 359.675C261.194 359.58 261.388 359.47 261.573 359.345C268.116 354.748 292.409 311.877 272.614 283.755C251.436 253.669 207.039 267.979 200.495 272.576C200.316 272.706 200.146 272.85 199.986 273.005L199.951 272.955L198.594 273.907C214.785 265.416 239.522 275.852 255.484 298.529C272.349 322.488 273.033 351.044 257.006 362.302" fill="#8FEAFF"/>
<path d="M260.994 359.675C261.194 359.58 261.388 359.47 261.573 359.345C268.116 354.748 292.409 311.877 272.614 283.755C251.436 253.669 207.039 267.979 200.495 272.576C200.316 272.706 200.146 272.85 199.986 273.005L199.951 272.955L198.594 273.907C214.785 265.416 239.522 275.852 255.484 298.529C272.349 322.488 273.033 351.044 257.006 362.302" stroke="white" stroke-width="0.41593" stroke-miterlimit="10"/>
<path d="M82.6671 433.829L116.103 410.339C117.461 409.387 115.724 404.575 112.22 399.604C108.716 394.628 104.778 391.372 103.421 392.324L69.9844 415.814L82.6671 433.829Z" fill="#6DD2F2" stroke="white" stroke-width="0.41593" stroke-miterlimit="10"/>
<path d="M80.6078 430.907L115.851 406.145C115.122 404.261 113.869 401.952 112.217 399.599L76.3203 424.814L80.6078 430.902V430.907Z" fill="#009CD8" stroke="white" stroke-width="0.41593" stroke-miterlimit="10"/>
<path d="M94.8844 476.341L103.659 469.953C108.535 463.915 100.19 441.856 84.1333 419.05C68.0766 396.243 50.1182 380.935 42.7811 383.478L33.7969 389.571L94.8794 476.341H94.8844Z" fill="#0088C3" stroke="white" stroke-width="0.41593" stroke-miterlimit="10"/>
<path d="M94.9064 476.315C101.45 471.717 93.0794 448.567 76.2109 424.608C59.3425 400.649 40.3635 384.953 33.8202 389.55C27.277 394.148 35.6473 417.297 52.5158 441.257C69.3842 465.216 88.3632 480.912 94.9064 476.315Z" fill="#00A8E1" stroke="white" stroke-width="0.41593" stroke-miterlimit="10"/>
<path d="M56.7347 389.397C61.1768 392.594 66.213 397.221 71.4238 402.95L63.6425 408.415C58.4017 402.681 53.3456 398.063 48.8984 394.902L56.7347 389.397Z" fill="#6DD2F2" stroke="white" stroke-width="0.41593" stroke-miterlimit="10"/>
<path d="M133.504 167.771L133.704 167.676C133.704 167.501 133.704 167.322 133.704 167.147L133.504 167.771Z" fill="#F9CCA7"/>
<path d="M170.773 136.342C168.462 137.988 166.681 141.259 166.681 141.259L163.127 146.998C155.405 155.23 146.172 161.901 135.925 166.648L133.704 167.68C133.738 173.529 133.639 186.553 133.504 192.402C135.191 192.133 149.626 187.54 156.843 177.438C164.35 166.932 168.353 153.36 170.11 149.227C170.264 144.38 170.414 141.942 170.773 136.342Z" fill="url(#paint11_linear_554_11327)"/>
<path d="M151.736 430.686C159.483 427.425 170.633 414.346 168.302 413.808C160.182 411.933 130.888 424.224 122.538 423.456C120.946 423.311 119.304 423.172 117.776 423.595C116.249 424.019 115.096 425.655 114.996 427.056C116.483 429.17 123.291 433.014 124.36 433.209" fill="url(#paint12_linear_554_11327)"/>
<path d="M197.772 394.932C187.879 397.709 176.888 396.313 168.004 391.157C165.059 389.447 162.269 387.313 158.965 386.47C155.416 385.568 151.688 386.256 148.029 386.331C143.188 386.425 132.656 385.368 128.678 382.611C128.369 382.396 128.019 382.162 127.65 382.237C127.315 382.302 127.086 382.601 126.916 382.89C125.544 385.234 126.232 388.355 127.914 390.484C129.596 392.613 137.692 393.84 140.113 395.061C148.658 399.379 141.88 408.195 139.519 410.528L139.504 410.543C134.982 415.011 130.715 417.713 124.73 417.06C117.513 416.272 111.169 414.821 103.797 415.918C106.487 415.52 106.113 419.927 110.53 420.217C110.53 421.653 110.48 421.772 111.099 423.323C111.324 423.886 111.987 424.674 113.57 425.806C115.566 427.232 117.807 428.289 120.163 428.982C127.281 431.076 128.189 432.478 132.282 432.522C138.68 432.592 145.114 430.912 151.198 429.301C152.521 428.952 153.854 428.593 155.057 427.94C156.075 427.387 156.968 426.639 157.892 425.936C163.946 421.304 171.263 418.476 178.77 417.14C186.277 415.804 193.988 415.928 201.56 416.796L197.777 394.927L197.772 394.932Z" fill="#BEF5FF"/>
<path d="M82.6671 433.608L116.103 410.118C117.461 409.166 115.724 404.354 112.22 399.383C108.716 394.407 104.778 391.151 103.421 392.103L69.9844 415.593L82.6671 433.608Z" fill="url(#paint13_linear_554_11327)"/>
<path d="M80.6117 430.688L115.855 405.926C115.126 404.041 113.873 401.733 112.221 399.379L76.3242 424.594L80.6117 430.683V430.688Z" fill="#264F85"/>
<path d="M94.8844 476.119L103.659 469.732C108.535 463.694 100.19 441.635 84.1333 418.828C68.0766 396.022 50.1182 380.714 42.7811 383.257L33.7969 389.35L94.8794 476.119H94.8844Z" fill="#0088C3"/>
<path d="M94.9064 476.094C101.45 471.497 93.0794 448.347 76.2109 424.387C59.3425 400.428 40.3635 384.732 33.8202 389.329C27.277 393.927 35.6473 417.077 52.5158 441.036C69.3843 464.995 88.3632 480.691 94.9064 476.094Z" fill="url(#paint14_linear_554_11327)"/>
<path d="M56.7386 389.177C61.1807 392.373 66.2169 397 71.4277 402.729L63.6464 408.194C58.4056 402.46 53.3495 397.843 48.9023 394.682L56.7386 389.177Z" fill="#6DD2F2"/>
<path d="M124.348 311.532C124.348 311.532 142.211 302.616 152.513 289.448C152.513 289.448 156.84 287.184 174.969 281.216C193.097 275.247 198.332 272.395 203.992 269.493C203.992 269.493 206.693 271.747 201.956 275.656C201.956 275.656 208.375 274.335 209.992 273.188C209.992 273.188 213.082 277.92 201.133 282.861C201.133 282.861 180.738 292.943 174.559 296.857C174.559 296.857 180.738 298.094 183.828 298.094C186.918 298.094 189.388 300.153 194.13 301.385C198.871 302.616 194.749 306.117 189.393 305.498C184.038 304.88 179.71 302.821 174.974 303.235C170.237 303.648 162.431 308.585 158.812 310.44C155.193 312.289 141.962 315.391 129.848 322.137L124.353 311.532H124.348Z" fill="url(#paint15_linear_554_11327)"/>
<path d="M124.348 311.532C124.348 311.532 144.832 299.475 151.964 290.196C152.343 289.707 152.843 289.329 153.421 289.114C156.781 287.873 168.031 283.036 177.749 280.159C178.842 279.835 179.915 279.461 180.973 279.042C191.05 275.028 199.89 272.027 203.988 269.499" stroke="#0088C7" stroke-width="0.41593" stroke-miterlimit="10"/>
<path d="M205.249 431.633L196.09 388.573C196.09 388.573 236.025 365.263 268.882 358.272" fill="url(#paint16_linear_554_11327)"/>
<path d="M196.816 391.933C186.923 394.71 179.182 394.71 167.996 391.15C164.747 390.118 162.262 387.306 158.957 386.463C155.409 385.561 151.68 386.249 148.022 386.324C143.18 386.418 132.649 385.361 128.671 382.604C128.361 382.39 128.012 382.155 127.642 382.23C127.308 382.295 127.078 382.594 126.909 382.883C125.536 385.227 126.225 388.348 127.907 390.477C129.589 392.606 137.685 393.833 140.106 395.054C148.65 399.373 141.872 408.188 139.512 410.522L139.497 410.537C134.975 415.004 130.707 417.707 124.723 417.053C118.928 416.42 113.692 415.363 108.042 415.538C106.285 415.592 105.536 417.806 106.894 418.918C107.698 419.576 108.781 420.095 110.523 420.21C110.523 421.646 110.473 421.765 111.092 423.316C111.331 423.919 112.08 424.787 113.927 426.053C115.838 427.365 117.959 428.327 120.181 428.98C127.278 431.075 128.191 432.466 132.274 432.516C138.673 432.585 145.107 430.905 151.191 429.295C152.514 428.945 153.846 428.586 155.049 427.933C156.067 427.38 156.961 426.632 157.884 425.929C163.939 421.297 171.256 418.47 178.762 417.133C186.269 415.797 194.754 416.236 202.331 417.103L196.821 391.923L196.816 391.933Z" fill="url(#paint17_linear_554_11327)"/>
<path d="M195.878 292.626C188.86 291.643 182.512 286.792 179.727 280.28C176.941 273.768 177.82 265.83 181.958 260.086C183.53 257.902 185.516 256.042 187.084 253.853C188.646 251.664 189.794 248.977 189.335 246.324C188.865 243.631 186.794 241.443 184.403 240.111C182.018 238.775 179.307 238.152 176.662 237.459C169.06 235.464 161.184 232.433 156.552 226.09C153.612 222.066 152.275 217.045 152.015 212.069C151.396 200.192 156.987 188.16 166.465 180.97C166.929 178.123 169.43 176.847 172.26 176.273C175.09 175.7 178.015 176.303 180.84 176.926C182.931 177.39 185.037 177.874 186.974 178.791C188.311 179.425 189.554 180.267 190.642 181.269C193.897 184.276 195.654 188.699 195.843 193.122C196.033 197.544 194.75 201.947 192.649 205.846C191.885 207.262 191.007 208.643 190.592 210.204C190.178 211.765 190.323 213.575 191.416 214.757C192.824 216.277 195.179 216.237 197.246 216.432C206.599 217.319 214.241 225.691 215.743 234.956C217.246 244.22 213.337 253.823 206.899 260.654C202.956 264.833 198.059 268.193 194.985 273.045C193.502 275.383 192.489 278.011 192.025 280.739C191.7 282.633 191.646 284.613 192.225 286.448C193.058 289.09 193.218 291.833 195.873 292.626H195.878Z" fill="#FFD066"/>
<path d="M196.107 292.675C195.488 292.739 194.69 292.809 194.081 292.635C193.102 292.465 192.124 292.246 191.191 291.917C183.394 289.414 177.445 282.064 176.806 273.847C176.387 268.906 177.58 263.745 180.395 259.616C183.215 255.184 189.723 250.935 187.293 245.112C185.326 241.217 180.659 240.085 176.676 239.033C169.04 236.969 160.909 233.967 155.923 227.421C145.252 212.881 152.728 189.835 166.23 180.925C166.634 178.122 169.424 176.597 171.975 176.138C176.252 175.3 180.609 176.716 184.722 177.793C191.625 179.748 195.882 186.599 195.917 193.57C195.982 197.02 195.159 200.445 193.786 203.597C192.828 205.98 191.106 208.049 190.532 210.577C189.908 213.439 191.415 215.753 194.35 216.122C196.047 216.396 197.789 216.371 199.461 216.79C206.244 218.306 211.715 223.661 214.36 229.959C218.398 239.692 215.064 251.05 208.545 258.903C205.286 262.932 201.023 265.954 197.599 269.813C194.185 273.593 191.914 278.584 191.984 283.719C191.999 285.44 192.668 287.05 193.082 288.691C193.317 289.508 193.587 290.316 194.046 290.994C194.32 291.428 194.7 291.762 195.119 292.036L195.388 292.171C195.503 292.231 195.638 292.281 195.763 292.356C195.922 292.455 196.032 292.59 196.117 292.67L196.107 292.675ZM195.643 292.575C195.528 292.585 195.438 292.645 195.393 292.67C195.318 292.705 195.254 292.63 195.174 292.6C194.565 292.296 194.021 291.822 193.661 291.249C193.162 290.491 192.898 289.638 192.668 288.81C192.259 287.13 191.6 285.485 191.605 283.734C191.55 276.514 195.863 270.581 201.078 266.019C203.599 263.685 206.239 261.461 208.4 258.794C214.914 250.995 218.273 239.697 214.28 229.993C211.66 223.696 206.219 218.341 199.451 216.805C196.996 216.102 194.156 216.715 191.944 215.239C188.82 212.801 190.971 208.583 192.583 205.885C196.277 199.219 197.275 190.438 192.783 183.911C189.683 179.244 184.902 177.768 179.651 176.806C177.15 176.297 174.56 175.923 172.049 176.507C169.659 176.986 167.038 178.367 166.694 181.004C157.186 188.932 151.825 201.512 153.262 213.584C154.351 223.447 159.686 229.659 168.77 233.319C171.555 234.461 174.465 235.334 177.445 236.077C182.236 237.203 187.722 238.894 190.123 243.735C191.865 247.071 190.806 251.19 188.845 254.097C186.224 257.966 182.536 260.733 180.944 265.156C176.527 276.071 182.561 288.127 193.696 291.782L194.754 292.111C195.064 292.211 195.294 292.475 195.648 292.575H195.643Z" fill="#E5AE4C"/>
<path d="M163.281 182.978C164.509 183.018 165.677 182.519 166.8 182.026C169.276 180.944 171.756 179.862 174.067 178.471C174.911 177.962 175.754 177.389 176.288 176.561C177.327 174.946 176.917 172.836 176.473 170.967L175.515 166.928C171.627 167.875 167.619 169.575 164.24 171.719C164.125 171.794 164.015 171.989 164.145 172.034C163.815 175.783 163.606 179.229 163.281 182.973V182.978Z" fill="#264F85" stroke="#264F85" stroke-width="0.41593" stroke-miterlimit="10"/>
<path d="M171.303 191.734L169.501 202.299C168.133 209.42 166.616 219.741 174.852 223.097C177.302 224.119 179.918 224.473 182.543 224.987C186.112 225.59 189.686 226.956 192.461 229.354C201.54 236.794 201.45 250.605 192.526 258.11L192.221 257.746C202.303 248.86 199.753 232.645 187.415 227.375C182.478 225.261 176.544 225.939 172.022 222.658C165.728 217.841 167.4 208.866 168.737 202.155L170.839 191.644L171.308 191.729L171.303 191.734Z" fill="#E5AE4C"/>
<path d="M114.811 113.376C115.6 116.168 115.205 119.459 113.523 121.823C112.829 122.8 111.841 123.533 111.102 124.48C109.136 126.988 109.231 130.484 109.415 133.66C109.954 142.835 110.489 152.009 111.028 161.179C111.217 164.455 113.408 167.292 116.548 168.254C121.015 169.625 125.662 170.652 130.214 170.752C132.804 170.807 135.4 170.687 137.97 170.368C148.671 169.027 161.908 161.139 168.691 152.762C170.653 153.829 175.524 155.4 182.272 148.554C185.097 145.687 186.719 141.503 185.706 137.35C185.172 135.161 183.645 133.291 181.484 132.638C178.149 131.631 175.299 133.969 172.964 136.193C175.379 133.48 177.411 129.985 178.888 126.669C182.512 118.532 181.224 108.719 176.732 101.021C172.245 93.3219 164.878 87.5977 156.817 83.7883C151.791 81.4099 141.339 78.2287 135.829 78.9617C129.335 79.8243 111.542 101.778 114.811 113.381V113.376Z" fill="#FEE2CC"/>
<path d="M115.402 135.944C115.052 135.545 115.007 134.967 115.292 134.518C116.909 132.005 122.12 124.037 123.303 123.643C124.71 123.174 126.577 123.464 126.003 130.504C125.788 133.152 125.634 135.026 125.529 136.333C125.404 137.859 124.036 138.975 122.509 138.791L120.323 138.532C118.416 138.302 116.664 137.38 115.397 135.939L115.402 135.944Z" fill="#F9CCA7"/>
<path d="M109.352 129.98C109.287 131.207 109.347 132.458 109.417 133.665C109.592 136.637 109.766 139.613 109.941 142.585C110.73 141.578 111.329 140.112 111.578 138.347C112.057 134.946 111.089 131.531 109.352 129.98Z" fill="#F9CCA7"/>
<path d="M130.755 115.587L131.019 114.49C131.124 114.056 131.538 113.777 131.983 113.841C134.723 114.24 143.837 115.611 145.139 116.334C147.7 117.76 151.503 122.093 151.503 122.093L145.479 119.655C143.233 118.892 134.293 117.177 131.429 116.634C130.944 116.544 130.64 116.065 130.755 115.587Z" fill="#C99239"/>
<path d="M114.812 112.379C114.812 112.379 119.045 114.194 120.772 115.74L120.517 112.788C120.517 112.788 117.198 109.592 115.042 109.941L114.812 112.379Z" fill="#C99239"/>
<path d="M147.215 150.215C151.344 150.215 154.692 146.871 154.692 142.746C154.692 138.62 151.344 135.276 147.215 135.276C143.086 135.276 139.738 138.62 139.738 142.746C139.738 146.871 143.086 150.215 147.215 150.215Z" fill="#F9CCA7"/>
<path d="M171.641 144.405C172.968 139.494 180.405 135.49 184.223 140.052L183.874 140.371C179.756 137.175 174.416 140.885 172.075 144.605L171.641 144.405Z" fill="#F9CCA7"/>
<path d="M109.946 134.987C109.946 134.987 109.142 162.69 111.223 166.769C113.31 170.848 114.677 173.181 122.314 173.326C126.446 173.406 133.454 173.5 140.961 171.635C147.32 170.055 154.043 167.063 159.683 161.459L174.851 134.713C174.851 134.713 148.343 140.951 141.924 141.544C139.284 141.788 136.629 141.778 133.983 141.624C124.54 141.08 109.946 134.987 109.946 134.987Z" fill="url(#paint18_linear_554_11327)"/>
<path d="M166.137 58.6633L85.2891 66.8955L87.6299 57.2024L168.478 48.9702L166.137 58.6633Z" fill="url(#paint19_linear_554_11327)"/>
<path d="M120.773 115.74C120.773 115.74 124.337 120.811 121.946 124.934L115.168 134.707" fill="#FEE2CC"/>
<path d="M120.773 115.74C120.773 115.74 124.337 120.811 121.946 124.934L115.168 134.707" stroke="#C69024" stroke-width="0.41593" stroke-linecap="round" stroke-linejoin="round"/>
<path d="M169.207 147.042C167.306 151.929 165.439 155.424 162.165 159.523C154.833 168.702 151.773 179.198 154.239 190.681C151.029 188.163 150.375 183.82 150.251 179.747C149.746 163.567 161.516 152.058 162.274 140.545C162.409 138.486 164.615 128.07 160.053 124.45C153.734 119.439 146.442 115.674 140.603 110.115C134.763 104.56 130.71 95.7945 133.999 88.4399C127.605 90.8432 122.18 95.5801 118.701 101.434C117.049 104.216 115.392 107.667 115.043 110.933C114.703 114.119 116.355 117.479 114.893 120.556C113.84 122.765 111.943 124.545 110.675 126.639C108.259 130.628 111.035 135.43 109.712 139.902C108.439 144.205 103.223 146.803 100.468 150.343C96.9793 154.826 95.2524 160.36 97.2189 165.691C93.5004 161.931 94.2192 155.624 96.4353 150.822C98.6514 146.02 102.095 141.717 103.288 136.566C105.165 128.444 101.072 120.107 101.402 111.78C101.671 105.039 104.806 98.7862 107.875 92.7729C110.835 86.9789 114.239 80.7512 120.228 78.1933C128.728 74.5634 137.343 74.1296 146.567 74.708C158.301 75.4459 168.753 85.0443 178.725 91.2671C188.698 97.4848 197.777 101.17 196.474 112.842C196.474 112.842 208.259 146.569 176.474 170.961L163.782 173.848L163.802 173.065C163.917 168.458 164.81 163.906 166.437 159.598L169.127 152.482C169.127 152.482 176.325 157.533 184.625 145.312C184.625 145.312 188.289 138.476 182.684 133.659C182.324 133.35 181.79 133.136 181.226 132.976C174.114 130.947 170.28 144.265 169.202 147.037L169.207 147.042Z" fill="#FFD066"/>
<path d="M236.816 108.56L165.98 58.8628L168.476 48.9702L239.157 98.8668L236.816 108.56Z" fill="#0B1F43"/>
<path d="M236.817 108.56L141.41 88.1264L85.2891 66.8953L166.137 58.6631L236.817 108.56Z" fill="#030917"/>
<path d="M157.911 74.3899C140.067 70.0869 123.022 71.2187 111.168 76.4692L107.105 93.2875C118.96 88.0371 136.005 86.9052 153.848 91.2083C174.257 96.1297 190.494 106.9 197.596 118.777L201.659 101.958C194.552 90.0814 178.32 79.3113 157.911 74.3899Z" fill="url(#paint20_linear_554_11327)"/>
<path d="M169.5 119.678C172.854 121.498 176.478 124.959 175.794 129.117C175.385 125.088 172.33 122.296 169.5 119.678Z" fill="#E5AE4C"/>
<path d="M137.398 92.0455C139.889 98.9065 145.399 103.938 150.985 108.365C151.044 108.41 150.98 108.515 150.915 108.47C144.865 105.089 138.616 98.8865 137.403 92.0405L137.398 92.0455Z" fill="#E5AE4C"/>
<path d="M146.208 93.4265C149.128 96.7323 152.612 99.4448 156.44 101.619C164.062 106.037 173.136 109.003 178.756 116.278C181.556 119.798 183.438 124.416 182.724 128.938C182.714 129.033 182.554 129.023 182.559 128.923C182.439 119.833 174.828 113.281 167.426 109.213C159.689 104.994 151.069 101.24 145.834 93.7207C145.759 93.616 145.779 93.4664 145.889 93.3866C145.988 93.3168 146.123 93.3318 146.203 93.4215L146.208 93.4265Z" fill="#E5AE4C"/>
<path d="M172.923 181.821C177.051 186.578 179.152 193.05 178.588 199.353C177.695 207.729 175.698 215.199 186.18 217.572C187.672 217.936 189.199 218.195 190.737 218.524C195.348 219.507 199.945 221.267 203.614 224.318C207.113 227.325 210.332 231.947 209.833 236.759L209.359 236.774C208.281 230.367 204.927 225.635 199.167 222.573C196.477 221.127 193.532 220.155 190.527 219.502C187.467 218.829 184.248 218.445 181.463 216.819C175.034 213.075 177.195 205.286 177.809 199.288C178.448 193.19 176.522 186.857 172.559 182.13L172.918 181.821H172.923Z" fill="#E5AE4C"/>
<path d="M196.211 262.837C192.917 267.569 187.801 272.979 186.279 278.593C185.236 282.712 188.3 286.8 191.425 289.189C191.615 289.323 191.654 289.592 191.515 289.777C191.375 289.961 191.11 290.001 190.926 289.862C189.828 289.044 188.864 288.077 188.026 287.01C186.374 284.871 185.061 282.218 185.386 279.426C186.124 275.432 188.645 272.021 191.016 268.865L195.832 262.547C196.012 262.318 196.401 262.572 196.211 262.832V262.837Z" fill="#E5AE4C"/>
<path d="M87.1094 67.3682V102.84" stroke="#0F1F42" stroke-width="0.836238" stroke-miterlimit="10"/>
<path d="M87.4709 108.31C89.1138 108.31 90.4456 106.979 90.4456 105.338C90.4456 103.697 89.1138 102.366 87.4709 102.366C85.8279 102.366 84.4961 103.697 84.4961 105.338C84.4961 106.979 85.8279 108.31 87.4709 108.31Z" fill="url(#paint21_linear_554_11327)"/>
<path d="M94.6967 126.894H80.2422L83.0223 111.626C83.3817 109.646 85.1086 108.21 87.1201 108.21C89.0667 108.21 90.7487 109.557 91.1829 111.451L94.6967 126.899V126.894Z" fill="url(#paint22_linear_554_11327)"/>
<path d="M209.99 273.194L192.426 278.918" stroke="#0088C7" stroke-width="0.41593" stroke-miterlimit="10" stroke-linecap="round"/>
<path d="M116.288 118.627C115.709 118.417 114.461 117.953 115.17 119.04C115.17 119.04 113.852 121.763 114.81 122.999C115.769 124.236 120.101 124.086 120.101 124.086L120.595 124.485C120.875 124.595 121.154 124.331 121.059 124.047L120.61 122.9C119.657 120.92 118.359 119.389 116.293 118.632L116.288 118.627Z" fill="#F0F4F8"/>
<path d="M134.452 124.915C134.452 124.915 135.59 122.088 146.266 131.437C146.266 131.437 140.446 132.025 135.735 130.57C135.006 130.345 134.487 129.552 133.229 129.188C133.079 129.143 132.69 128.755 133.019 128.266C133.199 128.002 133.778 128.201 133.688 127.353C133.503 125.553 134.452 124.915 134.452 124.915Z" fill="#F0F4F8"/>
<path d="M138.865 127.835C139.495 126.242 138.884 124.507 137.499 123.961C136.115 123.414 134.482 124.263 133.852 125.856C133.222 127.449 133.833 129.183 135.218 129.73C136.602 130.276 138.235 129.428 138.865 127.835Z" fill="#E5AE4C"/>
<path d="M150.102 131.812C150.461 131.857 147.222 132.181 146.259 131.433L141.652 127.728C135.123 122.358 133.861 125.863 133.861 125.863C133.861 125.863 132.179 124.183 132.224 121.725C132.224 121.725 138.732 121.326 146.034 130.48C146.034 130.48 147.587 131.513 150.107 131.807L150.102 131.812Z" fill="#E5AE4C"/>
<path d="M147.307 128.998C140.754 120.018 135.129 120.532 135.129 120.532" stroke="#F9CCA7" stroke-width="0.437821" stroke-linecap="round" stroke-linejoin="round"/>
<path d="M115.694 118.193C115.115 117.984 113.867 117.52 114.576 118.607C114.576 118.607 113.258 121.329 114.216 122.566C114.401 122.8 114.706 122.985 115.08 123.129C116.308 123.269 117.586 122.451 118.125 121.085C118.269 120.716 118.344 120.342 118.364 119.978C117.64 119.205 116.772 118.592 115.689 118.193H115.694Z" fill="#E5AE4C"/>
<path d="M121.053 124.042C121.053 124.042 118.668 118.582 114.57 118.607C114.57 118.607 113.062 117.246 113.062 116.204C113.062 116.204 119.89 118.193 121.053 124.047V124.042Z" fill="#E5AE4C"/>
<path d="M115.43 116.204C115.43 116.204 119.512 116.742 121.055 120.532" stroke="#F9CCA7" stroke-width="0.437821" stroke-linecap="round" stroke-linejoin="round"/>
<path d="M150.104 131.811C150.463 131.856 147.224 132.18 146.261 131.432L143.795 128.904C142.422 127.498 140.81 126.326 139.008 125.533C134.621 123.599 133.857 125.867 133.857 125.867C133.857 125.867 132.789 125.733 132.829 123.275C132.829 123.275 140.526 120.702 145.582 128.495C146.6 130.066 148.302 131.158 150.024 131.801C150.049 131.811 150.074 131.806 150.099 131.811H150.104Z" fill="#E5AE4C"/>
<path d="M147.307 128.998C140.754 120.018 135.129 120.532 135.129 120.532" stroke="#F9CCA7" stroke-width="0.437821" stroke-linecap="round" stroke-linejoin="round"/>
<path d="M121.054 124.041C121.054 124.041 120.006 118.776 114.805 119.16C114.805 119.16 113.922 118.596 113.922 117.554C113.922 117.554 120.925 116.203 121.054 124.046V124.041Z" fill="#E5AE4C"/>
<path d="M115.43 116.204C115.43 116.204 119.512 116.742 121.055 120.532" stroke="#F9CCA7" stroke-width="0.437821" stroke-linecap="round" stroke-linejoin="round"/>
</g>
<defs>
<linearGradient id="paint0_linear_554_11327" x1="218.194" y1="-11.5836" x2="379.381" y2="580.477" gradientUnits="userSpaceOnUse">
<stop stop-color="#0088C3"/>
<stop offset="1" stop-color="#0F1F42"/>
</linearGradient>
<linearGradient id="paint1_linear_554_11327" x1="135.631" y1="198.447" x2="182.613" y2="390.486" gradientUnits="userSpaceOnUse">
<stop stop-color="#C5C3FF"/>
<stop offset="0.51" stop-color="#833CF6"/>
<stop offset="1" stop-color="#6B00F8"/>
</linearGradient>
<linearGradient id="paint2_linear_554_11327" x1="156.245" y1="253.269" x2="106.744" y2="320.255" gradientUnits="userSpaceOnUse">
<stop offset="0.18" stop-color="#F0F4F8"/>
<stop offset="0.48" stop-color="#BEF5FF"/>
<stop offset="1" stop-color="#0088C3"/>
</linearGradient>
<linearGradient id="paint3_linear_554_11327" x1="163.941" y1="270.665" x2="544.979" y2="705.198" gradientUnits="userSpaceOnUse">
<stop offset="0.2" stop-color="#BEF5FF"/>
<stop offset="0.76" stop-color="#39C7DF"/>
</linearGradient>
<linearGradient id="paint4_linear_554_11327" x1="46.4971" y1="269.413" x2="341.57" y2="605.488" gradientUnits="userSpaceOnUse">
<stop offset="0.15" stop-color="#F0F4F8"/>
<stop offset="0.39" stop-color="#F0F4F8"/>
</linearGradient>
<linearGradient id="paint5_linear_554_11327" x1="175.035" y1="234.223" x2="181.809" y2="343.645" gradientUnits="userSpaceOnUse">
<stop offset="0.3" stop-color="#BEF5FF"/>
<stop offset="0.47" stop-color="#8CD8EF"/>
<stop offset="0.84" stop-color="#289FCF"/>
<stop offset="1" stop-color="#0088C3"/>
</linearGradient>
<linearGradient id="paint6_linear_554_11327" x1="180.875" y1="237.618" x2="180.875" y2="492.636" gradientUnits="userSpaceOnUse">
<stop offset="0.25" stop-color="#DE97FF"/>
<stop offset="1" stop-color="#A827D8"/>
</linearGradient>
<linearGradient id="paint7_linear_554_11327" x1="140.522" y1="339.239" x2="108.552" y2="407.828" gradientUnits="userSpaceOnUse">
<stop stop-color="#0088C3"/>
<stop offset="1" stop-color="#0F1F42"/>
</linearGradient>
<linearGradient id="paint8_linear_554_11327" x1="198.778" y1="268.184" x2="202.344" y2="373.233" gradientUnits="userSpaceOnUse">
<stop offset="0.47" stop-color="#DE97FF"/>
<stop offset="0.53" stop-color="#B940DD"/>
<stop offset="1" stop-color="#8C00BC"/>
</linearGradient>
<linearGradient id="paint9_linear_554_11327" x1="158.751" y1="237.617" x2="158.751" y2="492.635" gradientUnits="userSpaceOnUse">
<stop offset="0.14" stop-color="#F0F4F8"/>
<stop offset="0.44" stop-color="#DE97FF"/>
<stop offset="0.83" stop-color="#A827D8"/>
</linearGradient>
<linearGradient id="paint10_linear_554_11327" x1="112.22" y1="414.029" x2="143.64" y2="414.029" gradientUnits="userSpaceOnUse">
<stop stop-color="#0F1F42"/>
<stop offset="1" stop-color="#0F1F42"/>
</linearGradient>
<linearGradient id="paint11_linear_554_11327" x1="167.704" y1="202.658" x2="149.702" y2="158.284" gradientUnits="userSpaceOnUse">
<stop offset="0.52" stop-color="#FFE2C7"/>
<stop offset="0.74" stop-color="#D3B091"/>
<stop offset="0.91" stop-color="#B68F6D"/>
<stop offset="1" stop-color="#AB8360"/>
</linearGradient>
<linearGradient id="paint12_linear_554_11327" x1="114.986" y1="423.411" x2="168.612" y2="423.411" gradientUnits="userSpaceOnUse">
<stop offset="0.2" stop-color="#BEF5FF"/>
<stop offset="0.76" stop-color="#39C7DF"/>
</linearGradient>
<linearGradient id="paint13_linear_554_11327" x1="82.687" y1="375.15" x2="121.7" y2="510.725" gradientUnits="userSpaceOnUse">
<stop offset="0.2" stop-color="#0088C3"/>
<stop offset="0.24" stop-color="#0372A8"/>
<stop offset="0.33" stop-color="#094571"/>
<stop offset="0.4" stop-color="#0D294E"/>
<stop offset="0.44" stop-color="#0F1F42"/>
</linearGradient>
<linearGradient id="paint14_linear_554_11327" x1="53.4142" y1="354.452" x2="70.9186" y2="480.153" gradientUnits="userSpaceOnUse">
<stop stop-color="#0088C3"/>
<stop offset="1" stop-color="#0F1F42"/>
</linearGradient>
<linearGradient id="paint15_linear_554_11327" x1="160.235" y1="238.908" x2="172.414" y2="331.699" gradientUnits="userSpaceOnUse">
<stop offset="0.2" stop-color="#BEF5FF"/>
<stop offset="0.76" stop-color="#39C7DF"/>
</linearGradient>
<linearGradient id="paint16_linear_554_11327" x1="198.006" y1="359.578" x2="371.353" y2="516.872" gradientUnits="userSpaceOnUse">
<stop offset="0.2" stop-color="#BEF5FF"/>
<stop offset="0.6" stop-color="#39C7DF"/>
</linearGradient>
<linearGradient id="paint17_linear_554_11327" x1="106.195" y1="407.375" x2="202.326" y2="407.375" gradientUnits="userSpaceOnUse">
<stop offset="0.2" stop-color="#BEF5FF"/>
<stop offset="0.76" stop-color="#39C7DF"/>
</linearGradient>
<linearGradient id="paint18_linear_554_11327" x1="122.753" y1="123.853" x2="198.556" y2="225.794" gradientUnits="userSpaceOnUse">
<stop offset="0.09" stop-color="#BEF5FF"/>
<stop offset="0.47" stop-color="#6DD2F2"/>
</linearGradient>
<linearGradient id="paint19_linear_554_11327" x1="85.2891" y1="57.9304" x2="168.478" y2="57.9304" gradientUnits="userSpaceOnUse">
<stop stop-color="#BEF5FF"/>
<stop offset="1" stop-color="#0088C3"/>
</linearGradient>
<linearGradient id="paint20_linear_554_11327" x1="110.924" y1="72.8642" x2="171.9" y2="101.078" gradientUnits="userSpaceOnUse">
<stop stop-color="#0088C3"/>
<stop offset="1" stop-color="#0F1F42"/>
</linearGradient>
<linearGradient id="paint21_linear_554_11327" x1="78.7262" y1="91.4764" x2="100.671" y2="126.34" gradientUnits="userSpaceOnUse">
<stop offset="0.28" stop-color="#0088C3"/>
<stop offset="1" stop-color="#0F1F42"/>
</linearGradient>
<linearGradient id="paint22_linear_554_11327" x1="71.3229" y1="96.1339" x2="93.2674" y2="131.002" gradientUnits="userSpaceOnUse">
<stop offset="0.32" stop-color="#0088C3"/>
<stop offset="1" stop-color="#0F1F42"/>
</linearGradient>
<clipPath id="clip0_554_11327">
<rect width="440" height="557" fill="white" transform="translate(0.632812 -51.7163)"/>
</clipPath>
</defs>
</svg>
