<svg width="203" height="419" viewBox="0 0 203 419" fill="none" xmlns="http://www.w3.org/2000/svg">
<g clip-path="url(#clip0_2035_22148)">
<path d="M281.403 452.57C408.442 452.57 511.428 349.688 511.428 222.777C511.428 95.8661 408.442 -7.01562 281.403 -7.01562C154.363 -7.01562 51.3777 95.8661 51.3777 222.777C51.3777 349.688 154.363 452.57 281.403 452.57Z" fill="url(#paint0_linear_2035_22148)"/>
<path d="M201.699 225.229H113.963V358.594H201.699V225.229Z" fill="url(#paint1_linear_2035_22148)" stroke="#264F85" stroke-width="0.41593" stroke-miterlimit="10"/>
<path d="M135.331 276.25C146.426 272.76 135.92 261.665 130.19 269.758C132.561 264.757 131.922 259.596 127.44 258.968C127.23 258.938 127.031 258.918 126.841 258.898C120.772 258.389 119.624 263.874 120.956 269.219C110.699 254.012 101.69 279.292 116.814 279.486C101.81 283.335 110.545 300.867 121.895 288.99C121.001 292.794 124.011 297.077 127.739 297.307C132.077 298.054 137.283 290.196 132.726 287.544C143.017 291.862 146.97 273.433 135.331 276.25Z" fill="url(#paint2_linear_2035_22148)"/>
<path d="M132.701 167.474C132.745 174.545 132.671 181.62 132.476 188.686C132.311 194.609 132.037 200.642 129.975 206.197C127.914 211.752 125.977 214.33 120.297 216.02C120.297 216.02 131.073 264.451 156.424 263.094C180.611 261.798 179.798 216.753 179.798 216.753C179.798 216.753 164.944 212.111 169.775 136.67C167.464 138.315 165.682 141.586 165.682 141.586L162.129 147.325C154.407 155.558 145.174 162.229 134.927 166.976L132.501 168.098" fill="#FEE2CC"/>
<path d="M132.94 167.474C132.925 175.417 133.08 186.411 132.775 194.234C132.551 198.727 131.787 203.249 130.025 207.413C129.172 209.482 128.109 211.586 126.407 213.182C124.734 214.777 122.538 215.64 120.362 216.243L120.527 215.964C124.23 230.489 130.834 248.828 142.873 258.376C149.8 263.881 159.982 264.719 166.84 258.651C170.624 255.38 173.074 250.847 174.836 246.225C178.285 236.841 179.473 226.704 179.558 216.752L179.723 216.976C179.463 216.886 179.303 216.752 179.099 216.637C178.575 216.278 178.056 215.77 177.636 215.286C175.924 213.321 174.851 210.858 173.883 208.465C172.151 203.608 171.043 198.473 170.344 193.372C169.361 186.77 168.942 179.455 168.697 172.779C168.502 165.2 168.632 157.122 168.872 149.543C168.977 147.519 169.421 138.778 169.531 136.654L169.905 136.863C169.042 137.492 168.293 138.285 167.619 139.132C166.346 140.748 163.501 145.624 162.328 147.449C154.018 156.379 143.766 163.43 132.601 168.316L132.401 167.887C143.462 163.086 153.823 155.891 161.924 147.205L165.393 141.605C166.511 139.691 167.824 137.826 169.635 136.485L170.035 136.195L170.01 136.694C169.895 138.813 169.446 147.723 169.351 149.573C169.007 160.618 168.857 172.051 169.715 183.07C170.234 189.822 171.068 196.867 172.81 203.404C173.653 206.705 174.801 209.971 176.518 212.927C177.052 213.83 177.691 214.698 178.42 215.45C178.869 215.914 179.428 216.393 180.032 216.597C179.962 226.689 178.774 236.896 175.281 246.415C173.489 251.107 171.003 255.704 167.15 259.035C160.107 265.242 149.706 264.425 142.583 258.775C130.429 249.142 123.796 230.733 120.058 216.089L120.008 215.879L120.222 215.804C122.319 215.121 124.35 214.174 125.867 212.643C132.571 204.9 131.817 190.634 132.176 180.846L132.461 167.489H132.935L132.94 167.474Z" fill="#C69024"/>
<path d="M193.334 387.422C195.87 402.894 203.467 416.346 204.62 431.958C304.893 423.337 328.996 399.014 290.189 330.619C285.412 322.202 272.894 297.93 268.253 287.519C228.557 213.833 250.419 214.925 169.776 209.166C169.776 209.166 188.183 220.415 181.261 262.363C174.338 304.312 164.71 401.657 164.71 401.657L193.339 387.417L193.334 387.422Z" fill="url(#paint3_linear_2035_22148)"/>
<path d="M129.841 308.701L123.716 311.977L134.053 330.395L123.716 360.133C81.7851 428.977 36.5797 442.923 23.4877 395.036C16.5449 369.647 29.3824 355.875 51.1441 309.075C56.0105 298.614 70.6897 256.71 74.3882 249.829C83.1777 233.489 81.2411 216.521 114.373 213.395C120.657 212.802 125.957 208.314 129.975 206.07C125.538 214.716 123.073 224.115 122.753 233.679C122.254 248.662 121.366 260.993 124.375 277.916L129.841 308.696V308.701Z" fill="url(#paint4_linear_2035_22148)"/>
<path d="M122.289 210.354C111.403 218.915 97.8916 232.746 90.5345 244.474C90.1452 245.097 89.7459 245.86 90.0454 246.533C90.26 247.007 90.7591 247.276 91.2183 247.52C96.4142 250.268 100.921 254.297 104.225 259.153C104.525 259.592 104.824 260.076 104.794 260.604C104.749 261.362 104.071 261.901 103.452 262.349C98.4256 266.004 93.9884 270.472 90.3648 275.518C101.246 287.549 108.014 300.813 113.963 315.552" stroke="#0088C7" stroke-width="0.41593" stroke-miterlimit="10"/>
<path d="M86.7166 263.857C86.7166 263.857 83.9115 279.434 83.7468 334.277" stroke="#0088C7" stroke-width="0.41593" stroke-miterlimit="10"/>
<path d="M49.7214 353.257L123.716 311.977" stroke="#0088C3" stroke-width="0.402795" stroke-miterlimit="10"/>
<path d="M178.68 200.83C195.116 211.755 209.331 225.995 220.227 242.44C220.971 243.562 221.729 244.828 221.53 246.159C221.375 247.206 220.646 248.069 219.952 248.872C216.159 253.23 212.366 257.588 208.567 261.946C212.311 264.823 215.71 268.153 218.665 271.833C219.244 272.556 219.828 273.334 219.962 274.251C220.132 275.413 219.543 276.54 218.974 277.572C207.973 297.372 195.006 316.574 189.491 338.538" fill="white"/>
<path d="M178.68 200.83C195.116 211.755 209.331 225.995 220.227 242.44C220.971 243.562 221.729 244.828 221.53 246.159C221.375 247.206 220.646 248.069 219.952 248.872C216.159 253.23 212.366 257.588 208.567 261.946C212.311 264.823 215.71 268.153 218.665 271.833C219.244 272.556 219.828 273.334 219.962 274.251C220.132 275.413 219.543 276.54 218.974 277.572C207.973 297.372 195.006 316.574 189.491 338.538" stroke="#009EDE" stroke-width="0.402795" stroke-miterlimit="10"/>
<path d="M81.2463 356.406L142.329 443.175L260.501 360.156L260.466 360.106C260.666 360.011 260.86 359.901 261.045 359.777C267.588 355.179 291.881 312.308 272.085 284.186C250.908 254.1 206.511 268.41 199.967 273.007C199.788 273.137 199.618 273.282 199.458 273.436L199.423 273.386L81.2513 356.406H81.2463Z" fill="url(#paint5_linear_2035_22148)" stroke="white" stroke-width="0.41593" stroke-miterlimit="10"/>
<path d="M81.2463 356.406L142.329 443.175L260.501 360.155L260.466 360.106C260.666 360.011 260.86 359.901 261.045 359.776C266.685 355.812 284.843 322.61 277.531 296.123L162.423 299.379L81.2463 356.406Z" fill="url(#paint6_linear_2035_22148)" stroke="white" stroke-width="0.41593" stroke-miterlimit="10"/>
<path d="M141.999 443.129L150.879 436.891L150.774 436.747C155.65 430.709 147.305 408.65 131.248 385.843C115.191 363.036 97.2329 347.729 89.8958 350.272L81.0464 356.554L141.994 443.129H141.999Z" fill="#0088C3" stroke="white" stroke-width="0.41593" stroke-miterlimit="10"/>
<path d="M142.342 443.141C148.885 438.544 140.515 415.394 123.647 391.435C106.778 367.475 87.7993 351.779 81.256 356.377C74.7128 360.974 83.0831 384.124 99.9515 408.083C116.82 432.043 135.799 447.739 142.342 443.141Z" fill="url(#paint7_linear_2035_22148)"/>
<path d="M268.087 340.421C268.602 334.034 267.998 326.569 265.028 318.936L135.141 410.182C138.77 417.048 141.41 423.361 142.888 428.616L268.087 340.421Z" fill="url(#paint8_linear_2035_22148)" stroke="white" stroke-width="0.41593" stroke-miterlimit="10"/>
<path d="M150.839 423.281C149.331 418.02 146.671 411.723 143.043 404.887L135.261 410.352C138.89 417.217 141.53 423.53 143.008 428.785L150.844 423.281H150.839Z" fill="#264F85" stroke="white" stroke-width="0.41593" stroke-miterlimit="10"/>
<path d="M218.999 272.061C225.188 273.736 232.141 276.842 238.964 281.908L109.077 373.155C103.836 367.421 98.7802 362.804 94.333 359.643L218.999 272.061Z" fill="#BEF5FF" stroke="white" stroke-width="0.41593" stroke-miterlimit="10"/>
<path d="M111.099 371.458L216.389 297.768L180.472 299.084L99.8589 355.487L111.099 371.458Z" fill="url(#paint9_linear_2035_22148)" stroke="white" stroke-width="0.41593" stroke-miterlimit="10"/>
<path d="M102.05 353.967C106.492 357.163 111.528 361.79 116.739 367.519L108.958 372.984C103.717 367.25 98.661 362.633 94.2139 359.472L102.05 353.967Z" fill="#6DD2F2" stroke="white" stroke-width="0.41593" stroke-miterlimit="10"/>
<path d="M115.221 406.471L143.002 428.779C143.002 428.779 141.76 420.242 135.256 410.345L111.583 399.924L113.03 401.978C113.994 403.349 114.732 404.865 115.221 406.471Z" fill="url(#paint10_linear_2035_22148)"/>
<path d="M188.039 335.911C190.964 335.911 193.335 333.542 193.335 330.62C193.335 327.699 190.964 325.33 188.039 325.33C185.114 325.33 182.743 327.699 182.743 330.62C182.743 333.542 185.114 335.911 188.039 335.911Z" fill="#F5CCFF" stroke="white" stroke-width="0.41593" stroke-miterlimit="10"/>
<path d="M161.46 382.497C164.44 382.497 166.855 380.084 166.855 377.107C166.855 374.13 164.44 371.717 161.46 371.717C158.48 371.717 156.064 374.13 156.064 377.107C156.064 380.084 158.48 382.497 161.46 382.497Z" fill="#DE97FF" stroke="white" stroke-width="0.41593" stroke-miterlimit="10"/>
<path d="M260.361 360C260.561 359.906 260.755 359.796 260.94 359.671C267.484 355.074 291.776 312.203 271.981 284.081C250.803 253.994 206.406 268.305 199.863 272.902C199.683 273.031 199.513 273.176 199.354 273.331L199.319 273.281L197.961 274.233C214.152 265.742 238.889 276.178 254.851 298.855C271.716 322.813 272.4 351.369 256.373 362.628" fill="#8FEAFF"/>
<path d="M260.361 360C260.561 359.906 260.755 359.796 260.94 359.671C267.484 355.074 291.776 312.203 271.981 284.081C250.803 253.994 206.406 268.305 199.863 272.902C199.683 273.031 199.513 273.176 199.354 273.331L199.319 273.281L197.961 274.233C214.152 265.742 238.889 276.178 254.851 298.855C271.716 322.813 272.4 351.369 256.373 362.628" stroke="white" stroke-width="0.41593" stroke-miterlimit="10"/>
<path d="M82.0347 434.155L115.471 410.665C116.829 409.712 115.092 404.901 111.588 399.93C108.084 394.953 104.146 391.697 102.788 392.65L69.3521 416.14L82.0347 434.155Z" fill="#6DD2F2" stroke="white" stroke-width="0.41593" stroke-miterlimit="10"/>
<path d="M79.9784 431.232L115.221 406.471C114.493 404.586 113.24 402.277 111.588 399.924L75.6909 425.139L79.9784 431.227V431.232Z" fill="#009CD8" stroke="white" stroke-width="0.41593" stroke-miterlimit="10"/>
<path d="M94.2538 476.667L103.028 470.28C107.905 464.242 99.5594 442.183 83.5027 419.376C67.4459 396.569 49.4875 381.262 42.1505 383.805L33.1663 389.898L94.2488 476.667H94.2538Z" fill="#0088C3" stroke="white" stroke-width="0.41593" stroke-miterlimit="10"/>
<path d="M94.2756 476.641C100.819 472.044 92.4486 448.894 75.5801 424.935C58.7116 400.975 39.7326 385.279 33.1894 389.877C26.6461 394.474 35.0164 417.624 51.8849 441.583C68.7534 465.543 87.7323 481.239 94.2756 476.641Z" fill="#00A8E1" stroke="white" stroke-width="0.41593" stroke-miterlimit="10"/>
<path d="M56.1057 389.725C60.5479 392.921 65.5841 397.548 70.7949 403.277L63.0136 408.742C57.7728 403.008 52.7167 398.391 48.2695 395.229L56.1057 389.725Z" fill="#6DD2F2" stroke="white" stroke-width="0.41593" stroke-miterlimit="10"/>
<path d="M132.871 168.096L133.07 168.001C133.07 167.827 133.07 167.647 133.07 167.473L132.871 168.096Z" fill="#F9CCA7"/>
<path d="M170.14 136.668C167.829 138.313 166.047 141.584 166.047 141.584L162.493 147.323C154.772 155.556 145.538 162.227 135.291 166.974L133.07 168.006C133.105 173.855 133.005 186.879 132.871 192.727C134.558 192.458 148.992 187.866 156.21 177.764C163.716 167.258 167.719 153.686 169.476 149.552C169.631 144.706 169.781 142.267 170.14 136.668Z" fill="url(#paint11_linear_2035_22148)"/>
<path d="M151.103 431.011C158.85 427.75 170 414.671 167.669 414.132C159.548 412.258 130.255 424.548 121.905 423.781C120.312 423.636 118.67 423.496 117.143 423.92C115.616 424.344 114.463 425.979 114.363 427.381C115.85 429.495 122.658 433.339 123.726 433.534" fill="url(#paint12_linear_2035_22148)"/>
<path d="M197.138 395.256C187.245 398.033 176.254 396.637 167.37 391.481C164.425 389.771 161.635 387.637 158.331 386.794C154.782 385.892 151.054 386.58 147.395 386.655C142.554 386.749 132.022 385.692 128.044 382.935C127.735 382.721 127.385 382.486 127.016 382.561C126.682 382.626 126.452 382.925 126.282 383.214C124.91 385.558 125.599 388.679 127.281 390.808C128.963 392.937 137.058 394.164 139.479 395.386C148.024 399.704 141.246 408.519 138.885 410.853L138.87 410.868C134.348 415.335 130.081 418.038 124.096 417.385C116.879 416.597 110.535 415.146 103.163 416.243C105.853 415.844 105.479 420.252 109.896 420.541C109.896 421.977 109.846 422.096 110.465 423.647C110.69 424.211 111.354 424.998 112.936 426.13C114.932 427.556 117.173 428.613 119.529 429.306C126.647 431.401 127.555 432.802 131.648 432.847C138.047 432.916 144.48 431.236 150.565 429.626C151.887 429.277 153.22 428.918 154.423 428.264C155.441 427.711 156.335 426.963 157.258 426.26C163.312 421.628 170.629 418.801 178.136 417.464C185.643 416.128 193.354 416.253 200.926 417.12L197.143 395.251L197.138 395.256Z" fill="#BEF5FF"/>
<path d="M82.0347 433.934L115.471 410.444C116.829 409.492 115.092 404.68 111.588 399.709C108.084 394.733 104.146 391.477 102.788 392.429L69.3521 415.919L82.0347 433.934Z" fill="url(#paint13_linear_2035_22148)"/>
<path d="M79.9784 431.013L115.221 406.252C114.493 404.367 113.24 402.059 111.588 399.705L75.6909 424.92L79.9784 431.008V431.013Z" fill="#264F85"/>
<path d="M94.2538 476.445L103.028 470.057C107.905 464.019 99.5594 441.96 83.5027 419.154C67.4459 396.347 49.4875 381.039 42.1505 383.582L33.1663 389.675L94.2488 476.445H94.2538Z" fill="#0088C3"/>
<path d="M94.2739 476.419C100.817 471.821 92.4469 448.671 75.5784 424.712C58.7099 400.753 39.7309 385.057 33.1877 389.654C26.6444 394.252 35.0147 417.401 51.8832 441.361C68.7517 465.32 87.7306 481.016 94.2739 476.419Z" fill="url(#paint14_linear_2035_22148)"/>
<path d="M56.1057 389.502C60.5479 392.698 65.5841 397.325 70.7949 403.054L63.0136 408.519C57.7728 402.785 52.7167 398.168 48.2695 395.007L56.1057 389.502Z" fill="#6DD2F2"/>
<path d="M123.716 311.857C123.716 311.857 141.58 302.941 151.882 289.773C151.882 289.773 156.209 287.509 174.337 281.541C192.465 275.572 197.701 272.72 203.361 269.818C203.361 269.818 206.061 272.072 201.325 275.981C201.325 275.981 207.743 274.66 209.361 273.513C209.361 273.513 212.45 278.245 200.501 283.186C200.501 283.186 180.107 293.268 173.928 297.182C173.928 297.182 180.107 298.419 183.197 298.419C186.286 298.419 188.757 300.478 193.498 301.71C198.24 302.941 194.117 306.442 188.762 305.823C183.406 305.205 179.079 303.146 174.342 303.56C169.606 303.974 161.799 308.91 158.181 310.765C154.562 312.615 141.33 315.716 129.217 322.462L123.721 311.857H123.716Z" fill="url(#paint15_linear_2035_22148)"/>
<path d="M123.716 311.858C123.716 311.858 144.2 299.801 151.333 290.522C151.712 290.033 152.211 289.654 152.79 289.44C156.149 288.198 167.399 283.362 177.117 280.485C178.21 280.161 179.284 279.787 180.342 279.368C190.419 275.354 199.258 272.352 203.356 269.824" stroke="#0088C7" stroke-width="0.41593" stroke-miterlimit="10"/>
<path d="M204.614 431.959L195.456 388.899C195.456 388.899 235.39 365.588 268.247 358.598" fill="url(#paint16_linear_2035_22148)"/>
<path d="M196.184 392.258C186.292 395.036 178.55 395.036 167.365 391.476C164.116 390.443 161.63 387.631 158.326 386.788C154.777 385.886 151.049 386.574 147.39 386.649C142.549 386.744 132.017 385.687 128.039 382.929C127.73 382.715 127.38 382.48 127.011 382.555C126.677 382.62 126.447 382.919 126.277 383.208C124.905 385.552 125.594 388.673 127.276 390.802C128.958 392.931 137.053 394.158 139.474 395.38C148.019 399.698 141.241 408.513 138.88 410.847L138.865 410.862C134.343 415.329 130.076 418.032 124.091 417.379C118.296 416.745 113.061 415.688 107.411 415.863C105.654 415.918 104.905 418.132 106.263 419.243C107.066 419.902 108.149 420.42 109.891 420.535C109.891 421.971 109.841 422.091 110.46 423.641C110.7 424.245 111.448 425.112 113.295 426.379C115.207 427.69 117.328 428.652 119.549 429.306C126.647 431.4 127.56 432.791 131.643 432.841C138.042 432.911 144.475 431.23 150.56 429.62C151.882 429.271 153.215 428.912 154.418 428.258C155.436 427.705 156.33 426.957 157.253 426.254C163.307 421.622 170.624 418.795 178.131 417.458C185.638 416.122 194.123 416.561 201.7 417.429L196.189 392.248L196.184 392.258Z" fill="url(#paint17_linear_2035_22148)"/>
<path d="M195.246 292.95C188.228 291.968 181.879 287.116 179.094 280.604C176.309 274.092 177.187 266.154 181.325 260.41C182.897 258.226 184.884 256.366 186.451 254.177C188.013 251.988 189.161 249.301 188.702 246.648C188.233 243.956 186.162 241.767 183.771 240.435C181.385 239.099 178.675 238.476 176.029 237.783C168.428 235.788 160.552 232.757 155.92 226.414C152.98 222.391 151.642 217.369 151.383 212.393C150.764 200.516 156.354 188.485 165.832 181.294C166.296 178.447 168.797 177.171 171.627 176.598C174.457 176.024 177.382 176.627 180.207 177.251C182.298 177.714 184.405 178.198 186.341 179.116C187.679 179.749 188.922 180.591 190.01 181.594C193.264 184.6 195.021 189.023 195.211 193.446C195.4 197.869 194.118 202.271 192.016 206.17C191.253 207.587 190.374 208.968 189.96 210.528C189.546 212.089 189.69 213.899 190.783 215.081C192.191 216.602 194.547 216.562 196.613 216.756C205.967 217.644 213.608 226.015 215.111 235.28C216.613 244.544 212.705 254.147 206.266 260.978C202.323 265.157 197.427 268.518 194.352 273.369C192.87 275.708 191.857 278.335 191.392 281.063C191.068 282.957 191.013 284.937 191.592 286.772C192.426 289.415 192.585 292.157 195.241 292.95H195.246Z" fill="#FFD066"/>
<path d="M195.475 292.999C194.856 293.064 194.057 293.134 193.448 292.959C192.47 292.79 191.492 292.571 190.558 292.241C182.762 289.738 176.813 282.389 176.174 274.172C175.754 269.23 176.947 264.07 179.762 259.941C182.582 255.508 189.091 251.26 186.66 245.436C184.694 241.542 180.027 240.41 176.044 239.358C168.407 237.294 160.277 234.292 155.29 227.745C144.619 213.206 152.096 190.16 165.597 181.249C166.002 178.447 168.792 176.921 171.342 176.463C175.62 175.625 179.977 177.041 184.09 178.118C190.993 180.073 195.25 186.924 195.285 193.894C195.35 197.345 194.526 200.77 193.154 203.921C192.196 206.305 190.474 208.374 189.9 210.902C189.276 213.764 190.783 216.078 193.718 216.447C195.415 216.721 197.157 216.696 198.829 217.115C205.612 218.631 211.082 223.986 213.728 230.283C217.766 240.016 214.431 251.375 207.913 259.228C204.654 263.257 200.391 266.278 196.967 270.138C193.553 273.917 191.282 278.908 191.352 284.044C191.367 285.764 192.036 287.375 192.45 289.015C192.685 289.833 192.954 290.641 193.413 291.319C193.688 291.753 194.067 292.087 194.487 292.361L194.756 292.496C194.871 292.556 195.006 292.605 195.13 292.68C195.29 292.78 195.4 292.915 195.485 292.994L195.475 292.999ZM195.011 292.9C194.896 292.91 194.806 292.969 194.761 292.994C194.686 293.029 194.621 292.954 194.541 292.925C193.932 292.62 193.388 292.147 193.029 291.573C192.53 290.815 192.265 289.963 192.036 289.135C191.627 287.455 190.968 285.809 190.973 284.059C190.918 276.839 195.23 270.906 200.446 266.343C202.967 264.01 205.607 261.786 207.768 259.118C214.282 251.32 217.641 240.021 213.648 230.318C211.027 224.021 205.587 218.666 198.819 217.13C196.363 216.427 193.523 217.04 191.312 215.564C188.188 213.126 190.339 208.908 191.951 206.21C195.644 199.544 196.643 190.763 192.151 184.236C189.051 179.569 184.27 178.093 179.019 177.131C176.518 176.622 173.928 176.248 171.417 176.832C169.026 177.31 166.406 178.691 166.062 181.329C156.553 189.257 151.193 201.837 152.63 213.909C153.718 223.771 159.054 229.984 168.138 233.644C170.923 234.786 173.833 235.658 176.813 236.401C181.604 237.528 187.09 239.219 189.49 244.06C191.232 247.396 190.174 251.514 188.213 254.421C185.592 258.291 181.904 261.058 180.311 265.481C175.894 276.395 181.929 288.452 193.064 292.107L194.122 292.436C194.432 292.536 194.661 292.8 195.016 292.9H195.011Z" fill="#E5AE4C"/>
<path d="M162.648 183.304C163.876 183.344 165.044 182.846 166.167 182.352C168.642 181.27 171.123 180.188 173.434 178.797C174.278 178.288 175.121 177.715 175.655 176.887C176.693 175.272 176.284 173.163 175.84 171.293L174.881 167.254C170.993 168.201 166.985 169.902 163.606 172.046C163.491 172.12 163.382 172.315 163.511 172.36C163.182 176.109 162.972 179.555 162.648 183.299V183.304Z" fill="#264F85" stroke="#264F85" stroke-width="0.41593" stroke-miterlimit="10"/>
<path d="M170.669 192.06L168.867 202.626C167.5 209.746 165.982 220.068 174.218 223.423C176.669 224.446 179.284 224.8 181.909 225.313C185.478 225.917 189.052 227.283 191.827 229.681C200.906 237.12 200.816 250.932 191.892 258.436L191.587 258.072C201.67 249.187 199.119 232.972 186.781 227.702C181.844 225.587 175.91 226.266 171.388 222.985C165.094 218.168 166.766 209.193 168.104 202.482L170.205 191.971L170.674 192.055L170.669 192.06Z" fill="#E5AE4C"/>
<path d="M114.178 113.703C114.967 116.496 114.573 119.787 112.891 122.15C112.197 123.127 111.209 123.86 110.47 124.808C108.503 127.316 108.598 130.811 108.783 133.987C109.322 143.162 109.856 152.336 110.395 161.506C110.585 164.782 112.776 167.619 115.915 168.581C120.382 169.952 125.029 170.98 129.581 171.079C132.172 171.134 134.767 171.014 137.338 170.695C148.039 169.354 161.275 161.466 168.059 153.089C170.02 154.156 174.892 155.727 181.64 148.881C184.465 146.014 186.087 141.83 185.074 137.677C184.54 135.488 183.012 133.618 180.851 132.965C177.517 131.958 174.667 134.296 172.331 136.52C174.747 133.808 176.778 130.312 178.256 126.997C181.879 118.859 180.591 109.046 176.099 101.348C171.612 93.649 164.245 87.9249 156.184 84.1154C151.158 81.737 140.707 78.5559 135.196 79.2888C128.703 80.1514 110.909 102.106 114.178 113.708V113.703Z" fill="#FEE2CC"/>
<path d="M114.767 136.27C114.418 135.871 114.373 135.292 114.657 134.844C116.274 132.331 121.485 124.363 122.668 123.969C124.076 123.5 125.942 123.789 125.368 130.83C125.154 133.477 124.999 135.352 124.894 136.659C124.769 138.184 123.402 139.301 121.875 139.117L119.688 138.857C117.782 138.628 116.03 137.706 114.762 136.265L114.767 136.27Z" fill="#F9CCA7"/>
<path d="M108.718 130.307C108.653 131.533 108.713 132.785 108.783 133.991C108.957 136.963 109.132 139.94 109.307 142.912C110.095 141.904 110.694 140.439 110.944 138.673C111.423 135.273 110.455 131.857 108.718 130.307Z" fill="#F9CCA7"/>
<path d="M130.121 115.913L130.385 114.816C130.49 114.382 130.905 114.103 131.349 114.168C134.089 114.566 143.203 115.938 144.506 116.661C147.066 118.087 150.869 122.42 150.869 122.42L144.845 119.981C142.599 119.219 133.66 117.503 130.795 116.96C130.311 116.87 130.006 116.391 130.121 115.913Z" fill="#C99239"/>
<path d="M114.179 112.705C114.179 112.705 118.411 114.52 120.138 116.066L119.884 113.114C119.884 113.114 116.565 109.918 114.408 110.267L114.179 112.705Z" fill="#C99239"/>
<path d="M146.582 150.542C150.711 150.542 154.059 147.198 154.059 143.073C154.059 138.948 150.711 135.604 146.582 135.604C142.452 135.604 139.105 138.948 139.105 143.073C139.105 147.198 142.452 150.542 146.582 150.542Z" fill="#F9CCA7"/>
<path d="M171.008 144.731C172.336 139.82 179.773 135.816 183.591 140.378L183.242 140.698C179.124 137.501 173.783 141.211 171.442 144.931L171.008 144.731Z" fill="#F9CCA7"/>
<path d="M109.312 135.313C109.312 135.313 108.508 163.016 110.589 167.095C112.676 171.174 114.043 173.507 121.68 173.652C125.813 173.732 132.82 173.826 140.327 171.962C146.686 170.381 153.409 167.389 159.049 161.785L174.218 135.039C174.218 135.039 147.709 141.277 141.29 141.87C138.65 142.114 135.995 142.104 133.349 141.95C123.906 141.406 109.312 135.313 109.312 135.313Z" fill="url(#paint18_linear_2035_22148)"/>
<path d="M165.503 58.99L84.6553 67.2222L86.9962 57.529L167.844 49.2969L165.503 58.99Z" fill="url(#paint19_linear_2035_22148)"/>
<path d="M120.139 116.066C120.139 116.066 123.702 121.137 121.312 125.261L114.533 135.034" fill="#FEE2CC"/>
<path d="M120.139 116.066C120.139 116.066 123.702 121.137 121.312 125.261L114.533 135.034" stroke="#C69024" stroke-width="0.41593" stroke-linecap="round" stroke-linejoin="round"/>
<path d="M168.573 147.369C166.672 152.255 164.805 155.75 161.531 159.849C154.198 169.028 151.139 179.524 153.605 191.007C150.395 188.489 149.741 184.146 149.617 180.073C149.112 163.893 160.882 152.385 161.64 140.872C161.775 138.812 163.981 128.396 159.419 124.776C153.1 119.765 145.808 116.001 139.969 110.441C134.129 104.886 130.076 96.1207 133.365 88.7661C126.971 91.1694 121.546 95.9063 118.067 101.76C116.415 104.542 114.758 107.993 114.409 111.259C114.069 114.445 115.721 117.806 114.259 120.882C113.206 123.091 111.309 124.871 110.041 126.965C107.625 130.954 110.401 135.756 109.078 140.228C107.805 144.531 102.589 147.129 99.8341 150.669C96.3453 155.152 94.6183 160.687 96.5849 166.017C92.8664 162.257 93.5851 155.95 95.8013 151.148C98.0174 146.346 101.461 142.043 102.654 136.893C104.531 128.77 100.438 120.433 100.768 112.106C101.037 105.365 104.172 99.1124 107.241 93.099C110.201 87.3051 113.605 81.0774 119.594 78.5195C128.094 74.8896 136.709 74.4558 145.933 75.0342C157.667 75.7721 168.119 85.3705 178.091 91.5932C188.064 97.811 197.143 101.496 195.84 113.168C195.84 113.168 207.624 146.895 175.84 171.287L163.148 174.174L163.168 173.391C163.283 168.784 164.176 164.232 165.803 159.924L168.493 152.808C168.493 152.808 175.691 157.859 183.991 145.638C183.991 145.638 187.655 138.802 182.049 133.986C181.69 133.676 181.156 133.462 180.592 133.303C173.48 131.273 169.646 144.591 168.568 147.364L168.573 147.369Z" fill="#FFD066"/>
<path d="M236.183 108.887L165.348 59.1894L167.844 49.2969L238.524 99.1935L236.183 108.887Z" fill="#0B1F43"/>
<path d="M236.184 108.887L140.777 88.4535L84.6553 67.2224L165.503 58.9902L236.184 108.887Z" fill="#030917"/>
<path d="M157.278 74.7176C139.434 70.4145 122.389 71.5464 110.535 76.7968L106.472 93.6152C118.326 88.3647 135.371 87.2329 153.215 91.5359C173.624 96.4573 189.86 107.227 196.963 119.104L201.026 102.286C193.918 90.4091 177.687 79.6389 157.278 74.7176Z" fill="url(#paint20_linear_2035_22148)"/>
<path d="M168.867 120.004C172.221 121.824 175.845 125.284 175.161 129.443C174.752 125.414 171.697 122.622 168.867 120.004Z" fill="#E5AE4C"/>
<path d="M136.764 92.3722C139.255 99.2331 144.765 104.264 150.35 108.692C150.41 108.737 150.345 108.841 150.28 108.797C144.231 105.416 137.982 99.2132 136.769 92.3672L136.764 92.3722Z" fill="#E5AE4C"/>
<path d="M145.573 93.7536C148.493 97.0595 151.977 99.772 155.805 101.946C163.427 106.364 172.501 109.33 178.121 116.605C180.921 120.126 182.803 124.743 182.089 129.265C182.079 129.36 181.919 129.35 181.924 129.25C181.805 120.16 174.193 113.609 166.791 109.54C159.055 105.322 150.435 101.567 145.199 94.0478C145.124 93.9431 145.144 93.7935 145.254 93.7138C145.354 93.644 145.488 93.6589 145.568 93.7487L145.573 93.7536Z" fill="#E5AE4C"/>
<path d="M172.291 182.146C176.419 186.903 178.52 193.375 177.956 199.678C177.062 208.055 175.066 215.524 185.548 217.897C187.04 218.261 188.567 218.521 190.105 218.85C194.716 219.832 199.313 221.592 202.982 224.644C206.481 227.65 209.7 232.272 209.201 237.084L208.727 237.099C207.649 230.692 204.295 225.96 198.535 222.898C195.844 221.452 192.9 220.48 189.895 219.827C186.835 219.154 183.616 218.77 180.831 217.144C174.402 213.4 176.563 205.611 177.177 199.613C177.816 193.515 175.89 187.183 171.927 182.456L172.286 182.146H172.291Z" fill="#E5AE4C"/>
<path d="M195.579 263.162C192.285 267.894 187.169 273.304 185.647 278.918C184.604 283.037 187.668 287.125 190.793 289.514C190.982 289.648 191.022 289.918 190.883 290.102C190.743 290.287 190.478 290.326 190.294 290.187C189.196 289.369 188.232 288.402 187.394 287.335C185.742 285.196 184.429 282.543 184.753 279.751C185.492 275.757 188.013 272.346 190.383 269.19L195.2 262.873C195.38 262.643 195.769 262.898 195.579 263.157V263.162Z" fill="#E5AE4C"/>
<path d="M86.4768 67.6934V103.165" stroke="#0F1F42" stroke-width="0.836238" stroke-miterlimit="10"/>
<path d="M86.8356 108.635C88.4785 108.635 89.8104 107.304 89.8104 105.663C89.8104 104.022 88.4785 102.691 86.8356 102.691C85.1927 102.691 83.8608 104.022 83.8608 105.663C83.8608 107.304 85.1927 108.635 86.8356 108.635Z" fill="url(#paint21_linear_2035_22148)"/>
<path d="M94.0632 127.218H79.6086L82.3887 111.951C82.7481 109.971 84.4751 108.535 86.4865 108.535C88.4331 108.535 90.1151 109.881 90.5494 111.776L94.0632 127.223V127.218Z" fill="url(#paint22_linear_2035_22148)"/>
<path d="M209.356 273.52L191.792 279.244" stroke="#0088C7" stroke-width="0.41593" stroke-miterlimit="10" stroke-linecap="round"/>
<path d="M115.656 118.953C115.077 118.744 113.829 118.28 114.538 119.367C114.538 119.367 113.22 122.09 114.178 123.326C115.137 124.563 119.469 124.413 119.469 124.413L119.963 124.812C120.243 124.922 120.522 124.657 120.427 124.373L119.978 123.226C119.025 121.247 117.727 119.716 115.661 118.958L115.656 118.953Z" fill="#F0F4F8"/>
<path d="M133.819 125.239C133.819 125.239 134.957 122.412 145.633 131.761C145.633 131.761 139.813 132.35 135.102 130.894C134.373 130.669 133.854 129.877 132.596 129.513C132.446 129.468 132.057 129.079 132.386 128.59C132.566 128.326 133.145 128.525 133.055 127.678C132.87 125.878 133.819 125.239 133.819 125.239Z" fill="#F0F4F8"/>
<path d="M138.234 128.161C138.864 126.568 138.252 124.833 136.868 124.287C135.484 123.741 133.851 124.589 133.22 126.182C132.59 127.775 133.202 129.509 134.586 130.056C135.971 130.602 137.604 129.754 138.234 128.161Z" fill="#E5AE4C"/>
<path d="M149.471 132.136C149.83 132.181 146.591 132.505 145.628 131.758L141.021 128.053C134.492 122.683 133.23 126.188 133.23 126.188C133.23 126.188 131.548 124.508 131.592 122.049C131.592 122.049 138.101 121.651 145.403 130.805C145.403 130.805 146.955 131.837 149.476 132.131L149.471 132.136Z" fill="#E5AE4C"/>
<path d="M146.676 129.323C140.122 120.343 134.497 120.857 134.497 120.857" stroke="#F9CCA7" stroke-width="0.437821" stroke-linecap="round" stroke-linejoin="round"/>
<path d="M115.062 118.52C114.483 118.31 113.235 117.847 113.943 118.933C113.943 118.933 112.626 121.656 113.584 122.893C113.769 123.127 114.073 123.311 114.448 123.456C115.675 123.596 116.953 122.778 117.492 121.412C117.637 121.043 117.712 120.669 117.732 120.305C117.008 119.532 116.14 118.919 115.057 118.52H115.062Z" fill="#E5AE4C"/>
<path d="M120.422 124.368C120.422 124.368 118.037 118.908 113.939 118.933C113.939 118.933 112.431 117.571 112.431 116.529C112.431 116.529 119.259 118.519 120.422 124.373V124.368Z" fill="#E5AE4C"/>
<path d="M114.797 116.529C114.797 116.529 118.88 117.068 120.422 120.857" stroke="#F9CCA7" stroke-width="0.437821" stroke-linecap="round" stroke-linejoin="round"/>
<path d="M149.471 132.137C149.83 132.181 146.591 132.506 145.628 131.758L143.162 129.23C141.789 127.824 140.177 126.652 138.375 125.859C133.988 123.924 133.224 126.193 133.224 126.193C133.224 126.193 132.156 126.058 132.196 123.6C132.196 123.6 139.893 121.027 144.949 128.821C145.967 130.391 147.669 131.483 149.391 132.127C149.416 132.137 149.441 132.132 149.466 132.137H149.471Z" fill="#E5AE4C"/>
<path d="M146.676 129.323C140.122 120.343 134.497 120.857 134.497 120.857" stroke="#F9CCA7" stroke-width="0.437821" stroke-linecap="round" stroke-linejoin="round"/>
<path d="M120.422 124.367C120.422 124.367 119.374 119.101 114.173 119.485C114.173 119.485 113.29 118.922 113.29 117.88C113.29 117.88 120.292 116.528 120.422 124.372V124.367Z" fill="#E5AE4C"/>
<path d="M114.797 116.529C114.797 116.529 118.88 117.068 120.422 120.857" stroke="#F9CCA7" stroke-width="0.437821" stroke-linecap="round" stroke-linejoin="round"/>
</g>
<defs>
<linearGradient id="paint0_linear_2035_22148" x1="217.56" y1="-11.2589" x2="378.747" y2="580.802" gradientUnits="userSpaceOnUse">
<stop stop-color="#0088C3"/>
<stop offset="1" stop-color="#0F1F42"/>
</linearGradient>
<linearGradient id="paint1_linear_2035_22148" x1="134.996" y1="198.772" x2="181.979" y2="390.811" gradientUnits="userSpaceOnUse">
<stop stop-color="#C5C3FF"/>
<stop offset="0.51" stop-color="#833CF6"/>
<stop offset="1" stop-color="#6B00F8"/>
</linearGradient>
<linearGradient id="paint2_linear_2035_22148" x1="155.614" y1="253.594" x2="106.113" y2="320.58" gradientUnits="userSpaceOnUse">
<stop offset="0.18" stop-color="#F0F4F8"/>
<stop offset="0.48" stop-color="#BEF5FF"/>
<stop offset="1" stop-color="#0088C3"/>
</linearGradient>
<linearGradient id="paint3_linear_2035_22148" x1="163.307" y1="270.99" x2="544.345" y2="705.523" gradientUnits="userSpaceOnUse">
<stop offset="0.2" stop-color="#BEF5FF"/>
<stop offset="0.76" stop-color="#39C7DF"/>
</linearGradient>
<linearGradient id="paint4_linear_2035_22148" x1="45.8634" y1="269.739" x2="340.936" y2="605.813" gradientUnits="userSpaceOnUse">
<stop offset="0.15" stop-color="#F0F4F8"/>
<stop offset="0.39" stop-color="#F0F4F8"/>
</linearGradient>
<linearGradient id="paint5_linear_2035_22148" x1="174.402" y1="234.549" x2="181.177" y2="343.971" gradientUnits="userSpaceOnUse">
<stop offset="0.3" stop-color="#BEF5FF"/>
<stop offset="0.47" stop-color="#8CD8EF"/>
<stop offset="0.84" stop-color="#289FCF"/>
<stop offset="1" stop-color="#0088C3"/>
</linearGradient>
<linearGradient id="paint6_linear_2035_22148" x1="180.242" y1="237.944" x2="180.242" y2="492.962" gradientUnits="userSpaceOnUse">
<stop offset="0.25" stop-color="#DE97FF"/>
<stop offset="1" stop-color="#A827D8"/>
</linearGradient>
<linearGradient id="paint7_linear_2035_22148" x1="139.892" y1="339.565" x2="107.921" y2="408.155" gradientUnits="userSpaceOnUse">
<stop stop-color="#0088C3"/>
<stop offset="1" stop-color="#0F1F42"/>
</linearGradient>
<linearGradient id="paint8_linear_2035_22148" x1="198.145" y1="268.51" x2="201.712" y2="373.559" gradientUnits="userSpaceOnUse">
<stop offset="0.47" stop-color="#DE97FF"/>
<stop offset="0.53" stop-color="#B940DD"/>
<stop offset="1" stop-color="#8C00BC"/>
</linearGradient>
<linearGradient id="paint9_linear_2035_22148" x1="158.121" y1="237.944" x2="158.121" y2="492.961" gradientUnits="userSpaceOnUse">
<stop offset="0.14" stop-color="#F0F4F8"/>
<stop offset="0.44" stop-color="#DE97FF"/>
<stop offset="0.83" stop-color="#A827D8"/>
</linearGradient>
<linearGradient id="paint10_linear_2035_22148" x1="111.588" y1="414.354" x2="143.007" y2="414.354" gradientUnits="userSpaceOnUse">
<stop stop-color="#0F1F42"/>
<stop offset="1" stop-color="#0F1F42"/>
</linearGradient>
<linearGradient id="paint11_linear_2035_22148" x1="167.07" y1="202.984" x2="149.068" y2="158.609" gradientUnits="userSpaceOnUse">
<stop offset="0.52" stop-color="#FFE2C7"/>
<stop offset="0.74" stop-color="#D3B091"/>
<stop offset="0.91" stop-color="#B68F6D"/>
<stop offset="1" stop-color="#AB8360"/>
</linearGradient>
<linearGradient id="paint12_linear_2035_22148" x1="114.353" y1="423.736" x2="167.978" y2="423.736" gradientUnits="userSpaceOnUse">
<stop offset="0.2" stop-color="#BEF5FF"/>
<stop offset="0.76" stop-color="#39C7DF"/>
</linearGradient>
<linearGradient id="paint13_linear_2035_22148" x1="82.0547" y1="375.476" x2="121.068" y2="511.051" gradientUnits="userSpaceOnUse">
<stop offset="0.2" stop-color="#0088C3"/>
<stop offset="0.24" stop-color="#0372A8"/>
<stop offset="0.33" stop-color="#094571"/>
<stop offset="0.4" stop-color="#0D294E"/>
<stop offset="0.44" stop-color="#0F1F42"/>
</linearGradient>
<linearGradient id="paint14_linear_2035_22148" x1="52.7817" y1="354.777" x2="70.286" y2="480.478" gradientUnits="userSpaceOnUse">
<stop stop-color="#0088C3"/>
<stop offset="1" stop-color="#0F1F42"/>
</linearGradient>
<linearGradient id="paint15_linear_2035_22148" x1="159.603" y1="239.233" x2="171.782" y2="332.024" gradientUnits="userSpaceOnUse">
<stop offset="0.2" stop-color="#BEF5FF"/>
<stop offset="0.76" stop-color="#39C7DF"/>
</linearGradient>
<linearGradient id="paint16_linear_2035_22148" x1="197.372" y1="359.904" x2="370.718" y2="517.198" gradientUnits="userSpaceOnUse">
<stop offset="0.2" stop-color="#BEF5FF"/>
<stop offset="0.6" stop-color="#39C7DF"/>
</linearGradient>
<linearGradient id="paint17_linear_2035_22148" x1="105.564" y1="407.7" x2="201.695" y2="407.7" gradientUnits="userSpaceOnUse">
<stop offset="0.2" stop-color="#BEF5FF"/>
<stop offset="0.76" stop-color="#39C7DF"/>
</linearGradient>
<linearGradient id="paint18_linear_2035_22148" x1="122.119" y1="124.179" x2="197.922" y2="226.12" gradientUnits="userSpaceOnUse">
<stop offset="0.09" stop-color="#BEF5FF"/>
<stop offset="0.47" stop-color="#6DD2F2"/>
</linearGradient>
<linearGradient id="paint19_linear_2035_22148" x1="84.6553" y1="58.257" x2="167.844" y2="58.257" gradientUnits="userSpaceOnUse">
<stop stop-color="#BEF5FF"/>
<stop offset="1" stop-color="#0088C3"/>
</linearGradient>
<linearGradient id="paint20_linear_2035_22148" x1="110.29" y1="73.1918" x2="171.266" y2="101.406" gradientUnits="userSpaceOnUse">
<stop stop-color="#0088C3"/>
<stop offset="1" stop-color="#0F1F42"/>
</linearGradient>
<linearGradient id="paint21_linear_2035_22148" x1="78.091" y1="91.8016" x2="100.036" y2="126.665" gradientUnits="userSpaceOnUse">
<stop offset="0.28" stop-color="#0088C3"/>
<stop offset="1" stop-color="#0F1F42"/>
</linearGradient>
<linearGradient id="paint22_linear_2035_22148" x1="70.6893" y1="96.4586" x2="92.6339" y2="131.327" gradientUnits="userSpaceOnUse">
<stop offset="0.32" stop-color="#0088C3"/>
<stop offset="1" stop-color="#0F1F42"/>
</linearGradient>
<clipPath id="clip0_2035_22148">
<rect width="440" height="557" fill="white" transform="translate(0 -51.3906)"/>
</clipPath>
</defs>
</svg>
