<svg width="22" height="19" viewBox="0 0 22 19" fill="none" xmlns="http://www.w3.org/2000/svg">
<path d="M10.3113 13.54L6.58134 9.82C6.42318 9.66239 6.33428 9.44829 6.33428 9.225C6.33428 9.00171 6.42318 8.78761 6.58134 8.63C6.91398 8.31126 7.43871 8.31126 7.77134 8.63L10.0613 10.93V0.84C10.0613 0.376081 10.4374 0 10.9013 0C11.3653 0 11.7413 0.376081 11.7413 0.84V10.93L14.0313 8.63C14.364 8.31126 14.8887 8.31126 15.2213 8.63C15.3795 8.78761 15.4684 9.00171 15.4684 9.225C15.4684 9.44829 15.3795 9.66239 15.2213 9.82L11.4913 13.54C11.3374 13.7009 11.124 13.7913 10.9013 13.79C10.6782 13.7937 10.4639 13.7029 10.3113 13.54Z" fill="white"/>
<path d="M16.1214 5.42H17.3314C19.8476 5.47468 21.846 7.55356 21.8014 10.07V13.88C21.846 16.3964 19.8476 18.4753 17.3314 18.53L4.47135 18.45C1.95511 18.3953 -0.0433009 16.3164 0.00135144 13.8V9.99C-0.0281571 8.77617 0.426592 7.60049 1.26523 6.72245C2.10387 5.84442 3.25744 5.33621 4.47135 5.31H5.68135C6.14527 5.31 6.52135 5.68608 6.52135 6.15C6.52135 6.61392 6.14527 6.99 5.68135 6.99H4.47135C3.70201 7.01337 2.97403 7.34373 2.44985 7.90736C1.92568 8.47099 1.64893 9.22098 1.68135 9.99V13.77C1.64893 14.539 1.92568 15.289 2.44985 15.8526C2.97403 16.4163 3.70201 16.7466 4.47135 16.77L17.3314 16.91C18.1007 16.8866 18.8287 16.5563 19.3528 15.9926C19.877 15.429 20.1538 14.679 20.1214 13.91V10.1C20.1538 9.33098 19.877 8.58099 19.3528 8.01736C18.8287 7.45373 18.1007 7.12337 17.3314 7.1H16.1214C15.6574 7.1 15.2814 6.72392 15.2814 6.26C15.2814 5.79608 15.6574 5.42 16.1214 5.42Z" fill="white"/>
</svg>
