<svg width="20" height="27" viewBox="0 0 20 27" fill="none" xmlns="http://www.w3.org/2000/svg">
<path d="M17.3107 6.27083H16.0215C14.7351 6.34336 13.6325 5.36122 13.5565 4.075V3.96167C13.52 3.34131 13.2381 2.76099 12.7729 2.34896C12.3077 1.93693 11.6975 1.7271 11.0773 1.76583H2.20898V1.3125C2.20898 0.725697 1.73329 0.25 1.14648 0.25C0.559682 0.25 0.0839844 0.725697 0.0839844 1.3125V25.3958C0.0839844 25.9826 0.559682 26.4583 1.14648 26.4583C1.73329 26.4583 2.20898 25.9826 2.20898 25.3958V13.6658H3.86648C5.15291 13.5933 6.25544 14.5754 6.33148 15.8617V15.9467C6.40753 17.2329 7.51006 18.215 8.79648 18.1425H17.2965C18.5829 18.215 19.6854 17.2329 19.7615 15.9467V8.43833C19.6634 7.17281 18.5787 6.21351 17.3107 6.27083Z" fill="#0199D6"/>
</svg>
