<svg width="178" height="157" viewBox="0 0 178 157" fill="none" xmlns="http://www.w3.org/2000/svg">
<path d="M97.324 166.48C139.248 166.48 173.234 132.494 173.234 90.5701C173.234 48.6462 139.248 14.6602 97.324 14.6602C55.4001 14.6602 21.4141 48.6462 21.4141 90.5701C21.4141 132.494 55.4001 166.48 97.324 166.48Z" fill="url(#paint0_linear_401_6188)"/>
<path d="M105.36 91.3789H76.4062V135.435H105.36V91.3789Z" fill="url(#paint1_linear_401_6188)" stroke="#264F85" stroke-width="0.41593" stroke-miterlimit="10"/>
<path d="M83.4564 108.231C87.118 107.078 83.6507 103.413 81.7598 106.087C82.5422 104.435 82.3314 102.73 80.8523 102.522C80.7831 102.512 80.7172 102.506 80.6546 102.499C78.6517 102.331 78.2728 104.143 78.7126 105.909C75.3278 100.885 72.3547 109.236 77.3455 109.3C72.3942 110.572 75.2767 116.363 79.0223 112.44C78.7275 113.696 79.7207 115.111 80.9511 115.187C82.3825 115.434 84.1004 112.838 82.5966 111.962C85.993 113.388 87.2975 107.301 83.4564 108.231Z" fill="url(#paint2_linear_401_6188)"/>
<path d="M82.5892 72.2993C82.6041 74.6349 82.5793 76.9722 82.5151 79.3062C82.4608 81.263 82.3702 83.2561 81.6899 85.091C81.0096 86.9259 80.3705 87.7774 78.4961 88.3358C78.4961 88.3358 82.0523 104.334 90.4181 103.886C98.4001 103.458 98.1316 88.578 98.1316 88.578C98.1316 88.578 93.2297 87.0445 94.8242 62.1233C94.0615 62.6668 93.4735 63.7474 93.4735 63.7474L92.3007 65.6432C89.7526 68.3626 86.7054 70.5665 83.3239 72.1346L82.5233 72.5052" fill="#FEE2CC"/>
<path d="M82.6681 72.2993C82.6632 74.9232 82.7142 78.5551 82.6138 81.1395C82.5396 82.6235 82.2876 84.1175 81.7062 85.4929C81.4245 86.1764 81.0737 86.8715 80.512 87.3986C79.9602 87.9257 79.2355 88.2106 78.5173 88.4099L78.5717 88.3177C79.7939 93.1158 81.973 99.174 85.9459 102.328C88.2321 104.147 91.5923 104.423 93.8555 102.419C95.104 101.338 95.9128 99.8411 96.4942 98.3142C97.6324 95.2143 98.0244 91.8656 98.0524 88.5779L98.1067 88.6521C98.0211 88.6224 97.9684 88.5779 97.9008 88.5401C97.7279 88.4215 97.5566 88.2535 97.4182 88.0937C96.8533 87.4447 96.4991 86.631 96.1796 85.8404C95.608 84.2361 95.2424 82.5395 95.0118 80.8545C94.6873 78.6737 94.5489 76.2574 94.4682 74.0518C94.404 71.5482 94.4468 68.8798 94.5259 66.3762C94.5604 65.7074 94.707 62.82 94.7433 62.1183L94.8668 62.1875C94.5819 62.3951 94.3348 62.6569 94.1124 62.937C93.6924 63.4706 92.7535 65.0815 92.3665 65.6844C89.624 68.6344 86.2408 70.9635 82.5561 72.5777L82.4902 72.436C86.1403 70.8498 89.5597 68.473 92.233 65.6037L93.3778 63.7539C93.7468 63.1214 94.18 62.5054 94.7779 62.0623L94.9096 61.9668L94.9014 62.1315C94.8635 62.8315 94.7153 65.775 94.684 66.3861C94.5703 70.0345 94.5209 73.8114 94.8042 77.4515C94.9755 79.6818 95.2506 82.0092 95.8255 84.1686C96.1038 85.259 96.4827 86.3378 97.0493 87.3146C97.2255 87.6127 97.4364 87.8993 97.6768 88.148C97.8251 88.3012 98.0096 88.4594 98.2089 88.5269C98.1858 91.8607 97.7938 95.2324 96.6408 98.3768C96.0495 99.9267 95.2292 101.445 93.9576 102.546C91.6335 104.596 88.2009 104.326 85.8504 102.46C81.8396 99.2777 79.6506 93.1965 78.4169 88.3589L78.4004 88.2897L78.4712 88.265C79.163 88.0393 79.8334 87.7264 80.3341 87.2207C82.5462 84.6627 82.2975 79.9502 82.4161 76.7169L82.51 72.3042H82.6665L82.6681 72.2993Z" fill="#C69024"/>
<path d="M102.599 144.955C103.435 150.067 105.942 154.51 106.323 159.668C139.414 156.82 147.368 148.785 134.561 126.191C132.985 123.411 128.854 115.393 127.322 111.953C114.223 87.612 121.437 87.9728 94.8242 86.0703C94.8242 86.0703 100.899 89.7863 98.6143 103.644C96.3297 117.501 93.1523 149.658 93.1523 149.658L102.6 144.954L102.599 144.955Z" fill="url(#paint3_linear_401_6188)"/>
<path d="M81.6451 118.952L79.624 120.034L83.0353 126.119L79.624 135.942C65.7864 158.684 50.8683 163.291 46.5479 147.472C44.2567 139.085 48.4932 134.536 55.6747 119.076C57.2806 115.62 62.1249 101.777 63.3454 99.5043C66.246 94.1067 65.6069 88.5015 76.5406 87.4687C78.6144 87.2727 80.3636 85.7903 81.6896 85.0491C80.2253 87.9052 79.4116 91.0101 79.3062 94.1693C79.1414 99.1189 78.8482 103.192 79.8415 108.783L81.6451 118.95V118.952Z" fill="url(#paint4_linear_401_6188)"/>
<path d="M79.1516 86.4648C75.5592 89.293 71.1004 93.8621 68.6725 97.7362C68.5441 97.9421 68.4123 98.1941 68.5111 98.4165C68.5819 98.5729 68.7467 98.6619 68.8982 98.7426C70.6129 99.6502 72.1002 100.981 73.1906 102.585C73.2895 102.73 73.3883 102.89 73.3784 103.065C73.3636 103.315 73.1396 103.493 72.9353 103.641C71.2767 104.849 69.8124 106.324 68.6165 107.991C72.2073 111.966 74.4408 116.347 76.4042 121.216" stroke="#0088C7" stroke-width="0.41593" stroke-miterlimit="10"/>
<path d="M67.4136 104.137C67.4136 104.137 66.4879 109.282 66.4336 127.399" stroke="#0088C7" stroke-width="0.41593" stroke-miterlimit="10"/>
<path d="M55.2051 133.672L79.6239 120.035" stroke="#0088C3" stroke-width="0.402795" stroke-miterlimit="10"/>
<path d="M97.7617 83.3164C103.186 86.9253 107.877 91.6295 111.472 97.0618C111.718 97.4324 111.968 97.8507 111.902 98.2905C111.851 98.6364 111.611 98.9214 111.382 99.1866C110.13 100.626 108.878 102.066 107.625 103.505C108.86 104.456 109.982 105.556 110.957 106.772C111.148 107.01 111.341 107.267 111.385 107.571C111.441 107.954 111.247 108.327 111.059 108.667C107.429 115.208 103.149 121.551 101.329 128.807" fill="white"/>
<path d="M97.7617 83.3164C103.186 86.9253 107.877 91.6295 111.472 97.0618C111.718 97.4324 111.968 97.8507 111.902 98.2905C111.851 98.6364 111.611 98.9214 111.382 99.1866C110.13 100.626 108.878 102.066 107.625 103.505C108.86 104.456 109.982 105.556 110.957 106.772C111.148 107.01 111.341 107.267 111.385 107.571C111.441 107.954 111.247 108.327 111.059 108.667C107.429 115.208 103.149 121.551 101.329 128.807" stroke="#009EDE" stroke-width="0.402795" stroke-miterlimit="10"/>
<path d="M164.127 151.021L134.723 167.984V133.831L164.127 116.867V151.021Z" fill="#FFD066"/>
<path d="M154.712 125.434L154.334 125.312L154.703 130.002L154.682 129.989L141.562 137.149L142.505 137.755C142.737 137.773 142.971 137.722 143.175 137.607L155.043 130.896C155.417 130.685 155.644 130.287 155.637 129.859L155.525 126.494C155.525 126.461 155.524 126.428 155.52 126.395C155.474 125.943 155.141 125.573 154.71 125.433L154.712 125.434Z" fill="#0B1E44"/>
<path d="M164.127 151.021L167.293 153.056V118.903L164.127 116.867V151.021Z" fill="#C69024" stroke="#F0F4F8" stroke-width="0.437821" stroke-miterlimit="10"/>
<path d="M164.127 151.021L134.723 167.985L137.888 169.796L167.293 153.057L164.127 151.021Z" fill="#A37624" stroke="#F0F4F8" stroke-width="0.437821" stroke-miterlimit="10"/>
<path d="M156.734 132.398L157.132 147.343L157.058 147.293L139.078 157.698L141.168 158.532C141.562 158.688 142.005 158.66 142.374 158.453L158.753 149.28C159.196 149.031 159.471 148.563 159.471 148.054V134.907C159.471 134.423 159.221 133.971 158.811 133.716L156.735 132.398H156.734Z" fill="#0B1E44" stroke="#F0F4F8" stroke-width="0.437821" stroke-miterlimit="10"/>
<path d="M156.976 132.754C156.974 132.457 156.653 132.274 156.396 132.422L154.691 133.406C154.314 133.623 153.845 133.347 153.851 132.912L153.906 130.673C153.909 130.538 153.981 130.415 154.098 130.349L154.517 130.108C154.64 130.037 154.714 129.904 154.71 129.762L154.591 125.612C154.583 125.32 154.265 125.142 154.011 125.289L141.832 132.314C141.458 132.53 141.234 132.936 141.254 133.37L141.411 136.817C141.427 137.196 141.84 137.422 142.168 137.232C142.425 137.084 142.748 137.27 142.748 137.566V138.774C142.748 139.622 142.295 140.405 141.562 140.828L140.643 141.51C140.633 141.516 140.625 141.523 140.615 141.528C139.51 142.172 138.838 143.363 138.856 144.644L139.04 157.044C139.045 157.339 139.365 157.52 139.62 157.373L156.889 147.41C157.009 147.341 157.083 147.212 157.081 147.072L156.973 132.755L156.976 132.754Z" fill="#F0F4F8" stroke="white" stroke-width="0.41593" stroke-miterlimit="10"/>
<path d="M112.26 123.127L112.439 123.381C112.591 123.598 112.89 123.65 113.107 123.498L164.609 87.2744C164.826 87.1222 164.878 86.8232 164.725 86.6066L164.546 86.352C164.394 86.1355 164.095 86.0834 163.879 86.2357L112.376 122.459C112.16 122.611 112.108 122.91 112.26 123.127Z" fill="url(#paint5_linear_401_6188)" stroke="white" stroke-width="0.41593" stroke-miterlimit="10"/>
<path d="M114.228 126.385L129.611 115.569C133.047 113.021 136.219 108.797 135.063 107.154C133.907 105.51 128.753 107.348 125.426 109.618L110.043 120.434L114.228 126.385Z" fill="url(#paint6_linear_401_6188)" stroke="white" stroke-width="0.41593" stroke-miterlimit="10"/>
<path d="M65.6094 134.712L85.767 163.375L124.765 135.95L124.753 135.934C124.819 135.903 124.883 135.866 124.944 135.825C127.104 134.307 135.12 120.145 128.588 110.855C121.599 100.916 106.948 105.643 104.788 107.162C104.729 107.205 104.673 107.252 104.62 107.303L104.609 107.287L65.611 134.712H65.6094Z" fill="url(#paint7_linear_401_6188)" stroke="white" stroke-width="0.41593" stroke-miterlimit="10"/>
<path d="M65.6094 134.711L85.767 163.374L124.765 135.949L124.753 135.933C124.819 135.902 124.883 135.865 124.944 135.824C126.805 134.515 132.798 123.546 130.385 114.797L92.3984 115.872L65.6094 134.711Z" fill="url(#paint8_linear_401_6188)" stroke="white" stroke-width="0.41593" stroke-miterlimit="10"/>
<path d="M85.6578 163.359L88.5881 161.299L88.5535 161.251C90.1627 159.256 87.4087 151.969 82.1099 144.435C76.811 136.901 70.8846 131.845 68.4633 132.685L65.543 134.76L85.6562 163.359H85.6578Z" fill="#0088C3" stroke="white" stroke-width="0.41593" stroke-miterlimit="10"/>
<path d="M85.7718 163.363C87.9311 161.844 85.1689 154.197 79.6021 146.282C74.0354 138.368 67.7722 133.183 65.6129 134.701C63.4536 136.22 66.2158 143.867 71.7826 151.782C77.3493 159.697 83.6125 164.882 85.7718 163.363Z" fill="url(#paint9_linear_401_6188)"/>
<path d="M127.268 129.43C127.437 127.32 127.238 124.854 126.258 122.332L83.3945 152.475C84.592 154.743 85.4633 156.828 85.9509 158.564L127.268 129.43Z" fill="url(#paint10_linear_401_6188)" stroke="white" stroke-width="0.41593" stroke-miterlimit="10"/>
<path d="M88.5743 156.803C88.0769 155.065 87.1989 152.985 86.0015 150.727L83.4336 152.532C84.6311 154.8 85.5024 156.885 85.9899 158.621L88.576 156.803H88.5743Z" fill="#264F85" stroke="white" stroke-width="0.41593" stroke-miterlimit="10"/>
<path d="M111.068 106.848C113.111 107.401 115.405 108.427 117.657 110.101L74.7934 140.243C73.0639 138.349 71.3953 136.824 69.9277 135.78L111.068 106.848Z" fill="#BEF5FF" stroke="white" stroke-width="0.41593" stroke-miterlimit="10"/>
<path d="M75.4594 139.683L110.206 115.34L98.3529 115.775L71.75 134.407L75.4594 139.683Z" fill="url(#paint11_linear_401_6188)" stroke="white" stroke-width="0.41593" stroke-miterlimit="10"/>
<path d="M72.4727 133.906C73.9387 134.962 75.6006 136.491 77.3202 138.383L74.7524 140.188C73.0229 138.294 71.3543 136.769 69.8867 135.725L72.4727 133.906Z" fill="#6DD2F2" stroke="white" stroke-width="0.41593" stroke-miterlimit="10"/>
<path d="M76.8219 151.249L85.9898 158.618C85.9898 158.618 85.5797 155.798 83.4335 152.528L75.6211 149.086L76.0988 149.765C76.4167 150.218 76.6604 150.718 76.8219 151.249Z" fill="url(#paint12_linear_401_6188)"/>
<path d="M100.851 127.941C101.816 127.941 102.599 127.158 102.599 126.193C102.599 125.228 101.816 124.445 100.851 124.445C99.886 124.445 99.1035 125.228 99.1035 126.193C99.1035 127.158 99.886 127.941 100.851 127.941Z" fill="#F5CCFF" stroke="white" stroke-width="0.41593" stroke-miterlimit="10"/>
<path d="M113.162 128.886C114.347 128.886 115.308 127.925 115.308 126.74C115.308 125.555 114.347 124.594 113.162 124.594C111.977 124.594 111.016 125.555 111.016 126.74C111.016 127.925 111.977 128.886 113.162 128.886Z" fill="#F5CCFF" stroke="white" stroke-width="0.41593" stroke-miterlimit="10"/>
<path d="M92.0813 143.331C93.0647 143.331 93.8619 142.533 93.8619 141.55C93.8619 140.567 93.0647 139.77 92.0813 139.77C91.098 139.77 90.3008 140.567 90.3008 141.55C90.3008 142.533 91.098 143.331 92.0813 143.331Z" fill="#DE97FF" stroke="white" stroke-width="0.41593" stroke-miterlimit="10"/>
<path d="M124.718 135.899C124.783 135.868 124.848 135.831 124.909 135.79C127.068 134.271 135.085 120.109 128.552 110.82C121.563 100.881 106.912 105.608 104.753 107.127C104.693 107.169 104.637 107.217 104.585 107.268L104.573 107.252L104.125 107.566C109.468 104.761 117.632 108.209 122.899 115.7C128.465 123.614 128.69 133.048 123.401 136.767" fill="#8FEAFF"/>
<path d="M124.718 135.899C124.783 135.868 124.848 135.831 124.909 135.79C127.068 134.271 135.085 120.109 128.552 110.82C121.563 100.881 106.912 105.608 104.753 107.127C104.693 107.169 104.637 107.217 104.585 107.268L104.573 107.252L104.125 107.566C109.468 104.761 117.632 108.209 122.899 115.7C128.465 123.614 128.69 133.048 123.401 136.767" stroke="white" stroke-width="0.41593" stroke-miterlimit="10"/>
<path d="M130.44 114.797L122.463 115.023C122.629 115.245 122.794 115.471 122.955 115.701C128.521 123.616 128.747 133.049 123.458 136.768L124.774 135.9C124.84 135.869 124.904 135.832 124.965 135.791C125.421 135.47 126.141 134.582 126.928 133.296C129.294 129.272 132.262 121.404 130.442 114.797H130.44Z" fill="#C46EE5" stroke="white" stroke-width="0.41593" stroke-miterlimit="10"/>
<path d="M126.262 108.136L126.255 108.129C118.291 103.094 111.016 106.796 111.016 106.796L111.245 106.91C113.364 107.431 115.549 108.498 117.614 110.043C120.655 107.913 126.197 108.134 126.262 108.136Z" fill="#E9FCFF" stroke="white" stroke-width="0.41593" stroke-miterlimit="10"/>
<path d="M126.33 122.308C127.136 124.788 127.45 127.228 127.266 129.43C129.982 126.386 130.891 123.644 131.034 118.676C130.998 117.36 130.825 116.055 130.479 114.797C130.479 114.797 131.034 118.676 126.33 122.308Z" fill="url(#paint13_linear_401_6188)" stroke="white" stroke-width="0.41593" stroke-miterlimit="10"/>
<path d="M65.869 160.394L76.9031 152.635C77.3512 152.32 76.778 150.731 75.6217 149.088C74.4654 147.445 73.1658 146.369 72.7178 146.684L61.6836 154.443L65.869 160.394Z" fill="#6DD2F2" stroke="white" stroke-width="0.41593" stroke-miterlimit="10"/>
<path d="M65.1903 159.428L76.8207 151.249C76.5802 150.626 76.1668 149.863 75.6216 149.086L63.7754 157.416L65.1903 159.427V159.428Z" fill="#009CD8" stroke="white" stroke-width="0.41593" stroke-miterlimit="10"/>
<path d="M69.9015 174.439L72.7972 172.329C74.4064 170.335 71.6524 163.048 66.3536 155.514C61.0547 147.98 55.1283 142.923 52.707 143.763L49.7422 145.776L69.8999 174.439H69.9015Z" fill="#0088C3" stroke="white" stroke-width="0.41593" stroke-miterlimit="10"/>
<path d="M69.9085 174.428C72.0678 172.909 69.3056 165.262 63.7389 157.347C58.1721 149.432 51.9089 144.247 49.7496 145.766C47.5903 147.284 50.3526 154.932 55.9193 162.847C61.486 170.761 67.7492 175.946 69.9085 174.428Z" fill="#00A8E1" stroke="white" stroke-width="0.41593" stroke-miterlimit="10"/>
<path d="M57.3126 145.717C58.7785 146.773 60.4405 148.301 62.1601 150.194L59.5922 151.999C57.8627 150.105 56.1942 148.58 54.7266 147.535L57.3126 145.717Z" fill="#6DD2F2" stroke="white" stroke-width="0.41593" stroke-miterlimit="10"/>
<path d="M82.6445 72.5047L82.7104 72.4734C82.7104 72.4158 82.7104 72.3565 82.7104 72.2988L82.6445 72.5047Z" fill="#F9CCA7"/>
<path d="M94.9437 62.123C94.1811 62.6666 93.593 63.7471 93.593 63.7471L92.4203 65.643C89.8722 68.3624 86.825 70.5663 83.4434 72.1343L82.7104 72.4753C82.7219 74.4074 82.689 78.7097 82.6445 80.6418C83.2013 80.5529 87.9648 79.0358 90.3465 75.6987C92.8238 72.2282 94.1448 67.7447 94.7246 66.3792C94.7757 64.7782 94.8251 63.9728 94.9437 62.123Z" fill="url(#paint14_linear_401_6188)"/>
<path d="M88.6636 159.359C91.22 158.281 94.8997 153.961 94.1305 153.783C91.4506 153.164 81.7835 157.224 79.0279 156.97C78.5024 156.923 77.9605 156.876 77.4565 157.016C76.9525 157.156 76.572 157.697 76.5391 158.16C77.0299 158.858 79.2766 160.128 79.6291 160.192" fill="url(#paint15_linear_401_6188)"/>
<path d="M103.854 147.546C100.589 148.463 96.9625 148.002 94.0306 146.299C93.0588 145.734 92.138 145.029 91.0476 144.751C89.8765 144.453 88.6461 144.68 87.4387 144.705C85.841 144.736 82.3655 144.387 81.0528 143.476C80.9506 143.405 80.8353 143.328 80.7135 143.352C80.6031 143.374 80.5273 143.473 80.4713 143.568C80.0184 144.342 80.2457 145.373 80.8008 146.077C81.3558 146.78 84.0275 147.185 84.8264 147.589C87.6463 149.015 85.4094 151.927 84.6304 152.698L84.6254 152.703C83.1331 154.179 81.7248 155.072 79.7499 154.856C77.3681 154.596 75.2746 154.116 72.8418 154.479C73.7296 154.347 73.6061 155.803 75.0638 155.899C75.0638 156.373 75.0473 156.413 75.2516 156.925C75.3257 157.111 75.5447 157.371 76.0669 157.745C76.7257 158.216 77.4653 158.565 78.2428 158.794C80.5916 159.486 80.8914 159.949 82.242 159.964C84.3536 159.987 86.4768 159.432 88.4847 158.9C88.9211 158.784 89.3609 158.666 89.7579 158.45C90.0939 158.267 90.3887 158.02 90.6935 157.788C92.6914 156.258 95.1061 155.324 97.5834 154.882C100.061 154.441 102.606 154.482 105.104 154.769L103.856 147.544L103.854 147.546Z" fill="#BEF5FF"/>
<path d="M65.869 160.322L76.9031 152.562C77.3512 152.248 76.778 150.658 75.6217 149.016C74.4654 147.372 73.1658 146.297 72.7178 146.611L61.6836 154.371L65.869 160.322Z" fill="url(#paint16_linear_401_6188)"/>
<path d="M65.1922 159.358L76.8227 151.178C76.5822 150.556 76.1688 149.793 75.6235 149.016L63.7773 157.345L65.1922 159.356V159.358Z" fill="#264F85"/>
<path d="M69.9015 174.365L72.7972 172.255C74.4064 170.26 71.6524 162.973 66.3536 155.439C61.0547 147.905 55.1283 142.849 52.707 143.689L49.7422 145.701L69.8999 174.365H69.9015Z" fill="#0088C3"/>
<path d="M69.9085 174.357C72.0678 172.838 69.3056 165.191 63.7389 157.276C58.1721 149.361 51.9089 144.176 49.7496 145.695C47.5903 147.214 50.3526 154.861 55.9193 162.776C61.486 170.691 67.7492 175.876 69.9085 174.357Z" fill="url(#paint17_linear_401_6188)"/>
<path d="M57.3126 145.645C58.7785 146.7 60.4405 148.229 62.1601 150.121L59.5922 151.927C57.8627 150.033 56.1942 148.507 54.7266 147.463L57.3126 145.645Z" fill="#6DD2F2"/>
<path d="M79.625 119.994C79.625 119.994 85.5201 117.049 88.9198 112.699C88.9198 112.699 90.3479 111.951 96.3303 109.98C102.313 108.008 104.041 107.066 105.908 106.107C105.908 106.107 106.799 106.852 105.236 108.143C105.236 108.143 107.355 107.707 107.888 107.328C107.888 107.328 108.908 108.891 104.965 110.523C104.965 110.523 98.2344 113.854 96.1952 115.147C96.1952 115.147 98.2344 115.555 99.2539 115.555C100.274 115.555 101.089 116.236 102.654 116.643C104.218 117.049 102.858 118.206 101.09 118.001C99.3231 117.797 97.895 117.117 96.3319 117.254C94.7688 117.39 92.1927 119.021 90.9985 119.634C89.8043 120.245 85.4377 121.269 81.4401 123.498L79.6266 119.994H79.625Z" fill="url(#paint18_linear_401_6188)"/>
<path d="M79.625 119.995C79.625 119.995 86.3848 116.012 88.7386 112.947C88.8638 112.785 89.0285 112.66 89.2196 112.589C90.3281 112.179 94.0407 110.581 97.2477 109.631C97.6084 109.524 97.9626 109.4 98.3118 109.262C101.637 107.936 104.554 106.944 105.907 106.109" stroke="#0088C7" stroke-width="0.41593" stroke-miterlimit="10"/>
<path d="M106.321 159.668L103.299 145.443C103.299 145.443 116.478 137.743 127.321 135.434" fill="url(#paint19_linear_401_6188)"/>
<path d="M103.538 146.554C100.274 147.471 97.7189 147.471 94.0276 146.295C92.9553 145.954 92.1351 145.025 91.0447 144.747C89.8735 144.449 88.6431 144.676 87.4358 144.701C85.8381 144.732 82.3626 144.383 81.0498 143.472C80.9477 143.401 80.8324 143.324 80.7105 143.348C80.6002 143.37 80.5244 143.469 80.4684 143.564C80.0154 144.338 80.2427 145.369 80.7978 146.073C81.3529 146.776 84.0246 147.181 84.8234 147.585C87.6433 149.011 85.4065 151.923 84.6274 152.694L84.6225 152.699C83.1302 154.175 81.7219 155.068 79.7469 154.852C77.8346 154.643 76.1068 154.294 74.2422 154.351C73.6624 154.369 73.4153 155.101 73.8634 155.468C74.1286 155.686 74.486 155.857 75.0608 155.895C75.0608 156.369 75.0444 156.409 75.2486 156.921C75.3277 157.12 75.5747 157.407 76.1842 157.825C76.815 158.258 77.5151 158.576 78.248 158.792C80.5903 159.484 80.8917 159.943 82.2391 159.96C84.3507 159.983 86.4739 159.428 88.4817 158.896C88.9182 158.78 89.358 158.662 89.7549 158.446C90.091 158.263 90.3858 158.016 90.6905 157.784C92.6885 156.254 95.1032 155.32 97.5805 154.878C100.058 154.437 102.858 154.582 105.358 154.869L103.54 146.55L103.538 146.554Z" fill="url(#paint20_linear_401_6188)"/>
<path d="M103.229 113.75C100.913 113.426 98.8176 111.823 97.8985 109.672C96.9794 107.521 97.2693 104.899 98.6348 103.001C99.1537 102.28 99.8092 101.665 100.326 100.942C100.842 100.219 101.221 99.3313 101.069 98.455C100.914 97.5655 100.231 96.8424 99.4419 96.4027C98.6546 95.9612 97.7602 95.7553 96.8872 95.5264C94.3786 94.8675 91.7794 93.8661 90.2509 91.7709C89.2807 90.4417 88.8393 88.783 88.7536 87.1392C88.5494 83.2157 90.3942 79.2411 93.5221 76.866C93.6753 75.9255 94.5005 75.5038 95.4344 75.3144C96.3684 75.1249 97.3336 75.3242 98.2659 75.5301C98.956 75.6833 99.6511 75.8431 100.29 76.1462C100.732 76.3554 101.142 76.6337 101.501 76.9648C102.575 77.958 103.155 79.419 103.217 80.88C103.28 82.3411 102.856 83.7955 102.163 85.0835C101.911 85.5513 101.621 86.0076 101.484 86.5231C101.348 87.0387 101.395 87.6366 101.756 88.027C102.221 88.5293 102.998 88.5162 103.68 88.5804C106.767 88.8736 109.289 91.6391 109.784 94.6995C110.28 97.7599 108.99 100.932 106.866 103.189C105.564 104.569 103.948 105.679 102.934 107.282C102.445 108.055 102.11 108.923 101.957 109.824C101.85 110.449 101.832 111.103 102.023 111.709C102.298 112.582 102.351 113.488 103.227 113.75H103.229Z" fill="#FFD066"/>
<path d="M103.306 113.766C103.101 113.788 102.838 113.811 102.637 113.753C102.314 113.697 101.991 113.625 101.683 113.516C99.1105 112.689 97.1471 110.261 96.9363 107.547C96.7979 105.914 97.1916 104.21 98.1206 102.846C99.0512 101.381 101.199 99.978 100.397 98.0542C99.7479 96.7677 98.2078 96.3938 96.8934 96.0463C94.3733 95.3644 91.6901 94.3728 90.0446 92.2101C86.5231 87.4071 88.9905 79.794 93.446 76.8506C93.5794 75.9249 94.5001 75.4209 95.3418 75.2693C96.7534 74.9926 98.1914 75.4604 99.5486 75.8162C101.827 76.4618 103.232 78.725 103.243 81.0277C103.265 82.1675 102.993 83.2991 102.54 84.3401C102.224 85.1274 101.655 85.811 101.466 86.6461C101.26 87.5915 101.757 88.3558 102.726 88.4777C103.286 88.5683 103.861 88.5601 104.413 88.6984C106.651 89.1992 108.456 90.9682 109.329 93.0485C110.662 96.2637 109.562 100.016 107.41 102.61C106.335 103.941 104.928 104.939 103.798 106.214C102.672 107.463 101.922 109.111 101.945 110.808C101.95 111.376 102.171 111.908 102.308 112.45C102.385 112.72 102.474 112.987 102.625 113.211C102.716 113.354 102.841 113.465 102.98 113.555L103.069 113.6C103.106 113.62 103.151 113.636 103.192 113.661C103.245 113.694 103.281 113.738 103.309 113.765L103.306 113.766ZM103.153 113.733C103.115 113.737 103.085 113.756 103.07 113.765C103.045 113.776 103.024 113.751 102.998 113.741C102.797 113.641 102.617 113.485 102.499 113.295C102.334 113.045 102.247 112.763 102.171 112.49C102.036 111.935 101.818 111.391 101.82 110.813C101.802 108.428 103.225 106.468 104.946 104.961C105.778 104.19 106.649 103.455 107.363 102.574C109.512 99.9978 110.621 96.2654 109.303 93.06C108.438 90.9797 106.643 89.2107 104.409 88.7034C103.599 88.4711 102.662 88.6737 101.932 88.1862C100.901 87.3807 101.611 85.9872 102.143 85.0961C103.362 82.8939 103.691 79.9933 102.209 77.8372C101.186 76.2955 99.6079 75.8079 97.8751 75.49C97.0499 75.322 96.195 75.1985 95.3665 75.3912C94.5776 75.5493 93.7128 76.0056 93.5992 76.8769C90.4614 79.4959 88.6923 83.6516 89.1667 87.6393C89.5258 90.8974 91.2866 92.9497 94.2844 94.1587C95.2035 94.5359 96.1637 94.8241 97.1471 95.0695C98.7283 95.4418 100.539 96.0002 101.331 97.5996C101.906 98.7015 101.556 100.062 100.909 101.022C100.044 102.3 98.8272 103.215 98.3017 104.676C96.844 108.281 98.8354 112.264 102.51 113.471L102.859 113.58C102.961 113.613 103.037 113.7 103.154 113.733H103.153Z" fill="#E5AE4C"/>
<path d="M92.4727 77.5287C92.8779 77.5419 93.2633 77.3772 93.6339 77.2141C94.4509 76.8567 95.2695 76.4992 96.0321 76.0397C96.3105 75.8717 96.5889 75.6823 96.7651 75.4088C97.1077 74.8752 96.9726 74.1784 96.826 73.5607L96.5098 72.2266C95.2267 72.5395 93.904 73.1012 92.7889 73.8095C92.751 73.8342 92.7148 73.8984 92.7576 73.9132C92.6489 75.1519 92.5797 76.29 92.4727 77.527V77.5287Z" fill="#264F85" stroke="#264F85" stroke-width="0.41593" stroke-miterlimit="10"/>
<path d="M95.1195 80.4203L94.5249 83.9106C94.0736 86.2627 93.5728 89.6722 96.2906 90.7808C97.0994 91.1184 97.9625 91.2354 98.8289 91.405C100.007 91.6043 101.186 92.0556 102.102 92.8479C105.098 95.3055 105.068 99.868 102.123 102.347L102.023 102.227C105.35 99.2915 104.508 93.935 100.436 92.194C98.8074 91.4956 96.849 91.7196 95.3567 90.6358C93.2796 89.0447 93.8314 86.0798 94.2729 83.8628L94.9663 80.3906L95.1211 80.4186L95.1195 80.4203Z" fill="#E5AE4C"/>
<path d="M76.4786 54.5368C76.7389 55.4592 76.6087 56.5463 76.0537 57.327C75.8247 57.6499 75.4986 57.892 75.2548 58.2049C74.6058 59.0334 74.6371 60.1881 74.6981 61.2373C74.876 64.268 75.0522 67.2988 75.2301 70.3279C75.2927 71.41 76.0158 72.3473 77.0518 72.6652C78.526 73.1181 80.0595 73.4574 81.5617 73.4904C82.4166 73.5085 83.2731 73.469 84.1213 73.3635C87.6528 72.9205 92.021 70.3147 94.2595 67.5475C94.9068 67.9 96.5144 68.4188 98.7413 66.1573C99.6736 65.2102 100.209 63.8283 99.8746 62.4562C99.6983 61.7331 99.1943 61.1154 98.4811 60.8997C97.3808 60.5669 96.4403 61.3394 95.6694 62.0741C96.4666 61.178 97.137 60.0234 97.6246 58.928C98.8204 56.2399 98.3954 52.9983 96.913 50.4552C95.4322 47.912 93.0011 46.0211 90.3409 44.7627C88.6823 43.977 85.2332 42.9261 83.4147 43.1682C81.2718 43.4532 75.3997 50.7055 76.4786 54.5384V54.5368Z" fill="#FEE2CC"/>
<path d="M76.6719 61.9901C76.5566 61.8583 76.5418 61.6673 76.6357 61.519C77.1694 60.6889 78.889 58.0568 79.2794 57.9266C79.7439 57.7718 80.3599 57.8673 80.1705 60.1931C80.0996 61.0677 80.0486 61.687 80.014 62.1186C79.9728 62.6226 79.5215 62.9916 79.0175 62.9306L78.296 62.845C77.6668 62.7692 77.0887 62.4645 76.6703 61.9885L76.6719 61.9901Z" fill="#F9CCA7"/>
<path d="M74.6752 60.0215C74.6538 60.4267 74.6735 60.8401 74.6966 61.2387C74.7543 62.2204 74.8119 63.2038 74.8696 64.1854C75.1298 63.8527 75.3275 63.3685 75.4098 62.7854C75.5679 61.662 75.2484 60.5337 74.6752 60.0215Z" fill="#F9CCA7"/>
<path d="M81.7385 55.2651L81.8258 54.9028C81.8604 54.7595 81.9971 54.6672 82.1437 54.6886C83.0479 54.8204 86.0556 55.2734 86.4855 55.5122C87.3305 55.9833 88.5856 57.4146 88.5856 57.4146L86.5975 56.6092C85.8563 56.3572 82.9063 55.7906 81.9608 55.611C81.8011 55.5814 81.7006 55.4233 81.7385 55.2651Z" fill="#C99239"/>
<path d="M76.4766 54.2068C76.4766 54.2068 77.8733 54.8064 78.4432 55.317L78.3592 54.3419C78.3592 54.3419 77.2639 53.2861 76.5523 53.4014L76.4766 54.2068Z" fill="#C99239"/>
<path d="M87.1705 66.7044C88.5332 66.7044 89.638 65.5997 89.638 64.2369C89.638 62.8742 88.5332 61.7695 87.1705 61.7695C85.8078 61.7695 84.7031 62.8742 84.7031 64.2369C84.7031 65.5997 85.8078 66.7044 87.1705 66.7044Z" fill="#F9CCA7"/>
<path d="M95.2305 64.7866C95.6686 63.1642 98.1228 61.8416 99.3829 63.3487L99.2676 63.4541C97.9087 62.3983 96.1463 63.6238 95.3738 64.8525L95.2305 64.7866Z" fill="#F9CCA7"/>
<path d="M74.8707 61.6746C74.8707 61.6746 74.6055 70.8261 75.2923 72.1734C75.9808 73.5208 76.4321 74.2916 78.9523 74.3394C80.3161 74.3658 82.6287 74.3971 85.106 73.781C87.2044 73.2589 89.4231 72.2706 91.2844 70.4192L96.29 61.584C96.29 61.584 87.5421 63.6445 85.4239 63.8406C84.5525 63.9213 83.6763 63.918 82.8033 63.8669C79.6869 63.6874 74.8707 61.6746 74.8707 61.6746Z" fill="url(#paint21_linear_401_6188)"/>
<path d="M93.4147 36.4618L66.7344 39.1812L67.5069 35.9792L94.1872 33.2598L93.4147 36.4618Z" fill="url(#paint22_linear_401_6188)"/>
<path d="M78.4435 55.3164C78.4435 55.3164 79.6195 56.9915 78.8306 58.3537L76.5938 61.5821" fill="#FEE2CC"/>
<path d="M78.4435 55.3164C78.4435 55.3164 79.6195 56.9915 78.8306 58.3537L76.5938 61.5821" stroke="#C69024" stroke-width="0.41593" stroke-linecap="round" stroke-linejoin="round"/>
<path d="M94.429 65.6564C93.8014 67.2706 93.1854 68.4253 92.1049 69.7792C89.6852 72.8116 88.6755 76.2788 89.4892 80.0722C88.4301 79.2404 88.2143 77.8057 88.1732 76.46C88.0068 71.115 91.8908 67.3134 92.1411 63.5102C92.1856 62.8299 92.9136 59.3891 91.4081 58.1932C89.3229 56.5379 86.9164 55.2943 84.9892 53.4577C83.0621 51.6228 81.7246 48.7271 82.8101 46.2976C80.7001 47.0915 78.9097 48.6563 77.7616 50.5901C77.2164 51.5092 76.6696 52.649 76.5543 53.7279C76.4423 54.7804 76.9875 55.8905 76.5048 56.9068C76.1573 57.6365 75.5314 58.2245 75.113 58.9163C74.3158 60.234 75.2316 61.8202 74.7951 63.2977C74.3751 64.7192 72.6538 65.5774 71.7446 66.7468C70.5933 68.2276 70.0234 70.0559 70.6723 71.8167C69.4452 70.5748 69.6824 68.4911 70.4137 66.9049C71.1451 65.3188 72.2816 63.8973 72.6753 62.1958C73.2946 59.5126 71.9439 56.7586 72.0526 54.0079C72.1416 51.7809 73.176 49.7154 74.189 47.729C75.1657 45.815 76.2891 43.7577 78.2656 42.9128C81.0707 41.7136 83.9137 41.5703 86.9576 41.7614C90.83 42.0052 94.2791 45.1759 97.5701 47.2315C100.861 49.2855 103.857 50.5028 103.427 54.3587C103.427 54.3587 107.316 65.4999 96.8272 73.5577L92.6385 74.5114L92.6451 74.2528C92.683 72.7309 92.9779 71.227 93.5148 69.8039L94.4026 67.4534C94.4026 67.4534 96.7778 69.122 99.517 65.0849C99.517 65.0849 100.726 62.8266 98.8763 61.2355C98.7577 61.1334 98.5814 61.0626 98.3953 61.0098C96.0481 60.3395 94.7831 64.739 94.4273 65.6548L94.429 65.6564Z" fill="#FFD066"/>
<path d="M116.739 52.9447L93.3633 36.5277L94.1868 33.2598L117.512 49.7427L116.739 52.9447Z" fill="#0B1F43"/>
<path d="M116.74 52.9438L85.2548 46.1939L66.7344 39.1804L93.4147 36.4609L116.74 52.9438Z" fill="#030917"/>
<path d="M90.6998 41.6564C84.8113 40.2349 79.1863 40.6088 75.2744 42.3433L73.9336 47.8991C77.8455 46.1646 83.4705 45.7907 89.359 47.2122C96.0942 48.8379 101.452 52.3957 103.796 56.3192L105.137 50.7634C102.791 46.84 97.4349 43.2821 90.6998 41.6564Z" fill="url(#paint23_linear_401_6188)"/>
<path d="M94.5254 56.6172C95.6323 57.2184 96.8281 58.3615 96.6024 59.7352C96.4674 58.4043 95.4593 57.4819 94.5254 56.6172Z" fill="#E5AE4C"/>
<path d="M83.9297 47.4899C84.7516 49.7564 86.5701 51.4183 88.4132 52.881C88.433 52.8958 88.4116 52.9304 88.3901 52.9156C86.3938 51.7988 84.3316 49.7498 83.9313 47.4883L83.9297 47.4899Z" fill="#E5AE4C"/>
<path d="M86.8375 47.9456C87.8011 49.0377 88.9508 49.9337 90.2141 50.6519C92.7293 52.1112 95.7238 53.0913 97.5785 55.4945C98.5025 56.6573 99.1235 58.1826 98.8879 59.6765C98.8846 59.7078 98.8319 59.7045 98.8336 59.6716C98.7941 56.6689 96.2822 54.5045 93.8395 53.1605C91.2864 51.767 88.4418 50.5267 86.714 48.0428C86.6892 48.0082 86.6958 47.9588 86.7321 47.9325C86.765 47.9094 86.8095 47.9143 86.8358 47.944L86.8375 47.9456Z" fill="#E5AE4C"/>
<path d="M95.6554 77.1445C97.0176 78.7159 97.711 80.8539 97.5249 82.9359C97.2301 85.7031 96.5712 88.1705 100.03 88.9545C100.523 89.0747 101.027 89.1604 101.534 89.2691C103.056 89.5936 104.573 90.175 105.784 91.1831C106.938 92.1763 108.001 93.7032 107.836 95.2927L107.679 95.2976C107.324 93.1811 106.217 91.6179 104.316 90.6066C103.428 90.1289 102.456 89.8077 101.465 89.5919C100.455 89.3696 99.3928 89.2428 98.4737 88.7058C96.3521 87.4688 97.0653 84.896 97.2679 82.9145C97.4788 80.9 96.843 78.8081 95.5352 77.2467L95.6537 77.1445H95.6554Z" fill="#E5AE4C"/>
<path d="M103.339 103.91C102.252 105.473 100.564 107.261 100.061 109.115C99.7169 110.476 100.728 111.826 101.759 112.615C101.822 112.66 101.835 112.749 101.789 112.81C101.743 112.871 101.656 112.884 101.595 112.838C101.232 112.568 100.914 112.248 100.638 111.896C100.092 111.189 99.6593 110.313 99.7664 109.39C100.01 108.071 100.842 106.944 101.624 105.902L103.214 103.815C103.273 103.739 103.402 103.823 103.339 103.909V103.91Z" fill="#E5AE4C"/>
<path d="M132.179 55.9221C138.113 53.3937 144.705 53.229 150.719 55.4592C154.974 57.0372 159.404 60.623 159.819 66.0339C160.261 71.784 156.062 76.3252 152.197 79.6458C145.848 85.0978 138.958 90.2847 131.245 91.2976C128.664 91.6369 125.241 90.6437 125.025 87.4812C124.88 85.3531 126.384 83.6269 127.85 82.4657C135.294 76.5673 145.763 76.3565 152.827 82.9154C159.892 89.4743 162.404 102.786 157.642 111.936" stroke="#CAFFED" stroke-width="1.2653" stroke-linecap="round" stroke-linejoin="round"/>
<path d="M46.9806 104.16L16.9648 121.478V86.6132L46.9806 69.2969V104.16Z" fill="url(#paint24_linear_401_6188)"/>
<path d="M42.785 102.904L39.6044 101.727L36.4023 106.586L37.641 97.9348L41.6336 95.9648L42.785 102.904Z" fill="url(#paint25_linear_401_6188)"/>
<path d="M46.9805 104.16L50.2138 106.239V71.3739L46.9805 69.2969V104.16Z" fill="#6DD2F2" stroke="#F0F4F8" stroke-width="0.437821" stroke-miterlimit="10"/>
<path d="M46.9806 103.93L16.9648 121.478L20.1982 123.639L50.2139 106.239L46.9806 103.93Z" fill="#4FBAD3" stroke="#F0F4F8" stroke-width="0.437821" stroke-miterlimit="10"/>
<path d="M30.1265 83.6117L19.7363 89.3832V88.6914L30.1265 82.9182V83.6117Z" fill="#019DD8"/>
<path d="M30.2417 86.3831L19.8516 92.1547V91.4629L30.2417 85.6897V86.3831Z" fill="#019DD8"/>
<path d="M30.3569 89.1546L19.9668 94.9262V94.2344L30.3569 88.4612V89.1546Z" fill="#019DD8"/>
<path d="M30.4741 91.9242L20.084 97.6957V97.0039L30.4741 91.2307V91.9242Z" fill="#019DD8"/>
<path d="M30.3569 102.774L19.9668 108.547V107.854L30.3569 102.082V102.774Z" fill="#019DD8"/>
<path d="M30.4741 105.547L20.084 111.319V110.625L30.4741 104.854V105.547Z" fill="#019DD8"/>
<path d="M43.7495 76.4538L33.3594 82.227V81.5335L43.7495 75.762V76.4538Z" fill="#019DD8"/>
<path d="M43.8647 79.2233L33.4746 84.9965V84.3031L43.8647 78.5315V79.2233Z" fill="#019DD8"/>
<path d="M43.98 81.9948L33.5898 87.768V87.0745L43.98 81.303V81.9948Z" fill="#019DD8"/>
<path d="M44.0972 84.7663L33.707 90.5395V89.846L44.0972 84.0745V84.7663Z" fill="#019DD8"/>
<path d="M43.0634 96.7574C43.9353 94.0172 42.8817 91.2357 40.7102 90.5448C38.5387 89.8539 36.0716 91.5151 35.1997 94.2553C34.3279 96.9955 35.3814 99.7769 37.5529 100.468C39.7244 101.159 42.1916 99.4975 43.0634 96.7574Z" fill="url(#paint26_linear_401_6188)"/>
<path d="M33.1875 73.3217C27.4143 82.5869 25.8215 86.8447 24.7575 89.3286C24.6867 89.4933 24.5236 89.5905 24.3638 89.5114L23.2108 89.3813L23.2075 83.5949C22.2538 81.8456 21.0992 80.1063 19.7617 78.7342C21.2376 76.1301 22.3494 73.9312 23.1993 72.0584L23.1927 60.9336L25.9302 61.7374C25.9302 61.7374 27.724 66.5932 33.1892 73.3234L33.1875 73.3217Z" fill="#A37624" stroke="#F0F4F8" stroke-width="0.437821" stroke-miterlimit="10"/>
<path d="M31.1027 73.3963C27.6223 78.2999 24.7843 84.274 23.2097 89.3834C22.7452 87.6342 20.4244 80.8974 16.6738 77.048C22.0007 67.6511 22.6002 63.5003 23.1915 61.084C24.4318 64.7752 28.2268 71.0475 31.1027 73.3963Z" fill="#FFD066" stroke="#F0F4F8" stroke-width="0.437821" stroke-miterlimit="10"/>
<path d="M67.334 39.3376V51.0554" stroke="#0F1F42" stroke-width="0.836238" stroke-miterlimit="10"/>
<path d="M67.4543 52.8616C67.9965 52.8616 68.436 52.4221 68.436 51.8799C68.436 51.3377 67.9965 50.8982 67.4543 50.8982C66.9122 50.8982 66.4727 51.3377 66.4727 51.8799C66.4727 52.4221 66.9122 52.8616 67.4543 52.8616Z" fill="url(#paint27_linear_401_6188)"/>
<path d="M69.8385 59.0017H65.0684L65.9858 53.9581C66.1044 53.3042 66.6743 52.8298 67.3381 52.8298C67.9805 52.8298 68.5356 53.2746 68.6789 53.9005L69.8385 59.0033V59.0017Z" fill="url(#paint28_linear_401_6188)"/>
<path d="M154.995 48.1631L123.754 66.186V29.8996L154.995 11.875V48.1631Z" fill="#F0F4F8"/>
<path d="M154.994 47.9226L158.358 50.0853V14.0393L154.994 11.875V47.9226Z" fill="#C5C3FF" stroke="#F0F4F8" stroke-width="0.437821" stroke-miterlimit="10"/>
<path d="M154.995 47.9219L123.754 65.9448L127.119 68.1372L158.359 50.1142L154.995 47.9219Z" fill="#8B89CA" stroke="#F0F4F8" stroke-width="0.437821" stroke-miterlimit="10"/>
<path d="M156.891 147.406L159.279 148.765" stroke="#F0F4F8" stroke-width="0.437821" stroke-miterlimit="10"/>
<path d="M107.886 107.33L102.09 109.221" stroke="#0088C7" stroke-width="0.41593" stroke-miterlimit="10" stroke-linecap="round"/>
<path d="M76.9641 56.27C76.7731 56.2009 76.3613 56.0477 76.5952 56.4067C76.5952 56.4067 76.1603 57.3061 76.4766 57.7146C76.7928 58.1231 78.2225 58.0736 78.2225 58.0736L78.3856 58.2054C78.4779 58.2417 78.5701 58.1544 78.5388 58.0605L78.3906 57.6816C78.076 57.0277 77.6477 56.522 76.9658 56.2717L76.9641 56.27Z" fill="#F0F4F8"/>
<path d="M159.418 43.2703C159.573 43.9819 159.651 44.3377 159.805 45.0476C160.431 44.3311 160.744 43.972 161.37 43.2555C164.06 39.7784 166.396 43.384 164.813 46.3752C164.38 47.2679 164.164 47.7127 163.732 48.6054C164.358 48.6021 164.671 48.6005 165.295 48.5955C169 49.0122 165.712 54.6685 164.067 55.6716C163.371 56.0735 163.026 56.2728 162.33 56.6747C162.484 57.3863 162.561 57.7421 162.716 58.4553C163.111 60.697 160.621 65.9629 157.74 64.1593C157.307 63.7673 157.089 63.5713 156.656 63.1809C156.223 64.072 156.005 64.5184 155.572 65.4095C154.469 67.8127 149.447 70.0017 150.596 65.4457C150.749 64.5563 150.827 64.1115 150.982 63.2221C150.287 63.6223 149.941 63.8216 149.246 64.2219C145.535 66.7453 146.732 60.0283 148.017 58.5623C148.643 57.8442 148.956 57.4851 149.58 56.7686C149.147 56.3749 148.931 56.1789 148.499 55.7853C146.505 53.5468 149.346 48.9398 151.942 48.6927C152.568 48.6878 152.881 48.6845 153.507 48.6795C153.662 47.7901 153.739 47.3437 153.894 46.4542C154.202 44.7412 158.527 39.1195 159.417 43.2687L159.418 43.2703Z" fill="#0B1E44"/>
<path d="M158.403 41.9385C158.558 42.6501 158.635 43.0059 158.79 43.7158C159.416 42.9993 159.729 42.6402 160.355 41.9237C163.044 38.4466 165.38 42.0522 163.797 45.0434C163.364 45.9361 163.148 46.3809 162.717 47.2736C163.342 47.2703 163.655 47.2687 164.28 47.2637C167.984 47.6805 164.696 53.3367 163.051 54.3398C162.356 54.7417 162.01 54.941 161.315 55.3429C161.468 56.0545 161.545 56.4103 161.7 57.1235C162.096 59.3652 159.605 64.6311 156.724 62.8275C156.291 62.4355 156.074 62.2395 155.64 61.8491C155.207 62.7402 154.99 63.1866 154.557 64.0777C153.453 66.4809 148.431 68.6699 149.581 64.1139C149.734 63.2245 149.811 62.7798 149.966 61.8903C149.271 62.2906 148.925 62.4899 148.23 62.8901C144.519 65.4135 145.716 58.6965 147.001 57.2306C147.627 56.5124 147.94 56.1533 148.564 55.4368C148.131 55.0432 147.915 54.8472 147.484 54.4535C145.489 52.215 148.33 47.608 150.926 47.3609C151.552 47.356 151.865 47.3527 152.491 47.3477C152.646 46.4583 152.723 46.0119 152.878 45.1225C153.186 43.4094 157.512 37.7878 158.401 41.9369L158.403 41.9385Z" fill="#833CF6"/>
<path d="M82.9566 58.3458C82.9566 58.3458 83.3322 57.4119 86.8554 60.5002C86.8554 60.5002 84.9348 60.6946 83.3799 60.2136C83.1394 60.1395 82.9681 59.8776 82.5531 59.7574C82.5036 59.7426 82.3752 59.6141 82.4839 59.4527C82.5432 59.3654 82.7342 59.4312 82.7046 59.1512C82.6437 58.5566 82.9566 58.3458 82.9566 58.3458Z" fill="#F0F4F8"/>
<path d="M84.4137 59.3105C84.6217 58.7842 84.4199 58.2113 83.963 58.0308C83.5061 57.8503 82.9672 58.1305 82.7593 58.6568C82.5514 59.183 82.7532 59.756 83.21 59.9365C83.6669 60.117 84.2058 59.8367 84.4137 59.3105Z" fill="#E5AE4C"/>
<path d="M88.123 60.6245C88.2416 60.6393 87.1726 60.7464 86.8547 60.4993L85.3344 59.2755C83.1799 57.5015 82.7632 58.6595 82.7632 58.6595C82.7632 58.6595 82.2081 58.1044 82.2229 57.2924C82.2229 57.2924 84.3708 57.1606 86.7806 60.1847C86.7806 60.1847 87.2928 60.5257 88.1246 60.6229L88.123 60.6245Z" fill="#E5AE4C"/>
<path d="M87.2006 59.6954C85.038 56.7289 83.1816 56.8985 83.1816 56.8985" stroke="#F9CCA7" stroke-width="0.437821" stroke-linecap="round" stroke-linejoin="round"/>
<path d="M76.7688 56.1255C76.5778 56.0563 76.166 55.9031 76.3999 56.2622C76.3999 56.2622 75.965 57.1616 76.2813 57.57C76.3422 57.6475 76.4427 57.7084 76.5662 57.7562C76.9714 57.8023 77.3931 57.5322 77.571 57.0808C77.6187 56.959 77.6435 56.8354 77.65 56.7152C77.4112 56.4599 77.1246 56.2573 76.7672 56.1255H76.7688Z" fill="#E5AE4C"/>
<path d="M78.5375 58.058C78.5375 58.058 77.7501 56.2544 76.3978 56.2627C76.3978 56.2627 75.9004 55.813 75.9004 55.4688C75.9004 55.4688 78.1537 56.126 78.5375 58.0597V58.058Z" fill="#E5AE4C"/>
<path d="M76.6797 55.4688C76.6797 55.4688 78.027 55.6466 78.536 56.8985" stroke="#F9CCA7" stroke-width="0.437821" stroke-linecap="round" stroke-linejoin="round"/>
<path d="M88.123 60.6262C88.2416 60.641 87.1726 60.7481 86.8547 60.501L86.041 59.6659C85.588 59.2014 85.056 58.8143 84.4614 58.5524C83.0136 57.9134 82.7615 58.6628 82.7615 58.6628C82.7615 58.6628 82.4091 58.6183 82.4222 57.8063C82.4222 57.8063 84.9621 56.9564 86.6307 59.5308C86.9667 60.0497 87.5284 60.4104 88.0966 60.6229C88.1049 60.6262 88.1131 60.6245 88.1213 60.6262H88.123Z" fill="#E5AE4C"/>
<path d="M87.2006 59.6971C85.038 56.7306 83.1816 56.9002 83.1816 56.9002" stroke="#F9CCA7" stroke-width="0.437821" stroke-linecap="round" stroke-linejoin="round"/>
<path d="M78.5374 58.059C78.5374 58.059 78.1915 56.3196 76.4751 56.4464C76.4751 56.4464 76.1836 56.2603 76.1836 55.916C76.1836 55.916 78.4945 55.4697 78.5374 58.0606V58.059Z" fill="#E5AE4C"/>
<path d="M76.6797 55.4707C76.6797 55.4707 78.027 55.6486 78.536 56.9004" stroke="#F9CCA7" stroke-width="0.437821" stroke-linecap="round" stroke-linejoin="round"/>
<path d="M145.484 28.6594C145.229 29.5801 144.96 30.4152 144.377 31.2075C144.231 31.4068 144.086 31.6802 144.026 31.9026C143.555 33.6914 142.712 35.3682 141.615 36.8522C140.698 38.0925 139.67 39.2175 138.614 40.3178C138.456 40.4825 138.395 40.5912 138.398 40.7691C138.41 41.2781 138.403 41.8002 138.405 42.3191C138.775 42.1494 139.12 41.9633 139.449 41.8513C139.744 41.7508 140.045 41.6784 140.301 41.6932C141.032 41.736 141.022 42.7128 140.261 43.5495C139.777 44.0815 139.235 44.5444 138.705 45.0039C138.469 45.2082 138.4 45.3465 138.415 45.5755C138.433 45.8654 138.433 46.1701 138.42 46.4781C138.41 46.6906 138.466 46.7351 138.678 46.6494C139.041 46.5028 139.416 46.3645 139.746 46.3315C140.656 46.2426 140.768 47.1156 139.983 48.2142C139.632 48.705 139.22 49.1646 138.81 49.6044C138.518 49.9157 138.388 50.1644 138.425 50.479C138.451 50.7063 138.439 50.9616 138.425 51.2153C138.408 51.4821 138.513 51.5958 138.739 51.5299C139.194 51.3965 139.653 51.2565 140.113 51.0802C140.53 50.9221 140.955 50.703 141.366 50.535C141.538 50.4658 141.702 50.4461 141.867 50.4049C141.859 50.4411 141.852 50.479 141.844 50.5152C139.302 51.9927 136.774 53.4883 134.259 55.0103L134.238 54.9246C134.397 54.7714 134.555 54.6018 134.722 54.4684C135.33 53.9825 135.957 53.518 136.586 53.0156C137.622 52.1854 137.626 52.1756 137.593 51.1132C137.593 51.067 137.585 51.0242 137.578 50.9435C136.977 51.5282 136.392 52.0998 135.815 52.6697C135.802 52.6466 135.789 52.6236 135.778 52.6005C135.896 52.4655 136.013 52.3271 136.133 52.197C136.509 51.7934 136.889 51.3932 137.27 50.9896C137.496 50.7491 137.609 50.5202 137.603 50.2418C137.585 49.4611 137.596 48.6622 137.594 47.8765C137.235 47.9918 136.891 48.122 136.563 48.201C136.033 48.3295 135.54 48.3641 135.15 48.1714C134.712 47.9523 134.758 47.4582 135.293 46.7762C135.807 46.119 136.397 45.6216 137.001 45.1555C137.107 45.0731 137.216 44.994 137.323 44.9199C137.504 44.7947 137.601 44.6432 137.598 44.4455C137.594 44.2594 137.598 44.07 137.598 43.8493C137.247 44.0371 136.906 44.2495 136.576 44.3912C136.023 44.6284 135.46 44.9034 134.954 45.0056C133.976 45.2049 133.847 44.1556 134.643 42.9499C134.742 42.8001 134.845 42.6452 134.961 42.5184C135.715 41.6915 136.489 40.8597 137.278 40.0477C137.461 39.8599 137.543 39.7463 137.542 39.5239C137.527 38.2507 137.356 38.0695 136.245 38.2391C135.134 38.4104 134.03 38.6361 133.017 38.7366C132.493 38.7876 132.032 38.6773 131.576 38.6015C131.098 38.5224 131.009 37.8982 130.732 37.4732C130.869 37.3744 130.955 37.3085 131.042 37.2541C134.847 34.8724 138.754 32.6652 142.628 30.3971C142.956 30.2028 142.972 30.1649 142.989 29.8041C143.03 28.834 142.808 28.1027 142.256 27.7008C141.74 27.3252 141.119 27.1358 140.253 27.5179C139.859 27.6909 139.484 27.9923 139.169 28.4238C139.011 28.6429 138.854 28.9312 138.803 29.1585C138.677 29.7284 138.418 30.2522 138.013 30.7381C137.593 31.2421 137.168 31.7478 136.723 32.2073C136.232 32.7146 135.987 32.6158 136.097 31.9932C136.456 29.9886 137.505 28.1817 138.902 26.7207C139.591 25.9877 140.319 25.487 141.02 25.3108C141.74 25.1296 142.396 25.1329 142.957 25.3602C143.898 25.739 144.29 26.668 144.334 28.0055C144.346 28.3761 144.356 28.75 144.349 29.1321C144.346 29.3265 144.414 29.3364 144.568 29.2359C144.868 29.0432 145.163 28.8669 145.487 28.6643L145.484 28.6594ZM142.045 33.9154C141.888 34.0735 141.729 34.2316 141.571 34.3914C140.815 35.1573 140.04 35.915 139.276 36.7024C138.629 37.3711 138.347 38.1535 138.513 38.7893C139.968 37.3892 141.31 35.8244 142.043 33.9154H142.045ZM138.444 49.5583L138.52 49.5813C138.807 49.1893 139.12 48.8088 139.368 48.402C139.556 48.094 139.681 47.7448 139.788 47.4219C139.828 47.3017 139.774 47.1254 139.693 47.1007C139.34 46.9986 138.91 47.1633 138.443 47.4236C138.443 48.1549 138.446 48.8566 138.446 49.5566L138.444 49.5583ZM137.58 41.288C136.893 41.965 136.252 42.5925 135.629 43.2316C135.549 43.314 135.501 43.4688 135.438 43.5907C135.45 43.6187 135.461 43.6467 135.473 43.6747C136.155 43.4078 136.85 43.1377 137.58 42.8544C137.58 42.329 137.58 41.853 137.58 41.2863V41.288ZM137.578 45.9066C137.102 46.1882 136.687 46.5605 136.301 47.025C136.145 47.2127 136.168 47.305 136.29 47.3412C136.654 47.4466 137.084 47.3149 137.578 47.0283C137.578 46.6527 137.578 46.2986 137.578 45.9049V45.9066ZM138.428 43.4128C138.428 43.617 138.428 43.79 138.428 43.9959C138.79 43.7126 139.074 43.3963 139.314 42.8956C138.986 43.0867 138.716 43.2448 138.428 43.4128Z" fill="#019DD8"/>
<defs>
<linearGradient id="paint0_linear_401_6188" x1="76.2555" y1="13.2584" x2="129.549" y2="208.813" gradientUnits="userSpaceOnUse">
<stop stop-color="#0088C3"/>
<stop offset="1" stop-color="#0F1F42"/>
</linearGradient>
<linearGradient id="paint1_linear_401_6188" x1="83.3473" y1="82.6392" x2="98.8814" y2="146.07" gradientUnits="userSpaceOnUse">
<stop stop-color="#C5C3FF"/>
<stop offset="0.51" stop-color="#833CF6"/>
<stop offset="1" stop-color="#6B00F8"/>
</linearGradient>
<linearGradient id="paint2_linear_401_6188" x1="90.15" y1="100.747" x2="73.7928" y2="122.86" gradientUnits="userSpaceOnUse">
<stop offset="0.18" stop-color="#F0F4F8"/>
<stop offset="0.48" stop-color="#BEF5FF"/>
<stop offset="1" stop-color="#0088C3"/>
</linearGradient>
<linearGradient id="paint3_linear_401_6188" x1="92.6895" y1="106.493" x2="218.579" y2="249.911" gradientUnits="userSpaceOnUse">
<stop offset="0.2" stop-color="#BEF5FF"/>
<stop offset="0.76" stop-color="#39C7DF"/>
</linearGradient>
<linearGradient id="paint4_linear_401_6188" x1="53.932" y1="106.081" x2="151.419" y2="217.003" gradientUnits="userSpaceOnUse">
<stop offset="0.15" stop-color="#F0F4F8"/>
<stop offset="0.39" stop-color="#F0F4F8"/>
</linearGradient>
<linearGradient id="paint5_linear_401_6188" x1="134.126" y1="91.0139" x2="138.308" y2="104.308" gradientUnits="userSpaceOnUse">
<stop stop-color="#BEF5FF"/>
<stop offset="1" stop-color="#0088C3"/>
</linearGradient>
<linearGradient id="paint6_linear_401_6188" x1="121.276" y1="102.411" x2="122.769" y2="114.958" gradientUnits="userSpaceOnUse">
<stop stop-color="#BEF5FF"/>
<stop offset="1" stop-color="#0088C3"/>
</linearGradient>
<linearGradient id="paint7_linear_401_6188" x1="96.3515" y1="94.4574" x2="98.5916" y2="130.604" gradientUnits="userSpaceOnUse">
<stop offset="0.3" stop-color="#BEF5FF"/>
<stop offset="0.47" stop-color="#8CD8EF"/>
<stop offset="0.84" stop-color="#289FCF"/>
<stop offset="1" stop-color="#0088C3"/>
</linearGradient>
<linearGradient id="paint8_linear_401_6188" x1="98.2787" y1="95.5781" x2="98.2787" y2="179.821" gradientUnits="userSpaceOnUse">
<stop offset="0.25" stop-color="#DE97FF"/>
<stop offset="1" stop-color="#A827D8"/>
</linearGradient>
<linearGradient id="paint9_linear_401_6188" x1="84.9631" y1="129.148" x2="74.3951" y2="151.798" gradientUnits="userSpaceOnUse">
<stop stop-color="#0088C3"/>
<stop offset="1" stop-color="#0F1F42"/>
</linearGradient>
<linearGradient id="paint10_linear_401_6188" x1="104.186" y1="105.675" x2="105.366" y2="140.376" gradientUnits="userSpaceOnUse">
<stop offset="0.47" stop-color="#DE97FF"/>
<stop offset="0.53" stop-color="#B940DD"/>
<stop offset="1" stop-color="#8C00BC"/>
</linearGradient>
<linearGradient id="paint11_linear_401_6188" x1="90.977" y1="95.5775" x2="90.977" y2="179.82" gradientUnits="userSpaceOnUse">
<stop offset="0.14" stop-color="#F0F4F8"/>
<stop offset="0.44" stop-color="#DE97FF"/>
<stop offset="0.83" stop-color="#A827D8"/>
</linearGradient>
<linearGradient id="paint12_linear_401_6188" x1="75.6227" y1="153.853" x2="85.9915" y2="153.853" gradientUnits="userSpaceOnUse">
<stop stop-color="#0F1F42"/>
<stop offset="1" stop-color="#0F1F42"/>
</linearGradient>
<linearGradient id="paint13_linear_401_6188" x1="128.152" y1="104.861" x2="129.331" y2="139.563" gradientUnits="userSpaceOnUse">
<stop stop-color="#DE97FF"/>
<stop offset="0.53" stop-color="#B940DD"/>
<stop offset="1" stop-color="#8C00BC"/>
</linearGradient>
<linearGradient id="paint14_linear_401_6188" x1="93.9307" y1="84.03" x2="87.9796" y2="69.3754" gradientUnits="userSpaceOnUse">
<stop offset="0.52" stop-color="#FFE2C7"/>
<stop offset="0.74" stop-color="#D3B091"/>
<stop offset="0.91" stop-color="#B68F6D"/>
<stop offset="1" stop-color="#AB8360"/>
</linearGradient>
<linearGradient id="paint15_linear_401_6188" x1="76.5358" y1="156.955" x2="94.2326" y2="156.955" gradientUnits="userSpaceOnUse">
<stop offset="0.2" stop-color="#BEF5FF"/>
<stop offset="0.76" stop-color="#39C7DF"/>
</linearGradient>
<linearGradient id="paint16_linear_401_6188" x1="65.8756" y1="141.011" x2="78.7743" y2="185.79" gradientUnits="userSpaceOnUse">
<stop offset="0.2" stop-color="#0088C3"/>
<stop offset="0.24" stop-color="#0372A8"/>
<stop offset="0.33" stop-color="#094571"/>
<stop offset="0.4" stop-color="#0D294E"/>
<stop offset="0.44" stop-color="#0F1F42"/>
</linearGradient>
<linearGradient id="paint17_linear_401_6188" x1="56.2158" y1="134.174" x2="62.0038" y2="175.696" gradientUnits="userSpaceOnUse">
<stop stop-color="#0088C3"/>
<stop offset="1" stop-color="#0F1F42"/>
</linearGradient>
<linearGradient id="paint18_linear_401_6188" x1="91.4679" y1="96.0039" x2="95.4952" y2="126.655" gradientUnits="userSpaceOnUse">
<stop offset="0.2" stop-color="#BEF5FF"/>
<stop offset="0.76" stop-color="#39C7DF"/>
</linearGradient>
<linearGradient id="paint19_linear_401_6188" x1="103.931" y1="135.865" x2="161.189" y2="187.768" gradientUnits="userSpaceOnUse">
<stop offset="0.2" stop-color="#BEF5FF"/>
<stop offset="0.6" stop-color="#39C7DF"/>
</linearGradient>
<linearGradient id="paint20_linear_401_6188" x1="73.6328" y1="151.655" x2="105.357" y2="151.655" gradientUnits="userSpaceOnUse">
<stop offset="0.2" stop-color="#BEF5FF"/>
<stop offset="0.76" stop-color="#39C7DF"/>
</linearGradient>
<linearGradient id="paint21_linear_401_6188" x1="79.0972" y1="57.9965" x2="104.145" y2="91.6475" gradientUnits="userSpaceOnUse">
<stop offset="0.09" stop-color="#BEF5FF"/>
<stop offset="0.47" stop-color="#6DD2F2"/>
</linearGradient>
<linearGradient id="paint22_linear_401_6188" x1="66.7344" y1="36.2197" x2="94.1872" y2="36.2197" gradientUnits="userSpaceOnUse">
<stop stop-color="#BEF5FF"/>
<stop offset="1" stop-color="#0088C3"/>
</linearGradient>
<linearGradient id="paint23_linear_401_6188" x1="75.1937" y1="41.1524" x2="95.3233" y2="50.4571" gradientUnits="userSpaceOnUse">
<stop stop-color="#0088C3"/>
<stop offset="1" stop-color="#0F1F42"/>
</linearGradient>
<linearGradient id="paint24_linear_401_6188" x1="15.7196" y1="79.4844" x2="52.879" y2="115.842" gradientUnits="userSpaceOnUse">
<stop stop-color="#F0F4F8"/>
<stop offset="0.54" stop-color="#BEF5FF"/>
<stop offset="0.96" stop-color="#39C7DF"/>
</linearGradient>
<linearGradient id="paint25_linear_401_6188" x1="31.5268" y1="92.2555" x2="42.8937" y2="105.942" gradientUnits="userSpaceOnUse">
<stop offset="0.06" stop-color="white"/>
<stop offset="0.46" stop-color="#FFCE4E"/>
<stop offset="0.94" stop-color="#C69024"/>
</linearGradient>
<linearGradient id="paint26_linear_401_6188" x1="34.4339" y1="89.8452" x2="45.8008" y2="103.53" gradientUnits="userSpaceOnUse">
<stop offset="0.06" stop-color="white"/>
<stop offset="0.46" stop-color="#FFCE4E"/>
<stop offset="0.94" stop-color="#C69024"/>
</linearGradient>
<linearGradient id="paint27_linear_401_6188" x1="64.5686" y1="47.3008" x2="71.8209" y2="58.811" gradientUnits="userSpaceOnUse">
<stop offset="0.28" stop-color="#0088C3"/>
<stop offset="1" stop-color="#0F1F42"/>
</linearGradient>
<linearGradient id="paint28_linear_401_6188" x1="62.1249" y1="48.8405" x2="69.3773" y2="60.3523" gradientUnits="userSpaceOnUse">
<stop offset="0.32" stop-color="#0088C3"/>
<stop offset="1" stop-color="#0F1F42"/>
</linearGradient>
</defs>
</svg>
