<svg width="151" height="139" viewBox="0 0 151 139" fill="none" xmlns="http://www.w3.org/2000/svg">
<path d="M72.9157 149.015C112.986 149.015 145.47 115.657 145.47 74.5077C145.47 33.3582 112.986 0 72.9157 0C32.845 0 0.361328 33.3582 0.361328 74.5077C0.361328 115.657 32.845 149.015 72.9157 149.015Z" fill="url(#paint0_linear_401_6458)"/>
<path d="M62.7899 5.21182C62.7899 5.21182 54.0487 13.2084 47.6149 16.7261C41.1807 20.2422 38.8809 24.1097 32.8883 26.7354C26.8962 29.3626 25.3635 34.385 22.3875 41.3498C19.4116 48.3146 18.0823 59.2414 13.8278 65.3474C13.8278 65.3474 12.579 66.3145 16.7883 76.5813C20.9972 86.8465 20.1947 102.058 22.9142 107.245C22.9142 107.245 36.4908 106.277 39.2917 92.9422C39.2917 92.9422 34.0205 79.213 33.9808 76.2154C33.9425 73.2174 33.0876 69.4003 33.0876 69.4003C33.0876 69.4003 38.1815 64.5594 38.711 56.2178C38.711 56.2178 39.4579 51.6335 37.9569 47.3276C37.9569 47.3276 41.2925 41.8922 41.1828 38.4342C41.1828 38.4342 44.8926 36.3388 48.2091 29.8437L55.6113 24.1729C55.6113 24.1729 71.3973 22.1092 75.0058 16.7037C75.0058 16.7037 76.0909 15.5055 75.8775 14.6957C75.8775 14.6957 76.4077 13.5987 75.6176 13.7097C74.8276 13.8207 70.0759 15.1384 69.8352 15.359C69.8352 15.359 60.1793 17.8485 58.7977 17.4095C58.7977 17.4095 67.386 10.0217 64.1735 5.93287L63.7126 5.45176C63.7126 5.45176 63.9645 5.04831 63.4343 4.77973C63.0162 4.98555 62.7899 5.21182 62.7899 5.21182Z" fill="#F9CCA7" stroke="#A86436" stroke-width="0.226205" stroke-linecap="round" stroke-linejoin="round"/>
<path d="M34.3651 51.934C34.3651 51.934 33.9442 49.3679 34.6622 48.211C35.3803 47.0542 36.6385 44.0711 36.5922 42.9266C36.5922 42.9266 38.1657 41.0914 38.8217 40.2657C39.8328 38.9959 41.5142 33.201 39.2767 29.1771C38.7423 28.2159 37.817 27.5261 36.7354 27.4068C36.3186 27.3608 35.8885 27.3986 35.5297 27.6152C34.4127 28.2882 33.2056 32.0258 32.8634 32.4271C32.5211 32.8285 29.7564 38.0228 29.7201 38.6406C29.6838 39.2585 23.3509 48.1029 22.0654 48.5202" stroke="#A86436" stroke-width="0.226205" stroke-linecap="round" stroke-linejoin="round"/>
<g style="mix-blend-mode:multiply" opacity="0.7">
<path d="M38.2768 96.8002C38.7871 95.651 39.2066 94.3786 39.504 92.9673C39.504 92.9673 34.2051 79.2016 34.1652 76.196C34.1268 73.19 33.2673 69.3628 33.2673 69.3628C33.2673 69.3628 38.3881 64.5091 38.9204 56.1453C38.9204 56.1453 39.1096 54.9909 39.1075 53.2963L38.5854 49.9447C38.9922 56.2216 35.7682 62.7468 33.4929 64.8256C30.8873 67.2063 31.6419 70.5147 31.6419 70.5147C29.8012 76.4204 36.0447 91.665 38.2768 96.8002Z" fill="#EAB892"/>
</g>
<g style="mix-blend-mode:multiply" opacity="0.7">
<path d="M62.1853 7.12525C61.6007 9.92626 59.7801 12.4488 57.3264 13.8593C56.9768 14.06 56.5807 14.2789 56.4628 14.6712C56.3073 15.1883 56.7144 15.796 56.4373 16.2597C56.2113 16.6371 55.6946 16.654 55.2963 16.8279C54.5873 17.1377 54.2678 17.9575 53.9149 18.6564C53.037 20.3934 51.5268 21.794 49.7492 22.5209C49.4407 22.6464 49.1081 22.7656 48.9004 23.0303C48.735 23.2421 48.6724 23.5158 48.5928 23.7733C48.2276 24.955 47.4109 25.9328 46.6006 26.8616C45.2306 28.4292 43.8207 29.9609 42.3693 31.4507L42.7997 31.5382C42.7997 31.5382 46.6989 29.0049 50.7036 23.9637C50.7036 23.9637 58.3682 18.1217 61.6585 14.1482C64.9488 10.1746 65.2404 7.32674 63.9257 5.89216C62.611 4.45758 62.1831 7.12913 62.1831 7.12913L62.1853 7.12525Z" fill="#EAB892"/>
</g>
<g style="mix-blend-mode:multiply" opacity="0.7">
<path d="M75.6171 14.7483C75.6171 14.7483 73.5044 18.5191 67.353 19.7935C61.2016 21.068 56.9813 21.4601 54.0512 24.0816C51.1211 26.7031 47.1736 29.3575 47.1736 29.3575C47.1736 29.3575 43.9388 36.9159 41.0443 38.3452C41.0443 38.3452 46.1372 34.5968 48.046 29.8059L55.4222 24.1689C55.4222 24.1689 64.4192 23.1159 70.8715 19.8414C70.8715 19.8414 75.7742 17.1247 75.6175 14.7498L75.6171 14.7483Z" fill="#EAB892"/>
</g>
<path d="M32.2877 39.7987C32.2802 39.4173 32.1534 39.0274 31.8788 38.7712C31.6043 38.5149 31.1712 38.4247 30.8413 38.6102C30.5114 38.7957 30.3615 39.2807 30.5762 39.5899" stroke="#A86436" stroke-width="0.226205" stroke-linecap="round" stroke-linejoin="round"/>
<path d="M45.6758 18.1203C45.9383 18.4592 45.7536 18.9988 45.4077 19.2554C45.0619 19.512 44.6134 19.5616 44.1898 19.6026" stroke="#A86436" stroke-width="0.226205" stroke-linecap="round" stroke-linejoin="round"/>
<path d="M33.2534 69.3501C32.9265 69.5702 32.5999 69.7917 32.2523 69.9757C31.2952 70.484 30.2196 70.6965 29.1619 70.904" stroke="#A86436" stroke-width="0.226205" stroke-linecap="round" stroke-linejoin="round"/>
<path d="M35.0131 27.5847C35.0131 27.5847 36.1009 29.3091 37.5567 29.6734C37.5567 29.6734 37.5592 33.7811 35.3036 34.212C35.3036 34.212 34.7107 34.1703 34.1123 33.8572C33.4971 33.5358 33.169 32.8336 33.2836 32.1341C33.483 30.9088 33.9759 28.6682 35.0131 27.5847Z" fill="#FEE2CC"/>
<path d="M63.8332 5.63822C63.8332 5.63822 61.4487 8.99416 60.0261 9.24819C60.0261 9.24819 59.0629 9.42014 59.0657 8.36651L63.2692 4.51476C63.2692 4.51476 64.0266 4.87576 63.8332 5.63822Z" fill="#FEE2CC"/>
<path d="M75.7382 14.0909C75.7382 14.0909 75.9377 14.8748 73.3419 15.6928C70.7461 16.5109 69.8834 16.4854 69.7168 16.2606C69.5501 16.0359 69.3232 15.493 69.5305 15.3937C69.7377 15.2943 75.2887 13.7586 75.2887 13.7586C75.2887 13.7586 75.6839 13.5897 75.7393 14.089L75.7382 14.0909Z" fill="#FEE2CC"/>
<path d="M49.4549 120.926C48.9387 119.681 48.1713 118.488 47.2698 117.396C48.5488 117.964 49.8863 118.377 51.2008 118.541C57.081 119.276 60.1089 116.358 60.5835 112.351C61.0581 108.344 58.8007 104.765 52.9204 104.029C51.6122 103.866 50.2223 103.952 48.8508 104.208C49.9696 103.353 50.9866 102.372 51.7832 101.285C55.3428 96.4239 54.3967 92.2717 51.2547 89.8458C48.1127 87.4199 43.9645 87.6383 40.405 92.4995C39.6129 93.5819 38.9904 94.8605 38.5204 96.2072C38.3601 94.7846 38.0396 93.3904 37.5219 92.1387C35.2012 86.5417 31.2271 85.3074 27.609 86.8898C23.9924 88.4707 22.1032 92.2685 24.4223 97.8655C24.9386 99.1109 25.7059 100.304 26.6074 101.396C25.3284 100.828 23.9909 100.415 22.6765 100.25C16.7962 99.516 13.7683 102.434 13.2937 106.441C12.8191 110.447 15.0766 114.027 20.9568 114.763C22.265 114.926 23.655 114.84 25.0264 114.584C23.9077 115.438 22.8906 116.419 22.094 117.507C18.5344 122.368 19.4806 126.52 22.6225 128.946C25.7645 131.372 29.9127 131.153 33.4723 126.292C34.2643 125.21 34.8869 123.931 35.3568 122.585C35.5171 124.007 35.8376 125.401 36.3554 126.653C38.676 132.25 42.6501 133.484 46.2682 131.902C49.8863 130.319 51.774 126.523 49.4549 120.926Z" fill="white"/>
<path d="M33.9438 110.901C34.6042 110.901 35.1396 110.351 35.1396 109.673C35.1396 108.995 34.6042 108.445 33.9438 108.445C33.2834 108.445 32.748 108.995 32.748 109.673C32.748 110.351 33.2834 110.901 33.9438 110.901Z" fill="#FFD066"/>
<path d="M37.9633 109.04C38.6237 109.04 39.1591 108.49 39.1591 107.812C39.1591 107.134 38.6237 106.584 37.9633 106.584C37.3029 106.584 36.7676 107.134 36.7676 107.812C36.7676 108.49 37.3029 109.04 37.9633 109.04Z" fill="#FFD066"/>
<path d="M37.9184 113.54C38.5788 113.54 39.1142 112.99 39.1142 112.312C39.1142 111.634 38.5788 111.084 37.9184 111.084C37.258 111.084 36.7227 111.634 36.7227 112.312C36.7227 112.99 37.258 113.54 37.9184 113.54Z" fill="#FFD066"/>
<path d="M45.9423 98.3296C44.4153 100.485 40.8495 104.8 40.4397 104.493C40.0298 104.186 42.9298 99.374 44.4569 97.2187C45.9839 95.0635 47.5542 93.5649 47.9656 93.8719C48.377 94.1789 47.471 96.1743 45.9439 98.3296H45.9423Z" fill="#FDEBEA"/>
<path opacity="0.2" d="M27.5014 121.148C29.0284 118.993 32.5941 114.677 33.004 114.984C33.4139 115.291 30.5139 120.103 28.9868 122.259C27.4597 124.414 25.8895 125.913 25.4781 125.606C25.0667 125.299 25.9727 123.303 27.4998 121.148H27.5014Z" fill="#F49C95"/>
<path d="M50.8738 112.673C48.302 112.313 42.9133 111.132 42.9811 110.615C43.0489 110.097 48.5501 110.442 51.1219 110.803C53.6937 111.164 55.7231 111.874 55.6538 112.39C55.5844 112.906 53.4441 113.033 50.8738 112.673Z" fill="#FDEBEA"/>
<path opacity="0.2" d="M22.5708 106.804C25.1426 107.165 30.5313 108.345 30.4635 108.862C30.3957 109.38 24.8945 109.035 22.3227 108.674C19.7509 108.313 17.7214 107.603 17.7908 107.087C17.8601 106.571 20.0005 106.445 22.5708 106.804Z" fill="#F49C95"/>
<path d="M41.3898 123.769C40.3959 121.307 38.6732 115.932 39.1416 115.732C39.6101 115.533 42.0941 120.584 43.088 123.048C44.0819 125.51 44.5072 127.669 44.0372 127.868C43.5687 128.067 42.3822 126.233 41.3898 123.771V123.769Z" fill="#FDEBEA"/>
<path opacity="0.2" d="M32.0536 95.7071C33.0475 98.1693 34.7703 103.545 34.3018 103.744C33.8334 103.944 31.3494 98.8925 30.3555 96.4286C29.3616 93.9664 28.9363 91.808 29.4063 91.6086C29.8762 91.4092 31.0612 93.2432 32.0536 95.7055V95.7071Z" fill="#F49C95"/>
<path d="M64.0583 142.265C64.0583 142.265 74.4643 136.934 81.5249 135.304C88.5854 133.676 91.769 130.565 98.1809 129.677C104.593 128.788 107.332 124.346 111.948 118.421C116.563 112.496 120.6 102.279 126.224 97.5394C126.224 97.5394 127.667 96.9475 126.224 85.8389C124.782 74.7319 129.397 60.2179 128.1 54.442C128.1 54.442 114.832 51.6285 108.775 63.772C108.775 63.772 110.36 78.5281 109.641 81.4429C108.92 84.3578 108.775 88.2917 108.775 88.2917C108.775 88.2917 102.665 91.5736 100.048 99.5079C100.048 99.5079 98.1732 103.742 98.5245 108.328C98.5245 108.328 93.951 112.672 93.1821 116.052C93.1821 116.052 89.094 117.057 84.2708 122.432L75.7371 125.881C75.7371 125.881 60.0735 123.518 55.2457 127.757C55.2457 127.757 53.902 128.618 53.902 129.462C53.902 129.462 53.1161 130.378 53.902 130.489C54.6879 130.599 59.5788 130.636 59.8654 130.489C59.8654 130.489 69.7567 130.745 70.971 131.552C70.971 131.552 60.8655 136.336 62.9134 141.184L63.2339 141.778C63.2339 141.778 62.8903 142.099 63.331 142.506C63.784 142.422 64.0583 142.265 64.0583 142.265Z" fill="#F9CCA7" stroke="#A86436" stroke-width="0.226205" stroke-linecap="round" stroke-linejoin="round"/>
<path d="M103.153 104.715C103.153 104.715 102.908 107.318 101.927 108.24C100.945 109.163 98.9837 111.706 98.7387 112.828C98.7387 112.828 96.7647 114.171 95.9265 114.79C94.6352 115.741 91.5564 120.892 92.6859 125.41C92.9555 126.489 93.669 127.413 94.6768 127.828C95.0651 127.988 95.4873 128.07 95.8864 127.959C97.1284 127.616 99.2318 124.327 99.6617 124.033C100.092 123.739 104.058 119.469 104.249 118.881C104.44 118.292 112.754 111.472 114.093 111.423" stroke="#A86436" stroke-width="0.226205" stroke-linecap="round" stroke-linejoin="round"/>
<g style="mix-blend-mode:multiply" opacity="0.7">
<path d="M110.849 60.4062C110.073 61.3763 109.352 62.4903 108.712 63.7721C108.712 63.7721 110.298 78.5282 109.578 81.443C108.857 84.3578 108.712 88.2917 108.712 88.2917C108.712 88.2917 102.602 91.5737 99.9857 99.508C99.9857 99.508 99.5142 100.571 99.0889 102.209L98.7422 105.591C99.9364 99.4146 104.658 93.9964 107.353 92.6133C110.439 91.0293 110.553 87.6255 110.553 87.6255C113.799 82.4257 111.685 65.9811 110.849 60.4062Z" fill="#EAB892"/>
</g>
<g style="mix-blend-mode:multiply" opacity="0.7">
<path d="M64.8985 140.467C66.1697 137.91 68.5582 135.965 71.2733 135.275C71.6601 135.177 72.0962 135.074 72.3088 134.726C72.5893 134.267 72.352 133.565 72.7357 133.191C73.0485 132.887 73.5493 133.014 73.9761 132.955C74.7358 132.851 75.2505 132.144 75.7667 131.563C77.0503 130.12 78.8563 129.178 80.7486 128.965C81.0768 128.928 81.4266 128.904 81.6932 128.705C81.9058 128.545 82.0352 128.297 82.177 128.069C82.8273 127.023 83.8597 126.3 84.8737 125.622C86.5872 124.48 88.33 123.383 90.1021 122.339L89.7107 122.135C89.7107 122.135 85.3221 123.515 80.1969 127.3C80.1969 127.3 71.3519 130.849 67.1837 133.796C63.0154 136.742 62.0138 139.426 62.9137 141.182C63.8137 142.939 64.9016 140.464 64.9016 140.464L64.8985 140.467Z" fill="#EAB892"/>
</g>
<g style="mix-blend-mode:multiply" opacity="0.7">
<path d="M53.9004 129.462C53.9004 129.462 56.8929 126.373 63.1383 126.837C69.3837 127.301 73.5458 128.089 77.0329 126.346C80.5201 124.604 84.995 123.112 84.995 123.112C84.995 123.112 90.0308 116.643 93.1804 116.053C93.1804 116.053 87.3249 118.293 84.2692 122.433L75.7355 125.881C75.7355 125.881 66.8073 124.413 59.7637 125.815C59.7637 125.815 54.3534 127.103 53.9004 129.461V129.462Z" fill="#EAB892"/>
</g>
<path d="M102.073 117.041C101.984 117.413 102.007 117.826 102.206 118.15C102.405 118.475 102.798 118.682 103.161 118.593C103.525 118.505 103.791 118.076 103.664 117.717" stroke="#A86436" stroke-width="0.226205" stroke-linecap="round" stroke-linejoin="round"/>
<path d="M83.5807 134.321C83.4143 133.919 83.7286 133.445 84.1262 133.292C84.5237 133.138 84.9675 133.214 85.3851 133.292" stroke="#A86436" stroke-width="0.226205" stroke-linecap="round" stroke-linejoin="round"/>
<path d="M108.75 88.2877C109.121 88.1627 109.493 88.0361 109.875 87.9523C110.927 87.7196 112.018 87.8098 113.091 87.9" stroke="#A86436" stroke-width="0.226205" stroke-linecap="round" stroke-linejoin="round"/>
<path d="M96.3111 128.103C96.3111 128.103 95.704 126.133 94.4004 125.378C94.4004 125.378 95.4359 121.4 97.7072 121.605C97.7072 121.605 98.2651 121.81 98.7597 122.278C99.2682 122.759 99.4054 123.53 99.1187 124.175C98.6179 125.307 97.5793 127.34 96.3111 128.103Z" fill="#FEE2CC"/>
<path d="M62.8666 141.424C62.8666 141.424 66.0086 138.826 67.4401 138.973C67.4401 138.973 68.4093 139.073 68.1397 140.095L63.1239 142.671C63.1239 142.671 62.4875 142.111 62.8666 141.424Z" fill="#FEE2CC"/>
<path d="M53.5512 130.042C53.5512 130.042 53.5589 129.22 56.2679 129.141C58.9769 129.062 59.8013 129.326 59.9045 129.592C60.0078 129.858 60.0879 130.451 59.8629 130.491C59.6379 130.531 53.8995 130.491 53.8995 130.491C53.8995 130.491 53.4757 130.546 53.5497 130.043L53.5512 130.042Z" fill="#FEE2CC"/>
<path d="M70.9668 131.566L80.1924 127.316C80.1924 127.316 86.293 122.806 89.7385 122.137" stroke="#A86436" stroke-width="0.226205" stroke-linecap="round" stroke-linejoin="round"/>
<path d="M129.309 50.4058C128.417 49.4104 127.305 48.5496 126.1 47.8312C127.491 47.9261 128.884 47.8565 130.177 47.559C135.957 46.2282 137.858 42.4367 136.999 38.498C136.139 34.5594 132.844 31.9626 127.064 33.2934C125.778 33.5894 124.497 34.148 123.287 34.8616C124.064 33.6716 124.7 32.3978 125.096 31.0986C126.864 25.2943 124.617 21.7069 120.867 20.5011C117.114 19.2953 113.277 20.9284 111.51 26.7343C111.117 28.0271 110.948 29.445 110.944 30.8771C110.33 29.5922 109.573 28.3879 108.676 27.3878C104.665 22.9127 100.517 23.1169 97.6246 25.8513C94.7323 28.5857 94.1914 32.814 98.2025 37.2891C99.0947 38.2844 100.207 39.1453 101.412 39.8637C100.021 39.7687 98.6278 39.8384 97.3349 40.1358C91.5549 41.4667 89.6533 45.2582 90.5132 49.1968C91.373 53.1355 94.6675 55.7322 100.448 54.4014C101.734 54.1055 103.015 53.5469 104.224 52.8332C103.448 54.0232 102.811 55.2971 102.415 56.5962C100.648 62.4006 102.895 65.9879 106.645 67.1937C110.397 68.3995 114.234 66.7665 116.002 60.9606C116.395 59.6677 116.564 58.2499 116.567 56.8194C117.182 58.1043 117.939 59.3085 118.836 60.3086C122.847 64.7837 126.995 64.5796 129.887 61.8451C132.78 59.1107 133.32 54.8825 129.309 50.4074V50.4058Z" fill="white"/>
<g opacity="0.34">
<path opacity="0.34" d="M118.632 30.3218C117.897 32.8774 115.944 38.1706 115.457 38.0219C114.97 37.8731 116.134 32.3425 116.869 29.7869C117.604 27.2313 118.596 25.2786 119.083 25.4258C119.57 25.5729 119.368 27.7662 118.633 30.3218H118.632Z" fill="#F49C95"/>
<path opacity="0.34" d="M108.701 58.1641C109.436 55.6085 111.389 50.3153 111.876 50.464C112.363 50.6112 111.199 56.1433 110.464 58.6989C109.729 61.2546 108.737 63.2073 108.25 63.0601C107.763 62.9129 107.965 60.7197 108.7 58.1641H108.701Z" fill="#F49C95"/>
<path opacity="0.34" d="M127.962 42.1397C125.421 42.6857 119.958 43.4262 119.853 42.9151C119.748 42.404 125.045 40.8374 127.586 40.2915C130.127 39.7455 132.27 39.7186 132.373 40.2282C132.476 40.7377 130.501 41.5938 127.962 42.1397Z" fill="#F49C95"/>
<path opacity="0.34" d="M99.3765 46.3475C101.918 45.8016 107.38 45.061 107.485 45.5721C107.588 46.0817 102.294 47.6499 99.7525 48.1958C97.2115 48.7417 95.068 48.7686 94.9648 48.2591C94.8616 47.7495 96.837 46.8935 99.3765 46.3475Z" fill="#F49C95"/>
<path opacity="0.34" d="M122.64 55.8607C120.9 53.8827 117.524 49.4108 117.9 49.0611C118.278 48.7114 122.266 52.6168 124.004 54.5964C125.743 56.5744 126.848 58.4623 126.471 58.8104C126.093 59.1585 124.378 57.8388 122.64 55.8607Z" fill="#F49C95"/>
<path opacity="0.34" d="M104.698 32.6288C106.437 34.6068 109.814 39.0788 109.438 39.4285C109.06 39.7782 105.072 35.8728 103.334 33.8932C101.594 31.9151 100.489 30.0273 100.867 29.6792C101.244 29.3294 102.96 30.6508 104.698 32.6288Z" fill="#F49C95"/>
</g>
<path d="M111.032 46.3661C111.692 46.3661 112.227 45.8163 112.227 45.1381C112.227 44.4599 111.692 43.9102 111.032 43.9102C110.371 43.9102 109.836 44.4599 109.836 45.1381C109.836 45.8163 110.371 46.3661 111.032 46.3661Z" fill="#FFD066"/>
<path d="M114.211 43.2294C114.872 43.2294 115.407 42.6796 115.407 42.0014C115.407 41.3232 114.872 40.7734 114.211 40.7734C113.551 40.7734 113.016 41.3232 113.016 42.0014C113.016 42.6796 113.551 43.2294 114.211 43.2294Z" fill="#FFD066"/>
<path d="M115.639 47.4852C116.3 47.4852 116.835 46.9354 116.835 46.2573C116.835 45.5791 116.3 45.0293 115.639 45.0293C114.979 45.0293 114.443 45.5791 114.443 46.2573C114.443 46.9354 114.979 47.4852 115.639 47.4852Z" fill="#FFD066"/>
<path d="M18.0653 89.0237C21.9716 92.3627 21.7097 96.1621 21.383 98.0578C21.1919 99.1671 20.3228 100.007 19.2334 100.137C17.3704 100.36 14.1329 99.9963 10.6488 96.1984C5.23857 90.3007 5.97514 78.3281 5.97514 78.3281C5.97514 78.3281 12.0865 83.9125 18.0669 89.0237H18.0653Z" fill="#00DC86"/>
<path d="M20.786 99.314C20.786 99.314 19.0154 99.4058 17.4221 98.4405C14.4512 96.6397 12.5851 93.5588 13.2045 91.8592C13.448 91.1915 15.14 97.5844 20.7844 99.314H20.786Z" fill="#0088C7"/>
<path d="M33.9557 136.149C38.1717 134.132 38.805 130.708 38.9468 128.951C39.03 127.924 38.4521 126.971 37.5168 126.595C35.9188 125.951 32.9726 125.495 29.0247 128.021C22.8964 131.942 20.8223 142.713 20.8223 142.713C20.8223 142.713 27.5007 139.238 33.9557 136.151V136.149Z" fill="#00DC86"/>
<path d="M38.7057 127.696C38.7057 127.696 37.1586 127.19 35.5313 127.663C32.4926 128.544 30.1396 130.823 30.3029 132.475C30.3661 133.124 33.317 127.873 38.7072 127.696H38.7057Z" fill="#009CD8"/>
<path d="M135.527 60.8289C132.16 57.4916 132.636 54.0594 133.054 52.3615C133.298 51.3686 134.147 50.6718 135.153 50.6382C136.872 50.5803 139.812 51.1606 142.765 54.8831C147.348 60.6623 145.928 71.4868 145.928 71.4868C145.928 71.4868 140.682 65.9384 135.526 60.8304L135.527 60.8289Z" fill="#00DC86"/>
<path d="M133.727 51.2736C133.727 51.2736 135.353 51.3275 136.746 52.3267C139.35 54.1906 140.864 57.1299 140.19 58.6224C139.927 59.2089 138.779 53.2802 133.726 51.2731L133.727 51.2736Z" fill="#009CD8"/>
<path d="M121.808 108.478C121.697 103.712 124.412 101.578 125.885 100.651C126.747 100.108 127.837 100.203 128.583 100.886C129.857 102.052 131.566 104.534 131.113 109.286C130.409 116.662 121.908 123.449 121.908 123.449C121.908 123.449 121.977 115.773 121.807 108.478L121.808 108.478Z" fill="#00DC86"/>
<path d="M127.046 100.296C127.046 100.296 128.179 101.48 128.49 103.182C129.071 106.361 128.123 109.548 126.603 110.15C126.006 110.388 129.292 105.302 127.046 100.294L127.046 100.296Z" fill="#009CD8"/>
<path d="M59.6805 106.581C55.7258 109.063 52.5832 107.706 51.0714 106.854C50.1873 106.356 49.7258 105.334 49.9301 104.327C50.2788 102.605 51.5191 99.8368 55.7418 97.8653C62.2973 94.8054 72.2275 99.0039 72.2275 99.0039C72.2275 99.0039 65.7352 102.781 59.6818 106.582L59.6805 106.581Z" fill="#00DC86"/>
<path d="M50.178 105.986C50.178 105.986 50.6117 104.382 51.89 103.254C54.2753 101.146 57.427 100.398 58.6879 101.454C59.1836 101.868 53.2752 101.478 50.1772 105.987L50.178 105.986Z" fill="#009CD8"/>
<path d="M101.371 60.7244C105.893 59.5998 107.142 56.3812 107.603 54.6934C107.873 53.7067 107.478 52.6599 106.625 52.1041C105.169 51.1538 102.35 50.1168 97.9999 51.7916C91.2469 54.3921 87.2352 64.5001 87.2352 64.5001C87.2352 64.5001 94.4485 62.4461 101.371 60.7259L101.371 60.7244Z" fill="#00DC86"/>
<path d="M107.59 53.3825C107.59 53.3825 106.16 52.5784 104.473 52.7136C101.322 52.9641 98.5908 54.7149 98.4499 56.359C98.3936 57.0045 102.256 52.475 107.591 53.3828L107.59 53.3825Z" fill="#009CD8"/>
<path d="M17.5786 28.2373C18.2043 32.9604 15.7372 35.381 14.3727 36.4655C13.575 37.0999 12.4808 37.1264 11.6657 36.5303C10.2726 35.5124 8.30462 33.2345 8.24085 28.463C8.14255 21.0556 15.8585 13.3713 15.8585 13.3713C15.8585 13.3713 16.6206 21.006 17.5799 28.2364L17.5786 28.2373Z" fill="#00DC86"/>
<path d="M13.2412 36.9512C13.2412 36.9512 11.9872 35.9004 11.4945 34.2433C10.5725 31.15 11.1698 27.8789 12.6153 27.1126C13.1825 26.8109 10.4679 32.2262 13.242 36.9525L13.2412 36.9512Z" fill="#009CD8"/>
<path d="M102.204 22.5226C106.159 25.0046 109.302 23.6476 110.813 22.7952C111.697 22.297 112.159 21.2757 111.955 20.2682C111.606 18.5467 110.366 15.7782 106.143 13.8067C99.5874 10.7468 89.6573 14.9453 89.6573 14.9453C89.6573 14.9453 96.1496 18.7224 102.203 22.5234L102.204 22.5226Z" fill="#00DC86"/>
<path d="M111.707 21.9268C111.707 21.9268 111.273 20.3235 109.995 19.1951C107.609 17.0867 104.458 16.3395 103.197 17.3956C102.701 17.8095 108.61 17.4191 111.708 21.9281L111.707 21.9268Z" fill="#009CD8"/>
<path d="M114.088 124.295L114.43 125.512C115.205 128.268 117.12 130.593 119.726 131.94C117.12 133.286 115.203 135.611 114.43 138.367L114.088 139.584L113.745 138.367C112.97 135.611 111.055 133.286 108.449 131.94C111.055 130.593 112.972 128.268 113.745 125.512L114.088 124.295Z" fill="url(#paint1_linear_401_6458)" stroke="#C69024" stroke-width="0.226205" stroke-linecap="round" stroke-linejoin="round"/>
<defs>
<linearGradient id="paint0_linear_401_6458" x1="52.7785" y1="-1.37582" x2="106.294" y2="189.845" gradientUnits="userSpaceOnUse">
<stop stop-color="#0088C3"/>
<stop offset="1" stop-color="#0F1F42"/>
</linearGradient>
<linearGradient id="paint1_linear_401_6458" x1="129.794" y1="154.624" x2="93.3833" y2="104.761" gradientUnits="userSpaceOnUse">
<stop offset="0.3" stop-color="white"/>
<stop offset="0.46" stop-color="#FFCE4E"/>
<stop offset="0.94" stop-color="#C69024"/>
</linearGradient>
</defs>
</svg>
