<svg width="162" height="142" viewBox="0 0 162 142" fill="none" xmlns="http://www.w3.org/2000/svg">
<path d="M83.7933 149.397C124.6 149.397 157.68 116.571 157.68 76.0784C157.68 35.5856 124.6 2.75977 83.7933 2.75977C42.9866 2.75977 9.90625 35.5856 9.90625 76.0784C9.90625 116.571 42.9866 149.397 83.7933 149.397Z" fill="url(#paint0_linear_401_6331)"/>
<path d="M106.789 85.6983C106.789 85.6983 107 88.1261 109.557 87.8588C112.115 87.5915 114.002 84.1424 114.423 83.3342C114.845 82.5261 118.689 79.1406 119.323 78.1399C119.956 77.1392 124.57 69.3677 122.173 66.5422C119.776 63.7167 113.442 68.9238 110.593 74.4013C107.743 79.8772 106.292 83.5315 106.79 85.6999L106.789 85.6983Z" fill="#F9CCA7"/>
<path d="M50.3011 76.6057C50.3011 76.6057 49.081 78.7423 46.7884 77.5873C44.4958 76.4323 44.1238 72.5982 44.0212 71.6945C43.9186 70.7909 41.5442 66.2663 41.3117 65.1082C41.0793 63.95 39.5642 55.0552 42.8204 53.2654C46.0766 51.4757 50.1199 58.5822 50.8125 64.7072C51.5051 70.8322 51.5484 74.7586 50.3011 76.6072V76.6057Z" fill="#F9CCA7"/>
<path d="M47.8181 73.9642C48.6774 73.7462 49.2947 72.8299 49.1696 71.9581C49.0029 70.7951 47.7812 70.0712 47.3435 68.9799C47.0934 68.3578 47.1239 67.6308 47.4253 67.031C47.7267 66.4312 48.2927 65.9699 48.9436 65.7933C48.3167 63.6726 47.6017 61.6156 46.7407 59.5776C46.2485 58.4131 45.6217 57.1658 44.4513 56.6694C44.121 56.5294 43.7507 56.4594 43.398 56.5294C42.8833 56.6328 42.4745 57.0178 42.1506 57.4267C41.2945 58.5085 40.8328 59.8894 40.8648 61.264" stroke="#AB8360" stroke-width="0.159091" stroke-linecap="round" stroke-linejoin="round"/>
<path d="M49.551 65.7466C49.551 65.7466 48.0936 62.1034 48.0792 60.9611C48.0215 56.4095 48.7959 41.5743 49.551 37.7704C50.3061 33.9666 56.6902 4.97226 80.4182 7.49704C80.4182 7.49704 89.7218 4.97863 98.5396 7.34113C107.357 9.70363 121.328 26.047 121.056 44.5923C120.783 63.1375 116.979 67.0575 116.979 67.0575C116.979 67.0575 111.013 72.22 110.59 74.3995C110.59 74.3995 106.4 84.855 103.555 92.2559C93.8886 92.3895 62.2647 112.036 53.6409 79.2773C52.6549 75.5307 49.8043 70.9679 49.551 65.7482V65.7466Z" fill="#AB8360"/>
<path d="M56.3922 90.4453C56.3922 90.4453 61.9907 107.326 58.4428 144.204C58.4428 144.204 68.0718 157.446 93.9161 150.908C119.76 144.371 112.666 133.81 112.666 133.81C112.666 133.81 102.194 129.117 100.672 107.493C100.672 107.493 100.376 99.6583 102.045 93.9374L56.3906 90.4453H56.3922Z" fill="#F9CCA7"/>
<path d="M100.789 101.894C100.954 99.4009 101.309 96.4641 102.045 93.9393L56.3906 90.4473C56.3906 90.4473 57.2371 93.0007 58.0628 98.2889C60.4404 104.616 65.8818 113.689 77.5839 113.92C91.1537 114.187 97.5154 108 100.788 101.895L100.789 101.894Z" fill="#EAB892"/>
<path d="M53.4169 47.8484C57.7938 34.55 63.1695 18.0252 80.454 19.5763C80.5582 18.3243 80.454 11.7347 80.9815 10.8613C83.9811 10.8613 82.7017 19.0052 83.4505 19.8913C85.1275 21.2102 87.7664 21.0479 90.0927 20.892C95.3064 20.5404 100.969 21.9945 104.854 25.4627C108.418 28.6461 112.41 35.0495 113.309 39.2352C116.283 57.6022 113.184 70.592 105.404 89.0545C100.044 101.771 80.8933 100.262 67.9038 97.0997C59.4307 95.0379 53.8546 89.6256 52.8301 82.5588C52.6682 81.442 52.4887 80.3252 52.2498 79.2227C49.4649 66.3506 47.4721 61.1022 53.4185 47.8484H53.4169Z" fill="#FEE2CC"/>
<path opacity="0.34" d="M90.9141 57.0159C90.9141 57.0159 93.4231 49.0868 100.554 51.3379C106.853 53.3265 106.138 58.9106 106.138 58.9106C106.138 58.9106 101.77 62.5888 93.4921 56.6165C92.7321 56.0693 92.2047 56.5561 90.9141 57.0159Z" fill="#F49C95"/>
<path opacity="0.1" d="M75.5867 43.5172C76.0564 43.627 83.6991 49.4752 81.9548 54.2384C78.7643 62.9486 76.8949 62.659 80.4012 65.152C79.3976 69.3934 77.0456 67.244 76.0853 67.0197C75.1234 66.7954 74.2303 66.5727 74.1582 65.3397C80.3595 47.5661 77.1162 48.2788 75.5867 43.5156V43.5172Z" fill="#F49C95"/>
<path d="M88.1967 67.4526C87.7622 66.2562 86.7185 65.5801 85.5032 65.1919C84.793 64.9644 84.0234 65.0519 83.3661 65.4019C82.9829 65.6071 82.5436 65.7233 82.0771 65.7233C81.221 65.7233 80.4578 65.3319 79.956 64.721C79.4766 64.1355 78.7664 63.7792 78.0081 63.7426C77.4774 63.7171 76.9082 63.7489 76.2717 63.8651C75.4862 64.0083 74.7663 64.4299 74.3142 65.0837C73.0124 66.9658 74.5948 69.4301 77.3523 68.8176C82.5645 67.9267 83.7348 71.7083 86.8387 70.531C87.9065 70.1253 88.5365 68.4564 88.1951 67.451L88.1967 67.4526Z" fill="#F9CCA7"/>
<path d="M68.1022 112.807L75.2318 114.019C75.2318 114.019 84.5146 116.132 87.2401 120.508C87.7179 121.273 87.1471 122.265 86.2397 122.255C85.1062 122.244 83.5382 122.156 81.9879 121.835C79.054 121.229 61.0977 118.257 61.0977 118.257L68.1022 112.807Z" fill="url(#paint1_linear_401_6331)"/>
<path d="M83.9903 83.3283C83.4757 83.3283 82.9594 83.2455 82.4608 83.166C81.8131 83.0626 81.1654 82.9608 80.5177 82.8574C79.2207 82.6521 77.9237 82.4469 76.6282 82.2353C76.1248 82.1526 75.7529 81.9983 75.3585 81.8344C75.1885 81.7644 75.0138 81.6912 74.8214 81.6196C74.4382 81.4796 74.0358 81.4128 73.6478 81.3476C73.2085 81.2744 72.7548 81.1996 72.33 81.0183C71.9147 80.8401 70.9432 80.3326 70.8999 79.4496C70.8598 78.616 71.6726 77.9955 72.3861 77.5469C73.4041 76.9074 74.4126 76.306 75.5332 75.9624C76.2274 75.7492 76.9617 75.6426 77.7136 75.6426C80.2019 75.6426 82.8729 76.8039 85.0437 78.8276C85.4814 79.2349 85.9655 79.7344 86.2509 80.3437C86.5475 80.9769 86.5683 81.6642 86.307 82.1828C86.0232 82.7476 85.3868 83.1596 84.606 83.2821C84.4104 83.3124 84.2084 83.3283 83.9887 83.3283H83.9903Z" fill="white"/>
<path d="M77.7151 75.566V75.7251C80.1825 75.7251 82.8342 76.8785 84.9906 78.8879C85.4219 79.2904 85.9012 79.782 86.1802 80.3785C86.4656 80.991 86.488 81.6513 86.2379 82.1476C85.9653 82.6901 85.3513 83.0847 84.5962 83.204C84.4054 83.2342 84.2082 83.2485 83.9902 83.2485C83.4819 83.2485 82.9689 83.1674 82.4735 83.0879C81.8258 82.9845 81.1781 82.8826 80.5304 82.7792C79.2542 82.5772 77.9363 82.3688 76.6393 82.1572C76.1455 82.0776 75.7944 81.9313 75.3872 81.761C75.2172 81.691 75.0409 81.6179 74.8469 81.5463C74.4573 81.4031 74.0517 81.3363 73.6589 81.271C73.2244 81.1995 72.7755 81.1247 72.3586 80.9465C71.9562 80.7747 71.0183 80.2847 70.9782 79.4479C70.9398 78.6556 71.7334 78.0526 72.4276 77.6167C73.4408 76.9804 74.4429 76.3806 75.5555 76.0401C76.2417 75.8301 76.968 75.7235 77.7135 75.7235V75.5645L77.7151 75.566ZM77.7135 75.5645C76.9728 75.5645 76.2321 75.6663 75.509 75.889C74.3739 76.2358 73.3462 76.8531 72.3426 77.4831C71.6003 77.9492 70.7762 78.5856 70.8179 79.4558C70.8548 80.229 71.5795 80.7874 72.2961 81.0929C73.109 81.4397 73.9859 81.3999 74.7908 81.6958C75.4417 81.9345 75.8858 82.197 76.6136 82.3147C78.5568 82.6313 80.5031 82.9351 82.4478 83.2454C82.9577 83.3265 83.4755 83.4076 83.9902 83.4076C84.2018 83.4076 84.4118 83.3933 84.6202 83.3615C85.3401 83.2485 86.0551 82.8667 86.3806 82.2192C86.6772 81.6306 86.6034 80.9083 86.3245 80.3117C86.0455 79.7151 85.5822 79.222 85.0996 78.7717C83.1004 76.9072 80.3989 75.566 77.7151 75.566L77.7135 75.5645Z" fill="black"/>
<path d="M78.3466 84.4267C83.1756 86.6985 86.4221 85.5324 88.6122 83.9701C89.0418 83.6646 89.1204 83.0442 88.7548 82.6656C87.0939 80.9394 80.5767 79.9753 79.1963 79.7812C77.1826 79.4965 66.558 76.819 69.1568 80.5783C69.9552 82.1596 73.6587 84.4028 78.3466 84.4283V84.4267Z" fill="#F49C95"/>
<path opacity="0.34" d="M76.1331 53.8352C76.1331 53.8352 76.1042 45.5243 68.6203 45.5784C62.0101 45.6261 61.0273 51.1688 61.0273 51.1688C61.0273 51.1688 64.1024 55.9654 73.7907 52.6945C74.6789 52.3938 75.0381 53.0143 76.1347 53.8336L76.1331 53.8352Z" fill="#F49C95"/>
<path d="M78.827 65.2114C78.6346 65.1112 78.4038 65.1192 78.1889 65.1478C77.429 65.2528 76.6883 65.6298 76.2442 66.2503C76.1769 66.3442 76.1143 66.4492 76.1063 66.5653C76.0935 66.7467 76.2266 66.9169 76.3933 66.9932C76.56 67.0696 76.7524 67.068 76.9336 67.0362C77.3777 66.9598 77.7769 66.7228 78.2066 66.586C78.6378 66.4476 79.1092 66.4444 79.4828 66.7212C79.6832 66.2201 79.292 65.4517 78.8286 65.2114H78.827Z" fill="#443122"/>
<path d="M84.1097 66.3507C84.3662 66.2266 84.6564 66.1295 84.9353 66.1868C85.1774 66.2377 85.381 66.3984 85.5606 66.567C86.0304 67.0077 86.4248 67.5772 86.4745 68.2168C86.4793 68.2884 86.4809 68.3663 86.444 68.4284C86.4071 68.4936 86.3382 68.5334 86.2724 68.5668C85.9133 68.7482 85.4548 68.8213 85.1229 68.5954C84.9722 68.492 84.8648 68.3393 84.7542 68.1929C84.549 67.9225 84.3021 67.6329 83.9686 67.5184C83.7185 67.4325 83.4187 67.5916 83.2103 67.5136C82.492 67.2463 83.8403 66.4795 84.1081 66.3507H84.1097Z" fill="#443122"/>
<path d="M90.9141 57.0153C90.9141 57.0153 92.4852 55.9765 93.4921 56.616C94.4989 57.2556 98.7699 60.0938 102.235 60.054C102.235 60.054 104.208 60.0142 105.055 59.494C105.055 59.494 106.546 61.1724 109.204 60.8129C109.204 60.8129 105.071 64.4067 98.2457 60.5726C98.2457 60.5726 93.3366 56.9438 93.1137 56.7481C93.1137 56.7481 91.9979 56.3806 90.9141 57.0138V57.0153Z" fill="#0B1E44"/>
<path d="M76.1333 53.8351C76.1333 53.8351 74.9437 52.381 73.7894 52.696C72.6366 53.011 67.7099 54.4666 64.4136 53.4103C64.4136 53.4103 62.5394 52.7914 61.8869 52.0469C61.8869 52.0469 59.9614 53.213 57.5293 52.0866C57.5293 52.0866 60.4039 56.7337 68.0674 55.0791C68.0674 55.0791 73.8391 53.0571 74.1116 52.9362C74.1116 52.9362 75.2868 52.9123 76.1333 53.8366V53.8351Z" fill="#0B1E44"/>
<path d="M91.2718 46.9882C91.3343 47.448 91.6919 47.8139 92.1504 47.8998C92.5079 47.9666 93.021 48.0112 93.736 47.9746C95.53 47.8807 100.67 46.9548 103.787 47.5705C106.62 48.1305 110.456 51.6289 111.401 53.0353C111.401 53.0353 109.794 46.5682 105.544 44.8341C102.621 43.6426 99.365 43.6457 97.6142 43.7651C96.399 43.8478 95.1773 43.8207 93.9701 43.6569C93.7104 43.6219 93.4667 43.5837 93.2598 43.5439C92.8526 43.4644 92.4342 43.6203 92.1809 43.9464C91.7015 44.5637 91.0874 45.6455 91.2718 46.9898V46.9882Z" fill="url(#paint2_linear_401_6331)"/>
<path d="M79.2061 44.5575C78.9913 44.9695 78.5328 45.1955 78.0694 45.1239C77.7087 45.0682 77.2117 44.9393 76.5496 44.6657C74.8902 43.98 70.3611 41.3995 67.2171 40.9445C64.3585 40.5309 59.5632 42.5514 58.1973 43.5616C58.1973 43.5616 61.8943 38.0014 66.4844 37.7818C69.6396 37.6307 72.7082 38.7173 74.3163 39.4109C75.4337 39.8929 76.5929 40.2732 77.7857 40.5198C78.0422 40.5723 78.2843 40.6184 78.4927 40.6486C78.9031 40.7091 79.2446 40.9955 79.3745 41.3868C79.6182 42.1266 79.8314 43.35 79.2029 44.5559L79.2061 44.5575Z" fill="url(#paint3_linear_401_6331)"/>
<path d="M9.57538 119.77C9.57538 119.77 12.2319 119.146 15.4497 114.453C18.6674 109.76 29.6592 102.321 41.1624 103.542L45.2828 103.894C45.2828 103.894 56.6225 99.8228 61.2863 100.516C65.9502 101.21 67.0772 103.717 67.0772 103.717C67.0772 103.717 78.8482 97.0546 83.7525 98.8587C88.6569 100.663 79.217 105.859 79.217 105.859C79.217 105.859 69.9198 111.492 68.1001 112.805C66.2804 114.117 61.9821 117.507 61.9821 117.507C61.9821 117.507 66.0239 117.183 69.5911 116.219C75.5343 114.613 82.6287 112.23 85.6267 113.923C85.6267 113.923 87.3582 115.1 86.0516 117.234C84.745 119.367 77.8013 120.075 75.2105 121.58C72.6196 123.085 70.6909 123.523 68.4865 123.742C66.282 123.962 53.6068 125.984 52.6144 127.843C51.622 129.703 58.5672 130.578 58.5672 130.578L64.5441 129.512C65.6471 129.315 66.7887 129.401 67.8324 129.805C68.6035 130.104 69.3779 130.586 69.7867 131.356C70.141 132.023 69.8172 132.833 69.1037 133.086C68.5602 133.278 67.8067 133.404 66.8881 133.202C64.9032 132.764 58.7869 137.467 56.8021 137.359C54.8172 137.251 52.228 136.648 45.3389 132.382C45.3389 132.382 43.9056 130.468 39.8269 131.124C35.7483 131.779 25.1124 132.491 25.1124 132.491C25.1124 132.491 17.4521 135.443 16.0188 137.96C16.0188 137.96 4.06824 134.223 9.57538 119.768V119.77Z" fill="url(#paint4_linear_401_6331)"/>
<path d="M50.5586 120.735L61.9833 117.51" stroke="#23626A" stroke-width="0.159091" stroke-linecap="round" stroke-linejoin="round"/>
<path opacity="0.1" d="M64.065 69.2992C66.3209 67.6716 66.5123 64.1175 64.4925 61.3609C62.4727 58.6043 59.0066 57.6891 56.7507 59.3167C54.4948 60.9442 54.3034 64.4983 56.3232 67.255C58.343 70.0116 61.8091 70.9268 64.065 69.2992Z" fill="#F49C95"/>
<path opacity="0.1" d="M102.967 73.5553C105.942 71.8512 107.223 68.5267 105.828 66.1298C104.433 63.7329 100.892 63.1713 97.917 64.8754C94.9425 66.5795 93.6618 69.904 95.0564 72.3009C96.4509 74.6978 99.9928 75.2594 102.967 73.5553Z" fill="#F49C95"/>
<path d="M51.0742 115.202L57.1457 110.846L67.0778 103.719" stroke="#23626A" stroke-width="0.159091" stroke-linecap="round" stroke-linejoin="round"/>
<path d="M60.3026 108.582C60.3026 108.582 54.7762 109.304 54.4412 109.47C54.1943 109.592 50.3032 110.26 48.2703 110.606C47.9977 110.652 48.0266 111.051 48.3024 111.056C49.6972 111.083 51.5666 110.707 51.5666 110.707L58.313 110.009L60.3026 108.582Z" fill="#23626A"/>
<path d="M37.5992 120.743C35.8293 120.634 34.1298 120.043 32.3951 119.676C29.8364 119.133 27.175 119.075 24.5938 119.506" stroke="#23626A" stroke-width="0.159091" stroke-linecap="round" stroke-linejoin="round"/>
<path d="M111.149 64.1718C113.2 53.8055 111.199 42.5927 106.003 33.3718C104.913 31.4357 103.625 29.5823 101.971 28.09C98.4629 24.9241 93.3373 23.6243 88.7296 24.7316C87.6955 24.9798 86.6743 25.3441 85.6097 25.3664C83.3892 25.4125 81.4397 23.9966 79.325 23.3236C74.8519 21.8998 69.8498 23.9839 66.5632 27.3137C63.2765 30.6434 61.3478 35.0311 59.4913 39.3123L55.3293 48.8752C55.3293 48.8752 51.0214 59.1382 52.1549 67.0562C53.2884 74.9741 55.3293 88.6989 63.9451 92.1862C72.5609 95.6734 93.8712 99.385 100.22 90.9484C100.22 90.9484 106.878 85.7652 111.149 64.1718V64.1718Z" stroke="#AB8360" stroke-width="0.159091" stroke-linecap="round" stroke-linejoin="round"/>
<path d="M91.8984 62.6602C91.8984 62.6602 97.7471 70.2313 107.118 64.862" stroke="#A37624" stroke-width="0.159091" stroke-linecap="round" stroke-linejoin="round"/>
<path d="M106.531 66.0543C106.492 66.0336 106.478 65.9843 106.498 65.9461L107.084 64.877L105.859 64.8038C105.814 64.8006 105.78 64.7641 105.783 64.7195C105.787 64.675 105.825 64.6416 105.868 64.6447L107.218 64.7259C107.246 64.7275 107.27 64.7434 107.284 64.7672C107.298 64.7911 107.297 64.8197 107.284 64.8436L106.64 66.0225C106.632 66.0368 106.62 66.0463 106.607 66.0543C106.585 66.067 106.555 66.0686 106.531 66.0543Z" fill="#A37624"/>
<path d="M92.7852 68.7363C92.7852 68.7363 100.341 74.8454 107.947 68.8572" stroke="#A37624" stroke-width="0.159091" stroke-linecap="round" stroke-linejoin="round"/>
<path d="M107.54 70.1203C107.499 70.106 107.478 70.0598 107.492 70.0185L107.914 68.8762L106.692 68.9812C106.647 68.9844 106.609 68.9525 106.606 68.9096C106.602 68.8666 106.635 68.8269 106.679 68.8237L108.026 68.7091C108.053 68.7075 108.081 68.7187 108.097 68.7394C108.113 68.7616 108.118 68.7903 108.108 68.8157L107.643 70.0757C107.638 70.09 107.629 70.1028 107.616 70.1123C107.595 70.1282 107.566 70.133 107.539 70.1235L107.54 70.1203Z" fill="#A37624"/>
<path d="M71.4365 60.7851C71.4365 60.7851 62.9634 65.2906 56.6562 56.5645" stroke="#A37624" stroke-width="0.159091" stroke-linecap="round" stroke-linejoin="round"/>
<path d="M57.9304 56.9785C57.9144 57.0199 57.8679 57.0406 57.8262 57.0247L56.6799 56.5919L56.768 57.8058C56.7712 57.8503 56.7376 57.8885 56.6943 57.8917C56.651 57.8949 56.6109 57.8615 56.6077 57.8185L56.5099 56.4806C56.5083 56.4535 56.5195 56.4265 56.542 56.4106C56.5644 56.3947 56.5933 56.3899 56.6189 56.3994L57.8823 56.8767C57.8967 56.8831 57.9095 56.8926 57.9176 56.9037C57.9336 56.9244 57.9384 56.9531 57.9288 56.9801L57.9304 56.9785Z" fill="#A37624"/>
<path d="M68.1054 65.9584C68.1054 65.9584 58.6832 68.4339 54.2422 59.8652" stroke="#A37624" stroke-width="0.159091" stroke-linecap="round" stroke-linejoin="round"/>
<path d="M55.442 60.4584C55.4212 60.4965 55.3715 60.5109 55.333 60.4886L54.2636 59.8936L54.1723 61.1075C54.1691 61.152 54.1306 61.1838 54.0857 61.1806C54.0408 61.1775 54.0087 61.1393 54.0119 61.0947L54.1129 59.7568C54.1145 59.7297 54.1306 59.7059 54.1546 59.6931C54.1787 59.6804 54.2075 59.6804 54.2316 59.6931L55.4116 60.3486C55.426 60.3565 55.4356 60.3677 55.4436 60.3804C55.4565 60.4043 55.4565 60.4329 55.4436 60.4568L55.442 60.4584Z" fill="#A37624"/>
<path opacity="0.56" d="M79.8432 73.4926C79.3991 73.2062 79.0769 72.713 79.0704 72.1864C79.0672 71.9541 79.1249 71.725 79.2035 71.5071C79.3702 71.0489 79.6492 70.621 80.0516 70.3425C80.454 70.0641 80.9911 69.9576 81.4496 70.131C81.9707 70.3266 82.3154 70.8564 82.3924 71.4037C82.6088 72.9485 81.3679 74.4789 79.8416 73.4926H79.8432Z" fill="#F9CCA7"/>
<path d="M83.0039 53.0374C83.0039 53.0374 84.2368 43.6176 83.937 38.6953" stroke="#A37624" stroke-width="0.159091" stroke-linecap="round" stroke-linejoin="round"/>
<path d="M84.7537 39.7452C84.7168 39.7706 84.6671 39.7611 84.6415 39.7261L83.9344 38.7318L83.3252 39.7881C83.3027 39.8263 83.2546 39.839 83.2162 39.8184C83.1777 39.7961 83.1649 39.7468 83.1857 39.7102L83.8575 38.5456C83.8703 38.5218 83.896 38.5075 83.9232 38.5059C83.9505 38.5059 83.9761 38.517 83.9921 38.5393L84.7729 39.6354C84.7825 39.6481 84.7873 39.6624 84.7873 39.6768C84.7873 39.7022 84.7761 39.7293 84.7537 39.7452Z" fill="#A37624"/>
<path d="M86.4766 53.7401C86.4766 53.7401 88.3892 42.5512 90.8037 39.0703" stroke="#A37624" stroke-width="0.159091" stroke-linecap="round" stroke-linejoin="round"/>
<path d="M90.8196 40.4008C90.7747 40.4008 90.7411 40.3627 90.7427 40.3181L90.786 39.1027L89.6573 39.5783C89.6172 39.5958 89.5691 39.5783 89.5515 39.537C89.5338 39.4972 89.5531 39.4495 89.5947 39.432L90.8389 38.907C90.8645 38.8958 90.8934 38.899 90.9158 38.9149C90.9383 38.9308 90.9511 38.9563 90.9511 38.9833L90.9046 40.3245C90.9046 40.3404 90.8982 40.3547 90.8902 40.3674C90.8757 40.3897 90.8501 40.4024 90.8212 40.4024L90.8196 40.4008Z" fill="#A37624"/>
<path d="M110.058 84.107C109.333 83.5995 109.086 82.5256 109.517 81.7556C110.091 80.7295 111.493 80.4845 112.294 79.6206C112.751 79.1274 112.984 78.4386 112.918 77.772C112.852 77.1054 112.488 76.4738 111.945 76.0777C113.293 74.3181 114.701 72.6492 116.238 71.0504C117.117 70.1372 118.151 69.1938 119.424 69.1445C119.783 69.1302 120.153 69.1954 120.458 69.3863C120.9 69.6647 121.146 70.169 121.3 70.6654C121.71 71.9795 121.646 73.4336 121.122 74.7063" stroke="#A37624" stroke-width="0.159091" stroke-linecap="round" stroke-linejoin="round"/>
<path d="M12.0204 30.2898C12.0204 30.2898 24.1425 21.4619 28.9234 17.2682C33.7043 13.0746 38.599 12.303 38.599 12.303C38.599 12.303 41.4896 10.2062 43.1586 8.10935C44.826 6.01254 53.3584 4.02549 56.5441 0.826172C56.5441 0.826172 58.8078 1.04731 56.5441 5.35072C56.5441 5.35072 54.4983 7.99958 49.5507 10.0964L46.3827 13.2973C46.3827 13.2973 51.3864 11.7525 52.8326 11.9737C54.2787 12.1948 63.9895 14.2916 63.9895 14.2916C63.9895 14.2916 71.2442 14.9534 71.4366 18.1544C71.629 21.3553 62.2869 20.6919 59.284 19.5894C56.2811 18.4869 49.5507 20.3625 49.5507 20.3625L58.8383 22.3496C58.8383 22.3496 66.1347 25.3309 68.1018 25.8257C70.069 26.3205 74.3208 26.8725 73.811 30.2946C73.3909 33.1169 68.1018 32.2944 68.1018 32.2944C68.1018 32.2944 69.7195 33.8359 68.1018 35.8134C66.4842 37.7894 53.6101 36.5866 53.6101 36.5866C53.6101 36.5866 43.0448 35.9248 40.5982 35.263C40.5982 35.263 41.5986 39.2355 40.0419 41.9941C38.4851 44.7528 46.3811 47.4016 46.3811 47.4016C46.3811 47.4016 53.5059 49.885 51.8017 53.7462C51.8017 53.7462 50.0509 55.4564 45.1578 54.4637C41.5554 53.7319 38.9773 52.7789 36.5356 52.3207C33.2425 51.7019 30.3246 49.7594 28.5851 46.9148C28.4697 46.7255 28.3591 46.5314 28.2533 46.3341C26.363 42.7673 22.9145 44.0909 22.9145 44.0909C22.9145 44.0909 12.4613 44.5316 12.0156 30.2962L12.0204 30.2898Z" fill="url(#paint5_linear_401_6331)"/>
<path d="M115.423 92.1582C115.423 92.1582 114.676 98.3262 114.094 99.2982C113.512 100.27 115.436 105.278 115.436 105.278" stroke="#23626A" stroke-width="0.159091" stroke-linecap="round" stroke-linejoin="round"/>
<path d="M17.6959 75.321C24.4499 71.5523 28.7957 66.5043 27.4026 64.0459C26.0094 61.5875 19.4049 62.6497 12.651 66.4184C5.89703 70.1871 1.55122 75.2351 2.94435 77.6935C4.33747 80.1519 10.942 79.0897 17.6959 75.321Z" fill="url(#paint6_linear_401_6331)"/>
<path d="M16.9382 62.5075C20.6946 61.4257 20.7924 63.3698 21.2637 65.0657C21.493 65.8914 22.2994 66.4163 23.1571 66.3225C35.4556 64.9654 23.8562 81.0877 17.2139 82.7518C-1.50872 88.5475 5.14312 65.9057 16.9382 62.5091V62.5075Z" fill="url(#paint7_linear_401_6331)"/>
<path d="M17.6167 75.183C10.8638 78.9518 4.25845 80.013 2.86523 77.555L10.0173 90.1773C12.3484 94.2914 19.7137 94.5714 26.4666 90.8025C33.2194 87.0337 36.8059 80.6446 34.4747 76.5305L27.3227 63.9082C28.7159 66.3662 24.3711 71.4141 17.6167 75.183Z" fill="url(#paint8_linear_401_6331)"/>
<g style="mix-blend-mode:darken" opacity="0.22">
<path d="M23.832 70.7777L32.4126 85.9184C33.8459 84.1636 34.7726 82.307 35.074 80.5522L27.2566 66.7559C27.1283 66.9054 26.9936 67.0565 26.8541 67.2077C26.2177 68.3213 25.1804 69.5431 23.832 70.7761V70.7777Z" fill="#0088C7"/>
</g>
<g style="mix-blend-mode:screen" opacity="0.73">
<path d="M8.78676 78.6041L16.6859 93.4473C17.4843 93.4712 18.3228 93.425 19.1854 93.3073L11.081 78.0234C10.281 78.2684 9.51142 78.4641 8.78516 78.6057L8.78676 78.6041Z" fill="#BEF5FF"/>
<path d="M8.78676 78.6041L16.6859 93.4473C17.4843 93.4712 18.3228 93.425 19.1854 93.3073L11.081 78.0234C10.281 78.2684 9.51142 78.4641 8.78516 78.6057L8.78676 78.6041Z" stroke="black" stroke-width="0.159091" stroke-miterlimit="10"/>
</g>
<path d="M16.4669 64.3556C16.8933 64.1583 17.4721 64.0262 17.7735 64.3858C16.8372 65.4549 15.8849 66.5446 15.3174 67.8444C14.8701 68.8674 14.5061 69.736 13.2043 69.7996C11.1682 69.8983 12.6159 67.8524 13.177 67.0792C14.0203 65.9178 15.1586 64.9633 16.4685 64.3571L16.4669 64.3556Z" fill="white"/>
<path d="M25.1612 78.0894C24.475 77.4085 23.2902 77.4785 22.5142 78.2469C22.4741 78.2866 22.4357 78.3312 22.3972 78.3789C22.3972 78.3185 22.394 78.2596 22.3876 78.2023C22.2657 77.1205 21.3839 76.3314 20.4188 76.4396C19.4536 76.5478 18.7707 77.5103 18.8925 78.5921C18.8989 78.6478 18.9101 78.7067 18.923 78.7655C18.8749 78.7273 18.8268 78.6939 18.7787 78.6637C17.8504 78.0846 16.6784 78.2755 16.1622 79.0917C15.6459 79.9078 15.9778 81.0373 16.9061 81.6164C16.9542 81.6467 17.0071 81.6737 17.0616 81.7007C17.0023 81.7151 16.9446 81.731 16.8901 81.7485C15.8544 82.108 15.2756 83.1357 15.5962 84.0457C15.9169 84.9557 17.0151 85.4012 18.0508 85.0432C18.1053 85.0242 18.1598 85.0003 18.2143 84.9748C18.1887 85.0289 18.1646 85.0846 18.1454 85.1371C17.7831 86.1632 18.232 87.2546 19.1474 87.5728C20.0645 87.891 21.1002 87.3167 21.4625 86.2905C21.4817 86.2364 21.4962 86.1807 21.5106 86.1219C21.5378 86.176 21.5651 86.2285 21.5956 86.2762C22.1791 87.1973 23.3174 87.5298 24.1399 87.0176C24.9624 86.5053 25.1564 85.3423 24.5728 84.4212C24.5423 84.3735 24.5071 84.3257 24.4686 84.278C24.5279 84.2907 24.5872 84.3019 24.6433 84.3082C25.7335 84.4307 26.7051 83.753 26.8141 82.7969C26.9231 81.8392 26.1279 80.9642 25.0393 80.8417C24.9832 80.8353 24.9239 80.8337 24.8614 80.8337C24.9095 80.7955 24.9544 80.7573 24.9944 80.716C25.7704 79.9476 25.8426 78.7719 25.1564 78.0894H25.1612Z" fill="white"/>
<path d="M46.3859 13.2949L38.5957 16.1586" stroke="#23626A" stroke-width="0.159091" stroke-linecap="round" stroke-linejoin="round"/>
<path d="M45.7598 26.7832C45.7598 26.7832 51.2701 28.6589 53.0032 28.8927C54.7363 29.1266 59.1677 29.8012 60.6523 30.323C62.1369 30.8448 68.1058 32.2893 68.1058 32.2893" stroke="#23626A" stroke-width="0.159091" stroke-linecap="round" stroke-linejoin="round"/>
<path d="M49.5505 20.3574L46.7031 19.4395" stroke="#23626A" stroke-width="0.159091" stroke-linecap="round" stroke-linejoin="round"/>
<path d="M32.375 38.9146C32.375 38.9146 36.0737 35.0566 40.6012 35.2555" stroke="#23626A" stroke-width="0.159091" stroke-linecap="round" stroke-linejoin="round"/>
<path d="M56.1482 26.0806C56.0056 25.3154 56.6757 24.6186 57.3972 24.3179C57.4741 24.2861 57.5607 24.2574 57.6361 24.2893" stroke="#23626A" stroke-width="0.159091" stroke-linecap="round" stroke-linejoin="round"/>
<path d="M52.5533 13.3555C52.4138 13.7325 52.5437 14.1652 52.7874 14.4866C52.9573 14.7109 53.1994 14.9034 53.4816 14.9209C53.7638 14.9384 54.0652 14.7189 54.054 14.4389" stroke="#23626A" stroke-width="0.159091" stroke-linecap="round" stroke-linejoin="round"/>
<path d="M45.5102 7.4082C45.5423 7.86957 45.5711 8.35002 45.4012 8.78116C45.2312 9.21229 44.8032 9.58138 44.3398 9.5257" stroke="#23626A" stroke-width="0.159091" stroke-linecap="round" stroke-linejoin="round"/>
<path d="M40.6328 21.0248C41.3751 21.3159 42.2457 21.2634 42.9447 20.8848" stroke="#23626A" stroke-width="0.159091" stroke-linecap="round" stroke-linejoin="round"/>
<path d="M39.3867 29.2598L41.6681 29.5827" stroke="#23626A" stroke-width="0.159091" stroke-linecap="round" stroke-linejoin="round"/>
<path d="M103.445 0.000244141L103.521 1.49252C103.692 4.87161 105.368 8.09002 108.151 10.3857C104.619 11.1716 101.651 13.278 99.9454 16.21L99.1918 17.505L99.1165 16.0127C98.9449 12.6337 97.2696 9.41525 94.4863 7.11956C98.0183 6.33365 100.986 4.22729 102.692 1.29524L103.445 0.000244141Z" fill="url(#paint9_linear_401_6331)"/>
<path d="M90.3892 83.332C88.8565 80.2615 87.0897 76.3765 84.2295 74.4372C82.9293 73.6513 81.7942 74.5374 80.5485 74.4372C80.0082 74.3943 79.3477 73.9949 78.8715 73.5638C75.9456 71.0438 70.0889 76.8983 67.5879 78.6738C70.9082 79.5615 74.9404 77.5793 77.8134 77.2674C79.2787 77.8513 80.3465 78.222 81.5617 78.1249C82.3137 78.4972 83.3381 79.3245 83.9794 79.9243C86.0123 81.5836 87.8144 82.8993 90.3892 83.3336V83.332Z" fill="#E27E79"/>
<path opacity="0.51" d="M79.8084 62.0215C79.717 61.4902 79.9462 60.7249 80.5811 60.4927C81.03 60.3288 81.5896 60.5627 81.6697 60.9317C81.8557 61.7892 81.2128 63.1097 80.0456 62.4017" fill="white"/>
<path opacity="0.51" d="M81.3302 90.3829C81.6752 88.8821 79.8526 87.1895 77.2594 86.6025C74.6661 86.0155 72.2842 86.7563 71.9391 88.2571C71.5941 89.758 73.4167 91.4505 76.01 92.0375C78.6032 92.6245 80.9852 91.8837 81.3302 90.3829Z" fill="white"/>
<path d="M144.149 77.3096C144.017 77.7233 143.743 78.0764 143.456 78.4042C142.839 79.1073 142.137 79.7389 141.372 80.2814C141.297 80.3339 141.218 80.3896 141.175 80.4692C141.119 80.571 141.125 80.6935 141.124 80.8096C141.109 81.5287 140.667 82.1651 140.187 82.7044C138.523 84.5801 136.272 85.8242 134.066 87.0317C133.777 87.1892 133.446 87.3514 133.133 87.2464C132.824 87.1414 132.658 86.8105 132.559 86.5003C132.129 85.1496 132.365 83.6526 132.974 82.3719C133.583 81.0912 134.541 80.0046 135.573 79.0278C137.03 77.6501 138.775 76.3185 140.716 75.6996C141.904 75.321 144.74 75.4355 144.147 77.3112L144.149 77.3096Z" fill="#057C49"/>
<path d="M133.14 90.0047C133.14 90.0047 138.571 88.0749 139.084 85.6965C139.597 83.3181 137.207 84.4667 137.207 84.4667L133.135 87.2429L133.141 90.0031L133.14 90.0047Z" fill="#057C49"/>
<path d="M113.985 58.3939C113.844 58.5657 113.956 58.887 113.964 58.8934L114.746 59.5234L115.256 58.8998L114.474 58.2698C114.474 58.2698 114.126 58.222 113.985 58.3939Z" fill="white"/>
<path d="M121.318 62.2218L119.272 64.7243L116.324 62.3522C115.628 61.7922 114.288 59.7845 114.852 59.0941C115.416 58.4036 117.672 59.2897 118.37 59.8497L121.318 62.2218Z" fill="url(#paint10_linear_401_6331)"/>
<path d="M120.632 63.7483C121.197 63.057 121.505 62.3759 121.32 62.227C121.135 62.0782 120.527 62.5179 119.962 63.2092C119.397 63.9005 119.089 64.5816 119.274 64.7305C119.459 64.8794 120.067 64.4396 120.632 63.7483Z" fill="#39C7DF"/>
<path d="M120.198 63.3951C119.791 63.893 119.565 64.3814 119.691 64.4832L120.722 65.3121L122.197 63.5064L121.166 62.6776C121.038 62.5741 120.605 62.8955 120.198 63.3935V63.3951Z" fill="url(#paint11_linear_401_6331)"/>
<path d="M120.986 64.0288C120.345 64.8131 119.996 65.5863 120.206 65.755L141.29 82.7204L143.613 79.879L122.529 62.9136C122.319 62.745 121.629 63.2445 120.988 64.0288H120.986Z" fill="#23626A"/>
<path d="M145.872 77.0585C145.254 76.8358 143.383 78.3551 141.562 80.584C139.653 82.921 138.521 85.153 139.037 85.5683C139.061 85.5874 139.09 85.6017 139.119 85.6128L139.329 85.783L139.478 85.6001C140.299 85.3615 141.881 83.9805 143.428 82.089C144.974 80.1974 146.009 78.3742 146.074 77.5294L146.234 77.3321L145.881 77.0474L145.87 77.0617L145.872 77.0585Z" fill="white"/>
<path d="M143.678 82.2904C145.588 79.9531 146.719 77.7218 146.203 77.3067C145.687 76.8917 143.72 78.45 141.81 80.7874C139.9 83.1247 138.77 85.356 139.285 85.7711C139.801 86.1861 141.768 84.6278 143.678 82.2904Z" fill="url(#paint12_linear_401_6331)"/>
<path d="M113.986 58.3941L106.402 52.293" stroke="white" stroke-width="0.159091" stroke-miterlimit="10"/>
<path d="M142.355 81.2222C141.714 82.0065 141.365 82.7797 141.575 82.9483L148.918 88.857L151.241 86.0156L143.898 80.107C143.688 79.9383 142.998 80.4379 142.357 81.2222H142.355Z" fill="url(#paint13_linear_401_6331)"/>
<path d="M129.312 73.0765C129.303 73.0717 129.293 73.0669 129.285 73.0605L129.309 73.0796L129.312 73.0749V73.0765Z" fill="white"/>
<path d="M131.634 70.2403L131.609 70.2207C131.618 70.2272 131.624 70.2371 131.631 70.2452L131.634 70.2403Z" fill="white"/>
<path d="M122.756 65.4524C122.115 66.2367 121.765 67.0099 121.975 67.1785L136.658 78.9926C136.414 78.797 136.736 78.0015 137.377 77.2172C138.019 76.4329 138.735 75.9556 138.979 76.1513L124.297 64.3372C124.087 64.1685 123.397 64.6681 122.756 65.4524Z" fill="#D7F4FB"/>
<path d="M120.986 64.0288C120.345 64.8131 119.996 65.5863 120.206 65.755L134.888 77.569C134.644 77.3734 134.967 76.5779 135.608 75.7936C136.249 75.0093 136.966 74.532 137.21 74.7277L122.527 62.9136C122.317 62.745 121.628 63.2445 120.986 64.0288Z" fill="url(#paint14_linear_401_6331)"/>
<path d="M153.494 83.6479C152.857 83.4092 150.97 84.9158 149.149 87.1447C147.239 89.4817 146.125 91.7281 146.662 92.1592C146.688 92.1799 146.717 92.1942 146.747 92.2054L146.967 92.382L147.116 92.199C147.953 91.9731 149.547 90.6017 151.092 88.7085C152.638 86.8169 153.662 84.9858 153.712 84.1267L153.872 83.9295L153.505 83.6335L153.494 83.6479Z" fill="white"/>
<path d="M151.35 88.9209C153.261 86.5835 154.374 84.3388 153.838 83.9071C153.301 83.4754 151.318 85.0203 149.408 87.3577C147.498 89.695 146.384 91.9398 146.921 92.3714C147.457 92.8031 149.44 91.2582 151.35 88.9209Z" fill="url(#paint15_linear_401_6331)"/>
<path d="M129.715 73.3556L130.736 72.1035" stroke="#264F85" stroke-width="0.159091" stroke-miterlimit="10"/>
<path d="M127.145 71.2837L128.167 70.0332" stroke="#264F85" stroke-width="0.159091" stroke-miterlimit="10"/>
<path d="M124.57 69.2149L125.593 67.9629" stroke="#264F85" stroke-width="0.159091" stroke-miterlimit="10"/>
<path d="M121.996 67.1446L123.019 65.8926" stroke="#264F85" stroke-width="0.159091" stroke-miterlimit="10"/>
<path d="M126.573 143.187C124.714 143.117 123.129 141.827 122.696 140.034C121.635 135.639 120.416 127.705 118.404 122.69C117.099 119.44 115.648 116.25 114.143 113.087C112.717 110.095 112.65 106.671 112.171 103.389L111.553 99.1654C111.468 98.5831 111.383 97.9865 111.509 97.4122C111.677 96.6358 112.203 95.9915 112.713 95.3806C113.614 94.3035 114.516 93.2297 115.425 92.159C115.287 89.0408 117.219 85.832 120.184 84.7883C122.043 84.1329 124.169 84.2108 125.853 83.1879C125.853 83.1879 126.181 80.5899 128.718 78.1383C131.254 75.6851 135.328 68.9269 137.787 69.1417C140.247 69.3565 139.325 74.6415 136.481 78.1383C136.481 78.1383 135.251 82.0917 133.944 84.6849C133.944 84.6849 132.638 94.2144 131.87 96.0854C131.102 97.9563 132.091 103.863 136.865 103.905C137.459 103.909 138.145 103.669 138.772 103.367C139.868 102.837 140.843 102.089 141.667 101.195C142.985 99.7651 145.246 96.981 145.858 94.1429C145.858 94.1429 149.438 86.7897 155.048 87.3226C155.048 87.3226 158.66 86.7881 155.048 93.5765L150.918 101.232C150.918 101.232 149.662 104.121 146.357 109.46C143.235 114.502 142.629 120.235 144.76 127.934C146.135 132.905 145.406 134.904 145.141 135.553C144.086 138.136 138.796 143.652 126.574 143.186L126.573 143.187Z" fill="url(#paint16_linear_401_6331)"/>
<path d="M123.615 90.8354L125.85 83.1895C125.85 83.1895 123.28 83.8847 117.781 94.0474" stroke="#23626A" stroke-width="0.159091" stroke-linecap="round" stroke-linejoin="round"/>
<path d="M136.927 22.9103C136.494 22.5635 136.545 21.9128 137.004 21.5994C137.377 21.3448 137.631 21.0044 137.703 20.6019L138.989 8.34712C139.12 7.20007 139.173 4.49712 137.502 4.19962C135.755 3.88939 134.934 6.45871 134.657 7.5803L131.595 19.5153C131.522 19.9162 131.639 20.3235 131.901 20.691C132.221 21.1412 132.04 21.7696 131.514 21.9462C130.185 22.3917 129.222 23.2078 129.127 23.736L123.8 53.241C123.644 54.1049 125.624 55.1787 128.225 55.6417C130.823 56.103 133.057 55.7785 133.214 54.9146L138.541 25.4096C138.638 24.8814 138.019 23.7853 136.929 22.9087L136.927 22.9103Z" fill="url(#paint17_linear_401_6331)"/>
<path d="M131.647 20.0817C131.698 20.2933 131.794 20.4985 131.934 20.6958C132.254 21.146 132.073 21.7744 131.547 21.951C130.358 22.3503 129.463 23.0455 129.219 23.5658L129.213 23.4417C129.205 23.4862 129.207 23.5308 129.213 23.5769C129.187 23.6342 129.168 23.6883 129.159 23.7408L127.227 34.4444C127.227 34.4158 127.23 34.3871 127.235 34.3585L123.847 53.1185H123.852C123.85 53.128 123.847 53.1344 123.845 53.1439C123.842 53.1599 123.842 53.1758 123.841 53.1917L123.831 53.2458C123.76 53.6324 124.121 54.0603 124.77 54.458V54.4692L124.828 54.493C125.631 54.9687 126.853 55.3967 128.254 55.6449C130.853 56.1062 133.087 55.7817 133.244 54.9178L138.374 26.5026C136.255 24.2387 134.008 22.0942 131.645 20.0801L131.647 20.0817Z" fill="url(#paint18_linear_401_6331)"/>
<path d="M136.617 36.0291C136.461 36.893 134.228 37.2175 131.627 36.7562C129.029 36.2948 127.047 35.2193 127.203 34.3555L123.815 53.1155H123.82C123.818 53.125 123.815 53.1314 123.813 53.1409C123.658 54.0048 125.638 55.0787 128.238 55.5416C130.837 56.003 133.07 55.6784 133.227 54.8146C133.231 54.8002 133.231 54.7843 133.232 54.7684L136.615 36.0291H136.617Z" fill="url(#paint19_linear_401_6331)"/>
<path d="M133.212 54.9169C133.056 55.7808 130.823 56.1053 128.223 55.644C125.622 55.1826 123.642 54.1071 123.798 53.2433C123.953 52.3794 126.405 50.8521 129.003 51.3135C131.602 51.7749 133.366 54.053 133.21 54.9169H133.212Z" fill="url(#paint20_linear_401_6331)"/>
<path d="M136.606 36.1597C136.762 35.2966 134.781 34.2222 132.182 33.76C129.583 33.2978 127.35 33.6229 127.194 34.486C127.038 35.3491 129.019 36.4235 131.618 36.8857C134.217 37.3479 136.45 37.0228 136.606 36.1597Z" fill="url(#paint21_linear_401_6331)"/>
<g style="mix-blend-mode:screen" opacity="0.73">
<path d="M133.636 25.6594C132.862 25.5209 132.144 25.3364 131.517 25.1248C131.526 25.0039 131.536 24.8798 131.546 24.8321C131.719 23.9619 132.241 23.2141 132.96 22.6844C133.862 22.0194 133.753 20.9869 133.587 20.3839C133.486 20.0212 133.471 19.6425 133.555 19.2766C134.133 16.7184 136.293 7.16344 136.429 6.32344C136.567 5.47549 137.502 4.20117 137.502 4.20117C136.322 4.39844 135.918 5.72049 135.918 5.72049C135.918 5.72049 132.617 18.8216 132.557 19.3737C132.498 19.9257 132.759 20.0275 132.711 21.0521C132.705 21.1857 132.684 21.3114 132.655 21.4275C132.522 21.9494 132.137 22.3662 131.653 22.608C130.488 23.1934 130.175 24.035 130.093 24.5075C129.585 24.2164 129.259 23.9125 129.189 23.6294C129.147 23.7025 129.118 23.7805 129.104 23.8616C129.024 24.3087 129.373 24.7923 130.016 25.2314L124.738 54.4675L125.946 54.9416L131.198 25.8534C131.858 26.1255 132.637 26.3546 133.486 26.5041C136.084 26.9655 138.339 26.5328 138.518 25.5353C138.533 25.4541 138.557 25.3316 138.544 25.2489C138.116 25.8725 136.027 26.0857 133.638 25.6609L133.636 25.6594Z" fill="#BEF5FF"/>
</g>
<g style="mix-blend-mode:screen" opacity="0.53">
<path d="M133.948 40.0864C134.351 40.0864 134.678 39.7623 134.678 39.3625C134.678 38.9628 134.351 38.6387 133.948 38.6387C133.545 38.6387 133.219 38.9628 133.219 39.3625C133.219 39.7623 133.545 40.0864 133.948 40.0864Z" fill="#BEF5FF"/>
</g>
<g style="mix-blend-mode:screen" opacity="0.53">
<path d="M127.609 46.6256C128.105 46.6256 128.507 46.2267 128.507 45.7347C128.507 45.2426 128.105 44.8438 127.609 44.8438C127.113 44.8438 126.711 45.2426 126.711 45.7347C126.711 46.2267 127.113 46.6256 127.609 46.6256Z" fill="#BEF5FF"/>
</g>
<path d="M158.336 49.0474C158.659 48.3267 158.66 47.509 158.343 46.8042L156.664 43.0799C156.514 42.7474 156.517 42.3592 156.672 42.0203L158.625 37.7551L144.403 31.3438L142.45 35.609C142.294 35.9478 142.003 36.2056 141.652 36.3122L137.72 37.5069C136.976 37.7328 136.358 38.2722 136.023 38.9865C134.905 41.3697 132.451 46.6992 132.451 46.6992C131.025 49.811 134.881 54.5933 141.062 57.3806C147.242 60.1663 153.408 59.9022 154.833 56.7903C154.833 56.7903 157.264 51.4513 158.338 49.0474H158.336Z" fill="url(#paint22_linear_401_6331)"/>
<path d="M136.021 38.9876C134.903 41.3708 132.449 46.7003 132.449 46.7003C131.023 49.8122 134.879 54.5944 141.06 57.3817C147.24 60.1674 153.406 59.9033 154.831 56.7915C154.831 56.7915 157.262 51.4524 158.336 49.0485L158.45 48.4694C157.743 50.0142 152.231 49.039 146.137 46.2915C140.045 43.544 135.677 40.0663 136.385 38.5215L136.021 38.9876Z" fill="url(#paint23_linear_401_6331)"/>
<path d="M160.828 36.6316L143.805 28.957L142.222 32.4141L142.229 32.4173C142.218 32.4363 142.205 32.4538 142.195 32.4745C141.676 33.6088 145.067 36.245 149.767 38.3641C154.468 40.4832 158.699 41.2818 159.218 40.1491C159.228 40.1284 159.233 40.1077 159.239 40.0854L159.246 40.0886L160.828 36.6316Z" fill="url(#paint24_linear_401_6331)"/>
<path d="M160.819 36.6256C161.38 35.4008 158.024 32.6902 153.323 30.5713C148.622 28.4524 144.357 27.7276 143.796 28.9523C143.236 30.1771 146.592 32.8876 151.293 35.0065C155.994 37.1255 160.259 37.8503 160.819 36.6256Z" fill="#00A8E1"/>
<path d="M142.293 35.9512C142.293 35.9512 144.562 38.5587 148.799 40.4805C152.855 42.3212 156.517 42.3625 156.517 42.3625" stroke="#AC4DD7" stroke-width="0.159091" stroke-linecap="round" stroke-linejoin="round"/>
<g style="mix-blend-mode:soft-light">
<path d="M149.507 44.6441C148.821 43.9632 147.636 44.0332 146.86 44.8016C146.82 44.8413 146.781 44.8859 146.743 44.9336C146.743 44.8732 146.74 44.8143 146.733 44.757C146.611 43.6752 145.73 42.8861 144.764 42.9943C143.799 43.1025 143.116 44.065 143.238 45.1468C143.245 45.2025 143.256 45.2613 143.269 45.3202C143.221 45.282 143.172 45.2486 143.124 45.2184C142.196 44.6393 141.024 44.8302 140.508 45.6463C139.992 46.4625 140.324 47.592 141.252 48.1711C141.3 48.2013 141.353 48.2284 141.407 48.2554C141.348 48.2697 141.29 48.2857 141.236 48.3032C140.2 48.6627 139.621 49.6904 139.942 50.6004C140.263 51.5104 141.361 51.9559 142.397 51.5979C142.451 51.5788 142.506 51.555 142.56 51.5295C142.534 51.5836 142.51 51.6393 142.491 51.6918C142.129 52.7179 142.578 53.8093 143.493 54.1275C144.41 54.4457 145.446 53.8713 145.808 52.8452C145.827 52.7911 145.842 52.7354 145.856 52.6766C145.884 52.7307 145.911 52.7832 145.941 52.8309C146.525 53.752 147.663 54.0845 148.486 53.5722C149.308 53.06 149.502 51.897 148.918 50.9759C148.888 50.9282 148.853 50.8804 148.814 50.8327C148.874 50.8454 148.933 50.8566 148.989 50.8629C150.079 50.9854 151.051 50.3077 151.16 49.3516C151.269 48.3938 150.474 47.5188 149.385 47.3963C149.329 47.39 149.27 47.3884 149.207 47.3884C149.255 47.3502 149.3 47.312 149.34 47.2707C150.116 46.5022 150.188 45.3266 149.502 44.6441H149.507Z" fill="white"/>
</g>
<defs>
<linearGradient id="paint0_linear_401_6331" x1="63.2862" y1="1.4059" x2="114.418" y2="190.485" gradientUnits="userSpaceOnUse">
<stop stop-color="#0088C3"/>
<stop offset="1" stop-color="#0F1F42"/>
</linearGradient>
<linearGradient id="paint1_linear_401_6331" x1="37.6583" y1="119.083" x2="90.891" y2="116.96" gradientUnits="userSpaceOnUse">
<stop stop-color="#F0F4F8"/>
<stop offset="0.45" stop-color="#00DC86"/>
<stop offset="1" stop-color="#23626A"/>
</linearGradient>
<linearGradient id="paint2_linear_401_6331" x1="116.391" y1="48.1241" x2="83.8906" y2="48.4877" gradientUnits="userSpaceOnUse">
<stop stop-color="#A37624"/>
<stop offset="0.44" stop-color="#AB8360"/>
<stop offset="1" stop-color="#F9CCA7"/>
</linearGradient>
<linearGradient id="paint3_linear_401_6331" x1="58.0802" y1="40.0966" x2="84.618" y2="43.1883" gradientUnits="userSpaceOnUse">
<stop stop-color="#A37624"/>
<stop offset="0.44" stop-color="#AB8360"/>
<stop offset="1" stop-color="#F9CCA7"/>
</linearGradient>
<linearGradient id="paint4_linear_401_6331" x1="-19.5844" y1="49.4625" x2="134.712" y2="206.391" gradientUnits="userSpaceOnUse">
<stop stop-color="#F0F4F8"/>
<stop offset="0.45" stop-color="#00DC86"/>
<stop offset="1" stop-color="#23626A"/>
</linearGradient>
<linearGradient id="paint5_linear_401_6331" x1="19.9501" y1="5.49231" x2="98.3205" y2="80.642" gradientUnits="userSpaceOnUse">
<stop stop-color="#F0F4F8"/>
<stop offset="0.45" stop-color="#00DC86"/>
<stop offset="1" stop-color="#23626A"/>
</linearGradient>
<linearGradient id="paint6_linear_401_6331" x1="10.1596" y1="45.9916" x2="16.5033" y2="77.9575" gradientUnits="userSpaceOnUse">
<stop offset="0.41" stop-color="#0088C3"/>
<stop offset="1" stop-color="#0F1F42"/>
</linearGradient>
<linearGradient id="paint7_linear_401_6331" x1="4.16996" y1="66.8745" x2="21.0644" y2="76.916" gradientUnits="userSpaceOnUse">
<stop offset="0.22" stop-color="white"/>
<stop offset="0.56" stop-color="#FEE2CC"/>
<stop offset="1" stop-color="#EAB892"/>
</linearGradient>
<linearGradient id="paint8_linear_401_6331" x1="-0.775728" y1="81.1648" x2="37.8812" y2="76.9955" gradientUnits="userSpaceOnUse">
<stop offset="0.2" stop-color="#BEF5FF"/>
<stop offset="0.76" stop-color="#39C7DF"/>
</linearGradient>
<linearGradient id="paint9_linear_401_6331" x1="101.82" y1="26.3123" x2="100.773" y2="-11.0364" gradientUnits="userSpaceOnUse">
<stop offset="0.3" stop-color="white"/>
<stop offset="0.46" stop-color="#FFCE4E"/>
<stop offset="0.94" stop-color="#C69024"/>
</linearGradient>
<linearGradient id="paint10_linear_401_6331" x1="115.716" y1="62.427" x2="124.128" y2="58.9081" gradientUnits="userSpaceOnUse">
<stop offset="0.2" stop-color="#BEF5FF"/>
<stop offset="0.76" stop-color="#39C7DF"/>
</linearGradient>
<linearGradient id="paint11_linear_401_6331" x1="120.512" y1="63.9853" x2="123.376" y2="63.9853" gradientUnits="userSpaceOnUse">
<stop offset="0.2" stop-color="#BEF5FF"/>
<stop offset="0.76" stop-color="#39C7DF"/>
</linearGradient>
<linearGradient id="paint12_linear_401_6331" x1="139.163" y1="81.5341" x2="146.329" y2="81.5341" gradientUnits="userSpaceOnUse">
<stop offset="0.2" stop-color="#BEF5FF"/>
<stop offset="0.76" stop-color="#39C7DF"/>
</linearGradient>
<linearGradient id="paint13_linear_401_6331" x1="140.951" y1="82.2006" x2="156.954" y2="88.9899" gradientUnits="userSpaceOnUse">
<stop offset="0.2" stop-color="#BEF5FF"/>
<stop offset="0.76" stop-color="#39C7DF"/>
</linearGradient>
<linearGradient id="paint14_linear_401_6331" x1="120.839" y1="67.3745" x2="141.062" y2="74.8461" gradientUnits="userSpaceOnUse">
<stop offset="0.2" stop-color="#BEF5FF"/>
<stop offset="0.76" stop-color="#39C7DF"/>
</linearGradient>
<linearGradient id="paint15_linear_401_6331" x1="146.789" y1="88.1341" x2="153.977" y2="88.1341" gradientUnits="userSpaceOnUse">
<stop offset="0.2" stop-color="#BEF5FF"/>
<stop offset="0.76" stop-color="#39C7DF"/>
</linearGradient>
<linearGradient id="paint16_linear_401_6331" x1="128.144" y1="72.3188" x2="152.666" y2="172.117" gradientUnits="userSpaceOnUse">
<stop stop-color="#BBFFEB"/>
<stop offset="0.45" stop-color="#00DC86"/>
<stop offset="1" stop-color="#23626A"/>
</linearGradient>
<linearGradient id="paint17_linear_401_6331" x1="124.561" y1="8.09416" x2="143.436" y2="68.9261" gradientUnits="userSpaceOnUse">
<stop offset="0.2" stop-color="#BEF5FF"/>
<stop offset="0.76" stop-color="#39C7DF"/>
</linearGradient>
<linearGradient id="paint18_linear_401_6331" x1="123.823" y1="37.9683" x2="138.376" y2="37.9683" gradientUnits="userSpaceOnUse">
<stop offset="0.2" stop-color="#BEF5FF"/>
<stop offset="0.76" stop-color="#39C7DF"/>
</linearGradient>
<linearGradient id="paint19_linear_401_6331" x1="125.926" y1="37.2923" x2="134.401" y2="52.211" gradientUnits="userSpaceOnUse">
<stop stop-color="#0088C3"/>
<stop offset="1" stop-color="#0F1F42"/>
</linearGradient>
<linearGradient id="paint20_linear_401_6331" x1="128.688" y1="51.4217" x2="128.291" y2="57.3355" gradientUnits="userSpaceOnUse">
<stop stop-color="#0088C3"/>
<stop offset="1" stop-color="#0F1F42"/>
</linearGradient>
<linearGradient id="paint21_linear_401_6331" x1="142.863" y1="32.0455" x2="120.749" y2="38.7467" gradientUnits="userSpaceOnUse">
<stop stop-color="#0088C3"/>
<stop offset="1" stop-color="#0F1F42"/>
</linearGradient>
<linearGradient id="paint22_linear_401_6331" x1="139.779" y1="32.3492" x2="150.967" y2="54.8963" gradientUnits="userSpaceOnUse">
<stop offset="0.16" stop-color="#F0F4F8"/>
<stop offset="0.4" stop-color="#DE97FF"/>
<stop offset="0.88" stop-color="#A827D8"/>
</linearGradient>
<linearGradient id="paint23_linear_401_6331" x1="151.699" y1="31.5263" x2="141.499" y2="58.3602" gradientUnits="userSpaceOnUse">
<stop offset="0.14" stop-color="#F0F4F8"/>
<stop offset="0.52" stop-color="#DE97FF"/>
<stop offset="0.83" stop-color="#A827D8"/>
</linearGradient>
<linearGradient id="paint24_linear_401_6331" x1="142.142" y1="34.8116" x2="160.828" y2="34.8116" gradientUnits="userSpaceOnUse">
<stop stop-color="#0088C3"/>
<stop offset="1" stop-color="#0F1F42"/>
</linearGradient>
</defs>
</svg>
