<svg width="164" height="158" viewBox="0 0 164 158" fill="none" xmlns="http://www.w3.org/2000/svg">
<path d="M88.5624 16.3145L155.168 54.7695V131.68L88.5624 170.135L21.9563 131.68V54.7695L88.5624 16.3145Z" fill="#019DD8"/>
<path d="M65.2891 60.6344C65.2891 60.6344 68.8166 56.2479 69.3526 52.2892C70.2316 45.8068 69.5557 38.6551 74.2636 36.516C74.2636 36.516 77.5431 34.5782 80.4497 35.1792C80.4497 35.1792 85.284 30.6096 90.2582 35.0627C94.1686 38.5636 99.6172 46.3611 99.3609 57.5514C99.3609 57.5514 93.3962 62.6321 86.0381 63.5926C76.6874 64.8129 66.734 63.0749 65.2907 60.6344H65.2891Z" fill="url(#paint0_linear_401_5981)"/>
<path d="M92.8789 61.5437C92.8789 61.5437 94.5519 54.8598 93.9094 47.3203" stroke="#F97803" stroke-width="0.166472" stroke-miterlimit="10"/>
<path d="M159.226 118.65C158.985 118.624 158.731 118.614 158.472 118.614C158.675 118.451 158.866 118.282 159.038 118.111C162.341 114.81 162.65 109.764 159.727 106.837C156.804 103.913 151.756 104.216 148.454 107.517C148.282 107.688 148.116 107.881 147.954 108.084C147.952 107.825 147.941 107.57 147.914 107.329C147.393 102.687 143.639 99.2996 139.531 99.7608C135.42 100.222 132.512 104.357 133.032 108.998C133.058 109.24 133.106 109.489 133.165 109.741C132.96 109.581 132.755 109.431 132.549 109.301C128.597 106.814 123.606 107.637 121.405 111.137C119.203 114.638 120.623 119.491 124.576 121.978C124.781 122.108 125.006 122.226 125.239 122.338C124.986 122.398 124.741 122.464 124.512 122.544C121.918 123.45 119.998 125.351 119.133 127.557H166.706C166.739 127.387 166.767 127.215 166.787 127.041C167.252 122.932 163.867 119.175 159.228 118.65H159.226Z" fill="url(#paint1_linear_401_5981)"/>
<path d="M56.2713 84.3473C53.3481 81.4223 48.3006 81.7253 44.9978 85.0265C44.8264 85.1979 44.6599 85.391 44.4984 85.5941C44.4968 85.3344 44.4851 85.0797 44.4585 84.8383C43.9374 80.1971 40.1835 76.8094 36.0749 77.2705C31.9648 77.7317 29.0565 81.8668 29.5759 86.5081C29.6025 86.7494 29.6508 86.9991 29.7091 87.2505C29.5043 87.0907 29.2995 86.9409 29.0931 86.811C25.1411 84.3239 20.1502 85.1463 17.9495 88.6472C15.7471 92.1481 17.1671 97.0008 21.1208 99.4879C21.3255 99.6177 21.5503 99.7359 21.7833 99.8475C21.5303 99.9074 21.2856 99.974 21.0559 100.054C16.6477 101.594 14.1789 106.007 15.544 109.912C16.9074 113.816 21.5869 115.732 25.9967 114.192C26.2265 114.112 26.4595 114.011 26.6926 113.898C26.5811 114.132 26.4812 114.367 26.4013 114.597C24.8564 119.003 26.7692 123.685 30.6713 125.053C34.5734 126.421 38.9899 123.958 40.5347 119.549C40.6146 119.32 40.6812 119.075 40.7378 118.822C40.8527 119.055 40.9726 119.28 41.1024 119.484C43.5845 123.44 48.4372 124.863 51.9397 122.664C55.4423 120.465 56.2697 115.478 53.7859 111.522C53.6561 111.316 53.5062 111.113 53.3447 110.91C53.5978 110.966 53.8492 111.011 54.0905 111.039C58.7301 111.564 62.8686 108.659 63.3347 104.549C63.7992 100.44 60.4148 96.6828 55.7752 96.1584C55.5339 96.1318 55.2808 96.1218 55.0211 96.1218C55.2242 95.9587 55.4157 95.7905 55.5871 95.6191C58.8899 92.3179 59.1996 87.2722 56.2763 84.3456L56.2713 84.3473Z" fill="url(#paint2_linear_401_5981)"/>
<path d="M135.288 67.2891H40.1859C39.3152 67.2891 38.6094 67.9949 38.6094 68.8656V126.713C38.6094 127.584 39.3152 128.289 40.1859 128.289H135.288C136.159 128.289 136.864 127.584 136.864 126.713V68.8656C136.864 67.9949 136.159 67.2891 135.288 67.2891Z" fill="white"/>
<path d="M136.59 126.56V69.0192C136.59 68.2212 135.943 67.5742 135.145 67.5742H40.3258C39.5277 67.5742 38.8808 68.2212 38.8808 69.0192V126.56C38.8808 127.358 39.5277 128.005 40.3258 128.005H135.145C135.943 128.005 136.59 127.358 136.59 126.56Z" fill="url(#paint3_linear_401_5981)"/>
<path d="M155.99 142.691H155.067V143.114L137.551 129.419C137.17 129.121 135.395 128.881 133.583 128.881H41.8898C40.0786 128.881 38.304 129.119 37.9211 129.419L20.916 142.715H19.4844V143.985C19.5093 144.411 20.8761 144.727 22.9753 144.727H152.499C154.603 144.727 155.971 144.409 155.988 143.982H155.99V142.691Z" fill="url(#paint4_linear_401_5981)"/>
<path d="M152.499 143.442H22.9772C20.4168 143.442 18.9436 142.972 19.6694 142.405L37.923 128.131C38.3043 127.833 40.0788 127.594 41.8917 127.594H133.584C135.397 127.594 137.17 127.832 137.553 128.131L155.807 142.405C156.533 142.972 155.058 143.442 152.499 143.442Z" fill="white"/>
<path d="M141.905 136.804H33.5713C32.8222 136.804 32.3561 136.683 32.5309 136.535L41.6868 128.681C41.8067 128.577 42.4043 128.494 43.0236 128.494H132.452C133.07 128.494 133.669 128.577 133.789 128.681L142.945 136.535C143.118 136.683 142.652 136.804 141.905 136.804Z" fill="#EDEDED"/>
<path d="M103.96 142.578H71.518C70.679 142.578 70.048 142.424 70.1096 142.238L71.5479 137.908C71.5995 137.752 72.2588 137.625 73.0212 137.625H102.455C103.218 137.625 103.877 137.752 103.928 137.908L105.367 142.238C105.428 142.424 104.799 142.578 103.958 142.578H103.96Z" fill="#EDEDED"/>
<path d="M44.8103 132.922H39.2668C38.9222 132.922 38.5759 132.983 38.491 133.058L37.2508 134.164C37.1609 134.244 37.3773 134.307 37.7319 134.307H49.1702C49.5248 134.307 49.8661 134.242 49.9343 134.164L50.8632 133.058C50.9265 132.983 50.6984 132.922 50.3555 132.922H44.812H44.8103Z" fill="url(#paint5_linear_401_5981)"/>
<path d="M57.3908 134.307H52.315C51.9604 134.307 51.7157 134.252 51.769 134.185L52.6879 133.037C52.7379 132.973 53.0592 132.922 53.4021 132.922H58.323C58.6676 132.922 58.9123 132.973 58.8707 133.037L58.1149 134.185C58.07 134.252 57.747 134.307 57.3924 134.307H57.3908Z" fill="url(#paint6_linear_401_5981)"/>
<path d="M65.6107 134.307H60.535C60.1804 134.307 59.9257 134.252 59.9673 134.185L60.6765 133.037C60.7165 132.973 61.0261 132.922 61.3707 132.922H66.2916C66.6362 132.922 66.8892 132.973 66.8593 133.037L66.3116 134.185C66.28 134.252 65.9653 134.307 65.6107 134.307Z" fill="url(#paint7_linear_401_5981)"/>
<path d="M73.8314 134.307H68.7557C68.4011 134.307 68.1364 134.252 68.1664 134.185L68.6658 133.037C68.6941 132.973 68.9937 132.922 69.3383 132.922H74.2592C74.6038 132.922 74.8669 132.973 74.8486 133.037L74.5106 134.185C74.4906 134.252 74.1877 134.307 73.8331 134.307H73.8314Z" fill="url(#paint8_linear_401_5981)"/>
<path d="M90.2765 134.307H85.2007C84.8461 134.307 84.5615 134.252 84.5665 134.185L84.648 133.037C84.653 132.973 84.9344 132.922 85.279 132.922H90.1999C90.5445 132.922 90.8258 132.973 90.8308 133.037L90.9124 134.185C90.9174 134.252 90.6327 134.307 90.2781 134.307H90.2765Z" fill="url(#paint9_linear_401_5981)"/>
<path d="M82.0547 134.307H76.979C76.6244 134.307 76.3497 134.252 76.3681 134.185L76.6577 133.037C76.6744 132.973 76.9657 132.922 77.3103 132.922H82.2312C82.5758 132.922 82.8488 132.973 82.8405 133.037L82.7123 134.185C82.7056 134.252 82.411 134.307 82.0564 134.307H82.0547Z" fill="url(#paint10_linear_401_5981)"/>
<path d="M98.4967 134.307H93.4209C93.0663 134.307 92.7717 134.252 92.765 134.185L92.6368 133.037C92.6302 132.973 92.9032 132.922 93.2461 132.922H98.167C98.5116 132.922 98.803 132.973 98.8179 133.037L99.1076 134.185C99.1243 134.252 98.8512 134.307 98.4967 134.307Z" fill="url(#paint11_linear_401_5981)"/>
<path d="M106.719 134.307H101.643C101.289 134.307 100.984 134.252 100.966 134.185L100.628 133.037C100.61 132.973 100.873 132.922 101.217 132.922H106.138C106.483 132.922 106.782 132.973 106.811 133.037L107.31 134.185C107.34 134.252 107.075 134.307 106.721 134.307H106.719Z" fill="url(#paint12_linear_401_5981)"/>
<path d="M114.94 134.307H109.864C109.51 134.307 109.195 134.252 109.163 134.185L108.616 133.037C108.586 132.973 108.84 132.922 109.183 132.922H114.104C114.449 132.922 114.758 132.973 114.798 133.037L115.508 134.185C115.549 134.252 115.295 134.307 114.94 134.307Z" fill="url(#paint13_linear_401_5981)"/>
<path d="M123.162 134.307H118.086C117.732 134.307 117.409 134.252 117.364 134.185L116.608 133.037C116.567 132.973 116.811 132.922 117.156 132.922H122.077C122.421 132.922 122.741 132.973 122.791 133.037L123.71 134.185C123.763 134.252 123.52 134.307 123.164 134.307H123.162Z" fill="url(#paint14_linear_401_5981)"/>
<path d="M48.2033 136.235H43.5754C43.2058 136.235 42.9628 136.175 43.031 136.104L44.2196 134.855C44.2845 134.787 44.6291 134.73 44.9871 134.73H49.4668C49.8247 134.73 50.0694 134.785 50.0128 134.855L48.9824 136.104C48.9225 136.177 48.5729 136.235 48.2033 136.235Z" fill="url(#paint15_linear_401_5981)"/>
<path d="M40.2954 136.233H35.5959C35.2264 136.233 34.9933 136.173 35.0749 136.102L36.4749 134.853C36.5515 134.785 36.9044 134.729 37.2623 134.729H41.812C42.1699 134.729 42.4046 134.783 42.3364 134.853L41.0962 136.102C41.0229 136.175 40.665 136.233 40.2954 136.233Z" fill="url(#paint16_linear_401_5981)"/>
<path d="M56.0953 136.233H51.4841C51.1145 136.233 50.8615 136.173 50.9181 136.102L51.8969 134.853C51.9502 134.785 52.2848 134.729 52.6427 134.729H57.1075C57.4654 134.729 57.7201 134.783 57.6735 134.853L56.8528 136.102C56.8045 136.175 56.4666 136.233 56.0953 136.233Z" fill="url(#paint17_linear_401_5981)"/>
<path d="M131.988 136.233H127.36C126.991 136.233 126.641 136.173 126.581 136.102L125.549 134.853C125.493 134.785 125.736 134.729 126.095 134.729H130.575C130.933 134.729 131.276 134.783 131.342 134.853L132.534 136.102C132.604 136.175 132.361 136.233 131.99 136.233H131.988Z" fill="url(#paint18_linear_401_5981)"/>
<path d="M124.081 136.233H119.381C119.012 136.233 118.672 136.173 118.624 136.101L118.293 135.597C118.246 135.525 118.502 135.469 118.867 135.469H123.49C123.854 135.469 124.194 135.527 124.251 135.597L124.647 136.101C124.703 136.175 124.45 136.233 124.081 136.233Z" fill="url(#paint19_linear_401_5981)"/>
<path d="M139.879 136.233H135.268C134.898 136.233 134.539 136.173 134.467 136.101L133.966 135.597C133.894 135.525 134.132 135.469 134.497 135.469H139.033C139.398 135.469 139.757 135.527 139.837 135.597L140.403 136.101C140.485 136.175 140.252 136.233 139.882 136.233H139.879Z" fill="url(#paint20_linear_401_5981)"/>
<path d="M64.6677 136.233H59.3739C59.0043 136.233 58.7413 136.173 58.7863 136.102L59.5554 134.853C59.5986 134.785 59.9233 134.729 60.2812 134.729H65.4052C65.7631 134.729 66.0278 134.783 65.9945 134.853L65.4002 136.102C65.3652 136.175 65.0373 136.233 64.6677 136.233Z" fill="url(#paint21_linear_401_5981)"/>
<path d="M116.102 136.233H110.808C110.439 136.233 110.111 136.173 110.076 136.102L109.481 134.853C109.448 134.785 109.713 134.729 110.071 134.729H115.195C115.553 134.729 115.877 134.783 115.92 134.853L116.69 136.102C116.735 136.175 116.471 136.233 116.102 136.233Z" fill="url(#paint22_linear_401_5981)"/>
<path d="M130.663 132.922H125.12C124.775 132.922 124.549 132.983 124.612 133.058L125.541 134.164C125.608 134.244 125.949 134.307 126.305 134.307H137.743C138.098 134.307 138.313 134.242 138.225 134.164L136.984 133.058C136.899 132.983 136.553 132.922 136.209 132.922H130.665H130.663Z" fill="url(#paint23_linear_401_5981)"/>
<path d="M44.7122 131.254H41.1164C40.7851 131.254 40.4539 131.311 40.3756 131.38L39.2286 132.403C39.1471 132.476 39.3551 132.536 39.6964 132.536H47.1061C47.4473 132.536 47.7786 132.476 47.8452 132.403L48.7874 131.38C48.8524 131.311 48.636 131.254 48.3047 131.254H44.7089H44.7122Z" fill="url(#paint24_linear_401_5981)"/>
<path d="M62.9047 132.534H58.0288C57.6875 132.534 57.4461 132.484 57.4894 132.423L58.2319 131.36C58.2735 131.302 58.5748 131.254 58.9044 131.254H63.6372C63.9685 131.254 64.2099 131.302 64.1766 131.36L63.5839 132.423C63.549 132.484 63.2443 132.534 62.9047 132.534Z" fill="url(#paint25_linear_401_5981)"/>
<path d="M55.0053 132.534H50.1293C49.788 132.534 49.5566 132.484 49.6116 132.423L50.5472 131.36C50.5988 131.302 50.9084 131.254 51.2397 131.254H55.9725C56.3038 131.254 56.5368 131.302 56.4935 131.36L55.7061 132.423C55.6595 132.484 55.3465 132.534 55.0053 132.534Z" fill="url(#paint26_linear_401_5981)"/>
<path d="M70.801 132.534H65.9234C65.5821 132.534 65.3324 132.484 65.364 132.423L65.9134 131.36C65.9434 131.302 66.2363 131.254 66.5676 131.254H71.3004C71.6317 131.254 71.8814 131.302 71.8598 131.36L71.4602 132.423C71.4369 132.484 71.1423 132.534 70.801 132.534Z" fill="url(#paint27_linear_401_5981)"/>
<path d="M78.7004 132.534H73.8228C73.4815 132.534 73.2218 132.484 73.2434 132.423L73.5997 131.36C73.6197 131.302 73.9027 131.254 74.234 131.254H78.9668C79.298 131.254 79.5561 131.302 79.5444 131.36L79.338 132.423C79.3263 132.484 79.04 132.534 78.6987 132.534H78.7004Z" fill="url(#paint28_linear_401_5981)"/>
<path d="M94.4953 132.534H89.6194C89.2781 132.534 89.0001 132.484 88.9984 132.423L88.9668 131.36C88.9651 131.302 89.2315 131.254 89.5628 131.254H94.2956C94.6269 131.254 94.9032 131.302 94.9132 131.36L95.0946 132.423C95.1046 132.484 94.8366 132.534 94.497 132.534H94.4953Z" fill="url(#paint29_linear_401_5981)"/>
<path d="M86.5986 132.534H81.7226C81.3813 132.534 81.1133 132.484 81.1233 132.423L81.2865 131.36C81.2948 131.302 81.5711 131.254 81.9024 131.254H86.6352C86.9665 131.254 87.2328 131.302 87.2328 131.36L87.2195 132.423C87.2195 132.484 86.9415 132.534 86.6002 132.534H86.5986Z" fill="url(#paint30_linear_401_5981)"/>
<path d="M102.394 132.534H97.5164C97.1752 132.534 96.8888 132.484 96.8755 132.423L96.6508 131.36C96.6391 131.302 96.8971 131.254 97.2268 131.254H101.96C102.291 131.254 102.576 131.302 102.595 131.36L102.97 132.423C102.992 132.484 102.734 132.534 102.392 132.534H102.394Z" fill="url(#paint31_linear_401_5981)"/>
<path d="M110.294 132.534H105.416C105.075 132.534 104.779 132.484 104.755 132.423L104.337 131.36C104.314 131.302 104.564 131.254 104.895 131.254H109.628C109.959 131.254 110.252 131.302 110.284 131.36L110.851 132.423C110.885 132.484 110.635 132.534 110.294 132.534Z" fill="url(#paint32_linear_401_5981)"/>
<path d="M118.192 132.534H113.314C112.973 132.534 112.668 132.484 112.632 132.423L112.021 131.36C111.987 131.302 112.227 131.254 112.558 131.254H117.291C117.622 131.254 117.924 131.302 117.967 131.36L118.728 132.423C118.773 132.484 118.531 132.534 118.192 132.534Z" fill="url(#paint33_linear_401_5981)"/>
<path d="M126.089 132.534H121.213C120.872 132.534 120.557 132.484 120.511 132.423L119.707 131.36C119.662 131.302 119.895 131.254 120.224 131.254H124.957C125.289 131.254 125.598 131.302 125.651 131.36L126.605 132.423C126.66 132.484 126.431 132.534 126.089 132.534Z" fill="url(#paint34_linear_401_5981)"/>
<path d="M54.5837 129.372H50.2637C49.9474 129.372 49.7327 129.329 49.7826 129.275L50.1305 128.907C50.1805 128.856 50.4718 128.812 50.7848 128.812H55.0448C55.3561 128.812 55.5742 128.854 55.5325 128.907L55.2346 129.275C55.1913 129.329 54.8999 129.372 54.5837 129.372Z" fill="url(#paint35_linear_401_5981)"/>
<path d="M47.5193 129.372H43.1994C42.8831 129.372 42.675 129.329 42.7349 129.275L43.1477 128.907C43.206 128.856 43.5057 128.812 43.817 128.812H48.077C48.3883 128.812 48.5997 128.854 48.5481 128.907L48.1852 129.275C48.1319 129.329 47.8339 129.372 47.5176 129.372H47.5193Z" fill="url(#paint36_linear_401_5981)"/>
<path d="M61.6469 129.372H57.327C57.0107 129.372 56.7876 129.329 56.8292 129.275L57.1139 128.907C57.1538 128.856 57.4385 128.812 57.7515 128.812H62.0115C62.3228 128.812 62.5492 128.854 62.5159 128.907L62.2828 129.275C62.2495 129.329 61.9649 129.372 61.6502 129.372H61.6469Z" fill="url(#paint37_linear_401_5981)"/>
<path d="M68.7084 129.372H64.3884C64.0721 129.372 63.8424 129.329 63.874 129.275L64.0937 128.907C64.1254 128.856 64.4017 128.812 64.7147 128.812H68.9747C69.286 128.812 69.5191 128.854 69.4958 128.907L69.326 129.275C69.301 129.329 69.0263 129.372 68.71 129.372H68.7084Z" fill="url(#paint38_linear_401_5981)"/>
<path d="M82.8345 129.372H78.5146C78.1983 129.372 77.9536 129.329 77.9652 129.275L78.0551 128.907C78.0685 128.856 78.3315 128.812 78.6428 128.812H82.9028C83.2141 128.812 83.4621 128.854 83.4572 128.907L83.4172 129.275C83.4122 129.329 83.1508 129.372 82.8345 129.372Z" fill="url(#paint39_linear_401_5981)"/>
<path d="M75.7705 129.372H71.4506C71.1343 129.372 70.8962 129.329 70.9195 129.275L71.0744 128.907C71.096 128.856 71.3657 128.812 71.6787 128.812H75.9387C76.25 128.812 76.4914 128.854 76.4764 128.907L76.3715 129.275C76.3565 129.329 76.0885 129.372 75.7722 129.372H75.7705Z" fill="url(#paint40_linear_401_5981)"/>
<path d="M89.8977 129.372H85.5778C85.2615 129.372 85.0084 129.329 85.0118 129.275L85.0367 128.907C85.0401 128.856 85.2964 128.812 85.6077 128.812H89.8677C90.179 128.812 90.4354 128.854 90.4387 128.907L90.4637 129.275C90.467 129.329 90.214 129.372 89.8977 129.372Z" fill="url(#paint41_linear_401_5981)"/>
<path d="M96.9602 129.372H92.6403C92.324 129.372 92.0643 129.329 92.0576 129.275L92.0177 128.907C92.0127 128.856 92.2607 128.812 92.572 128.812H96.832C97.1433 128.812 97.4064 128.854 97.4197 128.907L97.5096 129.275C97.5229 129.329 97.2765 129.372 96.9602 129.372Z" fill="url(#paint42_linear_401_5981)"/>
<path d="M104.021 129.372H99.7009C99.3846 129.372 99.1166 129.329 99.1016 129.275L98.9968 128.907C98.9818 128.856 99.2232 128.812 99.5345 128.812H103.794C104.106 128.812 104.377 128.854 104.399 128.907L104.554 129.275C104.575 129.329 104.337 129.372 104.023 129.372H104.021Z" fill="url(#paint43_linear_401_5981)"/>
<path d="M111.086 129.372H106.766C106.45 129.372 106.173 129.329 106.15 129.275L105.98 128.907C105.957 128.856 106.19 128.812 106.501 128.812H110.761C111.073 128.812 111.351 128.854 111.382 128.907L111.602 129.275C111.634 129.329 111.404 129.372 111.087 129.372H111.086Z" fill="url(#paint44_linear_401_5981)"/>
<path d="M118.15 129.372H113.83C113.514 129.372 113.231 129.329 113.197 129.275L112.964 128.907C112.931 128.856 113.157 128.812 113.469 128.812H117.729C118.04 128.812 118.325 128.854 118.366 128.907L118.651 129.275C118.692 129.329 118.469 129.372 118.153 129.372H118.15Z" fill="url(#paint45_linear_401_5981)"/>
<path d="M125.211 129.372H120.891C120.575 129.372 120.284 129.329 120.241 129.275L119.943 128.907C119.901 128.856 120.119 128.812 120.43 128.812H124.69C125.002 128.812 125.295 128.854 125.345 128.907L125.693 129.275C125.742 129.329 125.528 129.372 125.211 129.372Z" fill="url(#paint46_linear_401_5981)"/>
<path d="M132.272 129.372H127.952C127.636 129.372 127.338 129.329 127.285 129.275L126.922 128.907C126.87 128.856 127.082 128.812 127.393 128.812H131.653C131.964 128.812 132.264 128.854 132.322 128.907L132.735 129.275C132.795 129.329 132.587 129.372 132.271 129.372H132.272Z" fill="url(#paint47_linear_401_5981)"/>
<path d="M131.123 131.254H127.887C127.556 131.254 127.341 131.311 127.406 131.38L128.367 132.403C128.435 132.476 128.768 132.536 129.109 132.536H135.776C136.118 132.536 136.327 132.476 136.244 132.403L135.097 131.38C135.019 131.311 134.688 131.254 134.356 131.254H131.12H131.123Z" fill="url(#paint48_linear_401_5981)"/>
<path d="M46.2932 129.707H42.8306C42.5126 129.707 42.1947 129.759 42.1231 129.824L41.061 130.771C40.9844 130.839 41.1892 130.894 41.5171 130.894H46.8659C47.1938 130.894 47.5134 130.839 47.5784 130.771L48.4923 129.824C48.5539 129.759 48.3475 129.707 48.0278 129.707H46.2949H46.2932Z" fill="url(#paint49_linear_401_5981)"/>
<path d="M62.0618 130.894H57.3689C57.041 130.894 56.8096 130.848 56.8529 130.791L57.5837 129.807C57.6236 129.752 57.9149 129.709 58.2329 129.709H62.7909C63.1089 129.709 63.3419 129.752 63.3086 129.807L62.7177 130.791C62.6827 130.848 62.3897 130.894 62.0618 130.894Z" fill="url(#paint50_linear_401_5981)"/>
<path d="M54.4621 130.894H49.7693C49.4413 130.894 49.2183 130.848 49.2715 130.791L50.1821 129.807C50.2321 129.752 50.5317 129.709 50.8497 129.709H55.4077C55.7256 129.709 55.9504 129.752 55.9071 129.807L55.1363 130.791C55.0914 130.848 54.7884 130.894 54.4605 130.894H54.4621Z" fill="url(#paint51_linear_401_5981)"/>
<path d="M69.6614 130.894H64.9685C64.6406 130.894 64.4009 130.848 64.4325 130.791L64.9835 129.807C65.0135 129.752 65.2965 129.709 65.6161 129.709H70.1741C70.4921 129.709 70.7318 129.752 70.7101 129.807L70.2973 130.791C70.274 130.848 69.9877 130.894 69.6597 130.894H69.6614Z" fill="url(#paint52_linear_401_5981)"/>
<path d="M77.2602 130.894H72.5674C72.2394 130.894 71.9914 130.848 72.013 130.791L72.3843 129.807C72.4042 129.752 72.6806 129.709 72.9985 129.709H77.5566C77.8745 129.709 78.1226 129.752 78.1109 129.807L77.8778 130.791C77.8645 130.848 77.5882 130.894 77.2586 130.894H77.2602Z" fill="url(#paint53_linear_401_5981)"/>
<path d="M92.4593 130.894H87.7665C87.4385 130.894 87.1738 130.848 87.1738 130.791L87.1871 129.807C87.1871 129.752 87.4468 129.709 87.7648 129.709H92.3228C92.6408 129.709 92.9055 129.752 92.9121 129.807L93.037 130.791C93.0436 130.848 92.7839 130.894 92.456 130.894H92.4593Z" fill="url(#paint54_linear_401_5981)"/>
<path d="M84.8596 130.894H80.1668C79.8388 130.894 79.5825 130.848 79.5941 130.791L79.7872 129.807C79.7972 129.752 80.0652 129.709 80.3832 129.709H84.9412C85.2592 129.709 85.5155 129.752 85.5122 129.807L85.4589 130.791C85.4556 130.848 85.1876 130.894 84.8596 130.894Z" fill="url(#paint55_linear_401_5981)"/>
<path d="M100.058 130.894H95.3656C95.0376 130.894 94.7646 130.848 94.7547 130.791L94.5882 129.807C94.5782 129.752 94.8296 129.709 95.1492 129.709H99.7072C100.025 129.709 100.298 129.752 100.315 129.807L100.619 130.791C100.638 130.848 100.386 130.894 100.058 130.894Z" fill="url(#paint56_linear_401_5981)"/>
<path d="M107.656 130.894H102.963C102.635 130.894 102.352 130.848 102.332 130.791L101.987 129.807C101.969 129.752 102.21 129.709 102.53 129.709H107.088C107.406 129.709 107.687 129.752 107.714 129.807L108.198 130.791C108.227 130.848 107.984 130.894 107.656 130.894Z" fill="url(#paint57_linear_401_5981)"/>
<path d="M115.256 130.894H110.563C110.235 130.894 109.943 130.848 109.913 130.791L109.389 129.807C109.361 129.752 109.595 129.709 109.913 129.709H114.471C114.789 129.709 115.077 129.752 115.114 129.807L115.777 130.791C115.815 130.848 115.58 130.894 115.252 130.894H115.256Z" fill="url(#paint58_linear_401_5981)"/>
<path d="M122.856 130.894H118.163C117.835 130.894 117.535 130.848 117.496 130.791L116.791 129.807C116.753 129.752 116.979 129.709 117.297 129.709H121.855C122.173 129.709 122.47 129.752 122.516 129.807L123.359 130.791C123.407 130.848 123.182 130.894 122.854 130.894H122.856Z" fill="url(#paint59_linear_401_5981)"/>
<path d="M127.798 129.707H124.681C124.363 129.707 124.152 129.759 124.208 129.824L125.057 130.771C125.119 130.839 125.434 130.894 125.762 130.894H133.959C134.287 130.894 134.491 130.839 134.415 130.771L133.353 129.824C133.279 129.759 132.963 129.707 132.645 129.707H127.798Z" fill="url(#paint60_linear_401_5981)"/>
<path d="M107.529 136.235H67.9471C67.5776 136.235 67.3029 136.175 67.3345 136.104L67.8772 134.855C67.9072 134.787 68.2218 134.73 68.5797 134.73H106.897C107.254 134.73 107.569 134.785 107.599 134.855L108.142 136.104C108.173 136.177 107.899 136.235 107.529 136.235Z" fill="url(#paint61_linear_401_5981)"/>
<path d="M134.032 71.2051H41.4453V124.373H134.032V71.2051Z" fill="white"/>
<g style="mix-blend-mode:multiply" opacity="0.48">
<g style="mix-blend-mode:multiply" opacity="0.48">
<path d="M51.0586 124.373H134.032V71.2051H123.532L51.0586 124.373Z" fill="#D7F4FB"/>
</g>
</g>
<g style="mix-blend-mode:multiply">
<path d="M87.2048 79.6504H50.4361C49.3172 79.6504 48.4102 80.5574 48.4102 81.6764V114.934C48.4102 116.053 49.3172 116.96 50.4361 116.96H87.2048C88.3237 116.96 89.2308 116.053 89.2308 114.934V81.6764C89.2308 80.5574 88.3237 79.6504 87.2048 79.6504Z" fill="white"/>
<path d="M87.2048 79.6504H50.4361C49.3172 79.6504 48.4102 80.5574 48.4102 81.6764V114.934C48.4102 116.053 49.3172 116.96 50.4361 116.96H87.2048C88.3237 116.96 89.2308 116.053 89.2308 114.934V81.6764C89.2308 80.5574 88.3237 79.6504 87.2048 79.6504Z" stroke="#39C7DF" stroke-width="0.166472" stroke-miterlimit="10"/>
</g>
<path d="M70.9866 96.8334L71.0468 96.9068C71.0986 96.9702 71.1919 96.9795 71.2553 96.9276L86.279 84.6265C86.3423 84.5746 86.3516 84.4813 86.2998 84.418L86.2397 84.3445C86.1878 84.2812 86.0945 84.2719 86.0312 84.3238L71.0074 96.6249C70.9441 96.6768 70.9348 96.7701 70.9866 96.8334Z" fill="url(#paint62_linear_401_5981)" stroke="white" stroke-width="0.166472" stroke-miterlimit="10"/>
<path d="M71.656 97.7897L76.1425 94.1156C77.1413 93.255 78.0219 91.8832 77.6291 91.4038C77.2362 90.9244 75.693 91.6052 74.7208 92.3793L70.2344 96.0534L71.656 97.7897Z" fill="url(#paint63_linear_401_5981)" stroke="white" stroke-width="0.166472" stroke-miterlimit="10"/>
<path d="M56.8867 101.448L63.7337 109.809L75.1087 100.494L75.1054 100.489C75.1254 100.477 75.1437 100.465 75.162 100.45C75.7913 99.9343 77.9371 95.3979 75.718 92.6878C73.3441 89.7878 68.9443 91.5741 68.315 92.0885C68.2967 92.1034 68.2817 92.1184 68.2667 92.1367L68.2634 92.1317L56.8884 101.448H56.8867Z" fill="url(#paint64_linear_401_5981)" stroke="white" stroke-width="0.166472" stroke-miterlimit="10"/>
<path d="M56.8867 101.449L63.7337 109.811L75.1087 100.495L75.1054 100.49C75.1254 100.479 75.1437 100.467 75.162 100.452C75.7047 100.007 77.2995 96.4982 76.3606 93.8613L64.7009 95.0499L56.8867 101.449Z" fill="url(#paint65_linear_401_5981)" stroke="white" stroke-width="0.166472" stroke-miterlimit="10"/>
<path d="M63.7012 109.808L64.5552 109.108L64.5435 109.093C64.993 108.444 63.9825 106.265 62.1829 104.066C60.3834 101.869 58.4456 100.447 57.7198 100.76L56.8691 101.464L63.7012 109.806V109.808Z" fill="#0088C3" stroke="white" stroke-width="0.166472" stroke-miterlimit="10"/>
<path d="M63.73 109.818C64.3603 109.302 63.3386 107.012 61.4479 104.703C59.5573 102.394 57.5137 100.94 56.8834 101.456C56.2531 101.972 57.2749 104.263 59.1655 106.572C61.0562 108.881 63.0998 110.334 63.73 109.818Z" fill="url(#paint66_linear_401_5981)"/>
<path d="M75.7326 98.4323C75.7376 97.7797 75.6194 97.0256 75.2615 96.2715L62.7578 106.511C63.1773 107.182 63.492 107.803 63.6817 108.326L75.7326 98.4323Z" fill="url(#paint67_linear_401_5981)" stroke="white" stroke-width="0.166472" stroke-miterlimit="10"/>
<path d="M64.4495 107.723C64.2564 107.201 63.9401 106.58 63.5206 105.912L62.7715 106.526C63.191 107.197 63.5056 107.818 63.6954 108.341L64.4495 107.723Z" fill="#264F85" stroke="white" stroke-width="0.166472" stroke-miterlimit="10"/>
<path d="M70.2409 91.8535C70.8818 91.9784 71.611 92.2414 72.3401 92.7059L59.8364 102.946C59.2621 102.403 58.7144 101.97 58.2383 101.682L70.2392 91.8552L70.2409 91.8535Z" fill="#BEF5FF" stroke="white" stroke-width="0.166472" stroke-miterlimit="10"/>
<path d="M60.0297 102.754L70.1662 94.4824L66.5305 94.8836L58.7695 101.216L60.0297 102.754Z" fill="url(#paint68_linear_401_5981)" stroke="white" stroke-width="0.166472" stroke-miterlimit="10"/>
<path d="M58.9823 101.045C59.4568 101.336 60.0028 101.769 60.5738 102.312L59.8247 102.926C59.2504 102.383 58.7027 101.951 58.2266 101.663L58.9807 101.045H58.9823Z" fill="#6DD2F2" stroke="white" stroke-width="0.166472" stroke-miterlimit="10"/>
<path d="M60.7089 106.282L63.6954 108.341C63.6954 108.341 63.5056 107.484 62.7714 106.527L60.291 105.645L60.4525 105.843C60.5607 105.974 60.6473 106.124 60.7089 106.282Z" fill="url(#paint69_linear_401_5981)"/>
<path d="M67.5355 98.5709C67.8333 98.5709 68.0748 98.3294 68.0748 98.0316C68.0748 97.7337 67.8333 97.4922 67.5355 97.4922C67.2376 97.4922 66.9961 97.7337 66.9961 98.0316C66.9961 98.3294 67.2376 98.5709 67.5355 98.5709Z" fill="#F5CCFF" stroke="white" stroke-width="0.166472" stroke-miterlimit="10"/>
<path d="M71.3344 98.5849C71.7004 98.5849 71.997 98.2882 71.997 97.9223C71.997 97.5564 71.7004 97.2598 71.3344 97.2598C70.9685 97.2598 70.6719 97.5564 70.6719 97.9223C70.6719 98.2882 70.9685 98.5849 71.3344 98.5849Z" fill="#F5CCFF" stroke="white" stroke-width="0.166472" stroke-miterlimit="10"/>
<path d="M65.1841 103.503C65.4875 103.503 65.7335 103.257 65.7335 102.954C65.7335 102.65 65.4875 102.404 65.1841 102.404C64.8807 102.404 64.6348 102.65 64.6348 102.954C64.6348 103.257 64.8807 103.503 65.1841 103.503Z" fill="#DE97FF" stroke="white" stroke-width="0.166472" stroke-miterlimit="10"/>
<path d="M75.0929 100.479C75.1129 100.467 75.1312 100.456 75.1495 100.441C75.7788 99.9245 77.9246 95.3882 75.7056 92.678C73.3317 89.778 68.9318 91.5643 68.3025 92.0787C68.2842 92.0937 68.2693 92.1087 68.2543 92.127L68.2509 92.122L68.1211 92.2285C69.7009 91.2447 72.2896 92.1203 74.0791 94.3061C75.9702 96.6151 76.2516 99.51 74.7101 100.774" fill="#8FEAFF"/>
<path d="M75.0929 100.479C75.1129 100.467 75.1312 100.456 75.1495 100.441C75.7788 99.9245 77.9246 95.3882 75.7056 92.678C73.3317 89.778 68.9318 91.5643 68.3025 92.0787C68.2842 92.0937 68.2693 92.1087 68.2543 92.127L68.2509 92.122L68.1211 92.2285C69.7009 91.2447 72.2896 92.1203 74.0791 94.3061C75.9702 96.6151 76.2516 99.51 74.7101 100.774" stroke="white" stroke-width="0.166472" stroke-miterlimit="10"/>
<path d="M76.3785 93.8594L73.9297 94.1091C73.9863 94.174 74.0412 94.2389 74.0962 94.3072C75.9873 96.6162 76.2686 99.5111 74.7271 100.775L75.1116 100.478C75.1316 100.467 75.1499 100.455 75.1682 100.44C75.3014 100.33 75.5028 100.042 75.7159 99.6276C76.3519 98.3358 77.0877 95.8487 76.3785 93.8594Z" fill="#C46EE5" stroke="white" stroke-width="0.166472" stroke-miterlimit="10"/>
<path d="M74.9421 91.9052H74.9405C72.3768 90.5335 70.2227 91.837 70.2227 91.837L70.2959 91.8669C70.9601 91.9785 71.656 92.2581 72.3252 92.686C73.2125 91.9618 74.9222 91.9052 74.9421 91.9035V91.9052Z" fill="#E9FCFF" stroke="white" stroke-width="0.166472" stroke-miterlimit="10"/>
<path d="M75.2852 96.2632C75.5898 97.0074 75.7413 97.7515 75.7346 98.4324C76.5021 97.4352 76.7185 96.5712 76.6502 95.0397C76.6086 94.6351 76.527 94.2389 76.3922 93.8594C76.3922 93.8594 76.6502 95.0397 75.2852 96.2632Z" fill="url(#paint70_linear_401_5981)" stroke="white" stroke-width="0.166472" stroke-miterlimit="10"/>
<path d="M57.5467 109.342L60.7646 106.707C60.8961 106.6 60.683 106.124 60.2901 105.645C59.8973 105.165 59.4728 104.864 59.3429 104.971L56.125 107.606L57.5467 109.342Z" fill="#6DD2F2" stroke="white" stroke-width="0.166472" stroke-miterlimit="10"/>
<path d="M57.317 109.061L60.7097 106.282C60.6215 106.096 60.4767 105.871 60.2919 105.645L56.8359 108.475L57.317 109.061Z" fill="#009CD8" stroke="white" stroke-width="0.166472" stroke-miterlimit="10"/>
<path d="M59.1048 113.571L59.9472 112.857C60.3966 112.208 59.3861 110.029 57.5866 107.83C55.787 105.631 53.8493 104.211 53.1235 104.524L52.2578 105.209L59.1048 113.571Z" fill="#0088C3" stroke="white" stroke-width="0.166472" stroke-miterlimit="10"/>
<path d="M59.1011 113.58C59.7314 113.064 58.7097 110.774 56.819 108.465C54.9284 106.155 52.8848 104.702 52.2545 105.218C51.6242 105.734 52.6459 108.024 54.5366 110.333C56.4272 112.642 58.4709 114.096 59.1011 113.58Z" fill="#00A8E1" stroke="white" stroke-width="0.166472" stroke-miterlimit="10"/>
<path d="M59.8441 111.497C59.6509 110.974 59.3346 110.353 58.9151 109.686L58.166 110.3C58.5855 110.971 58.9002 111.592 59.0899 112.114L59.8441 111.497Z" fill="#264F85" stroke="white" stroke-width="0.166472" stroke-miterlimit="10"/>
<path d="M54.5839 105.021C55.0584 105.313 55.6044 105.746 56.1754 106.288L55.4263 106.903C54.8519 106.36 54.3042 105.927 53.8281 105.639L54.5822 105.021H54.5839Z" fill="#6DD2F2" stroke="white" stroke-width="0.166472" stroke-miterlimit="10"/>
<path d="M130.136 95.9199H99.3672V97.0453H130.136V95.9199Z" fill="#39C7DF"/>
<path d="M130.136 88.8125H99.3672V89.9379H130.136V88.8125Z" fill="#39C7DF"/>
<path d="M130.136 81.707H99.3672V82.8324H130.136V81.707Z" fill="#39C7DF"/>
<path d="M94.4487 80.1953L94.6868 80.7696C94.8949 81.2707 95.2361 81.7036 95.6756 82.0198L96.0186 82.2679L95.6756 82.5159C95.2361 82.8322 94.8932 83.2667 94.6868 83.7661L94.4487 84.3405L94.2107 83.7661C94.0026 83.2651 93.6613 82.8322 93.2218 82.5159L92.8789 82.2679L93.2218 82.0198C93.6613 81.7036 94.0043 81.2691 94.2107 80.7696L94.4487 80.1953Z" fill="#39C7DF"/>
<path d="M94.4487 87.3027L94.6868 87.8771C94.8949 88.3781 95.2361 88.811 95.6756 89.1273L96.0186 89.3753L95.6756 89.6234C95.2361 89.9397 94.8932 90.3741 94.6868 90.8736L94.4487 91.4479L94.2107 90.8736C94.0026 90.3725 93.6613 89.9397 93.2218 89.6234L92.8789 89.3753L93.2218 89.1273C93.6613 88.811 94.0043 88.3765 94.2107 87.8771L94.4487 87.3027Z" fill="#39C7DF"/>
<path d="M94.4487 94.4082L94.6868 94.9825C94.8949 95.4836 95.2361 95.9164 95.6756 96.2327L96.0186 96.4808L95.6756 96.7288C95.2361 97.0451 94.8932 97.4796 94.6868 97.979L94.4487 98.5534L94.2107 97.979C94.0026 97.4779 93.6613 97.0451 93.2218 96.7288L92.8789 96.4808L93.2218 96.2327C93.6613 95.9164 94.0043 95.4819 94.2107 94.9825L94.4487 94.4082Z" fill="#39C7DF"/>
<path d="M109.535 108.326C109.532 107.963 109.369 107.62 109.089 107.386L107.612 106.142C107.481 106.031 107.404 105.867 107.404 105.696V105.26H99.9148V105.696C99.9148 105.867 99.8382 106.031 99.7067 106.142L98.2301 107.386C97.9504 107.62 97.7889 107.963 97.7839 108.326C97.7723 109.536 97.7656 112.233 97.7656 112.233C97.7656 113.808 100.404 115.083 103.659 115.083C106.913 115.083 109.552 113.806 109.552 112.233C109.552 112.233 109.545 109.536 109.534 108.326H109.535Z" fill="#39C7DF"/>
<path d="M97.7839 108.325C97.7723 109.536 97.7656 112.233 97.7656 112.233C97.7656 115.394 100.404 115.083 103.659 115.083C106.913 115.083 109.552 115.554 109.552 112.233C109.552 112.233 109.545 109.536 109.534 108.325L109.467 108.061H97.8472L97.7806 108.325H97.7839Z" fill="#39C7DF"/>
<path d="M107.411 103.123H99.9035C99.6332 103.123 99.4141 103.342 99.4141 103.612V105.124C99.4141 105.394 99.6332 105.613 99.9035 105.613H107.411C107.682 105.613 107.901 105.394 107.901 105.124V103.612C107.901 103.342 107.682 103.123 107.411 103.123Z" fill="#0088C3" stroke="white" stroke-width="0.166472" stroke-miterlimit="10"/>
<path d="M125.28 114.435H115.421C115.065 114.435 114.775 114.179 114.775 113.864V105.679C114.775 105.182 115.23 104.781 115.789 104.781H124.912C125.471 104.781 125.926 105.182 125.926 105.679V113.864C125.926 114.18 125.636 114.435 125.28 114.435Z" fill="#39C7DF"/>
<path d="M115.338 103.123H125.418C125.728 103.123 125.981 103.374 125.981 103.686V105.613H114.777V103.686C114.777 103.376 115.029 103.123 115.34 103.123H115.338Z" fill="#0088C3" stroke="white" stroke-width="0.166472" stroke-miterlimit="10"/>
<path d="M138.246 15.7363L144.51 28.4298L158.517 30.4658L148.38 40.3459L150.774 54.2962L138.246 47.7106L125.715 54.2962L128.109 40.3459L117.973 30.4658L131.981 28.4298L138.246 15.7363Z" fill="#DE97FF"/>
<path d="M28.6602 48.9011C28.6602 48.9011 37.3517 10.6458 86.0197 9.69525C86.0197 9.69525 113.386 8.45669 129.83 27.9089" stroke="#264F85" stroke-width="0.166472" stroke-linecap="round" stroke-linejoin="round"/>
<path d="M155.989 44.6934C155.989 44.6934 169.665 55.9635 161.576 70.1619C151.954 87.0538 134.686 72.4143 145.618 70.1619C156.549 67.9095 167.914 80.1802 158.515 96.3446" stroke="#264F85" stroke-width="0.166472" stroke-linecap="round" stroke-linejoin="round"/>
<path d="M122.365 62.1072C116.118 60.9486 95.7899 64.5394 93.4276 64.5394C91.0654 64.5394 90.9522 59.5968 90.9522 59.5968V57.2146H79.8918L79.6055 65.7197H79.692V67.6074H132.001C132.212 65.8046 128.613 63.2659 122.365 62.1072Z" fill="#F9CCA7"/>
<path d="M72.6931 67.5738C72.6931 67.5738 83.7868 65.0101 84.997 64.9452C86.2073 64.8802 89.595 65.5428 90.9517 65.7193C92.3085 65.8957 95.2683 65.6593 96.8398 65.3613C98.4113 65.0634 118.827 60.8033 123.525 62.3449C128.223 63.8864 131.831 65.2498 131.999 67.6071L72.6914 67.5738H72.6931Z" fill="#F9CCA7"/>
<path d="M79.922 57.9587C79.922 57.9587 79.7255 64.5394 77.3633 64.5394C75.001 64.5394 54.6715 60.9486 48.4255 62.1072C42.1778 63.2659 38.5787 65.8046 38.7901 67.6074H91.0989L90.9541 57.2146L79.922 57.9587Z" fill="#F9CCA7"/>
<path d="M79.7927 60.2078C81.9618 63.6904 87.0226 65.6098 89.7877 61.7809C90.1655 61.175 90.625 60.2877 90.953 59.3471V57.2146H79.8926L79.791 60.2078H79.7927Z" fill="#EAB892"/>
<path d="M98.0966 67.5738C98.0966 67.5738 87.003 65.0101 85.7927 64.9452C84.5825 64.8802 81.1948 65.5428 79.838 65.7193C78.4813 65.8957 75.5214 65.6593 73.9499 65.3613C72.3784 65.0634 51.9623 60.8033 47.2644 62.3449C42.5666 63.8864 38.9592 65.2498 38.791 67.6071L98.0983 67.5738H98.0966Z" fill="#FEE2CC"/>
<path d="M92.5424 44.7213C92.1379 44.7213 91.7667 45.0043 91.482 45.4705C91.452 45.5204 91.3755 45.5054 91.3621 45.4488C89.4877 37.4282 81.4121 37.1319 80.0853 37.568C80.4499 41.7615 72.376 40.4913 75.2343 51.0972C75.251 51.1588 75.1911 51.2137 75.1378 51.1771C74.4086 50.701 73.6878 50.5678 73.2417 50.9074C72.5275 51.4518 72.7855 52.995 73.8193 54.3551C74.8531 55.7151 76.2715 56.376 76.9873 55.8333C77.0605 55.7784 77.1221 55.7118 77.1754 55.6369C77.3136 55.4405 77.6082 55.4521 77.7364 55.6552C78.622 57.0419 79.6076 58.2488 80.8528 59.0229C83.2233 60.4945 85.4191 61.0489 86.9606 60.6943C88.7702 60.2781 89.7557 59.5923 91.2806 56.6291C92.1013 55.0343 92.3327 53.5543 92.1812 51.272C92.1679 51.0689 92.3343 50.9074 92.5374 50.9091H92.5408C93.4397 50.9091 94.1672 49.524 94.1672 47.816C94.1672 46.108 93.4397 44.723 92.5408 44.723L92.5424 44.7213Z" fill="#FEE2CC"/>
<path d="M82.7028 56.3542C82.7028 56.3542 83.8149 57.5927 85.6394 57.015C85.8858 56.9368 86.1388 56.8819 86.3802 56.7886C88.7757 55.8564 88.3046 54.3398 88.3046 54.3398C88.3046 54.3398 83.8582 56.0112 82.7012 56.3542H82.7028Z" fill="#F49C95"/>
<path d="M82.4626 56.4236C82.4626 56.4236 84.2155 54.9536 84.675 54.7372C84.675 54.7372 85.4624 55.1517 86.0001 54.3177C86.0001 54.3177 86.8575 54.2128 87.843 54.1912C88.1326 54.1845 88.2941 54.1795 88.5621 54.1163C88.5938 54.108 88.6171 54.1512 88.5921 54.1745C88.3657 54.3926 87.6016 54.9253 86.4429 55.0918C86.1783 55.5529 85.1428 55.8326 84.7699 55.6661C84.7699 55.6661 83.3566 56.362 82.4609 56.4236H82.4626Z" fill="#E27E79"/>
<path opacity="0.54" d="M83.2397 51.4079C83.0033 52.9861 84.375 52.3801 84.4816 52.7147C83.8423 53.1359 82.9833 53.662 82.6504 53.0876C82.5971 52.9961 82.4639 52.793 82.424 52.1337C82.8002 51.5128 82.4123 50.4241 82.3025 50.1361C81.6066 48.3199 80.3797 46.8066 80.9457 46.8066C81.7115 46.8066 83.0982 50.0945 83.2397 51.4079Z" fill="#F9CCA7"/>
<path d="M78.4418 51.0279C78.4418 51.0279 79.4806 51.0129 80.5343 50.1289C80.5343 50.1289 79.6204 51.1411 78.5966 51.1927C77.5728 51.2443 78.4418 51.0279 78.4418 51.0279Z" fill="#443122"/>
<path d="M77.1641 50.8677V49.5092C77.1641 49.173 77.3439 48.86 77.6402 48.7019C78.1479 48.4305 79.0802 48.1358 80.5318 48.4055" stroke="#EAB892" stroke-width="0.166472" stroke-linecap="round" stroke-linejoin="round"/>
<path opacity="0.1" d="M79.0367 55.2159C79.8163 55.2159 80.4484 54.5839 80.4484 53.8043C80.4484 53.0246 79.8163 52.3926 79.0367 52.3926C78.257 52.3926 77.625 53.0246 77.625 53.8043C77.625 54.5839 78.257 55.2159 79.0367 55.2159Z" fill="#F49C95"/>
<path d="M82.6523 53.0875C83.4947 52.4982 83.4148 52.5148 84.2904 52.623C84.62 52.663 84.7416 52.6114 84.948 52.3517C85.554 51.5926 85.7387 51.4494 86.1832 51.7957C86.6044 52.1236 85.7054 52.3234 85.0296 52.6613C84.8315 52.7612 84.948 53.0359 84.7532 53.1424C84.3487 53.3655 84.6334 52.6963 83.1884 53.3871C82.977 53.4254 82.7456 53.244 82.6523 53.0875Z" fill="#EAB892"/>
<path opacity="0.1" d="M90.2574 51.2374C91.037 51.2374 91.6691 50.6054 91.6691 49.8257C91.6691 49.0461 91.037 48.4141 90.2574 48.4141C89.4777 48.4141 88.8457 49.0461 88.8457 49.8257C88.8457 50.6054 89.4777 51.2374 90.2574 51.2374Z" fill="#F49C95"/>
<path d="M85.2153 52.5545C85.1637 52.5878 85.0905 52.5761 85.0822 52.5345C85.0622 52.4363 85.0672 52.2848 85.252 52.2349C85.4367 52.1849 85.7247 52.2582 85.8845 52.2232C85.9278 52.2132 85.9511 52.2482 85.9162 52.2698L85.2153 52.5545Z" fill="#443122"/>
<path d="M84.153 52.9845C84.1896 52.9729 84.2013 52.9396 84.1713 52.9296C84.0415 52.8797 83.7618 52.7948 83.6336 52.9146C83.5271 53.0128 83.3939 53.136 83.3073 53.2159C83.2807 53.2392 83.309 53.2659 83.3473 53.2526C83.5221 53.1926 83.85 53.0811 84.153 52.9862V52.9845Z" fill="#443122"/>
<path d="M81.2598 46.9238C81.8457 47.6164 82.2669 48.4454 82.48 49.326" stroke="#EAB892" stroke-width="0.166472" stroke-linecap="round" stroke-linejoin="round"/>
<path opacity="0.54" d="M84.3073 51.7044C84.2857 51.9408 84.0609 52.1139 83.8046 52.0906C83.5482 52.0673 83.3584 51.8575 83.3784 51.6211C83.3984 51.3847 83.4949 51.0834 83.7513 51.1067C84.0077 51.13 84.3273 51.468 84.3056 51.7044H84.3073Z" fill="white"/>
<path d="M75.2344 51.0977C75.2344 51.0977 76.2365 53.5298 76.8425 54.2423" stroke="#EAB892" stroke-width="0.166472" stroke-linecap="round" stroke-linejoin="round"/>
<path d="M91.3633 45.4473L91.6713 47.5165" stroke="#EAB892" stroke-width="0.166472" stroke-linecap="round" stroke-linejoin="round"/>
<path d="M93.4288 45.7093C93.4288 45.7093 92.6813 45.12 92.355 46.9545C92.0287 48.789 92.2285 48.8373 92.2285 48.8373" stroke="#EAB892" stroke-width="0.166472" stroke-linecap="round" stroke-linejoin="round"/>
<path d="M73.0527 51.7986C73.0527 51.7986 74.526 51.2992 75.9693 53.2719" stroke="#EAB892" stroke-width="0.166472" stroke-linecap="round" stroke-linejoin="round"/>
<path opacity="0.56" d="M86.4241 58.179C86.9623 58.0498 87.3495 57.7407 87.289 57.4886C87.2285 57.2365 86.7431 57.1368 86.2049 57.266C85.6668 57.3953 85.2795 57.7044 85.3401 57.9565C85.4006 58.2086 85.8859 58.3082 86.4241 58.179Z" fill="#F9CCA7"/>
<path d="M91.7264 36.2784L91.5533 36.3416C88.0574 37.6251 84.6813 40.0972 82.0145 42.2464L81.7914 42.4262L81.1821 42.3562C77.6645 41.9484 74.0521 41.4756 70.3065 42.3046L67.6562 32.884L89.0762 26.8594L91.7264 36.28V36.2784Z" fill="url(#paint71_linear_401_5981)"/>
<path d="M62.4866 47.6745C63.0024 47.6745 63.4205 47.2563 63.4205 46.7405C63.4205 46.2248 63.0024 45.8066 62.4866 45.8066C61.9709 45.8066 61.5527 46.2248 61.5527 46.7405C61.5527 47.2563 61.9709 47.6745 62.4866 47.6745Z" fill="url(#paint72_linear_401_5981)"/>
<path d="M134.969 41.7351C136.329 42.118 138.305 43.8793 139.01 45.1129C138.941 45.6023 138.654 46.2565 138.478 46.7193C137.887 48.2608 137.296 49.8024 136.703 51.3422C136.703 51.3422 143.354 53.4714 147.494 43.6529C147.494 43.6529 143.885 42.2196 141.682 39.6992L139.267 37.0723C139.267 37.0723 133.572 41.3423 134.969 41.7351Z" fill="url(#paint73_linear_401_5981)" stroke="#264F85" stroke-width="0.166472" stroke-miterlimit="10"/>
<path d="M62.4062 36.7676V45.807" stroke="black" stroke-width="0.166472" stroke-linecap="round" stroke-linejoin="round"/>
<path d="M62.4868 47.168C61.5779 48.2034 61.2083 49.6051 61.488 50.9535L61.5945 51.4713H63.3774L63.484 50.9535C63.7636 49.6051 63.3941 48.2034 62.4851 47.168H62.4868Z" fill="url(#paint74_linear_401_5981)"/>
<path d="M132.303 31.59C132.462 30.0418 132.67 29.5857 133.51 28.7517C135.756 26.5243 138.964 26.6824 141.116 28.1623C140.89 27.4465 141.576 26.8489 142.23 26.481C143.184 25.9466 144.256 26.2479 145.177 26.8356C146.097 27.4232 146.615 28.5885 146.841 29.6573C146.98 30.3065 147.031 31.039 146.685 31.605C145.919 32.8535 144.889 32.5023 144.438 32.1394C144.847 33.3979 144.632 35.2774 144.071 37.027C143.778 37.9426 142.996 39.1212 141.677 39.7005C140.134 38.4853 139.668 37.891 138.711 37.0203C136.973 35.4405 135.518 33.551 134.434 31.4685C134.274 31.1605 134.118 30.8442 133.885 30.5878C133.605 30.2799 132.26 32.0012 132.302 31.5883L132.303 31.59Z" fill="#0B1E44" stroke="black" stroke-width="0.166472" stroke-linejoin="round"/>
<path d="M138.702 38.8203C138.56 39.4245 138.565 40.5532 137.623 40.8429C136.248 41.2657 134.558 41.8484 132.517 42.0082C132.048 42.0448 131.713 41.7984 131.55 41.3573C131.469 41.1359 131.504 40.7996 131.668 40.2969C131.688 40.2369 131.607 39.8624 131.302 39.7658C131.059 39.6892 131.142 39.2031 131.35 39.0583C131.261 38.9301 130.928 38.7753 131.036 38.4524C131.372 38.0861 131.47 37.6283 131.184 37.4951C130.431 37.1406 130.466 36.8542 130.45 36.7693C130.415 36.5745 132.003 35.2911 132.174 34.3338C132.311 33.5681 131.92 33.5298 132.226 31.9067C132.376 31.1126 132.762 30.7197 133.861 29.7559C133.981 32.0615 137.46 35.4509 138.259 36.0968C138.569 35.6024 139.07 35.0896 139.641 35.2128C140.195 35.3327 140.62 35.9236 140.606 36.4913C140.588 37.2787 139.857 39.4728 138.7 38.8203H138.702Z" fill="url(#paint75_linear_401_5981)" stroke="#264F85" stroke-width="0.166472" stroke-miterlimit="10"/>
<path d="M44.7695 149.107C44.7695 149.107 61.3718 174.466 106.622 161.631" stroke="#264F85" stroke-width="0.166472" stroke-linecap="round" stroke-linejoin="round"/>
<path opacity="0.56" d="M85.5622 53.5314C85.9684 53.9009 85.4589 54.2006 85.2009 54.2838C84.9429 54.3671 84.4734 54.4403 84.5617 53.8909C84.6116 53.5813 84.5983 53.2817 84.8563 53.2001C85.1144 53.1185 85.3308 53.3216 85.5622 53.533V53.5314Z" fill="#F9CCA7"/>
<path d="M83.8692 45.977C83.9607 46.0718 84.1039 46.0968 84.2238 46.0402C84.317 45.9953 84.4418 45.9204 84.5983 45.7905C84.9929 45.4675 86.01 44.3921 86.8274 44.0109C87.5699 43.6647 89.0381 43.8261 89.4909 43.9926C89.4909 43.9926 88.031 42.7724 86.7658 43.087C85.8968 43.3034 85.1527 43.8494 84.7731 44.1707C84.5101 44.3938 84.2254 44.5919 83.9225 44.7567C83.8575 44.7917 83.7943 44.825 83.741 44.8499C83.6345 44.8999 83.5645 45.0064 83.5629 45.1229C83.5579 45.346 83.5995 45.6973 83.8692 45.977Z" fill="#F97803"/>
<path d="M80.9183 46.7636C80.9083 46.8951 80.8134 47.0067 80.6852 47.0383C80.5853 47.0633 80.4405 47.0849 80.2374 47.0866C79.728 47.0916 78.258 46.9151 77.3874 47.1465C76.595 47.3546 75.5712 48.42 75.3281 48.8362C75.3281 48.8362 75.6694 46.9634 76.8414 46.3957C77.6471 46.0045 78.5693 45.9496 79.0671 45.9529C79.4117 45.9546 79.7579 45.9263 80.0959 45.8597C80.1691 45.8447 80.2374 45.8297 80.2956 45.8147C80.4088 45.7847 80.5304 45.8214 80.6086 45.9113C80.7551 46.0794 80.9482 46.3774 80.9183 46.7636Z" fill="#F97803"/>
<path d="M88.1843 47.3616C88.1843 47.3616 87.4085 48.0525 86.0352 48.1157C86.0352 48.1157 87.3936 48.2422 88.181 47.5897C88.9684 46.9371 88.1826 47.3633 88.1826 47.3633L88.1843 47.3616Z" fill="#443122"/>
<path d="M85.0972 48.1501C85.0972 48.1501 84.939 48.3383 85.1055 48.3582C85.272 48.3782 85.3036 48.2201 85.4984 48.1718C85.6932 48.1235 86.2908 48.1535 86.7536 48.0203C87.2164 47.8871 88.117 47.7356 88.8461 46.6719C88.8461 46.6719 86.1293 46.81 85.0955 48.1501H85.0972Z" fill="#F0F4F8"/>
<path d="M85.0893 48.0404L85.0211 46.7935C85.0028 46.4755 85.1476 46.1676 85.4106 45.9878C85.8668 45.6731 86.7291 45.2853 88.1341 45.3851" stroke="#EAB892" stroke-width="0.166472" stroke-linecap="round" stroke-linejoin="round"/>
<path d="M81.2486 49.5188C81.2486 49.5188 81.4933 49.5488 81.3834 49.6786C81.2736 49.8085 81.1454 49.7103 80.9673 49.8068C80.7891 49.9034 80.3713 50.3295 79.9401 50.5443C79.509 50.759 78.7432 51.2568 77.4863 50.9671C77.4863 50.9671 79.5805 49.2308 81.2486 49.5188Z" fill="#F0F4F8"/>
<path d="M86.6633 47.1916C86.5967 47.165 86.5302 47.1433 86.4636 47.125C86.119 47.2931 85.806 47.4779 85.543 47.6477C85.6362 47.8009 85.8426 47.999 86.0674 48.1238C86.2838 48.1421 86.5568 48.1122 86.7965 48.0306C87.1211 47.9157 87.3142 47.8791 87.5107 47.7792C87.3958 47.5628 87.0296 47.3314 86.6633 47.1899V47.1916Z" fill="#443122"/>
<path d="M84.9961 48.2391C84.9961 48.2391 85.94 47.3218 86.8822 47.1404C87.2768 47.0638 87.9493 47.0688 88.4587 46.9789C89.3027 46.8307 89.5358 46.4045 90.0236 45.707C90.0236 45.707 89.8404 45.8752 89.5291 46.0533C89.1229 46.2864 88.6585 46.3929 88.189 46.3929C87.4599 46.3929 85.89 46.5993 84.9961 48.2391Z" fill="#443122"/>
<path d="M81.3821 49.518C81.3821 49.518 80.067 49.4797 79.2496 49.9842C78.9084 50.1956 78.4156 50.6534 77.9794 50.9314C77.257 51.3942 76.7975 51.2377 75.9668 51.0529C75.9668 51.0529 76.2148 51.0529 76.5644 50.973C77.0206 50.8698 77.4351 50.6334 77.7797 50.3171C78.3174 49.8243 79.6109 48.9137 81.3805 49.5147L81.3821 49.518Z" fill="#443122"/>
<path d="M79.218 49.9728C79.1514 49.9462 79.0848 49.9246 79.0182 49.9062C78.6736 50.0744 78.3607 50.2592 78.0977 50.429C78.2225 50.6354 78.4922 50.8435 78.8401 50.9783C78.8651 50.9883 78.8901 50.995 78.915 51.0033C79.3812 50.8834 79.7291 50.682 79.9805 50.5555C79.8656 50.3391 79.5859 50.1143 79.2197 49.9728H79.218Z" fill="#443122"/>
<path d="M68.9258 62.6673C68.9258 62.6673 72.9494 58.0594 72.693 54.2422C72.693 54.2422 73.6419 59.6009 71.1748 63.2184L68.9258 62.6673Z" fill="#F97803"/>
<path d="M72.0124 42.0117C72.0124 42.0117 70.654 45.2496 70.902 51.474C71.1501 57.6984 66.6387 61.7636 66.6387 61.7636" stroke="#F97803" stroke-width="0.166472" stroke-miterlimit="10"/>
<path d="M90.2578 36.8711C90.2578 36.8711 97.5093 43.7331 96.4789 59.5962" stroke="#F97803" stroke-width="0.166472" stroke-miterlimit="10"/>
<path d="M81.8909 36.7139L62.0674 37.225L61.9492 35.9981L81.5829 35.1191L81.8909 36.7139Z" fill="#0088C7"/>
<path d="M62.0059 35.9912L74.984 27.0184L94.1716 26.1211L81.5147 35.2371L62.0059 35.9912Z" fill="#264F85"/>
<path d="M81.9528 36.7479L94.29 27.3539L94.1718 26.127L81.6465 35.1531L81.9528 36.7479Z" fill="#0F1F42"/>
<path d="M48.1882 51.3008H12.2519C10.6576 51.3008 9.36523 52.5932 9.36523 54.1874V76.1018C9.36523 77.696 10.6576 78.9884 12.2519 78.9884H48.1882C49.7824 78.9884 51.0748 77.696 51.0748 76.1018V54.1874C51.0748 52.5932 49.7824 51.3008 48.1882 51.3008Z" fill="url(#paint76_linear_401_5981)"/>
<path opacity="0.73" d="M44.4359 64.6344L42.9759 62.9164V60.2695H37.5872V62.9164L36.1273 64.6344C35.9092 64.8908 35.791 65.2004 35.791 65.5167V73.9702C35.791 74.5179 37.802 74.9623 40.2824 74.9623C42.7629 74.9623 44.7738 74.5179 44.7738 73.9702V65.5167C44.7738 65.2004 44.6556 64.8908 44.4376 64.6344H44.4359Z" fill="#BEF5FF"/>
<path d="M42.9746 62.8892C41.2417 63.4602 39.3189 63.4602 37.5859 62.8892V60.2656H42.9746V62.8892Z" fill="url(#paint77_linear_401_5981)"/>
<g style="mix-blend-mode:darken" opacity="0.22">
<path d="M40.2805 66.182C37.8 66.182 35.7891 65.8141 35.7891 65.3613V73.9696C35.7891 74.5173 37.8 74.9618 40.2805 74.9618C42.7609 74.9618 44.7719 74.5173 44.7719 73.9696V65.3613C44.7719 65.8158 42.7609 66.182 40.2805 66.182Z" fill="#0088C7"/>
</g>
<g style="mix-blend-mode:darken" opacity="0.22">
<path d="M41.2337 68.1565H39.3525L39.3242 61.7656L41.2054 61.8988L41.2337 68.1565Z" fill="#0088C7"/>
</g>
<path opacity="0.84" d="M40.2805 68.7094C37.8 68.7094 35.7891 68.3415 35.7891 67.8887V73.9699C35.7891 74.5176 37.8 74.9621 40.2805 74.9621C42.7609 74.9621 44.7719 74.5176 44.7719 73.9699V67.8887C44.7719 68.3431 42.7609 68.7094 40.2805 68.7094Z" fill="#00A8E1"/>
<g style="mix-blend-mode:darken" opacity="0.22">
<path d="M40.2805 66.182C37.8 66.182 35.7891 65.8141 35.7891 65.3613V67.8884C35.7891 67.4339 37.8 67.0677 40.2805 67.0677C42.7609 67.0677 44.7719 67.4356 44.7719 67.8884V65.3613C44.7719 65.8158 42.7609 66.182 40.2805 66.182Z" fill="#0088C7"/>
</g>
<g style="mix-blend-mode:screen" opacity="0.73">
<path d="M37.3633 65.9824L37.4465 74.7355C37.7861 74.7971 38.1673 74.8487 38.5802 74.887V66.1389L38.5868 66.1223C38.139 66.089 37.7262 66.0407 37.3649 65.9841L37.3633 65.9824Z" fill="#BEF5FF"/>
<path d="M37.3633 65.9824L37.4465 74.7355C37.7861 74.7971 38.1673 74.8487 38.5802 74.887V66.1389L38.5868 66.1223C38.139 66.089 37.7262 66.0407 37.3649 65.9841L37.3633 65.9824Z" stroke="black" stroke-width="0.166472" stroke-miterlimit="10"/>
</g>
<g style="mix-blend-mode:screen" opacity="0.73">
<path d="M39.5174 59.5977H38.3921L38.437 63.1369L38.2805 63.3399C37.6812 64.124 37.3633 65.0363 37.3633 65.9702V65.9819C37.7229 66.0385 38.134 66.0851 38.5802 66.12V66.0135C38.5835 65.0529 38.9331 64.0857 39.5674 63.29L39.5174 59.5977Z" fill="#BEF5FF"/>
<path d="M39.5174 59.5977H38.3921L38.437 63.1369L38.2805 63.3399C37.6812 64.124 37.3633 65.0363 37.3633 65.9702V65.9819C37.7229 66.0385 38.134 66.0851 38.5802 66.12V66.0135C38.5835 65.0529 38.9331 64.0857 39.5674 63.29L39.5174 59.5977Z" stroke="black" stroke-width="0.166472" stroke-miterlimit="10"/>
</g>
<path d="M38.1392 57.7871H42.306C42.5041 57.7871 42.6655 57.9486 42.6655 58.1467V58.2083C42.6655 58.2616 42.6223 58.3032 42.5706 58.3032H37.8761C37.8229 58.3032 37.7812 58.2599 37.7812 58.2083V58.1467C37.7812 57.9486 37.9427 57.7871 38.1408 57.7871H38.1392Z" fill="url(#paint78_linear_401_5981)" stroke="white" stroke-width="0.166472" stroke-miterlimit="10"/>
<path d="M42.0122 57.7876C41.566 57.2699 41.3263 56.644 41.3263 56.003V54.2634C41.3263 53.7457 40.8319 53.3262 40.2209 53.3262C39.61 53.3262 39.1156 53.7457 39.1156 54.2634V56.003C39.1156 56.644 38.8758 57.2682 38.4297 57.7876H42.0138H42.0122Z" fill="url(#paint79_linear_401_5981)" stroke="white" stroke-width="0.166472" stroke-miterlimit="10"/>
<path d="M43.4842 61.8648C41.325 62.1878 39.116 62.1878 36.9568 61.8648C36.8819 61.8648 36.8203 61.8132 36.8203 61.7499V59.4992C36.8203 59.0431 37.2581 58.6719 37.7958 58.6719H42.6435C43.1829 58.6719 43.619 59.0431 43.619 59.4992V61.7499C43.619 61.8132 43.5574 61.8648 43.4825 61.8648H43.4842Z" fill="url(#paint80_linear_401_5981)" stroke="white" stroke-width="0.166472" stroke-miterlimit="10"/>
<path d="M43.0145 58.7601H37.4294C37.3977 58.7601 37.3711 58.7384 37.3711 58.7118V58.5703C37.3711 58.3772 37.5559 58.2207 37.7823 58.2207H42.6582C42.8863 58.2207 43.0694 58.3772 43.0694 58.5703V58.7118C43.0694 58.7384 43.0445 58.7601 43.0112 58.7601H43.0145Z" fill="url(#paint81_linear_401_5981)" stroke="white" stroke-width="0.166472" stroke-miterlimit="10"/>
<g style="mix-blend-mode:multiply">
<path d="M128.111 100.93H94.9049C93.786 100.93 92.8789 101.837 92.8789 102.956V114.933C92.8789 116.052 93.786 116.959 94.9049 116.959H128.111C129.23 116.959 130.137 116.052 130.137 114.933V102.956C130.137 101.837 129.23 100.93 128.111 100.93Z" fill="white"/>
<path d="M128.111 100.93H94.9049C93.786 100.93 92.8789 101.837 92.8789 102.956V114.933C92.8789 116.052 93.786 116.959 94.9049 116.959H128.111C129.23 116.959 130.137 116.052 130.137 114.933V102.956C130.137 101.837 129.23 100.93 128.111 100.93Z" stroke="#39C7DF" stroke-width="0.166472" stroke-miterlimit="10"/>
</g>
<path d="M49.8959 85.1044C53.0918 85.1044 55.6825 82.5136 55.6825 79.3178C55.6825 76.122 53.0918 73.5312 49.8959 73.5312C46.7001 73.5312 44.1094 76.122 44.1094 79.3178C44.1094 82.5136 46.7001 85.1044 49.8959 85.1044Z" fill="#00DC86"/>
<g style="mix-blend-mode:darken">
<path d="M30.766 63.7309L27.8061 61.8331V58.9082H18.0925V61.8331L15.1326 63.7309C14.7214 64.0156 14.5 64.3552 14.5 64.7064V74.0455C14.5 74.6515 18.2822 75.3157 22.9485 75.3157C27.6147 75.3157 31.3969 74.6515 31.3969 74.0455V64.7064C31.3969 64.3568 31.1755 64.0156 30.7643 63.7309H30.766Z" fill="#BEF5FF"/>
</g>
<path opacity="0.84" d="M22.9504 68.2256C18.2842 68.2256 14.502 67.8194 14.502 67.3184V74.0372C14.502 74.6431 18.2842 75.329 22.9504 75.329C27.6166 75.329 31.3989 74.6431 31.3989 74.0372V67.3184C31.3989 67.8194 27.6166 68.2256 22.9504 68.2256Z" fill="#00A8E1"/>
<path d="M28.9099 62.492C25.0761 63.1213 20.8244 63.1213 16.9922 62.492V59.5938H28.9099V62.492Z" fill="#8FEAFF"/>
<g style="mix-blend-mode:screen" opacity="0.73">
<path d="M20.8635 58.1579H19.3852L19.4452 62.5461L19.2404 62.7709C18.453 63.6365 18.0352 64.1659 18.0352 65.198V65.2113C18.5079 65.2746 19.0456 65.3262 19.6316 65.3628V65.2446C19.635 64.1825 20.0961 63.5932 20.9284 62.7143L20.8619 58.1562L20.8635 58.1579Z" fill="#BEF5FF"/>
<path d="M20.8635 58.1579H19.3852L19.4452 62.5461L19.2404 62.7709C18.453 63.6365 18.0352 64.1659 18.0352 65.198V65.2113C18.5079 65.2746 19.0456 65.3262 19.6316 65.3628V65.2446C19.635 64.1825 20.0961 63.5932 20.9284 62.7143L20.8619 58.1562L20.8635 58.1579Z" stroke="black" stroke-width="0.166472" stroke-miterlimit="10"/>
</g>
<path opacity="0.6" d="M22.9504 65.4349C18.2842 65.4349 14.502 65.0287 14.502 64.5276V67.3193C14.502 66.8182 18.2842 66.4121 22.9504 66.4121C27.6166 66.4121 31.3989 66.8182 31.3989 67.3193V64.5276C31.3989 65.0287 27.6166 65.4349 22.9504 65.4349Z" fill="#8FEAFF"/>
<path d="M29.3861 61.5276C25.0562 62.0354 20.6264 62.0354 16.2965 61.5276C16.145 61.5276 16.0234 61.4461 16.0234 61.3462V58.681C16.0234 57.9618 16.8991 57.3792 17.9811 57.3792H27.7031C28.7835 57.3792 29.6608 57.9618 29.6608 58.681V61.3462C29.6608 61.4461 29.5393 61.5276 29.3878 61.5276H29.3861Z" fill="url(#paint82_linear_401_5981)" stroke="white" stroke-width="0.166472" stroke-miterlimit="10"/>
<g style="mix-blend-mode:screen" opacity="0.73">
<path d="M18.0391 65.2126L18.1489 75.2509C18.5951 75.3191 19.0945 75.3757 19.6372 75.4173V65.3841L19.6455 65.3641C19.0562 65.3258 18.5152 65.2742 18.0407 65.2109L18.0391 65.2126Z" fill="#BEF5FF"/>
<path d="M18.0391 65.2126L18.1489 75.2509C18.5951 75.3191 19.0945 75.3757 19.6372 75.4173V65.3841L19.6455 65.3641C19.0562 65.3258 18.5152 65.2742 18.0407 65.2109L18.0391 65.2126Z" stroke="black" stroke-width="0.166472" stroke-miterlimit="10"/>
</g>
<path d="M30.1709 45.4471L39.8396 44.8278L30.94 48.4902L31.7407 58.0807L27.8819 49.1961L18.2148 49.8153L27.1128 46.1529L26.312 36.5625L30.1709 45.4471Z" fill="#FFD066"/>
<path d="M161.999 95.2109L167.992 102.822L159.928 97.5682L152.485 103.668L157.612 95.4506L151.621 87.8395L159.683 93.0917L167.128 86.9922L161.999 95.2109Z" fill="#FFD066"/>
<path d="M94.4005 25.0846L100.926 25.7921L94.5603 27.2054L93.9843 33.7012L92.4361 27.322L85.9121 26.6161L92.2763 25.2011L92.8523 18.707L94.4005 25.0846Z" fill="#FFD066"/>
<defs>
<linearGradient id="paint0_linear_401_5981" x1="79.0163" y1="31.7249" x2="83.7325" y2="68.685" gradientUnits="userSpaceOnUse">
<stop stop-color="#F97803"/>
<stop offset="0.23" stop-color="#F97A06"/>
<stop offset="0.42" stop-color="#F98410"/>
<stop offset="0.61" stop-color="#FA9322"/>
<stop offset="0.78" stop-color="#FCA93B"/>
<stop offset="0.95" stop-color="#FEC65A"/>
<stop offset="1" stop-color="#FFD066"/>
</linearGradient>
<linearGradient id="paint1_linear_401_5981" x1="142.982" y1="100.139" x2="142.982" y2="160.355" gradientUnits="userSpaceOnUse">
<stop offset="0.32" stop-color="#00DC86"/>
<stop offset="0.78" stop-color="#23626A"/>
</linearGradient>
<linearGradient id="paint2_linear_401_5981" x1="18.5122" y1="64.6137" x2="76.3195" y2="171.97" gradientUnits="userSpaceOnUse">
<stop stop-color="#F0F4F8"/>
<stop offset="0.32" stop-color="#00DC86"/>
<stop offset="1" stop-color="#23626A"/>
</linearGradient>
<linearGradient id="paint3_linear_401_5981" x1="87.5805" y1="65.3385" x2="87.8951" y2="131.082" gradientUnits="userSpaceOnUse">
<stop stop-color="#0088C3"/>
<stop offset="1" stop-color="#0F1F42"/>
</linearGradient>
<linearGradient id="paint4_linear_401_5981" x1="19.4844" y1="136.805" x2="155.99" y2="136.805" gradientUnits="userSpaceOnUse">
<stop stop-color="#0088C3"/>
<stop offset="1" stop-color="#0F1F42"/>
</linearGradient>
<linearGradient id="paint5_linear_401_5981" x1="43.7249" y1="65.5456" x2="44.0396" y2="131.289" gradientUnits="userSpaceOnUse">
<stop stop-color="#0088C3"/>
<stop offset="1" stop-color="#0F1F42"/>
</linearGradient>
<linearGradient id="paint6_linear_401_5981" x1="54.9902" y1="65.4907" x2="55.3065" y2="131.236" gradientUnits="userSpaceOnUse">
<stop stop-color="#0088C3"/>
<stop offset="1" stop-color="#0F1F42"/>
</linearGradient>
<linearGradient id="paint7_linear_401_5981" x1="63.0854" y1="65.4524" x2="63.4" y2="131.196" gradientUnits="userSpaceOnUse">
<stop stop-color="#0088C3"/>
<stop offset="1" stop-color="#0F1F42"/>
</linearGradient>
<linearGradient id="paint8_linear_401_5981" x1="71.1779" y1="65.4141" x2="71.4942" y2="131.157" gradientUnits="userSpaceOnUse">
<stop stop-color="#0088C3"/>
<stop offset="1" stop-color="#0F1F42"/>
</linearGradient>
<linearGradient id="paint9_linear_401_5981" x1="87.4081" y1="65.3359" x2="87.7244" y2="131.079" gradientUnits="userSpaceOnUse">
<stop stop-color="#0088C3"/>
<stop offset="1" stop-color="#0F1F42"/>
</linearGradient>
<linearGradient id="paint10_linear_401_5981" x1="79.2747" y1="65.3758" x2="79.5893" y2="131.119" gradientUnits="userSpaceOnUse">
<stop stop-color="#0088C3"/>
<stop offset="1" stop-color="#0F1F42"/>
</linearGradient>
<linearGradient id="paint11_linear_401_5981" x1="95.5451" y1="65.2976" x2="95.8597" y2="131.041" gradientUnits="userSpaceOnUse">
<stop stop-color="#0088C3"/>
<stop offset="1" stop-color="#0F1F42"/>
</linearGradient>
<linearGradient id="paint12_linear_401_5981" x1="103.639" y1="65.2576" x2="103.956" y2="131.001" gradientUnits="userSpaceOnUse">
<stop stop-color="#0088C3"/>
<stop offset="1" stop-color="#0F1F42"/>
</linearGradient>
<linearGradient id="paint13_linear_401_5981" x1="111.735" y1="65.2193" x2="112.05" y2="130.962" gradientUnits="userSpaceOnUse">
<stop stop-color="#0088C3"/>
<stop offset="1" stop-color="#0F1F42"/>
</linearGradient>
<linearGradient id="paint14_linear_401_5981" x1="119.829" y1="65.181" x2="120.146" y2="130.924" gradientUnits="userSpaceOnUse">
<stop stop-color="#0088C3"/>
<stop offset="1" stop-color="#0F1F42"/>
</linearGradient>
<linearGradient id="paint15_linear_401_5981" x1="46.1857" y1="65.5366" x2="46.5003" y2="131.28" gradientUnits="userSpaceOnUse">
<stop stop-color="#0088C3"/>
<stop offset="1" stop-color="#0F1F42"/>
</linearGradient>
<linearGradient id="paint16_linear_401_5981" x1="38.3693" y1="65.5712" x2="38.684" y2="131.314" gradientUnits="userSpaceOnUse">
<stop stop-color="#0088C3"/>
<stop offset="1" stop-color="#0F1F42"/>
</linearGradient>
<linearGradient id="paint17_linear_401_5981" x1="53.9578" y1="65.4963" x2="54.2725" y2="131.241" gradientUnits="userSpaceOnUse">
<stop stop-color="#0088C3"/>
<stop offset="1" stop-color="#0F1F42"/>
</linearGradient>
<linearGradient id="paint18_linear_401_5981" x1="128.704" y1="65.1384" x2="129.02" y2="130.881" gradientUnits="userSpaceOnUse">
<stop stop-color="#0088C3"/>
<stop offset="1" stop-color="#0F1F42"/>
</linearGradient>
<linearGradient id="paint19_linear_401_5981" x1="121.131" y1="65.1748" x2="121.447" y2="130.917" gradientUnits="userSpaceOnUse">
<stop stop-color="#0088C3"/>
<stop offset="1" stop-color="#0F1F42"/>
</linearGradient>
<linearGradient id="paint20_linear_401_5981" x1="136.844" y1="65.0999" x2="137.16" y2="130.843" gradientUnits="userSpaceOnUse">
<stop stop-color="#0088C3"/>
<stop offset="1" stop-color="#0F1F42"/>
</linearGradient>
<linearGradient id="paint21_linear_401_5981" x1="62.0541" y1="65.458" x2="62.3687" y2="131.201" gradientUnits="userSpaceOnUse">
<stop stop-color="#0088C3"/>
<stop offset="1" stop-color="#0F1F42"/>
</linearGradient>
<linearGradient id="paint22_linear_401_5981" x1="112.749" y1="65.215" x2="113.065" y2="130.958" gradientUnits="userSpaceOnUse">
<stop stop-color="#0088C3"/>
<stop offset="1" stop-color="#0F1F42"/>
</linearGradient>
<linearGradient id="paint23_linear_401_5981" x1="131.095" y1="65.1261" x2="131.409" y2="130.869" gradientUnits="userSpaceOnUse">
<stop stop-color="#0088C3"/>
<stop offset="1" stop-color="#0F1F42"/>
</linearGradient>
<linearGradient id="paint24_linear_401_5981" x1="43.6884" y1="65.5473" x2="44.0047" y2="131.291" gradientUnits="userSpaceOnUse">
<stop stop-color="#0088C3"/>
<stop offset="1" stop-color="#0F1F42"/>
</linearGradient>
<linearGradient id="paint25_linear_401_5981" x1="60.5142" y1="65.4675" x2="60.8288" y2="131.211" gradientUnits="userSpaceOnUse">
<stop stop-color="#0088C3"/>
<stop offset="1" stop-color="#0F1F42"/>
</linearGradient>
<linearGradient id="paint26_linear_401_5981" x1="52.7329" y1="65.5041" x2="53.0476" y2="131.247" gradientUnits="userSpaceOnUse">
<stop stop-color="#0088C3"/>
<stop offset="1" stop-color="#0F1F42"/>
</linearGradient>
<linearGradient id="paint27_linear_401_5981" x1="68.2939" y1="65.4292" x2="68.6086" y2="131.172" gradientUnits="userSpaceOnUse">
<stop stop-color="#0088C3"/>
<stop offset="1" stop-color="#0F1F42"/>
</linearGradient>
<linearGradient id="paint28_linear_401_5981" x1="76.0751" y1="65.3926" x2="76.3898" y2="131.136" gradientUnits="userSpaceOnUse">
<stop stop-color="#0088C3"/>
<stop offset="1" stop-color="#0F1F42"/>
</linearGradient>
<linearGradient id="paint29_linear_401_5981" x1="91.7119" y1="65.3177" x2="92.0266" y2="131.061" gradientUnits="userSpaceOnUse">
<stop stop-color="#0088C3"/>
<stop offset="1" stop-color="#0F1F42"/>
</linearGradient>
<linearGradient id="paint30_linear_401_5981" x1="83.8568" y1="65.3543" x2="84.1714" y2="131.097" gradientUnits="userSpaceOnUse">
<stop stop-color="#0088C3"/>
<stop offset="1" stop-color="#0F1F42"/>
</linearGradient>
<linearGradient id="paint31_linear_401_5981" x1="99.4924" y1="65.2794" x2="99.8071" y2="131.023" gradientUnits="userSpaceOnUse">
<stop stop-color="#0088C3"/>
<stop offset="1" stop-color="#0F1F42"/>
</linearGradient>
<linearGradient id="paint32_linear_401_5981" x1="107.276" y1="65.2428" x2="107.592" y2="130.986" gradientUnits="userSpaceOnUse">
<stop stop-color="#0088C3"/>
<stop offset="1" stop-color="#0F1F42"/>
</linearGradient>
<linearGradient id="paint33_linear_401_5981" x1="115.055" y1="65.2045" x2="115.372" y2="130.948" gradientUnits="userSpaceOnUse">
<stop stop-color="#0088C3"/>
<stop offset="1" stop-color="#0F1F42"/>
</linearGradient>
<linearGradient id="paint34_linear_401_5981" x1="122.836" y1="65.1679" x2="123.153" y2="130.911" gradientUnits="userSpaceOnUse">
<stop stop-color="#0088C3"/>
<stop offset="1" stop-color="#0F1F42"/>
</linearGradient>
<linearGradient id="paint35_linear_401_5981" x1="52.3513" y1="65.504" x2="52.6676" y2="131.248" gradientUnits="userSpaceOnUse">
<stop stop-color="#0088C3"/>
<stop offset="1" stop-color="#0F1F42"/>
</linearGradient>
<linearGradient id="paint36_linear_401_5981" x1="45.3369" y1="65.5373" x2="45.6532" y2="131.281" gradientUnits="userSpaceOnUse">
<stop stop-color="#0088C3"/>
<stop offset="1" stop-color="#0F1F42"/>
</linearGradient>
<linearGradient id="paint37_linear_401_5981" x1="59.3646" y1="65.4707" x2="59.6809" y2="131.215" gradientUnits="userSpaceOnUse">
<stop stop-color="#0088C3"/>
<stop offset="1" stop-color="#0F1F42"/>
</linearGradient>
<linearGradient id="paint38_linear_401_5981" x1="66.3777" y1="65.4374" x2="66.694" y2="131.181" gradientUnits="userSpaceOnUse">
<stop stop-color="#0088C3"/>
<stop offset="1" stop-color="#0F1F42"/>
</linearGradient>
<linearGradient id="paint39_linear_401_5981" x1="80.4041" y1="65.3692" x2="80.7204" y2="131.113" gradientUnits="userSpaceOnUse">
<stop stop-color="#0088C3"/>
<stop offset="1" stop-color="#0F1F42"/>
</linearGradient>
<linearGradient id="paint40_linear_401_5981" x1="73.39" y1="65.4025" x2="73.7063" y2="131.148" gradientUnits="userSpaceOnUse">
<stop stop-color="#0088C3"/>
<stop offset="1" stop-color="#0F1F42"/>
</linearGradient>
<linearGradient id="paint41_linear_401_5981" x1="87.4306" y1="65.3359" x2="87.7469" y2="131.08" gradientUnits="userSpaceOnUse">
<stop stop-color="#0088C3"/>
<stop offset="1" stop-color="#0F1F42"/>
</linearGradient>
<linearGradient id="paint42_linear_401_5981" x1="94.4565" y1="65.3026" x2="94.7728" y2="131.047" gradientUnits="userSpaceOnUse">
<stop stop-color="#0088C3"/>
<stop offset="1" stop-color="#0F1F42"/>
</linearGradient>
<linearGradient id="paint43_linear_401_5981" x1="101.469" y1="65.2693" x2="101.785" y2="131.013" gradientUnits="userSpaceOnUse">
<stop stop-color="#0088C3"/>
<stop offset="1" stop-color="#0F1F42"/>
</linearGradient>
<linearGradient id="paint44_linear_401_5981" x1="108.484" y1="65.2343" x2="108.8" y2="130.978" gradientUnits="userSpaceOnUse">
<stop stop-color="#0088C3"/>
<stop offset="1" stop-color="#0F1F42"/>
</linearGradient>
<linearGradient id="paint45_linear_401_5981" x1="115.498" y1="65.201" x2="115.814" y2="130.945" gradientUnits="userSpaceOnUse">
<stop stop-color="#0088C3"/>
<stop offset="1" stop-color="#0F1F42"/>
</linearGradient>
<linearGradient id="paint46_linear_401_5981" x1="122.511" y1="65.1677" x2="122.828" y2="130.912" gradientUnits="userSpaceOnUse">
<stop stop-color="#0088C3"/>
<stop offset="1" stop-color="#0F1F42"/>
</linearGradient>
<linearGradient id="paint47_linear_401_5981" x1="129.524" y1="65.1344" x2="129.838" y2="130.878" gradientUnits="userSpaceOnUse">
<stop stop-color="#0088C3"/>
<stop offset="1" stop-color="#0F1F42"/>
</linearGradient>
<linearGradient id="paint48_linear_401_5981" x1="131.508" y1="65.1262" x2="131.824" y2="130.869" gradientUnits="userSpaceOnUse">
<stop stop-color="#0088C3"/>
<stop offset="1" stop-color="#0F1F42"/>
</linearGradient>
<linearGradient id="paint49_linear_401_5981" x1="44.462" y1="65.5437" x2="44.7766" y2="131.287" gradientUnits="userSpaceOnUse">
<stop stop-color="#0088C3"/>
<stop offset="1" stop-color="#0F1F42"/>
</linearGradient>
<linearGradient id="paint50_linear_401_5981" x1="59.7694" y1="65.4708" x2="60.0857" y2="131.214" gradientUnits="userSpaceOnUse">
<stop stop-color="#0088C3"/>
<stop offset="1" stop-color="#0F1F42"/>
</linearGradient>
<linearGradient id="paint51_linear_401_5981" x1="52.278" y1="65.5058" x2="52.5943" y2="131.249" gradientUnits="userSpaceOnUse">
<stop stop-color="#0088C3"/>
<stop offset="1" stop-color="#0F1F42"/>
</linearGradient>
<linearGradient id="paint52_linear_401_5981" x1="67.2608" y1="65.4342" x2="67.5755" y2="131.177" gradientUnits="userSpaceOnUse">
<stop stop-color="#0088C3"/>
<stop offset="1" stop-color="#0F1F42"/>
</linearGradient>
<linearGradient id="paint53_linear_401_5981" x1="74.7515" y1="65.3993" x2="75.0661" y2="131.142" gradientUnits="userSpaceOnUse">
<stop stop-color="#0088C3"/>
<stop offset="1" stop-color="#0F1F42"/>
</linearGradient>
<linearGradient id="paint54_linear_401_5981" x1="89.7924" y1="65.326" x2="90.1087" y2="131.069" gradientUnits="userSpaceOnUse">
<stop stop-color="#0088C3"/>
<stop offset="1" stop-color="#0F1F42"/>
</linearGradient>
<linearGradient id="paint55_linear_401_5981" x1="82.241" y1="65.3626" x2="82.5573" y2="131.106" gradientUnits="userSpaceOnUse">
<stop stop-color="#0088C3"/>
<stop offset="1" stop-color="#0F1F42"/>
</linearGradient>
<linearGradient id="paint56_linear_401_5981" x1="97.2917" y1="65.291" x2="97.608" y2="131.034" gradientUnits="userSpaceOnUse">
<stop stop-color="#0088C3"/>
<stop offset="1" stop-color="#0F1F42"/>
</linearGradient>
<linearGradient id="paint57_linear_401_5981" x1="104.782" y1="65.2544" x2="105.097" y2="130.997" gradientUnits="userSpaceOnUse">
<stop stop-color="#0088C3"/>
<stop offset="1" stop-color="#0F1F42"/>
</linearGradient>
<linearGradient id="paint58_linear_401_5981" x1="112.274" y1="65.2178" x2="112.589" y2="130.963" gradientUnits="userSpaceOnUse">
<stop stop-color="#0088C3"/>
<stop offset="1" stop-color="#0F1F42"/>
</linearGradient>
<linearGradient id="paint59_linear_401_5981" x1="119.766" y1="65.1828" x2="120.081" y2="130.926" gradientUnits="userSpaceOnUse">
<stop stop-color="#0088C3"/>
<stop offset="1" stop-color="#0F1F42"/>
</linearGradient>
<linearGradient id="paint60_linear_401_5981" x1="129.003" y1="65.1375" x2="129.317" y2="130.881" gradientUnits="userSpaceOnUse">
<stop stop-color="#0088C3"/>
<stop offset="1" stop-color="#0F1F42"/>
</linearGradient>
<linearGradient id="paint61_linear_401_5981" x1="87.3994" y1="65.3385" x2="87.714" y2="131.081" gradientUnits="userSpaceOnUse">
<stop stop-color="#0088C3"/>
<stop offset="1" stop-color="#0F1F42"/>
</linearGradient>
<linearGradient id="paint62_linear_401_5981" x1="76.9844" y1="86.4647" x2="78.5707" y2="90.4597" gradientUnits="userSpaceOnUse">
<stop stop-color="#BEF5FF"/>
<stop offset="1" stop-color="#0088C3"/>
</linearGradient>
<linearGradient id="paint63_linear_401_5981" x1="73.285" y1="90.2556" x2="74.0266" y2="94.0804" gradientUnits="userSpaceOnUse">
<stop stop-color="#BEF5FF"/>
<stop offset="1" stop-color="#0088C3"/>
</linearGradient>
<linearGradient id="paint64_linear_401_5981" x1="65.4366" y1="88.3702" x2="66.9422" y2="99.4383" gradientUnits="userSpaceOnUse">
<stop offset="0.3" stop-color="#BEF5FF"/>
<stop offset="0.47" stop-color="#8CD8EF"/>
<stop offset="0.84" stop-color="#289FCF"/>
<stop offset="1" stop-color="#0088C3"/>
</linearGradient>
<linearGradient id="paint65_linear_401_5981" x1="66.0547" y1="88.6736" x2="67.9575" y2="114.585" gradientUnits="userSpaceOnUse">
<stop offset="0.25" stop-color="#DE97FF"/>
<stop offset="1" stop-color="#A827D8"/>
</linearGradient>
<linearGradient id="paint66_linear_401_5981" x1="62.7066" y1="99.315" x2="59.9662" y2="106.52" gradientUnits="userSpaceOnUse">
<stop stop-color="#0088C3"/>
<stop offset="1" stop-color="#0F1F42"/>
</linearGradient>
<linearGradient id="paint67_linear_401_5981" x1="68.1004" y1="91.6461" x2="69.2461" y2="102.292" gradientUnits="userSpaceOnUse">
<stop offset="0.47" stop-color="#DE97FF"/>
<stop offset="0.53" stop-color="#B940DD"/>
<stop offset="1" stop-color="#8C00BC"/>
</linearGradient>
<linearGradient id="paint68_linear_401_5981" x1="63.8101" y1="88.837" x2="65.7129" y2="114.748" gradientUnits="userSpaceOnUse">
<stop offset="0.14" stop-color="#F0F4F8"/>
<stop offset="0.44" stop-color="#DE97FF"/>
<stop offset="0.83" stop-color="#A827D8"/>
</linearGradient>
<linearGradient id="paint69_linear_401_5981" x1="60.4029" y1="107.108" x2="63.5922" y2="106.874" gradientUnits="userSpaceOnUse">
<stop stop-color="#0F1F42"/>
<stop offset="1" stop-color="#0F1F42"/>
</linearGradient>
<linearGradient id="paint70_linear_401_5981" x1="75.4555" y1="90.8542" x2="76.6013" y2="101.501" gradientUnits="userSpaceOnUse">
<stop stop-color="#DE97FF"/>
<stop offset="0.53" stop-color="#B940DD"/>
<stop offset="1" stop-color="#8C00BC"/>
</linearGradient>
<linearGradient id="paint71_linear_401_5981" x1="81.6266" y1="47.1573" x2="79.3143" y2="32.1265" gradientUnits="userSpaceOnUse">
<stop stop-color="#0088C3"/>
<stop offset="1" stop-color="#0F1F42"/>
</linearGradient>
<linearGradient id="paint72_linear_401_5981" x1="62.4866" y1="53.5559" x2="62.4866" y2="46.7539" gradientUnits="userSpaceOnUse">
<stop stop-color="#0088C3"/>
<stop offset="1" stop-color="#0F1F42"/>
</linearGradient>
<linearGradient id="paint73_linear_401_5981" x1="135.288" y1="36.9341" x2="140.675" y2="45.291" gradientUnits="userSpaceOnUse">
<stop offset="0.29" stop-color="#BEF5FF"/>
<stop offset="0.61" stop-color="white"/>
</linearGradient>
<linearGradient id="paint74_linear_401_5981" x1="62.4868" y1="53.5555" x2="62.4868" y2="46.7535" gradientUnits="userSpaceOnUse">
<stop stop-color="#0088C3"/>
<stop offset="1" stop-color="#0F1F42"/>
</linearGradient>
<linearGradient id="paint75_linear_401_5981" x1="134.843" y1="27.6733" x2="137.67" y2="64.422" gradientUnits="userSpaceOnUse">
<stop offset="0.34" stop-color="white"/>
<stop offset="0.64" stop-color="#BEF5FF"/>
</linearGradient>
<linearGradient id="paint76_linear_401_5981" x1="18.696" y1="41.2176" x2="44.1063" y2="93.9742" gradientUnits="userSpaceOnUse">
<stop offset="0.36" stop-color="white"/>
<stop offset="1" stop-color="#BEF5FF"/>
</linearGradient>
<linearGradient id="paint77_linear_401_5981" x1="40.2811" y1="63.5901" x2="40.2811" y2="61.0514" gradientUnits="userSpaceOnUse">
<stop offset="0.2" stop-color="#BEF5FF"/>
<stop offset="0.76" stop-color="#39C7DF"/>
</linearGradient>
<linearGradient id="paint78_linear_401_5981" x1="40.2234" y1="56.3738" x2="40.2234" y2="59.7415" gradientUnits="userSpaceOnUse">
<stop offset="0.25" stop-color="#DE97FF"/>
<stop offset="1" stop-color="#A827D8"/>
</linearGradient>
<linearGradient id="paint79_linear_401_5981" x1="40.2209" y1="55.6018" x2="40.2209" y2="64.3716" gradientUnits="userSpaceOnUse">
<stop offset="0.25" stop-color="#DE97FF"/>
<stop offset="1" stop-color="#A827D8"/>
</linearGradient>
<linearGradient id="paint80_linear_401_5981" x1="40.2213" y1="55.6021" x2="40.2213" y2="64.3719" gradientUnits="userSpaceOnUse">
<stop offset="0.25" stop-color="#DE97FF"/>
<stop offset="1" stop-color="#A827D8"/>
</linearGradient>
<linearGradient id="paint81_linear_401_5981" x1="40.2228" y1="56.9655" x2="40.2228" y2="60.1018" gradientUnits="userSpaceOnUse">
<stop offset="0.4" stop-color="#DE97FF"/>
<stop offset="1" stop-color="#A827D8"/>
</linearGradient>
<linearGradient id="paint82_linear_401_5981" x1="18.965" y1="55.5463" x2="25.4924" y2="62.8095" gradientUnits="userSpaceOnUse">
<stop offset="0.25" stop-color="#DE97FF"/>
<stop offset="1" stop-color="#A827D8"/>
</linearGradient>
</defs>
</svg>
