<svg width="758" height="520" viewBox="0 0 758 520" fill="none" xmlns="http://www.w3.org/2000/svg">
<path d="M10.2461 105.285C12.2228 118.934 10.2461 205.947 98.8034 226.421C143.082 236.658 176.291 228.127 176.291 188.886C176.291 149.644 71.1292 122.347 59.2689 279.313C57.0845 308.221 67.9665 381.682 139.129 390.212C261.722 404.909 331.266 267.371 331.266 176.943" stroke="#C2CEDF" stroke-width="3" stroke-linecap="round" stroke-dasharray="6 6"/>
<path d="M30.5785 298.539C28.4036 296.311 24.6496 296.542 22.1913 299.056C22.064 299.186 21.9397 299.334 21.82 299.487C21.82 299.289 21.8109 299.096 21.7897 298.912C21.4017 295.377 18.61 292.796 15.5531 293.148C12.4961 293.499 10.3319 296.649 10.7184 300.184C10.7381 300.367 10.7729 300.558 10.8169 300.75C10.6653 300.628 10.5123 300.514 10.3592 300.415C7.41897 298.522 3.70732 299.147 2.06898 301.813C0.430646 304.479 1.487 308.175 4.42722 310.07C4.58029 310.168 4.74701 310.259 4.9213 310.345C4.73337 310.39 4.5515 310.441 4.38024 310.503C1.10053 311.676 -0.734832 315.037 0.279089 318.01C1.29452 320.983 4.77429 322.444 8.054 321.27C8.22526 321.21 8.39803 321.132 8.5708 321.045C8.48745 321.224 8.41318 321.402 8.35408 321.578C7.20527 324.934 8.62688 328.5 11.5307 329.541C14.4346 330.582 17.7188 328.706 18.8676 325.35C18.9267 325.176 18.9767 324.988 19.0192 324.796C19.1041 324.974 19.1935 325.144 19.2905 325.302C21.138 328.314 24.7465 329.398 27.3518 327.724C29.9571 326.05 30.5724 322.25 28.7249 319.238C28.6295 319.081 28.5173 318.926 28.396 318.771C28.5855 318.814 28.7704 318.848 28.9508 318.868C32.4032 319.269 35.4814 317.054 35.8269 313.926C36.1725 310.796 33.6551 307.935 30.2026 307.534C30.0223 307.514 29.8343 307.507 29.6419 307.507C29.7919 307.382 29.9344 307.255 30.0632 307.123C32.5199 304.609 32.7503 300.766 30.5754 298.538L30.5785 298.539Z" fill="url(#paint0_linear_401_10824)"/>
<path d="M55.3344 166.154C55.3793 165.663 55.4245 165.174 55.5361 164.691C55.5703 164.542 55.601 164.386 55.608 164.233C55.6302 163.459 55.7708 162.705 55.9568 161.955C56.081 161.447 56.141 160.924 56.2528 160.411C56.598 158.816 56.9583 157.222 57.3094 155.625C57.3746 155.323 57.4582 155.025 57.4994 154.723C57.6784 153.405 57.9921 152.12 58.4312 150.866C58.4838 150.721 58.5334 150.575 58.5797 150.428C58.6563 150.184 58.6784 149.934 58.5763 149.701C58.3553 149.18 58.2874 148.633 58.2457 148.077C58.2027 147.507 57.9568 147.009 57.7139 146.511C57.6737 146.431 57.6154 146.349 57.5474 146.292C57.2169 146.015 56.889 145.733 56.5426 145.478C56.2442 145.257 55.9034 145.096 55.5379 145.025C55.0382 144.927 54.6284 144.665 54.225 144.376C53.3346 143.734 52.667 142.909 52.128 141.953C51.714 141.219 51.4422 140.437 51.2167 139.638C51.0663 139.104 51.0179 138.54 51.0661 137.985C51.1992 136.46 51.6121 135.016 52.3981 133.694C52.8911 132.866 53.5097 132.136 54.263 131.538C54.8432 131.076 55.3969 130.585 55.9074 130.048C56.1369 129.809 56.4007 129.585 56.3874 129.143C56.5722 129.267 56.6847 129.319 56.77 129.401C57.3989 129.999 58.1072 130.482 58.8562 130.919C59.5482 131.322 60.2093 131.78 60.7872 132.343C60.9613 132.513 61.1345 132.706 61.2409 132.921C61.6687 133.773 62.1167 134.618 62.473 135.506C62.7915 136.309 63.1246 137.107 63.3938 137.926C63.5847 138.51 63.6884 139.122 63.821 139.723C63.9083 140.122 63.8339 140.521 63.7622 140.916C63.7585 140.94 63.7876 140.998 63.7935 140.997C63.8437 140.989 63.9122 140.986 63.936 140.951C64.7593 139.907 65.3789 138.729 66.0781 137.603C66.206 137.397 66.2887 137.156 66.3477 136.918C66.4873 136.349 66.6056 135.776 66.718 135.203C66.7896 134.841 66.8125 134.468 66.8903 134.108C66.9674 133.739 66.9705 133.379 66.9276 133.006C66.8854 132.609 66.9023 132.204 66.8897 131.804C66.8794 131.527 66.8691 131.25 66.838 130.975C66.8264 130.847 66.7252 130.755 66.6073 130.709C66.4926 130.665 66.371 130.643 66.2541 130.609C65.8724 130.491 65.4877 130.374 65.1057 130.253C64.6808 130.122 64.3238 129.882 64.0391 129.549C63.7579 129.222 63.4935 128.881 63.2317 128.537C62.7802 127.95 62.3935 127.318 62.0181 126.679C61.5971 125.967 61.3327 124.905 61.4331 124.104C61.5688 123 61.8375 121.943 62.458 120.971C63.0445 120.053 63.692 119.214 64.4658 118.446C65.064 117.853 65.7034 117.352 66.4206 116.916C67.1831 116.452 67.886 115.891 68.6137 115.373C68.6615 115.339 68.713 115.313 68.7896 115.267C69.0227 115.626 69.2505 115.991 69.495 116.343C69.6534 116.57 69.8151 116.801 70.0147 116.989C70.896 117.827 71.5645 118.825 72.1992 119.847C72.2799 119.977 72.3352 120.124 72.3814 120.27C72.5377 120.77 72.6881 121.271 72.8299 121.775C73.0415 122.522 73.1704 123.279 73.1784 124.056C73.1823 124.525 73.1004 124.972 72.9311 125.412C72.6715 126.076 72.3369 126.705 71.9321 127.286C71.67 127.66 71.3453 128.003 70.999 128.307C70.6721 128.594 70.3741 128.902 70.1058 129.241C69.8722 129.534 69.6036 129.771 69.2807 129.971C68.8077 130.263 68.3408 130.556 67.8207 130.759C67.7368 130.791 67.6648 130.854 67.5968 130.897C67.4752 131.039 67.4987 131.199 67.5093 131.347C67.5372 131.686 67.571 132.024 67.6166 132.36C67.7112 133.07 67.7039 133.776 67.5705 134.479C67.5425 134.631 67.5263 134.782 67.5105 134.936C67.507 134.964 67.5267 135.016 67.5418 135.017C67.5906 135.028 67.6664 135.039 67.6939 135.012C67.804 134.907 67.9137 134.798 68.0008 134.67C68.5267 133.907 69.0946 133.18 69.7074 132.484C70.2767 131.837 70.7901 131.135 71.2725 130.421C71.776 129.675 72.3963 129.029 72.9583 128.335C73.152 128.096 73.3615 127.867 73.5649 127.636C73.646 127.542 73.714 127.434 73.8089 127.36C74.7081 126.656 75.2601 125.687 75.7751 124.707C76.2745 123.752 76.8205 122.817 77.2381 121.819C77.2877 121.707 77.343 121.591 77.3651 121.472C77.3786 121.39 77.3567 121.282 77.3113 121.211C77.2452 121.109 77.1454 121.032 77.0542 120.95C76.5205 120.479 76.0585 119.94 75.6577 119.352C75.3293 118.867 74.9979 118.383 74.6331 117.926C74.3222 117.535 74.0712 117.113 73.8316 116.683C73.4019 115.909 73.2131 115.085 73.3022 114.192C73.3754 113.452 73.4459 112.716 73.7389 112.025C74.0641 111.26 74.417 110.504 74.9305 109.835C75.476 109.124 76.0221 108.419 76.7304 107.852C76.9702 107.66 77.2032 107.459 77.474 107.312C77.9868 107.029 78.496 106.74 79.0449 106.526C79.3311 106.416 79.6154 106.285 79.8865 106.141C80.4033 105.869 80.9368 105.617 81.2696 105.099C81.3378 104.994 81.4462 104.937 81.5803 104.963C81.9002 105.879 82.4556 106.654 83.0503 107.402C83.2633 107.669 83.4586 107.942 83.6092 108.248C83.8694 108.772 84.1269 109.298 84.3296 109.848C84.4252 110.109 84.5526 110.357 84.6824 110.6C84.9202 111.042 85.0555 111.508 85.1039 112.006C85.1977 112.937 85.1767 113.854 84.8173 114.736C84.7367 114.935 84.7219 115.166 84.6124 115.344C84.4072 115.686 84.1769 116.015 83.9204 116.319C83.5798 116.718 83.1933 117.073 82.9749 117.566C82.9127 117.703 82.7972 117.815 82.7104 117.946C82.3396 118.506 81.7864 118.838 81.2124 119.138C81.0212 119.24 80.8146 119.303 80.616 119.39C80.5038 119.439 80.3787 119.478 80.2867 119.552C79.6499 120.083 78.9357 120.519 78.3429 121.105C78.2579 121.19 78.1835 121.293 78.1307 121.403C77.9603 121.765 77.8053 122.132 77.6443 122.5C77.6343 122.522 77.6478 122.571 77.6602 122.576C77.7126 122.592 77.7814 122.625 77.8213 122.603C78.0123 122.499 78.19 122.381 78.3202 122.202C78.6333 121.763 79.0576 121.462 79.5323 121.221C80.3046 120.83 81.0347 120.372 81.7368 119.868C82.1384 119.58 82.523 119.27 82.8979 118.952C83.6727 118.295 84.4406 117.627 85.202 116.953C85.3627 116.813 85.5151 116.646 85.6243 116.466C85.9072 115.991 86.1895 115.511 86.4314 115.013C86.6853 114.485 86.9175 113.946 87.2502 113.461C87.5329 113.05 87.6846 112.581 87.8582 112.221C87.8725 111.984 87.7834 111.893 87.7006 111.805C87.3593 111.441 87.0918 111.035 86.952 110.551C86.9088 110.406 86.8583 110.246 86.7671 110.131C86.5407 109.847 86.4993 109.525 86.4709 109.18C86.3862 108.252 86.4639 107.333 86.6412 106.422C86.756 105.843 86.9636 105.298 87.2297 104.771C87.5365 104.166 87.8779 103.578 88.2352 103.002C88.483 102.602 88.7832 102.252 89.1357 101.95C90.2296 101.019 91.4666 100.344 92.8604 99.9776C93.1614 99.8993 93.453 99.8158 93.7378 99.6912C94.5036 99.3611 95.3137 99.1556 96.1119 98.9183C96.3449 98.8492 96.5969 98.8232 96.8388 98.7862C97.0217 98.7576 97.2057 98.7408 97.3889 98.7151C97.6875 98.6759 98.0009 98.438 98.2753 98.6253C98.5273 98.7968 98.5193 99.1684 98.6432 99.4442C98.8572 99.9212 99.0138 100.424 99.1877 100.92C99.2484 101.094 99.3068 101.274 99.3203 101.455C99.4232 102.879 99.3666 104.292 99.0419 105.686C98.9796 105.955 98.8745 106.213 98.7815 106.472C98.7505 106.559 98.6825 106.634 98.6575 106.72C98.4462 107.487 97.9907 108.103 97.4818 108.691C97.3817 108.807 97.2979 108.938 97.2234 109.073C97.2027 109.108 97.2364 109.183 97.2588 109.231C97.2666 109.252 97.316 109.268 97.3422 109.26C97.521 109.219 97.7069 109.191 97.8809 109.13C98.4891 108.91 99.1168 108.739 99.7013 108.455C99.8359 108.389 99.9913 108.354 100.141 108.326C100.459 108.264 100.551 108.094 100.549 107.804C100.542 107.335 100.624 106.894 100.775 106.446C100.902 106.07 100.961 105.667 101.006 105.271C101.033 105.017 101.103 104.792 101.214 104.57C101.446 104.1 101.673 103.628 101.915 103.163C102.322 102.378 102.883 101.741 103.694 101.347C104.052 101.173 104.387 100.939 104.756 100.789C105.154 100.627 105.574 100.511 105.993 100.41C106.713 100.237 107.441 100.113 108.19 100.153C108.65 100.177 109.112 100.135 109.574 100.206C109.844 100.247 110.132 100.227 110.404 100.193C110.786 100.143 111.143 100.222 111.499 100.321C111.646 100.361 111.795 100.413 111.935 100.472C112.535 100.72 113.139 100.946 113.79 101.03C113.968 101.053 114.141 101.142 114.315 101.206C114.689 101.346 115.069 101.479 115.439 101.63C116.328 101.992 117.237 102.277 118.181 102.457C118.235 102.467 118.285 102.513 118.357 102.558C118.295 102.662 118.239 102.769 118.17 102.868C118.046 103.05 117.977 103.244 117.974 103.472C117.968 104.035 117.808 104.567 117.585 105.081C117.378 105.563 117.176 106.045 116.913 106.5C116.76 106.765 116.643 107.054 116.5 107.327C116.361 107.6 116.215 107.871 116.06 108.136C115.635 108.86 115.103 109.488 114.465 110.043C113.955 110.487 113.462 110.951 112.996 111.448C112.554 111.919 112.013 112.289 111.443 112.604C111.147 112.768 110.844 112.922 110.593 113.157C110.408 113.329 110.198 113.45 109.948 113.5C109.763 113.538 109.601 113.627 109.463 113.757C109.245 113.962 108.978 114.016 108.692 113.997C108.322 113.974 107.955 113.918 107.585 114C107.202 113.897 106.799 113.913 106.433 113.704C106.089 113.508 105.698 113.388 105.319 113.267C104.663 113.055 104.109 112.657 103.529 112.309C103.273 112.153 103.076 111.895 102.853 111.682C102.433 111.275 102.004 110.874 101.595 110.454C101.229 110.078 100.895 109.671 100.737 109.153C100.712 109.066 100.668 108.98 100.63 108.897C100.585 108.796 100.42 108.722 100.322 108.761C99.6305 109.024 98.936 109.282 98.2519 109.557C97.8219 109.73 97.3941 109.895 96.9358 109.988C96.6391 110.048 96.3526 110.187 96.0737 110.312C95.8207 110.424 95.5753 110.554 95.3371 110.699C94.6933 111.087 93.9771 111.271 93.2563 111.439C92.5356 111.606 91.8142 111.768 91.094 111.941C90.523 112.077 89.9446 112.166 89.3576 112.192C89.1461 112.203 89.0161 112.319 88.9239 112.489C88.6758 112.951 88.4369 113.416 88.1953 113.883C87.511 115.205 86.6643 116.419 85.7115 117.553C85.3363 118 84.8867 118.385 84.4525 118.774C83.9463 119.227 83.4228 119.655 82.9033 120.094C82.7423 120.231 82.578 120.366 82.42 120.503C82.4116 120.51 82.4189 120.557 82.4354 120.573C82.4553 120.595 82.4902 120.616 82.5169 120.614C83.2045 120.575 83.8654 120.703 84.514 120.925C84.5418 120.934 84.5736 120.923 84.6332 120.92C84.8342 120.827 85.0513 120.715 85.2828 120.628C85.5978 120.506 85.9129 120.352 86.2436 120.304C87.1381 120.171 87.9702 119.847 88.8143 119.555C88.9883 119.494 89.1668 119.451 89.3451 119.405C89.5526 119.35 89.6507 119.212 89.6558 119.006C89.6683 118.257 89.9122 117.552 90.0618 116.83C90.145 116.431 90.333 116.063 90.5768 115.751C91.3559 114.747 92.2175 113.828 93.3755 113.238C93.7358 113.055 94.1054 112.908 94.4984 112.821C95.0703 112.694 95.6389 112.565 96.2346 112.6C96.5715 112.62 96.9111 112.571 97.2491 112.537C97.7147 112.492 98.1682 112.543 98.6277 112.627C99.2759 112.747 99.8811 112.952 100.388 113.391C100.482 113.472 100.579 113.55 100.686 113.609C101.18 113.875 101.604 114.228 101.999 114.623C102.131 114.751 102.266 114.888 102.424 114.979C102.859 115.223 103.227 115.549 103.578 115.896C103.927 116.244 104.341 116.518 104.652 116.911C104.798 117.092 105.021 117.21 105.198 117.346C105.185 117.535 105.088 117.658 104.995 117.78C104.646 118.252 104.354 118.754 104.119 119.296C103.899 119.803 103.642 120.302 103.343 120.766C102.431 122.177 101.329 123.412 99.8745 124.298C99.3472 124.618 98.8471 124.975 98.2699 125.207C97.8718 125.369 97.4464 125.462 97.0831 125.71C96.993 125.772 96.8441 125.78 96.7264 125.769C96.0814 125.718 95.4367 125.702 94.7924 125.593C93.7808 125.425 92.9433 124.936 92.1889 124.275C92.1206 124.215 92.0542 124.144 92.0054 124.067C91.708 123.595 91.3129 123.2 90.946 122.785C90.6588 122.458 90.4143 122.107 90.2033 121.728C90.0705 121.486 89.8895 121.272 89.7537 121.03C89.5721 120.712 89.2996 120.644 88.9667 120.701C88.9049 120.713 88.845 120.713 88.783 120.721C88.0274 120.868 87.2683 121.009 86.5171 121.17C86.2177 121.233 85.9177 121.323 85.6623 121.508C85.6202 121.539 85.5819 121.611 85.5838 121.665C85.5884 121.715 85.6305 121.783 85.6748 121.809C85.7789 121.869 85.8925 121.933 86.0082 121.955C86.4682 122.045 86.8858 122.228 87.3129 122.417C87.9019 122.674 88.5111 122.891 89.1162 123.128C89.1834 123.308 89.1252 123.49 89.06 123.66C88.9061 124.072 88.8514 124.49 88.8766 124.93C88.898 125.329 88.8779 125.731 88.8486 126.132C88.8319 126.343 88.7826 126.557 88.7144 126.76C88.4947 127.435 88.2872 128.112 88.024 128.77C87.8782 129.14 87.6878 129.513 87.4305 129.809C86.7833 130.553 86.176 131.341 85.4273 131.989C84.4318 132.852 83.2586 133.111 81.9686 132.876C81.1827 132.592 80.4116 132.273 79.7635 131.728C79.1966 131.253 78.6186 130.789 78.1496 130.206C77.9775 129.992 77.7605 129.811 77.5549 129.623C77.1181 129.23 76.7144 128.806 76.4221 128.291C76.1617 127.83 75.7758 127.471 75.4207 127.087C75.391 127.057 75.2953 127.057 75.2497 127.082C75.1698 127.125 75.0884 127.183 75.0382 127.257C74.7742 127.643 74.4349 127.958 74.1183 128.292C73.5263 128.92 72.9249 129.543 72.3559 130.193C71.9494 130.658 71.5978 131.166 71.2043 131.641C70.6547 132.308 70.086 132.961 69.5296 133.619C69.3921 133.784 69.2329 133.942 69.1302 134.128C68.6683 134.968 68.0472 135.704 67.5535 136.524C67.0751 137.315 66.6065 138.114 66.1057 138.89C65.7047 139.513 65.2781 140.117 64.8323 140.708C64.3868 141.302 64.008 141.938 63.6291 142.573C63.3153 143.101 63.0335 143.654 62.7576 144.205C62.4508 144.81 62.1189 145.403 61.7489 145.972C61.4631 146.414 61.2274 146.881 61.0295 147.369C61.015 147.406 61.0662 147.476 61.0946 147.524C61.0951 147.53 61.1534 147.513 61.1758 147.496C61.4223 147.312 61.6788 147.139 61.9083 146.933C62.3922 146.497 62.9205 146.123 63.48 145.793C64.2781 145.326 65.063 144.844 65.9477 144.539C66.4699 144.36 66.9668 144.099 67.4615 143.848C67.8758 143.634 68.2998 143.46 68.764 143.4C68.8234 143.395 68.8803 143.363 68.9383 143.342C69.0427 143.306 69.147 143.171 69.143 143.061C69.1245 142.629 69.0947 142.204 68.9579 141.785C68.5818 140.614 68.5475 139.418 68.8064 138.222C69.0215 137.233 69.5044 136.394 70.3224 135.751C71.0315 135.192 71.7754 134.721 72.6343 134.427C73.0783 134.276 73.536 134.21 73.9919 134.157C74.4508 134.103 74.915 134.108 75.3777 134.096C75.5002 134.094 75.6245 134.113 75.7435 134.138C76.4695 134.29 77.1806 134.476 77.8659 134.773C78.5169 135.054 79.1453 135.383 79.7761 135.705C80.115 135.878 80.3851 136.116 80.6101 136.419C81.0948 137.074 81.1207 137.096 81.085 137.853C81.0681 138.225 81.0865 138.592 81.123 138.959C81.1972 139.739 81.0832 140.491 80.8582 141.238C80.4859 142.472 79.7824 143.517 79.0448 144.55C78.8299 144.851 78.6088 145.149 78.3682 145.432C78.1495 145.691 77.9143 145.934 77.6727 146.171C77.4286 146.415 77.1295 146.579 76.8001 146.675C76.1179 146.872 75.4379 147.06 74.7222 147.119C74.2234 147.162 73.7322 147.123 73.2474 147.056C72.5597 146.963 71.9594 146.647 71.4071 146.234C71.2595 146.125 71.13 145.984 70.977 145.881C70.5367 145.581 70.1678 145.21 69.9465 144.719C69.7443 144.274 69.4117 144.203 68.9593 144.262C68.3974 144.334 67.8757 144.519 67.3683 144.73C65.8864 145.344 64.4193 145.989 63.0443 146.823C62.0633 147.418 61.184 148.144 60.3919 148.973C60.2474 149.127 60.1333 149.32 60.043 149.511C59.696 150.233 59.4108 150.977 59.21 151.761C58.7634 153.492 58.2769 155.211 57.7724 156.929C57.4753 157.937 57.2301 158.955 57.0429 159.986C56.8651 160.957 56.6536 161.918 56.3838 162.864C56.2137 163.46 56.0887 164.058 56.0192 164.674C55.9713 165.1 55.8479 165.518 55.7517 165.94C55.7086 166.123 55.6142 166.171 55.3304 166.176L55.3482 166.174L55.3344 166.154Z" fill="url(#paint1_linear_401_10824)"/>
<circle cx="498" cy="260" r="260" fill="url(#paint2_linear_401_10824)"/>
<g clip-path="url(#clip0_401_10824)">
<path d="M741.405 -11.1343H250.9V478.443H741.405V-11.1343Z" stroke="white" stroke-width="1.2283" stroke-miterlimit="10"/>
<path d="M639.861 278.109C641.384 255.1 623.755 252.554 611.583 238.84C598.551 224.159 618.96 194.572 581.075 192.341C563.099 191.28 579.762 168.07 565.321 154.12C557.68 146.74 544.06 152.231 542.101 137.979C541.539 133.886 545.526 122.951 534.716 119.844C525.565 117.21 522.421 108.76 520.705 98.3603C519.892 93.4473 517.982 88.758 514.935 84.8136C495.567 59.7319 456.404 78.5246 459.425 112.284C462.231 143.646 438.116 118.84 439.701 153.853C439.222 163.179 410.664 166.229 410.374 192.705C410.374 193.007 410.396 193.309 410.414 193.612C410.98 204.187 384.709 206.69 393.452 230.584C394.246 268.984 366.039 246.378 359.071 270.22C357.96 274.028 358.043 278.078 359.159 281.886C364.682 300.732 355.519 295.218 348.269 307.959C344.146 315.207 343.149 323.819 345.213 331.896C374.918 447.992 499.119 380.307 585.286 399.196C622.723 408.504 644.243 400.147 663.984 381.477C672.428 373.492 679.23 340.775 656.761 328.263C643.097 320.655 638.574 297.48 639.856 278.122L639.861 278.109Z" fill="url(#paint3_linear_401_10824)"/>
<path d="M564.218 182.585C575.577 170.836 597.023 148.283 598.941 142.095C599.771 139.412 599.53 135.779 604.522 131.081C607.837 127.961 609.664 124.722 610.516 122.894C610.902 122.066 612.075 122.044 612.496 122.855C613.168 124.143 613.409 126.4 611.131 130.056C611.131 130.056 615.306 129.113 618.398 127.641C623.416 125.252 633.125 122.136 632.58 124.766C632.58 124.766 637.305 123.074 638.31 124.617C639.092 125.822 638.31 127.089 638.31 127.089C638.31 127.089 640.436 127.834 638.288 129.845C636.694 131.34 627.583 134.754 621.414 137.839C621.414 137.839 621.269 138.72 625.823 138.282C630.376 137.843 635.518 137.988 635.961 138.869C636.405 139.75 632.435 139.899 622.591 142.248C612.746 144.597 604.887 151.942 601.765 157.964C598.643 163.986 581.299 201.247 569.623 212.094C569.623 212.094 559.564 209.074 550.457 201.29C550.457 201.29 559.384 182.927 559.419 182.489C559.818 177.716 564.218 182.59 564.218 182.59V182.585Z" fill="#FEE2CC"/>
<path d="M375.277 357.391C369.89 375.005 359.769 391.15 346.258 403.689C338.833 410.578 329.91 417.183 327.667 427.048C326.797 430.861 327.043 434.862 326.165 438.675C325.287 442.488 322.815 446.38 318.964 447.112C316.312 447.616 313.651 446.525 310.972 446.157C306.99 445.613 302.994 446.691 299.029 447.366C289.712 448.961 280.016 448.321 270.984 445.525C271.555 442.931 275.02 442.572 277.676 442.366C284.794 441.813 291.363 438.237 296.979 433.841C302.595 429.441 307.477 424.186 312.882 419.532C315.978 416.868 319.254 414.391 322.059 411.424C326.095 407.16 329.041 402.01 332.198 397.063C341.52 382.451 352.945 369.207 361.499 354.135C364.265 352.899 366.289 351.128 369.249 350.48C370.693 350.16 372.239 349.923 373.626 350.432C375.014 350.94 375.708 355.971 375.277 357.382V357.391Z" fill="url(#paint4_linear_401_10824)"/>
<path d="M460.561 286.866C462.265 278.101 463.964 269.34 465.668 260.575C466.507 256.249 467.35 251.924 467.916 247.554C470.046 231.225 469.159 218.107 467.464 201.73C465.826 206.91 465.22 209.022 462.722 214.233C453.523 211.069 442.523 209.307 432.951 211.056C437.891 196.65 443.204 182.367 448.881 168.233C450.532 164.118 452.227 159.998 454.489 156.186C456.043 153.565 457.892 151.067 460.315 149.217C461.756 148.122 463.367 147.271 464.996 146.482C470.638 143.752 476.584 141.644 482.687 140.22C492.703 137.879 502.692 141.854 512.686 139.418C512.686 139.418 528.335 136.407 547.901 158.925L566.545 177.993C566.545 177.993 554.575 197.75 552.274 208.781C552.274 208.781 539.857 199.122 530.838 187.894C530.838 187.894 535.808 195.883 527.558 210.14C521.476 220.645 566.545 377.468 566.545 377.468H441.773L460.561 286.862V286.866Z" fill="url(#paint5_linear_401_10824)"/>
<path d="M466.992 448.104H384.367C384.367 448.104 374.448 442.215 377.535 427.286C380.623 412.357 389.192 393.395 449.885 371.441L492.555 370.789L506.347 434.176L495.208 448.104H466.987H466.992Z" fill="url(#paint6_linear_401_10824)"/>
<path d="M547.339 349.904C533.336 364.157 529.67 387.503 538.632 405.349C540.124 408.32 541.96 411.178 544.441 413.395C549.587 417.988 556.797 419.29 563.611 420.412C557.851 428.967 559.55 441.702 567.352 448.456H683.373C683.373 448.456 704.077 442.741 705.969 424.641C707.862 406.541 692.994 399.638 679.733 394.668C679.733 394.668 683.716 383.186 658.991 375.665C634.266 368.145 598.339 370.38 598.339 370.38L547.334 349.9L547.339 349.904Z" fill="url(#paint7_linear_401_10824)"/>
<path d="M683.621 396.181C683.621 396.181 627.843 372.318 590.582 371.621L598.345 370.389C598.345 370.389 665.776 363.71 683.621 391.474V396.185V396.181Z" fill="url(#paint8_linear_401_10824)"/>
<path d="M486.306 173.268C482.569 162.758 496.809 163.99 492.041 174.968C497.332 165.392 507.224 177.155 496.357 179.399C508.226 176.949 502.803 192.24 495.347 185.513C501.824 191.359 487.808 198.007 488.475 187.998C486.231 197.004 474.156 188.861 482.183 184.93C472.721 189.562 472.44 173.715 482.183 177.506C471.504 173.347 484.326 163.179 486.306 173.263V173.268Z" fill="white"/>
<path d="M451.811 127.496C450.581 126.94 449.571 126.103 448.952 124.932C447.675 124.95 446.45 124.783 445.282 124.455C445.211 124.437 445.145 124.42 445.08 124.398C445.053 124.389 445.031 124.38 445.005 124.376C442.441 123.626 440.285 122.189 438.739 120.462C437.593 119.301 436.574 117.955 435.701 116.474C436.148 117.6 436.798 118.472 436.798 118.472C425.386 105.574 432.895 94.6048 432.895 94.6048C432.754 95.5207 432.697 96.4542 432.693 97.3877C432.732 97.2124 432.772 97.0371 432.816 96.8618C432.978 94.5303 433.514 92.0935 434.607 89.6831C437.637 83.0084 440.864 82.408 442.243 82.5088C442.796 82.0836 443.367 81.6848 443.947 81.3079C448.061 75.5273 453.286 77.6134 453.286 77.6134C457.51 74.2475 461.462 77.5564 461.462 77.5564C461.462 77.5564 466.235 74.4316 468.558 79.8792C468.558 79.8792 476.132 77.3504 476.457 86.2822C483.232 85.4057 481.296 95.9897 481.296 95.9897C485.098 103.764 482.745 110.15 478.859 114.896C473.098 125.06 459.728 132.221 451.824 127.501L451.811 127.496Z" fill="url(#paint9_radial_401_10824)"/>
<path d="M466.051 124.603C466.051 124.603 467.526 127.614 461.15 128.56C461.15 128.56 486.31 123.029 483.346 103.663C483.346 103.663 483.588 115.382 466.051 124.603Z" fill="url(#paint10_linear_401_10824)"/>
<path d="M436.409 112.538C436.409 112.538 429.524 100.924 434.573 89.8051C438.56 81.0224 442.894 82.7579 442.894 82.7579C442.894 82.7579 436.83 93.9642 441.006 108.348C441.006 108.348 435.223 107.594 436.409 112.533V112.538Z" stroke="white" stroke-width="1.2283" stroke-linecap="round" stroke-linejoin="round"/>
<path d="M447.235 107.451C447.235 107.451 443.63 83.4471 453.251 77.7366C453.251 77.7366 446.489 75.0325 442.295 84.2755C442.295 84.2755 436.754 96.6476 441.004 108.349C441.004 108.349 443.674 104.173 447.235 107.446V107.451Z" stroke="white" stroke-width="1.2283" stroke-linecap="round" stroke-linejoin="round"/>
<path d="M453.776 108.616C453.776 108.616 455.313 90.9539 461.425 77.679C461.425 77.679 457.473 74.3745 453.249 77.7359C449.289 80.8914 445.311 84.9015 447.234 107.45C447.234 107.45 451.115 104.926 453.776 108.616Z" stroke="white" stroke-width="1.2283" stroke-linecap="round" stroke-linejoin="round"/>
<path d="M432.864 94.729C432.864 94.729 425.36 105.699 436.767 118.597C436.767 118.597 433.61 114.354 436.407 112.54C436.407 112.54 431.621 102.907 432.859 94.729H432.864Z" stroke="white" stroke-width="1.2283" stroke-linecap="round" stroke-linejoin="round"/>
<path d="M461.426 77.6786C461.426 77.6786 466.199 74.5538 468.522 80.0014C468.522 80.0014 465.497 100.438 458.515 110.631C458.515 110.631 458.045 106.429 453.777 108.615C453.777 108.615 456.285 85.2299 461.426 77.6786Z" stroke="white" stroke-width="1.2283" stroke-linecap="round" stroke-linejoin="round"/>
<path d="M468.523 80.0029C468.523 80.0029 476.097 77.4741 476.422 86.4059C476.422 86.4059 472.957 108.976 462.845 113.696C462.845 113.696 463.903 109.384 458.516 110.637C458.516 110.637 467.622 94.987 468.523 80.0073V80.0029Z" stroke="white" stroke-width="1.2283" stroke-linecap="round" stroke-linejoin="round"/>
<path d="M466.454 118.652C466.454 118.652 479.582 112.109 481.255 96.1121C481.255 96.1121 483.192 85.5281 476.417 86.4046C476.417 86.4046 472.605 110.163 462.84 113.695C462.84 113.695 467.406 113.818 466.449 118.656L466.454 118.652Z" stroke="white" stroke-width="1.2283" stroke-linecap="round" stroke-linejoin="round"/>
<path d="M466.051 124.603C466.051 124.603 489.744 112.537 481.257 96.1113C481.257 96.1113 482.328 108.497 466.455 118.651C466.455 118.651 468.703 121.092 466.051 124.603V124.603Z" stroke="white" stroke-width="1.2283" stroke-linecap="round" stroke-linejoin="round"/>
<path d="M428.249 143.676C427.942 142.365 427.314 141.213 426.282 140.38C426.545 139.136 426.62 137.9 426.524 136.69C426.519 136.62 426.515 136.55 426.506 136.48C426.506 136.453 426.502 136.427 426.497 136.401C426.26 133.745 425.263 131.356 423.863 129.507C422.945 128.161 421.816 126.904 420.53 125.76C421.549 126.417 422.282 127.224 422.282 127.224C411.81 113.554 399.577 118.778 399.577 118.778C400.503 118.818 401.434 118.94 402.352 119.12C402.172 119.12 401.992 119.129 401.812 119.138C399.484 118.848 396.99 118.897 394.408 119.501C387.26 121.176 386.048 124.221 385.877 125.589C385.354 126.049 384.849 126.527 384.366 127.026C377.89 129.936 378.926 135.458 378.926 135.458L378.935 135.45V135.458C374.803 138.943 377.288 143.452 377.288 143.452C377.288 143.452 373.293 147.519 378.197 150.85C378.197 150.85 374.245 157.775 382.961 159.821C380.788 166.286 391.568 166.439 391.568 166.439H391.581L391.594 166.448L391.568 166.439C394.184 170.405 406.663 172.115 412.077 169.227C430.431 160.724 428.245 148.295 428.245 143.68L428.249 143.676Z" fill="url(#paint11_radial_401_10824)"/>
<path d="M430.375 143.087L437.831 142.245L436.961 134.571L408.095 137.823C407.028 137.942 406.356 139.76 406.598 141.877C406.839 143.994 407.898 145.615 408.965 145.497L430.375 143.087Z" fill="url(#paint12_linear_401_10824)"/>
<path d="M437.832 142.243C438.899 142.123 439.571 140.307 439.331 138.188C439.091 136.069 438.032 134.449 436.964 134.569C435.897 134.69 435.226 136.505 435.465 138.624C435.705 140.743 436.764 142.363 437.832 142.243Z" fill="white" stroke="black" stroke-width="1.2283" stroke-linecap="round" stroke-linejoin="round"/>
<path d="M444.757 122.505L441.209 130.065L448.217 133.339L458.817 111.005C459.273 110.514 457.416 109.585 455.479 108.678C453.543 107.77 452.195 107.599 451.954 107.858L444.757 122.505Z" fill="url(#paint13_linear_401_10824)"/>
<path d="M448.208 133.325C448.716 132.242 447.559 130.631 445.624 129.727C443.689 128.823 441.709 128.968 441.201 130.051C440.693 131.133 441.85 132.744 443.785 133.648C445.719 134.553 447.7 134.408 448.208 133.325Z" fill="white" stroke="black" stroke-width="1.2283" stroke-linecap="round" stroke-linejoin="round"/>
<path d="M433.778 138.021C433.778 138.021 429.575 129.922 432.956 126.71C436.337 123.497 446.617 127.1 459.543 142.009C472.47 156.919 552.069 266.568 552.069 266.568L546.079 289.077C546.079 289.077 442.968 158.107 433.782 138.017L433.778 138.021Z" fill="url(#paint14_linear_401_10824)"/>
<path d="M416.529 125.701C416.529 125.701 406.443 116.712 394.54 119.504C385.134 121.708 386.004 126.288 386.004 126.288C386.004 126.288 398.193 122.519 411.524 129.396C411.524 129.396 411.901 123.589 416.529 125.705V125.701Z" stroke="white" stroke-width="1.2283" stroke-linecap="round" stroke-linejoin="round"/>
<path d="M409.43 135.315C409.43 135.315 386.536 127.137 379.058 135.455C379.058 135.455 377.71 128.311 387.607 125.993C387.607 125.993 400.841 122.96 411.52 129.39C411.52 129.39 406.896 131.195 409.43 135.315V135.315Z" stroke="white" stroke-width="1.2283" stroke-linecap="round" stroke-linejoin="round"/>
<path d="M409.311 141.949C409.311 141.949 391.655 140.034 377.42 143.448C377.42 143.448 374.934 138.938 379.062 135.454C382.93 132.185 387.642 129.064 409.434 135.314C409.434 135.314 406.198 138.623 409.315 141.949H409.311Z" stroke="white" stroke-width="1.2283" stroke-linecap="round" stroke-linejoin="round"/>
<path d="M399.707 118.78C399.707 118.78 411.94 113.556 422.412 127.225C422.412 127.225 418.851 123.311 416.529 125.7C416.529 125.7 407.984 119.148 399.707 118.78V118.78Z" stroke="white" stroke-width="1.2283" stroke-linecap="round" stroke-linejoin="round"/>
<path d="M377.419 143.449C377.419 143.449 373.423 147.516 378.328 150.846C378.328 150.846 399 151.837 410.373 146.977C410.373 146.977 406.333 145.706 409.31 141.95C409.31 141.95 385.837 139.877 377.419 143.449Z" stroke="white" stroke-width="1.2283" stroke-linecap="round" stroke-linejoin="round"/>
<path d="M378.329 150.848C378.329 150.848 374.377 157.772 383.093 159.819C383.093 159.819 405.952 160.796 412.543 151.808C412.543 151.808 408.1 152.005 410.374 146.978C410.374 146.978 393.228 152.868 378.329 150.848V150.848Z" stroke="white" stroke-width="1.2283" stroke-linecap="round" stroke-linejoin="round"/>
<path d="M416.722 156.308C416.722 156.308 407.747 167.9 391.702 166.441C391.702 166.441 380.923 166.287 383.096 159.823C383.096 159.823 407.185 160.691 412.546 151.812C412.546 151.812 411.782 156.308 416.722 156.308V156.308Z" stroke="white" stroke-width="1.2283" stroke-linecap="round" stroke-linejoin="round"/>
<path d="M422.646 158.127C422.646 158.127 409.43 176.815 391.699 166.437C391.699 166.437 403.669 169.886 416.719 156.304C416.719 156.304 418.686 160.043 422.646 158.127Z" stroke="white" stroke-width="1.2283" stroke-linecap="round" stroke-linejoin="round"/>
<path d="M552.063 266.573C552.063 266.573 472.461 156.925 459.538 142.015C455.758 137.655 452.205 134.267 448.982 131.725L458.814 111.004C459.27 110.513 457.413 109.584 455.477 108.677C453.54 107.774 452.192 107.599 451.951 107.857L444.754 122.504L442.431 127.456C437.939 125.208 434.611 125.138 432.947 126.716C430.888 128.666 431.638 132.431 432.543 135.078L408.086 137.834C407.019 137.953 406.347 139.771 406.588 141.888C406.83 144.005 407.888 145.627 408.955 145.508L430.365 143.098L436.183 142.445C454.252 172.47 546.065 289.091 546.065 289.091L552.055 266.582L552.063 266.573Z" stroke="white" stroke-width="1.2283" stroke-miterlimit="10"/>
<path d="M549.803 285.822L553.566 281.334L435.512 125.659C434.445 125.76 433.58 126.119 432.956 126.711C432.069 127.552 431.705 128.736 431.652 130.015L549.807 285.817L549.803 285.822Z" fill="url(#paint15_linear_401_10824)"/>
<path d="M500.946 197.956C501.139 197.579 501.385 197.158 501.802 197.088C502.166 197.027 502.527 197.276 502.707 197.596C502.887 197.916 502.922 198.298 502.944 198.666C503.089 201.054 502.759 203.592 501.315 205.503C500.7 206.318 499.91 206.979 499.128 207.632C498.434 208.211 496.976 209.907 495.923 209.333C494.755 208.697 495.668 207.225 496.116 206.484C497.806 203.684 499.457 200.875 500.946 197.96V197.956Z" fill="#F9CCA7"/>
<path d="M436.267 211.043C436.267 211.043 430.133 233.526 432.557 241.038C434.981 248.549 452.009 259.567 482.113 231.738L499.413 218.919C499.413 218.919 508.766 213.098 513.442 214.146L516.397 216.714C516.397 216.714 517.925 211.385 516.397 210.241C516.397 210.241 516.779 206.148 514.109 206.051C514.109 206.051 513.921 202.146 510.772 202.624C510.772 202.624 510.772 198.531 507.817 199.197C504.862 199.863 491.887 210.907 491.887 210.907C491.887 210.907 478.833 218.27 458.209 224.506L462.758 213.997C462.758 213.997 455.372 211.354 449.37 210.714C444.263 210.171 438.946 210.688 436.267 211.043Z" fill="#FEE2CC"/>
<path d="M614.986 207.452C615.707 206.313 616.014 204.954 615.913 203.609C615.127 193.349 606.24 184.549 595.895 189.151C593.655 190.146 592.768 188.375 589.414 188.949C582.823 190.08 580.281 192.201 576.948 196.154C569.843 204.577 568.623 210.81 571.209 222.196C572.074 227.91 575.376 234.55 581.703 235.238C572.715 238.608 557.707 257.905 564.302 266.613C585.449 274.274 598.31 253.72 603.447 236.15C608.545 228.932 616.756 243.158 618.262 218.177C619.628 213.825 612.589 211.261 614.995 207.448L614.986 207.452Z" fill="#C69024"/>
<path d="M571.938 412.831H620.374L572.333 409.921L571.938 412.831Z" fill="#057C49"/>
<path d="M620.373 130.249L623.025 129.171C626.064 127.935 629.809 125.989 632.852 124.762" fill="white"/>
<path d="M620.373 130.249L623.025 129.171C626.064 127.935 629.809 125.989 632.852 124.762" stroke="#AB8360" stroke-width="1.2283" stroke-miterlimit="10"/>
<path d="M643.409 292.722L652.573 332.901L684.262 387.943C684.262 387.943 691.757 390.011 697.492 392.86C699.683 393.947 701.29 395.932 701.927 398.286L705.584 416.364C705.584 416.364 701.558 403.983 694.585 401.708L679.739 394.67C679.739 394.67 639.993 354.652 635.189 342.762C630.386 330.872 627.158 305.633 627.158 305.633L643.409 292.722Z" fill="#FEE2CC"/>
<path d="M340.527 247.046L349.963 320.191C350.314 322.909 352.079 326.559 354.613 327.611C360.023 329.851 370.157 330.561 381.608 322.054C381.608 322.054 374.328 302.49 369.999 300.925L368.76 300.342L349.133 240.888C349.133 240.888 349.752 234.901 348.136 230.869C346.52 226.837 344.246 224.234 343.996 224.234C343.745 224.234 340.443 219.124 339.205 215.333C339.205 215.333 336.746 215.578 336.562 218.134C336.377 220.689 338.046 225.058 337.717 226.456C337.387 227.854 314.515 224.891 314.515 224.891C314.515 224.891 309.839 224.449 311.169 226.785C311.169 226.785 306.598 226.552 307.165 228.932C307.165 228.932 308.175 229.839 308.671 229.839C308.846 229.839 308.702 229.839 308.438 229.839C307.296 229.839 306.168 230.229 305.329 231.005C304.745 231.54 304.434 232.145 305.268 232.561C305.268 232.561 332.039 237.088 336.088 239.477C336.088 239.477 339.824 241.309 340.523 247.046H340.527Z" fill="#FEE2CC"/>
<path d="M585.743 249.727L568.803 250.7C562.797 251.046 552.803 254.469 545.25 282.417C537.698 310.365 536.363 315.909 536.363 315.909C536.363 315.909 553.918 313.025 564.36 314.357C564.36 314.357 560.803 340.749 545.47 350.067C545.47 350.067 562.112 378.514 598.345 370.389C598.345 370.389 604.905 349.909 625.244 309.699L627.909 326.554C627.909 326.554 643.115 315.808 652.573 312.964C652.573 312.964 645.684 285.524 641.464 270.663C637.244 255.801 620.713 247.154 610.688 248.605L585.743 249.731V249.727Z" fill="url(#paint16_linear_401_10824)"/>
<path d="M661.735 237.514L617.378 433.478C616.272 438.303 614.436 442.931 611.933 447.2L611.736 447.537C611.007 448.777 609.119 448.379 608.952 446.954C608.425 442.388 608.552 437.773 609.321 433.241L630.779 303.875L643.403 234.35L661.731 237.514H661.735Z" fill="url(#paint17_linear_401_10824)" stroke="#264F85" stroke-width="1.2283" stroke-miterlimit="10"/>
<path d="M599.981 286.932C599.48 285.152 597.443 284.162 595.428 284.723C595.322 284.754 595.217 284.793 595.107 284.837C595.164 284.736 595.217 284.635 595.256 284.534C596.073 282.611 595.349 280.467 593.645 279.744C591.937 279.021 589.895 279.998 589.078 281.922C589.034 282.023 588.999 282.128 588.969 282.242C588.925 282.133 588.876 282.032 588.824 281.936C587.827 280.099 585.697 279.328 584.068 280.209C582.439 281.09 581.926 283.294 582.927 285.131C582.979 285.227 583.041 285.323 583.107 285.415C582.997 285.385 582.883 285.354 582.777 285.337C580.718 284.968 578.782 286.152 578.457 287.97C578.132 289.794 579.541 291.564 581.601 291.932C581.706 291.95 581.82 291.963 581.939 291.972C581.842 292.038 581.754 292.108 581.671 292.182C580.099 293.563 579.818 295.807 581.043 297.196C582.268 298.585 584.534 298.594 586.106 297.213C586.189 297.143 586.268 297.06 586.343 296.977C586.338 297.091 586.334 297.205 586.343 297.314C586.444 299.4 588.025 301.017 589.877 300.93C591.73 300.842 593.149 299.076 593.048 296.99C593.043 296.88 593.03 296.771 593.008 296.652C593.096 296.731 593.184 296.801 593.272 296.867C594.971 298.09 597.223 297.862 598.308 296.363C599.393 294.864 598.896 292.655 597.197 291.433C597.109 291.367 597.013 291.31 596.912 291.253C597.026 291.236 597.14 291.209 597.245 291.183C599.261 290.622 600.49 288.72 599.99 286.941L599.981 286.932Z" fill="white"/>
<path d="M538.527 315.665C538.527 315.665 531.756 337.863 537.236 342.136C552.275 353.873 610.468 328.392 617.704 327.432C624.94 326.473 636.049 328.274 642.732 326.135C642.732 326.135 649.033 324.124 646.89 319.969C646.89 319.969 649.973 316.432 647.334 314.561C647.334 314.561 651.299 310.914 649.033 308.898C649.033 308.898 652.818 307.29 647.145 302.381C647.145 302.381 645.13 304.104 646.012 305.633C646.895 307.163 634.671 309.547 632.905 308.294C631.939 307.61 630.218 306.089 630.789 303.876C632.374 297.749 632.146 295.343 632.146 294.957C632.146 294.374 629.595 300.019 624.787 303.727C623.873 304.433 623.026 305.226 622.323 306.142C621.116 307.711 619.381 310.261 618.455 312.961C616.944 317.366 587.969 318.374 575.332 320.289L562.971 321.13L564.359 314.35C564.359 314.35 550.396 311.896 538.527 315.661V315.665Z" fill="#FEE2CC"/>
<path d="M411.463 252.702C411.463 252.702 411.367 260.77 410.427 268.05C410.427 268.05 407.45 279.396 412.789 282.49C418.129 285.585 441.054 291.19 441.739 262.668L430.63 245.094C430.63 245.094 412.148 240.492 411.463 252.702Z" fill="#FEE2CC"/>
<path d="M411.256 260.141C411.256 260.141 417.992 260.141 427.59 244.28L423.225 242.365L411.462 252.704L411.26 260.141H411.256Z" fill="#EAB892"/>
<path d="M655.562 180.268L643.408 234.349L661.736 237.513L670.122 181.828L655.562 180.268Z" fill="url(#paint18_linear_401_10824)"/>
<path d="M410.423 268.052C410.423 268.052 394.998 270.59 386.062 283.26L368.104 297.902C368.104 297.902 382.212 319.868 383.055 326.626L400.355 315.363L401.378 325.048C401.703 328.133 403.257 330.987 405.742 332.849C408.228 334.712 411.754 336.342 415.824 335.356L421.194 349.911C421.194 349.911 429.317 360.661 429.884 365.048L426.933 377.477C426.933 377.477 466.535 383.096 490.961 370.391L479.997 345.221V305.638C479.997 305.638 488.164 278.706 470.737 271.203C453.309 263.7 441.726 262.675 441.726 262.675C441.726 262.675 434.103 283.387 418.076 279.508C418.076 279.508 409.545 275.823 410.41 268.052H410.423Z" fill="url(#paint19_linear_401_10824)"/>
<path d="M401.566 224.659C399.669 226.079 398.053 228.165 397.421 230.449C397.056 231.763 396.217 240.967 396.305 246.349C396.314 246.901 396.455 249.517 396.815 249.938C398.619 252.064 406.237 254.097 417.008 252.546C418.721 251.853 422.523 249.846 424.161 244.916C424.706 247.392 428.455 246.976 429.861 246.125C431.595 245.073 433.281 243.794 433.72 241.747C433.865 241.068 433.624 240.555 433.663 239.863C433.711 238.925 432.802 237.641 432.148 236.966C431.634 236.435 430.844 236.291 430.106 236.273C427.959 236.216 426.721 236.944 425.136 238.394C423.217 235.765 420.201 232.969 418.282 230.339C416.35 227.692 415.428 227.057 414.229 224.011C413.026 220.965 411.603 215.408 412.846 212.375C411.507 211.893 409.733 212.055 408.433 212.647C406.251 213.641 399.691 218.239 401.57 224.664L401.566 224.659Z" fill="#FEE2CC"/>
<path d="M399.115 232.338L403.207 228.714C403.571 228.394 404.142 228.648 404.142 229.134V234.319C404.142 235.239 403.576 236.063 402.715 236.396C401.793 236.751 400.748 236.462 400.146 235.682L398.948 234.139C398.522 233.587 398.592 232.802 399.115 232.338Z" fill="#F9CCA7"/>
<path d="M397.949 241.913C395.793 244.608 402.493 247.536 406.498 243.666C406.629 243.539 401.712 241.786 400.746 241.304C399.714 240.786 399.143 240.423 397.944 241.913H397.949Z" fill="#F49C95"/>
<path d="M413.703 242.942C416.067 242.942 417.984 241.412 417.984 239.524C417.984 237.636 416.067 236.105 413.703 236.105C411.339 236.105 409.422 237.636 409.422 239.524C409.422 241.412 411.339 242.942 413.703 242.942Z" fill="#F9CCA7"/>
<path d="M412.143 225.706C413.991 226.534 415.853 227.367 417.829 227.814C417.895 226.951 417.306 226.171 416.661 225.592C415.194 224.282 413.231 223.537 411.264 223.537C410.715 223.537 409.446 223.703 409.802 224.531C410.044 225.088 411.629 225.478 412.147 225.71L412.143 225.706Z" fill="#C69024"/>
<path d="M401.262 221.686C401.262 221.686 402.461 222.274 403.444 222.865C404.002 223.203 404.7 222.738 404.599 222.094C404.568 221.906 404.516 221.7 404.436 221.485C404.068 220.503 402.518 219.648 402.013 219.39C401.92 219.342 401.811 219.377 401.762 219.464C401.538 219.89 400.963 221.082 401.262 221.682V221.686Z" fill="#C69024"/>
<path d="M398.668 233.007C399.094 234.326 401.851 235.453 403.568 235.435C402.795 238.433 398.066 235.093 398.668 233.007Z" fill="#C69024"/>
<path d="M400.555 224.663L401.354 223.638C401.354 223.638 402.043 223.414 403.321 224.843" fill="#FEE2CC"/>
<path d="M400.555 224.663L401.354 223.638C401.354 223.638 402.043 223.414 403.321 224.843" stroke="#C69024" stroke-width="1.2283" stroke-linecap="round" stroke-linejoin="round"/>
<path d="M410.01 228.394L410.317 227.732C410.611 227.101 411.38 226.855 411.981 227.206C413.461 228.065 415.977 229.827 417.009 232.316" stroke="#C69024" stroke-width="1.2283" stroke-linecap="round" stroke-linejoin="round"/>
<path d="M402.708 217.678C402.708 217.678 400.508 212.984 405.255 208.597C410.002 204.21 420.772 199.473 429.914 201.173C429.914 201.173 437.212 201.953 437.638 206.055C437.638 206.055 446.494 207.752 448.268 216.736C450.042 225.72 447.034 236.633 447.034 236.633C447.034 236.633 444.953 239.986 448.826 241.682C452.699 243.378 456.668 243.829 456.102 251.749C456.102 251.749 456.216 255.141 460.523 254.689C464.831 254.238 468.682 261.478 464.603 266.908C460.523 272.338 468.115 274.376 470.381 274.148C472.647 273.92 483.053 280.683 475.027 289.421C475.027 289.421 471.154 296 478.021 296.657C484.888 297.315 494.448 300.387 493.846 309.169C493.244 317.952 507.098 374.576 476.313 369.089C445.528 363.601 463.338 342.311 463.338 342.311C463.338 342.311 463.338 337.043 456.962 336.605C450.587 336.166 446.626 324.842 452.124 320.297C457.621 315.752 452.014 313.478 449.322 312.969C446.631 312.461 436.953 303.411 447.728 293.782C458.504 284.154 440.843 284.149 439.447 282.396C438.051 280.643 429.256 273.473 437.172 262.679C437.172 262.679 430.687 258.156 430.634 245.626C433.765 243.413 433.664 241.16 433.383 239.319C432.975 236.615 429.673 234.889 425.133 238.399C419.697 231.304 409.795 224.537 412.838 212.38C412.838 212.38 408.522 210.53 402.708 217.687V217.678Z" fill="url(#paint20_linear_401_10824)"/>
<path d="M329.743 233.007C329.743 233.007 320.21 229.409 314.498 230.517C313.777 230.658 313.729 231.674 314.427 231.893C316.311 232.49 319.156 233.502 321.602 234.817" stroke="#AB8360" stroke-width="1.2283" stroke-miterlimit="10"/>
<path d="M311.178 226.784L327.253 229.334" stroke="#AB8360" stroke-width="1.2283" stroke-miterlimit="10"/>
<path d="M308.676 229.84L314.081 230.765" stroke="#AB8360" stroke-width="1.2283" stroke-miterlimit="10"/>
<path d="M352.849 187.762C352.831 185.912 352.01 184.164 350.601 182.967L343.145 176.63C342.478 176.064 342.096 175.232 342.096 174.36V172.133H304.294V174.36C304.294 175.232 303.912 176.064 303.245 176.63L295.789 182.967C294.38 184.168 293.559 185.912 293.541 187.762C293.484 193.928 293.453 207.672 293.453 207.672C293.453 215.692 306.771 222.191 323.197 222.191C339.624 222.191 352.941 215.692 352.941 207.672C352.941 207.672 352.91 193.928 352.853 187.762H352.849Z" fill="url(#paint21_linear_401_10824)"/>
<path d="M293.541 187.761C293.484 193.928 293.453 207.672 293.453 207.672C293.453 215.692 306.771 222.191 323.197 222.191C339.624 222.191 352.941 215.692 352.941 207.672C352.941 207.672 352.91 193.928 352.853 187.761L352.52 186.416C352.52 190.395 339.391 193.621 323.197 193.621C307.003 193.621 293.875 190.395 293.875 186.416L293.541 187.761Z" fill="url(#paint22_linear_401_10824)"/>
<path d="M345.82 163.227H300.576V172.136H300.594C300.589 172.189 300.576 172.242 300.576 172.29C300.576 175.213 310.706 177.58 323.198 177.58C335.69 177.58 345.82 175.213 345.82 172.29C345.82 172.237 345.811 172.185 345.803 172.136H345.82V163.227Z" fill="url(#paint23_linear_401_10824)"/>
<path d="M323.198 168.942C335.692 168.942 345.82 166.383 345.82 163.227C345.82 160.071 335.692 157.512 323.198 157.512C310.704 157.512 300.576 160.071 300.576 163.227C300.576 166.383 310.704 168.942 323.198 168.942Z" fill="url(#paint24_linear_401_10824)"/>
<path d="M416.715 233.652C416.522 232.771 413.43 230.277 412.842 229.878C412.148 229.409 411.151 228.888 410.344 228.682C410.216 228.647 408.877 227.678 408.859 227.81C408.851 227.88 409.72 228.634 409.764 228.691C410.216 229.256 409.764 230.728 409.097 231.013C410.045 231.219 410.295 231.408 410.989 231.929C411.959 232.661 415.498 233.669 416.71 233.652H416.715Z" fill="#FFFEFD"/>
<path d="M403.573 227.396C403.573 227.396 402.422 223.807 399.252 224.021C399.252 224.021 400.332 224.333 400.517 224.696C400.517 224.696 400.385 225.1 400.552 225.862C400.552 225.862 399.388 226.489 400.863 226.853C402.339 227.216 403.573 227.396 403.573 227.396Z" fill="#FFFEFD"/>
<path d="M406.44 299.72C403.898 291.091 413.584 292.103 410.339 301.118C413.94 293.256 420.671 302.915 413.277 304.756C421.352 302.744 417.664 315.3 412.592 309.778C417 314.577 407.463 320.038 407.916 311.816C406.388 319.209 398.172 312.522 403.635 309.296C397.193 313.1 397.004 300.088 403.635 303.2C396.368 299.786 405.092 291.437 406.44 299.716V299.72Z" fill="white"/>
<path d="M400.542 315.155L398.426 302.743L392.85 320.247L400.542 315.155Z" fill="#009EDE"/>
<path d="M412.841 212.37C412.841 212.37 421.47 207.251 437.641 206.05L439.841 206.755L436.482 207.316C428.236 208.693 420.174 211.015 412.455 214.237L412.539 213.277L412.841 212.374V212.37Z" fill="#E5AE4C"/>
<path d="M402.552 225.736C402.012 225.136 401.858 224.457 400.862 224.159C400.831 224.224 400.186 224.33 400.164 224.4C400.322 224.492 400.458 224.593 400.515 224.698C400.515 224.698 400.155 225.184 400.15 225.798C400.33 226.324 400.717 226.709 401.204 226.753C401.775 226.81 402.306 226.381 402.557 225.736H402.552Z" fill="#C69024"/>
<path d="M412.6 230.43C412.679 230.198 412.714 229.97 412.714 229.746C412.068 229.343 411.221 228.922 410.47 228.69C410.215 228.918 410.005 229.225 409.882 229.593C409.566 230.526 409.917 231.469 410.668 231.701C411.419 231.933 412.284 231.363 412.6 230.434V230.43Z" fill="#C69024"/>
<path d="M465.289 257.712C464.204 255.762 462.408 254.486 460.52 254.683C456.213 255.135 456.099 251.743 456.099 251.743C456.156 250.963 456.165 250.253 456.138 249.608L431.848 254.131C433.74 260.267 437.169 262.664 437.169 262.664C437.09 262.774 437.02 262.879 436.946 262.988L465.284 257.712H465.289Z" fill="#C69024"/>
<path d="M496.376 337.893C496.266 334.602 496.024 331.324 495.726 328.208L454.557 335.877C455.303 336.28 456.111 336.539 456.958 336.596C463.334 337.034 463.334 342.302 463.334 342.302C463.334 342.302 462.702 343.056 461.885 344.318L496.371 337.893H496.376Z" fill="#C69024"/>
<path d="M450.214 242.246C449.757 242.062 449.292 241.878 448.831 241.677C444.958 239.98 447.039 236.628 447.039 236.628C447.039 236.628 447.447 235.138 447.878 232.806L422.832 235.629C423.653 236.553 424.435 237.469 425.142 238.39C429.682 234.879 432.984 236.606 433.392 239.31C433.616 240.783 433.721 242.514 432.158 244.28L450.218 242.246H450.214Z" fill="#C69024"/>
<path d="M475.567 295.972C472.26 294.123 475.031 289.416 475.031 289.416C476.173 288.171 476.941 286.971 477.411 285.822L450.35 290.862C449.792 291.721 448.945 292.685 447.724 293.772C444.488 296.665 443.1 299.5 442.811 302.073L475.562 295.972H475.567Z" fill="#C69024"/>
<path d="M499.905 86.939C499.905 86.939 496.731 99.9115 492.551 104.084L490.979 102.519C489.969 101.516 488.427 101.156 487.132 101.752C486.952 101.835 486.781 101.932 486.623 102.046C485.692 102.712 484.91 104.43 485.718 106.792C487.721 112.639 492.902 110.566 492.902 110.566C492.902 110.566 493.051 130.152 482.184 140.494C482.184 140.494 487.865 153.178 500.74 150.171C513.614 147.165 512.775 139.491 512.775 139.491C512.775 139.491 504.415 136.322 505.587 125.642L506.759 119.8C506.759 119.8 516.288 121.136 517.126 116.964C517.126 116.964 517.113 114.804 515.857 114.089C515.857 114.089 515.41 113.016 516.398 111.49C516.398 111.49 516.31 110.504 515.682 110.145C515.682 110.145 516.13 108.624 515.95 107.997C515.95 107.997 515.098 107.761 514.694 106.954L514.154 105.846C514.154 105.846 516.239 103.764 516.204 102.756C516.204 102.756 511.892 100.293 511.629 98.4346C511.366 96.5763 511.085 95.2484 510.285 93.8547C509.486 92.4611 503.958 86.4394 499.91 86.9258L499.905 86.939Z" fill="#FEE2CC"/>
<path d="M502.048 113.56C503.82 113.56 505.257 112.126 505.257 110.357C505.257 108.587 503.82 107.153 502.048 107.153C500.275 107.153 498.838 108.587 498.838 110.357C498.838 112.126 500.275 113.56 502.048 113.56Z" fill="#F9CCA7"/>
<path d="M502.328 102.073C502.328 102.073 506.969 103.445 508.357 100.197" stroke="black" stroke-width="1.2283" stroke-linecap="round" stroke-linejoin="round"/>
<path d="M515.945 108.002C515.945 108.002 515.274 108.633 514.672 108.322C514.672 108.322 514.031 109.404 513.052 110.167C512.534 110.57 511.888 110.75 511.229 110.802C511.146 110.807 511.093 110.833 511.124 110.89C511.177 110.982 513.912 111.701 515.673 110.154C515.673 110.154 516.393 108.208 515.941 108.006L515.945 108.002Z" fill="#E27E79"/>
<path d="M500.375 99.0316C500.375 99.0316 503.963 96.1127 508.279 95.4378C508.279 95.4378 508.169 95.0478 507.555 94.5482C506.94 94.0485 500.986 95.2538 500.371 99.0272L500.375 99.0316Z" fill="url(#paint25_linear_401_10824)"/>
<path d="M516.393 111.495L515.848 112.701C515.848 112.701 514.022 112.788 511.883 111.412C511.743 111.32 511.918 111.132 512.085 111.145C513.042 111.219 514.724 111.175 515.673 110.146C515.673 110.146 516.603 110.733 516.388 111.491L516.393 111.495Z" fill="#F49C95"/>
<path d="M506.757 119.809C506.757 119.809 500.676 118.902 498.037 116.097L505.502 126.712L506.757 119.809Z" fill="#EAB892"/>
<path d="M655.153 182.388L632.939 135.288C632.939 135.288 638.634 129.31 648.066 126.987L651.978 137.755L654.666 125.821C654.666 125.821 681.832 119.949 698.105 135.879L671.891 179.447L703.523 142.747C703.523 142.747 707.769 146.135 708.481 148.111L694.728 163.271L709.96 149.991C709.96 149.991 712.217 152.213 712.727 154.015L669.586 184.868C669.586 184.868 661.696 183.067 655.153 182.388Z" fill="url(#paint26_linear_401_10824)"/>
<path d="M646.068 127.549L656.765 180.267L654.666 125.822" stroke="#BEF5FF" stroke-width="1.2283" stroke-miterlimit="10"/>
<path d="M621.914 133.049C624.843 131.76 635.32 127.084 638.586 127.084" stroke="#AB8360" stroke-width="1.2283" stroke-miterlimit="10"/>
<path d="M661.807 183.336L666.176 124.762" stroke="#BEF5FF" stroke-width="1.2283" stroke-miterlimit="10"/>
<path d="M671.334 124.95L663.988 183.335" stroke="#BEF5FF" stroke-width="1.2283" stroke-miterlimit="10"/>
<path d="M692.302 131.323L666.176 184.146" stroke="#BEF5FF" stroke-width="1.2283" stroke-miterlimit="10"/>
<path d="M658.152 182.783L648.035 235.146L653.743 236.132L662.657 183.484L658.152 182.783Z" fill="white"/>
<path d="M594.287 228.095C594.471 236.054 591.319 244.039 585.742 249.728C585.742 249.728 596.03 263.835 607.802 258.379C607.802 258.379 612.009 254.119 610.687 248.601C610.687 248.601 607.565 248.483 606.963 247.164C606.362 245.845 610.946 234.932 610.946 234.932L594.291 228.095H594.287Z" fill="#FEE2CC"/>
<path d="M593.967 228.353C593.967 228.353 601.444 245.485 607.583 243.863L610.946 234.931L593.967 228.353Z" fill="#EAB892"/>
<path d="M602.405 196.154C602.405 196.154 613.984 202.715 615.433 206.782L615.455 209.534C615.292 210.293 615.494 211.081 615.995 211.673C616.851 212.677 618.125 214.294 618.463 215.341C618.981 216.959 619.025 223.778 619.631 226.004C620.096 227.713 620.917 229.274 619.859 230.926C618.673 232.775 605.47 236.956 601.685 235.159C597.904 233.363 593.961 228.349 593.961 228.349C593.961 228.349 591.419 231.325 588.539 228.984C586.163 227.056 584.029 224.19 586.185 222.034C587.05 221.17 588.279 220.78 589.496 220.877L592.736 222.616C592.736 222.616 601.474 204.319 602.405 196.146V196.154Z" fill="#FEE2CC"/>
<path d="M611.052 213.215L612.273 217.838C612.51 218.733 613.529 219.158 614.332 218.697L616.383 217.519C616.918 217.212 617.063 216.506 616.69 216.015C615.311 214.197 612.233 210.502 611.166 212.216C610.982 212.509 610.96 212.877 611.048 213.215H611.052Z" fill="#EAB892"/>
<path d="M607.214 211.894C607.034 212.735 607.284 212.485 607.429 213.388C607.583 214.348 607.591 214.939 608.351 214.747C608.47 214.764 604.904 217.056 601.914 217.608C603.021 215.877 603.113 215.08 607.214 211.894Z" fill="white"/>
<path d="M603.613 209.908C604.614 209.413 605.681 209.053 606.669 208.527C606.744 208.488 606.823 208.44 606.871 208.37C606.933 208.269 606.915 208.146 606.897 208.032C606.84 207.673 606.748 207.261 606.428 207.081C606.155 206.928 605.817 207.002 605.523 207.099C603.797 207.66 602.348 208.847 601.044 210.109C600.109 211.012 599.218 211.976 598.555 213.094C598.445 213.283 598.335 213.502 598.397 213.712C598.594 214.383 599.183 213.506 599.327 213.335C599.718 212.853 600.144 212.402 600.601 211.985C601.501 211.157 602.52 210.46 603.617 209.917L603.613 209.908Z" fill="#C69024"/>
<path d="M602.314 227.355C603.75 227.355 604.914 226.193 604.914 224.76C604.914 223.327 603.75 222.166 602.314 222.166C600.879 222.166 599.715 223.327 599.715 224.76C599.715 226.193 600.879 227.355 602.314 227.355Z" fill="#F9CCA7"/>
<path d="M607.582 214.541C607.846 213.574 607.493 212.636 606.793 212.446C606.094 212.255 605.313 212.885 605.048 213.852C604.784 214.818 605.137 215.756 605.837 215.947C606.537 216.137 607.318 215.508 607.582 214.541Z" fill="#C69024"/>
<path d="M613.834 226.245C614.915 226.148 615.946 225.763 616.952 225.368C617.562 225.127 618.186 224.869 618.642 224.404C619.099 223.94 619.345 223.212 619.055 222.629C618.976 222.471 618.862 222.327 618.704 222.243C618.243 221.989 617.194 222.366 616.768 222.673C615.477 223.598 614.256 223.497 612.745 224.04C612.355 224.181 611.411 224.93 611.617 225.592C611.801 226.175 613.36 226.293 613.83 226.249L613.834 226.245Z" fill="#F49C95"/>
<path d="M618.68 220.706C618.03 220.251 617.02 219.961 616.546 220.588C616.322 220.882 616.142 221.298 615.773 221.329C615.593 221.342 615.426 221.25 615.246 221.224C614.79 221.149 614.373 221.473 614.057 221.807C613.064 222.854 612.37 224.195 611.286 225.12C611.15 225.234 611.251 225.457 611.426 225.427C612.384 225.273 613.126 224.901 614.048 224.366C615.163 223.717 616.098 223.27 617.236 222.666C617.626 222.46 618.048 222.438 618.386 222.153C618.724 221.868 618.68 221.14 618.685 220.706H618.68Z" fill="#E28883"/>
<path d="M435.797 421.555L473.989 417.19L472.5 421.555H435.797Z" fill="#009EDE"/>
<path d="M562.971 321.133L570.185 289.078L567.656 320.69L562.971 321.133Z" fill="#05AF66"/>
<path d="M651.818 67.1706C638.834 89.4737 634.798 100.939 630.223 109.761C630.004 110.182 629.6 110.458 629.174 110.247L625.222 109.901L625.213 94.5049C622.671 89.8506 619.593 85.2225 616.027 81.5718C619.962 74.6429 622.925 68.7921 625.191 63.8091L625.174 34.209L632.471 36.3477C632.471 36.3477 638.583 48.3604 651.822 67.175L651.818 67.1706Z" fill="#A37624"/>
<path d="M646.257 67.3669C637.757 80.9136 631.131 94.7889 625.216 109.905C623.038 104.444 615.582 89.1353 607.793 77.0832C619.073 54.4514 623.591 41.0362 625.168 34.6069C629.058 43.5387 639.438 59.75 646.257 67.3669Z" fill="#FFD066"/>
<path d="M422.647 158.125C422.647 158.125 422.66 160.334 424.895 159.186C424.895 159.186 413.066 177.978 393.052 167.859L391.695 166.434C391.695 166.434 407.858 177.352 422.642 158.125H422.647Z" stroke="white" stroke-width="1.2283" stroke-linecap="round" stroke-linejoin="round"/>
<path d="M615.428 211.823C615.52 211.788 615.617 211.753 615.687 211.678C615.744 211.621 615.779 211.547 615.81 211.468C616.152 210.613 615.959 209.548 615.331 208.891C615.283 208.843 615.23 208.794 615.169 208.781C615.112 208.772 615.059 208.794 615.006 208.821C614.234 209.163 612.684 210.171 612.684 211.196C612.684 212.664 614.708 212.081 615.432 211.818L615.428 211.823Z" fill="white"/>
<path d="M514.149 105.854C514.149 105.854 513.697 106.064 511.773 106.218L512.011 106.384C512.818 106.95 513.798 107.221 514.786 107.151H514.799C514.799 107.151 514.522 106.621 514.153 105.854H514.149Z" fill="#F9CCA7"/>
<path d="M399.115 232.337C399.115 232.337 404.103 227.788 404.354 227.398C404.604 227.008 404.143 225.676 404.143 225.676" stroke="#C69024" stroke-width="1.2283" stroke-linecap="round" stroke-linejoin="round"/>
<path d="M416.715 233.652C416.522 232.771 413.43 230.277 412.842 229.878C412.148 229.409 411.151 228.888 410.344 228.682C410.216 228.647 408.877 227.678 408.859 227.81C408.851 227.88 409.72 228.634 409.764 228.691C410.216 229.256 409.764 230.728 409.097 231.013" stroke="#C69024" stroke-width="1.2283" stroke-linecap="round" stroke-linejoin="round"/>
<path d="M403.573 227.366C403.573 227.366 402.422 223.776 399.252 223.991C399.252 223.991 400.332 224.302 400.517 224.666C400.517 224.666 400.35 223.904 400.517 224.666" stroke="#C69024" stroke-width="1.2283" stroke-linecap="round" stroke-linejoin="round"/>
<path d="M499.997 305.635H494.5V320.29H499.997V305.635Z" fill="white" stroke="black" stroke-width="1.2283" stroke-miterlimit="10"/>
<path d="M535.925 326.891L527.767 320.295H491.516L483.379 326.825C481.439 328.381 480.314 330.73 480.314 333.215V424.649H538.973V333.263C538.973 330.791 537.853 328.447 535.93 326.891H535.925Z" fill="url(#paint27_linear_401_10824)"/>
<path d="M535.648 326.891L527.49 320.295H491.238L483.102 326.825C481.161 328.381 480.037 330.73 480.037 333.215V424.649H538.695V333.263C538.695 330.791 537.576 328.447 535.652 326.891H535.648Z" stroke="white" stroke-width="1.2283" stroke-miterlimit="10"/>
<path d="M526.409 303.851L520.938 299C519.164 297.426 517.684 295.555 516.564 293.464L516.424 293.201C514.869 290.296 514.053 287.053 514.053 283.757V265.004C514.053 262.414 512.02 260.192 509.425 260.143C506.83 260.095 504.621 262.221 504.621 264.85V284.077C504.621 287.171 503.905 290.221 502.526 292.991C501.332 295.388 499.668 297.523 497.635 299.271L492.239 304.189C491.716 304.666 491.417 305.337 491.417 306.042L491.404 320.29H527.26L527.252 305.731C527.252 305.013 526.944 304.329 526.404 303.851H526.409Z" fill="url(#paint28_linear_401_10824)"/>
<g style="mix-blend-mode:screen">
<path d="M505.918 332.897C507.042 332.905 508.179 332.905 509.338 332.905C510.862 332.905 512.359 332.901 513.822 332.888V329.912C512.359 329.899 510.862 329.895 509.338 329.895C508.179 329.895 507.042 329.895 505.918 329.903V332.892V332.897Z" fill="#BEF5FF"/>
<path d="M505.918 332.897C507.042 332.905 508.179 332.905 509.338 332.905C510.862 332.905 512.359 332.901 513.822 332.888V329.912C512.359 329.899 510.862 329.895 509.338 329.895C508.179 329.895 507.042 329.895 505.918 329.903V332.892V332.897Z" stroke="black" stroke-width="1.2283" stroke-miterlimit="10"/>
</g>
<path d="M513.822 308.679H505.918V419.296H513.822V308.679Z" fill="#00A8E1"/>
<path d="M509.337 370.392C525.585 370.392 538.756 369.195 538.756 367.718C538.756 366.242 525.585 365.045 509.337 365.045C493.089 365.045 479.918 366.242 479.918 367.718C479.918 369.195 493.089 370.392 509.337 370.392Z" fill="url(#paint29_linear_401_10824)"/>
<path d="M538.755 367.718C538.755 368.467 523.997 370.391 509.336 370.391C494.671 370.391 480.102 368.467 480.102 367.718V424.648H538.76V367.718" fill="url(#paint30_linear_401_10824)"/>
<g style="mix-blend-mode:screen">
<path d="M505.918 366.895C507.042 366.895 508.179 366.904 509.338 366.904C510.862 366.904 512.359 366.904 513.822 366.89V365.054C512.359 365.045 510.862 365.041 509.338 365.041C508.179 365.041 507.042 365.041 505.918 365.05V366.895Z" fill="#0F1F42"/>
</g>
<g style="mix-blend-mode:screen" opacity="0.53">
<path d="M490.97 380.28C492.558 380.28 493.846 378.995 493.846 377.41C493.846 375.824 492.558 374.539 490.97 374.539C489.381 374.539 488.094 375.824 488.094 377.41C488.094 378.995 489.381 380.28 490.97 380.28Z" fill="#BEF5FF"/>
</g>
<g style="mix-blend-mode:screen" opacity="0.53">
<path d="M501.513 397.214C503.101 397.214 504.389 395.929 504.389 394.343C504.389 392.758 503.101 391.473 501.513 391.473C499.924 391.473 498.637 392.758 498.637 394.343C498.637 395.929 499.924 397.214 501.513 397.214Z" fill="#BEF5FF"/>
</g>
<g style="mix-blend-mode:screen" opacity="0.53">
<path d="M525.452 378.212C527.041 378.212 528.328 376.927 528.328 375.341C528.328 373.756 527.041 372.471 525.452 372.471C523.864 372.471 522.576 373.756 522.576 375.341C522.576 376.927 523.864 378.212 525.452 378.212Z" fill="#BEF5FF"/>
</g>
<path d="M527.266 305.635H491.41V320.29H527.266V305.635Z" fill="url(#paint31_linear_401_10824)"/>
<path d="M503.83 305.635H496.15V320.29H503.83V305.635Z" fill="#009EDE"/>
<g style="mix-blend-mode:screen" opacity="0.73">
<path d="M500.406 424.649H489.385V336.27C489.385 334.161 489.574 329.476 490.948 327.504L494.9 320.295H505.921L501.969 327.504C500.595 329.476 500.41 334.161 500.41 336.27V424.649H500.406Z" fill="#009EDE"/>
<path d="M500.406 424.649H489.385V336.27C489.385 334.161 489.574 329.476 490.948 327.504L494.9 320.295H505.921L501.969 327.504C500.595 329.476 500.41 334.161 500.41 336.27V424.649H500.406Z" stroke="black" stroke-width="1.2283" stroke-miterlimit="10"/>
</g>
<g style="mix-blend-mode:screen" opacity="0.55">
<path d="M509.337 332.91C525.311 332.91 538.26 332.235 538.26 331.402C538.26 330.57 525.311 329.895 509.337 329.895C493.363 329.895 480.414 330.57 480.414 331.402C480.414 332.235 493.363 332.91 509.337 332.91Z" fill="#BEF5FF"/>
<path d="M509.337 332.91C525.311 332.91 538.26 332.235 538.26 331.402C538.26 330.57 525.311 329.895 509.337 329.895C493.363 329.895 480.414 330.57 480.414 331.402C480.414 332.235 493.363 332.91 509.337 332.91Z" stroke="black" stroke-width="1.2283" stroke-miterlimit="10"/>
</g>
<path d="M497.328 337.206H489.49L489.872 330.316H497.328V337.206Z" fill="white"/>
<g style="mix-blend-mode:darken" opacity="0.22">
<path d="M525.655 424.649H536.36V336.27C536.36 334.161 536.43 328.192 535.1 326.22L527.771 320.295H520.307L524.144 327.504C525.475 329.476 525.659 334.161 525.659 336.27V424.649H525.655Z" fill="#0088C7"/>
</g>
<g style="mix-blend-mode:screen" opacity="0.73">
<path d="M496.892 424.649H491.746V336.27C491.746 334.161 491.834 329.476 492.475 327.504L494.319 320.295H499.465L497.621 327.504C496.98 329.476 496.892 334.161 496.892 336.27V424.649Z" fill="#BEF5FF"/>
<path d="M496.892 424.649H491.746V336.27C491.746 334.161 491.834 329.476 492.475 327.504L494.319 320.295H499.465L497.621 327.504C496.98 329.476 496.892 334.161 496.892 336.27V424.649Z" stroke="black" stroke-width="1.2283" stroke-miterlimit="10"/>
</g>
<path d="M559.551 424.142H559.463C558.146 424.164 557.479 422.74 558.401 421.881L558.432 421.854C570.722 410.389 569.967 399.687 562.234 392.824C554.502 385.965 542.721 385.544 530.431 397.009L530.369 397.066C529.452 397.93 527.871 397.351 527.858 396.15V396.111C527.638 380.097 518.782 373.015 507.984 373.137C497.187 373.26 488.528 380.544 488.752 396.558V396.637C488.774 397.838 487.211 398.442 486.267 397.605L486.236 397.579C473.634 386.399 461.871 387.087 454.328 394.121C446.788 401.155 446.327 411.875 458.929 423.055L458.991 423.112C459.939 423.949 459.302 425.382 457.985 425.396H457.941C440.338 425.597 432.557 433.652 432.689 443.478C432.707 444.846 432.882 446.169 433.212 447.444C433.365 448.045 433.958 448.466 434.634 448.466H582.92C583.543 448.466 584.101 448.102 584.303 447.563C584.997 445.709 585.322 443.715 585.291 441.646C585.155 431.82 577.15 423.945 559.551 424.146V424.142Z" fill="url(#paint32_linear_401_10824)"/>
<path d="M398.057 240.708C397.618 240.099 397.53 238.854 398.039 238.307C398.096 238.245 398.171 238.184 398.255 238.188C398.399 238.197 398.461 238.368 398.514 238.504C398.759 239.139 399.111 239.819 399.725 239.529C399.901 239.446 400.424 239.187 400.858 239.262C401.166 239.315 402.079 240.796 402.281 241.033C403.388 242.33 405.32 242.935 406.47 243.482C406.571 243.531 406.856 243.693 406.747 243.684C402.825 243.395 401.741 242.794 400.393 242.369C398.843 241.878 398.439 241.256 398.048 240.717L398.057 240.708Z" fill="#E28883"/>
<path d="M606.792 212.09C606.66 211.779 606.48 211.226 606.155 211.139C605.865 211.06 605.571 211.222 605.316 211.389C603.569 212.524 602.256 214.772 601.053 216.472" stroke="#C69024" stroke-width="1.2283" stroke-miterlimit="10"/>
<path d="M601.914 217.607C602.924 216.029 602.841 215.249 605.761 212.808C605.919 212.672 606.094 212.549 606.283 212.47C607.166 212.085 608.136 210.919 608.351 210.752C608.268 211.138 607.003 212.067 607.012 212.273C607.025 212.514 607.35 212.904 607.429 213.391C607.583 214.351 607.591 214.942 608.351 214.749" stroke="#C69024" stroke-width="1.2283" stroke-miterlimit="10" stroke-linecap="round"/>
<path d="M612.484 211.139C613.248 209.666 614.68 208.558 616.296 208.176" stroke="#C69024" stroke-width="1.2283" stroke-miterlimit="10" stroke-linecap="round"/>
<path d="M614.336 204.829C614.643 205.477 613.563 206.323 613.071 206.599C611.973 207.221 611.108 207.309 610.533 206.029C611.007 205.293 611.859 204.912 612.667 204.57C613.058 204.403 613.519 204.237 613.897 204.43C614.129 204.548 614.265 204.684 614.336 204.829Z" fill="#C69024"/>
<path d="M612.207 209.362C612.664 208.372 613.682 207.662 614.771 207.583" stroke="#C69024" stroke-width="1.2283" stroke-miterlimit="10" stroke-linecap="round"/>
<path d="M617.141 215.876C617.141 215.876 613.075 212.369 612.531 211.247C611.986 210.126 611.161 207.584 613.47 206.549" stroke="#C69024" stroke-width="1.2283" stroke-linecap="round" stroke-linejoin="round"/>
<path d="M615.985 210.398C616.067 209.579 615.652 208.867 615.058 208.808C614.465 208.749 613.917 209.365 613.836 210.184C613.754 211.003 614.169 211.714 614.762 211.773C615.356 211.832 615.903 211.216 615.985 210.398Z" fill="#C69024"/>
<path style="mix-blend-mode:lighten" d="M323.197 182.164L323.9 184.749C325.493 190.609 329.436 195.548 334.802 198.41C329.436 201.272 325.493 206.215 323.9 212.071L323.197 214.656L322.494 212.071C320.901 206.211 316.957 201.272 311.592 198.41C316.957 195.548 320.901 190.604 322.494 184.749L323.197 182.164Z" fill="url(#paint33_linear_401_10824)"/>
</g>
<defs>
<linearGradient id="paint0_linear_401_10824" x1="10.8701" y1="287.551" x2="37.2245" y2="341.79" gradientUnits="userSpaceOnUse">
<stop offset="0.42" stop-color="#0088C3"/>
<stop offset="1" stop-color="#0F1F42"/>
</linearGradient>
<linearGradient id="paint1_linear_401_10824" x1="219.139" y1="83.8057" x2="49.4022" y2="141.512" gradientUnits="userSpaceOnUse">
<stop stop-color="#F0F4F8"/>
<stop offset="0.53" stop-color="#00DC86"/>
<stop offset="1" stop-color="#23626A"/>
</linearGradient>
<linearGradient id="paint2_linear_401_10824" x1="745.37" y1="-315.471" x2="-0.913133" y2="338.191" gradientUnits="userSpaceOnUse">
<stop stop-color="#BEF5FF"/>
<stop offset="1" stop-color="#0088C3"/>
</linearGradient>
<linearGradient id="paint3_linear_401_10824" x1="507.2" y1="408.247" x2="510.471" y2="161.243" gradientUnits="userSpaceOnUse">
<stop stop-color="#0088C3"/>
<stop offset="1" stop-color="#0F1F42"/>
</linearGradient>
<linearGradient id="paint4_linear_401_10824" x1="278.014" y1="365.302" x2="378.112" y2="439.395" gradientUnits="userSpaceOnUse">
<stop stop-color="#0088C3"/>
<stop offset="1" stop-color="#0F1F42"/>
</linearGradient>
<linearGradient id="paint5_linear_401_10824" x1="421.298" y1="107.775" x2="518.854" y2="308.631" gradientUnits="userSpaceOnUse">
<stop offset="0.14" stop-color="#F0F4F8"/>
<stop offset="0.44" stop-color="#DE97FF"/>
<stop offset="0.83" stop-color="#A827D8"/>
</linearGradient>
<linearGradient id="paint6_linear_401_10824" x1="376.936" y1="409.446" x2="506.347" y2="409.446" gradientUnits="userSpaceOnUse">
<stop stop-color="#F0F4F8"/>
<stop offset="0.54" stop-color="#BEF5FF"/>
<stop offset="0.96" stop-color="#39C7DF"/>
</linearGradient>
<linearGradient id="paint7_linear_401_10824" x1="593.404" y1="298.935" x2="635.306" y2="466.129" gradientUnits="userSpaceOnUse">
<stop stop-color="#F0F4F8"/>
<stop offset="0.45" stop-color="#00DC86"/>
<stop offset="1" stop-color="#23626A"/>
</linearGradient>
<linearGradient id="paint8_linear_401_10824" x1="582.674" y1="320.967" x2="655.021" y2="401.427" gradientUnits="userSpaceOnUse">
<stop stop-color="#F0F4F8"/>
<stop offset="0.45" stop-color="#00DC86"/>
<stop offset="1" stop-color="#23626A"/>
</linearGradient>
<radialGradient id="paint9_radial_401_10824" cx="0" cy="0" r="1" gradientUnits="userSpaceOnUse" gradientTransform="translate(445.857 86.7336) scale(26.0952 26.0459)">
<stop stop-color="#F0F4F8"/>
<stop offset="0.27" stop-color="#D7F4FB"/>
<stop offset="0.54" stop-color="#BEF5FF"/>
<stop offset="0.96" stop-color="#39C7DF"/>
</radialGradient>
<linearGradient id="paint10_linear_401_10824" x1="461.15" y1="116.114" x2="483.592" y2="116.114" gradientUnits="userSpaceOnUse">
<stop stop-color="#0088C3"/>
<stop offset="1" stop-color="#0F1F42"/>
</linearGradient>
<radialGradient id="paint11_radial_401_10824" cx="0" cy="0" r="1" gradientUnits="userSpaceOnUse" gradientTransform="translate(391.704 135.765) scale(28.9141 28.8595)">
<stop stop-color="#F0F4F8"/>
<stop offset="0.54" stop-color="#BEF5FF"/>
<stop offset="0.96" stop-color="#39C7DF"/>
</radialGradient>
<linearGradient id="paint12_linear_401_10824" x1="406.55" y1="140.036" x2="437.831" y2="140.036" gradientUnits="userSpaceOnUse">
<stop stop-color="#F0F4F8"/>
<stop offset="0.54" stop-color="#BEF5FF"/>
<stop offset="0.96" stop-color="#39C7DF"/>
</linearGradient>
<linearGradient id="paint13_linear_401_10824" x1="441.213" y1="120.541" x2="458.887" y2="120.541" gradientUnits="userSpaceOnUse">
<stop stop-color="#F0F4F8"/>
<stop offset="0.54" stop-color="#BEF5FF"/>
<stop offset="0.96" stop-color="#39C7DF"/>
</linearGradient>
<linearGradient id="paint14_linear_401_10824" x1="383.594" y1="85.5834" x2="563.027" y2="281.886" gradientUnits="userSpaceOnUse">
<stop offset="0.08" stop-color="#F0F4F8"/>
<stop offset="0.37" stop-color="#BEF5FF"/>
<stop offset="0.96" stop-color="#39C7DF"/>
</linearGradient>
<linearGradient id="paint15_linear_401_10824" x1="420.078" y1="131.308" x2="577.966" y2="293.842" gradientUnits="userSpaceOnUse">
<stop stop-color="#F0F4F8"/>
<stop offset="0.54" stop-color="#BEF5FF"/>
<stop offset="0.96" stop-color="#39C7DF"/>
</linearGradient>
<linearGradient id="paint16_linear_401_10824" x1="536.789" y1="221.551" x2="646.234" y2="391.588" gradientUnits="userSpaceOnUse">
<stop stop-color="#F0F4F8"/>
<stop offset="0.45" stop-color="#00DC86"/>
<stop offset="1" stop-color="#23626A"/>
</linearGradient>
<linearGradient id="paint17_linear_401_10824" x1="574.993" y1="294.575" x2="652.05" y2="356.021" gradientUnits="userSpaceOnUse">
<stop stop-color="#0088C3"/>
<stop offset="1" stop-color="#0F1F42"/>
</linearGradient>
<linearGradient id="paint18_linear_401_10824" x1="641.898" y1="206.116" x2="671.991" y2="210.585" gradientUnits="userSpaceOnUse">
<stop stop-color="#F0F4F8"/>
<stop offset="0.54" stop-color="#BEF5FF"/>
<stop offset="0.96" stop-color="#39C7DF"/>
</linearGradient>
<linearGradient id="paint19_linear_401_10824" x1="379.002" y1="242.173" x2="498.508" y2="380.992" gradientUnits="userSpaceOnUse">
<stop offset="0.17" stop-color="#BEF5FF"/>
<stop offset="1" stop-color="#0088C3"/>
</linearGradient>
<linearGradient id="paint20_linear_401_10824" x1="390.124" y1="91.4765" x2="485.78" y2="373.34" gradientUnits="userSpaceOnUse">
<stop offset="0.3" stop-color="white"/>
<stop offset="0.46" stop-color="#FFCE4E"/>
<stop offset="0.94" stop-color="#C69024"/>
</linearGradient>
<linearGradient id="paint21_linear_401_10824" x1="299.473" y1="172.992" x2="330.847" y2="204.948" gradientUnits="userSpaceOnUse">
<stop stop-color="#F0F4F8"/>
<stop offset="0.45" stop-color="#00DC86"/>
<stop offset="1" stop-color="#23626A"/>
</linearGradient>
<linearGradient id="paint22_linear_401_10824" x1="289.154" y1="203.219" x2="358.829" y2="204.794" gradientUnits="userSpaceOnUse">
<stop stop-color="#F0F4F8"/>
<stop offset="0.45" stop-color="#00DC86"/>
<stop offset="1" stop-color="#23626A"/>
</linearGradient>
<linearGradient id="paint23_linear_401_10824" x1="300.576" y1="170.405" x2="345.82" y2="170.405" gradientUnits="userSpaceOnUse">
<stop stop-color="#0088C3"/>
<stop offset="1" stop-color="#0F1F42"/>
</linearGradient>
<linearGradient id="paint24_linear_401_10824" x1="319.646" y1="153.581" x2="326.307" y2="171.751" gradientUnits="userSpaceOnUse">
<stop stop-color="#0088C3"/>
<stop offset="1" stop-color="#0F1F42"/>
</linearGradient>
<linearGradient id="paint25_linear_401_10824" x1="488.085" y1="87.6192" x2="509.186" y2="99.8507" gradientUnits="userSpaceOnUse">
<stop stop-color="#0088C3"/>
<stop offset="1" stop-color="#0F1F42"/>
</linearGradient>
<linearGradient id="paint26_linear_401_10824" x1="644.136" y1="111.368" x2="678.132" y2="159.878" gradientUnits="userSpaceOnUse">
<stop stop-color="#0088C3"/>
<stop offset="1" stop-color="#0F1F42"/>
</linearGradient>
<linearGradient id="paint27_linear_401_10824" x1="479.757" y1="329.95" x2="544.119" y2="433.353" gradientUnits="userSpaceOnUse">
<stop offset="0.2" stop-color="#BEF5FF"/>
<stop offset="0.76" stop-color="#39C7DF"/>
</linearGradient>
<linearGradient id="paint28_linear_401_10824" x1="480.866" y1="277.314" x2="519.464" y2="302.09" gradientUnits="userSpaceOnUse">
<stop stop-color="#0088C3"/>
<stop offset="1" stop-color="#0F1F42"/>
</linearGradient>
<linearGradient id="paint29_linear_401_10824" x1="508.977" y1="350.718" x2="509.366" y2="369.068" gradientUnits="userSpaceOnUse">
<stop stop-color="#0088C3"/>
<stop offset="1" stop-color="#0F1F42"/>
</linearGradient>
<linearGradient id="paint30_linear_401_10824" x1="490.802" y1="350.218" x2="511.666" y2="401.895" gradientUnits="userSpaceOnUse">
<stop stop-color="#0088C3"/>
<stop offset="1" stop-color="#0F1F42"/>
</linearGradient>
<linearGradient id="paint31_linear_401_10824" x1="498.87" y1="312.025" x2="522.418" y2="314.141" gradientUnits="userSpaceOnUse">
<stop stop-color="#0088C3"/>
<stop offset="1" stop-color="#0F1F42"/>
</linearGradient>
<linearGradient id="paint32_linear_401_10824" x1="437.572" y1="306.132" x2="551.89" y2="521.296" gradientUnits="userSpaceOnUse">
<stop offset="0.14" stop-color="#F0F4F8"/>
<stop offset="0.52" stop-color="#DE97FF"/>
<stop offset="0.83" stop-color="#A827D8"/>
</linearGradient>
<linearGradient id="paint33_linear_401_10824" x1="299.82" y1="181.173" x2="346.196" y2="215.503" gradientUnits="userSpaceOnUse">
<stop offset="0.3" stop-color="white"/>
<stop offset="0.46" stop-color="#FFCE4E"/>
<stop offset="0.94" stop-color="#C69024"/>
</linearGradient>
<clipPath id="clip0_401_10824">
<rect width="483" height="414" fill="white" transform="translate(253 34)"/>
</clipPath>
</defs>
</svg>
