<svg width="125" height="245" viewBox="0 0 125 245" fill="none" xmlns="http://www.w3.org/2000/svg">
<path d="M8.45312 7.04297C10.0839 18.3033 8.45312 90.0875 81.5112 106.978C118.04 115.423 145.437 108.385 145.437 76.012C145.437 43.6389 58.6805 21.1187 48.896 150.613C47.0939 174.462 56.0713 235.065 114.779 242.103C215.916 254.227 273.288 140.761 273.288 66.1601" stroke="#C2CEDF" stroke-width="2.47494" stroke-linecap="round" stroke-dasharray="4.95 4.95"/>
<path d="M25.2266 166.474C23.4324 164.636 20.3354 164.827 18.3074 166.901C18.2023 167.008 18.0998 167.13 18.001 167.256C18.001 167.093 17.9935 166.934 17.976 166.782C17.656 163.865 15.3529 161.736 12.831 162.027C10.3091 162.316 8.52362 164.915 8.84245 167.831C8.8587 167.982 8.88746 168.14 8.92372 168.298C8.79869 168.197 8.67241 168.104 8.54612 168.022C6.1205 166.46 3.05847 166.976 1.70687 169.175C0.355274 171.375 1.22675 174.424 3.65237 175.987C3.77865 176.068 3.91619 176.143 4.05997 176.214C3.90493 176.251 3.75489 176.293 3.61361 176.344C0.907916 177.312 -0.606222 180.085 0.230243 182.538C1.06796 184.99 3.93869 186.195 6.64439 185.227C6.78567 185.177 6.92821 185.113 7.07074 185.042C7.00198 185.189 6.94071 185.336 6.89195 185.481C5.94421 188.25 7.11701 191.191 9.51262 192.05C11.9082 192.909 14.6177 191.362 15.5654 188.593C15.6142 188.449 15.6554 188.294 15.6905 188.136C15.7605 188.283 15.8342 188.422 15.9143 188.553C17.4384 191.038 20.4154 191.933 22.5647 190.551C24.714 189.17 25.2216 186.035 23.6975 183.55C23.6187 183.421 23.5262 183.293 23.4262 183.165C23.5825 183.201 23.735 183.229 23.8838 183.245C26.732 183.576 29.2714 181.749 29.5565 179.168C29.8416 176.586 27.7648 174.226 24.9166 173.895C24.7678 173.879 24.6127 173.872 24.4539 173.872C24.5777 173.77 24.6953 173.665 24.8015 173.556C26.8283 171.482 27.0184 168.311 25.2241 166.473L25.2266 166.474Z" fill="url(#paint0_linear_476_3244)"/>
<path d="M45.6499 57.2593C45.687 56.8537 45.7243 56.4506 45.8163 56.0523C45.8446 55.9288 45.8699 55.8007 45.8756 55.6743C45.8939 55.036 46.01 54.4135 46.1634 53.7949C46.2659 53.376 46.3154 52.9446 46.4076 52.5216C46.6924 51.2052 46.9896 49.89 47.2793 48.5731C47.3331 48.3239 47.402 48.0782 47.436 47.8284C47.5837 46.7415 47.8425 45.6816 48.2047 44.6467C48.2481 44.5268 48.289 44.4071 48.3273 44.2851C48.3904 44.0845 48.4086 43.878 48.3245 43.6858C48.1421 43.2558 48.0861 42.8044 48.0517 42.3461C48.0162 41.8756 47.8133 41.4648 47.6129 41.0537C47.5798 40.9876 47.5317 40.9204 47.4756 40.8737C47.2029 40.6445 46.9325 40.4125 46.6466 40.2017C46.4005 40.0193 46.1194 39.887 45.8178 39.8282C45.4056 39.7473 45.0675 39.5314 44.7347 39.2928C44.0002 38.7626 43.4494 38.0825 43.0048 37.2939C42.6632 36.6885 42.4389 36.0427 42.2529 35.3835C42.1289 34.9433 42.0889 34.4781 42.1286 34.0205C42.2385 32.7619 42.5791 31.5711 43.2276 30.4805C43.6342 29.7969 44.1446 29.1952 44.7661 28.7018C45.2447 28.3201 45.7015 27.9157 46.1227 27.4726C46.312 27.2752 46.5296 27.09 46.5186 26.7258C46.6711 26.8279 46.7639 26.8713 46.8342 26.9389C47.3531 27.4319 47.9374 27.8302 48.5553 28.1909C49.1262 28.5237 49.6716 28.9009 50.1484 29.3657C50.292 29.5056 50.4349 29.6653 50.5227 29.8424C50.8756 30.5455 51.2452 31.2422 51.5391 31.9754C51.8019 32.6374 52.0767 33.2958 52.2988 33.9714C52.4562 34.453 52.5418 34.9585 52.6512 35.4543C52.7232 35.7834 52.6618 36.1122 52.6027 36.4384C52.5996 36.4584 52.6237 36.5056 52.6285 36.5051C52.6699 36.4989 52.7265 36.4962 52.7461 36.4673C53.4253 35.6058 53.9365 34.6339 54.5133 33.7053C54.6188 33.5353 54.687 33.3366 54.7357 33.1397C54.8509 32.6702 54.9485 32.1975 55.0411 31.7251C55.1003 31.4261 55.1191 31.1184 55.1833 30.8214C55.2469 30.517 55.2495 30.2206 55.214 29.913C55.1792 29.5855 55.1932 29.2511 55.1829 28.9214C55.1743 28.6927 55.1658 28.464 55.1402 28.2369C55.1306 28.1316 55.0471 28.0553 54.9498 28.0173C54.8553 27.9815 54.7549 27.9636 54.6585 27.9353C54.3436 27.8382 54.0262 27.7413 53.711 27.6417C53.3605 27.5331 53.066 27.3354 52.8311 27.0607C52.5992 26.7907 52.381 26.5095 52.1651 26.2257C51.7926 25.7415 51.4736 25.2203 51.1639 24.6934C50.8165 24.1057 50.5984 23.2299 50.6813 22.5684C50.7932 21.6576 51.0149 20.7861 51.5267 19.9843C52.0106 19.2271 52.5448 18.5343 53.1831 17.9012C53.6766 17.412 54.2042 16.9987 54.7959 16.6388C55.4249 16.2557 56.0048 15.7932 56.6051 15.3659C56.6445 15.3376 56.687 15.3165 56.7502 15.2786C56.9425 15.5744 57.1304 15.8756 57.3321 16.1657C57.4628 16.3536 57.5962 16.5438 57.7609 16.699C58.4879 17.3903 59.0394 18.2135 59.5631 19.0565C59.6296 19.1639 59.6753 19.2856 59.7134 19.4055C59.8423 19.8182 59.9664 20.2313 60.0833 20.6475C60.258 21.2633 60.3643 21.8877 60.3709 22.5287C60.3741 22.9158 60.3066 23.2847 60.1669 23.6478C59.9527 24.1954 59.6767 24.7141 59.3427 25.1936C59.1265 25.502 58.8586 25.7855 58.5729 26.0361C58.3032 26.2729 58.0574 26.5273 57.836 26.8066C57.6434 27.0487 57.4217 27.2441 57.1554 27.409C56.7651 27.6494 56.3799 27.8918 55.9509 28.0593C55.8817 28.0853 55.8223 28.1376 55.7662 28.1724C55.6659 28.2901 55.6853 28.4216 55.694 28.5441C55.717 28.8233 55.7448 29.1021 55.7825 29.38C55.8606 29.9651 55.8545 30.5479 55.7445 31.128C55.7214 31.2535 55.708 31.378 55.6949 31.5051C55.692 31.5276 55.7083 31.5705 55.7208 31.5718C55.7611 31.5805 55.8236 31.5896 55.8463 31.5678C55.9371 31.4805 56.0276 31.3908 56.0995 31.2856C56.5333 30.6563 57.0018 30.0559 57.5073 29.4818C57.977 28.9479 58.4006 28.3689 58.7986 27.7799C59.2139 27.1646 59.7257 26.6318 60.1893 26.059C60.3491 25.8618 60.5219 25.6733 60.6897 25.4828C60.7567 25.4052 60.8127 25.3162 60.891 25.2547C61.6329 24.6738 62.0882 23.8748 62.5131 23.0662C62.9251 22.2785 63.3755 21.507 63.7201 20.6835C63.761 20.591 63.8066 20.4955 63.8248 20.3976C63.8359 20.33 63.8179 20.2403 63.7805 20.182C63.7259 20.0982 63.6436 20.0341 63.5683 19.967C63.128 19.5778 62.7469 19.1338 62.4163 18.6482C62.1453 18.2485 61.8719 17.8491 61.571 17.4718C61.3145 17.1498 61.1074 16.801 60.9097 16.4464C60.5553 15.8076 60.3995 15.1284 60.473 14.3913C60.5334 13.7813 60.5915 13.1739 60.8333 12.6041C61.1015 11.9726 61.3927 11.3489 61.8163 10.797C62.2664 10.2106 62.7169 9.62916 63.3012 9.16133C63.499 9.00264 63.6913 8.83707 63.9147 8.71552C64.3377 8.48201 64.7578 8.24382 65.2106 8.06681C65.4467 7.97619 65.6813 7.86843 65.9049 7.74933C66.3313 7.52539 66.7714 7.31746 67.0459 6.89021C67.1022 6.80365 67.1917 6.75602 67.3023 6.77801C67.5662 7.53368 68.0244 8.17295 68.515 8.7895C68.6907 9.01036 68.8519 9.23501 68.9761 9.48771C69.1908 9.91969 69.4032 10.3543 69.5704 10.8079C69.6493 11.0228 69.7544 11.2279 69.8615 11.4279C70.0576 11.7924 70.1692 12.1771 70.2092 12.588C70.2866 13.3557 70.2692 14.1124 69.9727 14.8402C69.9062 15.0042 69.894 15.1953 69.8037 15.3417C69.6344 15.6236 69.4444 15.8951 69.2328 16.1464C68.9518 16.4755 68.633 16.7686 68.4528 17.1749C68.4015 17.2881 68.3062 17.3807 68.2346 17.4884C67.9287 17.9506 67.4723 18.2242 66.9988 18.4722C66.841 18.5557 66.6706 18.6082 66.5068 18.6799C66.4142 18.7204 66.311 18.752 66.2351 18.8132C65.7098 19.251 65.1205 19.6107 64.6315 20.0945C64.5614 20.1651 64.5 20.2497 64.4564 20.34C64.3158 20.6391 64.1879 20.9419 64.0552 21.2452C64.0469 21.2632 64.0581 21.3041 64.0683 21.3081C64.1115 21.3214 64.1682 21.3484 64.2012 21.3305C64.3587 21.2446 64.5053 21.1473 64.6128 20.9994C64.8711 20.6378 65.2211 20.3887 65.6127 20.1901C66.2498 19.868 66.8522 19.4898 67.4314 19.0743C67.7627 18.8368 68.08 18.5808 68.3893 18.3182C69.0285 17.7763 69.662 17.225 70.2901 16.6693C70.4227 16.5536 70.5484 16.4163 70.6385 16.2674C70.8719 15.876 71.1048 15.4797 71.3043 15.0691C71.5138 14.633 71.7053 14.1887 71.9799 13.7886C72.213 13.449 72.3382 13.0625 72.4815 12.7657C72.4932 12.5697 72.4197 12.4949 72.3514 12.4222C72.0698 12.1222 71.8492 11.787 71.7338 11.3879C71.6981 11.2678 71.6565 11.1359 71.5813 11.0415C71.3945 10.8069 71.3604 10.5411 71.3369 10.257C71.2671 9.49099 71.3312 8.73253 71.4774 7.98141C71.5721 7.50394 71.7434 7.05405 71.9629 6.61948C72.2161 6.12016 72.4977 5.63552 72.7924 5.15955C72.9969 4.83 73.2445 4.54091 73.5353 4.29231C74.4378 3.52404 75.4583 2.96709 76.6081 2.66483C76.8565 2.60023 77.097 2.53141 77.332 2.42855C77.9638 2.15626 78.6321 1.98675 79.2905 1.79099C79.4828 1.73397 79.6907 1.71254 79.8903 1.682C80.0412 1.65837 80.1929 1.64453 80.344 1.62334C80.5904 1.591 80.849 1.39471 81.0753 1.54926C81.2832 1.69069 81.2766 1.99726 81.3788 2.22482C81.5554 2.61833 81.6846 3.03344 81.828 3.4423C81.8781 3.58578 81.9263 3.73437 81.9374 3.88388C82.0223 5.05808 81.9756 6.22454 81.7077 7.37417C81.6564 7.59599 81.5696 7.80871 81.4929 8.02297C81.4673 8.0944 81.4113 8.15627 81.3906 8.22725C81.2163 8.86003 80.8405 9.36806 80.4207 9.85297C80.3381 9.94933 80.269 10.0568 80.2076 10.1685C80.1904 10.1972 80.2183 10.2588 80.2367 10.2991C80.2432 10.3158 80.2839 10.3293 80.3055 10.3224C80.4531 10.2892 80.6064 10.2654 80.7499 10.2153C81.2517 10.0338 81.7696 9.89282 82.2518 9.65884C82.3628 9.6043 82.491 9.57534 82.6147 9.55172C82.8767 9.50069 82.9527 9.36051 82.9507 9.12134C82.945 8.73446 83.013 8.37046 83.1373 8.00133C83.2423 7.69071 83.291 7.3581 83.3278 7.03149C83.3507 6.82213 83.4078 6.63679 83.4997 6.45321C83.6914 6.0656 83.8781 5.67598 84.0776 5.29259C84.4135 4.64508 84.8765 4.11923 85.5454 3.7942C85.8409 3.65128 86.117 3.4583 86.4217 3.33428C86.7501 3.20069 87.0969 3.10493 87.4422 3.02161C88.0364 2.87859 88.6368 2.77696 89.2544 2.80947C89.6339 2.82915 90.0158 2.79432 90.3963 2.85337C90.6191 2.88734 90.857 2.87059 91.0816 2.84271C91.3962 2.80167 91.6909 2.8661 91.9847 2.94788C92.1062 2.98121 92.2286 3.02432 92.3442 3.07301C92.8392 3.27709 93.3375 3.46359 93.8745 3.53305C94.0219 3.5517 94.1643 3.62507 94.3074 3.67864C94.6166 3.79357 94.9302 3.90315 95.2353 4.02831C95.9685 4.32664 96.7181 4.5618 97.4969 4.71039C97.542 4.71861 97.5825 4.75685 97.6426 4.79332C97.5913 4.87943 97.545 4.96756 97.4883 5.04922C97.3859 5.19921 97.329 5.35984 97.3264 5.54761C97.3218 6.01193 97.1891 6.45091 97.0056 6.87479C96.8345 7.27286 96.6684 7.67049 96.4508 8.04565C96.3251 8.26439 96.2284 8.50268 96.1107 8.72808C95.9955 8.95327 95.8751 9.17645 95.747 9.39541C95.3966 9.99242 94.9577 10.5112 94.4317 10.9687C94.0109 11.3353 93.604 11.7179 93.2193 12.128C92.8548 12.5166 92.4087 12.8213 91.9388 13.0813C91.6944 13.2171 91.4443 13.3435 91.2374 13.5376C91.085 13.6798 90.9114 13.7795 90.7053 13.8205C90.5527 13.8517 90.4187 13.9256 90.305 14.0322C90.1255 14.2016 89.9049 14.2464 89.669 14.2309C89.3637 14.2118 89.0608 14.1654 88.7559 14.2327C88.4396 14.148 88.1076 14.161 87.8055 13.9887C87.5217 13.8271 87.1992 13.7282 86.8865 13.6284C86.3448 13.4532 85.8878 13.1248 85.4099 12.8377C85.1982 12.709 85.0357 12.4968 84.8519 12.3211C84.5053 11.985 84.1518 11.6545 83.8141 11.3078C83.5118 10.9973 83.2368 10.6621 83.1065 10.2348C83.0851 10.1627 83.0491 10.092 83.0181 10.0232C82.9809 9.94027 82.8445 9.87869 82.7635 9.91075C82.1934 10.1281 81.6204 10.3407 81.056 10.5674C80.7013 10.7108 80.3484 10.8466 79.9703 10.923C79.7255 10.9725 79.4892 11.0878 79.2591 11.1902C79.0504 11.2833 78.8479 11.3906 78.6514 11.5096C78.1202 11.8295 77.5294 11.9821 76.9348 12.1202C76.3402 12.2583 75.7451 12.3916 75.1509 12.5346C74.6798 12.6466 74.2027 12.7198 73.7184 12.7417C73.5439 12.7502 73.4367 12.8464 73.3606 12.9866C73.1559 13.3679 72.9589 13.7511 72.7596 14.137C72.195 15.2273 71.4964 16.2286 70.7104 17.164C70.4009 17.5327 70.03 17.8503 69.6718 18.1716C69.2541 18.5453 68.8223 18.8981 68.3937 19.2604C68.2609 19.3737 68.1254 19.4848 67.995 19.5978C67.9881 19.6034 67.9941 19.6423 68.0077 19.6559C68.0242 19.6741 68.0529 19.6912 68.0749 19.6892C68.6422 19.6572 69.1875 19.763 69.7225 19.9461C69.7455 19.9539 69.7717 19.9441 69.8209 19.9421C69.9867 19.8653 70.1658 19.7724 70.3567 19.7007C70.6167 19.6005 70.8766 19.4732 71.1494 19.4335C71.8874 19.3243 72.5739 19.0569 73.2702 18.8157C73.4137 18.7656 73.561 18.73 73.7081 18.6919C73.8792 18.6467 73.9602 18.5332 73.9644 18.3625C73.9747 17.7447 74.176 17.1637 74.2993 16.5677C74.368 16.2382 74.5231 15.9353 74.7242 15.6776C75.3669 14.8492 76.0778 14.091 77.0331 13.6041C77.3304 13.4536 77.6352 13.3321 77.9595 13.2605C78.4312 13.1558 78.9004 13.0489 79.3918 13.0781C79.6697 13.0947 79.9499 13.0543 80.2288 13.0265C80.6129 12.989 80.987 13.0313 81.366 13.1004C81.9008 13.1997 82.4001 13.3688 82.8181 13.7304C82.8958 13.7974 82.9757 13.8616 83.0641 13.9103C83.4716 14.1298 83.8215 14.4211 84.1474 14.7467C84.2558 14.8528 84.3674 14.966 84.4976 15.0405C84.8566 15.2422 85.16 15.5106 85.4503 15.7975C85.7381 16.0847 86.0796 16.3101 86.3363 16.6347C86.456 16.7841 86.6401 16.8809 86.7861 16.9934C86.7757 17.1498 86.6961 17.2508 86.6189 17.3516C86.331 17.7406 86.0898 18.1549 85.8961 18.6019C85.7146 19.0207 85.5028 19.4324 85.2564 19.8151C84.5035 20.9793 83.5942 21.9974 82.3946 22.7287C81.9596 22.9929 81.5471 23.2871 81.0709 23.4786C80.7424 23.6122 80.3915 23.6886 80.0917 23.8936C80.0174 23.9448 79.8946 23.9511 79.7975 23.9426C79.2654 23.8999 78.7335 23.8867 78.202 23.797C77.3674 23.6584 76.6765 23.255 76.0541 22.7097C75.9978 22.6606 75.9431 22.6014 75.9028 22.5385C75.6574 22.1488 75.3315 21.8232 75.0288 21.4806C74.7919 21.2111 74.5902 20.921 74.4161 20.6087C74.3065 20.409 74.1572 20.2326 74.0452 20.0331C73.8953 19.7704 73.6705 19.7144 73.3959 19.7616C73.345 19.7712 73.2955 19.7708 73.2444 19.7779C72.621 19.8989 71.9948 20.0153 71.375 20.1483C71.128 20.2004 70.8805 20.2748 70.6698 20.4273C70.6351 20.4526 70.6035 20.5123 70.6051 20.5565C70.6089 20.5981 70.6436 20.6542 70.6801 20.6755C70.7661 20.7245 70.8598 20.7776 70.9552 20.796C71.3347 20.87 71.6793 21.0212 72.0316 21.1766C72.5175 21.3889 73.02 21.5676 73.5193 21.7639C73.5747 21.9118 73.5267 22.0618 73.4729 22.2024C73.3459 22.5422 73.3008 22.8868 73.3216 23.2501C73.3392 23.5791 73.3226 23.9113 73.2985 24.2417C73.2847 24.4157 73.244 24.5921 73.1878 24.7601C73.0065 25.317 72.8353 25.8755 72.6182 26.4184C72.4979 26.723 72.3409 27.031 72.1286 27.2749C71.5946 27.8886 71.0936 28.5389 70.476 29.0739C69.6547 29.7854 68.6869 29.9995 67.6226 29.8054C66.9742 29.5709 66.3381 29.3081 65.8034 28.8584C65.3358 28.4668 64.859 28.0834 64.472 27.603C64.33 27.4259 64.151 27.2769 63.9814 27.1221C63.621 26.7972 63.288 26.4476 63.0469 26.0229C62.832 25.6428 62.5137 25.3461 62.2207 25.0299C62.1962 25.0049 62.1172 25.0047 62.0796 25.0254C62.0138 25.0611 61.9466 25.1091 61.9052 25.1697C61.6874 25.4881 61.4075 25.748 61.1463 26.0236C60.6579 26.5419 60.1618 27.0559 59.6923 27.5922C59.357 27.9757 59.0669 28.3945 58.7423 28.7868C58.2889 29.3365 57.8197 29.8752 57.3607 30.418C57.2472 30.5542 57.1159 30.6846 57.0312 30.8379C56.6501 31.5315 56.1378 32.1383 55.7304 32.8146C55.3358 33.4674 54.9492 34.127 54.5361 34.7667C54.2053 35.2806 53.8533 35.779 53.4855 36.2666C53.118 36.7566 52.8055 37.2811 52.4929 37.8055C52.234 38.2412 52.0015 38.6967 51.774 39.1517C51.5208 39.6511 51.247 40.1399 50.9418 40.6095C50.706 40.9739 50.5115 41.3593 50.3483 41.7616C50.3363 41.7923 50.3786 41.8502 50.402 41.89C50.4024 41.8949 50.4505 41.8806 50.4689 41.8666C50.6723 41.7148 50.8839 41.5721 51.0733 41.4019C51.4724 41.0422 51.9083 40.7335 52.3698 40.4619C53.0283 40.0762 53.6758 39.6791 54.4057 39.4275C54.8365 39.2796 55.2464 39.0646 55.6545 38.8571C55.9963 38.6803 56.3461 38.5374 56.7291 38.4877C56.7781 38.4832 56.825 38.4567 56.8729 38.44C56.959 38.4099 57.0451 38.2984 57.0417 38.2075C57.0265 37.8511 57.0019 37.5004 56.889 37.1554C56.5788 36.1893 56.5505 35.2024 56.7641 34.2156C56.9415 33.4 57.3399 32.7073 58.0148 32.1769C58.5997 31.7164 59.2134 31.3273 59.922 31.0851C60.2883 30.9604 60.6659 30.9062 61.042 30.862C61.4206 30.8176 61.8036 30.8222 62.1852 30.812C62.2863 30.8102 62.3889 30.8255 62.487 30.8462C63.086 30.9717 63.6726 31.1255 64.238 31.37C64.7751 31.6024 65.2934 31.8734 65.8138 32.1393C66.0934 32.2816 66.3162 32.4784 66.5019 32.728C66.9017 33.2689 66.9231 33.2867 66.8937 33.9112C66.8797 34.2185 66.8949 34.5206 66.925 34.8238C66.9862 35.4672 66.8922 36.0877 66.7065 36.7043C66.3994 37.7217 65.819 38.584 65.2106 39.4365C65.0333 39.6846 64.8508 39.9308 64.6524 40.1635C64.4719 40.3774 64.2779 40.5777 64.0786 40.7735C63.8772 40.9745 63.6304 41.1105 63.3587 41.1896C62.7959 41.3519 62.2349 41.5067 61.6445 41.5556C61.233 41.5907 60.8277 41.5585 60.4278 41.5037C59.8605 41.4271 59.3653 41.1663 58.9096 40.8254C58.7878 40.7354 58.681 40.6193 58.5548 40.5345C58.1915 40.2864 57.8872 39.981 57.7046 39.5757C57.5378 39.2084 57.2634 39.1496 56.8902 39.1984C56.4266 39.258 55.9963 39.4107 55.5777 39.5846C54.3551 40.0909 53.1448 40.6232 52.0104 41.3115C51.2011 41.8023 50.4757 42.4014 49.8223 43.0853C49.703 43.2122 49.6089 43.3713 49.5344 43.5286C49.2482 44.1247 49.0128 44.7383 48.8472 45.3851C48.4788 46.8129 48.0775 48.2313 47.6612 49.6486C47.4162 50.4803 47.2139 51.3204 47.0594 52.171C46.9127 52.9715 46.7382 53.7647 46.5156 54.545C46.3753 55.0365 46.2722 55.5296 46.2149 56.0382C46.1754 56.3897 46.0735 56.7346 45.9942 57.0823C45.9586 57.2336 45.8807 57.2728 45.6466 57.2769L45.6613 57.2755L45.6499 57.2593Z" fill="url(#paint1_linear_476_3244)"/>
<defs>
<linearGradient id="paint0_linear_476_3244" x1="8.96764" y1="157.41" x2="30.7095" y2="202.155" gradientUnits="userSpaceOnUse">
<stop offset="0.42" stop-color="#0088C3"/>
<stop offset="1" stop-color="#0F1F42"/>
</linearGradient>
<linearGradient id="paint1_linear_476_3244" x1="180.785" y1="-10.6766" x2="40.756" y2="36.9295" gradientUnits="userSpaceOnUse">
<stop stop-color="#F0F4F8"/>
<stop offset="0.53" stop-color="#00DC86"/>
<stop offset="1" stop-color="#23626A"/>
</linearGradient>
</defs>
</svg>
