<svg width="27" height="26" viewBox="0 0 27 26" fill="none" xmlns="http://www.w3.org/2000/svg">
<path d="M25.8751 9.68335C25.8751 7.39797 24.0147 5.53754 21.7293 5.53754C19.4439 5.53754 17.5835 7.39797 17.5835 9.68335C17.5835 11.6858 19.0107 13.3595 20.9001 13.7453V17.5605C20.9001 20.9902 18.111 23.7794 14.6813 23.7794C11.2516 23.7794 8.46243 20.9902 8.46243 17.5605V16.408L10.7945 13.0271C12.8612 11.9015 14.2666 9.7094 14.2666 7.19592V2.22095C14.2666 1.76282 13.8955 1.39178 13.4374 1.39178H12.6083C12.6083 0.933662 12.2372 0.562622 11.7791 0.562622C11.321 0.562622 10.9499 0.933662 10.9499 1.39178V3.05011C10.9499 3.50823 11.321 3.87927 11.7791 3.87927C12.2372 3.87927 12.6083 3.50823 12.6083 3.05011V7.19592C12.6083 9.93945 10.3768 12.1709 7.63329 12.1709C4.88982 12.1709 2.65832 9.93939 2.65832 7.19592V3.05011C2.65832 3.50823 3.02936 3.87927 3.48749 3.87927C3.94561 3.87927 4.31665 3.50823 4.31665 3.05011V1.39178C4.31665 0.933662 3.94561 0.562622 3.48749 0.562622C3.02936 0.562622 2.65832 0.933662 2.65832 1.39178H1.82916C1.37104 1.39178 1 1.76282 1 2.22095V7.19592C1 9.66682 2.36086 11.8236 4.37051 12.9648L6.80411 16.7404V17.5603C6.80411 21.904 10.3373 25.4374 14.6813 25.4374C19.0253 25.4374 22.5584 21.9043 22.5584 17.5603V13.745C24.4479 13.3595 25.8751 11.6856 25.8751 9.68309V9.68335ZM7.63353 13.8292C7.84082 13.8292 8.04501 13.8167 8.24711 13.7981L7.54128 14.8221L6.8707 13.7815C7.12153 13.8105 7.37544 13.8292 7.63353 13.8292ZM21.7293 12.1708C20.358 12.1708 19.2418 11.0546 19.2418 9.68335C19.2418 8.31212 20.358 7.19586 21.7293 7.19586C23.1005 7.19586 24.2168 8.31212 24.2168 9.68335C24.2168 11.0546 23.1005 12.1708 21.7293 12.1708Z" fill="#199BD7" stroke="#199BD7"/>
</svg>
