<svg width="252" height="255" viewBox="0 0 252 255" fill="none" xmlns="http://www.w3.org/2000/svg">
<path d="M126 254.879C195.068 254.879 251.059 198.888 251.059 129.82C251.059 60.7521 195.068 4.76147 126 4.76147C56.9321 4.76147 0.941406 60.7521 0.941406 129.82C0.941406 198.888 56.9321 254.879 126 254.879Z" fill="url(#paint0_linear_469_1073)"/>
<path d="M191.505 29.9796C179.196 17.6609 157.948 18.9391 144.034 32.8363C143.313 33.5569 142.61 34.3719 141.932 35.2211C141.932 34.1231 141.881 33.0593 141.761 32.0385C139.565 12.4966 123.764 -1.76947 106.462 0.177857C89.1596 2.1166 76.91 19.531 79.0974 39.0729C79.2089 40.0852 79.4062 41.1403 79.655 42.204C78.7972 41.5263 77.9308 40.9001 77.0644 40.3511C60.4228 29.8853 39.415 33.3424 30.142 48.0803C20.8691 62.8182 26.848 83.2522 43.4896 93.7266C44.356 94.2671 45.2996 94.7732 46.2861 95.245C45.2224 95.4938 44.193 95.7769 43.2237 96.12C24.6606 102.605 14.2725 121.186 20.0113 137.623C25.7586 154.059 45.454 162.132 64.0171 155.646C64.9864 155.312 65.9643 154.883 66.9422 154.403C66.4704 155.389 66.0501 156.376 65.7155 157.345C59.2133 175.9 67.2596 195.614 83.6953 201.37C100.131 207.126 118.72 196.755 125.222 178.199C125.557 177.239 125.84 176.201 126.08 175.137C126.56 176.123 127.066 177.058 127.615 177.933C138.072 194.584 158.497 200.581 173.242 191.324C187.988 182.068 191.471 161.059 181.014 144.409C180.474 143.542 179.839 142.684 179.153 141.826C180.225 142.067 181.272 142.255 182.292 142.367C201.833 144.58 219.255 132.339 221.211 115.044C223.167 97.7414 208.919 81.9226 189.378 79.7093C188.357 79.5978 187.293 79.5549 186.204 79.5549C187.053 78.8686 187.86 78.1652 188.589 77.436C202.494 63.5388 203.798 42.2898 191.488 29.971L191.505 29.9796Z" fill="url(#paint1_linear_469_1073)"/>
<path d="M115.112 128.606C125.382 124.229 136.788 123.944 147.194 127.805C154.557 130.536 162.224 136.744 162.942 146.11C163.706 156.064 156.441 163.925 149.751 169.674C138.766 179.111 126.844 188.09 113.496 189.844C109.03 190.431 103.107 188.712 102.734 183.237C102.483 179.553 105.085 176.565 107.622 174.555C120.502 164.344 138.618 163.979 150.843 175.333C163.067 186.687 167.414 209.732 159.174 225.571" stroke="#0F264A" stroke-width="0.984435" stroke-linecap="round" stroke-linejoin="round"/>
<path d="M146.768 132.91L94.7422 162.927V102.497L146.768 72.4827V132.91Z" fill="url(#paint2_linear_469_1073)"/>
<path d="M146.768 132.91L152.372 136.513V76.0827L146.768 72.4827V132.91Z" fill="#6DD2F2" stroke="#F0F4F8" stroke-width="0.340635" stroke-miterlimit="10"/>
<path d="M146.768 132.51L94.7422 162.927L100.346 166.672L152.372 136.513L146.768 132.51Z" fill="#4FBAD3" stroke="#F0F4F8" stroke-width="0.340635" stroke-miterlimit="10"/>
<path d="M117.554 97.2947L99.5449 107.298V106.099L117.554 96.0928V97.2947Z" fill="#019DD8"/>
<path d="M117.753 102.097L99.7441 112.1V110.901L117.753 100.895V102.097Z" fill="#019DD8"/>
<path d="M117.954 106.899L99.9453 116.902V115.703L117.954 105.697V106.899Z" fill="#019DD8"/>
<path d="M118.157 111.701L100.148 121.704V120.505L118.157 110.499V111.701Z" fill="#019DD8"/>
<path d="M117.954 130.509L99.9453 140.516V139.314L117.954 129.31V130.509Z" fill="#019DD8"/>
<path d="M118.157 135.314L100.148 145.317V144.115L118.157 134.112V135.314Z" fill="#019DD8"/>
<path d="M141.167 84.8871L123.158 94.8936V93.6917L141.167 83.688V84.8871Z" fill="#019DD8"/>
<path d="M141.366 89.6891L123.357 99.6956V98.4937L141.366 88.49V89.6891Z" fill="#019DD8"/>
<path d="M141.567 94.4911L123.559 104.498V103.296L141.567 93.292V94.4911Z" fill="#019DD8"/>
<path d="M141.567 116.817L123.559 126.824V125.622L141.567 115.618V116.817Z" fill="#019DD8"/>
<path d="M141.767 99.2931L123.758 109.3V108.098L141.767 98.094V99.2931Z" fill="#019DD8"/>
<path d="M141.767 121.619L123.758 131.626V130.424L141.767 120.42V121.619Z" fill="#019DD8"/>
<path d="M122.858 79.4604C112.852 95.5194 110.091 102.899 108.247 107.205C108.124 107.49 107.841 107.659 107.565 107.522L105.566 107.296L105.56 97.2666C103.907 94.2347 101.906 91.2199 99.5879 88.8417C102.146 84.3281 104.073 80.5168 105.546 77.2707L105.535 57.9885L110.28 59.3817C110.28 59.3817 113.389 67.7981 122.861 79.4633L122.858 79.4604Z" fill="#A37624" stroke="#F0F4F8" stroke-width="0.340635" stroke-miterlimit="10"/>
<path d="M119.244 79.5889C113.211 88.088 108.292 98.4428 105.563 107.299C104.758 104.267 100.735 92.5902 94.2344 85.9182C103.467 69.6309 104.506 62.4365 105.531 58.2483C107.681 64.6462 114.259 75.5177 119.244 79.5889Z" fill="#FFD066" stroke="#F0F4F8" stroke-width="0.340635" stroke-miterlimit="10"/>
<defs>
<linearGradient id="paint0_linear_469_1073" x1="-133.326" y1="-177.628" x2="313.291" y2="289.021" gradientUnits="userSpaceOnUse">
<stop offset="0.26" stop-color="white"/>
<stop offset="0.83621" stop-color="#BEF5FF"/>
</linearGradient>
<linearGradient id="paint1_linear_469_1073" x1="497.886" y1="3.13912e-05" x2="78.6069" y2="-231.325" gradientUnits="userSpaceOnUse">
<stop stop-color="#F0F4F8"/>
<stop offset="0.300019" stop-color="#00DC86"/>
<stop offset="1" stop-color="#23626A"/>
</linearGradient>
<linearGradient id="paint2_linear_469_1073" x1="92.5839" y1="90.1404" x2="156.991" y2="153.157" gradientUnits="userSpaceOnUse">
<stop stop-color="#F0F4F8"/>
<stop offset="0.54" stop-color="#BEF5FF"/>
<stop offset="0.96" stop-color="#39C7DF"/>
</linearGradient>
</defs>
</svg>
