<svg width="435" height="300" viewBox="0 0 435 300" fill="none" xmlns="http://www.w3.org/2000/svg">
<path d="M217.5 360C337.622 360 435 262.622 435 142.5C435 22.3781 337.622 -75 217.5 -75C97.3781 -75 0 22.3781 0 142.5C0 262.622 97.3781 360 217.5 360Z" fill="url(#paint0_linear_554_9605)"/>
<path d="M331.425 -31.1412C310.016 -52.5657 273.062 -50.3427 248.863 -26.1729C247.61 -24.9197 246.387 -23.5023 245.208 -22.0252C245.208 -23.9349 245.119 -25.785 244.91 -27.5604C241.091 -61.5473 213.61 -86.3587 183.518 -82.9719C153.427 -79.6001 132.123 -49.3132 135.927 -15.3263C136.121 -13.5658 136.464 -11.7307 136.897 -9.88071C135.405 -11.0594 133.898 -12.1485 132.391 -13.1033C103.448 -31.3052 66.9119 -25.2926 50.7845 0.339287C34.6571 25.9712 45.0556 61.5097 73.9984 79.7265C75.5052 80.6665 77.1463 81.5468 78.862 82.3673C77.012 82.8 75.2217 83.2924 73.5359 83.8892C41.2513 95.1684 23.1845 127.484 33.1652 156.07C43.1609 184.656 77.4148 198.696 109.699 187.416C111.385 186.834 113.086 186.089 114.787 185.253C113.966 186.969 113.235 188.685 112.653 190.37C101.345 222.642 115.339 256.927 143.923 266.938C172.508 276.949 204.837 258.911 216.146 226.64C216.728 224.969 217.22 223.164 217.638 221.314C218.473 223.03 219.354 224.656 220.308 226.178C238.495 255.137 274.017 265.565 299.662 249.467C325.308 233.369 331.365 196.831 313.179 167.872C312.239 166.365 311.135 164.873 309.941 163.381C311.806 163.799 313.626 164.127 315.402 164.321C349.387 168.17 379.688 146.88 383.089 116.802C386.491 86.709 361.71 59.1972 327.725 55.3479C325.949 55.154 324.099 55.0794 322.205 55.0794C323.682 53.8858 325.084 52.6624 326.352 51.3942C350.536 27.2244 352.804 -9.73153 331.395 -31.1561L331.425 -31.1412Z" fill="url(#paint1_linear_554_9605)"/>
<path d="M198.564 140.388C216.424 132.776 236.262 132.28 254.361 138.994C267.165 143.745 280.499 154.541 281.748 170.831C283.077 188.143 270.441 201.815 258.807 211.812C239.703 228.226 218.967 243.842 195.753 246.892C187.985 247.913 177.684 244.923 177.035 235.402C176.599 228.995 181.125 223.798 185.536 220.302C207.938 202.544 239.445 201.909 260.706 221.656C281.967 241.402 289.526 281.481 275.195 309.028" stroke="#0F264A" stroke-width="0.984435" stroke-linecap="round" stroke-linejoin="round"/>
<path d="M253.616 147.874L163.135 200.078V94.9789L253.616 42.7793V147.874Z" fill="url(#paint2_linear_554_9605)"/>
<path d="M253.617 147.874L263.364 154.14V49.0405L253.617 42.7793V147.874Z" fill="#6DD2F2" stroke="#F0F4F8" stroke-width="0.340635" stroke-miterlimit="10"/>
<path d="M253.616 147.178L163.135 200.078L172.882 206.593L263.363 154.14L253.616 147.178Z" fill="#4FBAD3" stroke="#F0F4F8" stroke-width="0.340635" stroke-miterlimit="10"/>
<path d="M202.807 85.9319L171.486 103.33V101.245L202.807 83.8416V85.9319Z" fill="#019DD8"/>
<path d="M203.155 94.2835L171.834 111.682V109.596L203.155 92.1931V94.2835Z" fill="#019DD8"/>
<path d="M203.502 102.635L172.182 120.033V117.948L203.502 100.545V102.635Z" fill="#019DD8"/>
<path d="M203.856 110.986L172.535 128.385V126.299L203.856 108.896V110.986Z" fill="#019DD8"/>
<path d="M203.502 143.698L172.182 161.101V159.011L203.502 141.612V143.698Z" fill="#019DD8"/>
<path d="M203.856 152.054L172.535 169.452V167.362L203.856 149.964V152.054Z" fill="#019DD8"/>
<path d="M243.875 64.353L212.555 81.7562V79.6658L243.875 62.2676V64.353Z" fill="#019DD8"/>
<path d="M244.223 72.7045L212.902 90.1077V88.0174L244.223 70.6191V72.7045Z" fill="#019DD8"/>
<path d="M244.571 81.0561L213.25 98.4593V96.3689L244.571 78.9707V81.0561Z" fill="#019DD8"/>
<path d="M244.571 119.885L213.25 137.288V135.198L244.571 117.8V119.885Z" fill="#019DD8"/>
<path d="M244.916 89.4077L213.596 106.811V104.72L244.916 87.3223V89.4077Z" fill="#019DD8"/>
<path d="M244.916 128.237L213.596 145.64V143.55L244.916 126.151V128.237Z" fill="#019DD8"/>
<path d="M212.038 54.9146C194.635 82.8441 189.834 95.6793 186.626 103.167C186.412 103.663 185.921 103.956 185.439 103.718L181.964 103.326L181.954 85.8829C179.079 80.6098 175.598 75.3665 171.566 71.2304C176.015 63.3804 179.367 56.7518 181.929 51.1063L181.909 17.571L190.161 19.9941C190.161 19.9941 195.568 34.6316 212.043 54.9196L212.038 54.9146Z" fill="#A37624" stroke="#F0F4F8" stroke-width="0.340635" stroke-miterlimit="10"/>
<path d="M205.751 55.1377C195.26 69.9192 186.705 87.9281 181.958 103.33C180.558 98.0572 173.562 77.7494 162.256 66.1456C178.313 37.8189 180.121 25.3065 181.903 18.0225C185.642 29.1496 197.082 48.0572 205.751 55.1377Z" fill="#FFD066" stroke="#F0F4F8" stroke-width="0.340635" stroke-miterlimit="10"/>
<path d="M313.5 203C323.717 203 332 194.493 332 184C332 173.507 323.717 165 313.5 165C303.283 165 295 173.507 295 184C295 194.493 303.283 203 313.5 203Z" fill="url(#paint3_linear_554_9605)"/>
<path d="M366.846 242.396L381.466 248.72L366.312 247.488C358.427 246.831 351.035 251.39 348.038 258.699L342.288 272.744L343.274 256.851C343.767 249.213 339.373 242.109 332.35 239.07L317.73 232.745L332.884 233.977C340.769 234.634 348.161 230.076 351.159 222.766L356.908 208.721L355.922 224.614C355.471 232.253 359.824 239.357 366.846 242.396Z" fill="url(#paint4_linear_554_9605)"/>
<path d="M121.314 116.029L138.51 111.058L124.455 120.842C117.148 125.957 113.933 135.153 116.631 143.657L121.712 160.011L111.188 145.491C106.133 138.542 97.2589 135.494 88.9554 137.806L71.7595 142.777L85.8147 132.993C93.1212 127.878 96.3359 118.682 93.6381 110.178L88.5573 93.8238L99.0807 108.344C104.167 115.39 113.041 118.438 121.314 116.029Z" fill="url(#paint5_linear_554_9605)"/>
<defs>
<linearGradient id="paint0_linear_554_9605" x1="-233.515" y1="-392.209" x2="543.234" y2="419.38" gradientUnits="userSpaceOnUse">
<stop offset="0.26" stop-color="white"/>
<stop offset="0.83621" stop-color="#BEF5FF"/>
</linearGradient>
<linearGradient id="paint1_linear_554_9605" x1="864.277" y1="-83.2812" x2="135.074" y2="-485.597" gradientUnits="userSpaceOnUse">
<stop stop-color="#F0F4F8"/>
<stop offset="0.300019" stop-color="#00DC86"/>
<stop offset="1" stop-color="#23626A"/>
</linearGradient>
<linearGradient id="paint2_linear_554_9605" x1="159.381" y1="73.4893" x2="271.397" y2="183.087" gradientUnits="userSpaceOnUse">
<stop stop-color="#F0F4F8"/>
<stop offset="0.54" stop-color="#BEF5FF"/>
<stop offset="0.96" stop-color="#39C7DF"/>
</linearGradient>
<linearGradient id="paint3_linear_554_9605" x1="290.73" y1="137.229" x2="325.663" y2="205.258" gradientUnits="userSpaceOnUse">
<stop offset="0.14" stop-color="#F0F4F8"/>
<stop offset="0.52" stop-color="#DE97FF"/>
<stop offset="0.83" stop-color="#A827D8"/>
</linearGradient>
<linearGradient id="paint4_linear_554_9605" x1="382.087" y1="196.234" x2="325.167" y2="251.499" gradientUnits="userSpaceOnUse">
<stop stop-color="#0088C3"/>
<stop offset="1" stop-color="#0F1F42"/>
</linearGradient>
<linearGradient id="paint5_linear_554_9605" x1="129.005" y1="15.7864" x2="13.558" y2="94.0314" gradientUnits="userSpaceOnUse">
<stop offset="0.300019" stop-color="#00DC86"/>
</linearGradient>
</defs>
</svg>
