<?xml version="1.0" encoding="utf-8"?>
<!-- Generator: Adobe Illustrator 24.2.1, SVG Export Plug-In . SVG Version: 6.00 Build 0)  -->
<svg version="1.1" id="Слой_1" xmlns="http://www.w3.org/2000/svg" xmlns:xlink="http://www.w3.org/1999/xlink" x="0px" y="0px"
	 viewBox="0 0 66 44" style="enable-background:new 0 0 66 44;" xml:space="preserve">
<style type="text/css">
	.st0{fill:#FFFFFF;}
	.st1{fill:url(#SVGID_1_);}
	.st2{fill:url(#SVGID_2_);}
	.st3{fill:url(#SVGID_3_);}
	.st4{fill:url(#SVGID_4_);}
</style>
<path class="st0" d="M24.8,23c0.5-1.8,2.2-3,4-3h9c1.9,0,3.5,1.2,4,3l1.4,4.5H23.4L24.8,23z"/>
<linearGradient id="SVGID_1_" gradientUnits="userSpaceOnUse" x1="413.3189" y1="-170.3963" x2="425.5976" y2="-305.4865" gradientTransform="matrix(1 0 0 -1 -387.9 -229.6)">
	<stop  offset="0.2" style="stop-color:#FFFFA8"/>
	<stop  offset="0.6298" style="stop-color:#FFCE4E"/>
	<stop  offset="0.94" style="stop-color:#C69024"/>
</linearGradient>
<path class="st1" d="M24.8,23c0.5-1.8,2.2-3,4-3h9c1.9,0,3.5,1.2,4,3l1.4,4.5H23.4L24.8,23z"/>
<path class="st0" d="M54.5,0.5H12.4c-2.6,0-4.8,2.1-4.8,4.7V33c0,0.7,0.6,1.2,1.2,1.2H58c0.7,0,1.2-0.5,1.2-1.2V5.1
	C59.2,2.6,57.1,0.5,54.5,0.5z M55,30.1H11.6V4.4H55V30.1z"/>
<linearGradient id="SVGID_2_" gradientUnits="userSpaceOnUse" x1="414.2218" y1="-170.3142" x2="426.5005" y2="-305.4044" gradientTransform="matrix(1 0 0 -1 -387.9 -229.6)">
	<stop  offset="0.2" style="stop-color:#FFFFA8"/>
	<stop  offset="0.6298" style="stop-color:#FFCE4E"/>
	<stop  offset="0.94" style="stop-color:#C69024"/>
</linearGradient>
<path class="st2" d="M54.5,0.5H12.4c-2.6,0-4.8,2.1-4.8,4.7V33c0,0.7,0.6,1.2,1.2,1.2H58c0.7,0,1.2-0.5,1.2-1.2V5.1
	C59.2,2.6,57.1,0.5,54.5,0.5z M55,30.1H11.6V4.4H55V30.1z"/>
<path class="st0" d="M65.3,37.3c0,2.9-3.5,5.3-7.8,5.3H8.4c-4.3,0-7.8-2.4-7.8-5.3c0-0.5,0.6-1,1.4-1h61.9
	C64.7,36.4,65.3,36.8,65.3,37.3z"/>
<linearGradient id="SVGID_3_" gradientUnits="userSpaceOnUse" x1="412.0653" y1="-170.5102" x2="424.344" y2="-305.6005" gradientTransform="matrix(1 0 0 -1 -387.9 -229.6)">
	<stop  offset="0.2" style="stop-color:#FFFFA8"/>
	<stop  offset="0.6298" style="stop-color:#FFCE4E"/>
	<stop  offset="0.94" style="stop-color:#C69024"/>
</linearGradient>
<path class="st3" d="M65.3,37.3c0,2.9-3.5,5.3-7.8,5.3H8.4c-4.3,0-7.8-2.4-7.8-5.3c0-0.5,0.6-1,1.4-1h61.9
	C64.7,36.4,65.3,36.8,65.3,37.3z"/>
<path class="st0" d="M38.6,13.7c0,2.9-2.3,5.2-5.2,5.2c-2.9,0-5.2-2.3-5.2-5.2s2.3-5.2,5.2-5.2C36.2,8.5,38.6,10.9,38.6,13.7z"/>
<linearGradient id="SVGID_4_" gradientUnits="userSpaceOnUse" x1="414.5636" y1="-170.2832" x2="426.8422" y2="-305.3734" gradientTransform="matrix(1 0 0 -1 -387.9 -229.6)">
	<stop  offset="0.2" style="stop-color:#FFFFA8"/>
	<stop  offset="0.6298" style="stop-color:#FFCE4E"/>
	<stop  offset="0.94" style="stop-color:#C69024"/>
</linearGradient>
<path class="st4" d="M38.6,13.7c0,2.9-2.3,5.2-5.2,5.2c-2.9,0-5.2-2.3-5.2-5.2s2.3-5.2,5.2-5.2C36.2,8.5,38.6,10.9,38.6,13.7z"/>
</svg>
