<svg width="325" height="371" viewBox="0 0 325 371" fill="none" xmlns="http://www.w3.org/2000/svg">
<path d="M186.243 337.308C276.567 337.308 349.776 264.099 349.776 173.776C349.776 83.4522 276.567 10.2433 186.243 10.2433C95.9198 10.2433 22.7109 83.4522 22.7109 173.776C22.6773 264.099 95.9198 337.308 186.243 337.308Z" fill="#00A8E1"/>
<path d="M182.371 30.6595C182.371 30.6595 140.999 20.3503 112.969 68.7295C84.9385 117.109 106.231 175.662 120.482 186.51H252.177C252.177 186.51 296.412 111.853 244.563 50.4694C244.563 50.4694 221.384 21.9338 191.13 30.9964L182.371 30.6595Z" fill="url(#paint0_linear_554_15241)"/>
<path d="M122.668 184.725C122.668 184.725 120.512 189.947 114.987 187.959C109.462 185.971 107.542 177.279 107.036 175.258C106.565 173.203 99.8938 163.534 99.0179 160.94C98.1756 158.345 92.2125 138.434 99.119 133.415C105.992 128.395 117.177 143.522 120.479 157.368C123.747 171.148 124.959 180.143 122.668 184.725Z" fill="#F9CCA7"/>
<path d="M116.266 179.368C118.153 178.627 119.298 176.37 118.759 174.416C118.052 171.788 115.087 170.474 113.773 168.116C113.032 166.768 112.897 165.083 113.402 163.635C113.908 162.186 115.087 160.973 116.502 160.367C114.481 155.684 112.291 151.169 109.764 146.756C108.315 144.229 106.53 141.534 103.733 140.759C102.959 140.523 102.083 140.49 101.308 140.725C100.162 141.096 99.3537 142.107 98.7135 143.117C97.0627 145.846 96.4226 149.114 96.8606 152.247" stroke="#AB8360" stroke-width="0.366684" stroke-miterlimit="10" stroke-linecap="round" stroke-linejoin="round"/>
<path d="M251.37 188.633C251.37 188.633 252.919 194.023 258.546 192.305C264.172 190.587 266.867 181.929 267.473 179.941C268.046 177.919 275.189 168.587 276.166 166.027C277.143 163.5 284.049 143.892 277.412 138.536C270.775 133.213 258.882 147.767 254.907 161.411C250.932 175.056 249.281 183.95 251.37 188.633Z" fill="#F9CCA7"/>
<path d="M258.005 183.613C256.152 182.771 255.107 180.446 255.748 178.526C256.59 175.965 259.622 174.786 261.037 172.462C261.845 171.148 262.048 169.497 261.61 168.015C261.172 166.532 260.06 165.252 258.679 164.612C260.936 160.03 263.328 155.65 266.09 151.338C267.674 148.879 269.561 146.284 272.391 145.611C273.199 145.408 274.041 145.408 274.816 145.712C275.928 146.15 276.703 147.194 277.276 148.238C278.792 151.035 279.263 154.336 278.657 157.47" stroke="#A37624" stroke-width="0.366684" stroke-miterlimit="10" stroke-linecap="round" stroke-linejoin="round"/>
<path d="M235.227 354.524C206.995 362.811 177.044 363.451 148.508 356.377L139.715 354.187C132.977 352.536 128.901 345.697 130.652 338.992L131.697 334.983C140.658 300.316 144.331 264.503 142.646 228.724L142.478 224.884H234.688L234.351 229.701C231.824 266.356 234.991 303.18 243.683 338.891L243.852 339.599C245.401 346.101 241.628 352.671 235.227 354.524Z" fill="#F9CCA7"/>
<path d="M233.913 271.679C233.239 257.731 233.374 243.716 234.318 229.735L234.654 224.917H142.444L142.613 228.758C143.253 242.133 143.118 255.508 142.242 268.849C151.271 285.324 168.79 296.509 188.903 296.509C207.871 296.509 224.48 286.604 233.913 271.679Z" fill="url(#paint1_linear_554_15241)"/>
<path d="M168.219 180.48C177.551 178.257 176.81 178.122 184.019 182.063C186.748 183.546 187.961 183.512 190.656 181.962C198.54 177.448 200.629 176.842 203.29 181.39C205.817 185.668 197.327 184.321 190.286 184.927C188.231 185.096 188.298 187.892 186.243 188.161C181.964 188.7 186.715 183.883 171.824 184.893C169.87 184.523 168.488 182.165 168.219 180.48Z" fill="#EAB892"/>
<path d="M116.236 153.595C119.1 133.415 112.968 68.7293 180.147 71.4245C181.865 71.4919 183.718 63.3726 185.672 63.3726C186.784 63.3726 187.963 71.6267 189.075 71.2898C202.517 67.5839 262.385 79.9482 258.241 146.385C256.859 168.25 249.683 202.446 236.241 225.827C216.296 260.494 174.251 273.229 138.068 224.547C126.68 209.217 114.114 174.011 116.236 153.595Z" fill="#FEE2CC"/>
<path d="M185.974 231.083C190.365 231.083 193.925 229.378 193.925 227.276C193.925 225.173 190.365 223.469 185.974 223.469C181.583 223.469 178.023 225.173 178.023 227.276C178.023 229.378 181.583 231.083 185.974 231.083Z" fill="url(#paint2_linear_554_15241)"/>
<path d="M178.023 186.174C178.023 186.174 170.611 187.521 168.556 184.118C166.535 180.716 174.048 178.795 176.44 177.448C178.832 176.1 180.28 173.674 184.189 173.472C188.097 173.27 189.68 175.898 191.769 177.111C193.891 178.324 200.495 178.829 200.596 183.074C200.663 187.049 194.228 186.847 189.141 185.769C184.087 184.657 178.023 186.174 178.023 186.174Z" fill="#F9CCA7"/>
<path d="M184.829 143.859C183.347 143.589 182.033 145.408 181.528 147.43C179.641 155.111 178.192 169.025 177.586 176.639C177.586 176.639 179.506 181.053 184.526 181.053C190.22 181.053 191.635 176.033 191.635 176.033C190.523 169.8 189.546 144.734 184.829 143.859Z" fill="#FCE7D9"/>
<path opacity="0.51" d="M186.745 176.336C188.345 176.336 189.642 175.039 189.642 173.439C189.642 171.838 188.345 170.541 186.745 170.541C185.145 170.541 183.848 171.838 183.848 173.439C183.848 175.039 185.145 176.336 186.745 176.336Z" fill="white"/>
<path d="M198.171 203.153H171.051V211.104H198.171V203.153Z" fill="white"/>
<path d="M159.898 207.398C159.898 207.398 165.491 221.312 179.439 220.538C179.439 220.538 184.796 220.167 188.737 220.571C188.737 220.571 207.974 219.897 212.59 206.758L202.079 205.748C198.474 205.613 185.267 210.228 185.267 210.228L177.653 208.072C174.958 207.499 172.364 206.859 169.601 206.792L159.898 207.398Z" fill="#F49C95"/>
<path d="M158.144 205.646C161.748 204.299 171.519 200.694 175.427 199.077C176.1 198.807 176.808 198.74 177.515 198.841C179.672 199.245 182.198 200.391 185.668 200.29C187.825 200.222 190.048 199.65 191.43 199.245C192.44 198.942 193.518 198.908 194.529 199.212C199.111 200.525 209.925 204.265 215.08 205.377C215.417 205.444 215.484 205.916 215.147 206.051C211.778 207.466 204.468 209.689 191.362 206.017C191.362 206.017 186.41 209.083 178.93 206.017C178.93 206.017 164.612 209.319 158.144 206.859C157.605 206.623 157.571 205.849 158.144 205.646Z" fill="#E27E79"/>
<path d="M175.769 181.659C175.229 181.76 174.792 182.266 174.488 182.535C174.185 182.805 174.017 183.815 174.354 184.051C174.69 184.321 175.297 184.354 175.87 184.388C176.442 184.422 177.015 184.456 177.588 184.422C178.632 184.354 181.53 183.883 180.856 183.243C180.047 182.468 176.981 181.457 175.769 181.659Z" fill="#876F5C"/>
<path d="M193.859 181.086C194.398 181.187 195.509 182.097 195.846 182.366C196.183 182.636 195.678 183.815 195.341 184.085C195.004 184.354 194.398 184.388 193.825 184.421C193.252 184.455 192.679 184.489 192.107 184.455C191.062 184.388 188.165 183.916 188.839 183.276C189.614 182.467 192.646 180.85 193.859 181.086Z" fill="#876F5C"/>
<path d="M166.735 141.433C155.921 134.661 146.925 136.615 141.973 137.188C139.076 137.525 136.65 139.479 135.605 142.174L135.774 147.026" fill="url(#paint3_linear_554_15241)"/>
<path d="M232.97 151.237C232.97 151.237 221.178 156.863 209.926 153.022C209.926 153.022 214.272 155.819 219.965 155.819C223.503 155.819 228.961 155.313 231.723 154.404C240.146 151.641 232.97 151.237 232.97 151.237Z" fill="#443122"/>
<path d="M202.28 150.327C202.28 150.327 200.393 151.338 201.707 152.045C203.021 152.753 203.729 151.574 205.447 151.81C207.165 152.045 211.882 154.168 216.026 154.572C220.17 154.977 230.041 154.336 239.272 148.104C239.272 148.07 214.813 142.814 202.28 150.327Z" fill="#F0F4F8"/>
<path d="M205.915 146.992C205.915 146.992 205.444 139.007 211.272 137.592C215.787 136.48 228.454 135.436 239.269 142.309" fill="url(#paint4_linear_554_15241)"/>
<path d="M219.256 147.396C218.785 146.958 218.347 146.588 217.875 146.217C214.574 146.487 211.474 146.958 208.812 147.497C209.082 149.013 210.463 151.978 211.878 153.696C213.563 154.539 215.483 154.437 217.673 154.539C220.638 154.64 222.322 154.235 224.209 154.067C223.939 151.978 221.75 149.687 219.256 147.396Z" fill="#009CD8"/>
<path d="M170.579 149.148C170.579 149.148 172.432 150.159 171.152 150.866C169.872 151.54 169.131 150.361 167.412 150.597C165.694 150.799 160.978 152.921 156.834 153.258C152.69 153.629 144.941 155.179 135.777 148.878C135.744 148.845 158.08 141.534 170.579 149.148Z" fill="#F0F4F8"/>
<path d="M150.565 146.217C150.093 145.779 149.655 145.408 149.184 145.038C145.882 145.307 142.783 145.779 140.121 146.318C140.458 148.373 141.974 150.9 144.332 153.09C144.501 153.258 144.669 153.393 144.871 153.528C149.015 154.033 152.418 153.528 154.844 153.292C154.574 151.237 153.058 148.542 150.565 146.217Z" fill="#009CD8"/>
<path d="M171.654 149.552C171.654 149.552 156.46 141.871 137.964 148.609C130.99 151.136 122.265 147.868 119.906 143.555C119.906 143.555 121.894 144.33 124.96 144.802C128.969 145.408 133.045 144.836 136.819 143.387C142.681 141.13 159.357 139.108 171.654 149.552Z" fill="#443122"/>
<path d="M205.444 148.811L204.434 148.609C200.694 147.901 197.393 145.678 195.371 142.444C195.371 142.444 197.157 144.869 209.959 142.814C230.544 139.513 239.269 148.07 239.269 148.07C239.269 148.07 224.479 145.947 218.28 146.453C212.115 146.924 209.959 147.026 205.444 148.811Z" fill="#443122"/>
<path d="M202.516 152.247C202.516 152.247 204.335 151.506 205.447 151.776C206.558 152.045 209.119 153.022 209.119 153.022" stroke="#443122" stroke-width="0.711807" stroke-miterlimit="10" stroke-linecap="round"/>
<path d="M244.457 132.033C233.272 126.441 233.306 124.251 217.842 127.62C204.804 130.517 197.021 133.886 198.335 122.903C198.773 119.164 214.473 118.557 223.67 117.243C230.846 115.222 245.906 126.104 244.457 132.033Z" fill="url(#paint5_linear_554_15241)"/>
<g opacity="0.37">
<path opacity="0.37" d="M180.613 169.699C181.859 169.699 182.87 168.689 182.87 167.442C182.87 166.195 181.859 165.185 180.613 165.185C179.366 165.185 178.355 166.195 178.355 167.442C178.355 168.689 179.366 169.699 180.613 169.699Z" fill="#F49C95"/>
<path opacity="0.37" d="M162.018 167.442C163.172 167.442 164.107 166.507 164.107 165.353C164.107 164.199 163.172 163.264 162.018 163.264C160.865 163.264 159.93 164.199 159.93 165.353C159.93 166.507 160.865 167.442 162.018 167.442Z" fill="#F49C95"/>
<path opacity="0.37" d="M161.007 236.035C162.16 236.035 163.096 235.1 163.096 233.946C163.096 232.793 162.16 231.858 161.007 231.858C159.853 231.858 158.918 232.793 158.918 233.946C158.918 235.1 159.853 236.035 161.007 236.035Z" fill="#F49C95"/>
<path opacity="0.37" d="M171.044 113.807C172.123 113.807 172.998 112.932 172.998 111.853C172.998 110.774 172.123 109.899 171.044 109.899C169.965 109.899 169.09 110.774 169.09 111.853C169.09 112.932 169.965 113.807 171.044 113.807Z" fill="#F49C95"/>
<path opacity="0.37" d="M142.207 104.172C143.844 104.172 145.172 102.844 145.172 101.207C145.172 99.5695 143.844 98.2421 142.207 98.2421C140.57 98.2421 139.242 99.5695 139.242 101.207C139.242 102.844 140.57 104.172 142.207 104.172Z" fill="#F49C95"/>
<path opacity="0.37" d="M164.103 88.1013C165.275 88.1013 166.225 87.1511 166.225 85.9789C166.225 84.8066 165.275 83.8564 164.103 83.8564C162.931 83.8564 161.98 84.8066 161.98 85.9789C161.98 87.1511 162.931 88.1013 164.103 88.1013Z" fill="#F49C95"/>
</g>
<path d="M132.678 187.521C135.078 187.521 137.024 185.575 137.024 183.175C137.024 180.775 135.078 178.829 132.678 178.829C130.278 178.829 128.332 180.775 128.332 183.175C128.332 185.575 130.278 187.521 132.678 187.521Z" fill="#F49C95"/>
<path d="M137.018 203.423C139.418 203.423 141.364 201.477 141.364 199.077C141.364 196.677 139.418 194.731 137.018 194.731C134.618 194.731 132.672 196.677 132.672 199.077C132.672 201.477 134.618 203.423 137.018 203.423Z" fill="#F49C95"/>
<path opacity="0.56" d="M189.242 193.754C190.961 197.83 186.21 198.302 184.054 198.032C181.898 197.763 178.226 196.719 180.719 193.013C182.134 190.924 183.043 188.7 185.2 188.97C187.356 189.239 188.265 191.429 189.242 193.754Z" fill="#F9CCA7"/>
<path opacity="0.1" d="M239.808 190.115C246.507 190.115 251.937 184.685 251.937 177.987C251.937 171.289 246.507 165.858 239.808 165.858C233.11 165.858 227.68 171.289 227.68 177.987C227.68 184.685 233.11 190.115 239.808 190.115Z" fill="#F49C95"/>
<path d="M237.083 93.6939C237.083 93.6939 219.092 74.0525 188.535 76.3771C186.244 76.5456 184.492 78.4659 184.492 80.7568V161.31C184.492 163.5 186.21 165.319 188.4 165.454C193.285 165.724 201.371 166.936 204.572 171.855C208.311 177.65 208.682 185.095 203.392 188.734C201.742 189.879 199.72 190.418 197.699 190.418H189.68C188.602 190.418 187.726 191.294 187.726 192.372C187.726 193.518 188.703 194.225 189.849 194.327C195.947 194.798 207.368 193.282 217.475 202.311C221.417 205.815 220.844 209.453 219.665 212.688C219.631 212.822 213.735 223.57 192.746 223.94C189.883 224.008 187.794 226.703 187.794 229.566V256.62C207.536 257.462 225.257 245.03 236.24 225.894C249.683 202.513 256.892 168.351 258.24 146.453C258.307 145.543 258.341 144.633 258.375 143.724C255.915 129.271 249.818 102.723 237.083 93.6939ZM226.403 169.025C211.478 169.025 190.691 154.336 190.691 133.078C190.691 118.625 211.478 116.772 226.403 116.772C241.328 116.772 253.422 128.462 253.422 142.915C253.422 157.368 241.328 169.025 226.403 169.025Z" fill="url(#paint6_linear_554_15241)"/>
<path d="M145.442 362.003C141.971 360.487 139.883 356.915 140.253 353.176C141.399 341.553 143.824 316.42 143.824 310.255C143.824 302.203 142.342 286.806 150.664 277.272C150.664 277.272 155.313 245.738 201.502 231.824L209.217 228.96C209.217 228.96 214.945 219.392 224.883 216.933C224.883 216.933 228.69 207.971 232.699 202.412C232.699 202.412 234.788 185.971 240.515 179.503C240.515 179.503 240.886 163.264 250.083 162.489C250.083 162.489 252.913 154.201 259.719 153.191C259.719 153.191 263.122 151.978 265.514 153.191L264.132 170.339C264.132 170.339 261.942 184.321 263.93 189.509L264.537 196.078C264.537 196.078 263.155 176.504 274.509 174.921L276.294 175.123L273.296 195.27C273.296 195.27 272.083 213.631 273.094 217.438C273.094 217.438 270.5 222.222 262.515 234.418C254.531 246.58 249.14 260.966 249.14 260.966C249.14 260.966 246.546 264.773 240.145 265.75C233.744 266.76 194.057 286.301 186.847 296.071C186.847 296.071 181.861 300.653 181.254 311.838C180.648 323.023 195.269 361.16 195.269 361.16C195.269 361.16 171.147 373.188 145.442 362.003Z" fill="url(#paint7_linear_554_15241)" stroke="#EAB892" stroke-width="0.355903" stroke-miterlimit="10"/>
<path d="M169.837 173.135C169.837 173.135 176.778 165.993 177.114 163.298L178.327 150.563C177.552 140.557 177.114 133.954 168.827 129.203C165.896 127.553 163.268 126.845 161.988 127.047C157.035 127.822 167.311 137.154 169.837 142.41C170.983 144.768 171.421 147.396 171.185 150.024L169.837 173.135Z" fill="url(#paint8_linear_554_15241)"/>
<path d="M124.826 198.74C126.409 198.066 127.487 196.516 127.487 194.731C127.487 192.305 125.533 190.385 123.141 190.385C122.703 190.385 122.299 190.452 121.895 190.553C122.77 193.316 123.781 196.078 124.826 198.74Z" fill="#F49C95"/>
<path d="M143.221 152.382C143.221 152.382 151.61 155.549 162.896 151.776C162.896 151.776 152.351 157.031 143.962 154.201C135.573 151.371 143.221 152.382 143.221 152.382Z" fill="#443122"/>
<path d="M149.952 152.036C150.886 151.101 150.577 149.278 149.261 147.962C147.945 146.646 146.122 146.337 145.187 147.271C144.253 148.205 144.563 150.029 145.878 151.345C147.194 152.66 149.018 152.97 149.952 152.036Z" fill="#443122"/>
<path d="M217.737 152.582C218.671 151.648 218.362 149.824 217.046 148.508C215.731 147.193 213.907 146.883 212.973 147.817C212.039 148.751 212.348 150.575 213.663 151.891C214.979 153.207 216.803 153.516 217.737 152.582Z" fill="#443122"/>
<path d="M186.918 296.037C194.094 286.267 233.815 266.693 240.216 265.716C246.617 264.705 249.211 260.932 249.211 260.932C249.211 260.932 254.602 246.546 262.586 234.384C270.571 222.222 273.165 217.404 273.165 217.404C272.154 213.597 273.367 195.236 273.367 195.236L276.365 175.089L274.58 174.887C263.193 176.471 264.608 196.045 264.608 196.045L264.304 192.608C264.271 198.336 263.058 204.13 262.788 208.072C262.485 212.587 250.795 236.001 244.73 247.827C242.473 252.24 238.801 255.777 234.286 257.866L215.319 266.626C162.897 290.344 174.453 327.841 174.183 336.23C173.947 343.608 174.183 353.243 173.004 367.191C179.809 365.54 195.307 361.127 195.307 361.127C195.307 361.127 180.685 322.989 181.292 311.804C181.932 300.619 186.918 296.037 186.918 296.037Z" fill="#EAB892"/>
<path d="M250.12 162.456H253.422L251.94 178.256L248.84 203.423L241.125 223.637" stroke="#EAB892" stroke-width="0.366684" stroke-miterlimit="10" stroke-linecap="round" stroke-linejoin="round"/>
<path d="M262.115 153.022C261.239 155.65 260.7 158.379 260.498 161.175L260.363 163.23C260.363 163.23 260.565 167.576 264.608 165.117L265.518 153.191L262.115 153.022Z" fill="#FCF3E6"/>
<path d="M220.333 151.405C221.506 151.405 222.456 150.455 222.456 149.283C222.456 148.11 221.506 147.16 220.333 147.16C219.161 147.16 218.211 148.11 218.211 149.283C218.211 150.455 219.161 151.405 220.333 151.405Z" fill="white"/>
<path d="M151.744 150.192C152.916 150.192 153.866 149.242 153.866 148.07C153.866 146.898 152.916 145.947 151.744 145.947C150.571 145.947 149.621 146.898 149.621 148.07C149.621 149.242 150.571 150.192 151.744 150.192Z" fill="white"/>
<path d="M127.521 130.551C142.952 122.87 139.145 123.51 154.373 127.822C167.209 131.562 174.755 135.402 174.149 124.352C173.947 120.579 158.314 118.995 149.218 117.109C142.177 114.649 126.443 124.554 127.521 130.551Z" fill="url(#paint9_linear_554_15241)"/>
<path d="M199.587 185.23C199.587 185.23 204.876 180.379 198.172 173.439" stroke="#AB8360" stroke-width="0.328277" stroke-miterlimit="10" stroke-linecap="round" stroke-linejoin="round"/>
<path d="M169.904 185.23C169.904 185.23 164.614 180.379 171.319 173.439" stroke="#AB8360" stroke-width="0.328277" stroke-miterlimit="10" stroke-linecap="round" stroke-linejoin="round"/>
<path d="M307.126 50.3346L319.119 55.5229L306.688 54.5122C300.219 53.9731 294.155 57.7127 291.695 63.7096L286.979 75.2317L287.787 62.1935C288.192 55.9272 284.587 50.0988 278.826 47.6057L266.832 42.4174L279.264 43.4281C285.732 43.9671 291.796 40.2275 294.256 34.2307L298.972 22.7086L298.164 35.7467C297.793 42.0131 301.364 47.8415 307.126 50.3346Z" fill="#FFD066"/>
<path d="M227.918 72.4691L235.869 70.0097L229.434 74.659C226.065 77.0847 224.683 81.397 225.964 85.3388L228.457 92.8854L223.437 86.2484C221.045 83.0478 216.867 81.7002 213.06 82.8794L205.109 85.3388L211.544 80.6895C214.913 78.2638 216.295 73.9515 215.014 70.0097L212.521 62.4631L217.541 69.1001C219.933 72.3006 224.077 73.6483 227.918 72.4691Z" fill="#FFD066"/>
<path d="M303.688 188.431L309.415 194.461L302.374 190.755C298.702 188.835 294.221 189.475 291.29 192.406L285.63 197.999L289.369 190.553C291.155 186.982 290.515 182.67 287.786 179.739L282.059 173.708L289.1 177.414C292.772 179.334 297.253 178.694 300.184 175.763L305.844 170.171L302.104 177.616C300.285 181.221 300.925 185.533 303.688 188.431Z" fill="#FFD066"/>
<path d="M252.242 172.933C252.242 172.933 247.997 173.607 248.536 169.059C249.108 164.511 250.119 162.456 250.119 162.456H253.421L252.242 172.933Z" fill="#FCF3E6"/>
<path d="M181.426 70.5488L186.041 30.828H188.703V72.7049L181.426 70.5488Z" fill="#FEE2CC"/>
<path d="M74.4617 350.312C74.4617 350.312 74.7312 352.671 74.6301 353.816L73.6531 357.488C73.6194 358.769 74.6975 359.813 75.9777 359.746L78.8077 359.341C80.0879 359.173 81.3682 359.207 82.6147 359.476C84.7035 359.914 87.9378 360.554 89.3527 360.453L93.2608 360.184C93.9683 360.184 94.1704 359.24 93.5303 358.937C92.5196 358.466 91.0373 358.331 89.0832 357.387C86.9607 356.343 84.3329 354.49 82.7832 353.58C80.4922 352.199 80.0206 349.234 79.1783 348.19C77.5949 346.202 74.4617 349.976 74.4617 350.312Z" fill="#DE97FF"/>
<path d="M50.706 351.559C50.706 351.559 48.1118 358.499 48.5498 359.544C48.9878 360.588 49.1562 362.407 52.6263 362.07C56.0964 361.733 57.0734 358.87 57.0734 358.87C57.0734 358.87 56.2312 354.962 56.2986 353.648C56.3659 352.334 56.3659 351.559 56.3659 351.559H50.706Z" fill="#DE97FF"/>
<path d="M50.6758 328.515H81.3339L75.7076 271.343H67.622L50.6758 328.515Z" fill="url(#paint10_linear_554_15241)"/>
<path d="M61.6618 220.673C63.4474 226.131 60.5837 232.363 55.9008 235.699C54.7216 236.541 53.4077 237.248 51.959 237.619C47.7815 238.697 43.4691 236.709 39.7969 234.452C43.9745 234.351 47.9836 231.622 49.6344 227.748C50.1735 226.434 50.4767 225.019 51.0831 223.739C52.7339 220.201 56.8441 217.944 60.7185 218.483C61.3586 219.224 61.3586 219.729 61.6618 220.673Z" fill="url(#paint11_linear_554_15241)"/>
<path d="M69.0053 202.547C69.0053 202.547 68.6684 194.697 60.01 196.752C60.01 196.752 53.8447 197.089 52.3286 202.547C50.8126 208.005 51.3516 217 59.5383 219.628C59.5046 219.628 68.1967 219.931 69.0053 202.547Z" fill="url(#paint12_linear_554_15241)"/>
<path d="M101.115 227.276L93.2656 219.931L102.935 209.555L110.818 216.865L101.115 227.276Z" fill="url(#paint13_linear_554_15241)"/>
<path d="M68.6018 211.475C68.6018 211.475 68.3323 214.945 68.4333 216.124C68.5344 217.304 67.6921 221.043 71.735 221.043C71.735 221.043 69.7472 226.703 66.3445 225.895C62.9418 225.12 60.8867 221.717 60.8867 221.717L61.5268 209.016L68.6018 211.475Z" fill="#FCD0B1"/>
<path d="M79.9196 222.189L96.6974 230.476L106.434 224.277C106.434 224.277 104.918 231.959 103.941 235.294C102.795 239.236 102.054 239.977 100.504 241.527C97.6407 244.39 84.6699 239.067 84.6699 239.067C84.9395 241.123 85.4785 254.767 86.4892 265.043C89.0834 291.422 93.3283 328.549 93.3283 328.549H83.6929C83.6929 328.549 82.7496 300.013 81.4694 281.483C79.8859 258.439 71.6992 221.077 71.6992 221.077C71.6992 221.077 76.0789 220.268 79.9196 222.189Z" fill="url(#paint14_linear_554_15241)"/>
<path opacity="0.21" d="M150.243 210.876C162.005 199.113 162.005 180.043 150.243 168.281C138.481 156.519 119.411 156.519 107.649 168.281C95.8866 180.043 95.8866 199.113 107.649 210.876C119.411 222.638 138.481 222.638 150.243 210.876Z" fill="white"/>
<path opacity="0.76" d="M125.939 166.061C125.905 165.016 126.713 164.14 127.758 164.107C142.952 163.568 155.721 175.494 156.293 190.655C156.327 191.699 155.519 192.575 154.474 192.609C153.43 192.642 152.554 191.834 152.52 190.789C152.048 177.718 141.032 167.442 127.926 167.914C126.848 167.947 125.972 167.105 125.939 166.061Z" fill="white"/>
<path opacity="0.58" d="M97.8791 190.688C97.2727 173.574 110.715 159.154 127.83 158.514C144.944 157.908 159.364 171.35 160.004 188.465C160.61 205.579 147.168 219.999 130.053 220.639C112.939 221.245 98.5192 207.803 97.8791 190.688ZM158.084 188.532C157.511 172.462 143.967 159.862 127.897 160.434C111.827 161.007 99.2267 174.551 99.7994 190.621C100.372 206.691 113.916 219.291 129.986 218.719C146.056 218.146 158.656 204.602 158.084 188.532Z" fill="#485793"/>
<path d="M164.547 188.296C163.839 168.655 147.297 153.258 127.69 153.966C108.048 154.673 92.6519 171.215 93.3594 190.823C93.6289 198.74 96.4589 206.118 101.479 212.216L108.048 218.348C108.082 218.382 108.082 218.382 108.116 218.449L108.217 218.55C114.685 223.166 122.266 225.49 130.216 225.187C149.858 224.48 165.254 207.938 164.547 188.296ZM130.014 219.19C113.675 219.763 99.929 206.961 99.3225 190.621C98.7498 174.281 111.552 160.536 127.892 159.929C144.232 159.356 157.977 172.159 158.584 188.498C159.156 204.838 146.32 218.617 130.014 219.19Z" fill="url(#paint15_linear_554_15241)"/>
<path d="M60.8516 220.909C60.8516 220.909 64.6922 226.838 69.4089 224.244C69.4089 224.244 71.464 223.065 71.7335 221.043L76.8881 233.711L79.8192 265.885C79.8192 265.885 71.026 269.321 66.3094 267.334L60.8516 220.909Z" fill="url(#paint16_linear_554_15241)"/>
<path d="M63.9171 199.01C63.9171 199.01 67.1176 199.481 68.061 202.581C68.061 202.581 68.8022 204.265 70.2171 204.703L71.0257 205.04C71.2278 205.141 71.3626 205.377 71.2615 205.579C71.1605 205.883 70.992 206.287 70.6888 206.556C70.6888 206.556 70.7899 207.129 71.1942 207.23C71.5647 207.298 71.3289 208.039 71.3289 208.039C71.3289 208.039 71.9353 208.173 71.7669 208.645C71.7669 208.645 71.5311 208.915 71.6321 209.117C71.7332 209.319 71.868 209.656 72.1375 209.791C72.407 209.925 73.2156 210.566 72.5418 211.239C71.9017 211.913 66.5786 213.968 65.5679 213.665C63.7823 213.126 63.378 211.172 62.2663 210.734C62.2663 210.734 61.4577 211.812 59.9753 211.408C58.7962 211.071 57.5833 208.78 59.0994 207.971C60.6154 207.163 61.9967 208.679 61.9967 208.679C61.9967 208.679 63.5802 203.827 63.9171 199.01Z" fill="#FEE2CC"/>
<path d="M66.34 209.445C66.8418 209.421 67.2333 209.085 67.2145 208.695C67.1956 208.304 66.7736 208.008 66.2718 208.032C65.77 208.056 65.3785 208.392 65.3974 208.782C65.4162 209.172 65.8382 209.469 66.34 209.445Z" fill="#EAB892"/>
<path d="M71.2973 207.23C71.2973 207.23 70.893 207.196 70.6572 207.837C70.5224 208.207 70.1855 208.443 69.5117 209.15C69.5117 209.15 70.9941 208.611 71.331 208.072C71.331 208.039 71.6679 207.533 71.2973 207.23Z" fill="#E28883"/>
<path d="M50.6776 327.605L47.0391 353.816C47.0391 353.816 58.359 353.21 67.0174 353.816C67.0174 353.816 65.5687 296.408 68.4323 281.584C68.4997 281.281 69.1735 281.18 69.1735 281.517L71.1612 308.907C71.1612 308.907 68.904 345.798 69.1061 354.793L84.9405 353.21L82.7844 294.016L79.7859 265.885C79.7859 265.885 70.8917 269.085 61.1216 265.75L50.6776 327.605Z" fill="url(#paint17_linear_554_15241)"/>
<path d="M71.7348 208.746C71.7011 208.847 71.6 208.915 71.499 208.948C71.2968 209.049 70.9262 209.15 70.6904 209.15C70.3535 209.15 69.6797 209.049 69.6797 209.049L71.2968 208.039C71.3305 208.039 72.0043 208.072 71.7348 208.746Z" fill="#F49C95"/>
<path d="M67.4594 203.828C67.3247 204.333 67.0551 204.771 66.8193 205.243C66.5835 205.714 66.3813 206.186 66.3477 206.691C66.9878 206.523 67.6279 206.287 68.1669 205.883" stroke="#C69024" stroke-width="0.164139" stroke-miterlimit="10"/>
<path d="M69.8118 231.453C69.239 230.881 68.262 230.948 67.6219 231.588C67.5882 231.622 67.5545 231.656 67.5208 231.689C67.5208 231.656 67.5208 231.588 67.5208 231.554C67.4198 230.645 66.6786 230.005 65.9037 230.072C65.0952 230.173 64.5561 230.948 64.6572 231.858C64.6572 231.891 64.6572 231.959 64.6909 231.992C64.6572 231.959 64.6235 231.925 64.5561 231.891C63.7812 231.42 62.8379 231.554 62.3999 232.262C61.962 232.936 62.2315 233.879 63.0064 234.351C63.04 234.384 63.0737 234.384 63.1411 234.418C63.1074 234.418 63.04 234.452 63.0064 234.452C62.1641 234.755 61.6587 235.597 61.9283 236.372C62.1978 237.113 63.1074 237.518 63.9497 237.214C63.9834 237.214 64.0508 237.181 64.0844 237.147C64.0508 237.181 64.0508 237.248 64.0171 237.282C63.7139 238.124 64.0844 239.034 64.8593 239.303C65.6005 239.573 66.4764 239.101 66.7797 238.225C66.7797 238.191 66.8134 238.124 66.8134 238.09C66.847 238.124 66.847 238.191 66.8807 238.225C67.3524 239 68.2957 239.27 68.9695 238.832C69.6433 238.394 69.8118 237.45 69.3401 236.675C69.3064 236.642 69.2727 236.608 69.239 236.541C69.2727 236.541 69.3401 236.574 69.3738 236.574C70.2834 236.675 71.092 236.103 71.1594 235.328C71.2605 234.519 70.5867 233.812 69.677 233.711C69.6433 233.711 69.576 233.711 69.5423 233.711C69.576 233.677 69.6096 233.643 69.6433 233.61C70.3171 233.003 70.3845 232.026 69.8118 231.453Z" fill="#FFD066"/>
<path d="M67.2871 204.232C67.186 204.097 67.0849 203.996 66.9839 203.895C66.4785 204.602 66.1753 205.411 66.0742 206.253" stroke="#C69024" stroke-width="0.164139" stroke-miterlimit="10"/>
<path d="M57.3155 255.677L45.8945 328.515H67.7258L69.7135 259.214L57.3155 255.677Z" fill="url(#paint18_linear_554_15241)"/>
<path d="M67.1489 204.467C67.0142 204.67 66.8794 204.905 66.7783 205.108C66.7446 205.141 66.7446 205.175 66.7109 205.209C66.7109 205.276 66.7109 205.31 66.7446 205.377C66.8457 205.781 67.1826 206.051 67.4521 205.95C67.7216 205.882 67.8564 205.478 67.7553 205.074C67.6543 204.737 67.4184 204.501 67.1489 204.467Z" fill="#C69024"/>
<path d="M67.2539 204.366C67.6582 204.703 67.9951 205.377 67.9951 206.017" stroke="#C69024" stroke-width="0.164139" stroke-miterlimit="10"/>
<path d="M66.4438 203.154C66.646 203.019 66.8818 202.918 66.9829 202.682C67.0839 202.446 66.9829 202.143 66.747 202.109C66.646 202.109 66.5449 202.143 66.4438 202.177C66.0059 202.412 65.6016 202.716 65.231 203.086C64.9278 203.389 64.4561 203.929 64.355 204.366C64.254 204.872 64.8604 204.366 65.0288 204.232C65.5005 203.827 65.9385 203.457 66.4438 203.154Z" fill="#EAB892"/>
<path d="M42.2214 284.01L40.9075 282.797C39.0883 281.113 38.9872 278.249 40.6717 276.464L93.2621 219.965L101.146 227.31L48.5552 283.808C46.8707 285.594 44.0407 285.695 42.2214 284.01Z" fill="url(#paint19_linear_554_15241)"/>
<path d="M60.8524 220.908C60.8524 220.908 52.7668 226.467 51.655 229.533C50.5432 232.599 50.8801 252.948 53.4743 255.71C56.0684 258.473 75.0697 260.629 79.9211 258.406L78.9104 247.928L68.9044 247.321L65.1648 224.749C65.1648 224.715 61.9305 222.896 60.8524 220.908Z" fill="url(#paint20_linear_554_15241)"/>
<path d="M78.9102 247.894C78.9102 247.894 81.0663 247.153 80.9316 246.008C80.7968 244.896 81.7738 241.662 81.4032 240.988C81.4032 240.988 82.077 239.505 83.2562 241.527C83.2562 241.527 83.2225 243.919 83.6605 243.851C84.0985 243.784 87.8718 241.594 87.8718 241.594L90.2638 239.034C90.2638 239.034 90.6007 241.392 90.2638 242.133C89.9269 242.874 86.6589 247.861 86.6589 247.861C86.6589 247.861 84.2669 250.084 82.2118 251.23C80.6284 252.072 79.3818 252.678 79.3818 252.678L78.9102 247.894Z" fill="#FCD0B1"/>
<path d="M95.8594 233.947L99.7674 222.189L107.179 220.066L106.472 224.715L106 227.006L104.417 233.509" fill="url(#paint21_linear_554_15241)"/>
<path d="M100.913 221.852V220.167L98.3523 216.36L96.2298 216.731C96.2298 216.731 95.5897 216.394 96.2298 215.518C96.2298 215.518 96.3309 213.665 97.3416 213.261C97.3416 213.261 97.6111 211.475 98.4197 211.475C99.2282 211.475 103.002 211.711 103.002 211.711C103.002 211.711 105.057 214.103 106.067 215.855C106.067 215.855 106.034 218.247 105.596 220.504L100.913 221.852Z" fill="#FCD0B1"/>
<path d="M69.7155 247.22L62.5395 246.648L61.832 238.394" stroke="#009CD8" stroke-width="0.353309" stroke-miterlimit="10"/>
<path opacity="0.4" d="M106.27 205.445C107.381 206.994 108.662 208.443 110.11 209.791C112.098 211.644 114.254 213.126 116.545 214.305L154.042 174.045C152.695 171.855 151.044 169.8 149.09 167.947C147.641 166.6 146.091 165.421 144.474 164.444L106.27 205.445Z" fill="white"/>
<path d="M247.326 196.921C246.921 197.022 246.652 196.517 246.551 196.146C246.382 195.506 246.18 194.866 246.248 194.192C246.315 193.518 246.652 192.844 247.292 192.608" stroke="#EAB892" stroke-width="0.336902" stroke-miterlimit="10"/>
<path d="M213.363 220.841C213.902 221.515 214.408 222.222 214.947 222.896" stroke="#EAB892" stroke-width="0.336902" stroke-miterlimit="10"/>
<defs>
<linearGradient id="paint0_linear_554_15241" x1="184.499" y1="42.8624" x2="184.499" y2="179.094" gradientUnits="userSpaceOnUse">
<stop stop-color="#A37624"/>
<stop offset="0.444" stop-color="#AB8360"/>
<stop offset="1" stop-color="#F9CCA7"/>
</linearGradient>
<linearGradient id="paint1_linear_554_15241" x1="188.451" y1="236.382" x2="188.451" y2="320.048" gradientUnits="userSpaceOnUse">
<stop offset="0.2953" stop-color="#EAB892"/>
<stop offset="0.8139" stop-color="#F9CCA7"/>
<stop offset="0.8399" stop-color="#FEE2CC"/>
</linearGradient>
<linearGradient id="paint2_linear_554_15241" x1="185.989" y1="220.802" x2="185.989" y2="234.437" gradientUnits="userSpaceOnUse">
<stop offset="0.1508" stop-color="#EAB892"/>
<stop offset="0.3789" stop-color="#F9CCA7"/>
<stop offset="0.8399" stop-color="#FEE2CC"/>
</linearGradient>
<linearGradient id="paint3_linear_554_15241" x1="135.593" y1="141.764" x2="166.731" y2="141.764" gradientUnits="userSpaceOnUse">
<stop offset="0.1508" stop-color="#EAB892"/>
<stop offset="0.3789" stop-color="#F9CCA7"/>
<stop offset="0.8399" stop-color="#FEE2CC"/>
</linearGradient>
<linearGradient id="paint4_linear_554_15241" x1="205.914" y1="141.888" x2="239.261" y2="141.888" gradientUnits="userSpaceOnUse">
<stop offset="0.1508" stop-color="#EAB892"/>
<stop offset="0.3789" stop-color="#F9CCA7"/>
<stop offset="0.8399" stop-color="#FEE2CC"/>
</linearGradient>
<linearGradient id="paint5_linear_554_15241" x1="268.921" y1="127.1" x2="193.719" y2="122.472" gradientUnits="userSpaceOnUse">
<stop stop-color="#A37624"/>
<stop offset="0.444" stop-color="#AB8360"/>
<stop offset="1" stop-color="#F9CCA7"/>
</linearGradient>
<linearGradient id="paint6_linear_554_15241" x1="203.367" y1="161.604" x2="379.803" y2="-42.0206" gradientUnits="userSpaceOnUse">
<stop stop-color="white"/>
<stop offset="0.5415" stop-color="#BEF5FF"/>
</linearGradient>
<linearGradient id="paint7_linear_554_15241" x1="237.465" y1="294.093" x2="185.459" y2="235.685" gradientUnits="userSpaceOnUse">
<stop offset="0.1508" stop-color="#EAB892"/>
<stop offset="0.3789" stop-color="#F9CCA7"/>
<stop offset="0.8399" stop-color="#FEE2CC"/>
</linearGradient>
<linearGradient id="paint8_linear_554_15241" x1="180.266" y1="147.632" x2="161.638" y2="150.807" gradientUnits="userSpaceOnUse">
<stop offset="0.1508" stop-color="#EAB892"/>
<stop offset="0.3789" stop-color="#F9CCA7"/>
<stop offset="0.8399" stop-color="#FEE2CC"/>
</linearGradient>
<linearGradient id="paint9_linear_554_15241" x1="127.485" y1="124.186" x2="174.191" y2="124.186" gradientUnits="userSpaceOnUse">
<stop stop-color="#A37624"/>
<stop offset="0.444" stop-color="#AB8360"/>
<stop offset="1" stop-color="#F9CCA7"/>
</linearGradient>
<linearGradient id="paint10_linear_554_15241" x1="50.6606" y1="299.922" x2="81.3466" y2="299.922" gradientUnits="userSpaceOnUse">
<stop offset="0.1145" stop-color="#0088C3"/>
<stop offset="0.2945" stop-color="#0085C0"/>
<stop offset="0.4483" stop-color="#027DB5"/>
<stop offset="0.5925" stop-color="#046EA3"/>
<stop offset="0.7309" stop-color="#075A8B"/>
<stop offset="0.8652" stop-color="#0A406B"/>
<stop offset="0.9946" stop-color="#0F2044"/>
<stop offset="1" stop-color="#0F1F42"/>
</linearGradient>
<linearGradient id="paint11_linear_554_15241" x1="39.816" y1="228.159" x2="62.1874" y2="228.159" gradientUnits="userSpaceOnUse">
<stop stop-color="#F97803"/>
<stop offset="0.2289" stop-color="#F97B06"/>
<stop offset="0.4238" stop-color="#FA8411"/>
<stop offset="0.6062" stop-color="#FB9422"/>
<stop offset="0.7811" stop-color="#FCAA3B"/>
<stop offset="0.9491" stop-color="#FEC65B"/>
<stop offset="1" stop-color="#FFD066"/>
</linearGradient>
<linearGradient id="paint12_linear_554_15241" x1="51.6534" y1="208.027" x2="69.0156" y2="208.027" gradientUnits="userSpaceOnUse">
<stop stop-color="#F97803"/>
<stop offset="0.2289" stop-color="#F97B06"/>
<stop offset="0.4238" stop-color="#FA8411"/>
<stop offset="0.6062" stop-color="#FB9422"/>
<stop offset="0.7811" stop-color="#FCAA3B"/>
<stop offset="0.9491" stop-color="#FEC65B"/>
<stop offset="1" stop-color="#FFD066"/>
</linearGradient>
<linearGradient id="paint13_linear_554_15241" x1="93.2544" y1="218.407" x2="110.812" y2="218.407" gradientUnits="userSpaceOnUse">
<stop offset="0.1145" stop-color="#0088C3"/>
<stop offset="0.2945" stop-color="#0085C0"/>
<stop offset="0.4483" stop-color="#027DB5"/>
<stop offset="0.5925" stop-color="#046EA3"/>
<stop offset="0.7309" stop-color="#075A8B"/>
<stop offset="0.8652" stop-color="#0A406B"/>
<stop offset="0.9946" stop-color="#0F2044"/>
<stop offset="1" stop-color="#0F1F42"/>
</linearGradient>
<linearGradient id="paint14_linear_554_15241" x1="83.3734" y1="213.068" x2="110.153" y2="358.154" gradientUnits="userSpaceOnUse">
<stop stop-color="white"/>
<stop offset="0.2704" stop-color="#BEF5FF"/>
<stop offset="0.5588" stop-color="#BCF4FE"/>
<stop offset="0.6627" stop-color="#B5F0FC"/>
<stop offset="0.7368" stop-color="#AAE9F9"/>
<stop offset="0.7967" stop-color="#99E0F3"/>
<stop offset="0.848" stop-color="#83D3EC"/>
<stop offset="0.8935" stop-color="#67C3E4"/>
<stop offset="0.9346" stop-color="#47B1D9"/>
<stop offset="0.9711" stop-color="#239CCE"/>
<stop offset="1" stop-color="#0088C3"/>
</linearGradient>
<linearGradient id="paint15_linear_554_15241" x1="93.3173" y1="189.57" x2="164.567" y2="189.57" gradientUnits="userSpaceOnUse">
<stop offset="0.1145" stop-color="#0088C3"/>
<stop offset="0.2945" stop-color="#0085C0"/>
<stop offset="0.4483" stop-color="#027DB5"/>
<stop offset="0.5925" stop-color="#046EA3"/>
<stop offset="0.7309" stop-color="#075A8B"/>
<stop offset="0.8652" stop-color="#0A406B"/>
<stop offset="0.9946" stop-color="#0F2044"/>
<stop offset="1" stop-color="#0F1F42"/>
</linearGradient>
<linearGradient id="paint16_linear_554_15241" x1="73.3031" y1="225.649" x2="58.3481" y2="314.888" gradientUnits="userSpaceOnUse">
<stop offset="0.2519" stop-color="#DE97FF"/>
<stop offset="1" stop-color="#A827D8"/>
</linearGradient>
<linearGradient id="paint17_linear_554_15241" x1="47.0311" y1="310.264" x2="84.9606" y2="310.264" gradientUnits="userSpaceOnUse">
<stop offset="0.2519" stop-color="#DE97FF"/>
<stop offset="1" stop-color="#A827D8"/>
</linearGradient>
<linearGradient id="paint18_linear_554_15241" x1="50.2548" y1="224.296" x2="67.204" y2="380.399" gradientUnits="userSpaceOnUse">
<stop stop-color="white"/>
<stop offset="0.2704" stop-color="#BEF5FF"/>
<stop offset="0.5588" stop-color="#BCF4FE"/>
<stop offset="0.6627" stop-color="#B5F0FC"/>
<stop offset="0.7368" stop-color="#AAE9F9"/>
<stop offset="0.7967" stop-color="#99E0F3"/>
<stop offset="0.848" stop-color="#83D3EC"/>
<stop offset="0.8935" stop-color="#67C3E4"/>
<stop offset="0.9346" stop-color="#47B1D9"/>
<stop offset="0.9711" stop-color="#239CCE"/>
<stop offset="1" stop-color="#0088C3"/>
</linearGradient>
<linearGradient id="paint19_linear_554_15241" x1="39.483" y1="252.597" x2="101.161" y2="252.597" gradientUnits="userSpaceOnUse">
<stop offset="0.1145" stop-color="#0088C3"/>
<stop offset="0.2945" stop-color="#0085C0"/>
<stop offset="0.4483" stop-color="#027DB5"/>
<stop offset="0.5925" stop-color="#046EA3"/>
<stop offset="0.7309" stop-color="#075A8B"/>
<stop offset="0.8652" stop-color="#0A406B"/>
<stop offset="0.9946" stop-color="#0F2044"/>
<stop offset="1" stop-color="#0F1F42"/>
</linearGradient>
<linearGradient id="paint20_linear_554_15241" x1="62.52" y1="222.964" x2="79.4692" y2="379.067" gradientUnits="userSpaceOnUse">
<stop stop-color="white"/>
<stop offset="0.2704" stop-color="#BEF5FF"/>
<stop offset="0.5588" stop-color="#BCF4FE"/>
<stop offset="0.6627" stop-color="#B5F0FC"/>
<stop offset="0.7368" stop-color="#AAE9F9"/>
<stop offset="0.7967" stop-color="#99E0F3"/>
<stop offset="0.848" stop-color="#83D3EC"/>
<stop offset="0.8935" stop-color="#67C3E4"/>
<stop offset="0.9346" stop-color="#47B1D9"/>
<stop offset="0.9711" stop-color="#239CCE"/>
<stop offset="1" stop-color="#0088C3"/>
</linearGradient>
<linearGradient id="paint21_linear_554_15241" x1="100.632" y1="218.827" x2="117.581" y2="374.929" gradientUnits="userSpaceOnUse">
<stop stop-color="white"/>
<stop offset="0.2704" stop-color="#BEF5FF"/>
<stop offset="0.5588" stop-color="#BCF4FE"/>
<stop offset="0.6627" stop-color="#B5F0FC"/>
<stop offset="0.7368" stop-color="#AAE9F9"/>
<stop offset="0.7967" stop-color="#99E0F3"/>
<stop offset="0.848" stop-color="#83D3EC"/>
<stop offset="0.8935" stop-color="#67C3E4"/>
<stop offset="0.9346" stop-color="#47B1D9"/>
<stop offset="0.9711" stop-color="#239CCE"/>
<stop offset="1" stop-color="#0088C3"/>
</linearGradient>
</defs>
</svg>
