<svg width="498" height="498" viewBox="0 0 498 498" fill="none" xmlns="http://www.w3.org/2000/svg">
<g clip-path="url(#clip0_401_3296)">
<path d="M219.754 416.508C341.13 416.508 439.508 318.13 439.508 196.754C439.508 75.3776 341.13 -23 219.754 -23C98.3776 -23 1.56122e-05 75.3776 1.56122e-05 196.754C-0.0452571 318.13 98.3776 416.508 219.754 416.508Z" fill="#00A8E1"/>
<path d="M214.547 4.43517C214.547 4.43517 158.953 -9.41829 121.286 55.5934C83.6187 120.605 112.231 199.289 131.381 213.867H308.352C308.352 213.867 367.796 113.542 298.121 31.0555C298.121 31.0555 266.973 -7.29047 226.318 4.8879L214.547 4.43517Z" fill="url(#paint0_linear_401_3296)"/>
<path d="M134.325 211.467C134.325 211.467 131.428 218.485 124.003 215.814C116.578 213.142 113.998 201.462 113.319 198.746C112.685 195.984 103.721 182.991 102.544 179.505C101.412 176.019 93.3985 149.263 102.679 142.517C111.915 135.771 126.946 156.099 131.382 174.706C135.774 193.222 137.404 205.31 134.325 211.467Z" fill="#F9CCA7"/>
<path d="M125.724 204.269C128.259 203.273 129.799 200.24 129.074 197.614C128.123 194.083 124.139 192.317 122.374 189.148C121.378 187.337 121.197 185.073 121.876 183.127C122.555 181.18 124.139 179.55 126.041 178.735C123.325 172.442 120.382 166.376 116.986 160.445C115.04 157.05 112.64 153.428 108.883 152.386C107.841 152.07 106.664 152.024 105.623 152.341C104.084 152.839 102.997 154.197 102.137 155.556C99.9185 159.223 99.0583 163.614 99.6469 167.824" stroke="#AB8360" stroke-width="0.492748" stroke-miterlimit="10" stroke-linecap="round" stroke-linejoin="round"/>
<path d="M307.266 216.719C307.266 216.719 309.348 223.963 316.909 221.654C324.47 219.345 328.091 207.71 328.906 205.039C329.676 202.322 339.274 189.782 340.587 186.341C341.9 182.946 351.18 156.597 342.262 149.398C333.343 142.245 317.362 161.803 312.02 180.139C306.677 198.474 304.459 210.426 307.266 216.719Z" fill="#F9CCA7"/>
<path d="M316.186 209.973C313.696 208.842 312.292 205.718 313.152 203.137C314.284 199.697 318.359 198.112 320.26 194.988C321.347 193.223 321.618 191.004 321.03 189.012C320.441 187.02 318.947 185.3 317.091 184.44C320.124 178.283 323.339 172.397 327.051 166.602C329.179 163.297 331.714 159.811 335.517 158.906C336.604 158.634 337.735 158.634 338.777 159.042C340.271 159.63 341.312 161.034 342.082 162.437C344.119 166.195 344.753 170.631 343.938 174.842" stroke="#A37624" stroke-width="0.492748" stroke-miterlimit="10" stroke-linecap="round" stroke-linejoin="round"/>
<path d="M285.58 439.642C247.642 450.779 207.394 451.639 169.048 442.132L157.232 439.189C148.178 436.971 142.7 427.781 145.054 418.771L146.457 413.384C158.5 366.798 163.435 318.673 161.171 270.594L160.945 265.432H284.856L284.403 271.906C281.008 321.163 285.264 370.646 296.944 418.635L297.17 419.586C299.253 428.324 294.182 437.152 285.58 439.642Z" fill="#F9CCA7"/>
<path d="M283.814 328.316C282.909 309.573 283.09 290.74 284.357 271.951L284.81 265.477H160.899L161.125 270.639C161.985 288.612 161.804 306.585 160.627 324.513C172.76 346.651 196.302 361.682 223.33 361.682C248.818 361.682 271.138 348.372 283.814 328.316Z" fill="url(#paint1_linear_401_3296)"/>
<path d="M195.533 205.763C208.074 202.775 207.078 202.594 216.766 207.891C220.433 209.883 222.063 209.838 225.685 207.755C236.279 201.689 239.086 200.874 242.662 206.986C246.058 212.735 234.649 210.924 225.187 211.739C222.425 211.966 222.516 215.723 219.754 216.085C214.004 216.81 220.388 210.336 200.377 211.694C197.752 211.196 195.895 208.027 195.533 205.763Z" fill="#EAB892"/>
<path d="M125.677 169.635C129.525 142.517 121.286 55.5932 211.559 59.215C213.868 59.3055 216.358 48.3948 218.984 48.3948C220.478 48.3948 222.063 59.4866 223.557 59.0339C241.62 54.0539 322.07 70.669 316.502 159.947C314.645 189.329 305.002 235.281 286.938 266.7C260.137 313.286 203.637 330.399 155.014 264.98C139.712 244.38 122.825 197.07 125.677 169.635Z" fill="#FEE2CC"/>
<path d="M219.391 273.763C225.292 273.763 230.076 271.472 230.076 268.647C230.076 265.821 225.292 263.531 219.391 263.531C213.491 263.531 208.707 265.821 208.707 268.647C208.707 271.472 213.491 273.763 219.391 273.763Z" fill="url(#paint2_linear_401_3296)"/>
<path d="M208.708 213.414C208.708 213.414 198.748 215.225 195.986 210.652C193.27 206.08 203.366 203.499 206.58 201.688C209.794 199.878 211.741 196.618 216.993 196.346C222.244 196.075 224.372 199.606 227.179 201.236C230.031 202.866 238.905 203.545 239.041 209.249C239.131 214.591 230.484 214.32 223.648 212.871C216.857 211.377 208.708 213.414 208.708 213.414Z" fill="#F9CCA7"/>
<path d="M217.853 156.551C215.861 156.189 214.095 158.634 213.416 161.35C210.881 171.672 208.934 190.37 208.119 200.602C208.119 200.602 210.7 206.532 217.445 206.532C225.096 206.532 226.998 199.787 226.998 199.787C225.504 191.411 224.191 157.728 217.853 156.551Z" fill="#FCE7D9"/>
<path opacity="0.51" d="M220.433 200.195C222.583 200.195 224.326 198.451 224.326 196.301C224.326 194.151 222.583 192.408 220.433 192.408C218.282 192.408 216.539 194.151 216.539 196.301C216.539 198.451 218.282 200.195 220.433 200.195Z" fill="white"/>
<path d="M235.78 236.232H199.336V246.916H235.78V236.232Z" fill="white"/>
<path d="M184.35 241.936C184.35 241.936 191.865 260.634 210.608 259.592C210.608 259.592 217.806 259.094 223.103 259.638C223.103 259.638 248.954 258.732 255.156 241.076L241.031 239.718C236.187 239.536 218.44 245.739 218.44 245.739L208.208 242.841C204.587 242.072 201.101 241.212 197.388 241.121L184.35 241.936Z" fill="#F49C95"/>
<path d="M181.996 239.582C186.84 237.771 199.969 232.927 205.221 230.753C206.126 230.391 207.077 230.301 208.028 230.437C210.925 230.98 214.321 232.519 218.984 232.383C221.881 232.293 224.869 231.523 226.725 230.98C228.084 230.572 229.532 230.527 230.89 230.935C237.048 232.7 251.58 237.725 258.507 239.219C258.96 239.31 259.05 239.944 258.597 240.125C254.07 242.026 244.246 245.014 226.635 240.08C226.635 240.08 219.98 244.199 209.929 240.08C209.929 240.08 190.688 244.516 181.996 241.211C181.272 240.895 181.226 239.853 181.996 239.582Z" fill="#E27E79"/>
<path d="M205.674 207.348C204.95 207.484 204.361 208.163 203.954 208.525C203.546 208.887 203.32 210.245 203.773 210.562C204.226 210.924 205.04 210.97 205.81 211.015C206.58 211.06 207.349 211.105 208.119 211.06C209.522 210.97 213.416 210.336 212.51 209.476C211.424 208.434 207.304 207.076 205.674 207.348Z" fill="#876F5C"/>
<path d="M229.984 206.578C230.709 206.713 232.203 207.936 232.655 208.298C233.108 208.66 232.429 210.245 231.976 210.607C231.523 210.969 230.709 211.014 229.939 211.06C229.169 211.105 228.4 211.15 227.63 211.105C226.227 211.014 222.333 210.381 223.239 209.52C224.28 208.434 228.354 206.261 229.984 206.578Z" fill="#876F5C"/>
<path d="M193.541 153.292C179.008 144.192 166.921 146.818 160.266 147.588C156.372 148.04 153.112 150.666 151.709 154.288L151.935 160.807" fill="url(#paint3_linear_401_3296)"/>
<path d="M282.547 166.466C282.547 166.466 266.701 174.027 251.58 168.866C251.58 168.866 257.42 172.623 265.071 172.623C269.825 172.623 277.159 171.944 280.872 170.722C292.19 167.009 282.547 166.466 282.547 166.466Z" fill="#443122"/>
<path d="M241.303 165.244C241.303 165.244 238.768 166.602 240.533 167.553C242.299 168.504 243.25 166.919 245.559 167.236C247.868 167.553 254.206 170.405 259.774 170.948C265.343 171.492 278.608 170.632 291.012 162.256C291.012 162.211 258.144 155.148 241.303 165.244Z" fill="#F0F4F8"/>
<path d="M246.192 160.762C246.192 160.762 245.558 150.032 253.39 148.131C259.457 146.637 276.479 145.233 291.012 154.469" fill="url(#paint4_linear_401_3296)"/>
<path d="M264.12 161.305C263.487 160.717 262.898 160.219 262.264 159.721C257.828 160.083 253.662 160.717 250.086 161.441C250.448 163.478 252.304 167.462 254.206 169.771C256.469 170.903 259.05 170.767 261.993 170.903C265.977 171.039 268.24 170.496 270.776 170.269C270.413 167.462 267.471 164.384 264.12 161.305Z" fill="#009CD8"/>
<path d="M198.702 163.659C198.702 163.659 201.192 165.018 199.472 165.968C197.752 166.874 196.756 165.289 194.447 165.606C192.138 165.878 185.8 168.73 180.231 169.183C174.663 169.681 164.25 171.763 151.936 163.297C151.89 163.252 181.906 153.428 198.702 163.659Z" fill="#F0F4F8"/>
<path d="M171.81 159.721C171.176 159.132 170.588 158.634 169.954 158.136C165.517 158.498 161.352 159.132 157.775 159.856C158.228 162.618 160.265 166.014 163.434 168.956C163.661 169.183 163.887 169.364 164.159 169.545C169.727 170.224 174.3 169.545 177.56 169.228C177.197 166.466 175.16 162.844 171.81 159.721Z" fill="#009CD8"/>
<path d="M200.15 164.203C200.15 164.203 179.732 153.881 154.878 162.935C145.506 166.331 133.78 161.939 130.611 156.144C130.611 156.144 133.282 157.185 137.402 157.819C142.79 158.634 148.268 157.865 153.338 155.918C161.216 152.885 183.626 150.168 200.15 164.203Z" fill="#443122"/>
<path d="M245.56 163.207L244.202 162.935C239.177 161.984 234.74 158.996 232.023 154.65C232.023 154.65 234.423 157.91 251.627 155.148C279.288 150.711 291.014 162.211 291.014 162.211C291.014 162.211 271.139 159.358 262.809 160.038C254.524 160.671 251.627 160.807 245.56 163.207Z" fill="#443122"/>
<path d="M241.621 167.824C241.621 167.824 244.066 166.828 245.56 167.191C247.054 167.553 250.495 168.866 250.495 168.866" stroke="#443122" stroke-width="0.956522" stroke-miterlimit="10" stroke-linecap="round"/>
<path d="M297.984 140.661C282.954 133.146 282.999 130.203 262.219 134.73C244.698 138.624 234.24 143.151 236.006 128.392C236.594 123.367 257.691 122.552 270.051 120.786C279.694 118.07 299.931 132.693 297.984 140.661Z" fill="url(#paint5_linear_401_3296)"/>
<g opacity="0.37">
<path opacity="0.37" d="M212.191 191.276C213.867 191.276 215.225 189.918 215.225 188.243C215.225 186.567 213.867 185.209 212.191 185.209C210.516 185.209 209.158 186.567 209.158 188.243C209.158 189.918 210.516 191.276 212.191 191.276Z" fill="#F49C95"/>
<path opacity="0.37" d="M187.201 188.242C188.752 188.242 190.008 186.986 190.008 185.436C190.008 183.885 188.752 182.629 187.201 182.629C185.651 182.629 184.395 183.885 184.395 185.436C184.395 186.986 185.651 188.242 187.201 188.242Z" fill="#F49C95"/>
<path opacity="0.37" d="M185.844 280.418C187.394 280.418 188.651 279.161 188.651 277.611C188.651 276.061 187.394 274.804 185.844 274.804C184.294 274.804 183.037 276.061 183.037 277.611C183.037 279.161 184.294 280.418 185.844 280.418Z" fill="#F49C95"/>
<path opacity="0.37" d="M199.335 116.168C200.785 116.168 201.961 114.993 201.961 113.542C201.961 112.092 200.785 110.917 199.335 110.917C197.885 110.917 196.709 112.092 196.709 113.542C196.709 114.993 197.885 116.168 199.335 116.168Z" fill="#F49C95"/>
<path opacity="0.37" d="M160.582 103.22C162.782 103.22 164.566 101.437 164.566 99.2363C164.566 97.036 162.782 95.2523 160.582 95.2523C158.381 95.2523 156.598 97.036 156.598 99.2363C156.598 101.437 158.381 103.22 160.582 103.22Z" fill="#F49C95"/>
<path opacity="0.37" d="M190.008 81.6251C191.584 81.6251 192.861 80.3482 192.861 78.773C192.861 77.1977 191.584 75.9208 190.008 75.9208C188.433 75.9208 187.156 77.1977 187.156 78.773C187.156 80.3482 188.433 81.6251 190.008 81.6251Z" fill="#F49C95"/>
</g>
<path d="M147.77 215.225C150.995 215.225 153.61 212.61 153.61 209.385C153.61 206.159 150.995 203.545 147.77 203.545C144.544 203.545 141.93 206.159 141.93 209.385C141.93 212.61 144.544 215.225 147.77 215.225Z" fill="#F49C95"/>
<path d="M153.61 236.594C156.835 236.594 159.45 233.979 159.45 230.754C159.45 227.528 156.835 224.913 153.61 224.913C150.384 224.913 147.77 227.528 147.77 230.754C147.77 233.979 150.384 236.594 153.61 236.594Z" fill="#F49C95"/>
<path opacity="0.56" d="M223.782 223.6C226.091 229.078 219.708 229.712 216.81 229.35C213.913 228.988 208.978 227.584 212.328 222.604C214.23 219.797 215.452 216.809 218.35 217.172C221.247 217.534 222.47 220.477 223.782 223.6Z" fill="#F9CCA7"/>
<path opacity="0.1" d="M291.738 218.711C300.739 218.711 308.036 211.414 308.036 202.413C308.036 193.412 300.739 186.115 291.738 186.115C282.736 186.115 275.439 193.412 275.439 202.413C275.439 211.414 282.736 218.711 291.738 218.711Z" fill="#F49C95"/>
<path d="M288.071 89.1404C288.071 89.1404 263.895 62.7464 222.833 65.8702C219.755 66.0966 217.4 68.6771 217.4 71.7557V180.003C217.4 182.945 219.709 185.39 222.652 185.571C229.217 185.933 240.082 187.563 244.383 194.173C249.408 201.96 249.906 211.965 242.798 216.855C240.58 218.394 237.864 219.118 235.147 219.118H224.372C222.924 219.118 221.747 220.295 221.747 221.744C221.747 223.283 223.059 224.234 224.599 224.37C232.793 225.004 248.141 222.967 261.722 235.1C267.019 239.808 266.25 244.697 264.665 249.044C264.62 249.225 256.697 263.667 228.492 264.165C224.644 264.255 221.837 267.877 221.837 271.725V308.079C248.367 309.211 272.18 292.505 286.939 266.791C305.003 235.371 314.691 189.465 316.502 160.037C316.593 158.815 316.638 157.593 316.683 156.37C313.379 136.948 305.184 101.273 288.071 89.1404ZM273.72 190.37C253.664 190.37 225.731 170.631 225.731 142.064C225.731 122.642 253.664 120.152 273.72 120.152C293.775 120.152 310.028 135.862 310.028 155.284C310.028 174.706 293.775 190.37 273.72 190.37Z" fill="url(#paint6_linear_401_3296)"/>
<path d="M164.929 449.692C160.266 447.655 157.459 442.856 157.957 437.831C159.497 422.212 162.756 388.438 162.756 380.153C162.756 369.333 160.764 348.644 171.947 335.831C171.947 335.831 178.194 293.456 240.263 274.759L250.631 270.91C250.631 270.91 258.327 258.053 271.682 254.748C271.682 254.748 276.798 242.705 282.186 235.235C282.186 235.235 284.993 213.142 292.689 204.45C292.689 204.45 293.187 182.629 305.546 181.587C305.546 181.587 309.349 170.45 318.494 169.092C318.494 169.092 323.067 167.462 326.281 169.092L324.425 192.136C324.425 192.136 321.482 210.924 324.153 217.896L324.968 226.724C324.968 226.724 323.112 200.421 338.369 198.293L340.769 198.565L336.739 225.638C336.739 225.638 335.109 250.311 336.468 255.427C336.468 255.427 332.982 261.856 322.252 278.245C311.522 294.588 304.279 313.919 304.279 313.919C304.279 313.919 300.793 319.035 292.191 320.348C283.589 321.706 230.258 347.965 220.569 361.094C220.569 361.094 213.869 367.251 213.054 382.281C212.239 397.312 231.888 448.561 231.888 448.561C231.888 448.561 199.472 464.723 164.929 449.692Z" fill="url(#paint7_linear_401_3296)" stroke="#EAB892" stroke-width="0.478261" stroke-miterlimit="10"/>
<path d="M197.705 195.893C197.705 195.893 207.031 186.296 207.484 182.674L209.113 165.561C208.072 152.115 207.484 143.241 196.347 136.858C192.408 134.639 188.877 133.689 187.156 133.96C180.501 135.002 194.309 147.542 197.705 154.605C199.244 157.774 199.833 161.305 199.516 164.836L197.705 195.893Z" fill="url(#paint8_linear_401_3296)"/>
<path d="M137.222 230.301C139.35 229.395 140.798 227.313 140.798 224.913C140.798 221.654 138.173 219.073 134.958 219.073C134.37 219.073 133.826 219.164 133.283 219.3C134.46 223.012 135.818 226.724 137.222 230.301Z" fill="#F49C95"/>
<path d="M161.94 168.005C161.94 168.005 173.213 172.261 188.38 167.191C188.38 167.191 174.209 174.253 162.936 170.45C151.664 166.647 161.94 168.005 161.94 168.005Z" fill="#443122"/>
<path d="M170.988 167.54C172.243 166.284 171.827 163.834 170.059 162.066C168.291 160.298 165.841 159.882 164.585 161.137C163.33 162.392 163.746 164.843 165.514 166.611C167.282 168.379 169.733 168.795 170.988 167.54Z" fill="#443122"/>
<path d="M262.08 168.274C263.335 167.018 262.919 164.568 261.151 162.8C259.383 161.032 256.932 160.616 255.677 161.871C254.422 163.126 254.838 165.577 256.606 167.345C258.374 169.113 260.824 169.529 262.08 168.274Z" fill="#443122"/>
<path d="M220.659 361.048C230.302 347.919 283.678 321.616 292.28 320.303C300.882 318.945 304.368 313.874 304.368 313.874C304.368 313.874 311.611 294.543 322.341 278.199C333.071 261.856 336.557 255.382 336.557 255.382C335.199 250.266 336.828 225.592 336.828 225.592L340.858 198.519L338.458 198.248C323.156 200.375 325.057 226.679 325.057 226.679L324.65 222.061C324.605 229.757 322.975 237.544 322.613 242.841C322.205 248.908 306.496 280.372 298.347 296.263C295.313 302.194 290.379 306.947 284.312 309.754L258.823 321.525C188.379 353.397 203.908 403.786 203.545 415.059C203.229 424.973 203.545 437.921 201.961 456.664C211.106 454.446 231.931 448.515 231.931 448.515C231.931 448.515 212.283 397.267 213.098 382.236C213.958 367.205 220.659 361.048 220.659 361.048Z" fill="#EAB892"/>
<path d="M305.59 181.542H310.026L308.034 202.775L303.869 236.594L293.502 263.758" stroke="#EAB892" stroke-width="0.492748" stroke-miterlimit="10" stroke-linecap="round" stroke-linejoin="round"/>
<path d="M321.708 168.866C320.531 172.397 319.806 176.064 319.535 179.822L319.354 182.583C319.354 182.583 319.625 188.423 325.058 185.119L326.28 169.092L321.708 168.866Z" fill="#FCF3E6"/>
<path d="M265.569 166.692C267.144 166.692 268.421 165.415 268.421 163.84C268.421 162.265 267.144 160.988 265.569 160.988C263.994 160.988 262.717 162.265 262.717 163.84C262.717 165.415 263.994 166.692 265.569 166.692Z" fill="white"/>
<path d="M173.395 165.063C174.97 165.063 176.247 163.786 176.247 162.211C176.247 160.635 174.97 159.358 173.395 159.358C171.82 159.358 170.543 160.635 170.543 162.211C170.543 163.786 171.82 165.063 173.395 165.063Z" fill="white"/>
<path d="M140.844 138.669C161.579 128.347 156.463 129.207 176.927 135.002C194.176 140.027 204.317 145.188 203.502 130.339C203.23 125.268 182.224 123.14 170 120.605C160.538 117.3 139.396 130.61 140.844 138.669Z" fill="url(#paint9_linear_401_3296)"/>
<path d="M237.681 212.146C237.681 212.146 244.789 205.627 235.779 196.301" stroke="#AB8360" stroke-width="0.441137" stroke-miterlimit="10" stroke-linecap="round" stroke-linejoin="round"/>
<path d="M197.796 212.146C197.796 212.146 190.688 205.627 199.697 196.301" stroke="#AB8360" stroke-width="0.441137" stroke-miterlimit="10" stroke-linecap="round" stroke-linejoin="round"/>
<path d="M382.193 30.8744L398.31 37.8464L381.605 36.4883C372.912 35.7639 364.763 40.7892 361.458 48.8477L355.12 64.331L356.207 46.8104C356.75 38.3897 351.906 30.5575 344.164 27.2074L328.047 20.2354L344.752 21.5935C353.445 22.3179 361.594 17.2926 364.899 9.23408L371.237 -6.24919L370.151 11.2714C369.653 19.6921 374.451 27.5243 382.193 30.8744Z" fill="#FFD066"/>
<path d="M275.757 60.6186L286.441 57.3137L277.794 63.5613C273.267 66.821 271.411 72.6159 273.131 77.9128L276.481 88.0539L269.736 79.1352C266.521 74.8342 260.908 73.0233 255.792 74.6079L245.107 77.9128L253.755 71.6652C258.282 68.4055 260.138 62.6106 258.418 57.3137L255.067 47.1726L261.813 56.0913C265.027 60.3922 270.596 62.2032 275.757 60.6186Z" fill="#FFD066"/>
<path d="M377.577 216.447L385.273 224.551L375.811 219.571C370.876 216.991 364.855 217.851 360.916 221.789L353.311 229.305L358.336 219.299C360.735 214.5 359.875 208.706 356.208 204.767L348.512 196.663L357.974 201.643C362.908 204.224 368.93 203.363 372.868 199.425L380.474 191.909L375.449 201.915C373.004 206.759 373.864 212.554 377.577 216.447Z" fill="#FFD066"/>
<path d="M308.442 195.622C308.442 195.622 302.738 196.528 303.462 190.416C304.232 184.304 305.59 181.542 305.59 181.542H310.027L308.442 195.622Z" fill="#FCF3E6"/>
<path d="M213.279 58.0381L219.482 4.66158H223.058V60.9356L213.279 58.0381Z" fill="#FEE2CC"/>
<path d="M69.5387 433.983C69.5387 433.983 69.9009 437.152 69.7651 438.691L68.4522 443.626C68.4069 445.346 69.8557 446.75 71.576 446.659L75.3789 446.116C77.0993 445.89 78.8197 445.935 80.4947 446.297C83.3017 446.886 87.6478 447.746 89.5493 447.61L94.8009 447.248C95.7517 447.248 96.0233 445.98 95.1631 445.573C93.8049 444.939 91.8129 444.758 89.1871 443.49C86.3349 442.087 82.8037 439.597 80.7211 438.374C77.6426 436.518 77.0087 432.534 75.8769 431.131C73.7491 428.46 69.5387 433.53 69.5387 433.983Z" fill="#DE97FF"/>
<path d="M37.6226 435.658C37.6226 435.658 34.1366 444.984 34.7251 446.388C35.3137 447.791 35.54 450.236 40.2031 449.783C44.8662 449.33 46.1791 445.482 46.1791 445.482C46.1791 445.482 45.0473 440.231 45.1379 438.465C45.2284 436.699 45.2284 435.658 45.2284 435.658H37.6226Z" fill="#DE97FF"/>
<path d="M37.5762 404.691H78.7744L71.2138 327.864H60.3483L37.5762 404.691Z" fill="url(#paint10_linear_401_3296)"/>
<path d="M52.3351 259.774C54.7346 267.108 50.8864 275.483 44.5935 279.965C43.0089 281.097 41.2433 282.048 39.2966 282.546C33.6828 283.995 27.8879 281.324 22.9531 278.29C28.5669 278.155 33.9544 274.487 36.1728 269.281C36.8971 267.515 37.3046 265.614 38.1195 263.894C40.3379 259.14 45.8611 256.107 51.0675 256.831C51.9277 257.827 51.9277 258.506 52.3351 259.774Z" fill="url(#paint11_linear_401_3296)"/>
<path d="M62.2048 235.417C62.2048 235.417 61.7521 224.868 50.117 227.63C50.117 227.63 41.8321 228.083 39.7948 235.417C37.7575 242.751 38.4819 254.839 49.4831 258.37C49.4379 258.37 61.1182 258.778 62.2048 235.417Z" fill="url(#paint12_linear_401_3296)"/>
<path d="M105.349 268.647L94.8008 258.777L107.794 244.833L118.388 254.657L105.349 268.647Z" fill="url(#paint13_linear_401_3296)"/>
<path d="M61.6624 247.414C61.6624 247.414 61.3002 252.077 61.436 253.662C61.5718 255.246 60.44 260.272 65.8727 260.272C65.8727 260.272 63.2017 267.877 58.6291 266.791C54.0566 265.75 51.2949 261.177 51.2949 261.177L52.1551 244.109L61.6624 247.414Z" fill="#FCD0B1"/>
<path d="M76.8747 261.811L99.4205 272.948L112.504 264.618C112.504 264.618 110.467 274.94 109.154 279.422C107.615 284.719 106.619 285.715 104.536 287.797C100.688 291.646 83.2581 284.492 83.2581 284.492C83.6203 287.254 84.3447 305.59 85.7029 319.398C89.1889 354.846 94.8932 404.737 94.8932 404.737H81.9452C81.9452 404.737 80.6776 366.391 78.9572 341.491C76.8294 310.524 65.8281 260.317 65.8281 260.317C65.8281 260.317 71.7136 259.23 76.8747 261.811Z" fill="url(#paint14_linear_401_3296)"/>
<path opacity="0.21" d="M171.371 246.608C187.177 230.802 187.177 205.176 171.371 189.37C155.565 173.564 129.939 173.564 114.133 189.37C98.3268 205.176 98.3269 230.803 114.133 246.608C129.939 262.414 155.565 262.414 171.371 246.608Z" fill="white"/>
<path opacity="0.76" d="M138.716 186.386C138.671 184.983 139.757 183.806 141.161 183.761C161.579 183.036 178.737 199.063 179.507 219.436C179.552 220.839 178.466 222.016 177.062 222.061C175.659 222.107 174.482 221.02 174.436 219.617C173.803 202.051 158.998 188.243 141.387 188.876C139.939 188.922 138.761 187.79 138.716 186.386Z" fill="white"/>
<path opacity="0.58" d="M101.005 219.481C100.19 196.482 118.254 177.106 141.252 176.245C164.251 175.43 183.628 193.494 184.488 216.493C185.303 239.491 167.239 258.868 144.24 259.728C121.242 260.543 101.865 242.479 101.005 219.481ZM181.907 216.583C181.138 194.988 162.938 178.056 141.343 178.826C119.748 179.596 102.816 197.795 103.586 219.39C104.355 240.985 122.555 257.917 144.15 257.148C165.745 256.378 182.677 238.178 181.907 216.583Z" fill="#485793"/>
<path d="M190.599 216.266C189.648 189.872 167.419 169.183 141.071 170.134C114.677 171.084 93.987 193.313 94.9377 219.662C95.2999 230.301 99.1028 240.216 105.848 248.41L114.677 256.65C114.722 256.695 114.722 256.695 114.767 256.786L114.903 256.921C123.595 263.124 133.782 266.248 144.466 265.84C170.86 264.889 191.55 242.66 190.599 216.266ZM144.194 257.782C122.237 258.551 103.766 241.348 102.951 219.39C102.181 197.433 119.385 178.962 141.342 178.147C163.3 177.377 181.771 194.581 182.586 216.538C183.355 238.495 166.106 257.012 144.194 257.782Z" fill="url(#paint15_linear_401_3296)"/>
<path d="M51.25 260.091C51.25 260.091 56.4111 268.059 62.7493 264.573C62.7493 264.573 65.5109 262.988 65.8731 260.272L72.7998 277.294L76.7385 320.53C76.7385 320.53 64.9224 325.148 58.5842 322.477L51.25 260.091Z" fill="url(#paint16_linear_401_3296)"/>
<path d="M55.3698 230.663C55.3698 230.663 59.6707 231.297 60.9383 235.462C60.9383 235.462 61.9343 237.726 63.8358 238.314L64.9223 238.767C65.194 238.903 65.375 239.22 65.2392 239.491C65.1034 239.899 64.877 240.442 64.4696 240.804C64.4696 240.804 64.6054 241.574 65.1487 241.71C65.6467 241.8 65.3298 242.796 65.3298 242.796C65.3298 242.796 66.1447 242.977 65.9183 243.611C65.9183 243.611 65.6014 243.973 65.7372 244.245C65.873 244.517 66.0541 244.969 66.4163 245.151C66.7785 245.332 67.865 246.192 66.9596 247.097C66.0994 248.003 58.9463 250.764 57.5881 250.357C55.1887 249.633 54.6454 247.007 53.1514 246.418C53.1514 246.418 52.0649 247.867 50.0729 247.324C48.4883 246.871 46.8585 243.792 48.8958 242.706C50.933 241.619 52.7892 243.657 52.7892 243.657C52.7892 243.657 54.917 237.137 55.3698 230.663Z" fill="#FEE2CC"/>
<path d="M58.625 244.686C59.2993 244.654 59.8254 244.202 59.8001 243.678C59.7748 243.153 59.2077 242.754 58.5334 242.787C57.8591 242.819 57.333 243.271 57.3583 243.795C57.3836 244.32 57.9507 244.719 58.625 244.686Z" fill="#EAB892"/>
<path d="M65.2842 241.71C65.2842 241.71 64.7409 241.664 64.424 242.525C64.2429 243.023 63.7902 243.34 62.8848 244.29C62.8848 244.29 64.8768 243.566 65.3295 242.842C65.3295 242.796 65.7822 242.117 65.2842 241.71Z" fill="#E28883"/>
<path d="M37.577 403.469L32.6875 438.691C32.6875 438.691 47.8991 437.876 59.5342 438.691C59.5342 438.691 57.5875 361.547 61.4357 341.627C61.5262 341.219 62.4317 341.083 62.4317 341.536L65.1028 378.343C65.1028 378.343 62.0695 427.916 62.3411 440.004L83.6193 437.876L80.7219 358.332L76.6926 320.53C76.6926 320.53 64.7406 324.83 51.6115 320.348L37.577 403.469Z" fill="url(#paint17_linear_401_3296)"/>
<path d="M65.873 243.747C65.8277 243.883 65.6919 243.973 65.5561 244.019C65.2844 244.154 64.7864 244.29 64.4695 244.29C64.0168 244.29 63.1113 244.154 63.1113 244.154L65.2844 242.796C65.3297 242.796 66.2351 242.841 65.873 243.747Z" fill="#F49C95"/>
<path d="M60.1229 237.137C59.9418 237.816 59.5796 238.405 59.2627 239.039C58.9458 239.673 58.6742 240.306 58.6289 240.986C59.4891 240.759 60.3493 240.442 61.0736 239.899" stroke="#C69024" stroke-width="0.220569" stroke-miterlimit="10"/>
<path d="M63.2913 274.261C62.5216 273.491 61.2087 273.582 60.3485 274.442C60.3033 274.487 60.258 274.533 60.2127 274.578C60.2127 274.533 60.2127 274.442 60.2127 274.397C60.0769 273.174 59.0809 272.314 58.0396 272.405C56.9531 272.541 56.2287 273.582 56.3645 274.804C56.3645 274.849 56.3645 274.94 56.4098 274.985C56.3645 274.94 56.3193 274.895 56.2287 274.849C55.1874 274.216 53.9198 274.397 53.3313 275.347C52.7427 276.253 53.1049 277.52 54.1462 278.154C54.1914 278.2 54.2367 278.2 54.3273 278.245C54.282 278.245 54.1914 278.29 54.1462 278.29C53.0143 278.698 52.3353 279.829 52.6974 280.871C53.0596 281.867 54.282 282.41 55.4138 282.002C55.4591 282.002 55.5496 281.957 55.5949 281.912C55.5496 281.957 55.5496 282.048 55.5043 282.093C55.0969 283.225 55.5949 284.447 56.6362 284.809C57.6322 285.172 58.8093 284.538 59.2167 283.361C59.2167 283.315 59.262 283.225 59.262 283.18C59.3073 283.225 59.3073 283.315 59.3525 283.361C59.9863 284.402 61.254 284.764 62.1594 284.176C63.0649 283.587 63.2913 282.319 62.6574 281.278C62.6122 281.233 62.5669 281.188 62.5216 281.097C62.5669 281.097 62.6574 281.142 62.7027 281.142C63.9251 281.278 65.0116 280.509 65.1022 279.467C65.238 278.381 64.3325 277.43 63.1102 277.294C63.0649 277.294 62.9744 277.294 62.9291 277.294C62.9744 277.249 63.0196 277.204 63.0649 277.158C63.9703 276.343 64.0609 275.031 63.2913 274.261Z" fill="#FFD066"/>
<path d="M59.8954 237.681C59.7596 237.499 59.6238 237.364 59.488 237.228C58.8089 238.179 58.4014 239.265 58.2656 240.397" stroke="#C69024" stroke-width="0.220569" stroke-miterlimit="10"/>
<path d="M46.4959 306.812L31.1484 404.692H60.4852L63.1563 311.566L46.4959 306.812Z" fill="url(#paint18_linear_401_3296)"/>
<path d="M59.7155 237.997C59.5344 238.269 59.3533 238.586 59.2175 238.857C59.1722 238.903 59.1722 238.948 59.127 238.993C59.127 239.084 59.127 239.129 59.1722 239.22C59.308 239.763 59.7608 240.125 60.123 239.989C60.4851 239.899 60.6662 239.355 60.5304 238.812C60.3946 238.359 60.0777 238.042 59.7155 237.997Z" fill="#C69024"/>
<path d="M59.8516 237.862C60.3948 238.314 60.8476 239.22 60.8476 240.08" stroke="#C69024" stroke-width="0.220569" stroke-miterlimit="10"/>
<path d="M58.7635 236.232C59.0351 236.051 59.352 235.915 59.4878 235.598C59.6237 235.281 59.4878 234.874 59.1709 234.828C59.0351 234.828 58.8993 234.874 58.7635 234.919C58.1749 235.236 57.6317 235.643 57.1337 236.141C56.7262 236.549 56.0924 237.273 55.9566 237.862C55.8208 238.541 56.6357 237.862 56.862 237.68C57.4958 237.137 58.0844 236.639 58.7635 236.232Z" fill="#EAB892"/>
<path d="M26.2133 344.886L24.4477 343.256C22.003 340.993 21.8672 337.145 24.1308 334.745L94.8015 258.823L105.395 268.692L34.7246 344.615C32.461 347.014 28.6581 347.15 26.2133 344.886Z" fill="url(#paint19_linear_401_3296)"/>
<path d="M51.2482 260.091C51.2482 260.091 40.3827 267.561 38.8887 271.68C37.3947 275.8 37.8474 303.145 41.3335 306.857C44.8195 310.57 70.3533 313.467 76.8725 310.479L75.5144 296.399L62.0684 295.584L57.0431 265.252C57.0431 265.206 52.6969 262.762 51.2482 260.091Z" fill="url(#paint20_linear_401_3296)"/>
<path d="M75.5156 296.354C75.5156 296.354 78.4131 295.358 78.232 293.819C78.0509 292.325 79.3638 287.979 78.8658 287.073C78.8658 287.073 79.7713 285.081 81.3558 287.797C81.3558 287.797 81.3105 291.012 81.8991 290.921C82.4876 290.831 87.5582 287.888 87.5582 287.888L90.7725 284.447C90.7725 284.447 91.2253 287.616 90.7725 288.612C90.3198 289.608 85.9284 296.309 85.9284 296.309C85.9284 296.309 82.714 299.297 79.9524 300.836C77.8245 301.968 76.1494 302.783 76.1494 302.783L75.5156 296.354Z" fill="#FCD0B1"/>
<path d="M98.2871 277.611L103.539 261.811L113.499 258.959L112.548 265.206L111.914 268.285L109.786 277.023" fill="url(#paint21_linear_401_3296)"/>
<path d="M105.078 261.358V259.095L101.637 253.979L98.7846 254.477C98.7846 254.477 97.9245 254.024 98.7846 252.847C98.7846 252.847 98.9205 250.357 100.279 249.814C100.279 249.814 100.641 247.414 101.727 247.414C102.814 247.414 107.884 247.731 107.884 247.731C107.884 247.731 110.646 250.945 112.004 253.3C112.004 253.3 111.959 256.514 111.37 259.547L105.078 261.358Z" fill="#FCD0B1"/>
<path d="M63.1563 295.448L53.5132 294.679L52.5625 283.587" stroke="#009CD8" stroke-width="0.474775" stroke-miterlimit="10"/>
<path opacity="0.4" d="M112.277 239.31C113.771 241.393 115.492 243.34 117.438 245.151C120.11 247.641 123.007 249.632 126.086 251.217L176.474 197.116C174.663 194.173 172.445 191.412 169.819 188.922C167.872 187.111 165.79 185.526 163.617 184.213L112.277 239.31Z" fill="white"/>
<path d="M331.986 264.166C331.443 264.302 331.081 263.623 330.945 263.125C330.719 262.265 330.447 261.405 330.537 260.499C330.628 259.594 331.081 258.688 331.941 258.371" stroke="#EAB892" stroke-width="0.452727" stroke-miterlimit="10"/>
<path d="M286.35 296.31C287.074 297.215 287.753 298.166 288.477 299.072" stroke="#EAB892" stroke-width="0.452727" stroke-miterlimit="10"/>
</g>
<defs>
<linearGradient id="paint0_linear_401_3296" x1="217.408" y1="20.8334" x2="217.408" y2="203.901" gradientUnits="userSpaceOnUse">
<stop stop-color="#A37624"/>
<stop offset="0.444" stop-color="#AB8360"/>
<stop offset="1" stop-color="#F9CCA7"/>
</linearGradient>
<linearGradient id="paint1_linear_401_3296" x1="222.723" y1="280.884" x2="222.723" y2="393.314" gradientUnits="userSpaceOnUse">
<stop offset="0.2953" stop-color="#EAB892"/>
<stop offset="0.8139" stop-color="#F9CCA7"/>
<stop offset="0.8399" stop-color="#FEE2CC"/>
</linearGradient>
<linearGradient id="paint2_linear_401_3296" x1="219.411" y1="259.948" x2="219.411" y2="278.27" gradientUnits="userSpaceOnUse">
<stop offset="0.1508" stop-color="#EAB892"/>
<stop offset="0.3789" stop-color="#F9CCA7"/>
<stop offset="0.8399" stop-color="#FEE2CC"/>
</linearGradient>
<linearGradient id="paint3_linear_401_3296" x1="151.692" y1="153.737" x2="193.535" y2="153.737" gradientUnits="userSpaceOnUse">
<stop offset="0.1508" stop-color="#EAB892"/>
<stop offset="0.3789" stop-color="#F9CCA7"/>
<stop offset="0.8399" stop-color="#FEE2CC"/>
</linearGradient>
<linearGradient id="paint4_linear_401_3296" x1="246.19" y1="153.903" x2="291.002" y2="153.903" gradientUnits="userSpaceOnUse">
<stop offset="0.1508" stop-color="#EAB892"/>
<stop offset="0.3789" stop-color="#F9CCA7"/>
<stop offset="0.8399" stop-color="#FEE2CC"/>
</linearGradient>
<linearGradient id="paint5_linear_401_3296" x1="330.859" y1="134.031" x2="229.803" y2="127.812" gradientUnits="userSpaceOnUse">
<stop stop-color="#A37624"/>
<stop offset="0.444" stop-color="#AB8360"/>
<stop offset="1" stop-color="#F9CCA7"/>
</linearGradient>
<linearGradient id="paint6_linear_401_3296" x1="242.764" y1="180.397" x2="479.858" y2="-93.232" gradientUnits="userSpaceOnUse">
<stop stop-color="white"/>
<stop offset="0.5415" stop-color="#BEF5FF"/>
</linearGradient>
<linearGradient id="paint7_linear_401_3296" x1="288.59" y1="358.436" x2="218.704" y2="279.948" gradientUnits="userSpaceOnUse">
<stop offset="0.1508" stop-color="#EAB892"/>
<stop offset="0.3789" stop-color="#F9CCA7"/>
<stop offset="0.8399" stop-color="#FEE2CC"/>
</linearGradient>
<linearGradient id="paint8_linear_401_3296" x1="211.719" y1="161.622" x2="186.687" y2="165.889" gradientUnits="userSpaceOnUse">
<stop offset="0.1508" stop-color="#EAB892"/>
<stop offset="0.3789" stop-color="#F9CCA7"/>
<stop offset="0.8399" stop-color="#FEE2CC"/>
</linearGradient>
<linearGradient id="paint9_linear_401_3296" x1="140.795" y1="130.116" x2="203.558" y2="130.116" gradientUnits="userSpaceOnUse">
<stop stop-color="#A37624"/>
<stop offset="0.444" stop-color="#AB8360"/>
<stop offset="1" stop-color="#F9CCA7"/>
</linearGradient>
<linearGradient id="paint10_linear_401_3296" x1="37.5557" y1="366.269" x2="78.7915" y2="366.269" gradientUnits="userSpaceOnUse">
<stop offset="0.1145" stop-color="#0088C3"/>
<stop offset="0.2945" stop-color="#0085C0"/>
<stop offset="0.4483" stop-color="#027DB5"/>
<stop offset="0.5925" stop-color="#046EA3"/>
<stop offset="0.7309" stop-color="#075A8B"/>
<stop offset="0.8652" stop-color="#0A406B"/>
<stop offset="0.9946" stop-color="#0F2044"/>
<stop offset="1" stop-color="#0F1F42"/>
</linearGradient>
<linearGradient id="paint11_linear_401_3296" x1="22.9788" y1="269.834" x2="53.0414" y2="269.834" gradientUnits="userSpaceOnUse">
<stop stop-color="#F97803"/>
<stop offset="0.2289" stop-color="#F97B06"/>
<stop offset="0.4238" stop-color="#FA8411"/>
<stop offset="0.6062" stop-color="#FB9422"/>
<stop offset="0.7811" stop-color="#FCAA3B"/>
<stop offset="0.9491" stop-color="#FEC65B"/>
<stop offset="1" stop-color="#FFD066"/>
</linearGradient>
<linearGradient id="paint12_linear_401_3296" x1="38.8875" y1="242.78" x2="62.2187" y2="242.78" gradientUnits="userSpaceOnUse">
<stop stop-color="#F97803"/>
<stop offset="0.2289" stop-color="#F97B06"/>
<stop offset="0.4238" stop-color="#FA8411"/>
<stop offset="0.6062" stop-color="#FB9422"/>
<stop offset="0.7811" stop-color="#FCAA3B"/>
<stop offset="0.9491" stop-color="#FEC65B"/>
<stop offset="1" stop-color="#FFD066"/>
</linearGradient>
<linearGradient id="paint13_linear_401_3296" x1="94.7858" y1="256.729" x2="118.38" y2="256.729" gradientUnits="userSpaceOnUse">
<stop offset="0.1145" stop-color="#0088C3"/>
<stop offset="0.2945" stop-color="#0085C0"/>
<stop offset="0.4483" stop-color="#027DB5"/>
<stop offset="0.5925" stop-color="#046EA3"/>
<stop offset="0.7309" stop-color="#075A8B"/>
<stop offset="0.8652" stop-color="#0A406B"/>
<stop offset="0.9946" stop-color="#0F2044"/>
<stop offset="1" stop-color="#0F1F42"/>
</linearGradient>
<linearGradient id="paint14_linear_401_3296" x1="81.5158" y1="249.555" x2="117.502" y2="444.52" gradientUnits="userSpaceOnUse">
<stop stop-color="white"/>
<stop offset="0.2704" stop-color="#BEF5FF"/>
<stop offset="0.5588" stop-color="#BCF4FE"/>
<stop offset="0.6627" stop-color="#B5F0FC"/>
<stop offset="0.7368" stop-color="#AAE9F9"/>
<stop offset="0.7967" stop-color="#99E0F3"/>
<stop offset="0.848" stop-color="#83D3EC"/>
<stop offset="0.8935" stop-color="#67C3E4"/>
<stop offset="0.9346" stop-color="#47B1D9"/>
<stop offset="0.9711" stop-color="#239CCE"/>
<stop offset="1" stop-color="#0088C3"/>
</linearGradient>
<linearGradient id="paint15_linear_401_3296" x1="94.8812" y1="217.979" x2="190.626" y2="217.979" gradientUnits="userSpaceOnUse">
<stop offset="0.1145" stop-color="#0088C3"/>
<stop offset="0.2945" stop-color="#0085C0"/>
<stop offset="0.4483" stop-color="#027DB5"/>
<stop offset="0.5925" stop-color="#046EA3"/>
<stop offset="0.7309" stop-color="#075A8B"/>
<stop offset="0.8652" stop-color="#0A406B"/>
<stop offset="0.9946" stop-color="#0F2044"/>
<stop offset="1" stop-color="#0F1F42"/>
</linearGradient>
<linearGradient id="paint16_linear_401_3296" x1="67.9823" y1="266.461" x2="47.8859" y2="386.38" gradientUnits="userSpaceOnUse">
<stop offset="0.2519" stop-color="#DE97FF"/>
<stop offset="1" stop-color="#A827D8"/>
</linearGradient>
<linearGradient id="paint17_linear_401_3296" x1="32.6768" y1="380.166" x2="83.6463" y2="380.166" gradientUnits="userSpaceOnUse">
<stop offset="0.2519" stop-color="#DE97FF"/>
<stop offset="1" stop-color="#A827D8"/>
</linearGradient>
<linearGradient id="paint18_linear_401_3296" x1="37.0077" y1="264.643" x2="59.784" y2="474.413" gradientUnits="userSpaceOnUse">
<stop stop-color="white"/>
<stop offset="0.2704" stop-color="#BEF5FF"/>
<stop offset="0.5588" stop-color="#BCF4FE"/>
<stop offset="0.6627" stop-color="#B5F0FC"/>
<stop offset="0.7368" stop-color="#AAE9F9"/>
<stop offset="0.7967" stop-color="#99E0F3"/>
<stop offset="0.848" stop-color="#83D3EC"/>
<stop offset="0.8935" stop-color="#67C3E4"/>
<stop offset="0.9346" stop-color="#47B1D9"/>
<stop offset="0.9711" stop-color="#239CCE"/>
<stop offset="1" stop-color="#0088C3"/>
</linearGradient>
<linearGradient id="paint19_linear_401_3296" x1="22.5334" y1="302.673" x2="105.417" y2="302.673" gradientUnits="userSpaceOnUse">
<stop offset="0.1145" stop-color="#0088C3"/>
<stop offset="0.2945" stop-color="#0085C0"/>
<stop offset="0.4483" stop-color="#027DB5"/>
<stop offset="0.5925" stop-color="#046EA3"/>
<stop offset="0.7309" stop-color="#075A8B"/>
<stop offset="0.8652" stop-color="#0A406B"/>
<stop offset="0.9946" stop-color="#0F2044"/>
<stop offset="1" stop-color="#0F1F42"/>
</linearGradient>
<linearGradient id="paint20_linear_401_3296" x1="53.489" y1="262.853" x2="76.2653" y2="472.623" gradientUnits="userSpaceOnUse">
<stop stop-color="white"/>
<stop offset="0.2704" stop-color="#BEF5FF"/>
<stop offset="0.5588" stop-color="#BCF4FE"/>
<stop offset="0.6627" stop-color="#B5F0FC"/>
<stop offset="0.7368" stop-color="#AAE9F9"/>
<stop offset="0.7967" stop-color="#99E0F3"/>
<stop offset="0.848" stop-color="#83D3EC"/>
<stop offset="0.8935" stop-color="#67C3E4"/>
<stop offset="0.9346" stop-color="#47B1D9"/>
<stop offset="0.9711" stop-color="#239CCE"/>
<stop offset="1" stop-color="#0088C3"/>
</linearGradient>
<linearGradient id="paint21_linear_401_3296" x1="104.7" y1="257.293" x2="127.477" y2="467.063" gradientUnits="userSpaceOnUse">
<stop stop-color="white"/>
<stop offset="0.2704" stop-color="#BEF5FF"/>
<stop offset="0.5588" stop-color="#BCF4FE"/>
<stop offset="0.6627" stop-color="#B5F0FC"/>
<stop offset="0.7368" stop-color="#AAE9F9"/>
<stop offset="0.7967" stop-color="#99E0F3"/>
<stop offset="0.848" stop-color="#83D3EC"/>
<stop offset="0.8935" stop-color="#67C3E4"/>
<stop offset="0.9346" stop-color="#47B1D9"/>
<stop offset="0.9711" stop-color="#239CCE"/>
<stop offset="1" stop-color="#0088C3"/>
</linearGradient>
<clipPath id="clip0_401_3296">
<rect width="498" height="498" fill="white"/>
</clipPath>
</defs>
</svg>
