<svg width="468" height="511" viewBox="0 0 468 511" fill="none" xmlns="http://www.w3.org/2000/svg">
<path d="M233.964 467.914C363.14 467.914 467.839 363.215 467.839 234.04C467.839 104.864 363.14 0.165405 233.964 0.165405C104.789 0.165405 0.0898604 104.864 0.0898604 234.04C0.0416785 363.215 104.789 467.914 233.964 467.914Z" fill="#00A8E1"/>
<path d="M228.423 29.3635C228.423 29.3635 169.255 14.6198 129.168 83.8089C89.0809 152.998 119.532 236.738 139.913 252.253H328.255C328.255 252.253 391.518 145.482 317.366 57.6944C317.366 57.6944 284.217 16.8844 240.95 29.8453L228.423 29.3635Z" fill="url(#paint0_linear_401_19240)"/>
<path d="M143.045 249.699C143.045 249.699 139.962 257.167 132.06 254.324C124.158 251.482 121.412 239.051 120.689 236.16C120.014 233.221 110.474 219.393 109.222 215.683C108.017 211.973 99.489 183.497 109.366 176.318C119.195 169.139 135.192 190.773 139.914 210.575C144.587 230.282 146.322 243.146 143.045 249.699Z" fill="#F9CCA7"/>
<path d="M133.892 242.038C136.59 240.978 138.228 237.75 137.457 234.955C136.445 231.197 132.205 229.318 130.326 225.945C129.266 224.018 129.073 221.609 129.796 219.537C130.519 217.465 132.205 215.731 134.229 214.864C131.338 208.166 128.206 201.71 124.593 195.398C122.521 191.784 119.967 187.93 115.968 186.822C114.86 186.484 113.607 186.436 112.499 186.774C110.861 187.304 109.704 188.749 108.789 190.194C106.428 194.097 105.513 198.771 106.139 203.252" stroke="#AB8360" stroke-width="0.524411" stroke-miterlimit="10" stroke-linecap="round" stroke-linejoin="round"/>
<path d="M327.1 255.288C327.1 255.288 329.317 262.997 337.363 260.54C345.409 258.083 349.264 245.7 350.131 242.857C350.95 239.966 361.165 226.62 362.562 222.958C363.959 219.344 373.837 191.303 364.345 183.642C354.853 176.029 337.845 196.844 332.159 216.357C326.474 235.871 324.113 248.591 327.1 255.288Z" fill="#F9CCA7"/>
<path d="M336.592 248.109C333.942 246.904 332.448 243.58 333.364 240.834C334.568 237.172 338.905 235.485 340.929 232.161C342.085 230.282 342.374 227.921 341.748 225.801C341.121 223.681 339.531 221.85 337.556 220.934C340.784 214.382 344.205 208.118 348.156 201.951C350.42 198.434 353.119 194.724 357.166 193.76C358.322 193.471 359.527 193.471 360.635 193.904C362.225 194.531 363.333 196.024 364.152 197.518C366.32 201.517 366.995 206.239 366.128 210.72" stroke="#A37624" stroke-width="0.524411" stroke-miterlimit="10" stroke-linecap="round" stroke-linejoin="round"/>
<path d="M304.02 492.535C263.644 504.388 220.81 505.304 180 495.185L167.425 492.054C157.789 489.693 151.959 479.912 154.464 470.324L155.958 464.59C168.774 415.011 174.026 363.794 171.617 312.624L171.376 307.132H303.249L302.768 314.022C299.154 366.444 303.683 419.106 316.114 470.179L316.355 471.191C318.571 480.49 313.175 489.885 304.02 492.535Z" fill="#F9CCA7"/>
<path d="M302.142 374.056C301.178 354.109 301.371 334.065 302.72 314.07L303.202 307.18H171.328L171.569 312.672C172.485 331.8 172.292 350.929 171.039 370.009C183.952 393.57 209.006 409.566 237.771 409.566C264.897 409.566 288.651 395.4 302.142 374.056Z" fill="url(#paint1_linear_401_19240)"/>
<path d="M208.188 243.628C221.534 240.448 220.474 240.256 230.785 245.893C234.688 248.013 236.422 247.965 240.277 245.748C251.551 239.292 254.538 238.425 258.345 244.929C261.958 251.048 249.817 249.121 239.747 249.988C236.807 250.229 236.904 254.228 233.965 254.614C227.846 255.385 234.639 248.495 213.343 249.94C210.548 249.41 208.573 246.037 208.188 243.628Z" fill="#EAB892"/>
<path d="M133.842 205.179C137.937 176.318 129.168 83.8087 225.243 87.6633C227.7 87.7596 230.35 76.1478 233.145 76.1478C234.735 76.1478 236.421 87.9524 238.011 87.4706C257.236 82.1706 342.855 99.8533 336.928 194.868C334.953 226.138 324.69 275.042 305.466 308.481C276.942 358.06 216.811 376.272 165.064 306.65C148.778 284.727 130.807 234.377 133.842 205.179Z" fill="#FEE2CC"/>
<path d="M233.58 315.997C239.86 315.997 244.951 313.559 244.951 310.553C244.951 307.546 239.86 305.108 233.58 305.108C227.3 305.108 222.209 307.546 222.209 310.553C222.209 313.559 227.3 315.997 233.58 315.997Z" fill="url(#paint2_linear_401_19240)"/>
<path d="M222.209 251.771C222.209 251.771 211.609 253.698 208.67 248.832C205.779 243.965 216.524 241.219 219.945 239.292C223.365 237.364 225.437 233.895 231.026 233.606C236.615 233.317 238.88 237.075 241.867 238.81C244.903 240.544 254.346 241.267 254.491 247.338C254.587 253.024 245.384 252.734 238.109 251.193C230.882 249.603 222.209 251.771 222.209 251.771Z" fill="#F9CCA7"/>
<path d="M231.941 191.254C229.821 190.869 227.942 193.471 227.219 196.362C224.521 207.347 222.449 227.246 221.582 238.135C221.582 238.135 224.328 244.447 231.508 244.447C239.65 244.447 241.674 237.268 241.674 237.268C240.084 228.354 238.687 192.507 231.941 191.254Z" fill="#FCE7D9"/>
<path opacity="0.51" d="M234.687 237.702C236.975 237.702 238.83 235.847 238.83 233.558C238.83 231.27 236.975 229.414 234.687 229.414C232.398 229.414 230.543 231.27 230.543 233.558C230.543 235.847 232.398 237.702 234.687 237.702Z" fill="white"/>
<path d="M251.021 276.054H212.234V287.425H251.021V276.054Z" fill="white"/>
<path d="M196.287 282.125C196.287 282.125 204.285 302.024 224.233 300.916C224.233 300.916 231.893 300.386 237.531 300.964C237.531 300.964 265.043 300.001 271.643 281.21L256.611 279.764C251.455 279.572 232.568 286.173 232.568 286.173L221.679 283.089C217.824 282.27 214.114 281.354 210.163 281.258L196.287 282.125Z" fill="#F49C95"/>
<path d="M193.782 279.62C198.937 277.693 212.91 272.537 218.499 270.224C219.463 269.839 220.475 269.742 221.486 269.887C224.57 270.465 228.184 272.103 233.146 271.959C236.23 271.862 239.41 271.043 241.386 270.465C242.831 270.032 244.373 269.983 245.818 270.417C252.371 272.296 267.837 277.644 275.209 279.234C275.691 279.331 275.787 280.005 275.306 280.198C270.487 282.222 260.032 285.402 241.289 280.15C241.289 280.15 234.206 284.534 223.51 280.15C223.51 280.15 203.033 284.872 193.782 281.354C193.011 281.017 192.963 279.909 193.782 279.62Z" fill="#E27E79"/>
<path d="M218.98 245.315C218.21 245.459 217.583 246.182 217.15 246.567C216.716 246.953 216.475 248.398 216.957 248.736C217.439 249.121 218.306 249.169 219.125 249.217C219.944 249.266 220.763 249.314 221.582 249.266C223.076 249.169 227.22 248.495 226.256 247.579C225.1 246.471 220.715 245.026 218.98 245.315Z" fill="#876F5C"/>
<path d="M244.854 244.495C245.625 244.64 247.215 245.94 247.697 246.326C248.179 246.711 247.456 248.398 246.974 248.783C246.492 249.169 245.625 249.217 244.806 249.265C243.987 249.313 243.168 249.361 242.349 249.313C240.855 249.217 236.711 248.542 237.675 247.627C238.783 246.47 243.119 244.158 244.854 244.495Z" fill="#876F5C"/>
<path d="M206.067 187.785C190.601 178.101 177.736 180.895 170.653 181.714C166.51 182.196 163.041 184.991 161.547 188.845L161.788 195.783" fill="url(#paint3_linear_401_19240)"/>
<path d="M300.792 201.806C300.792 201.806 283.929 209.852 267.836 204.36C267.836 204.36 274.051 208.359 282.194 208.359C287.253 208.359 295.059 207.636 299.01 206.335C311.055 202.384 300.792 201.806 300.792 201.806Z" fill="#443122"/>
<path d="M256.898 200.505C256.898 200.505 254.2 201.951 256.079 202.963C257.958 203.975 258.97 202.288 261.428 202.625C263.885 202.963 270.63 205.998 276.557 206.576C282.483 207.155 296.6 206.239 309.802 197.325C309.802 197.277 274.822 189.761 256.898 200.505Z" fill="#F0F4F8"/>
<path d="M262.103 195.735C262.103 195.735 261.428 184.316 269.764 182.292C276.22 180.702 294.337 179.209 309.803 189.038" fill="url(#paint4_linear_401_19240)"/>
<path d="M281.182 196.314C280.508 195.687 279.882 195.157 279.207 194.627C274.485 195.013 270.052 195.687 266.246 196.458C266.632 198.626 268.607 202.866 270.631 205.324C273.04 206.528 275.786 206.384 278.918 206.528C283.158 206.673 285.567 206.095 288.265 205.854C287.88 202.866 284.748 199.59 281.182 196.314Z" fill="#009CD8"/>
<path d="M211.559 198.819C211.559 198.819 214.209 200.264 212.378 201.276C210.547 202.24 209.487 200.553 207.03 200.891C204.573 201.18 197.827 204.215 191.901 204.697C185.974 205.227 174.893 207.443 161.787 198.433C161.739 198.385 193.684 187.93 211.559 198.819Z" fill="#F0F4F8"/>
<path d="M182.94 194.627C182.266 194.001 181.639 193.471 180.965 192.941C176.243 193.326 171.81 194.001 168.004 194.772C168.486 197.711 170.654 201.324 174.027 204.456C174.268 204.697 174.508 204.89 174.798 205.083C180.724 205.805 185.59 205.083 189.059 204.745C188.674 201.806 186.506 197.952 182.94 194.627Z" fill="#009CD8"/>
<path d="M213.101 199.397C213.101 199.397 191.371 188.412 164.919 198.048C154.946 201.662 142.466 196.988 139.094 190.821C139.094 190.821 141.936 191.929 146.321 192.604C152.055 193.471 157.885 192.652 163.281 190.58C171.665 187.352 195.515 184.461 213.101 199.397Z" fill="#443122"/>
<path d="M261.43 198.337L259.984 198.048C254.636 197.036 249.914 193.856 247.023 189.231C247.023 189.231 249.577 192.7 267.886 189.761C297.325 185.039 309.804 197.277 309.804 197.277C309.804 197.277 288.653 194.242 279.787 194.964C270.97 195.639 267.886 195.784 261.43 198.337Z" fill="#443122"/>
<path d="M257.234 203.252C257.234 203.252 259.836 202.192 261.426 202.577C263.016 202.963 266.678 204.36 266.678 204.36" stroke="#443122" stroke-width="1.01799" stroke-miterlimit="10" stroke-linecap="round"/>
<path d="M317.221 174.343C301.225 166.344 301.273 163.213 279.158 168.031C260.511 172.174 249.381 176.993 251.26 161.285C251.887 155.937 274.339 155.07 287.493 153.191C297.756 150.3 319.293 165.863 317.221 174.343Z" fill="url(#paint5_linear_401_19240)"/>
<g opacity="0.37">
<path opacity="0.37" d="M225.916 228.21C227.699 228.21 229.144 226.765 229.144 224.982C229.144 223.199 227.699 221.754 225.916 221.754C224.133 221.754 222.688 223.199 222.688 224.982C222.688 226.765 224.133 228.21 225.916 228.21Z" fill="#F49C95"/>
<path opacity="0.37" d="M199.321 224.982C200.971 224.982 202.309 223.644 202.309 221.994C202.309 220.345 200.971 219.007 199.321 219.007C197.671 219.007 196.334 220.345 196.334 221.994C196.334 223.644 197.671 224.982 199.321 224.982Z" fill="#F49C95"/>
<path opacity="0.37" d="M197.876 323.08C199.526 323.08 200.863 321.743 200.863 320.093C200.863 318.443 199.526 317.105 197.876 317.105C196.226 317.105 194.889 318.443 194.889 320.093C194.889 321.743 196.226 323.08 197.876 323.08Z" fill="#F49C95"/>
<path opacity="0.37" d="M212.232 148.276C213.775 148.276 215.027 147.025 215.027 145.482C215.027 143.938 213.775 142.687 212.232 142.687C210.689 142.687 209.438 143.938 209.438 145.482C209.438 147.025 210.689 148.276 212.232 148.276Z" fill="#F49C95"/>
<path opacity="0.37" d="M170.99 134.496C173.332 134.496 175.23 132.598 175.23 130.256C175.23 127.915 173.332 126.016 170.99 126.016C168.648 126.016 166.75 127.915 166.75 130.256C166.75 132.598 168.648 134.496 170.99 134.496Z" fill="#F49C95"/>
<path opacity="0.37" d="M202.309 111.513C203.985 111.513 205.344 110.154 205.344 108.478C205.344 106.802 203.985 105.443 202.309 105.443C200.632 105.443 199.273 106.802 199.273 108.478C199.273 110.154 200.632 111.513 202.309 111.513Z" fill="#F49C95"/>
</g>
<path d="M157.356 253.698C160.789 253.698 163.572 250.915 163.572 247.483C163.572 244.05 160.789 241.267 157.356 241.267C153.923 241.267 151.141 244.05 151.141 247.483C151.141 250.915 153.923 253.698 157.356 253.698Z" fill="#F49C95"/>
<path d="M163.571 276.44C167.004 276.44 169.786 273.657 169.786 270.224C169.786 266.792 167.004 264.009 163.571 264.009C160.138 264.009 157.355 266.792 157.355 270.224C157.355 273.657 160.138 276.44 163.571 276.44Z" fill="#F49C95"/>
<path opacity="0.56" d="M238.253 262.612C240.71 268.442 233.916 269.116 230.833 268.731C227.749 268.345 222.497 266.852 226.063 261.552C228.086 258.564 229.387 255.384 232.471 255.77C235.555 256.155 236.855 259.287 238.253 262.612Z" fill="#F9CCA7"/>
<path opacity="0.1" d="M310.572 257.408C320.152 257.408 327.917 249.642 327.917 240.063C327.917 230.483 320.152 222.717 310.572 222.717C300.992 222.717 293.227 230.483 293.227 240.063C293.227 249.642 300.992 257.408 310.572 257.408Z" fill="#F49C95"/>
<path d="M306.673 119.512C306.673 119.512 280.944 91.4216 237.243 94.7461C233.966 94.9871 231.461 97.7334 231.461 101.01V216.213C231.461 219.344 233.918 221.946 237.05 222.139C244.036 222.524 255.6 224.259 260.177 231.293C265.526 239.581 266.056 250.229 258.491 255.433C256.13 257.071 253.239 257.842 250.348 257.842H238.881C237.339 257.842 236.086 259.094 236.086 260.636C236.086 262.274 237.484 263.286 239.122 263.431C247.843 264.105 264.176 261.937 278.631 274.85C284.268 279.861 283.449 285.064 281.763 289.69C281.715 289.882 273.283 305.253 243.265 305.783C239.17 305.879 236.183 309.733 236.183 313.829V352.519C264.417 353.723 289.761 335.944 305.468 308.577C324.693 275.139 335.004 226.283 336.931 194.964C337.027 193.663 337.075 192.363 337.124 191.062C333.606 170.392 324.885 132.424 306.673 119.512ZM291.399 227.246C270.055 227.246 240.326 206.239 240.326 175.836C240.326 155.166 270.055 152.516 291.399 152.516C312.744 152.516 330.041 169.235 330.041 189.905C330.041 210.575 312.744 227.246 291.399 227.246Z" fill="url(#paint6_linear_401_19240)"/>
<path d="M175.615 503.232C170.653 501.063 167.665 495.956 168.195 490.608C169.834 473.985 173.303 438.042 173.303 429.224C173.303 417.709 171.183 395.69 183.084 382.054C183.084 382.054 189.733 336.956 255.79 317.057L266.824 312.962C266.824 312.962 275.014 299.278 289.228 295.761C289.228 295.761 294.673 282.944 300.406 274.994C300.406 274.994 303.394 251.482 311.584 242.231C311.584 242.231 312.114 219.007 325.268 217.899C325.268 217.899 329.315 206.046 339.048 204.601C339.048 204.601 343.914 202.866 347.335 204.601L345.36 229.125C345.36 229.125 342.228 249.121 345.071 256.541L345.938 265.936C345.938 265.936 343.963 237.943 360.2 235.678L362.754 235.967L358.465 264.78C358.465 264.78 356.731 291.039 358.176 296.483C358.176 296.483 354.466 303.325 343.047 320.767C331.628 338.161 323.919 358.734 323.919 358.734C323.919 358.734 320.209 364.179 311.054 365.576C301.9 367.022 245.142 394.967 234.831 408.94C234.831 408.94 227.7 415.493 226.833 431.489C225.965 447.485 246.876 502.027 246.876 502.027C246.876 502.027 212.378 519.228 175.615 503.232Z" fill="url(#paint7_linear_401_19240)" stroke="#EAB892" stroke-width="0.508993" stroke-miterlimit="10"/>
<path d="M210.498 233.124C210.498 233.124 220.423 222.91 220.905 219.055L222.639 200.842C221.531 186.532 220.905 177.089 209.052 170.295C204.86 167.934 201.102 166.922 199.271 167.212C192.188 168.32 206.884 181.666 210.498 189.182C212.136 192.555 212.762 196.313 212.425 200.072L210.498 233.124Z" fill="url(#paint8_linear_401_19240)"/>
<path d="M146.129 269.743C148.394 268.779 149.936 266.563 149.936 264.009C149.936 260.54 147.141 257.793 143.72 257.793C143.094 257.793 142.516 257.89 141.938 258.034C143.19 261.985 144.636 265.936 146.129 269.743Z" fill="#F49C95"/>
<path d="M172.437 203.444C172.437 203.444 184.434 207.973 200.575 202.577C200.575 202.577 185.494 210.093 173.497 206.046C161.499 201.999 172.437 203.444 172.437 203.444Z" fill="#443122"/>
<path d="M182.065 202.949C183.401 201.613 182.958 199.004 181.077 197.123C179.195 195.241 176.587 194.799 175.251 196.135C173.915 197.471 174.357 200.079 176.239 201.961C178.121 203.842 180.729 204.284 182.065 202.949Z" fill="#443122"/>
<path d="M279.01 203.73C280.346 202.394 279.904 199.786 278.022 197.904C276.141 196.022 273.532 195.58 272.196 196.916C270.86 198.252 271.303 200.86 273.184 202.742C275.066 204.623 277.674 205.066 279.01 203.73Z" fill="#443122"/>
<path d="M234.926 408.892C245.189 394.919 301.996 366.925 311.15 365.528C320.305 364.083 324.015 358.686 324.015 358.686C324.015 358.686 331.724 338.113 343.143 320.719C354.562 303.325 358.272 296.435 358.272 296.435C356.826 290.991 358.561 264.732 358.561 264.732L362.849 235.919L360.296 235.63C344.01 237.894 346.034 265.888 346.034 265.888L345.6 260.973C345.552 269.164 343.817 277.452 343.432 283.089C342.998 289.545 326.279 323.032 317.606 339.943C314.378 346.255 309.126 351.314 302.67 354.302L275.544 366.829C200.573 400.749 217.099 454.375 216.714 466.373C216.376 476.924 216.714 490.704 215.027 510.652C224.76 508.291 246.924 501.979 246.924 501.979C246.924 501.979 226.013 447.437 226.88 431.441C227.796 415.444 234.926 408.892 234.926 408.892Z" fill="#EAB892"/>
<path d="M325.318 217.851H330.039L327.919 240.448L323.487 276.44L312.453 305.349" stroke="#EAB892" stroke-width="0.524411" stroke-miterlimit="10" stroke-linecap="round" stroke-linejoin="round"/>
<path d="M342.47 204.36C341.218 208.118 340.447 212.021 340.158 216.02L339.965 218.959C339.965 218.959 340.254 225.174 346.036 221.657L347.337 204.601L342.47 204.36Z" fill="#FCF3E6"/>
<path d="M282.723 202.047C284.399 202.047 285.758 200.688 285.758 199.011C285.758 197.335 284.399 195.976 282.723 195.976C281.047 195.976 279.688 197.335 279.688 199.011C279.688 200.688 281.047 202.047 282.723 202.047Z" fill="white"/>
<path d="M184.627 200.313C186.304 200.313 187.663 198.954 187.663 197.277C187.663 195.601 186.304 194.242 184.627 194.242C182.951 194.242 181.592 195.601 181.592 197.277C181.592 198.954 182.951 200.313 184.627 200.313Z" fill="white"/>
<path d="M149.984 172.223C172.051 161.237 166.606 162.153 188.385 168.32C206.742 173.668 217.534 179.161 216.667 163.357C216.378 157.961 194.022 155.696 181.013 152.998C170.943 149.481 148.442 163.646 149.984 172.223Z" fill="url(#paint9_linear_401_19240)"/>
<path d="M253.045 250.422C253.045 250.422 260.61 243.483 251.021 233.558" stroke="#AB8360" stroke-width="0.469484" stroke-miterlimit="10" stroke-linecap="round" stroke-linejoin="round"/>
<path d="M210.596 250.422C210.596 250.422 203.031 243.483 212.619 233.558" stroke="#AB8360" stroke-width="0.469484" stroke-miterlimit="10" stroke-linecap="round" stroke-linejoin="round"/>
<path d="M406.84 57.5017L423.993 64.9217L406.214 63.4762C396.963 62.7053 388.29 68.0535 384.773 76.6298L378.028 93.108L379.184 74.4617C379.762 65.4998 374.607 57.1644 366.368 53.5989L349.215 46.1789L366.994 47.6244C376.245 48.3953 384.918 43.0471 388.435 34.4707L395.18 17.9926L394.024 36.6389C393.494 45.6007 398.601 53.9362 406.84 57.5017Z" fill="#FFD066"/>
<path d="M293.566 89.1571L304.937 85.6398L295.735 92.2889C290.916 95.758 288.941 101.925 290.772 107.563L294.337 118.355L287.158 108.863C283.737 104.286 277.763 102.359 272.318 104.045L260.947 107.563L270.15 100.913C274.968 97.4444 276.944 91.2771 275.113 85.6398L271.547 74.8471L278.726 84.3389C282.147 88.9162 288.074 90.8435 293.566 89.1571Z" fill="#FFD066"/>
<path d="M401.925 254.999L410.116 263.623L400.046 258.323C394.794 255.577 388.386 256.492 384.194 260.684L376.099 268.682L381.448 258.034C384.001 252.927 383.086 246.76 379.183 242.568L370.992 233.943L381.062 239.243C386.314 241.99 392.722 241.074 396.914 236.882L405.009 228.884L399.66 239.532C397.059 244.688 397.974 250.855 401.925 254.999Z" fill="#FFD066"/>
<path d="M328.352 232.835C328.352 232.835 322.281 233.799 323.052 227.295C323.871 220.79 325.317 217.851 325.317 217.851H330.038L328.352 232.835Z" fill="#FCF3E6"/>
<path d="M227.074 86.4108L233.675 29.6044H237.481V89.4944L227.074 86.4108Z" fill="#FEE2CC"/>
<path d="M74.0989 486.513C74.0989 486.513 74.4843 489.885 74.3398 491.524L72.9425 496.775C72.8943 498.606 74.4361 500.1 76.267 500.004L80.3143 499.425C82.1452 499.185 83.9761 499.233 85.7589 499.618C88.7461 500.245 93.3716 501.16 95.3952 501.016L100.984 500.63C101.996 500.63 102.285 499.281 101.37 498.847C99.9243 498.173 97.8043 497.98 95.0098 496.631C91.9743 495.137 88.2161 492.487 85.9998 491.186C82.7234 489.211 82.0489 484.971 80.8443 483.477C78.5798 480.635 74.0989 486.031 74.0989 486.513Z" fill="#DE97FF"/>
<path d="M40.1295 488.296C40.1295 488.296 36.4195 498.221 37.0458 499.715C37.6722 501.208 37.9131 503.81 42.8758 503.328C47.8386 502.846 49.2359 498.751 49.2359 498.751C49.2359 498.751 48.0313 493.162 48.1277 491.283C48.224 489.404 48.224 488.296 48.224 488.296H40.1295Z" fill="#DE97FF"/>
<path d="M40.082 455.339H83.9275L75.8811 373.575H64.3175L40.082 455.339Z" fill="url(#paint10_linear_401_19240)"/>
<path d="M55.7895 301.109C58.3432 308.915 54.2477 317.829 47.5504 322.599C45.8641 323.803 43.985 324.815 41.9132 325.345C35.9386 326.887 29.7713 324.044 24.5195 320.816C30.4941 320.671 36.2277 316.769 38.5886 311.228C39.3595 309.349 39.7932 307.325 40.6604 305.494C43.0213 300.435 48.8995 297.207 54.4404 297.978C55.3559 299.038 55.3559 299.76 55.7895 301.109Z" fill="url(#paint11_linear_401_19240)"/>
<path d="M66.2923 275.187C66.2923 275.187 65.8105 263.961 53.4278 266.9C53.4278 266.9 44.6105 267.382 42.4423 275.187C40.2742 282.993 41.0451 295.857 52.7533 299.616C52.7051 299.616 65.136 300.049 66.2923 275.187Z" fill="url(#paint12_linear_401_19240)"/>
<path d="M112.211 310.552L100.984 300.049L114.813 285.209L126.087 295.664L112.211 310.552Z" fill="url(#paint13_linear_401_19240)"/>
<path d="M65.7133 287.956C65.7133 287.956 65.3279 292.918 65.4724 294.605C65.617 296.291 64.4124 301.639 70.1942 301.639C70.1942 301.639 67.3515 309.734 62.4851 308.577C57.6188 307.469 54.6797 302.603 54.6797 302.603L55.5951 284.438L65.7133 287.956Z" fill="#FCD0B1"/>
<path d="M81.9048 303.277L105.899 315.13L119.824 306.265C119.824 306.265 117.656 317.25 116.258 322.02C114.62 327.657 113.56 328.717 111.344 330.934C107.248 335.029 88.6984 327.416 88.6984 327.416C89.0839 330.356 89.8548 349.869 91.3003 364.565C95.0103 402.291 101.081 455.387 101.081 455.387H87.3012C87.3012 455.387 85.9521 414.577 84.1212 388.077C81.8566 355.121 70.1484 301.687 70.1484 301.687C70.1484 301.687 76.4121 300.531 81.9048 303.277Z" fill="url(#paint14_linear_401_19240)"/>
<path opacity="0.21" d="M182.472 287.098C199.293 270.277 199.293 243.004 182.472 226.182C165.65 209.361 138.377 209.361 121.556 226.182C104.734 243.004 104.734 270.277 121.556 287.098C138.377 303.92 165.65 303.92 182.472 287.098Z" fill="white"/>
<path opacity="0.76" d="M147.72 223.006C147.672 221.513 148.828 220.26 150.322 220.212C172.052 219.441 190.313 236.497 191.132 258.179C191.18 259.673 190.024 260.926 188.53 260.974C187.037 261.022 185.784 259.866 185.736 258.372C185.061 239.677 169.306 224.982 150.563 225.656C149.021 225.705 147.768 224.5 147.72 223.006Z" fill="white"/>
<path opacity="0.58" d="M107.585 258.227C106.718 233.751 125.942 213.129 150.418 212.214C174.895 211.346 195.517 230.571 196.432 255.047C197.299 279.524 178.075 300.146 153.599 301.061C129.122 301.928 108.5 282.704 107.585 258.227ZM193.686 255.144C192.867 232.161 173.498 214.141 150.515 214.96C127.532 215.779 109.512 235.148 110.331 258.131C111.15 281.114 130.519 299.134 153.502 298.315C176.485 297.496 194.505 278.126 193.686 255.144Z" fill="#485793"/>
<path d="M202.935 254.806C201.924 226.716 178.266 204.697 150.225 205.709C122.135 206.721 100.115 230.378 101.127 258.42C101.513 269.743 105.56 280.295 112.739 289.016L122.135 297.785C122.183 297.833 122.183 297.833 122.231 297.929L122.375 298.074C131.626 304.675 142.467 307.999 153.838 307.566C181.928 306.554 203.947 282.896 202.935 254.806ZM153.549 298.989C130.181 299.808 110.523 281.499 109.655 258.131C108.836 234.763 127.145 215.105 150.514 214.237C173.882 213.418 193.54 231.727 194.407 255.096C195.226 278.464 176.869 298.17 153.549 298.989Z" fill="url(#paint15_linear_401_19240)"/>
<path d="M54.6328 301.447C54.6328 301.447 60.1255 309.927 66.871 306.217C66.871 306.217 69.8101 304.53 70.1955 301.639L77.5674 319.756L81.7592 365.769C81.7592 365.769 69.1837 370.684 62.4383 367.841L54.6328 301.447Z" fill="url(#paint16_linear_401_19240)"/>
<path d="M59.0169 270.128C59.0169 270.128 63.5942 270.803 64.9433 275.236C64.9433 275.236 66.0033 277.645 68.0269 278.271L69.1833 278.753C69.4723 278.897 69.6651 279.235 69.5205 279.524C69.376 279.957 69.1351 280.536 68.7014 280.921C68.7014 280.921 68.846 281.74 69.4242 281.885C69.9542 281.981 69.6169 283.041 69.6169 283.041C69.6169 283.041 70.4842 283.234 70.2433 283.908C70.2433 283.908 69.906 284.294 70.0505 284.583C70.1951 284.872 70.3878 285.354 70.7733 285.546C71.1587 285.739 72.3151 286.655 71.3514 287.618C70.436 288.582 62.8233 291.521 61.3778 291.087C58.8242 290.316 58.246 287.522 56.656 286.896C56.656 286.896 55.4996 288.437 53.3796 287.859C51.6933 287.377 49.9587 284.101 52.1269 282.945C54.2951 281.788 56.2705 283.956 56.2705 283.956C56.2705 283.956 58.5351 277.018 59.0169 270.128Z" fill="#FEE2CC"/>
<path d="M62.4828 285.052C63.2004 285.018 63.7603 284.537 63.7334 283.979C63.7065 283.421 63.1029 282.996 62.3853 283.031C61.6677 283.066 61.1078 283.546 61.1347 284.104C61.1616 284.662 61.7652 285.087 62.4828 285.052Z" fill="#EAB892"/>
<path d="M69.5693 281.885C69.5693 281.885 68.9911 281.836 68.6538 282.752C68.4611 283.282 67.9793 283.619 67.0156 284.631C67.0156 284.631 69.1356 283.86 69.6174 283.089C69.6174 283.041 70.0993 282.318 69.5693 281.885Z" fill="#E28883"/>
<path d="M40.0806 454.038L34.877 491.524C34.877 491.524 51.066 490.656 63.4488 491.524C63.4488 491.524 61.377 409.422 65.4724 388.222C65.5688 387.788 66.5324 387.644 66.5324 388.125L69.3751 427.297C69.3751 427.297 66.147 480.056 66.436 492.921L89.0815 490.656L85.9979 406.001L81.7097 365.769C81.7097 365.769 68.9897 370.346 55.017 365.576L40.0806 454.038Z" fill="url(#paint17_linear_401_19240)"/>
<path d="M70.195 284.053C70.1468 284.197 70.0022 284.294 69.8577 284.342C69.5686 284.486 69.0386 284.631 68.7013 284.631C68.2195 284.631 67.2559 284.486 67.2559 284.486L69.5686 283.041C69.6168 283.041 70.5804 283.089 70.195 284.053Z" fill="#F49C95"/>
<path d="M64.0763 277.018C63.8836 277.741 63.4981 278.368 63.1609 279.042C62.8236 279.717 62.5345 280.391 62.4863 281.114C63.4018 280.873 64.3172 280.536 65.0881 279.958" stroke="#C69024" stroke-width="0.234742" stroke-miterlimit="10"/>
<path d="M67.449 316.527C66.6299 315.708 65.2326 315.805 64.3172 316.72C64.269 316.768 64.2208 316.816 64.1726 316.865C64.1726 316.816 64.1726 316.72 64.1726 316.672C64.0281 315.371 62.9681 314.456 61.8599 314.552C60.7035 314.696 59.9326 315.805 60.0772 317.106C60.0772 317.154 60.0772 317.25 60.1253 317.298C60.0772 317.25 60.029 317.202 59.9326 317.154C58.8244 316.479 57.4753 316.672 56.849 317.684C56.2226 318.647 56.6081 319.996 57.7162 320.671C57.7644 320.719 57.8126 320.719 57.909 320.767C57.8608 320.767 57.7644 320.816 57.7162 320.816C56.5117 321.249 55.789 322.454 56.1744 323.562C56.5599 324.622 57.8608 325.2 59.0653 324.766C59.1135 324.766 59.2099 324.718 59.2581 324.67C59.2099 324.718 59.2099 324.815 59.1617 324.863C58.7281 326.067 59.2581 327.368 60.3662 327.754C61.4262 328.139 62.679 327.465 63.1126 326.212C63.1126 326.164 63.1608 326.067 63.1608 326.019C63.209 326.067 63.209 326.164 63.2572 326.212C63.9317 327.32 65.2808 327.706 66.2444 327.079C67.2081 326.453 67.449 325.104 66.7744 323.996C66.7262 323.947 66.6781 323.899 66.6299 323.803C66.6781 323.803 66.7744 323.851 66.8226 323.851C68.1235 323.996 69.2799 323.176 69.3762 322.068C69.5208 320.912 68.5572 319.9 67.2562 319.756C67.2081 319.756 67.1117 319.756 67.0635 319.756C67.1117 319.707 67.1599 319.659 67.2081 319.611C68.1717 318.744 68.2681 317.346 67.449 316.527Z" fill="#FFD066"/>
<path d="M63.8342 277.596C63.6896 277.404 63.5451 277.259 63.4005 277.115C62.6778 278.126 62.2442 279.283 62.0996 280.487" stroke="#C69024" stroke-width="0.234742" stroke-miterlimit="10"/>
<path d="M49.5739 351.17L33.2402 455.339H64.4621L67.3048 356.229L49.5739 351.17Z" fill="url(#paint18_linear_401_19240)"/>
<path d="M63.642 277.933C63.4493 278.223 63.2565 278.56 63.112 278.849C63.0638 278.897 63.0638 278.945 63.0156 278.993C63.0156 279.09 63.0156 279.138 63.0638 279.234C63.2084 279.813 63.6902 280.198 64.0756 280.053C64.4611 279.957 64.6538 279.379 64.5093 278.801C64.3647 278.319 64.0274 277.982 63.642 277.933Z" fill="#C69024"/>
<path d="M63.7871 277.789C64.3653 278.271 64.8471 279.235 64.8471 280.15" stroke="#C69024" stroke-width="0.234742" stroke-miterlimit="10"/>
<path d="M62.6304 276.055C62.9195 275.862 63.2567 275.717 63.4013 275.38C63.5458 275.043 63.4013 274.609 63.064 274.561C62.9195 274.561 62.7749 274.609 62.6304 274.657C62.004 274.995 61.4258 275.428 60.8958 275.958C60.4622 276.392 59.7876 277.163 59.6431 277.789C59.4986 278.512 60.3658 277.789 60.6067 277.596C61.2813 277.018 61.9076 276.488 62.6304 276.055Z" fill="#EAB892"/>
<path d="M27.9878 391.691L26.1087 389.956C23.5069 387.547 23.3623 383.452 25.7714 380.898L100.983 300.097L112.258 310.601L37.046 391.402C34.6369 393.956 30.5896 394.1 27.9878 391.691Z" fill="url(#paint19_linear_401_19240)"/>
<path d="M54.6313 301.446C54.6313 301.446 43.0677 309.396 41.4777 313.781C39.8877 318.166 40.3695 347.267 44.0795 351.218C47.7895 355.169 74.964 358.253 81.9022 355.073L80.4568 340.088L66.1468 339.221L60.7986 306.939C60.7986 306.891 56.1731 304.289 54.6313 301.446Z" fill="url(#paint20_linear_401_19240)"/>
<path d="M80.457 340.04C80.457 340.04 83.5407 338.98 83.3479 337.342C83.1552 335.752 84.5525 331.126 84.0225 330.163C84.0225 330.163 84.9861 328.043 86.6725 330.934C86.6725 330.934 86.6243 334.355 87.2507 334.258C87.877 334.162 93.2734 331.03 93.2734 331.03L96.6943 327.368C96.6943 327.368 97.1761 330.741 96.6943 331.801C96.2125 332.861 91.5388 339.992 91.5388 339.992C91.5388 339.992 88.1179 343.172 85.1789 344.81C82.9143 346.015 81.1316 346.882 81.1316 346.882L80.457 340.04Z" fill="#FCD0B1"/>
<path d="M104.693 320.093L110.282 303.277L120.882 300.242L119.871 306.891L119.196 310.167L116.932 319.466" fill="url(#paint21_linear_401_19240)"/>
<path d="M111.921 302.796V300.386L108.259 294.942L105.223 295.472C105.223 295.472 104.308 294.99 105.223 293.737C105.223 293.737 105.368 291.087 106.813 290.509C106.813 290.509 107.199 287.956 108.355 287.956C109.511 287.956 114.908 288.293 114.908 288.293C114.908 288.293 117.847 291.714 119.292 294.219C119.292 294.219 119.244 297.64 118.618 300.868L111.921 302.796Z" fill="#FCD0B1"/>
<path d="M67.3058 339.076L57.0431 338.257L56.0312 326.453" stroke="#009CD8" stroke-width="0.505283" stroke-miterlimit="10"/>
<path opacity="0.4" d="M119.582 279.331C121.172 281.547 123.003 283.619 125.075 285.546C127.917 288.196 131.001 290.316 134.277 292.003L187.904 234.426C185.977 231.294 183.616 228.355 180.821 225.705C178.749 223.777 176.533 222.091 174.22 220.694L119.582 279.331Z" fill="white"/>
<defs>
<linearGradient id="paint0_linear_401_19240" x1="231.467" y1="46.8154" x2="231.467" y2="241.647" gradientUnits="userSpaceOnUse">
<stop stop-color="#A37624"/>
<stop offset="0.444" stop-color="#AB8360"/>
<stop offset="1" stop-color="#F9CCA7"/>
</linearGradient>
<linearGradient id="paint1_linear_401_19240" x1="237.125" y1="323.576" x2="237.125" y2="443.231" gradientUnits="userSpaceOnUse">
<stop offset="0.2953" stop-color="#EAB892"/>
<stop offset="0.8139" stop-color="#F9CCA7"/>
<stop offset="0.8399" stop-color="#FEE2CC"/>
</linearGradient>
<linearGradient id="paint2_linear_401_19240" x1="233.601" y1="301.294" x2="233.601" y2="320.795" gradientUnits="userSpaceOnUse">
<stop offset="0.1508" stop-color="#EAB892"/>
<stop offset="0.3789" stop-color="#F9CCA7"/>
<stop offset="0.8399" stop-color="#FEE2CC"/>
</linearGradient>
<linearGradient id="paint3_linear_401_19240" x1="161.529" y1="188.259" x2="206.06" y2="188.259" gradientUnits="userSpaceOnUse">
<stop offset="0.1508" stop-color="#EAB892"/>
<stop offset="0.3789" stop-color="#F9CCA7"/>
<stop offset="0.8399" stop-color="#FEE2CC"/>
</linearGradient>
<linearGradient id="paint4_linear_401_19240" x1="262.101" y1="188.436" x2="309.792" y2="188.436" gradientUnits="userSpaceOnUse">
<stop offset="0.1508" stop-color="#EAB892"/>
<stop offset="0.3789" stop-color="#F9CCA7"/>
<stop offset="0.8399" stop-color="#FEE2CC"/>
</linearGradient>
<linearGradient id="paint5_linear_401_19240" x1="352.209" y1="167.287" x2="244.659" y2="160.668" gradientUnits="userSpaceOnUse">
<stop stop-color="#A37624"/>
<stop offset="0.444" stop-color="#AB8360"/>
<stop offset="1" stop-color="#F9CCA7"/>
</linearGradient>
<linearGradient id="paint6_linear_401_19240" x1="258.455" y1="216.632" x2="510.783" y2="-74.5794" gradientUnits="userSpaceOnUse">
<stop stop-color="white"/>
<stop offset="0.5415" stop-color="#BEF5FF"/>
</linearGradient>
<linearGradient id="paint7_linear_401_19240" x1="307.222" y1="406.111" x2="232.845" y2="322.58" gradientUnits="userSpaceOnUse">
<stop offset="0.1508" stop-color="#EAB892"/>
<stop offset="0.3789" stop-color="#F9CCA7"/>
<stop offset="0.8399" stop-color="#FEE2CC"/>
</linearGradient>
<linearGradient id="paint8_linear_401_19240" x1="225.412" y1="196.65" x2="198.772" y2="201.191" gradientUnits="userSpaceOnUse">
<stop offset="0.1508" stop-color="#EAB892"/>
<stop offset="0.3789" stop-color="#F9CCA7"/>
<stop offset="0.8399" stop-color="#FEE2CC"/>
</linearGradient>
<linearGradient id="paint9_linear_401_19240" x1="149.932" y1="163.12" x2="216.727" y2="163.12" gradientUnits="userSpaceOnUse">
<stop stop-color="#A37624"/>
<stop offset="0.444" stop-color="#AB8360"/>
<stop offset="1" stop-color="#F9CCA7"/>
</linearGradient>
<linearGradient id="paint10_linear_401_19240" x1="40.0603" y1="414.448" x2="83.9457" y2="414.448" gradientUnits="userSpaceOnUse">
<stop offset="0.1145" stop-color="#0088C3"/>
<stop offset="0.2945" stop-color="#0085C0"/>
<stop offset="0.4483" stop-color="#027DB5"/>
<stop offset="0.5925" stop-color="#046EA3"/>
<stop offset="0.7309" stop-color="#075A8B"/>
<stop offset="0.8652" stop-color="#0A406B"/>
<stop offset="0.9946" stop-color="#0F2044"/>
<stop offset="1" stop-color="#0F1F42"/>
</linearGradient>
<linearGradient id="paint11_linear_401_19240" x1="24.5469" y1="311.816" x2="56.5412" y2="311.816" gradientUnits="userSpaceOnUse">
<stop stop-color="#F97803"/>
<stop offset="0.2289" stop-color="#F97B06"/>
<stop offset="0.4238" stop-color="#FA8411"/>
<stop offset="0.6062" stop-color="#FB9422"/>
<stop offset="0.7811" stop-color="#FCAA3B"/>
<stop offset="0.9491" stop-color="#FEC65B"/>
<stop offset="1" stop-color="#FFD066"/>
</linearGradient>
<linearGradient id="paint12_linear_401_19240" x1="41.4767" y1="283.024" x2="66.3071" y2="283.024" gradientUnits="userSpaceOnUse">
<stop stop-color="#F97803"/>
<stop offset="0.2289" stop-color="#F97B06"/>
<stop offset="0.4238" stop-color="#FA8411"/>
<stop offset="0.6062" stop-color="#FB9422"/>
<stop offset="0.7811" stop-color="#FCAA3B"/>
<stop offset="0.9491" stop-color="#FEC65B"/>
<stop offset="1" stop-color="#FFD066"/>
</linearGradient>
<linearGradient id="paint13_linear_401_19240" x1="100.968" y1="297.869" x2="126.079" y2="297.869" gradientUnits="userSpaceOnUse">
<stop offset="0.1145" stop-color="#0088C3"/>
<stop offset="0.2945" stop-color="#0085C0"/>
<stop offset="0.4483" stop-color="#027DB5"/>
<stop offset="0.5925" stop-color="#046EA3"/>
<stop offset="0.7309" stop-color="#075A8B"/>
<stop offset="0.8652" stop-color="#0A406B"/>
<stop offset="0.9946" stop-color="#0F2044"/>
<stop offset="1" stop-color="#0F1F42"/>
</linearGradient>
<linearGradient id="paint14_linear_401_19240" x1="86.8442" y1="290.234" x2="125.143" y2="497.727" gradientUnits="userSpaceOnUse">
<stop stop-color="white"/>
<stop offset="0.2704" stop-color="#BEF5FF"/>
<stop offset="0.5588" stop-color="#BCF4FE"/>
<stop offset="0.6627" stop-color="#B5F0FC"/>
<stop offset="0.7368" stop-color="#AAE9F9"/>
<stop offset="0.7967" stop-color="#99E0F3"/>
<stop offset="0.848" stop-color="#83D3EC"/>
<stop offset="0.8935" stop-color="#67C3E4"/>
<stop offset="0.9346" stop-color="#47B1D9"/>
<stop offset="0.9711" stop-color="#239CCE"/>
<stop offset="1" stop-color="#0088C3"/>
</linearGradient>
<linearGradient id="paint15_linear_401_19240" x1="101.067" y1="256.629" x2="202.964" y2="256.629" gradientUnits="userSpaceOnUse">
<stop offset="0.1145" stop-color="#0088C3"/>
<stop offset="0.2945" stop-color="#0085C0"/>
<stop offset="0.4483" stop-color="#027DB5"/>
<stop offset="0.5925" stop-color="#046EA3"/>
<stop offset="0.7309" stop-color="#075A8B"/>
<stop offset="0.8652" stop-color="#0A406B"/>
<stop offset="0.9946" stop-color="#0F2044"/>
<stop offset="1" stop-color="#0F1F42"/>
</linearGradient>
<linearGradient id="paint16_linear_401_19240" x1="72.4402" y1="308.226" x2="51.0525" y2="435.851" gradientUnits="userSpaceOnUse">
<stop offset="0.2519" stop-color="#DE97FF"/>
<stop offset="1" stop-color="#A827D8"/>
</linearGradient>
<linearGradient id="paint17_linear_401_19240" x1="34.8655" y1="429.237" x2="89.1102" y2="429.237" gradientUnits="userSpaceOnUse">
<stop offset="0.2519" stop-color="#DE97FF"/>
<stop offset="1" stop-color="#A827D8"/>
</linearGradient>
<linearGradient id="paint18_linear_401_19240" x1="39.476" y1="306.291" x2="63.7158" y2="529.54" gradientUnits="userSpaceOnUse">
<stop stop-color="white"/>
<stop offset="0.2704" stop-color="#BEF5FF"/>
<stop offset="0.5588" stop-color="#BCF4FE"/>
<stop offset="0.6627" stop-color="#B5F0FC"/>
<stop offset="0.7368" stop-color="#AAE9F9"/>
<stop offset="0.7967" stop-color="#99E0F3"/>
<stop offset="0.848" stop-color="#83D3EC"/>
<stop offset="0.8935" stop-color="#67C3E4"/>
<stop offset="0.9346" stop-color="#47B1D9"/>
<stop offset="0.9711" stop-color="#239CCE"/>
<stop offset="1" stop-color="#0088C3"/>
</linearGradient>
<linearGradient id="paint19_linear_401_19240" x1="24.0714" y1="346.765" x2="112.28" y2="346.765" gradientUnits="userSpaceOnUse">
<stop offset="0.1145" stop-color="#0088C3"/>
<stop offset="0.2945" stop-color="#0085C0"/>
<stop offset="0.4483" stop-color="#027DB5"/>
<stop offset="0.5925" stop-color="#046EA3"/>
<stop offset="0.7309" stop-color="#075A8B"/>
<stop offset="0.8652" stop-color="#0A406B"/>
<stop offset="0.9946" stop-color="#0F2044"/>
<stop offset="1" stop-color="#0F1F42"/>
</linearGradient>
<linearGradient id="paint20_linear_401_19240" x1="57.0161" y1="304.387" x2="81.256" y2="527.636" gradientUnits="userSpaceOnUse">
<stop stop-color="white"/>
<stop offset="0.2704" stop-color="#BEF5FF"/>
<stop offset="0.5588" stop-color="#BCF4FE"/>
<stop offset="0.6627" stop-color="#B5F0FC"/>
<stop offset="0.7368" stop-color="#AAE9F9"/>
<stop offset="0.7967" stop-color="#99E0F3"/>
<stop offset="0.848" stop-color="#83D3EC"/>
<stop offset="0.8935" stop-color="#67C3E4"/>
<stop offset="0.9346" stop-color="#47B1D9"/>
<stop offset="0.9711" stop-color="#239CCE"/>
<stop offset="1" stop-color="#0088C3"/>
</linearGradient>
<linearGradient id="paint21_linear_401_19240" x1="111.519" y1="298.469" x2="135.758" y2="521.718" gradientUnits="userSpaceOnUse">
<stop stop-color="white"/>
<stop offset="0.2704" stop-color="#BEF5FF"/>
<stop offset="0.5588" stop-color="#BCF4FE"/>
<stop offset="0.6627" stop-color="#B5F0FC"/>
<stop offset="0.7368" stop-color="#AAE9F9"/>
<stop offset="0.7967" stop-color="#99E0F3"/>
<stop offset="0.848" stop-color="#83D3EC"/>
<stop offset="0.8935" stop-color="#67C3E4"/>
<stop offset="0.9346" stop-color="#47B1D9"/>
<stop offset="0.9711" stop-color="#239CCE"/>
<stop offset="1" stop-color="#0088C3"/>
</linearGradient>
</defs>
</svg>
