<svg width="216" height="231" viewBox="0 0 216 231" fill="none" xmlns="http://www.w3.org/2000/svg">
<g clip-path="url(#clip0_476_5212)">
<path d="M109.275 211.54C167.683 211.54 215.023 164.241 215.023 105.885C215.023 47.5288 167.683 0.230057 109.275 0.230057C50.8677 0.230057 3.52735 47.5288 3.52735 105.885C3.50557 164.241 50.8677 211.54 109.275 211.54Z" fill="#00A8E1"/>
<path d="M106.769 13.4206C106.769 13.4206 80.0157 6.76 61.89 38.0168C43.7642 69.2735 57.5328 107.104 66.7482 114.113H151.909C151.909 114.113 180.513 65.8779 146.985 26.2193C146.985 26.2193 131.996 7.78303 112.433 13.6382L106.769 13.4206Z" fill="url(#paint0_linear_476_5212)"/>
<path d="M68.1654 112.959C68.1654 112.959 66.7711 116.333 63.1983 115.049C59.6254 113.764 58.3836 108.149 58.0568 106.843C57.7518 105.515 53.4383 99.2678 52.8718 97.5918C52.3272 95.9158 48.4711 83.0517 52.9372 79.8085C57.3815 76.5653 64.6143 86.3385 66.7493 95.2845C68.8625 104.187 69.6468 109.999 68.1654 112.959Z" fill="#F9CCA7"/>
<path d="M64.0259 109.498C65.2459 109.019 65.9866 107.561 65.638 106.298C65.1805 104.601 63.2634 103.752 62.4137 102.228C61.9344 101.357 61.8473 100.269 62.1741 99.3332C62.5009 98.3972 63.2634 97.6136 64.1784 97.2218C62.8712 94.1962 61.4551 91.2795 59.8212 88.4281C58.8844 86.7956 57.7298 85.0543 55.9216 84.5537C55.4205 84.4013 54.8541 84.3795 54.353 84.5319C53.6123 84.7713 53.0894 85.4243 52.6755 86.0773C51.608 87.8404 51.1941 89.9518 51.4773 91.9761" stroke="#AB8360" stroke-width="0.31835" stroke-miterlimit="10" stroke-linecap="round" stroke-linejoin="round"/>
<path d="M151.388 115.484C151.388 115.484 152.39 118.967 156.029 117.856C159.667 116.746 161.41 111.152 161.802 109.868C162.172 108.562 166.791 102.533 167.423 100.879C168.054 99.246 172.52 86.5779 168.229 83.117C163.937 79.6779 156.247 89.0811 153.676 97.8965C151.105 106.712 150.038 112.458 151.388 115.484Z" fill="#F9CCA7"/>
<path d="M155.681 112.241C154.483 111.697 153.808 110.195 154.222 108.954C154.766 107.3 156.727 106.538 157.642 105.036C158.165 104.187 158.296 103.121 158.013 102.163C157.729 101.205 157.01 100.378 156.117 99.9644C157.577 97.0042 159.124 94.1745 160.91 91.3884C161.934 89.7995 163.154 88.1234 164.984 87.6881C165.507 87.5575 166.051 87.5575 166.553 87.7534C167.271 88.0364 167.773 88.7111 168.143 89.3859C169.123 91.1925 169.428 93.3256 169.036 95.3499" stroke="#A37624" stroke-width="0.31835" stroke-miterlimit="10" stroke-linecap="round" stroke-linejoin="round"/>
<path d="M140.952 222.662C122.696 228.017 103.328 228.431 84.8756 223.86L79.1896 222.445C74.8324 221.378 72.1963 216.96 73.3292 212.628L74.0046 210.038C79.7996 187.64 82.1742 164.502 81.0849 141.386L80.976 138.905H140.603L140.386 142.017C138.752 165.699 140.8 189.49 146.42 212.563L146.529 213.02C147.531 217.221 145.091 221.465 140.952 222.662Z" fill="#F9CCA7"/>
<path d="M140.101 169.138C139.665 160.127 139.753 151.072 140.363 142.039L140.58 138.926H80.953L81.0619 141.408C81.4758 150.049 81.3887 158.69 80.8223 167.31C86.6608 177.954 97.9894 185.18 110.995 185.18C123.261 185.18 134.001 178.781 140.101 169.138Z" fill="url(#paint1_linear_476_5212)"/>
<path d="M97.6191 110.216C103.654 108.78 103.175 108.693 107.837 111.24C109.601 112.197 110.386 112.175 112.128 111.174C117.226 108.257 118.577 107.866 120.298 110.804C121.932 113.569 116.442 112.698 111.889 113.09C110.56 113.199 110.603 115.005 109.274 115.179C106.508 115.528 109.579 112.415 99.9502 113.068C98.6866 112.828 97.7934 111.305 97.6191 110.216Z" fill="#EAB892"/>
<path d="M64.0044 92.8466C65.8562 79.8084 61.8912 38.0166 105.332 39.758C106.443 39.8015 107.641 34.5558 108.905 34.5558C109.624 34.5558 110.386 39.8886 111.105 39.6709C119.798 37.2766 158.511 45.2649 155.831 88.1885C154.938 102.315 150.298 124.408 141.605 139.514C128.708 161.912 101.519 170.14 78.1216 138.687C70.758 128.783 62.6319 106.037 64.0044 92.8466Z" fill="#FEE2CC"/>
<path d="M109.1 142.91C111.94 142.91 114.242 141.809 114.242 140.45C114.242 139.092 111.94 137.991 109.1 137.991C106.261 137.991 103.959 139.092 103.959 140.45C103.959 141.809 106.261 142.91 109.1 142.91Z" fill="url(#paint2_linear_476_5212)"/>
<path d="M103.96 113.895C103.96 113.895 99.1669 114.766 97.838 112.567C96.5308 110.369 101.389 109.128 102.936 108.257C104.483 107.387 105.419 105.82 107.947 105.689C110.474 105.558 111.498 107.256 112.848 108.04C114.221 108.823 118.491 109.15 118.556 111.892C118.6 114.461 114.439 114.33 111.149 113.634C107.881 112.915 103.96 113.895 103.96 113.895Z" fill="#F9CCA7"/>
<path d="M108.36 86.5561C107.401 86.3819 106.551 87.5573 106.225 88.8633C105.005 93.8261 104.068 102.816 103.676 107.735C103.676 107.735 104.918 110.586 108.164 110.586C111.845 110.586 112.76 107.343 112.76 107.343C112.041 103.316 111.41 87.122 108.36 86.5561Z" fill="#FCE7D9"/>
<path opacity="0.51" d="M109.602 107.539C110.637 107.539 111.476 106.701 111.476 105.667C111.476 104.633 110.637 103.795 109.602 103.795C108.567 103.795 107.729 104.633 107.729 105.667C107.729 106.701 108.567 107.539 109.602 107.539Z" fill="white"/>
<path d="M116.985 124.865H99.4473V130.002H116.985V124.865Z" fill="white"/>
<path d="M92.2402 127.608C92.2402 127.608 95.8567 136.598 104.876 136.097C104.876 136.097 108.34 135.857 110.889 136.119C110.889 136.119 123.328 135.683 126.313 127.194L119.516 126.541C117.185 126.454 108.645 129.436 108.645 129.436L103.721 128.043C101.978 127.673 100.301 127.26 98.5145 127.216L92.2402 127.608Z" fill="#F49C95"/>
<path d="M91.1056 126.476C93.4367 125.605 99.7545 123.276 102.282 122.231C102.717 122.057 103.175 122.014 103.632 122.079C105.027 122.34 106.661 123.08 108.905 123.015C110.299 122.972 111.737 122.601 112.63 122.34C113.283 122.144 113.981 122.123 114.634 122.319C117.597 123.167 124.59 125.583 127.923 126.302C128.141 126.345 128.185 126.65 127.967 126.737C125.788 127.651 121.061 129.088 112.586 126.715C112.586 126.715 109.384 128.696 104.547 126.715C104.547 126.715 95.2885 128.848 91.1056 127.26C90.757 127.107 90.7352 126.607 91.1056 126.476Z" fill="#E27E79"/>
<path d="M102.5 110.978C102.151 111.044 101.868 111.37 101.672 111.544C101.476 111.718 101.367 112.371 101.585 112.524C101.803 112.698 102.195 112.72 102.565 112.741C102.936 112.763 103.306 112.785 103.676 112.763C104.352 112.72 106.225 112.415 105.789 112.001C105.267 111.501 103.284 110.848 102.5 110.978Z" fill="#876F5C"/>
<path d="M114.198 110.608C114.546 110.673 115.265 111.261 115.483 111.435C115.701 111.609 115.374 112.371 115.156 112.545C114.938 112.719 114.546 112.741 114.176 112.763C113.806 112.785 113.435 112.807 113.065 112.785C112.39 112.741 110.516 112.436 110.952 112.023C111.453 111.501 113.413 110.456 114.198 110.608Z" fill="#876F5C"/>
<path d="M96.6612 84.9889C89.668 80.6138 83.8512 81.8763 80.6487 82.2463C78.7752 82.464 77.2066 83.7265 76.5312 85.4678L76.6402 88.6022" fill="url(#paint3_linear_476_5212)"/>
<path d="M139.493 91.323C139.493 91.323 131.868 94.958 124.592 92.4766C124.592 92.4766 127.402 94.2832 131.084 94.2832C133.371 94.2832 136.901 93.9567 138.687 93.369C144.134 91.5841 139.493 91.323 139.493 91.323Z" fill="#443122"/>
<path d="M119.646 90.7354C119.646 90.7354 118.426 91.3884 119.275 91.8455C120.125 92.3026 120.583 91.5408 121.694 91.6931C122.805 91.8455 125.855 93.2168 128.534 93.478C131.214 93.7392 137.597 93.3256 143.567 89.2988C143.567 89.2771 127.75 85.8815 119.646 90.7354Z" fill="#F0F4F8"/>
<path d="M121.996 88.5804C121.996 88.5804 121.691 83.4217 125.46 82.5075C128.379 81.7892 136.571 81.1144 143.564 85.5548" fill="url(#paint4_linear_476_5212)"/>
<path d="M130.625 88.8418C130.32 88.5588 130.036 88.3194 129.731 88.0799C127.596 88.2541 125.592 88.5588 123.871 88.9071C124.045 89.8866 124.939 91.802 125.854 92.9121C126.943 93.4563 128.185 93.391 129.601 93.4563C131.518 93.5216 132.607 93.2604 133.827 93.1515C133.653 91.802 132.237 90.3219 130.625 88.8418Z" fill="#009CD8"/>
<path d="M99.1433 89.9735C99.1433 89.9735 100.342 90.6265 99.5137 91.0836C98.6858 91.5189 98.2066 90.7571 97.0955 90.9094C95.9844 91.04 92.9344 92.4113 90.2548 92.629C87.5751 92.8684 82.5644 93.8697 76.6387 89.7993C76.6169 89.7776 91.0608 85.0542 99.1433 89.9735Z" fill="#F0F4F8"/>
<path d="M86.2047 88.0799C85.8997 87.7969 85.6165 87.5575 85.3115 87.318C83.1765 87.4922 81.1722 87.7969 79.4512 88.1452C79.669 89.4729 80.6494 91.1054 82.1744 92.5202C82.2833 92.6291 82.3922 92.7161 82.523 92.8032C85.2026 93.1297 87.403 92.8032 88.9715 92.6508C88.7972 91.3231 87.8169 89.5818 86.2047 88.0799Z" fill="#009CD8"/>
<path d="M99.8418 90.2347C99.8418 90.2347 90.0164 85.2719 78.0561 89.6253C73.5464 91.2577 67.9039 89.1464 66.3789 86.3603C66.3789 86.3603 67.6643 86.8609 69.6468 87.1656C72.2393 87.5574 74.8753 87.1874 77.3153 86.2514C81.106 84.7931 91.89 83.4871 99.8418 90.2347Z" fill="#443122"/>
<path d="M121.694 89.7558L121.04 89.6252C118.622 89.1681 116.487 87.7315 115.18 85.6419C115.18 85.6419 116.334 87.2091 124.613 85.8813C137.924 83.7482 143.566 89.2769 143.566 89.2769C143.566 89.2769 134.003 87.9056 129.994 88.2321C126.007 88.5369 124.613 88.6022 121.694 89.7558Z" fill="#443122"/>
<path d="M119.797 91.976C119.797 91.976 120.973 91.4972 121.692 91.6713C122.411 91.8454 124.067 92.4767 124.067 92.4767" stroke="#443122" stroke-width="0.61798" stroke-miterlimit="10" stroke-linecap="round"/>
<path d="M146.922 78.9161C139.689 75.3029 139.71 73.888 129.711 76.0647C121.28 77.9366 116.247 80.1133 117.097 73.0174C117.38 70.6013 127.532 70.2095 133.48 69.3606C138.12 68.0546 147.858 75.0852 146.922 78.9161Z" fill="url(#paint5_linear_476_5212)"/>
<g opacity="0.37">
<path opacity="0.37" d="M105.637 103.251C106.444 103.251 107.097 102.598 107.097 101.793C107.097 100.987 106.444 100.334 105.637 100.334C104.831 100.334 104.178 100.987 104.178 101.793C104.178 102.598 104.831 103.251 105.637 103.251Z" fill="#F49C95"/>
<path opacity="0.37" d="M93.6124 101.793C94.3584 101.793 94.9631 101.189 94.9631 100.443C94.9631 99.6979 94.3584 99.0937 93.6124 99.0937C92.8665 99.0937 92.2617 99.6979 92.2617 100.443C92.2617 101.189 92.8665 101.793 93.6124 101.793Z" fill="#F49C95"/>
<path opacity="0.37" d="M92.9581 146.109C93.7041 146.109 94.3088 145.505 94.3088 144.76C94.3088 144.015 93.7041 143.41 92.9581 143.41C92.2122 143.41 91.6074 144.015 91.6074 144.76C91.6074 145.505 92.2122 146.109 92.9581 146.109Z" fill="#F49C95"/>
<path opacity="0.37" d="M99.4491 67.1404C100.147 67.1404 100.713 66.5751 100.713 65.8779C100.713 65.1807 100.147 64.6154 99.4491 64.6154C98.7513 64.6154 98.1855 65.1807 98.1855 65.8779C98.1855 66.5751 98.7513 67.1404 99.4491 67.1404Z" fill="#F49C95"/>
<path opacity="0.37" d="M80.8019 60.9151C81.8607 60.9151 82.7191 60.0575 82.7191 58.9997C82.7191 57.9418 81.8607 57.0842 80.8019 57.0842C79.7431 57.0842 78.8848 57.9418 78.8848 58.9997C78.8848 60.0575 79.7431 60.9151 80.8019 60.9151Z" fill="#F49C95"/>
<path opacity="0.37" d="M94.9643 50.5324C95.7223 50.5324 96.3368 49.9185 96.3368 49.1611C96.3368 48.4038 95.7223 47.7899 94.9643 47.7899C94.2063 47.7899 93.5918 48.4038 93.5918 49.1611C93.5918 49.9185 94.2063 50.5324 94.9643 50.5324Z" fill="#F49C95"/>
</g>
<path d="M74.6346 114.766C76.1867 114.766 77.4449 113.508 77.4449 111.958C77.4449 110.407 76.1867 109.15 74.6346 109.15C73.0825 109.15 71.8242 110.407 71.8242 111.958C71.8242 113.508 73.0825 114.766 74.6346 114.766Z" fill="#F49C95"/>
<path d="M77.4471 125.039C78.9992 125.039 80.2574 123.782 80.2574 122.232C80.2574 120.681 78.9992 119.424 77.4471 119.424C75.895 119.424 74.6367 120.681 74.6367 122.232C74.6367 123.782 75.895 125.039 77.4471 125.039Z" fill="#F49C95"/>
<path opacity="0.56" d="M111.213 118.792C112.324 121.426 109.252 121.731 107.858 121.557C106.463 121.383 104.089 120.708 105.701 118.313C106.616 116.964 107.204 115.527 108.598 115.701C109.993 115.876 110.581 117.29 111.213 118.792Z" fill="#F9CCA7"/>
<path opacity="0.1" d="M143.913 116.442C148.245 116.442 151.756 112.933 151.756 108.606C151.756 104.278 148.245 100.77 143.913 100.77C139.582 100.77 136.07 104.278 136.07 108.606C136.07 112.933 139.582 116.442 143.913 116.442Z" fill="#F49C95"/>
<path d="M142.15 54.1458C142.15 54.1458 130.517 41.4559 110.757 42.9578C109.275 43.0666 108.143 44.3073 108.143 45.7875V97.8313C108.143 99.2461 109.254 100.421 110.67 100.509C113.829 100.683 119.057 101.466 121.127 104.644C123.545 108.388 123.785 113.198 120.364 115.549C119.297 116.289 117.99 116.638 116.683 116.638H111.498C110.8 116.638 110.234 117.203 110.234 117.9C110.234 118.64 110.866 119.097 111.607 119.162C115.55 119.467 122.935 118.488 129.471 124.321C132.02 126.585 131.649 128.936 130.887 131.025C130.865 131.112 127.053 138.056 113.48 138.295C111.628 138.339 110.278 140.08 110.278 141.93V159.409C123.044 159.953 134.503 151.921 141.605 139.558C150.298 124.452 154.96 102.38 155.832 88.2322C155.875 87.6445 155.897 87.0568 155.919 86.4691C154.328 77.1313 150.385 59.9793 142.15 54.1458ZM135.244 102.816C125.593 102.816 112.151 93.3256 112.151 79.5909C112.151 70.2531 125.593 69.0559 135.244 69.0559C144.895 69.0559 152.716 76.6089 152.716 85.9467C152.716 95.2846 144.895 102.816 135.244 102.816Z" fill="url(#paint6_linear_476_5212)"/>
<path d="M82.8922 227.495C80.6482 226.515 79.2975 224.208 79.5372 221.792C80.2779 214.282 81.8464 198.044 81.8464 194.061C81.8464 188.859 80.8879 178.912 86.2689 172.752C86.2689 172.752 89.2754 152.378 119.144 143.389L124.133 141.538C124.133 141.538 127.836 135.357 134.263 133.768C134.263 133.768 136.725 127.978 139.317 124.386C139.317 124.386 140.668 113.764 144.371 109.585C144.371 109.585 144.611 99.0937 150.559 98.593C150.559 98.593 152.389 93.2385 156.789 92.5855C156.789 92.5855 158.99 91.8019 160.536 92.5855L159.643 103.665C159.643 103.665 158.227 112.698 159.513 116.05L159.905 120.294C159.905 120.294 159.011 107.648 166.353 106.625L167.508 106.755L165.569 119.772C165.569 119.772 164.785 131.635 165.438 134.094C165.438 134.094 163.761 137.185 158.598 145.065C153.434 152.922 149.949 162.217 149.949 162.217C149.949 162.217 148.271 164.676 144.132 165.308C139.993 165.961 114.329 178.585 109.667 184.897C109.667 184.897 106.443 187.858 106.05 195.084C105.658 202.311 115.113 226.95 115.113 226.95C115.113 226.95 99.5147 234.721 82.8922 227.495Z" fill="url(#paint7_linear_476_5212)" stroke="#EAB892" stroke-width="0.30899" stroke-miterlimit="10"/>
<path d="M98.6655 105.471C98.6655 105.471 103.153 100.857 103.371 99.1154L104.155 90.8877C103.654 84.423 103.371 80.1568 98.0119 77.0877C96.1165 76.0211 94.4173 75.564 93.5894 75.6946C90.3869 76.1952 97.0315 82.2246 98.6655 85.6202C99.4062 87.1438 99.6894 88.8416 99.5369 90.5394L98.6655 105.471Z" fill="url(#paint8_linear_476_5212)"/>
<path d="M69.5594 122.014C70.5834 121.579 71.2805 120.577 71.2805 119.424C71.2805 117.856 70.0169 116.616 68.4701 116.616C68.1869 116.616 67.9255 116.659 67.6641 116.725C68.2305 118.509 68.8841 120.294 69.5594 122.014Z" fill="#F49C95"/>
<path d="M81.4551 92.0631C81.4551 92.0631 86.8797 94.1091 94.178 91.6713C94.178 91.6713 87.359 95.0669 81.9344 93.2385C76.5097 91.4101 81.4551 92.0631 81.4551 92.0631Z" fill="#443122"/>
<path d="M85.8075 91.8391C86.4115 91.2355 86.2115 90.0572 85.3607 89.2072C84.51 88.3572 83.3306 88.1573 82.7265 88.7608C82.1225 89.3644 82.3225 90.5427 83.1733 91.3927C84.0241 92.2427 85.2034 92.4426 85.8075 91.8391Z" fill="#443122"/>
<path d="M129.643 92.1921C130.247 91.5885 130.047 90.4102 129.197 89.5602C128.346 88.7102 127.167 88.5103 126.562 89.1138C125.958 89.7174 126.158 90.8957 127.009 91.7457C127.86 92.5958 129.039 92.7956 129.643 92.1921Z" fill="#443122"/>
<path d="M109.71 184.876C114.351 178.563 140.036 165.917 144.175 165.286C148.315 164.633 149.992 162.195 149.992 162.195C149.992 162.195 153.478 152.901 158.641 145.043C163.804 137.185 165.482 134.072 165.482 134.072C164.828 131.613 165.613 119.75 165.613 119.75L167.551 106.734L166.397 106.603C159.033 107.626 159.948 120.272 159.948 120.272L159.752 118.052C159.73 121.753 158.946 125.496 158.772 128.043C158.576 130.96 151.016 146.088 147.095 153.728C145.635 156.579 143.26 158.865 140.341 160.214L128.076 165.873C94.1772 181.197 101.65 205.423 101.475 210.843C101.323 215.61 101.475 221.835 100.713 230.847C105.114 229.78 115.135 226.929 115.135 226.929C115.135 226.929 105.68 202.289 106.072 195.062C106.486 187.836 109.71 184.876 109.71 184.876Z" fill="#EAB892"/>
<path d="M150.58 98.5713H152.715L151.757 108.78L149.753 125.039L144.764 138.099" stroke="#EAB892" stroke-width="0.31835" stroke-miterlimit="10" stroke-linecap="round" stroke-linejoin="round"/>
<path d="M158.336 92.4766C157.77 94.1744 157.421 95.9375 157.29 97.7441L157.203 99.0719C157.203 99.0719 157.334 101.88 159.948 100.291L160.536 92.5855L158.336 92.4766Z" fill="#FCF3E6"/>
<path d="M131.32 91.4318C132.078 91.4318 132.692 90.8178 132.692 90.0605C132.692 89.3031 132.078 88.6892 131.32 88.6892C130.562 88.6892 129.947 89.3031 129.947 90.0605C129.947 90.8178 130.562 91.4318 131.32 91.4318Z" fill="white"/>
<path d="M86.9682 90.6483C87.7262 90.6483 88.3407 90.0343 88.3407 89.277C88.3407 88.5196 87.7262 87.9057 86.9682 87.9057C86.2102 87.9057 85.5957 88.5196 85.5957 89.277C85.5957 90.0343 86.2102 90.6483 86.9682 90.6483Z" fill="white"/>
<path d="M71.3017 77.9584C81.2795 72.9956 78.8177 73.4091 88.6649 76.1953C96.9652 78.6114 101.845 81.0927 101.453 73.9533C101.322 71.5155 91.2138 70.4924 85.3317 69.2735C80.7785 67.6845 70.6045 74.0839 71.3017 77.9584Z" fill="url(#paint9_linear_476_5212)"/>
<path d="M117.901 113.285C117.901 113.285 121.322 110.151 116.986 105.667" stroke="#AB8360" stroke-width="0.285006" stroke-miterlimit="10" stroke-linecap="round" stroke-linejoin="round"/>
<path d="M98.7072 113.285C98.7072 113.285 95.2869 110.151 99.6222 105.667" stroke="#AB8360" stroke-width="0.285006" stroke-miterlimit="10" stroke-linecap="round" stroke-linejoin="round"/>
<path d="M187.442 26.1322L195.198 29.4842L187.159 28.8313C182.976 28.483 179.055 30.8991 177.465 34.7735L174.415 42.2177L174.937 33.794C175.199 29.7454 172.868 25.9798 169.142 24.3691L161.387 21.0171L169.426 21.6701C173.608 22.0183 177.53 19.6022 179.12 15.7278L182.17 8.28363L181.647 16.7073C181.408 20.7559 183.717 24.5215 187.442 26.1322Z" fill="#FFD066"/>
<path d="M136.229 40.4329L141.371 38.844L137.21 41.8478C135.031 43.415 134.138 46.2011 134.966 48.7478L136.578 53.6235L133.332 49.3355C131.785 47.2676 129.084 46.397 126.622 47.1588L121.48 48.7478L125.642 45.744C127.82 44.1768 128.713 41.3907 127.885 38.844L126.273 33.9683L129.519 38.2563C131.066 40.3241 133.746 41.1948 136.229 40.4329Z" fill="#FFD066"/>
<path d="M185.227 115.353L188.93 119.249L184.377 116.855C182.002 115.614 179.105 116.028 177.21 117.922L173.55 121.535L175.968 116.725C177.122 114.417 176.708 111.631 174.944 109.737L171.24 105.841L175.793 108.236C178.168 109.476 181.066 109.063 182.961 107.169L186.621 103.556L184.203 108.366C183.026 110.695 183.44 113.481 185.227 115.353Z" fill="#FFD066"/>
<path d="M151.954 105.341C151.954 105.341 149.209 105.776 149.558 102.838C149.928 99.8991 150.582 98.5714 150.582 98.5714H152.717L151.954 105.341Z" fill="#FCF3E6"/>
<path d="M106.162 39.1923L109.147 13.5295H110.868V40.5853L106.162 39.1923Z" fill="#FEE2CC"/>
<path d="M36.9921 219.942C36.9921 219.942 37.1664 221.465 37.101 222.205L36.4692 224.578C36.4475 225.405 37.1446 226.08 37.9725 226.036L39.8025 225.775C40.6303 225.666 41.4582 225.688 42.2642 225.862C43.615 226.145 45.7064 226.559 46.6214 226.493L49.1485 226.319C49.606 226.319 49.7367 225.71 49.3228 225.514C48.6692 225.209 47.7107 225.122 46.4471 224.513C45.0746 223.838 43.3753 222.641 42.3732 222.053C40.8917 221.161 40.5867 219.245 40.0421 218.57C39.0182 217.286 36.9921 219.724 36.9921 219.942Z" fill="#DE97FF"/>
<path d="M21.6316 220.747C21.6316 220.747 19.9541 225.231 20.2373 225.906C20.5205 226.581 20.6294 227.756 22.8734 227.538C25.1173 227.321 25.7491 225.471 25.7491 225.471C25.7491 225.471 25.2044 222.946 25.248 222.097C25.2916 221.248 25.2916 220.747 25.2916 220.747H21.6316Z" fill="#DE97FF"/>
<path d="M21.6094 205.859H41.4344L37.7962 168.921H32.5676L21.6094 205.859Z" fill="url(#paint10_linear_476_5212)"/>
<path d="M28.7112 136.184C29.8658 139.71 28.0141 143.737 24.9858 145.892C24.2233 146.436 23.3737 146.893 22.4369 147.133C19.7355 147.829 16.9469 146.545 14.5723 145.087C17.2737 145.021 19.8662 143.258 20.9337 140.755C21.2823 139.906 21.4783 138.992 21.8705 138.165C22.938 135.879 25.5958 134.421 28.1012 134.769C28.5151 135.248 28.5151 135.575 28.7112 136.184Z" fill="url(#paint11_linear_476_5212)"/>
<path d="M33.4584 124.474C33.4584 124.474 33.2405 119.402 27.6416 120.73C27.6416 120.73 23.6548 120.948 22.6745 124.474C21.6941 128 22.0427 133.812 27.3366 135.509C27.3148 135.509 32.9355 135.705 33.4584 124.474Z" fill="url(#paint12_linear_476_5212)"/>
<path d="M54.2226 140.45L49.1465 135.705L55.399 129.001L60.4968 133.724L54.2226 140.45Z" fill="url(#paint13_linear_476_5212)"/>
<path d="M33.1999 130.242C33.1999 130.242 33.0256 132.484 33.0909 133.246C33.1563 134.007 32.6117 136.424 35.2259 136.424C35.2259 136.424 33.9406 140.08 31.7402 139.558C29.5399 139.057 28.2109 136.859 28.2109 136.859L28.6249 128.653L33.1999 130.242Z" fill="#FCD0B1"/>
<path d="M40.5208 137.164L51.3701 142.518L57.6661 138.513C57.6661 138.513 56.6858 143.476 56.054 145.631C55.3133 148.177 54.834 148.656 53.8319 149.658C51.9801 151.508 43.5926 148.069 43.5926 148.069C43.7669 149.396 44.1154 158.212 44.769 164.851C46.4465 181.894 49.1915 205.881 49.1915 205.881H42.9608C42.9608 205.881 42.3508 187.444 41.5229 175.473C40.499 160.584 35.2051 136.445 35.2051 136.445C35.2051 136.445 38.0372 135.923 40.5208 137.164Z" fill="url(#paint14_linear_476_5212)"/>
<path opacity="0.21" d="M85.9911 129.854C93.5971 122.255 93.5971 109.934 85.9911 102.335C78.3852 94.7358 66.0535 94.7358 58.4476 102.335C50.8416 109.934 50.8416 122.255 58.4476 129.854C66.0535 137.454 78.3852 137.454 85.9911 129.854Z" fill="white"/>
<path opacity="0.76" d="M70.278 100.901C70.2562 100.226 70.7791 99.6599 71.4544 99.6381C81.2798 99.2899 89.5366 106.995 89.9069 116.79C89.9287 117.465 89.4059 118.031 88.7305 118.053C88.0551 118.074 87.4887 117.552 87.4669 116.877C87.1619 108.432 80.038 101.793 71.5634 102.098C70.8662 102.12 70.2998 101.575 70.278 100.901Z" fill="white"/>
<path opacity="0.58" d="M52.1319 116.812C51.7398 105.754 60.4323 96.4383 71.4994 96.0248C82.5665 95.633 91.8908 104.318 92.3048 115.375C92.6969 126.433 84.0044 135.749 72.9373 136.162C61.8701 136.554 52.5458 127.869 52.1319 116.812ZM91.063 115.419C90.6926 105.036 81.9348 96.8954 71.543 97.2655C61.1512 97.6355 53.0033 106.386 53.3737 116.768C53.744 127.151 62.5019 135.292 72.8937 134.922C83.2855 134.552 91.4333 125.801 91.063 115.419Z" fill="#485793"/>
<path d="M95.2437 115.266C94.7862 102.577 84.0894 92.6292 71.4101 93.0863C58.709 93.5434 48.753 104.231 49.2105 116.899C49.3848 122.014 51.2148 126.781 54.4608 130.721L58.709 134.682C58.7308 134.704 58.7308 134.704 58.7526 134.747L58.818 134.813C63.0008 137.795 67.9026 139.297 73.044 139.101C85.7451 138.644 95.7012 127.956 95.2437 115.266ZM72.9133 135.226C62.3473 135.596 53.4587 127.325 53.0665 116.768C52.6962 106.212 60.9748 97.3308 71.5408 96.939C82.1069 96.5689 90.9955 104.84 91.3876 115.397C91.758 125.954 83.4576 134.856 72.9133 135.226Z" fill="url(#paint15_linear_476_5212)"/>
<path d="M28.1895 136.337C28.1895 136.337 30.673 140.168 33.723 138.491C33.723 138.491 35.052 137.73 35.2262 136.424L38.5595 144.608L40.4548 165.395C40.4548 165.395 34.7687 167.615 31.7187 166.331L28.1895 136.337Z" fill="url(#paint16_linear_476_5212)"/>
<path d="M30.1713 122.188C30.1713 122.188 32.241 122.493 32.851 124.496C32.851 124.496 33.3303 125.584 34.2453 125.867L34.7681 126.084C34.8988 126.15 34.986 126.302 34.9206 126.433C34.8553 126.629 34.7463 126.89 34.5503 127.064C34.5503 127.064 34.6156 127.434 34.877 127.499C35.1167 127.543 34.9642 128.022 34.9642 128.022C34.9642 128.022 35.3563 128.109 35.2474 128.414C35.2474 128.414 35.0949 128.588 35.1603 128.718C35.2256 128.849 35.3128 129.067 35.487 129.154C35.6613 129.241 36.1842 129.654 35.7485 130.09C35.3345 130.525 31.8924 131.853 31.2388 131.657C30.0842 131.308 29.8228 130.046 29.1038 129.763C29.1038 129.763 28.581 130.46 27.6224 130.198C26.8599 129.981 26.0756 128.501 27.056 127.978C28.0363 127.456 28.9295 128.435 28.9295 128.435C28.9295 128.435 29.9535 125.301 30.1713 122.188Z" fill="#FEE2CC"/>
<path d="M31.7371 128.93C32.0615 128.915 32.3147 128.697 32.3025 128.445C32.2904 128.193 32.0174 128.001 31.693 128.017C31.3685 128.033 31.1153 128.25 31.1275 128.502C31.1397 128.754 31.4126 128.946 31.7371 128.93Z" fill="#EAB892"/>
<path d="M34.9437 127.499C34.9437 127.499 34.6823 127.478 34.5298 127.891C34.4426 128.131 34.2248 128.283 33.7891 128.74C33.7891 128.74 34.7476 128.392 34.9655 128.043C34.9655 128.022 35.1833 127.695 34.9437 127.499Z" fill="#E28883"/>
<path d="M21.6087 205.271L19.2559 222.205C19.2559 222.205 26.5759 221.814 32.1748 222.205C32.1748 222.205 31.238 185.115 33.0898 175.538C33.1334 175.342 33.5691 175.277 33.5691 175.494L34.8544 193.191C34.8544 193.191 33.3948 217.025 33.5255 222.837L43.7648 221.814L42.3705 183.57L40.4316 165.395C40.4316 165.395 34.6801 167.463 28.3623 165.308L21.6087 205.271Z" fill="url(#paint17_linear_476_5212)"/>
<path d="M35.2254 128.479C35.2036 128.544 35.1383 128.588 35.0729 128.609C34.9422 128.675 34.7026 128.74 34.5501 128.74C34.3322 128.74 33.8965 128.675 33.8965 128.675L34.9422 128.022C34.964 128.022 35.3997 128.043 35.2254 128.479Z" fill="#F49C95"/>
<path d="M32.4592 125.301C32.372 125.627 32.1977 125.91 32.0452 126.215C31.8927 126.52 31.762 126.825 31.7402 127.151C32.1542 127.042 32.5681 126.89 32.9167 126.629" stroke="#C69024" stroke-width="0.142503" stroke-miterlimit="10"/>
<path d="M33.9828 143.149C33.6125 142.779 32.9807 142.823 32.5668 143.236C32.545 143.258 32.5232 143.28 32.5014 143.302C32.5014 143.28 32.5014 143.236 32.5014 143.215C32.436 142.627 31.9568 142.213 31.4557 142.257C30.9328 142.322 30.5843 142.823 30.6496 143.411C30.6496 143.432 30.6496 143.476 30.6714 143.498C30.6496 143.476 30.6278 143.454 30.5843 143.432C30.0832 143.128 29.4732 143.215 29.19 143.672C28.9068 144.107 29.081 144.717 29.5821 145.021C29.6039 145.043 29.6257 145.043 29.6693 145.065C29.6475 145.065 29.6039 145.087 29.5821 145.087C29.0375 145.282 28.7107 145.827 28.885 146.327C29.0593 146.806 29.6475 147.067 30.1921 146.871C30.2139 146.871 30.2575 146.85 30.2793 146.828C30.2575 146.85 30.2575 146.893 30.2357 146.915C30.0396 147.459 30.2793 148.047 30.7803 148.221C31.2596 148.395 31.826 148.09 32.0221 147.524C32.0221 147.503 32.0439 147.459 32.0439 147.437C32.0657 147.459 32.0657 147.503 32.0875 147.524C32.3925 148.025 33.0025 148.199 33.4382 147.916C33.8739 147.633 33.9828 147.024 33.6778 146.523C33.656 146.501 33.6343 146.48 33.6125 146.436C33.6343 146.436 33.6778 146.458 33.6996 146.458C34.2878 146.523 34.8107 146.153 34.8543 145.653C34.9196 145.13 34.4839 144.673 33.8957 144.608C33.8739 144.608 33.8303 144.608 33.8085 144.608C33.8303 144.586 33.8521 144.564 33.8739 144.542C34.3096 144.151 34.3532 143.519 33.9828 143.149Z" fill="#FFD066"/>
<path d="M32.3487 125.562C32.2834 125.475 32.218 125.41 32.1527 125.344C31.8259 125.801 31.6298 126.324 31.5645 126.868" stroke="#C69024" stroke-width="0.142503" stroke-miterlimit="10"/>
<path d="M25.901 158.8L18.5156 205.859H32.6328L33.9181 161.085L25.901 158.8Z" fill="url(#paint18_linear_476_5212)"/>
<path d="M32.2617 125.714C32.1746 125.845 32.0874 125.997 32.0221 126.128C32.0003 126.15 32.0003 126.171 31.9785 126.193C31.9785 126.237 31.9785 126.258 32.0003 126.302C32.0657 126.563 32.2835 126.737 32.4578 126.672C32.6321 126.629 32.7192 126.367 32.6539 126.106C32.5885 125.888 32.436 125.736 32.2617 125.714Z" fill="#C69024"/>
<path d="M32.3281 125.649C32.5896 125.867 32.8074 126.302 32.8074 126.716" stroke="#C69024" stroke-width="0.142503" stroke-miterlimit="10"/>
<path d="M31.8033 124.865C31.934 124.778 32.0865 124.713 32.1519 124.561C32.2173 124.408 32.1519 124.213 31.9994 124.191C31.934 124.191 31.8687 124.212 31.8033 124.234C31.5201 124.387 31.2587 124.583 31.019 124.822C30.823 125.018 30.518 125.366 30.4526 125.649C30.3873 125.976 30.7794 125.649 30.8883 125.562C31.1933 125.301 31.4765 125.061 31.8033 124.865Z" fill="#EAB892"/>
<path d="M16.1408 177.105L15.2911 176.322C14.1147 175.233 14.0494 173.383 15.1386 172.229L49.1461 135.727L54.244 140.472L20.2365 176.975C19.1472 178.128 17.3172 178.194 16.1408 177.105Z" fill="url(#paint19_linear_476_5212)"/>
<path d="M28.1873 136.336C28.1873 136.336 22.9587 139.928 22.2398 141.909C21.5208 143.889 21.7387 157.036 23.4162 158.821C25.0937 160.606 37.3808 161.999 40.518 160.563L39.8644 153.793L33.394 153.401L30.9758 138.818C30.9758 138.796 28.8844 137.621 28.1873 136.336Z" fill="url(#paint20_linear_476_5212)"/>
<path d="M39.8652 153.772C39.8652 153.772 41.2595 153.293 41.1724 152.553C41.0852 151.834 41.717 149.745 41.4774 149.309C41.4774 149.309 41.9131 148.352 42.6756 149.658C42.6756 149.658 42.6538 151.203 42.937 151.16C43.2202 151.116 45.6602 149.701 45.6602 149.701L47.207 148.047C47.207 148.047 47.4249 149.571 47.207 150.049C46.9892 150.528 44.8759 153.75 44.8759 153.75C44.8759 153.75 43.3292 155.186 42.0002 155.926C40.9763 156.471 40.1702 156.862 40.1702 156.862L39.8652 153.772Z" fill="#FCD0B1"/>
<path d="M50.8242 144.76L53.3514 137.164L58.1442 135.792L57.6867 138.796L57.3817 140.276L56.3578 144.477" fill="url(#paint21_linear_476_5212)"/>
<path d="M54.0911 136.946V135.858L52.4354 133.398L51.0629 133.637C51.0629 133.637 50.6489 133.42 51.0629 132.854C51.0629 132.854 51.1282 131.657 51.7818 131.396C51.7818 131.396 51.9561 130.242 52.4789 130.242C53.0018 130.242 55.4418 130.394 55.4418 130.394C55.4418 130.394 56.7707 131.94 57.4243 133.072C57.4243 133.072 57.4025 134.617 57.1193 136.075L54.0911 136.946Z" fill="#FCD0B1"/>
<path d="M33.9182 153.336L29.2778 152.966L28.8203 147.633" stroke="#009CD8" stroke-width="0.306738" stroke-miterlimit="10"/>
<path opacity="0.4" d="M57.5586 126.346C58.2775 127.347 59.1054 128.283 60.0422 129.154C61.3275 130.351 62.7218 131.308 64.2032 132.07L88.4507 106.059C87.5793 104.644 86.5118 103.317 85.2482 102.119C84.3115 101.249 83.3093 100.487 82.2636 99.8558L57.5586 126.346Z" fill="white"/>
<path d="M165.255 139.128C164.984 139.195 164.803 138.857 164.736 138.609C164.623 138.18 164.487 137.751 164.532 137.3C164.578 136.849 164.803 136.398 165.232 136.24" stroke="#EAB892" stroke-width="0.303182" stroke-miterlimit="10"/>
<path d="M142.492 155.147C142.853 155.598 143.192 156.072 143.554 156.523" stroke="#EAB892" stroke-width="0.303182" stroke-miterlimit="10"/>
</g>
<defs>
<linearGradient id="paint0_linear_476_5212" x1="108.145" y1="21.3046" x2="108.145" y2="109.321" gradientUnits="userSpaceOnUse">
<stop stop-color="#A37624"/>
<stop offset="0.444" stop-color="#AB8360"/>
<stop offset="1" stop-color="#F9CCA7"/>
</linearGradient>
<linearGradient id="paint1_linear_476_5212" x1="110.703" y1="146.334" x2="110.703" y2="200.389" gradientUnits="userSpaceOnUse">
<stop offset="0.2953" stop-color="#EAB892"/>
<stop offset="0.8139" stop-color="#F9CCA7"/>
<stop offset="0.8399" stop-color="#FEE2CC"/>
</linearGradient>
<linearGradient id="paint2_linear_476_5212" x1="109.11" y1="136.268" x2="109.11" y2="145.077" gradientUnits="userSpaceOnUse">
<stop offset="0.1508" stop-color="#EAB892"/>
<stop offset="0.3789" stop-color="#F9CCA7"/>
<stop offset="0.8399" stop-color="#FEE2CC"/>
</linearGradient>
<linearGradient id="paint3_linear_476_5212" x1="76.523" y1="85.2028" x2="96.6583" y2="85.2028" gradientUnits="userSpaceOnUse">
<stop offset="0.1508" stop-color="#EAB892"/>
<stop offset="0.3789" stop-color="#F9CCA7"/>
<stop offset="0.8399" stop-color="#FEE2CC"/>
</linearGradient>
<linearGradient id="paint4_linear_476_5212" x1="121.995" y1="85.2829" x2="143.559" y2="85.2829" gradientUnits="userSpaceOnUse">
<stop offset="0.1508" stop-color="#EAB892"/>
<stop offset="0.3789" stop-color="#F9CCA7"/>
<stop offset="0.8399" stop-color="#FEE2CC"/>
</linearGradient>
<linearGradient id="paint5_linear_476_5212" x1="162.741" y1="75.7286" x2="114.112" y2="72.7334" gradientUnits="userSpaceOnUse">
<stop stop-color="#A37624"/>
<stop offset="0.444" stop-color="#AB8360"/>
<stop offset="1" stop-color="#F9CCA7"/>
</linearGradient>
<linearGradient id="paint6_linear_476_5212" x1="120.348" y1="98.0209" x2="234.325" y2="-33.6358" gradientUnits="userSpaceOnUse">
<stop stop-color="white"/>
<stop offset="0.5415" stop-color="#BEF5FF"/>
</linearGradient>
<linearGradient id="paint7_linear_476_5212" x1="142.399" y1="183.619" x2="108.802" y2="145.854" gradientUnits="userSpaceOnUse">
<stop offset="0.1508" stop-color="#EAB892"/>
<stop offset="0.3789" stop-color="#F9CCA7"/>
<stop offset="0.8399" stop-color="#FEE2CC"/>
</linearGradient>
<linearGradient id="paint8_linear_476_5212" x1="105.409" y1="88.9939" x2="93.3642" y2="91.0488" gradientUnits="userSpaceOnUse">
<stop offset="0.1508" stop-color="#EAB892"/>
<stop offset="0.3789" stop-color="#F9CCA7"/>
<stop offset="0.8399" stop-color="#FEE2CC"/>
</linearGradient>
<linearGradient id="paint9_linear_476_5212" x1="71.2781" y1="73.846" x2="101.48" y2="73.846" gradientUnits="userSpaceOnUse">
<stop stop-color="#A37624"/>
<stop offset="0.444" stop-color="#AB8360"/>
<stop offset="1" stop-color="#F9CCA7"/>
</linearGradient>
<linearGradient id="paint10_linear_476_5212" x1="21.5995" y1="187.386" x2="41.4426" y2="187.386" gradientUnits="userSpaceOnUse">
<stop offset="0.1145" stop-color="#0088C3"/>
<stop offset="0.2945" stop-color="#0085C0"/>
<stop offset="0.4483" stop-color="#027DB5"/>
<stop offset="0.5925" stop-color="#046EA3"/>
<stop offset="0.7309" stop-color="#075A8B"/>
<stop offset="0.8652" stop-color="#0A406B"/>
<stop offset="0.9946" stop-color="#0F2044"/>
<stop offset="1" stop-color="#0F1F42"/>
</linearGradient>
<linearGradient id="paint11_linear_476_5212" x1="14.5846" y1="141.021" x2="29.051" y2="141.021" gradientUnits="userSpaceOnUse">
<stop stop-color="#F97803"/>
<stop offset="0.2289" stop-color="#F97B06"/>
<stop offset="0.4238" stop-color="#FA8411"/>
<stop offset="0.6062" stop-color="#FB9422"/>
<stop offset="0.7811" stop-color="#FCAA3B"/>
<stop offset="0.9491" stop-color="#FEC65B"/>
<stop offset="1" stop-color="#FFD066"/>
</linearGradient>
<linearGradient id="paint12_linear_476_5212" x1="22.2379" y1="128.014" x2="33.4651" y2="128.014" gradientUnits="userSpaceOnUse">
<stop stop-color="#F97803"/>
<stop offset="0.2289" stop-color="#F97B06"/>
<stop offset="0.4238" stop-color="#FA8411"/>
<stop offset="0.6062" stop-color="#FB9422"/>
<stop offset="0.7811" stop-color="#FCAA3B"/>
<stop offset="0.9491" stop-color="#FEC65B"/>
<stop offset="1" stop-color="#FFD066"/>
</linearGradient>
<linearGradient id="paint13_linear_476_5212" x1="49.1393" y1="134.721" x2="60.493" y2="134.721" gradientUnits="userSpaceOnUse">
<stop offset="0.1145" stop-color="#0088C3"/>
<stop offset="0.2945" stop-color="#0085C0"/>
<stop offset="0.4483" stop-color="#027DB5"/>
<stop offset="0.5925" stop-color="#046EA3"/>
<stop offset="0.7309" stop-color="#075A8B"/>
<stop offset="0.8652" stop-color="#0A406B"/>
<stop offset="0.9946" stop-color="#0F2044"/>
<stop offset="1" stop-color="#0F1F42"/>
</linearGradient>
<linearGradient id="paint14_linear_476_5212" x1="42.7542" y1="131.271" x2="60.0418" y2="225.013" gradientUnits="userSpaceOnUse">
<stop stop-color="white"/>
<stop offset="0.2704" stop-color="#BEF5FF"/>
<stop offset="0.5588" stop-color="#BCF4FE"/>
<stop offset="0.6627" stop-color="#B5F0FC"/>
<stop offset="0.7368" stop-color="#AAE9F9"/>
<stop offset="0.7967" stop-color="#99E0F3"/>
<stop offset="0.848" stop-color="#83D3EC"/>
<stop offset="0.8935" stop-color="#67C3E4"/>
<stop offset="0.9346" stop-color="#47B1D9"/>
<stop offset="0.9711" stop-color="#239CCE"/>
<stop offset="1" stop-color="#0088C3"/>
</linearGradient>
<linearGradient id="paint15_linear_476_5212" x1="49.1832" y1="116.09" x2="95.2567" y2="116.09" gradientUnits="userSpaceOnUse">
<stop offset="0.1145" stop-color="#0088C3"/>
<stop offset="0.2945" stop-color="#0085C0"/>
<stop offset="0.4483" stop-color="#027DB5"/>
<stop offset="0.5925" stop-color="#046EA3"/>
<stop offset="0.7309" stop-color="#075A8B"/>
<stop offset="0.8652" stop-color="#0A406B"/>
<stop offset="0.9946" stop-color="#0F2044"/>
<stop offset="1" stop-color="#0F1F42"/>
</linearGradient>
<linearGradient id="paint16_linear_476_5212" x1="36.2412" y1="139.399" x2="26.5871" y2="197.058" gradientUnits="userSpaceOnUse">
<stop offset="0.2519" stop-color="#DE97FF"/>
<stop offset="1" stop-color="#A827D8"/>
</linearGradient>
<linearGradient id="paint17_linear_476_5212" x1="19.2507" y1="194.067" x2="43.7777" y2="194.067" gradientUnits="userSpaceOnUse">
<stop offset="0.2519" stop-color="#DE97FF"/>
<stop offset="1" stop-color="#A827D8"/>
</linearGradient>
<linearGradient id="paint18_linear_476_5212" x1="21.3352" y1="138.525" x2="32.2763" y2="239.382" gradientUnits="userSpaceOnUse">
<stop stop-color="white"/>
<stop offset="0.2704" stop-color="#BEF5FF"/>
<stop offset="0.5588" stop-color="#BCF4FE"/>
<stop offset="0.6627" stop-color="#B5F0FC"/>
<stop offset="0.7368" stop-color="#AAE9F9"/>
<stop offset="0.7967" stop-color="#99E0F3"/>
<stop offset="0.848" stop-color="#83D3EC"/>
<stop offset="0.8935" stop-color="#67C3E4"/>
<stop offset="0.9346" stop-color="#47B1D9"/>
<stop offset="0.9711" stop-color="#239CCE"/>
<stop offset="1" stop-color="#0088C3"/>
</linearGradient>
<linearGradient id="paint19_linear_476_5212" x1="14.37" y1="156.809" x2="54.2542" y2="156.809" gradientUnits="userSpaceOnUse">
<stop offset="0.1145" stop-color="#0088C3"/>
<stop offset="0.2945" stop-color="#0085C0"/>
<stop offset="0.4483" stop-color="#027DB5"/>
<stop offset="0.5925" stop-color="#046EA3"/>
<stop offset="0.7309" stop-color="#075A8B"/>
<stop offset="0.8652" stop-color="#0A406B"/>
<stop offset="0.9946" stop-color="#0F2044"/>
<stop offset="1" stop-color="#0F1F42"/>
</linearGradient>
<linearGradient id="paint20_linear_476_5212" x1="29.2656" y1="137.665" x2="40.2067" y2="238.521" gradientUnits="userSpaceOnUse">
<stop stop-color="white"/>
<stop offset="0.2704" stop-color="#BEF5FF"/>
<stop offset="0.5588" stop-color="#BCF4FE"/>
<stop offset="0.6627" stop-color="#B5F0FC"/>
<stop offset="0.7368" stop-color="#AAE9F9"/>
<stop offset="0.7967" stop-color="#99E0F3"/>
<stop offset="0.848" stop-color="#83D3EC"/>
<stop offset="0.8935" stop-color="#67C3E4"/>
<stop offset="0.9346" stop-color="#47B1D9"/>
<stop offset="0.9711" stop-color="#239CCE"/>
<stop offset="1" stop-color="#0088C3"/>
</linearGradient>
<linearGradient id="paint21_linear_476_5212" x1="53.9103" y1="134.992" x2="64.8515" y2="235.848" gradientUnits="userSpaceOnUse">
<stop stop-color="white"/>
<stop offset="0.2704" stop-color="#BEF5FF"/>
<stop offset="0.5588" stop-color="#BCF4FE"/>
<stop offset="0.6627" stop-color="#B5F0FC"/>
<stop offset="0.7368" stop-color="#AAE9F9"/>
<stop offset="0.7967" stop-color="#99E0F3"/>
<stop offset="0.848" stop-color="#83D3EC"/>
<stop offset="0.8935" stop-color="#67C3E4"/>
<stop offset="0.9346" stop-color="#47B1D9"/>
<stop offset="0.9711" stop-color="#239CCE"/>
<stop offset="1" stop-color="#0088C3"/>
</linearGradient>
<clipPath id="clip0_476_5212">
<rect width="216" height="231" fill="white"/>
</clipPath>
</defs>
</svg>
