<svg width="614" height="465" viewBox="0 0 614 465" fill="none" xmlns="http://www.w3.org/2000/svg">
<path d="M542.5 -545L1085 465H0L542.5 -545Z" fill="#019DD8"/>
<path d="M542.5 -545L1085 465H0L542.5 -545Z" fill="url(#paint0_radial_1_3850)"/>
<circle cx="402.5" cy="211.5" r="193.5" fill="url(#paint1_radial_1_3850)"/>
<path d="M291.298 184.458C291.298 184.458 303.061 169.831 304.848 156.63C307.779 135.015 305.525 111.167 321.224 104.034C321.224 104.034 332.159 97.5725 341.852 99.5764C341.852 99.5764 357.972 84.3387 374.559 99.1879C387.598 110.862 405.767 136.863 404.912 174.177C404.912 174.177 385.022 191.119 360.487 194.322C329.306 198.391 296.116 192.596 291.303 184.458H291.298Z" fill="url(#paint2_linear_1_3850)"/>
<path d="M383.295 187.495C383.295 187.495 388.874 165.207 386.731 140.066" stroke="#F97803" stroke-width="0.437821" stroke-miterlimit="10"/>
<path d="M604.528 377.919C603.723 377.83 602.88 377.797 602.014 377.797C602.691 377.253 603.329 376.692 603.901 376.121C614.914 365.113 615.947 348.288 606.199 338.529C596.451 328.776 579.62 329.786 568.607 340.794C568.035 341.365 567.48 342.009 566.942 342.687C566.936 341.821 566.897 340.971 566.809 340.166C565.071 324.69 552.553 313.393 538.853 314.931C525.148 316.469 515.45 330.258 517.182 345.734C517.271 346.539 517.432 347.372 517.626 348.21C516.943 347.677 516.26 347.177 515.572 346.744C502.394 338.451 485.752 341.193 478.413 352.867C471.069 364.541 475.804 380.723 488.988 389.016C489.671 389.449 490.42 389.843 491.197 390.215C490.354 390.415 489.538 390.637 488.771 390.903C480.123 393.923 473.722 400.262 470.836 407.618H629.469C629.58 407.051 629.675 406.48 629.741 405.897C631.29 392.197 620.005 379.668 604.534 377.919H604.528Z" fill="url(#paint3_linear_1_3850)"/>
<path d="M261.221 263.527C251.473 253.774 234.643 254.784 223.629 265.792C223.057 266.363 222.502 267.007 221.964 267.685C221.958 266.819 221.919 265.969 221.831 265.164C220.093 249.688 207.575 238.392 193.875 239.929C180.17 241.467 170.472 255.256 172.204 270.732C172.293 271.537 172.454 272.37 172.648 273.208C171.965 272.675 171.283 272.175 170.594 271.742C157.416 263.449 140.774 266.191 133.435 277.865C126.091 289.539 130.826 305.721 144.01 314.014C144.693 314.447 145.442 314.841 146.219 315.213C145.376 315.413 144.56 315.635 143.794 315.901C129.094 321.036 120.862 335.752 125.414 348.775C129.96 361.792 145.564 368.181 160.269 363.047C161.035 362.78 161.812 362.441 162.59 362.064C162.218 362.847 161.885 363.629 161.618 364.395C156.467 379.089 162.845 394.699 175.857 399.262C188.868 403.825 203.595 395.609 208.747 380.91C209.013 380.144 209.235 379.328 209.424 378.484C209.807 379.261 210.207 380.011 210.64 380.693C218.916 393.883 235.098 398.629 246.777 391.296C258.457 383.963 261.216 367.332 252.933 354.143C252.5 353.454 252.001 352.777 251.462 352.1C252.306 352.289 253.144 352.438 253.949 352.533C269.42 354.281 283.22 344.595 284.774 330.889C286.323 317.189 275.038 304.66 259.567 302.912C258.762 302.823 257.918 302.79 257.052 302.79C257.729 302.246 258.368 301.685 258.94 301.113C269.953 290.105 270.985 273.28 261.238 263.521L261.221 263.527Z" fill="url(#paint4_linear_1_3850)"/>
<path d="M524.704 206.652H207.582C204.679 206.652 202.325 209.006 202.325 211.909V404.804C202.325 407.707 204.679 410.061 207.582 410.061H524.704C527.607 410.061 529.961 407.707 529.961 404.804V211.909C529.961 209.006 527.607 206.652 524.704 206.652Z" fill="white"/>
<path d="M529.05 404.293V212.42C529.05 209.759 526.893 207.602 524.231 207.602L208.053 207.602C205.392 207.602 203.235 209.759 203.235 212.42V404.293C203.235 406.954 205.392 409.111 208.053 409.111H524.231C526.893 409.111 529.05 406.954 529.05 404.293Z" fill="url(#paint5_linear_1_3850)"/>
<path d="M593.737 458.083H590.661V459.493L532.253 413.824C530.982 412.831 525.064 412.031 519.019 412.031H213.266C207.226 412.031 201.309 412.825 200.032 413.824L143.328 458.161H138.554V462.396C138.637 463.817 143.194 464.872 150.194 464.872H582.096C589.113 464.872 593.676 463.812 593.731 462.385H593.737V458.083Z" fill="url(#paint6_linear_1_3850)"/>
<path d="M582.095 460.586H150.199C141.661 460.586 136.748 459.021 139.169 457.128L200.036 409.533C201.307 408.54 207.225 407.74 213.27 407.74H519.024C525.069 407.74 530.981 408.534 532.257 409.533L593.125 457.128C595.545 459.021 590.627 460.586 582.095 460.586Z" fill="white"/>
<path d="M546.768 438.453H185.525C183.027 438.453 181.473 438.048 182.056 437.554L212.587 411.364C212.987 411.02 214.979 410.742 217.044 410.742H515.249C517.308 410.742 519.306 411.02 519.706 411.364L550.237 437.554C550.814 438.048 549.26 438.453 546.768 438.453Z" fill="#EDEDED"/>
<path d="M420.237 457.7H312.058C309.26 457.7 307.156 457.189 307.362 456.568L312.158 442.129C312.33 441.607 314.528 441.186 317.07 441.186H415.219C417.761 441.186 419.96 441.607 420.132 442.129L424.928 456.568C425.133 457.189 423.035 457.7 420.232 457.7H420.237Z" fill="#EDEDED"/>
<path d="M223.002 425.514H204.517C203.368 425.514 202.213 425.719 201.93 425.969L197.794 429.655C197.495 429.921 198.216 430.132 199.399 430.132H237.54C238.723 430.132 239.861 429.916 240.088 429.655L243.186 425.969C243.397 425.719 242.636 425.514 241.493 425.514H223.007H223.002Z" fill="url(#paint7_linear_1_3850)"/>
<path d="M264.951 430.132H248.026C246.843 430.132 246.027 429.949 246.205 429.727L249.269 425.897C249.436 425.686 250.507 425.514 251.651 425.514H268.06C269.209 425.514 270.025 425.686 269.886 425.897L267.366 429.727C267.216 429.949 266.139 430.132 264.957 430.132H264.951Z" fill="url(#paint8_linear_1_3850)"/>
<path d="M292.362 430.132H275.437C274.255 430.132 273.405 429.949 273.544 429.727L275.909 425.897C276.042 425.686 277.075 425.514 278.224 425.514H294.633C295.782 425.514 296.626 425.686 296.526 425.897L294.699 429.727C294.594 429.949 293.545 430.132 292.362 430.132Z" fill="url(#paint9_linear_1_3850)"/>
<path d="M319.779 430.134H302.854C301.671 430.134 300.789 429.951 300.889 429.729L302.554 425.899C302.648 425.688 303.647 425.516 304.797 425.516H321.206C322.355 425.516 323.232 425.688 323.171 425.899L322.044 429.729C321.977 429.951 320.967 430.134 319.784 430.134H319.779Z" fill="url(#paint10_linear_1_3850)"/>
<path d="M374.607 430.132H357.682C356.499 430.132 355.55 429.949 355.567 429.727L355.839 425.897C355.855 425.686 356.793 425.514 357.942 425.514H374.351C375.501 425.514 376.439 425.686 376.455 425.897L376.727 429.727C376.744 429.949 375.795 430.132 374.612 430.132H374.607Z" fill="url(#paint11_linear_1_3850)"/>
<path d="M347.196 430.132H330.271C329.088 430.132 328.172 429.949 328.233 429.727L329.199 425.897C329.255 425.686 330.226 425.514 331.375 425.514H347.784C348.933 425.514 349.844 425.686 349.816 425.897L349.389 429.727C349.366 429.949 348.384 430.132 347.201 430.132H347.196Z" fill="url(#paint12_linear_1_3850)"/>
<path d="M402.024 430.134H385.098C383.916 430.134 382.933 429.951 382.911 429.729L382.484 425.899C382.462 425.688 383.372 425.516 384.516 425.516H400.925C402.074 425.516 403.045 425.688 403.095 425.899L404.061 429.729C404.116 429.951 403.206 430.134 402.024 430.134Z" fill="url(#paint13_linear_1_3850)"/>
<path d="M429.439 430.134H412.514C411.332 430.134 410.316 429.951 410.255 429.729L409.128 425.899C409.067 425.688 409.944 425.516 411.093 425.516H427.502C428.651 425.516 429.65 425.688 429.745 425.899L431.41 429.729C431.51 429.951 430.627 430.134 429.445 430.134H429.439Z" fill="url(#paint14_linear_1_3850)"/>
<path d="M456.852 430.134H439.927C438.745 430.134 437.696 429.951 437.59 429.729L435.764 425.899C435.664 425.688 436.513 425.516 437.657 425.516H454.066C455.215 425.516 456.247 425.688 456.381 425.899L458.745 429.729C458.884 429.951 458.035 430.134 456.852 430.134Z" fill="url(#paint15_linear_1_3850)"/>
<path d="M484.268 430.134H467.343C466.161 430.134 465.084 429.951 464.934 429.729L462.414 425.899C462.275 425.688 463.091 425.516 464.24 425.516H480.649C481.798 425.516 482.864 425.688 483.031 425.899L486.095 429.729C486.272 429.951 485.462 430.134 484.274 430.134H484.268Z" fill="url(#paint16_linear_1_3850)"/>
<path d="M234.315 436.555H218.883C217.65 436.555 216.84 436.355 217.068 436.117L221.031 431.953C221.248 431.726 222.397 431.537 223.59 431.537H238.528C239.722 431.537 240.538 431.72 240.349 431.953L236.913 436.117C236.713 436.361 235.547 436.555 234.315 436.555Z" fill="url(#paint17_linear_1_3850)"/>
<path d="M207.947 436.555H192.276C191.044 436.555 190.267 436.355 190.539 436.117L195.207 431.953C195.462 431.726 196.639 431.537 197.833 431.537H213.004C214.197 431.537 214.98 431.72 214.752 431.953L210.617 436.117C210.373 436.361 209.179 436.555 207.947 436.555Z" fill="url(#paint18_linear_1_3850)"/>
<path d="M260.632 436.555H245.256C244.023 436.555 243.179 436.355 243.368 436.117L246.632 431.953C246.81 431.726 247.926 431.537 249.119 431.537H264.007C265.201 431.537 266.05 431.72 265.894 431.953L263.158 436.117C262.997 436.361 261.87 436.555 260.632 436.555Z" fill="url(#paint19_linear_1_3850)"/>
<path d="M513.7 436.555H498.268C497.036 436.555 495.87 436.355 495.67 436.117L492.228 431.953C492.04 431.726 492.85 431.537 494.049 431.537H508.987C510.181 431.537 511.324 431.72 511.546 431.953L515.521 436.117C515.754 436.361 514.943 436.555 513.706 436.555H513.7Z" fill="url(#paint20_linear_1_3850)"/>
<path d="M487.333 436.556H471.662C470.43 436.556 469.298 436.356 469.137 436.117L468.032 434.435C467.876 434.197 468.731 434.008 469.947 434.008H485.362C486.578 434.008 487.71 434.202 487.899 434.435L489.22 436.117C489.409 436.361 488.565 436.556 487.333 436.556Z" fill="url(#paint21_linear_1_3850)"/>
<path d="M540.014 436.556H524.637C523.405 436.556 522.206 436.356 521.967 436.117L520.296 434.435C520.058 434.197 520.851 434.008 522.067 434.008H537.194C538.409 434.008 539.609 434.202 539.875 434.435L541.762 436.117C542.034 436.361 541.257 436.556 540.025 436.556H540.014Z" fill="url(#paint22_linear_1_3850)"/>
<path d="M289.215 436.555H271.562C270.33 436.555 269.453 436.355 269.603 436.117L272.167 431.953C272.312 431.726 273.394 431.537 274.587 431.537H291.674C292.867 431.537 293.75 431.72 293.639 431.953L291.657 436.117C291.54 436.361 290.447 436.555 289.215 436.555Z" fill="url(#paint23_linear_1_3850)"/>
<path d="M460.726 436.555H443.073C441.841 436.555 440.747 436.355 440.631 436.117L438.649 431.953C438.538 431.726 439.421 431.537 440.614 431.537H457.7C458.894 431.537 459.976 431.72 460.121 431.953L462.685 436.117C462.835 436.361 461.958 436.555 460.726 436.555Z" fill="url(#paint24_linear_1_3850)"/>
<path d="M509.288 425.516H490.803C489.654 425.516 488.899 425.721 489.11 425.971L492.207 429.657C492.429 429.923 493.567 430.134 494.755 430.134H532.896C534.079 430.134 534.795 429.918 534.501 429.657L530.365 425.971C530.082 425.721 528.927 425.516 527.778 425.516H509.293H509.288Z" fill="url(#paint25_linear_1_3850)"/>
<path d="M222.673 419.947H210.683C209.578 419.947 208.474 420.136 208.213 420.369L204.388 423.777C204.116 424.022 204.81 424.222 205.948 424.222H230.656C231.794 424.222 232.898 424.022 233.12 423.777L236.262 420.369C236.479 420.136 235.757 419.947 234.653 419.947H222.662H222.673Z" fill="url(#paint26_linear_1_3850)"/>
<path d="M283.336 424.214H267.077C265.939 424.214 265.134 424.048 265.278 423.842L267.754 420.301C267.893 420.106 268.898 419.945 269.997 419.945H285.779C286.883 419.945 287.688 420.106 287.577 420.301L285.601 423.842C285.484 424.048 284.469 424.214 283.336 424.214Z" fill="url(#paint27_linear_1_3850)"/>
<path d="M256.996 424.214H240.737C239.599 424.214 238.827 424.048 239.01 423.842L242.13 420.301C242.302 420.106 243.335 419.945 244.439 419.945H260.221C261.326 419.945 262.103 420.106 261.958 420.301L259.333 423.842C259.177 424.048 258.134 424.214 256.996 424.214Z" fill="url(#paint28_linear_1_3850)"/>
<path d="M309.67 424.214H293.405C292.267 424.214 291.435 424.048 291.54 423.842L293.372 420.301C293.472 420.106 294.449 419.945 295.554 419.945H311.335C312.44 419.945 313.273 420.106 313.201 420.301L311.868 423.842C311.791 424.048 310.808 424.214 309.67 424.214Z" fill="url(#paint29_linear_1_3850)"/>
<path d="M336.009 424.214H319.745C318.607 424.214 317.741 424.048 317.813 423.842L319.001 420.301C319.067 420.106 320.011 419.945 321.116 419.945H336.897C338.002 419.945 338.862 420.106 338.824 420.301L338.135 423.842C338.096 424.048 337.142 424.214 336.004 424.214H336.009Z" fill="url(#paint30_linear_1_3850)"/>
<path d="M388.679 424.214H372.42C371.282 424.214 370.355 424.048 370.35 423.842L370.244 420.301C370.239 420.106 371.127 419.945 372.231 419.945H388.013C389.118 419.945 390.039 420.106 390.073 420.301L390.678 423.842C390.711 424.048 389.817 424.214 388.685 424.214H388.679Z" fill="url(#paint31_linear_1_3850)"/>
<path d="M362.344 424.214H346.085C344.947 424.214 344.054 424.048 344.087 423.842L344.631 420.301C344.659 420.106 345.58 419.945 346.685 419.945H362.466C363.571 419.945 364.459 420.106 364.459 420.301L364.415 423.842C364.415 424.048 363.488 424.214 362.35 424.214H362.344Z" fill="url(#paint32_linear_1_3850)"/>
<path d="M415.018 424.214H398.753C397.615 424.214 396.66 424.048 396.616 423.842L395.867 420.301C395.828 420.106 396.688 419.945 397.787 419.945H413.569C414.674 419.945 415.623 420.106 415.689 420.301L416.938 423.842C417.011 424.048 416.15 424.214 415.012 424.214H415.018Z" fill="url(#paint33_linear_1_3850)"/>
<path d="M441.353 424.214H425.088C423.95 424.214 422.962 424.048 422.885 423.842L421.491 420.301C421.414 420.106 422.246 419.945 423.351 419.945H439.133C440.237 419.945 441.214 420.106 441.32 420.301L443.213 423.842C443.324 424.048 442.491 424.214 441.353 424.214Z" fill="url(#paint34_linear_1_3850)"/>
<path d="M467.693 424.214H451.428C450.29 424.214 449.274 424.048 449.152 423.842L447.115 420.301C447.004 420.106 447.803 419.945 448.908 419.945H464.689C465.794 419.945 466.799 420.106 466.943 420.301L469.48 423.842C469.63 424.048 468.825 424.214 467.693 424.214Z" fill="url(#paint35_linear_1_3850)"/>
<path d="M494.027 424.214H477.768C476.63 424.214 475.581 424.048 475.425 423.842L472.744 420.301C472.594 420.106 473.371 419.945 474.47 419.945H490.252C491.357 419.945 492.389 420.106 492.567 420.301L495.748 423.842C495.931 424.048 495.165 424.214 494.027 424.214Z" fill="url(#paint36_linear_1_3850)"/>
<path d="M255.593 413.674H241.188C240.133 413.674 239.417 413.529 239.584 413.352L240.744 412.125C240.91 411.953 241.882 411.809 242.925 411.809H257.131C258.169 411.809 258.896 411.947 258.757 412.125L257.763 413.352C257.619 413.529 256.648 413.674 255.593 413.674Z" fill="url(#paint37_linear_1_3850)"/>
<path d="M232.039 413.674H217.634C216.579 413.674 215.885 413.529 216.085 413.352L217.462 412.125C217.656 411.953 218.655 411.809 219.693 411.809H233.898C234.937 411.809 235.642 411.947 235.469 412.125L234.259 413.352C234.082 413.529 233.088 413.674 232.033 413.674H232.039Z" fill="url(#paint38_linear_1_3850)"/>
<path d="M279.146 413.674H264.741C263.686 413.674 262.942 413.529 263.081 413.352L264.03 412.125C264.164 411.953 265.113 411.809 266.156 411.809H280.362C281.4 411.809 282.155 411.947 282.044 412.125L281.266 413.352C281.155 413.529 280.206 413.674 279.157 413.674H279.146Z" fill="url(#paint39_linear_1_3850)"/>
<path d="M302.694 413.674H288.288C287.234 413.674 286.468 413.529 286.573 413.352L287.306 412.125C287.411 411.953 288.333 411.809 289.376 411.809H303.582C304.62 411.809 305.397 411.947 305.319 412.125L304.753 413.352C304.67 413.529 303.754 413.674 302.699 413.674H302.694Z" fill="url(#paint40_linear_1_3850)"/>
<path d="M349.8 413.674H335.395C334.34 413.674 333.524 413.529 333.563 413.352L333.863 412.125C333.907 411.953 334.784 411.809 335.822 411.809H350.027C351.065 411.809 351.893 411.947 351.876 412.125L351.743 413.352C351.726 413.529 350.854 413.674 349.8 413.674Z" fill="url(#paint41_linear_1_3850)"/>
<path d="M326.247 413.674H311.841C310.787 413.674 309.993 413.529 310.071 413.352L310.587 412.125C310.659 411.953 311.558 411.809 312.602 411.809H326.807C327.845 411.809 328.65 411.947 328.6 412.125L328.25 413.352C328.201 413.529 327.307 413.674 326.252 413.674H326.247Z" fill="url(#paint42_linear_1_3850)"/>
<path d="M373.347 413.674H358.942C357.887 413.674 357.044 413.529 357.055 413.352L357.138 412.125C357.149 411.953 358.004 411.809 359.042 411.809H373.247C374.285 411.809 375.14 411.947 375.151 412.125L375.235 413.352C375.246 413.529 374.402 413.674 373.347 413.674Z" fill="url(#paint43_linear_1_3850)"/>
<path d="M396.901 413.674H382.496C381.442 413.674 380.576 413.529 380.553 413.352L380.42 412.125C380.404 411.953 381.231 411.809 382.269 411.809H396.474C397.512 411.809 398.389 411.947 398.433 412.125L398.733 413.352C398.778 413.529 397.956 413.674 396.901 413.674Z" fill="url(#paint44_linear_1_3850)"/>
<path d="M420.449 413.674H406.044C404.989 413.674 404.095 413.529 404.045 413.352L403.696 412.125C403.646 411.953 404.451 411.809 405.489 411.809H419.694C420.732 411.809 421.637 411.947 421.709 412.125L422.225 413.352C422.297 413.529 421.503 413.674 420.454 413.674H420.449Z" fill="url(#paint45_linear_1_3850)"/>
<path d="M444.002 413.674H429.597C428.542 413.674 427.621 413.529 427.543 413.352L426.977 412.125C426.899 411.953 427.676 411.809 428.715 411.809H442.92C443.958 411.809 444.885 411.947 444.99 412.125L445.723 413.352C445.829 413.529 445.062 413.674 444.008 413.674H444.002Z" fill="url(#paint46_linear_1_3850)"/>
<path d="M467.555 413.674H453.15C452.096 413.674 451.152 413.529 451.041 413.352L450.264 412.125C450.153 411.953 450.908 411.809 451.946 411.809H466.151C467.189 411.809 468.138 411.947 468.277 412.125L469.226 413.352C469.365 413.529 468.621 413.674 467.566 413.674H467.555Z" fill="url(#paint47_linear_1_3850)"/>
<path d="M491.102 413.674H476.697C475.642 413.674 474.671 413.529 474.526 413.352L473.533 412.125C473.394 411.953 474.121 411.809 475.159 411.809H489.364C490.402 411.809 491.379 411.947 491.546 412.125L492.706 413.352C492.873 413.529 492.156 413.674 491.102 413.674Z" fill="url(#paint48_linear_1_3850)"/>
<path d="M514.656 413.674H500.251C499.196 413.674 498.203 413.529 498.025 413.352L496.815 412.125C496.643 411.953 497.348 411.809 498.386 411.809H512.591C513.629 411.809 514.628 411.947 514.823 412.125L516.199 413.352C516.399 413.529 515.705 413.674 514.651 413.674H514.656Z" fill="url(#paint49_linear_1_3850)"/>
<path d="M510.82 419.947H500.029C498.924 419.947 498.208 420.136 498.424 420.369L501.627 423.777C501.855 424.022 502.965 424.222 504.103 424.222H526.335C527.473 424.222 528.173 424.022 527.895 423.777L524.07 420.369C523.809 420.136 522.705 419.947 521.6 419.947H510.809H510.82Z" fill="url(#paint50_linear_1_3850)"/>
<path d="M227.948 414.789H216.402C215.341 414.789 214.281 414.961 214.042 415.178L210.501 418.336C210.245 418.564 210.928 418.747 212.022 418.747H229.857C230.951 418.747 232.017 418.564 232.233 418.336L235.281 415.178C235.486 414.961 234.798 414.789 233.732 414.789H227.953H227.948Z" fill="url(#paint51_linear_1_3850)"/>
<path d="M280.527 418.745H264.879C263.785 418.745 263.014 418.59 263.158 418.401L265.595 415.12C265.728 414.937 266.7 414.793 267.76 414.793H282.959C284.019 414.793 284.796 414.937 284.685 415.12L282.714 418.401C282.598 418.59 281.621 418.745 280.527 418.745Z" fill="url(#paint52_linear_1_3850)"/>
<path d="M255.186 418.745H239.538C238.444 418.745 237.7 418.59 237.878 418.401L240.914 415.12C241.081 414.937 242.08 414.793 243.14 414.793H258.339C259.399 414.793 260.149 414.937 260.004 415.12L257.434 418.401C257.284 418.59 256.274 418.745 255.181 418.745H255.186Z" fill="url(#paint53_linear_1_3850)"/>
<path d="M305.867 418.745H290.219C289.125 418.745 288.326 418.59 288.431 418.401L290.269 415.12C290.369 414.937 291.312 414.793 292.378 414.793H307.577C308.637 414.793 309.437 414.937 309.364 415.12L307.988 418.401C307.91 418.59 306.955 418.745 305.862 418.745H305.867Z" fill="url(#paint54_linear_1_3850)"/>
<path d="M331.208 418.745H315.56C314.466 418.745 313.639 418.59 313.711 418.401L314.949 415.12C315.016 414.937 315.937 414.793 316.998 414.793H332.197C333.257 414.793 334.084 414.937 334.045 415.12L333.268 418.401C333.223 418.59 332.302 418.745 331.203 418.745H331.208Z" fill="url(#paint55_linear_1_3850)"/>
<path d="M381.89 418.745H366.242C365.148 418.745 364.266 418.59 364.266 418.401L364.31 415.12C364.31 414.937 365.176 414.793 366.236 414.793H381.435C382.495 414.793 383.378 414.937 383.4 415.12L383.817 418.401C383.839 418.59 382.973 418.745 381.879 418.745H381.89Z" fill="url(#paint56_linear_1_3850)"/>
<path d="M356.55 418.745H340.901C339.808 418.745 338.953 418.59 338.992 418.401L339.635 415.12C339.669 414.937 340.562 414.793 341.623 414.793H356.822C357.882 414.793 358.737 414.937 358.726 415.12L358.548 418.401C358.537 418.59 357.643 418.745 356.55 418.745Z" fill="url(#paint57_linear_1_3850)"/>
<path d="M407.23 418.745H391.582C390.488 418.745 389.578 418.59 389.544 418.401L388.989 415.12C388.956 414.937 389.794 414.793 390.86 414.793H406.059C407.119 414.793 408.029 414.937 408.085 415.12L409.101 418.401C409.162 418.59 408.324 418.745 407.23 418.745Z" fill="url(#paint58_linear_1_3850)"/>
<path d="M432.566 418.745H416.917C415.824 418.745 414.88 418.59 414.813 418.401L413.664 415.12C413.603 414.937 414.408 414.793 415.474 414.793H430.673C431.733 414.793 432.671 414.937 432.76 415.12L434.375 418.401C434.47 418.59 433.659 418.745 432.566 418.745Z" fill="url(#paint59_linear_1_3850)"/>
<path d="M457.906 418.745H442.257C441.164 418.745 440.192 418.59 440.092 418.401L438.344 415.12C438.249 414.937 439.032 414.793 440.092 414.793H455.291C456.351 414.793 457.312 414.937 457.434 415.12L459.643 418.401C459.771 418.59 458.988 418.745 457.895 418.745H457.906Z" fill="url(#paint60_linear_1_3850)"/>
<path d="M483.246 418.745H467.598C466.504 418.745 465.505 418.59 465.372 418.401L463.024 415.12C462.896 414.937 463.651 414.793 464.711 414.793H479.91C480.97 414.793 481.959 414.937 482.114 415.12L484.923 418.401C485.084 418.59 484.334 418.745 483.241 418.745H483.246Z" fill="url(#paint61_linear_1_3850)"/>
<path d="M499.728 414.789H489.337C488.276 414.789 487.571 414.961 487.76 415.178L490.591 418.336C490.796 418.564 491.846 418.747 492.939 418.747H520.273C521.366 418.747 522.049 418.564 521.794 418.336L518.252 415.178C518.008 414.961 516.953 414.789 515.893 414.789H499.728Z" fill="url(#paint62_linear_1_3850)"/>
<path d="M432.139 436.555H300.151C298.918 436.555 298.002 436.355 298.108 436.117L299.918 431.953C300.017 431.726 301.067 431.537 302.26 431.537H430.029C431.223 431.537 432.272 431.72 432.372 431.953L434.182 436.117C434.287 436.361 433.371 436.555 432.139 436.555Z" fill="url(#paint63_linear_1_3850)"/>
<path d="M520.513 219.707H211.778V396.997H520.513V219.707Z" fill="white"/>
<g style="mix-blend-mode:multiply" opacity="0.48">
<g style="mix-blend-mode:multiply" opacity="0.48">
<path d="M243.835 396.997H520.512V219.707H485.501L243.835 396.997Z" fill="#D7F4FB"/>
</g>
</g>
<g style="mix-blend-mode:multiply">
<path d="M364.372 247.867H241.765C238.034 247.867 235.01 250.892 235.01 254.623V365.522C235.01 369.253 238.034 372.278 241.765 372.278H364.372C368.103 372.278 371.128 369.253 371.128 365.522V254.623C371.128 250.892 368.103 247.867 364.372 247.867Z" fill="white"/>
<path d="M364.372 247.867H241.765C238.034 247.867 235.01 250.892 235.01 254.623V365.522C235.01 369.253 238.034 372.278 241.765 372.278H364.372C368.103 372.278 371.128 369.253 371.128 365.522V254.623C371.128 250.892 368.103 247.867 364.372 247.867Z" stroke="#39C7DF" stroke-width="0.437821" stroke-miterlimit="10"/>
</g>
<path d="M310.291 305.168L310.492 305.413C310.665 305.624 310.976 305.655 311.187 305.482L361.284 264.463C361.495 264.29 361.526 263.979 361.354 263.768L361.153 263.523C360.98 263.312 360.669 263.281 360.458 263.454L310.361 304.473C310.149 304.645 310.118 304.957 310.291 305.168Z" fill="url(#paint64_linear_1_3850)" stroke="white" stroke-width="0.437821" stroke-miterlimit="10"/>
<path d="M312.52 308.356L327.48 296.104C330.811 293.234 333.747 288.66 332.437 287.062C331.127 285.463 325.981 287.733 322.739 290.315L307.779 302.566L312.52 308.356Z" fill="url(#paint65_linear_1_3850)" stroke="white" stroke-width="0.437821" stroke-miterlimit="10"/>
<path d="M263.275 320.556L286.107 348.439L324.038 317.375L324.026 317.358C324.093 317.319 324.154 317.281 324.215 317.231C326.313 315.51 333.469 300.383 326.069 291.346C318.153 281.676 303.482 287.632 301.384 289.348C301.322 289.397 301.273 289.447 301.223 289.508L301.211 289.492L263.281 320.556H263.275Z" fill="url(#paint66_linear_1_3850)" stroke="white" stroke-width="0.437821" stroke-miterlimit="10"/>
<path d="M263.275 320.556L286.107 348.439L324.038 317.375L324.026 317.358C324.093 317.319 324.154 317.281 324.215 317.231C326.025 315.748 331.343 304.047 328.212 295.254L289.332 299.217L263.275 320.556Z" fill="url(#paint67_linear_1_3850)" stroke="white" stroke-width="0.437821" stroke-miterlimit="10"/>
<path d="M285.996 348.427L288.844 346.096L288.805 346.046C290.304 343.881 286.935 336.614 280.934 329.281C274.933 321.954 268.472 317.213 266.051 318.257L263.215 320.605L285.996 348.421V348.427Z" fill="#0088C3" stroke="white" stroke-width="0.437821" stroke-miterlimit="10"/>
<path d="M286.097 348.467C288.198 346.746 284.791 339.109 278.487 331.409C272.183 323.71 265.368 318.863 263.266 320.583C261.165 322.304 264.572 329.941 270.876 337.641C277.181 345.341 283.995 350.188 286.097 348.467Z" fill="url(#paint68_linear_1_3850)"/>
<path d="M326.121 310.498C326.137 308.322 325.743 305.808 324.55 303.293L282.855 337.438C284.254 339.675 285.304 341.745 285.936 343.488L326.121 310.498Z" fill="url(#paint69_linear_1_3850)" stroke="white" stroke-width="0.437821" stroke-miterlimit="10"/>
<path d="M288.494 341.485C287.85 339.742 286.795 337.671 285.396 335.445L282.898 337.494C284.297 339.731 285.346 341.801 285.979 343.544L288.494 341.485Z" fill="#264F85" stroke="white" stroke-width="0.437821" stroke-miterlimit="10"/>
<path d="M307.801 288.559C309.938 288.975 312.369 289.852 314.801 291.401L273.106 325.545C271.191 323.736 269.365 322.292 267.777 321.332L307.795 288.564L307.801 288.559Z" fill="#BEF5FF" stroke="white" stroke-width="0.437821" stroke-miterlimit="10"/>
<path d="M273.756 324.913L307.556 297.33L295.433 298.668L269.554 319.784L273.756 324.913Z" fill="url(#paint70_linear_1_3850)" stroke="white" stroke-width="0.437821" stroke-miterlimit="10"/>
<path d="M270.259 319.213C271.841 320.184 273.662 321.628 275.566 323.437L273.068 325.486C271.153 323.676 269.327 322.233 267.739 321.272L270.254 319.213H270.259Z" fill="#6DD2F2" stroke="white" stroke-width="0.437821" stroke-miterlimit="10"/>
<path d="M276.021 336.677L285.98 343.544C285.98 343.544 285.347 340.685 282.899 337.493L274.628 334.551L275.166 335.211C275.527 335.65 275.816 336.15 276.021 336.677Z" fill="url(#paint71_linear_1_3850)"/>
<path d="M298.781 310.964C299.774 310.964 300.58 310.159 300.58 309.166C300.58 308.172 299.774 307.367 298.781 307.367C297.788 307.367 296.982 308.172 296.982 309.166C296.982 310.159 297.788 310.964 298.781 310.964Z" fill="#F5CCFF" stroke="white" stroke-width="0.437821" stroke-miterlimit="10"/>
<path d="M311.448 311.009C312.668 311.009 313.657 310.019 313.657 308.799C313.657 307.579 312.668 306.59 311.448 306.59C310.227 306.59 309.238 307.579 309.238 308.799C309.238 310.019 310.227 311.009 311.448 311.009Z" fill="#F5CCFF" stroke="white" stroke-width="0.437821" stroke-miterlimit="10"/>
<path d="M290.942 327.406C291.954 327.406 292.774 326.586 292.774 325.574C292.774 324.562 291.954 323.742 290.942 323.742C289.93 323.742 289.11 324.562 289.11 325.574C289.11 326.586 289.93 327.406 290.942 327.406Z" fill="#DE97FF" stroke="white" stroke-width="0.437821" stroke-miterlimit="10"/>
<path d="M323.988 317.325C324.055 317.286 324.116 317.247 324.177 317.197C326.275 315.477 333.431 300.35 326.031 291.313C318.115 281.643 303.444 287.599 301.345 289.314C301.284 289.364 301.234 289.414 301.184 289.475L301.173 289.459L300.74 289.814C306.008 286.533 314.64 289.453 320.608 296.742C326.914 304.441 327.852 314.094 322.711 318.308" fill="#8FEAFF"/>
<path d="M323.988 317.325C324.055 317.286 324.116 317.247 324.177 317.197C326.275 315.477 333.431 300.35 326.031 291.313C318.115 281.643 303.444 287.599 301.345 289.314C301.284 289.364 301.234 289.414 301.184 289.475L301.173 289.459L300.74 289.814C306.008 286.533 314.64 289.453 320.608 296.742C326.914 304.441 327.852 314.094 322.711 318.308" stroke="white" stroke-width="0.437821" stroke-miterlimit="10"/>
<path d="M328.267 295.25L320.102 296.083C320.29 296.299 320.473 296.516 320.657 296.743C326.963 304.443 327.901 314.096 322.761 318.309L324.043 317.321C324.109 317.282 324.171 317.243 324.232 317.193C324.676 316.827 325.347 315.867 326.058 314.485C328.178 310.177 330.632 301.884 328.267 295.25Z" fill="#C46EE5" stroke="white" stroke-width="0.437821" stroke-miterlimit="10"/>
<path d="M323.482 288.73H323.477C314.928 284.156 307.745 288.503 307.745 288.503L307.989 288.603C310.204 288.975 312.525 289.907 314.756 291.334C317.715 288.919 323.416 288.73 323.482 288.725V288.73Z" fill="#E9FCFF" stroke="white" stroke-width="0.437821" stroke-miterlimit="10"/>
<path d="M324.621 303.266C325.637 305.747 326.142 308.228 326.12 310.499C328.679 307.174 329.401 304.293 329.173 299.186C329.034 297.837 328.762 296.516 328.313 295.25C328.313 295.25 329.173 299.186 324.621 303.266Z" fill="url(#paint72_linear_1_3850)" stroke="white" stroke-width="0.437821" stroke-miterlimit="10"/>
<path d="M265.48 346.879L276.21 338.092C276.649 337.736 275.938 336.149 274.628 334.55C273.318 332.951 271.902 331.947 271.47 332.302L260.739 341.089L265.48 346.879Z" fill="#6DD2F2" stroke="white" stroke-width="0.437821" stroke-miterlimit="10"/>
<path d="M264.709 345.942L276.022 336.677C275.728 336.055 275.245 335.306 274.629 334.551L263.104 343.988L264.709 345.942Z" fill="#009CD8" stroke="white" stroke-width="0.437821" stroke-miterlimit="10"/>
<path d="M270.669 360.978L273.478 358.597C274.977 356.432 271.608 349.165 265.607 341.832C259.606 334.499 253.145 329.764 250.724 330.808L247.838 333.095L270.669 360.978Z" fill="#0088C3" stroke="white" stroke-width="0.437821" stroke-miterlimit="10"/>
<path d="M270.659 361.008C272.761 359.287 269.354 351.65 263.049 343.95C256.745 336.251 249.931 331.404 247.829 333.124C245.727 334.845 249.134 342.482 255.439 350.182C261.743 357.882 268.558 362.729 270.659 361.008Z" fill="#00A8E1" stroke="white" stroke-width="0.437821" stroke-miterlimit="10"/>
<path d="M273.135 354.061C272.491 352.318 271.436 350.247 270.037 348.021L267.539 350.07C268.938 352.307 269.987 354.377 270.62 356.12L273.135 354.061Z" fill="#264F85" stroke="white" stroke-width="0.437821" stroke-miterlimit="10"/>
<path d="M255.598 332.469C257.18 333.44 259.001 334.883 260.905 336.693L258.407 338.741C256.492 336.932 254.666 335.489 253.078 334.528L255.593 332.469H255.598Z" fill="#6DD2F2" stroke="white" stroke-width="0.437821" stroke-miterlimit="10"/>
<path d="M507.534 302.117H404.934V305.87H507.534V302.117Z" fill="#39C7DF"/>
<path d="M507.534 278.422H404.934V282.174H507.534V278.422Z" fill="#39C7DF"/>
<path d="M507.534 254.73H404.934V258.483H507.534V254.73Z" fill="#39C7DF"/>
<path d="M388.53 249.689L389.323 251.605C390.017 253.275 391.155 254.719 392.621 255.773L393.764 256.601L392.621 257.428C391.155 258.482 390.012 259.931 389.323 261.597L388.53 263.512L387.736 261.597C387.042 259.926 385.904 258.482 384.438 257.428L383.295 256.601L384.438 255.773C385.904 254.719 387.047 253.27 387.736 251.605L388.53 249.689Z" fill="#39C7DF"/>
<path d="M388.53 273.387L389.323 275.302C390.017 276.973 391.155 278.416 392.621 279.471L393.764 280.298L392.621 281.125C391.155 282.18 390.012 283.628 389.323 285.294L388.53 287.209L387.736 285.294C387.042 283.623 385.904 282.18 384.438 281.125L383.295 280.298L384.438 279.471C385.904 278.416 387.047 276.967 387.736 275.302L388.53 273.387Z" fill="#39C7DF"/>
<path d="M388.53 297.078L389.323 298.993C390.017 300.664 391.155 302.107 392.621 303.162L393.764 303.989L392.621 304.816C391.155 305.871 390.012 307.32 389.323 308.985L388.53 310.9L387.736 308.985C387.042 307.314 385.904 305.871 384.438 304.816L383.295 303.989L384.438 303.162C385.904 302.107 387.047 300.659 387.736 298.993L388.53 297.078Z" fill="#39C7DF"/>
<path d="M438.84 343.487C438.829 342.277 438.285 341.133 437.352 340.35L432.428 336.204C431.99 335.832 431.735 335.288 431.735 334.716V333.262H406.76V334.716C406.76 335.288 406.505 335.832 406.066 336.204L401.143 340.35C400.21 341.133 399.671 342.277 399.655 343.487C399.616 347.522 399.594 356.515 399.594 356.515C399.594 361.767 408.392 366.019 419.245 366.019C430.097 366.019 438.895 361.761 438.895 356.515C438.895 356.515 438.873 347.522 438.834 343.487H438.84Z" fill="#39C7DF"/>
<path d="M399.655 343.486C399.616 347.522 399.594 356.515 399.594 356.515C399.594 367.056 408.392 366.018 419.245 366.018C430.097 366.018 438.895 367.589 438.895 356.515C438.895 356.515 438.873 347.522 438.834 343.486L438.612 342.604H399.866L399.644 343.486H399.655Z" fill="#39C7DF"/>
<path d="M431.762 326.139H406.727C405.825 326.139 405.095 326.869 405.095 327.771V332.811C405.095 333.712 405.825 334.443 406.727 334.443H431.762C432.663 334.443 433.394 333.712 433.394 332.811V327.771C433.394 326.869 432.663 326.139 431.762 326.139Z" fill="#0088C3" stroke="white" stroke-width="0.437821" stroke-miterlimit="10"/>
<path d="M491.336 363.859H458.462C457.274 363.859 456.309 363.004 456.309 361.955V334.66C456.309 333.006 457.824 331.668 459.689 331.668H490.109C491.974 331.668 493.49 333.006 493.49 334.66V361.955C493.49 363.009 492.524 363.859 491.336 363.859Z" fill="#39C7DF"/>
<path d="M458.184 326.139H491.796C492.829 326.139 493.672 326.977 493.672 328.015V334.443H456.313V328.015C456.313 326.982 457.152 326.139 458.19 326.139H458.184Z" fill="#0088C3" stroke="white" stroke-width="0.437821" stroke-miterlimit="10"/>
<path d="M575.27 87C575.27 87 620.872 124.581 593.899 171.926C561.814 228.253 504.233 179.437 540.687 171.926C577.135 164.415 615.032 205.332 583.691 259.233" stroke="#264F85" stroke-width="0.437821" stroke-linecap="round" stroke-linejoin="round"/>
<path d="M481.622 189.371C460.789 185.508 393.005 197.481 385.128 197.481C377.251 197.481 376.873 181 376.873 181V173.057H339.992L339.037 201.417H339.326V207.712H513.752C514.457 201.7 502.455 193.235 481.622 189.371Z" fill="#F9CCA7"/>
<path d="M315.988 207.6C315.988 207.6 352.98 199.052 357.016 198.835C361.052 198.619 372.348 200.828 376.872 201.416C381.396 202.005 391.266 201.217 396.506 200.223C401.747 199.229 469.825 185.024 485.49 190.164C501.155 195.305 513.185 199.851 513.745 207.711L315.982 207.6H315.988Z" fill="#F9CCA7"/>
<path d="M340.086 175.538C340.086 175.538 339.431 197.481 331.554 197.481C323.677 197.481 255.887 185.508 235.059 189.371C214.226 193.235 202.225 201.7 202.93 207.712H377.356L376.873 173.057L340.086 175.538Z" fill="#F9CCA7"/>
<path d="M339.658 183.037C346.891 194.65 363.766 201.051 372.987 188.283C374.247 186.263 375.779 183.304 376.872 180.168V173.057H339.991L339.652 183.037H339.658Z" fill="#EAB892"/>
<path d="M400.693 207.6C400.693 207.6 363.7 199.052 359.665 198.835C355.629 198.619 344.333 200.828 339.809 201.416C335.284 202.005 325.415 201.217 320.174 200.223C314.934 199.229 246.856 185.024 231.191 190.164C215.525 195.305 203.496 199.851 202.936 207.711L400.698 207.6H400.693Z" fill="#FEE2CC"/>
<path d="M382.174 131.396C380.825 131.396 379.588 132.339 378.638 133.894C378.538 134.06 378.283 134.01 378.239 133.821C371.988 107.076 345.06 106.088 340.636 107.543C341.851 121.526 314.929 117.29 324.46 152.656C324.515 152.862 324.315 153.045 324.138 152.923C321.706 151.335 319.303 150.891 317.815 152.023C315.434 153.839 316.294 158.985 319.741 163.52C323.189 168.055 327.918 170.259 330.305 168.449C330.549 168.266 330.755 168.044 330.932 167.794C331.393 167.139 332.376 167.178 332.803 167.855C335.756 172.479 339.043 176.504 343.195 179.085C351.099 183.992 358.421 185.841 363.562 184.658C369.596 183.271 372.882 180.983 377.967 171.103C380.703 165.785 381.475 160.85 380.97 153.239C380.925 152.562 381.481 152.023 382.158 152.029H382.169C385.166 152.029 387.592 147.411 387.592 141.715C387.592 136.02 385.166 131.401 382.169 131.401L382.174 131.396Z" fill="#FEE2CC"/>
<path d="M349.361 170.187C349.361 170.187 353.069 174.318 359.153 172.391C359.975 172.13 360.818 171.947 361.623 171.636C369.611 168.528 368.04 163.471 368.04 163.471C368.04 163.471 353.213 169.044 349.355 170.187H349.361Z" fill="#F49C95"/>
<path d="M348.563 170.42C348.563 170.42 354.408 165.518 355.941 164.797C355.941 164.797 358.566 166.179 360.359 163.398C360.359 163.398 363.218 163.048 366.504 162.976C367.47 162.954 368.009 162.937 368.902 162.726C369.008 162.698 369.086 162.843 369.002 162.92C368.247 163.648 365.699 165.424 361.836 165.979C360.953 167.517 357.5 168.449 356.257 167.894C356.257 167.894 351.544 170.215 348.558 170.42H348.563Z" fill="#E27E79"/>
<path opacity="0.54" d="M351.154 153.695C350.366 158.957 354.94 156.937 355.295 158.052C353.164 159.457 350.299 161.211 349.189 159.296C349.011 158.99 348.567 158.313 348.434 156.115C349.689 154.044 348.395 150.414 348.029 149.454C345.709 143.397 341.617 138.352 343.505 138.352C346.058 138.352 350.682 149.315 351.154 153.695Z" fill="#F9CCA7"/>
<path d="M335.151 152.427C335.151 152.427 338.615 152.377 342.129 149.43C342.129 149.43 339.082 152.805 335.668 152.977C332.254 153.149 335.151 152.427 335.151 152.427Z" fill="#443122"/>
<path d="M330.893 151.89V147.36C330.893 146.239 331.492 145.195 332.48 144.668C334.173 143.763 337.282 142.781 342.122 143.68" stroke="#EAB892" stroke-width="0.437821" stroke-linecap="round" stroke-linejoin="round"/>
<path opacity="0.1" d="M337.138 166.389C339.738 166.389 341.845 164.282 341.845 161.682C341.845 159.082 339.738 156.975 337.138 156.975C334.538 156.975 332.431 159.082 332.431 161.682C332.431 164.282 334.538 166.389 337.138 166.389Z" fill="#F49C95"/>
<path d="M349.189 159.295C351.998 157.33 351.732 157.386 354.652 157.747C355.751 157.88 356.156 157.708 356.844 156.842C358.865 154.311 359.481 153.833 360.963 154.988C362.368 156.081 359.37 156.747 357.116 157.874C356.456 158.207 356.844 159.123 356.195 159.479C354.846 160.222 355.795 157.991 350.977 160.295C350.272 160.422 349.5 159.817 349.189 159.295Z" fill="#EAB892"/>
<path opacity="0.1" d="M374.553 153.122C377.153 153.122 379.26 151.014 379.26 148.414C379.26 145.815 377.153 143.707 374.553 143.707C371.953 143.707 369.846 145.815 369.846 148.414C369.846 151.014 371.953 153.122 374.553 153.122Z" fill="#F49C95"/>
<path d="M357.743 157.519C357.571 157.63 357.327 157.591 357.299 157.452C357.232 157.124 357.249 156.619 357.865 156.453C358.481 156.286 359.442 156.531 359.975 156.414C360.119 156.381 360.197 156.497 360.08 156.569L357.743 157.519Z" fill="#443122"/>
<path d="M354.202 158.951C354.325 158.912 354.363 158.801 354.264 158.767C353.831 158.601 352.898 158.318 352.47 158.717C352.115 159.045 351.671 159.456 351.382 159.722C351.294 159.8 351.388 159.889 351.516 159.844C352.099 159.644 353.192 159.273 354.202 158.956V158.951Z" fill="#443122"/>
<path d="M344.549 138.738C346.503 141.048 347.907 143.812 348.618 146.748" stroke="#EAB892" stroke-width="0.437821" stroke-linecap="round" stroke-linejoin="round"/>
<path opacity="0.54" d="M354.713 154.683C354.641 155.471 353.891 156.048 353.036 155.97C352.181 155.893 351.549 155.193 351.615 154.405C351.682 153.617 352.004 152.612 352.859 152.69C353.713 152.768 354.779 153.894 354.707 154.683H354.713Z" fill="white"/>
<path d="M324.46 152.656C324.46 152.656 327.802 160.766 329.822 163.142" stroke="#EAB892" stroke-width="0.437821" stroke-linecap="round" stroke-linejoin="round"/>
<path d="M378.238 133.816L379.265 140.716" stroke="#EAB892" stroke-width="0.437821" stroke-linecap="round" stroke-linejoin="round"/>
<path d="M385.128 134.693C385.128 134.693 382.636 132.728 381.548 138.845C380.46 144.963 381.126 145.124 381.126 145.124" stroke="#EAB892" stroke-width="0.437821" stroke-linecap="round" stroke-linejoin="round"/>
<path d="M317.182 154.999C317.182 154.999 322.094 153.333 326.907 159.911" stroke="#EAB892" stroke-width="0.437821" stroke-linecap="round" stroke-linejoin="round"/>
<path opacity="0.56" d="M361.772 176.27C363.567 175.839 364.858 174.808 364.656 173.968C364.454 173.127 362.836 172.795 361.041 173.226C359.247 173.657 357.956 174.687 358.157 175.528C358.359 176.369 359.978 176.701 361.772 176.27Z" fill="#F9CCA7"/>
<path d="M379.455 103.24L378.878 103.451C367.221 107.731 355.963 115.974 347.07 123.141L346.327 123.74L344.295 123.507C332.565 122.147 320.52 120.571 308.03 123.335L299.192 91.9214L370.618 71.832L379.455 103.246V103.24Z" fill="url(#paint73_linear_1_3850)"/>
<path d="M281.95 141.244C283.67 141.244 285.064 139.85 285.064 138.13C285.064 136.41 283.67 135.016 281.95 135.016C280.23 135.016 278.836 136.41 278.836 138.13C278.836 139.85 280.23 141.244 281.95 141.244Z" fill="url(#paint74_linear_1_3850)"/>
<path d="M281.678 104.873V135.015" stroke="black" stroke-width="0.437821" stroke-linecap="round" stroke-linejoin="round"/>
<path d="M281.95 139.555C278.919 143.007 277.687 147.681 278.62 152.178L278.975 153.904H284.92L285.275 152.178C286.208 147.681 284.976 143.007 281.945 139.555H281.95Z" fill="url(#paint75_linear_1_3850)"/>
<path d="M503.165 51L518.666 82.4098L553.326 87.4478L528.244 111.896L534.167 146.416L503.165 130.12L472.159 146.416L478.083 111.896L453 87.4478L487.664 82.4098L503.165 51Z" fill="#DE97FF"/>
<path d="M495.058 115.335C498.424 116.283 503.313 120.641 505.06 123.693C504.887 124.904 504.179 126.523 503.742 127.668C502.28 131.483 500.817 135.297 499.351 139.108C499.351 139.108 515.807 144.376 526.052 120.081C526.052 120.081 517.121 116.534 511.672 110.297L505.694 103.797C505.694 103.797 491.602 114.363 495.058 115.335Z" fill="url(#paint76_linear_1_3850)" stroke="#264F85" stroke-width="0.437821" stroke-miterlimit="10"/>
<path d="M488.467 90.2282C488.859 86.3972 489.374 85.2685 491.454 83.2047C497.011 77.6931 504.949 78.0844 510.275 81.7465C509.715 79.9752 511.412 78.4964 513.031 77.586C515.391 76.2637 518.044 77.0093 520.322 78.4634C522.6 79.9175 523.881 82.801 524.441 85.4457C524.783 87.0522 524.911 88.8647 524.054 90.2653C522.159 93.3548 519.609 92.4856 518.493 91.5876C519.506 94.7018 518.975 99.3525 517.587 103.682C516.862 105.948 514.926 108.864 511.663 110.298C507.845 107.29 506.691 105.82 504.323 103.665C500.022 99.7562 496.422 95.0807 493.74 89.9275C493.345 89.1654 492.957 88.3827 492.381 87.7484C491.689 86.9863 488.36 91.2457 488.463 90.2241L488.467 90.2282Z" fill="#0B1E44" stroke="black" stroke-width="0.437821" stroke-linejoin="round"/>
<path d="M504.293 108.117C503.943 109.613 503.955 112.405 501.624 113.122C498.221 114.168 494.04 115.61 488.99 116.006C487.828 116.096 487 115.487 486.596 114.395C486.394 113.847 486.481 113.015 486.889 111.771C486.938 111.623 486.736 110.696 485.983 110.457C485.381 110.267 485.587 109.065 486.102 108.706C485.88 108.389 485.056 108.006 485.323 107.207C486.156 106.301 486.399 105.168 485.69 104.838C483.828 103.961 483.915 103.252 483.873 103.042C483.787 102.56 487.717 99.3842 488.141 97.0156C488.479 95.1207 487.511 95.026 488.269 91.0097C488.64 89.0447 489.595 88.0726 492.314 85.6875C492.611 91.3928 501.22 99.7797 503.197 101.378C503.963 100.155 505.203 98.8858 506.616 99.1906C507.988 99.4872 509.038 100.95 509.005 102.354C508.96 104.303 507.152 109.732 504.289 108.117H504.293Z" fill="url(#paint77_linear_1_3850)" stroke="#264F85" stroke-width="0.437821" stroke-miterlimit="10"/>
<path opacity="0.56" d="M358.893 160.778C360.247 162.01 358.549 163.009 357.688 163.287C356.828 163.564 355.263 163.808 355.557 161.977C355.723 160.944 355.679 159.945 356.539 159.673C357.4 159.401 358.121 160.078 358.893 160.783V160.778Z" fill="#F9CCA7"/>
<path d="M353.254 135.581C353.559 135.897 354.037 135.981 354.436 135.792C354.747 135.642 355.164 135.392 355.685 134.959C357.001 133.882 360.393 130.296 363.118 129.025C365.594 127.871 370.49 128.409 372 128.964C372 128.964 367.132 124.895 362.913 125.944C360.015 126.666 357.534 128.487 356.268 129.558C355.391 130.302 354.442 130.963 353.432 131.512C353.215 131.629 353.004 131.74 352.827 131.823C352.471 131.989 352.238 132.345 352.233 132.733C352.216 133.477 352.355 134.648 353.254 135.581Z" fill="#F97803"/>
<path d="M343.411 138.206C343.378 138.645 343.061 139.017 342.634 139.122C342.301 139.205 341.818 139.278 341.141 139.283C339.442 139.3 334.54 138.711 331.637 139.483C328.995 140.177 325.581 143.729 324.771 145.117C324.771 145.117 325.908 138.872 329.816 136.979C332.503 135.675 335.578 135.492 337.238 135.503C338.387 135.508 339.542 135.414 340.669 135.192C340.913 135.142 341.141 135.092 341.335 135.042C341.712 134.942 342.118 135.064 342.379 135.364C342.867 135.925 343.511 136.918 343.411 138.206Z" fill="#F97803"/>
<path d="M367.641 140.198C367.641 140.198 365.054 142.502 360.475 142.713C360.475 142.713 365.004 143.135 367.63 140.959C370.256 138.783 367.635 140.204 367.635 140.204L367.641 140.198Z" fill="#443122"/>
<path d="M357.345 142.832C357.345 142.832 356.817 143.459 357.372 143.526C357.927 143.592 358.033 143.065 358.682 142.904C359.332 142.743 361.325 142.843 362.868 142.399C364.411 141.955 367.414 141.449 369.846 137.902C369.846 137.902 360.786 138.363 357.339 142.832H357.345Z" fill="#F0F4F8"/>
<path d="M357.323 142.464L357.095 138.306C357.034 137.246 357.517 136.219 358.394 135.619C359.915 134.57 362.79 133.277 367.476 133.61" stroke="#EAB892" stroke-width="0.437821" stroke-linecap="round" stroke-linejoin="round"/>
<path d="M344.515 147.393C344.515 147.393 345.331 147.493 344.965 147.926C344.598 148.359 344.171 148.031 343.577 148.353C342.983 148.675 341.59 150.096 340.152 150.812C338.714 151.528 336.161 153.188 331.97 152.222C331.97 152.222 338.953 146.432 344.515 147.393Z" fill="#F0F4F8"/>
<path d="M362.568 139.634C362.346 139.545 362.124 139.473 361.902 139.412C360.753 139.973 359.709 140.589 358.832 141.155C359.143 141.666 359.831 142.326 360.581 142.743C361.302 142.804 362.213 142.704 363.012 142.432C364.094 142.049 364.738 141.927 365.393 141.594C365.01 140.872 363.789 140.1 362.568 139.629V139.634Z" fill="#443122"/>
<path d="M357.011 143.131C357.011 143.131 360.158 140.072 363.3 139.467C364.616 139.212 366.858 139.228 368.557 138.929C371.371 138.434 372.149 137.013 373.775 134.688C373.775 134.688 373.164 135.248 372.126 135.842C370.772 136.619 369.223 136.975 367.658 136.975C365.226 136.975 359.992 137.663 357.011 143.131Z" fill="#443122"/>
<path d="M344.96 147.393C344.96 147.393 340.575 147.265 337.849 148.947C336.711 149.652 335.068 151.179 333.614 152.106C331.204 153.649 329.672 153.127 326.902 152.511C326.902 152.511 327.729 152.511 328.895 152.245C330.416 151.901 331.798 151.112 332.947 150.058C334.74 148.414 339.054 145.378 344.954 147.382L344.96 147.393Z" fill="#443122"/>
<path d="M337.738 148.91C337.516 148.821 337.294 148.749 337.072 148.688C335.923 149.248 334.879 149.864 334.002 150.431C334.418 151.119 335.318 151.813 336.478 152.262C336.561 152.296 336.644 152.318 336.728 152.346C338.282 151.946 339.442 151.274 340.28 150.852C339.897 150.131 338.965 149.381 337.743 148.91H337.738Z" fill="#443122"/>
<path d="M303.426 191.237C303.426 191.237 316.843 175.871 315.988 163.143C315.988 163.143 319.152 181.012 310.925 193.074L303.426 191.237Z" fill="#F97803"/>
<path d="M313.713 122.357C313.713 122.357 309.183 133.154 310.01 153.91C310.837 174.665 295.794 188.221 295.794 188.221" stroke="#F97803" stroke-width="0.437821" stroke-miterlimit="10"/>
<path d="M374.552 105.223C374.552 105.223 398.732 128.104 395.296 181" stroke="#F97803" stroke-width="0.437821" stroke-miterlimit="10"/>
<path d="M346.655 104.695L280.552 106.399L280.158 102.308L345.628 99.377L346.655 104.695Z" fill="#0088C7"/>
<path d="M280.347 102.285L323.623 72.3651L387.605 69.373L345.4 99.7708L280.347 102.285Z" fill="#264F85"/>
<path d="M346.86 104.81L387.999 73.4857L387.605 69.3945L345.839 99.4925L346.86 104.81Z" fill="#0F1F42"/>
<path d="M234.271 153.34H114.44C109.124 153.34 104.814 157.649 104.814 162.965V236.04C104.814 241.356 109.124 245.665 114.44 245.665H234.271C239.587 245.665 243.897 241.356 243.897 236.04V162.965C243.897 157.649 239.587 153.34 234.271 153.34Z" fill="url(#paint78_linear_1_3850)"/>
<path opacity="0.73" d="M221.758 197.793L216.89 192.064V183.238H198.921V192.064L194.053 197.793C193.326 198.648 192.932 199.681 192.932 200.735V228.924C192.932 230.75 199.637 232.232 207.908 232.232C216.18 232.232 222.885 230.75 222.885 228.924V200.735C222.885 199.681 222.491 198.648 221.764 197.793H221.758Z" fill="#BEF5FF"/>
<path d="M216.886 191.981C211.107 193.885 204.696 193.885 198.917 191.981V183.232H216.886V191.981Z" fill="url(#paint79_linear_1_3850)"/>
<g style="mix-blend-mode:darken" opacity="0.22">
<path d="M207.904 202.961C199.632 202.961 192.927 201.735 192.927 200.225V228.929C192.927 230.756 199.632 232.238 207.904 232.238C216.175 232.238 222.88 230.756 222.88 228.929V200.225C222.88 201.74 216.175 202.961 207.904 202.961Z" fill="#0088C7"/>
</g>
<g style="mix-blend-mode:darken" opacity="0.22">
<path d="M211.085 209.545H204.812L204.718 188.234L210.99 188.678L211.085 209.545Z" fill="#0088C7"/>
</g>
<path opacity="0.84" d="M207.904 211.389C199.632 211.389 192.927 210.162 192.927 208.652V228.93C192.927 230.757 199.632 232.239 207.904 232.239C216.175 232.239 222.88 230.757 222.88 228.93V208.652C222.88 210.168 216.175 211.389 207.904 211.389Z" fill="#00A8E1"/>
<g style="mix-blend-mode:darken" opacity="0.22">
<path d="M207.904 202.961C199.632 202.961 192.927 201.735 192.927 200.225V208.651C192.927 207.136 199.632 205.914 207.904 205.914C216.175 205.914 222.88 207.141 222.88 208.651V200.225C222.88 201.74 216.175 202.961 207.904 202.961Z" fill="#0088C7"/>
</g>
<g style="mix-blend-mode:screen" opacity="0.73">
<path d="M198.172 202.295L198.449 231.483C199.582 231.688 200.853 231.86 202.23 231.988V202.817L202.252 202.761C200.759 202.65 199.382 202.489 198.177 202.3L198.172 202.295Z" fill="#BEF5FF"/>
<path d="M198.172 202.295L198.449 231.483C199.582 231.688 200.853 231.86 202.23 231.988V202.817L202.252 202.761C200.759 202.65 199.382 202.489 198.177 202.3L198.172 202.295Z" stroke="black" stroke-width="0.437821" stroke-miterlimit="10"/>
</g>
<g style="mix-blend-mode:screen" opacity="0.73">
<path d="M205.356 181H201.603L201.753 192.802L201.231 193.479C199.233 196.093 198.173 199.135 198.173 202.25V202.288C199.372 202.477 200.743 202.633 202.231 202.749V202.394C202.242 199.191 203.408 195.966 205.522 193.312L205.356 181Z" fill="#BEF5FF"/>
<path d="M205.356 181H201.603L201.753 192.802L201.231 193.479C199.233 196.093 198.173 199.135 198.173 202.25V202.288C199.372 202.477 200.743 202.633 202.231 202.749V202.394C202.242 199.191 203.408 195.966 205.522 193.312L205.356 181Z" stroke="black" stroke-width="0.437821" stroke-miterlimit="10"/>
</g>
<path d="M200.759 174.967H214.653C215.314 174.967 215.852 175.505 215.852 176.166V176.371C215.852 176.549 215.708 176.688 215.536 176.688H199.882C199.704 176.688 199.565 176.543 199.565 176.371V176.166C199.565 175.505 200.104 174.967 200.764 174.967H200.759Z" fill="url(#paint80_linear_1_3850)" stroke="white" stroke-width="0.437821" stroke-miterlimit="10"/>
<path d="M213.682 174.967C212.195 173.24 211.395 171.153 211.395 169.016V163.215C211.395 161.489 209.747 160.09 207.709 160.09C205.672 160.09 204.023 161.489 204.023 163.215V169.016C204.023 171.153 203.224 173.235 201.736 174.967H213.688H213.682Z" fill="url(#paint81_linear_1_3850)" stroke="white" stroke-width="0.437821" stroke-miterlimit="10"/>
<path d="M218.59 188.561C211.39 189.638 204.024 189.638 196.824 188.561C196.575 188.561 196.369 188.389 196.369 188.178V180.673C196.369 179.152 197.829 177.914 199.622 177.914H215.787C217.585 177.914 219.04 179.152 219.04 180.673V188.178C219.04 188.389 218.834 188.561 218.585 188.561H218.59Z" fill="url(#paint82_linear_1_3850)" stroke="white" stroke-width="0.437821" stroke-miterlimit="10"/>
<path d="M217.018 178.209H198.394C198.289 178.209 198.2 178.137 198.2 178.048V177.576C198.2 176.932 198.816 176.41 199.571 176.41H215.83C216.591 176.41 217.202 176.932 217.202 177.576V178.048C217.202 178.137 217.118 178.209 217.007 178.209H217.018Z" fill="url(#paint83_linear_1_3850)" stroke="white" stroke-width="0.437821" stroke-miterlimit="10"/>
<g style="mix-blend-mode:multiply">
<path d="M500.778 318.822H390.051C386.32 318.822 383.295 321.847 383.295 325.578V365.518C383.295 369.249 386.32 372.274 390.051 372.274H500.778C504.509 372.274 507.534 369.249 507.534 365.518V325.578C507.534 321.847 504.509 318.822 500.778 318.822Z" fill="white"/>
<path d="M500.778 318.822H390.051C386.32 318.822 383.295 321.847 383.295 325.578V365.518C383.295 369.249 386.32 372.274 390.051 372.274H500.778C504.509 372.274 507.534 369.249 507.534 365.518V325.578C507.534 321.847 504.509 318.822 500.778 318.822Z" stroke="#39C7DF" stroke-width="0.437821" stroke-miterlimit="10"/>
</g>
<path d="M239.962 266.054C250.618 266.054 259.257 257.415 259.257 246.758C259.257 236.102 250.618 227.463 239.962 227.463C229.305 227.463 220.666 236.102 220.666 246.758C220.666 257.415 229.305 266.054 239.962 266.054Z" fill="#00DC86"/>
<g style="mix-blend-mode:darken">
<path d="M176.179 194.783L166.309 188.454V178.701H133.919V188.454L124.049 194.783C122.678 195.732 121.939 196.864 121.939 198.036V229.177C121.939 231.198 134.552 233.413 150.111 233.413C165.671 233.413 178.283 231.198 178.283 229.177V198.036C178.283 196.87 177.545 195.732 176.174 194.783H176.179Z" fill="#BEF5FF"/>
</g>
<path opacity="0.84" d="M150.116 209.771C134.556 209.771 121.944 208.417 121.944 206.746V229.15C121.944 231.171 134.556 233.458 150.116 233.458C165.676 233.458 178.288 231.171 178.288 229.15V206.746C178.288 208.417 165.676 209.771 150.116 209.771Z" fill="#00A8E1"/>
<path d="M169.99 190.653C157.206 192.751 143.029 192.751 130.25 190.653V180.988H169.99V190.653Z" fill="#8FEAFF"/>
<g style="mix-blend-mode:screen" opacity="0.73">
<path d="M143.162 176.205H138.232L138.432 190.837L137.749 191.587C135.124 194.473 133.73 196.239 133.73 199.68V199.725C135.307 199.936 137.1 200.108 139.054 200.23V199.836C139.065 196.294 140.603 194.329 143.378 191.398L143.156 176.199L143.162 176.205Z" fill="#BEF5FF"/>
<path d="M143.162 176.205H138.232L138.432 190.837L137.749 191.587C135.124 194.473 133.73 196.239 133.73 199.68V199.725C135.307 199.936 137.1 200.108 139.054 200.23V199.836C139.065 196.294 140.603 194.329 143.378 191.398L143.156 176.199L143.162 176.205Z" stroke="black" stroke-width="0.437821" stroke-miterlimit="10"/>
</g>
<path opacity="0.6" d="M150.116 200.467C134.556 200.467 121.944 199.112 121.944 197.441V206.751C121.944 205.08 134.556 203.725 150.116 203.725C165.676 203.725 178.288 205.08 178.288 206.751V197.441C178.288 199.112 165.676 200.467 150.116 200.467Z" fill="#8FEAFF"/>
<path d="M171.578 187.439C157.14 189.132 142.368 189.132 127.93 187.439C127.425 187.439 127.02 187.167 127.02 186.834V177.946C127.02 175.548 129.939 173.605 133.548 173.605H165.966C169.569 173.605 172.494 175.548 172.494 177.946V186.834C172.494 187.167 172.089 187.439 171.584 187.439H171.578Z" fill="url(#paint84_linear_1_3850)" stroke="white" stroke-width="0.437821" stroke-miterlimit="10"/>
<g style="mix-blend-mode:screen" opacity="0.73">
<path d="M133.735 199.728L134.102 233.201C135.589 233.429 137.255 233.618 139.064 233.756V200.3L139.092 200.233C137.127 200.106 135.323 199.934 133.741 199.723L133.735 199.728Z" fill="#BEF5FF"/>
<path d="M133.735 199.728L134.102 233.201C135.589 233.429 137.255 233.618 139.064 233.756V200.3L139.092 200.233C137.127 200.106 135.323 199.934 133.741 199.723L133.735 199.728Z" stroke="black" stroke-width="0.437821" stroke-miterlimit="10"/>
</g>
<path d="M174.191 133.816L206.432 131.751L176.756 143.963L179.426 175.943L166.558 146.317L134.323 148.382L163.994 136.169L161.324 104.189L174.191 133.816Z" fill="#FFD066"/>
<path d="M613.78 299.753L633.764 325.133L606.875 307.614L582.056 327.953L599.153 300.553L579.175 275.173L606.059 292.687L630.883 272.348L613.78 299.753Z" fill="#FFD565"/>
<path d="M419.305 73.2662L441.065 75.6254L419.838 80.3383L417.917 101.999L412.755 80.7268L391 78.3732L412.222 73.6548L414.142 52L419.305 73.2662Z" fill="#FFD066"/>
<defs>
<radialGradient id="paint0_radial_1_3850" cx="0" cy="0" r="1" gradientUnits="userSpaceOnUse" gradientTransform="translate(522.836 -60.0458) rotate(126.093) scale(1083.88 1017.13)">
<stop stop-color="#EDFCFF"/>
<stop offset="0.437618" stop-color="#BEF5FF"/>
<stop offset="0.715196" stop-color="#0190CC"/>
</radialGradient>
<radialGradient id="paint1_radial_1_3850" cx="0" cy="0" r="1" gradientUnits="userSpaceOnUse" gradientTransform="translate(402.5 211.5) rotate(90) scale(193.5)">
<stop stop-color="white"/>
<stop offset="1" stop-color="white" stop-opacity="0"/>
</radialGradient>
<linearGradient id="paint2_linear_1_3850" x1="337.072" y1="88.0579" x2="352.798" y2="211.303" gradientUnits="userSpaceOnUse">
<stop stop-color="#F97803"/>
<stop offset="0.23" stop-color="#F97A06"/>
<stop offset="0.42" stop-color="#F98410"/>
<stop offset="0.61" stop-color="#FA9322"/>
<stop offset="0.78" stop-color="#FCA93B"/>
<stop offset="0.95" stop-color="#FEC65A"/>
<stop offset="1" stop-color="#FFD066"/>
</linearGradient>
<linearGradient id="paint3_linear_1_3850" x1="550.361" y1="316.191" x2="550.598" y2="462.646" gradientUnits="userSpaceOnUse">
<stop offset="0.32" stop-color="#00DC86"/>
<stop offset="0.78" stop-color="#23626A"/>
</linearGradient>
<linearGradient id="paint4_linear_1_3850" x1="135.312" y1="197.724" x2="74.7345" y2="474.985" gradientUnits="userSpaceOnUse">
<stop stop-color="#F0F4F8"/>
<stop offset="0.32" stop-color="#00DC86"/>
<stop offset="1" stop-color="#23626A"/>
</linearGradient>
<linearGradient id="paint5_linear_1_3850" x1="365.626" y1="200.146" x2="366.675" y2="419.37" gradientUnits="userSpaceOnUse">
<stop stop-color="#0088C3"/>
<stop offset="1" stop-color="#0F1F42"/>
</linearGradient>
<linearGradient id="paint6_linear_1_3850" x1="138.554" y1="438.454" x2="593.737" y2="438.454" gradientUnits="userSpaceOnUse">
<stop stop-color="#0088C3"/>
<stop offset="1" stop-color="#0F1F42"/>
</linearGradient>
<linearGradient id="paint7_linear_1_3850" x1="219.383" y1="200.845" x2="220.432" y2="420.068" gradientUnits="userSpaceOnUse">
<stop stop-color="#0088C3"/>
<stop offset="1" stop-color="#0F1F42"/>
</linearGradient>
<linearGradient id="paint8_linear_1_3850" x1="256.946" y1="200.661" x2="258.001" y2="419.89" gradientUnits="userSpaceOnUse">
<stop stop-color="#0088C3"/>
<stop offset="1" stop-color="#0F1F42"/>
</linearGradient>
<linearGradient id="paint9_linear_1_3850" x1="283.941" y1="200.534" x2="284.99" y2="419.757" gradientUnits="userSpaceOnUse">
<stop stop-color="#0088C3"/>
<stop offset="1" stop-color="#0F1F42"/>
</linearGradient>
<linearGradient id="paint10_linear_1_3850" x1="310.93" y1="200.408" x2="311.985" y2="419.631" gradientUnits="userSpaceOnUse">
<stop stop-color="#0088C3"/>
<stop offset="1" stop-color="#0F1F42"/>
</linearGradient>
<linearGradient id="paint11_linear_1_3850" x1="365.042" y1="200.145" x2="366.097" y2="419.369" gradientUnits="userSpaceOnUse">
<stop stop-color="#0088C3"/>
<stop offset="1" stop-color="#0F1F42"/>
</linearGradient>
<linearGradient id="paint12_linear_1_3850" x1="337.926" y1="200.278" x2="338.975" y2="419.502" gradientUnits="userSpaceOnUse">
<stop stop-color="#0088C3"/>
<stop offset="1" stop-color="#0F1F42"/>
</linearGradient>
<linearGradient id="paint13_linear_1_3850" x1="392.182" y1="200.019" x2="393.231" y2="419.243" gradientUnits="userSpaceOnUse">
<stop stop-color="#0088C3"/>
<stop offset="1" stop-color="#0F1F42"/>
</linearGradient>
<linearGradient id="paint14_linear_1_3850" x1="419.17" y1="199.886" x2="420.225" y2="419.11" gradientUnits="userSpaceOnUse">
<stop stop-color="#0088C3"/>
<stop offset="1" stop-color="#0F1F42"/>
</linearGradient>
<linearGradient id="paint15_linear_1_3850" x1="446.167" y1="199.758" x2="447.216" y2="418.982" gradientUnits="userSpaceOnUse">
<stop stop-color="#0088C3"/>
<stop offset="1" stop-color="#0F1F42"/>
</linearGradient>
<linearGradient id="paint16_linear_1_3850" x1="473.155" y1="199.631" x2="474.21" y2="418.854" gradientUnits="userSpaceOnUse">
<stop stop-color="#0088C3"/>
<stop offset="1" stop-color="#0F1F42"/>
</linearGradient>
<linearGradient id="paint17_linear_1_3850" x1="227.587" y1="200.807" x2="228.636" y2="420.03" gradientUnits="userSpaceOnUse">
<stop stop-color="#0088C3"/>
<stop offset="1" stop-color="#0F1F42"/>
</linearGradient>
<linearGradient id="paint18_linear_1_3850" x1="201.524" y1="200.929" x2="202.573" y2="420.152" gradientUnits="userSpaceOnUse">
<stop stop-color="#0088C3"/>
<stop offset="1" stop-color="#0F1F42"/>
</linearGradient>
<linearGradient id="paint19_linear_1_3850" x1="253.504" y1="200.679" x2="254.554" y2="419.908" gradientUnits="userSpaceOnUse">
<stop stop-color="#0088C3"/>
<stop offset="1" stop-color="#0F1F42"/>
</linearGradient>
<linearGradient id="paint20_linear_1_3850" x1="502.748" y1="199.486" x2="503.802" y2="418.709" gradientUnits="userSpaceOnUse">
<stop stop-color="#0088C3"/>
<stop offset="1" stop-color="#0F1F42"/>
</linearGradient>
<linearGradient id="paint21_linear_1_3850" x1="477.497" y1="199.61" x2="478.551" y2="418.831" gradientUnits="userSpaceOnUse">
<stop stop-color="#0088C3"/>
<stop offset="1" stop-color="#0F1F42"/>
</linearGradient>
<linearGradient id="paint22_linear_1_3850" x1="529.894" y1="199.36" x2="530.949" y2="418.581" gradientUnits="userSpaceOnUse">
<stop stop-color="#0088C3"/>
<stop offset="1" stop-color="#0F1F42"/>
</linearGradient>
<linearGradient id="paint23_linear_1_3850" x1="280.499" y1="200.552" x2="281.549" y2="419.774" gradientUnits="userSpaceOnUse">
<stop stop-color="#0088C3"/>
<stop offset="1" stop-color="#0F1F42"/>
</linearGradient>
<linearGradient id="paint24_linear_1_3850" x1="449.546" y1="199.741" x2="450.601" y2="418.964" gradientUnits="userSpaceOnUse">
<stop stop-color="#0088C3"/>
<stop offset="1" stop-color="#0F1F42"/>
</linearGradient>
<linearGradient id="paint25_linear_1_3850" x1="510.725" y1="199.448" x2="511.775" y2="418.671" gradientUnits="userSpaceOnUse">
<stop stop-color="#0088C3"/>
<stop offset="1" stop-color="#0F1F42"/>
</linearGradient>
<linearGradient id="paint26_linear_1_3850" x1="219.259" y1="200.846" x2="220.314" y2="420.069" gradientUnits="userSpaceOnUse">
<stop stop-color="#0088C3"/>
<stop offset="1" stop-color="#0F1F42"/>
</linearGradient>
<linearGradient id="paint27_linear_1_3850" x1="275.365" y1="200.578" x2="276.414" y2="419.801" gradientUnits="userSpaceOnUse">
<stop stop-color="#0088C3"/>
<stop offset="1" stop-color="#0F1F42"/>
</linearGradient>
<linearGradient id="paint28_linear_1_3850" x1="249.419" y1="200.7" x2="250.468" y2="419.923" gradientUnits="userSpaceOnUse">
<stop stop-color="#0088C3"/>
<stop offset="1" stop-color="#0F1F42"/>
</linearGradient>
<linearGradient id="paint29_linear_1_3850" x1="301.31" y1="200.45" x2="302.359" y2="419.673" gradientUnits="userSpaceOnUse">
<stop stop-color="#0088C3"/>
<stop offset="1" stop-color="#0F1F42"/>
</linearGradient>
<linearGradient id="paint30_linear_1_3850" x1="327.255" y1="200.328" x2="328.304" y2="419.551" gradientUnits="userSpaceOnUse">
<stop stop-color="#0088C3"/>
<stop offset="1" stop-color="#0F1F42"/>
</linearGradient>
<linearGradient id="paint31_linear_1_3850" x1="379.398" y1="200.078" x2="380.447" y2="419.301" gradientUnits="userSpaceOnUse">
<stop stop-color="#0088C3"/>
<stop offset="1" stop-color="#0F1F42"/>
</linearGradient>
<linearGradient id="paint32_linear_1_3850" x1="353.202" y1="200.2" x2="354.251" y2="419.424" gradientUnits="userSpaceOnUse">
<stop stop-color="#0088C3"/>
<stop offset="1" stop-color="#0F1F42"/>
</linearGradient>
<linearGradient id="paint33_linear_1_3850" x1="405.342" y1="199.95" x2="406.391" y2="419.174" gradientUnits="userSpaceOnUse">
<stop stop-color="#0088C3"/>
<stop offset="1" stop-color="#0F1F42"/>
</linearGradient>
<linearGradient id="paint34_linear_1_3850" x1="431.289" y1="199.828" x2="432.344" y2="419.052" gradientUnits="userSpaceOnUse">
<stop stop-color="#0088C3"/>
<stop offset="1" stop-color="#0F1F42"/>
</linearGradient>
<linearGradient id="paint35_linear_1_3850" x1="457.234" y1="199.701" x2="458.289" y2="418.924" gradientUnits="userSpaceOnUse">
<stop stop-color="#0088C3"/>
<stop offset="1" stop-color="#0F1F42"/>
</linearGradient>
<linearGradient id="paint36_linear_1_3850" x1="483.18" y1="199.578" x2="484.235" y2="418.802" gradientUnits="userSpaceOnUse">
<stop stop-color="#0088C3"/>
<stop offset="1" stop-color="#0F1F42"/>
</linearGradient>
<linearGradient id="paint37_linear_1_3850" x1="248.149" y1="200.704" x2="249.204" y2="419.93" gradientUnits="userSpaceOnUse">
<stop stop-color="#0088C3"/>
<stop offset="1" stop-color="#0F1F42"/>
</linearGradient>
<linearGradient id="paint38_linear_1_3850" x1="224.761" y1="200.815" x2="225.816" y2="420.041" gradientUnits="userSpaceOnUse">
<stop stop-color="#0088C3"/>
<stop offset="1" stop-color="#0F1F42"/>
</linearGradient>
<linearGradient id="paint39_linear_1_3850" x1="271.535" y1="200.593" x2="272.59" y2="419.819" gradientUnits="userSpaceOnUse">
<stop stop-color="#0088C3"/>
<stop offset="1" stop-color="#0F1F42"/>
</linearGradient>
<linearGradient id="paint40_linear_1_3850" x1="294.922" y1="200.482" x2="295.977" y2="419.708" gradientUnits="userSpaceOnUse">
<stop stop-color="#0088C3"/>
<stop offset="1" stop-color="#0F1F42"/>
</linearGradient>
<linearGradient id="paint41_linear_1_3850" x1="341.695" y1="200.254" x2="342.75" y2="419.48" gradientUnits="userSpaceOnUse">
<stop stop-color="#0088C3"/>
<stop offset="1" stop-color="#0F1F42"/>
</linearGradient>
<linearGradient id="paint42_linear_1_3850" x1="318.308" y1="200.365" x2="319.363" y2="419.597" gradientUnits="userSpaceOnUse">
<stop stop-color="#0088C3"/>
<stop offset="1" stop-color="#0F1F42"/>
</linearGradient>
<linearGradient id="paint43_linear_1_3850" x1="365.121" y1="200.143" x2="366.175" y2="419.369" gradientUnits="userSpaceOnUse">
<stop stop-color="#0088C3"/>
<stop offset="1" stop-color="#0F1F42"/>
</linearGradient>
<linearGradient id="paint44_linear_1_3850" x1="388.552" y1="200.032" x2="389.607" y2="419.258" gradientUnits="userSpaceOnUse">
<stop stop-color="#0088C3"/>
<stop offset="1" stop-color="#0F1F42"/>
</linearGradient>
<linearGradient id="paint45_linear_1_3850" x1="411.939" y1="199.921" x2="412.994" y2="419.147" gradientUnits="userSpaceOnUse">
<stop stop-color="#0088C3"/>
<stop offset="1" stop-color="#0F1F42"/>
</linearGradient>
<linearGradient id="paint46_linear_1_3850" x1="435.326" y1="199.804" x2="436.381" y2="419.031" gradientUnits="userSpaceOnUse">
<stop stop-color="#0088C3"/>
<stop offset="1" stop-color="#0F1F42"/>
</linearGradient>
<linearGradient id="paint47_linear_1_3850" x1="458.713" y1="199.693" x2="459.767" y2="418.92" gradientUnits="userSpaceOnUse">
<stop stop-color="#0088C3"/>
<stop offset="1" stop-color="#0F1F42"/>
</linearGradient>
<linearGradient id="paint48_linear_1_3850" x1="482.098" y1="199.582" x2="483.153" y2="418.809" gradientUnits="userSpaceOnUse">
<stop stop-color="#0088C3"/>
<stop offset="1" stop-color="#0F1F42"/>
</linearGradient>
<linearGradient id="paint49_linear_1_3850" x1="505.491" y1="199.471" x2="506.54" y2="418.698" gradientUnits="userSpaceOnUse">
<stop stop-color="#0088C3"/>
<stop offset="1" stop-color="#0F1F42"/>
</linearGradient>
<linearGradient id="paint50_linear_1_3850" x1="512.102" y1="199.441" x2="513.157" y2="418.665" gradientUnits="userSpaceOnUse">
<stop stop-color="#0088C3"/>
<stop offset="1" stop-color="#0F1F42"/>
</linearGradient>
<linearGradient id="paint51_linear_1_3850" x1="221.842" y1="200.834" x2="222.891" y2="420.057" gradientUnits="userSpaceOnUse">
<stop stop-color="#0088C3"/>
<stop offset="1" stop-color="#0F1F42"/>
</linearGradient>
<linearGradient id="paint52_linear_1_3850" x1="272.883" y1="200.588" x2="273.938" y2="419.811" gradientUnits="userSpaceOnUse">
<stop stop-color="#0088C3"/>
<stop offset="1" stop-color="#0F1F42"/>
</linearGradient>
<linearGradient id="paint53_linear_1_3850" x1="247.903" y1="200.705" x2="248.958" y2="419.928" gradientUnits="userSpaceOnUse">
<stop stop-color="#0088C3"/>
<stop offset="1" stop-color="#0F1F42"/>
</linearGradient>
<linearGradient id="paint54_linear_1_3850" x1="297.863" y1="200.466" x2="298.912" y2="419.689" gradientUnits="userSpaceOnUse">
<stop stop-color="#0088C3"/>
<stop offset="1" stop-color="#0F1F42"/>
</linearGradient>
<linearGradient id="paint55_linear_1_3850" x1="322.843" y1="200.349" x2="323.892" y2="419.572" gradientUnits="userSpaceOnUse">
<stop stop-color="#0088C3"/>
<stop offset="1" stop-color="#0F1F42"/>
</linearGradient>
<linearGradient id="paint56_linear_1_3850" x1="372.997" y1="200.105" x2="374.052" y2="419.328" gradientUnits="userSpaceOnUse">
<stop stop-color="#0088C3"/>
<stop offset="1" stop-color="#0F1F42"/>
</linearGradient>
<linearGradient id="paint57_linear_1_3850" x1="347.818" y1="200.227" x2="348.872" y2="419.45" gradientUnits="userSpaceOnUse">
<stop stop-color="#0088C3"/>
<stop offset="1" stop-color="#0F1F42"/>
</linearGradient>
<linearGradient id="paint58_linear_1_3850" x1="398.004" y1="199.988" x2="399.059" y2="419.212" gradientUnits="userSpaceOnUse">
<stop stop-color="#0088C3"/>
<stop offset="1" stop-color="#0F1F42"/>
</linearGradient>
<linearGradient id="paint59_linear_1_3850" x1="422.985" y1="199.866" x2="424.034" y2="419.09" gradientUnits="userSpaceOnUse">
<stop stop-color="#0088C3"/>
<stop offset="1" stop-color="#0F1F42"/>
</linearGradient>
<linearGradient id="paint60_linear_1_3850" x1="447.964" y1="199.744" x2="449.013" y2="418.973" gradientUnits="userSpaceOnUse">
<stop stop-color="#0088C3"/>
<stop offset="1" stop-color="#0F1F42"/>
</linearGradient>
<linearGradient id="paint61_linear_1_3850" x1="472.944" y1="199.628" x2="473.993" y2="418.851" gradientUnits="userSpaceOnUse">
<stop stop-color="#0088C3"/>
<stop offset="1" stop-color="#0F1F42"/>
</linearGradient>
<linearGradient id="paint62_linear_1_3850" x1="503.747" y1="199.479" x2="504.796" y2="418.703" gradientUnits="userSpaceOnUse">
<stop stop-color="#0088C3"/>
<stop offset="1" stop-color="#0F1F42"/>
</linearGradient>
<linearGradient id="paint63_linear_1_3850" x1="365.015" y1="200.146" x2="366.064" y2="419.369" gradientUnits="userSpaceOnUse">
<stop stop-color="#0088C3"/>
<stop offset="1" stop-color="#0F1F42"/>
</linearGradient>
<linearGradient id="paint64_linear_1_3850" x1="330.291" y1="270.593" x2="335.58" y2="283.914" gradientUnits="userSpaceOnUse">
<stop stop-color="#BEF5FF"/>
<stop offset="1" stop-color="#0088C3"/>
</linearGradient>
<linearGradient id="paint65_linear_1_3850" x1="317.952" y1="283.233" x2="320.425" y2="295.987" gradientUnits="userSpaceOnUse">
<stop stop-color="#BEF5FF"/>
<stop offset="1" stop-color="#0088C3"/>
</linearGradient>
<linearGradient id="paint66_linear_1_3850" x1="291.786" y1="276.949" x2="296.806" y2="313.856" gradientUnits="userSpaceOnUse">
<stop offset="0.3" stop-color="#BEF5FF"/>
<stop offset="0.47" stop-color="#8CD8EF"/>
<stop offset="0.84" stop-color="#289FCF"/>
<stop offset="1" stop-color="#0088C3"/>
</linearGradient>
<linearGradient id="paint67_linear_1_3850" x1="293.846" y1="277.955" x2="300.192" y2="364.358" gradientUnits="userSpaceOnUse">
<stop offset="0.25" stop-color="#DE97FF"/>
<stop offset="1" stop-color="#A827D8"/>
</linearGradient>
<linearGradient id="paint68_linear_1_3850" x1="282.684" y1="313.443" x2="273.546" y2="337.467" gradientUnits="userSpaceOnUse">
<stop stop-color="#0088C3"/>
<stop offset="1" stop-color="#0F1F42"/>
</linearGradient>
<linearGradient id="paint69_linear_1_3850" x1="300.671" y1="287.869" x2="304.491" y2="323.367" gradientUnits="userSpaceOnUse">
<stop offset="0.47" stop-color="#DE97FF"/>
<stop offset="0.53" stop-color="#B940DD"/>
<stop offset="1" stop-color="#8C00BC"/>
</linearGradient>
<linearGradient id="paint70_linear_1_3850" x1="286.362" y1="278.505" x2="292.707" y2="364.908" gradientUnits="userSpaceOnUse">
<stop offset="0.14" stop-color="#F0F4F8"/>
<stop offset="0.44" stop-color="#DE97FF"/>
<stop offset="0.83" stop-color="#A827D8"/>
</linearGradient>
<linearGradient id="paint71_linear_1_3850" x1="275.001" y1="339.431" x2="285.636" y2="338.65" gradientUnits="userSpaceOnUse">
<stop stop-color="#0F1F42"/>
<stop offset="1" stop-color="#0F1F42"/>
</linearGradient>
<linearGradient id="paint72_linear_1_3850" x1="325.189" y1="285.229" x2="329.01" y2="320.732" gradientUnits="userSpaceOnUse">
<stop stop-color="#DE97FF"/>
<stop offset="0.53" stop-color="#B940DD"/>
<stop offset="1" stop-color="#8C00BC"/>
</linearGradient>
<linearGradient id="paint73_linear_1_3850" x1="345.777" y1="139.516" x2="338.067" y2="89.3957" gradientUnits="userSpaceOnUse">
<stop stop-color="#0088C3"/>
<stop offset="1" stop-color="#0F1F42"/>
</linearGradient>
<linearGradient id="paint74_linear_1_3850" x1="281.95" y1="160.856" x2="281.95" y2="138.174" gradientUnits="userSpaceOnUse">
<stop stop-color="#0088C3"/>
<stop offset="1" stop-color="#0F1F42"/>
</linearGradient>
<linearGradient id="paint75_linear_1_3850" x1="281.95" y1="160.854" x2="281.95" y2="138.172" gradientUnits="userSpaceOnUse">
<stop stop-color="#0088C3"/>
<stop offset="1" stop-color="#0F1F42"/>
</linearGradient>
<linearGradient id="paint76_linear_1_3850" x1="495.849" y1="103.455" x2="509.179" y2="124.134" gradientUnits="userSpaceOnUse">
<stop offset="0.29" stop-color="#BEF5FF"/>
<stop offset="0.61" stop-color="white"/>
</linearGradient>
<linearGradient id="paint77_linear_1_3850" x1="494.744" y1="80.5342" x2="501.739" y2="171.468" gradientUnits="userSpaceOnUse">
<stop offset="0.34" stop-color="white"/>
<stop offset="0.64" stop-color="#BEF5FF"/>
</linearGradient>
<linearGradient id="paint78_linear_1_3850" x1="135.928" y1="119.717" x2="220.66" y2="295.636" gradientUnits="userSpaceOnUse">
<stop offset="0.36" stop-color="white"/>
<stop offset="1" stop-color="#BEF5FF"/>
</linearGradient>
<linearGradient id="paint79_linear_1_3850" x1="207.904" y1="194.318" x2="207.904" y2="185.853" gradientUnits="userSpaceOnUse">
<stop offset="0.2" stop-color="#BEF5FF"/>
<stop offset="0.76" stop-color="#39C7DF"/>
</linearGradient>
<linearGradient id="paint80_linear_1_3850" x1="207.709" y1="170.254" x2="207.709" y2="181.484" gradientUnits="userSpaceOnUse">
<stop offset="0.25" stop-color="#DE97FF"/>
<stop offset="1" stop-color="#A827D8"/>
</linearGradient>
<linearGradient id="paint81_linear_1_3850" x1="207.709" y1="167.678" x2="207.709" y2="196.921" gradientUnits="userSpaceOnUse">
<stop offset="0.25" stop-color="#DE97FF"/>
<stop offset="1" stop-color="#A827D8"/>
</linearGradient>
<linearGradient id="paint82_linear_1_3850" x1="207.71" y1="167.678" x2="207.71" y2="196.921" gradientUnits="userSpaceOnUse">
<stop offset="0.25" stop-color="#DE97FF"/>
<stop offset="1" stop-color="#A827D8"/>
</linearGradient>
<linearGradient id="paint83_linear_1_3850" x1="207.709" y1="172.225" x2="207.709" y2="182.683" gradientUnits="userSpaceOnUse">
<stop offset="0.4" stop-color="#DE97FF"/>
<stop offset="1" stop-color="#A827D8"/>
</linearGradient>
<linearGradient id="paint84_linear_1_3850" x1="136.828" y1="167.494" x2="158.594" y2="191.713" gradientUnits="userSpaceOnUse">
<stop offset="0.25" stop-color="#DE97FF"/>
<stop offset="1" stop-color="#A827D8"/>
</linearGradient>
</defs>
</svg>
