<svg width="308" height="465" viewBox="0 0 308 465" fill="none" xmlns="http://www.w3.org/2000/svg">
<path d="M290.109 35L479.832 144.537V363.61L290.109 473.147L100.385 363.61V144.537L290.109 35Z" fill="#019DD8"/>
<path d="M293.312 400.783C392.732 352.013 466.031 297.603 457.031 279.254C448.03 260.905 360.137 285.566 260.717 334.337C161.296 383.107 87.9968 437.517 96.9977 455.866C105.999 474.215 193.891 449.553 293.312 400.783Z" fill="url(#paint0_linear_2049_7662)"/>
<path d="M231.267 173.563L265.123 154.263L288.069 147.98L330.698 164.923L338.115 211.479V396.572L255.972 431.671L231.267 173.563Z" fill="url(#paint1_linear_2049_7662)"/>
<path d="M305.713 306.06H302.782L254.885 164.924L302.782 160.48L305.713 306.06Z" fill="url(#paint2_linear_2049_7662)"/>
<path d="M267.906 186.788C265.16 177.451 275.621 178.546 272.117 188.3C276.005 179.793 283.274 190.244 275.289 192.236C284.009 190.059 280.026 203.645 274.549 197.67C279.31 202.862 269.011 208.771 269.499 199.875C267.849 207.875 258.977 200.638 264.876 197.148C257.92 201.264 257.716 187.186 264.876 190.553C257.028 186.859 266.45 177.825 267.906 186.783V186.788Z" fill="white"/>
<path d="M264.407 149.013C264.407 149.013 249.973 159.734 247.754 166.401C247.754 166.401 260.742 172.883 257.162 177.596C253.582 182.31 249.561 198.442 249.561 198.442L302.783 306.053C302.783 306.053 261.804 177.426 264.403 149.008L264.407 149.013Z" fill="url(#paint3_linear_2049_7662)"/>
<path d="M62.7931 59.9898L23.54 83.0589V30.78L62.7931 7.71094V59.9898Z" fill="url(#paint4_linear_2049_7662)"/>
<path d="M96.7397 135.253C96.6306 130.829 97.7165 118.396 97.9821 116.234C98.4373 112.549 99.8456 109.277 99.5611 105.536C98.1575 105.285 96.7539 106.129 95.8198 107.172C94.8572 108.243 92.7471 115.84 92.1591 117.158C91.6896 117.139 91.8129 115.774 91.6991 115.314C89.845 108.13 87.6306 94.6296 86.2744 87.3367C85.4399 86.9621 84.4109 87.4315 83.8893 88.1855C83.3677 88.9394 83.2397 89.8925 83.197 90.8077C82.8888 96.8962 85.4114 102.937 84.6385 108.988C81.2196 108.115 78.7491 110.017 78.6021 114.887C77.8909 113.839 76.7718 114.09 75.9182 115.029C74.6901 116.371 73.8508 118.832 73.0115 119.78C72.6843 120.146 72.2575 120.421 71.9825 120.828C71.679 121.279 71.5937 121.834 71.532 122.374C71.1574 125.693 71.4988 125.584 72.3856 128.804C72.6701 129.838 76.2786 133.413 75.8993 132.408C77.1416 136.799 76.7291 138.321 80.442 143.371C82.2534 145.837 83.8134 151.518 84.923 154.372C85.0273 154.638 85.1411 154.917 85.3687 155.093C85.5964 155.264 85.8951 155.302 86.1843 155.321C88.3134 155.482 90.4662 155.268 92.5194 154.69C93.2734 154.477 94.0368 154.206 94.6248 153.685C95.1275 153.239 95.4689 152.641 95.7676 152.039C97.0289 149.483 97.6549 146.615 97.5743 143.76C97.5031 141.214 96.8061 137.799 96.7444 135.253H96.7397Z" fill="#FEE2CC"/>
<path d="M62.793 59.9898L102.046 83.0589V30.78L62.793 7.71094V59.9898Z" fill="#FFD066"/>
<path d="M23.54 83.0604L62.7931 106.13L102.046 83.0652L62.7931 59.9961L23.54 83.0604Z" fill="#C69024"/>
<path d="M175.402 151.38C172.434 144.708 174.976 136.405 180.381 131.497C185.787 126.59 193.488 124.773 200.767 125.309C208.102 125.845 215.419 128.733 220.464 134.086C226.022 139.981 223.437 150.92 226.32 158.635C229.587 167.384 235.107 175.198 241.248 182.164C251.822 194.166 264.45 204.669 272.198 218.662C281.591 235.628 284.65 259.779 278.841 278.414C278.092 280.818 277.162 283.265 277.409 285.769C277.722 288.927 279.865 291.639 280.396 294.769C281.506 301.255 275.749 306.571 271.733 311.787C268.271 316.292 265.877 321.508 263.511 326.672C255.151 317.629 246.478 308.013 243.671 296.02C240.996 284.612 242.756 274.763 233.95 266.09C225.604 257.872 218.117 248.82 212.194 238.692C206.296 228.596 201.539 217.88 196.798 207.191C194.441 201.876 192.075 196.551 190.297 191.012C186.318 178.641 185.043 164.856 176.962 154.68C176.256 153.794 175.862 152.414 175.402 151.375V151.38Z" fill="url(#paint5_linear_2049_7662)"/>
<path d="M137.757 461.298C137.757 461.298 152.76 308.739 152.12 288.159C151.48 267.579 149.46 249.01 149.46 249.01C149.46 249.01 101.027 247.379 94.1699 242.746C94.1699 242.746 84.8853 211.796 74.3916 154.126C74.3916 154.126 94.5729 146.582 99.4143 136.652L119.193 208.283C119.193 208.283 139.843 213.091 152.12 209.862C164.397 206.633 205.561 194.93 217.263 195.333C217.263 195.333 243.092 209.056 248.342 214.703C248.342 214.703 256.412 232.689 264.891 270.515C273.369 308.34 288.301 358.988 288.301 358.988C288.301 358.988 281.843 368.472 269.334 370.492L275.389 412.305C275.389 412.305 189.424 469.777 137.766 461.303L137.757 461.298Z" fill="white"/>
<path d="M159.323 464.704L166.185 361.214L171.68 289.986H203.328C203.328 289.986 201.042 364.798 204.812 398.304L208.956 455.51L159.323 464.7V464.704Z" fill="url(#paint6_linear_2049_7662)"/>
<path d="M201.137 330.195H169.494L158.332 238.929L184.559 206.603L217.264 195.332L201.137 330.195Z" fill="url(#paint7_linear_2049_7662)"/>
<path d="M182.539 184.023C183.985 190.898 185.133 197.84 185.986 204.816C186.034 205.19 186.072 205.589 185.891 205.921C185.64 206.371 185.076 206.523 184.564 206.603C183.449 206.784 182.316 206.831 181.192 206.755C179.746 211.966 179.589 217.851 179.789 223.257C179.955 227.733 180.998 232.693 184.687 235.235C185.517 235.808 186.475 236.235 187.48 236.325C189.694 236.524 191.714 235.107 193.365 233.613C198.78 228.705 202.644 222.27 205.38 215.49C208.116 208.709 209.781 201.553 211.336 194.412C209.373 192.596 206.646 190.448 205.769 187.92C204.157 183.278 204.679 178.057 202.768 173.534C202.336 172.514 201.762 171.514 200.866 170.864C199.885 170.148 198.623 169.935 197.409 169.916C193.957 169.859 190.505 171.286 188.101 173.766C185.697 176.246 181.837 180.642 182.544 184.023H182.539Z" fill="#FEE2CC"/>
<path d="M263.961 376.03L264.245 389.492C264.25 389.757 264.264 390.042 264.43 390.25C264.89 390.824 265.796 390.203 266.166 389.563C266.858 388.368 269.153 378.846 270.419 380.515C271.23 381.582 271.344 383.009 271.42 384.347C271.719 389.809 271.837 395.281 271.766 400.753C271.747 402.076 273.345 402.788 274.308 401.877C274.881 401.327 275.308 400.659 275.536 399.677C274.905 400.46 276.133 401.612 277.086 401.299C278.039 400.986 278.528 399.952 278.888 399.018C280.187 395.647 281.202 392.166 281.928 388.624C281.553 389.387 282.8 390.099 283.521 389.648C284.242 389.198 284.436 388.254 284.564 387.415C285.261 382.82 285.963 378.168 285.555 373.535C285.342 371.07 284.806 368.613 283.815 366.347C282.568 363.492 280.088 361.173 279.206 358.191C278.499 355.791 277.689 353.42 276.517 351.211C276.005 350.243 275.536 349.153 274.696 348.399C272.989 346.872 270.14 347.251 268.428 348.778C266.716 350.305 265.986 352.662 265.782 354.947C265.578 357.233 265.839 359.528 265.749 361.818C265.53 367.328 263.838 370.519 263.956 376.034L263.961 376.03Z" fill="#FEE2CC"/>
<path d="M240.029 269.168C244.259 311.233 252.259 347.423 260.23 372.142C264.156 372.768 268.248 372.289 271.923 370.767C271.923 370.767 286.148 364.555 288.301 358.993" fill="white"/>
<path d="M240.029 269.168C244.259 311.233 252.259 347.423 260.23 372.142C264.156 372.768 268.248 372.289 271.923 370.767C271.923 370.767 286.148 364.555 288.301 358.993" stroke="#264F85" stroke-width="0.474185" stroke-miterlimit="10"/>
<path d="M205.765 187.921L217.264 195.332C217.264 195.332 228.564 219.549 236.231 224.39C236.231 224.39 219.08 238.9 220.996 242.746C220.996 242.746 234.211 246.995 236.231 252.642C236.231 252.642 201.123 351.42 203.143 372.402C203.143 372.402 199.221 288.965 205.822 254.658C212.422 220.35 209.478 195.328 209.478 195.328L205.765 187.916V187.921Z" fill="url(#paint8_linear_2049_7662)"/>
<g style="mix-blend-mode:darken" opacity="0.22">
<path d="M110.647 218.738C118.381 215.722 128.534 211.516 130.506 209.856C122.398 209.581 124.783 209.207 119.192 208.277C119.268 212.483 117.357 213.508 110.647 218.738Z" fill="#0088C7"/>
</g>
<path d="M245.638 214.301C243.291 220.698 242.091 227.512 242.12 234.326" stroke="#264F85" stroke-width="0.474185" stroke-miterlimit="10"/>
<path d="M247.175 350.672C238.132 352.289 228.9 352.829 219.734 352.284C219.25 361.18 220.602 370.706 223.442 379.151C224.595 382.575 226.245 386.174 229.46 387.82C230.531 388.365 231.712 388.659 232.893 388.877C235.928 389.436 239.247 389.498 241.907 387.929C246.104 385.458 247.232 380.005 247.948 375.192" stroke="#264F85" stroke-width="0.474185" stroke-miterlimit="10"/>
<path d="M219.203 360.554C228.839 362.797 239.071 362.384 248.498 359.383" stroke="#264F85" stroke-width="0.474185" stroke-miterlimit="10"/>
<path d="M251.243 105.464C251.418 106.493 251.803 107.532 251.58 108.547C251.404 109.334 250.892 109.988 250.484 110.685C249.247 112.795 248.976 115.313 248.735 117.751L247.824 126.907C247.739 127.756 247.663 128.652 248.033 129.416C248.578 130.539 249.887 131.028 251.087 131.369C258.1 133.365 265.554 133.783 272.743 132.588C276.304 131.995 277.238 127.367 278.205 123.891C280.187 125.375 282.639 123.607 284.422 121.885C287.404 119.002 289.33 114.374 287.456 110.671C286.418 108.618 284.431 107.243 282.937 105.493C280.14 102.216 279.04 97.5835 275.673 94.8996C274.322 93.8185 272.695 93.1404 271.04 92.6283C268.475 91.8364 265.748 91.4191 263.098 91.8364C260.447 92.2537 257.872 93.5672 256.284 95.7295C255.255 97.1283 250.807 102.871 251.248 105.46L251.243 105.464Z" fill="#FEE2CC"/>
<path d="M262.785 133.585C262.785 133.585 264.459 136.169 264.459 144.083C264.459 151.997 263.79 163.444 265.464 168.352C265.464 168.352 285.717 182.985 297.097 163.729L294.755 154.122C294.755 154.122 289.823 155.905 286.765 140.901L281.781 118.662L262.785 133.585Z" fill="#FEE2CC"/>
<path d="M256.114 87.4225C253.141 90.2771 250.874 93.862 249.565 97.7693C252.003 97.755 254.459 97.7835 256.835 98.324C259.718 98.9784 262.378 100.363 265 101.733L272.222 105.503C273.36 104.09 274.655 102.895 275.475 101.273C277.424 105.508 278.481 110.24 277.784 114.854C278.476 114.356 279.188 113.849 279.999 113.588C280.809 113.327 281.763 113.346 282.455 113.849C283.275 114.446 283.541 115.556 283.531 116.571C283.508 119.7 282.071 122.749 279.074 123.646C278.6 123.788 277.784 123.536 277.234 123.058C276.224 124.167 275.959 126.638 276.414 128.07C276.869 129.502 278.13 130.644 279.596 130.957C280.316 131.114 281.075 131.081 281.786 131.285C282.498 131.489 283.195 132.034 283.233 132.769C283.285 133.722 282.303 134.248 281.985 135.083C281.563 136.183 281.753 137.53 282.379 138.511C283.308 139.967 285.044 140.764 286.765 140.896C288.487 141.029 290.203 140.574 291.82 139.981C293.594 139.332 295.348 138.473 296.638 137.093C297.297 136.387 297.818 135.562 298.255 134.699C298.644 133.931 298.971 133.049 298.715 132.228C298.572 131.773 298.259 131.384 298.155 130.92C297.747 129.094 301.418 128.971 302.451 128.828C304.258 128.582 306.102 127.923 307.278 126.524C308.454 125.125 308.701 122.863 307.468 121.521C306.363 120.321 304.263 119.904 303.95 118.306C303.627 116.642 305.529 115.527 306.615 114.228C307.762 112.858 308.061 110.838 307.364 109.192C306.667 107.547 305.002 106.357 303.224 106.229C301.806 106.124 300.099 106.537 299.179 105.461C298.767 104.972 298.653 104.308 298.516 103.687C297.572 99.3246 294.703 95.4173 290.829 93.2076C284.214 89.4378 278.638 84.6296 271.108 83.4821C266.423 82.766 259.533 84.1364 256.114 87.4178V87.4225Z" fill="#F97803"/>
<path d="M255.004 88.4666C255.004 88.4666 254.795 78.7316 258.821 70.8933C258.821 70.8933 287.395 69.5609 300.71 96.9261L298.596 103.517C298.596 103.517 263.293 83.9998 255.009 88.4666H255.004Z" fill="url(#paint9_linear_2049_7662)"/>
<path d="M288.068 146.032C288.068 146.032 311.588 156.014 315.533 164.99L305.713 177.599L320.09 181.871C320.09 181.871 311.92 289.653 305.713 306.055C305.713 306.055 299.847 172.435 294.754 154.117C294.754 154.117 289.581 155.668 288.068 146.027V146.032Z" fill="url(#paint10_linear_2049_7662)"/>
<path d="M250.646 107.211L251.069 106.039C251.069 106.039 251.628 105.631 253.207 106.551" stroke="#C69024" stroke-width="0.474185" stroke-miterlimit="10" stroke-linecap="round"/>
<path d="M252.78 107.591C252.112 107.207 251.775 106.638 250.779 106.657C250.77 106.723 250.22 107.012 250.215 107.083C250.386 107.121 250.542 107.169 250.623 107.249C250.623 107.249 250.442 107.795 250.623 108.354C250.945 108.781 251.405 109.013 251.86 108.914C252.396 108.795 252.747 108.25 252.78 107.591Z" fill="#C69024"/>
<path d="M254.179 108.771C254.179 108.771 252.074 105.85 249.267 106.988C249.267 106.988 250.338 106.95 250.613 107.225C250.613 107.225 250.234 106.585 250.613 107.225" stroke="#C69024" stroke-width="0.474185" stroke-miterlimit="10" stroke-linecap="round"/>
<path d="M166.654 241.944C163.909 232.607 174.369 233.702 170.865 243.456C174.753 234.95 182.022 245.401 174.037 247.392C182.757 245.216 178.774 258.801 173.297 252.826C178.058 258.019 167.759 263.927 168.247 255.031C166.597 263.031 157.725 255.795 163.624 252.305C156.668 256.421 156.464 242.342 163.624 245.709C155.776 242.015 165.198 232.982 166.654 241.939V241.944Z" fill="white"/>
<path d="M252.377 103.535C252.751 103.663 253.102 103.843 253.472 103.976C253.491 103.639 253.719 103.336 253.7 102.999C253.686 102.738 253.52 102.511 253.306 102.359C253.093 102.207 252.846 102.122 252.6 102.046C252.476 102.008 252.344 101.97 252.216 101.975C251.983 101.984 251.775 102.122 251.623 102.297C251.438 102.516 251.125 102.976 251.338 103.255C251.519 103.492 252.111 103.45 252.377 103.54V103.535Z" fill="#C69024"/>
<path d="M84.4016 57.5579C80.0438 54.9925 74.8799 50.7723 74.0928 45.4235C74.0928 45.4235 74.1023 39.5152 74.126 36.8692C74.1307 36.1295 74.401 35.5842 74.8657 35.3708C75.9136 34.8966 76.44 34.6595 77.4879 34.1806C77.7535 34.062 77.91 33.7443 77.91 33.3128V32.5352C82.244 35.0815 86.5733 37.6279 90.9074 40.1743V40.9519C90.9074 41.3787 91.0591 41.8766 91.3294 42.3128C92.3773 44.0199 92.9037 44.8734 93.9516 46.5805C94.4163 47.3345 94.6866 48.1975 94.6914 48.9467C94.7103 51.6116 94.7246 57.5342 94.7246 57.5342C94.7246 60.8819 90.1013 60.8914 84.4158 57.5484L84.4016 57.5579Z" fill="#D7F4FB"/>
<path d="M90.7556 40.2729V40.8752C90.7556 41.3588 90.9263 41.9136 91.2298 42.402C92.2777 44.1091 92.8041 44.9626 93.852 46.6697C94.2835 47.3715 94.5348 48.1729 94.5396 48.8699C94.5585 51.5348 94.5728 57.4574 94.5728 57.4574C94.5728 60.7056 90.0111 60.6724 84.411 57.3815C80.1433 54.8683 75.0364 50.7524 74.2492 45.5127C74.2492 45.5127 74.2587 39.6043 74.2824 36.9631C74.2872 36.2756 74.5385 35.7682 74.97 35.569C76.0179 35.0948 76.5443 34.8577 77.5922 34.3788C77.891 34.2413 78.0664 33.8904 78.0664 33.4067V32.8045C82.3009 35.294 86.5353 37.7835 90.7698 40.2682L90.7556 40.2729ZM91.0638 40.0833C86.6349 37.48 82.206 34.8767 77.7771 32.2734V33.2313C77.7771 33.6059 77.6444 33.8857 77.4073 33.99C76.3593 34.4642 75.833 34.7013 74.785 35.1802C74.2872 35.4031 74.0026 35.9863 73.9932 36.7782C73.9742 39.4194 73.96 45.3325 73.96 45.3325C74.7424 50.7904 79.9679 55.1054 84.4157 57.7277C90.1913 61.1228 94.8715 61.0754 94.8715 57.6186C94.8715 57.6186 94.862 51.696 94.8383 49.0264C94.8336 48.225 94.5443 47.3051 94.0464 46.499C92.9985 44.7919 92.4721 43.9384 91.4242 42.2313C91.1918 41.852 91.0543 41.411 91.0543 41.0364V40.0785L91.0638 40.0833Z" fill="black"/>
<path d="M84.4016 57.5553C80.0438 54.99 74.8799 50.7697 74.0928 45.4209C74.0928 45.4209 74.1023 39.579 74.126 36.9141C76.4352 40.7455 80.8452 43.3914 84.4063 45.6059C88.8162 48.3514 93.7383 50.1106 94.6866 48.9915C94.7008 51.6138 94.7151 57.5364 94.7151 57.5364C94.7151 60.8841 90.0918 60.8936 84.4063 57.5506L84.4016 57.5553Z" fill="#D7F4FB"/>
<path d="M94.5351 49.3629C94.5541 52.2033 94.5636 57.4572 94.5636 57.4572C94.5636 60.7054 90.0019 60.6722 84.4018 57.3814C80.1341 54.8682 75.0271 50.7523 74.24 45.5125C74.24 45.5125 74.2495 40.268 74.2685 37.4514C75.691 39.8413 80.1578 43.2933 84.4018 45.7923C88.6505 48.2865 93.1125 50.0836 94.5351 49.3676V49.3629ZM94.7058 48.3908C94.7058 50.1026 90.092 48.7796 84.397 45.4366C80.4518 43.1511 76.2031 40.415 74.0883 36.2754L73.9697 36.7875C73.9507 39.4287 73.9365 45.3418 73.9365 45.3418C74.7189 50.7997 79.9444 55.1147 84.3923 57.737C90.1679 61.1322 94.8481 61.0847 94.8481 57.6279C94.8481 57.6279 94.8386 51.7054 94.8149 49.0357C94.7675 48.7749 94.7437 48.6469 94.6963 48.3861L94.7058 48.3908Z" fill="black"/>
<path d="M84.4018 38.3486C79.8022 35.6458 76.5967 32.6537 76.5967 31.6626L76.6156 31.473L76.5967 31.454V27.9355C81.7985 30.994 87.005 34.0525 92.2068 37.111V40.5915L92.1879 40.5821L92.2021 40.7907C92.2068 41.8339 89.0013 41.0562 84.4018 38.3486Z" fill="#D7F4FB"/>
<path d="M92.0594 37.2052V40.3491L92.0167 40.3301L92.0594 40.7569C92.0594 41.5393 89.0768 40.9228 84.4013 38.1773C79.7258 35.427 76.7432 32.5392 76.7432 31.7331L76.7764 31.3538L76.7385 31.3301V28.2099C81.8454 31.2115 86.9524 34.2131 92.0594 37.2147V37.2052ZM92.3534 37.0298L76.4492 27.6836V31.5198H76.454C76.454 31.5435 76.4492 31.5624 76.4492 31.5861C76.4492 32.8427 80.0103 35.9534 84.4013 38.5377C88.7922 41.1172 92.3534 42.1936 92.3534 40.9323C92.3534 40.9086 92.3534 40.8849 92.3486 40.8612H92.3534V37.0298Z" fill="black"/>
<path d="M84.4008 34.6303C79.8012 31.9275 76.5957 28.8405 76.5957 27.7594C76.5957 26.6782 79.8012 27.3611 84.4008 30.0639C89.0004 32.7668 92.2059 35.8537 92.2059 36.9348C92.2059 38.016 89.0004 37.3332 84.4008 34.6303Z" fill="#D7F4FB"/>
<path d="M84.4013 30.2439C89.1479 33.0321 92.0594 35.972 92.0594 36.8493C92.0594 37.7265 89.1431 37.2381 84.4013 34.4499C79.6595 31.6617 76.7432 28.7217 76.7432 27.8445C76.7432 26.9673 79.6595 27.4557 84.4013 30.2439ZM84.4013 29.8882C80.0103 27.3087 76.4492 26.3176 76.4492 27.6738C76.4492 29.03 80.0103 32.226 84.4013 34.8055C88.7922 37.3851 92.3534 38.3761 92.3534 37.02C92.3534 35.6638 88.7922 32.4678 84.4013 29.8882Z" fill="black"/>
<path d="M253.279 108.042C253.836 105.469 253.068 103.121 251.566 102.796C250.063 102.471 248.394 104.293 247.838 106.866C247.282 109.438 248.049 111.787 249.552 112.112C251.054 112.437 252.723 110.614 253.279 108.042Z" stroke="#0F1F42" stroke-width="0.948369" stroke-miterlimit="10"/>
<path d="M83.2878 113.061C83.2736 113.966 83.5818 115.863 83.4822 118.262C83.2831 123.189 83.9469 125.607 83.8568 126.11C83.7241 126.859 83.1076 127.59 82.3489 127.547C81.7609 127.514 81.2962 127.044 80.9359 126.58C79.1956 124.356 78.38 117.651 78.5981 114.881" stroke="#C69024" stroke-width="0.474185" stroke-miterlimit="10" stroke-linecap="round"/>
<path d="M83.4814 116.234L85.3213 114.844V112.625" stroke="#C69024" stroke-width="0.474185" stroke-miterlimit="10" stroke-linecap="round"/>
<path d="M92.1598 117.152C92.1598 117.152 87.9064 123.345 89.6656 128.798" stroke="#C69024" stroke-width="0.474185" stroke-miterlimit="10" stroke-linecap="round"/>
<path d="M80.9398 126.58C80.9398 126.58 82.552 130.738 80.2428 130.833C77.9335 130.928 75.7143 124.64 75.7143 124.64L73.9551 118.258" stroke="#C69024" stroke-width="0.474185" stroke-miterlimit="10" stroke-linecap="round"/>
<path d="M75.8945 132.402C75.8945 132.402 78.4694 133.792 77.7154 129.609" stroke="#C69024" stroke-width="0.474185" stroke-miterlimit="10" stroke-linecap="round"/>
<path d="M267.973 120.467C269.458 120.467 270.661 119.263 270.661 117.778C270.661 116.294 269.458 115.09 267.973 115.09C266.488 115.09 265.284 116.294 265.284 117.778C265.284 119.263 266.488 120.467 267.973 120.467Z" fill="#EAB892"/>
<path d="M258.73 108.528L258.906 107.926C259.072 107.352 259.693 107.039 260.253 107.262C261.623 107.802 263.994 108.969 265.198 110.96" stroke="#C69024" stroke-width="0.474185" stroke-miterlimit="10" stroke-linecap="round"/>
<path d="M265.124 112.131C264.844 111.406 261.89 109.684 261.34 109.424C260.69 109.115 259.775 108.802 259.059 108.731C258.945 108.722 257.679 108.067 257.684 108.181C257.684 108.243 258.523 108.769 258.57 108.812C259.03 109.239 258.836 110.547 258.31 110.879C259.144 110.932 259.381 111.06 260.036 111.41C260.955 111.904 264.099 112.302 265.128 112.126" fill="#FFFEFD"/>
<path d="M261.201 109.927C261.239 109.718 261.239 109.519 261.211 109.33C260.609 109.074 259.836 108.822 259.167 108.723C258.982 108.95 258.84 109.24 258.783 109.567C258.636 110.401 259.058 111.16 259.727 111.26C260.395 111.359 261.054 110.762 261.201 109.927Z" fill="#C69024"/>
<path d="M265.124 112.131C264.844 111.406 261.89 109.684 261.34 109.424C260.69 109.115 259.775 108.802 259.059 108.731C258.945 108.722 257.679 108.067 257.684 108.181C257.684 108.243 258.523 108.769 258.57 108.812C259.03 109.239 258.836 110.547 258.31 110.879" stroke="#C69024" stroke-width="0.474185" stroke-miterlimit="10" stroke-linecap="round"/>
<path d="M263.894 106.333L265.615 107.148C265.753 106.883 265.535 106.574 265.326 106.356C264.572 105.56 263.809 104.763 262.917 104.123C262.026 103.483 260.978 103.018 259.882 102.975C259.337 102.952 258.422 103.08 258.251 103.729C258.062 104.445 258.891 104.611 259.399 104.701C260.987 104.981 262.453 105.65 263.899 106.337L263.894 106.333Z" fill="#C69024"/>
<path d="M253.51 115.863C254.141 115.858 254.663 115.37 254.71 114.744C254.876 112.648 255.132 108.28 254.345 108.176C253.373 108.043 251.116 111.012 249.319 113.155C249.11 113.406 249.091 113.762 249.281 114.023C249.755 114.677 250.656 115.811 251.215 115.848C251.661 115.877 252.695 115.872 253.506 115.863H253.51Z" fill="#F9CCA7"/>
<path d="M120.132 62.7173L251.604 -11.834L385.059 64.671" stroke="#019DD8" stroke-width="0.474185" stroke-linecap="round" stroke-linejoin="round"/>
<path d="M200.857 170.865L204.807 177.84C204.807 185.096 184.948 197.325 184.948 197.325L182.534 184.024L200.857 170.865Z" fill="#EAB892"/>
<path d="M188.007 133.646C181.6 135.003 176.84 140.797 175.872 147.161C175.474 149.778 175.768 151.092 174.179 153.401C167.621 159.807 169.011 168.968 168.143 177.66C167.953 178.874 171.486 180.837 172.733 181.036C183.511 184.697 193.659 186.418 200.791 175.602C203.584 179.401 208.762 177.912 211.308 174.616C217.572 167.982 209.089 159.693 202.74 167.318C204.641 159.95 197.433 154.719 193.133 149.807C192.203 148.707 186.262 133.983 188.31 133.58C188.211 133.599 188.111 133.618 188.011 133.642L188.007 133.646Z" fill="#FEE2CC"/>
<path d="M184.659 157.908C184.592 156.931 185.005 156.429 185.488 155.58L184.568 154.262C184.568 154.262 188.779 156.301 191.942 161.232C191.942 161.232 188.902 161.55 185.706 159.634C185.706 159.634 184.801 158.928 183.971 158.373C183.615 158.136 184.246 158.013 184.659 157.903V157.908Z" fill="white"/>
<path d="M171.78 159.654L178.461 154.296C178.912 153.902 179.623 154.215 179.623 154.813L178.025 162.087C176.967 165.937 173.814 164.719 173.065 163.761L171.576 161.864C171.045 161.191 171.135 160.223 171.785 159.654H171.78Z" fill="#F9CCA7"/>
<path d="M171.225 160.48C171.756 162.097 175.175 163.482 177.309 163.458C176.351 167.138 170.481 163.036 171.225 160.48Z" fill="#C69024"/>
<path d="M191.88 173.757C194.3 173.757 196.262 171.795 196.262 169.376C196.262 166.956 194.3 164.994 191.88 164.994C189.461 164.994 187.499 166.956 187.499 169.376C187.499 171.795 189.461 173.757 191.88 173.757Z" fill="#EAB892"/>
<path d="M191.941 161.232C188.779 156.301 184.568 154.262 184.568 154.262L185.488 155.58C184.999 156.429 184.592 156.931 184.658 157.908C184.241 158.017 183.61 158.136 183.97 158.378" stroke="#C69024" stroke-width="0.474185" stroke-miterlimit="10" stroke-linecap="round"/>
<path d="M185.631 154.852L186.427 154.321C186.556 154.236 186.684 154.151 186.835 154.127C186.992 154.103 187.144 154.155 187.291 154.208C189.249 154.914 191.862 157.219 192.611 159.163" stroke="#C69024" stroke-width="0.474185" stroke-miterlimit="10" stroke-linecap="round"/>
<path d="M189.121 152.557C190.804 153.187 192.435 153.956 194 154.847C194.436 155.094 194.877 155.364 195.266 155.686C195.427 155.819 195.65 155.625 195.551 155.445C194.602 153.752 193.303 152.258 191.762 151.111C190.799 150.39 187.101 147.602 186.015 148.858C184.422 150.698 188.035 152.149 189.121 152.557Z" fill="url(#paint11_linear_2049_7662)"/>
<path d="M178.281 145.932C177.901 145.231 177.366 144.24 176.503 144.088C176.047 144.847 175.587 145.852 176.299 146.568C176.726 146.999 178.158 147.995 178.712 147.981C179.03 147.322 178.599 146.511 178.281 145.932Z" fill="url(#paint12_linear_2049_7662)"/>
<path d="M204.807 170.585C207.064 168.712 210.331 168.133 213.095 169.12" stroke="#C69024" stroke-width="0.474185" stroke-miterlimit="10" stroke-linecap="round"/>
<path d="M176.962 154.681C176.962 154.681 176.73 152.182 175.933 151.115C175.62 150.693 174.35 149.816 173.856 149.564L174.738 151.02L174.719 151.058C174.34 151.779 174.155 152.59 174.179 153.405C174.179 153.405 175.089 154.169 175.99 154.434C176.891 154.7 176.962 154.681 176.962 154.681Z" fill="white"/>
<path d="M176.962 154.681C176.962 154.681 176.73 152.182 175.933 151.115C175.62 150.693 174.35 149.816 173.856 149.564L174.738 151.02L174.719 151.058C174.34 151.779 174.155 152.59 174.179 153.405" stroke="#C69024" stroke-width="0.474185" stroke-miterlimit="10" stroke-linecap="round"/>
<path d="M174.967 150.28L175.934 149.564C175.934 149.564 177.641 150.94 177.741 152.76" stroke="#C69024" stroke-width="0.474185" stroke-miterlimit="10" stroke-linecap="round"/>
<path d="M170.087 167.66C169.381 168.272 168.869 170.06 169.196 170.932C169.523 171.805 170.282 172.473 171.13 172.867C171.979 173.26 172.918 173.407 173.852 173.497C174.26 173.535 174.677 173.564 175.09 173.564C176.271 173.564 177.371 172.952 178.02 171.966L170.087 167.66Z" fill="#F49C95"/>
<path d="M187.902 156.924C187.902 156.8 187.892 156.687 187.878 156.568C187.058 155.862 186.313 155.326 185.739 154.951C185.597 155.065 185.469 155.212 185.355 155.387L185.488 155.577C185.303 155.9 185.128 156.175 184.985 156.445C184.962 156.597 184.952 156.758 184.952 156.919C184.952 158.157 185.611 159.162 186.427 159.162C187.242 159.162 187.902 158.157 187.902 156.919V156.924Z" fill="#C69024"/>
<path d="M176.047 151.114C175.872 150.881 175.407 150.507 174.937 150.18C174.805 150.27 174.681 150.407 174.577 150.573L174.847 151.019L174.828 151.057C174.582 151.531 174.421 152.048 174.345 152.574C174.515 153.214 174.904 153.665 175.355 153.665C175.952 153.665 176.441 152.878 176.455 151.901C176.336 151.602 176.199 151.327 176.042 151.109L176.047 151.114Z" fill="#C69024"/>
<path d="M170.959 165.809L171.524 166.857C171.68 167.146 172.002 167.298 172.32 167.241L173.885 166.957C173.885 166.957 176.052 168.593 176.559 169.878C177.067 171.163 179.936 172.31 179.936 172.31C179.936 172.31 178.025 172.756 175.924 171.675C173.823 170.594 170.509 169.109 170.509 169.109L169.489 167.217C169.489 167.217 170.129 164.287 170.955 165.814L170.959 165.809Z" fill="#E28883"/>
<path d="M180.377 131.174C180.377 131.174 197.343 127.499 226.397 159.369L233.912 146.139C233.912 146.139 229.996 124.891 188.817 111.766L180.377 131.169V131.174Z" fill="white"/>
<path d="M194.465 117.973L194.408 118.935C194.285 121.117 195.062 123.25 196.566 124.839C194.413 125.204 192.507 126.442 191.293 128.262L190.757 129.064L190.814 128.101C190.937 125.92 190.159 123.786 188.656 122.198C190.809 121.833 192.715 120.595 193.929 118.774L194.465 117.973Z" fill="#FFD066"/>
<path d="M249.09 115.086C250.485 116.305 252.149 117.04 253.885 117.21L272.235 118.97C272.235 118.97 272.112 124.361 276.309 124.755C276.309 124.755 275.806 128.809 274.535 132.104C273.748 134.139 272.074 135.504 270.173 135.737C265.606 136.287 255.672 137.102 249.745 134.75C248.128 134.11 247.17 132.436 247.36 130.706L249.095 115.091L249.09 115.086Z" fill="url(#paint13_linear_2049_7662)"/>
<path d="M264.457 110.828C265.125 107.741 263.871 104.85 261.657 104.371C259.442 103.893 257.106 106.007 256.439 109.094C255.772 112.181 257.025 115.072 259.24 115.55C261.454 116.029 263.79 113.915 264.457 110.828Z" stroke="#0F1F42" stroke-width="0.948369" stroke-miterlimit="10"/>
<path d="M165.881 365.773C161.879 339.612 164.587 311.726 158.716 285.916C157.972 282.639 157.08 279.382 156.677 276.043C156.013 270.538 156.687 264.971 156.914 259.428C157.374 248.033 155.459 236.7 152.125 225.789C162.979 217.083 173.459 204.328 184.754 196.195C185.394 199.88 187.248 203.934 185.892 205.911C185.474 206.523 181.771 210.35 181.349 211.127C177.826 217.609 172.852 222.745 169.333 229.222C164.478 238.161 159.461 247.957 161.082 258.001C162.491 266.721 170.13 276.968 171.23 285.731C171.818 290.425 171.633 299.985 171.23 304.698C169.039 330.19 169.143 342.927 165.886 365.769L165.881 365.773Z" fill="url(#paint14_linear_2049_7662)"/>
<path d="M293.327 399.943C193.91 448.718 106.015 473.385 97.0148 455.034C96.6307 454.247 96.3983 453.393 96.3082 452.473L96.0332 452.606V494.609H457.774V282.236C456.812 303.504 386.552 354.203 293.322 399.938L293.327 399.943Z" fill="white"/>
<path d="M171.779 159.654L178.93 153.689C178.93 153.689 180.243 149.739 178.826 147.174" stroke="#C69024" stroke-width="0.474185" stroke-miterlimit="10" stroke-linecap="round"/>
<path d="M262.904 74.3301L262.885 75.2784C262.842 77.4265 263.458 79.3801 264.587 80.6747C263.017 81.3907 261.652 82.9128 260.803 84.8854L260.428 85.7579L260.447 84.8096C260.49 82.6615 259.874 80.7079 258.745 79.4133C260.315 78.6973 261.68 77.1752 262.529 75.2026L262.904 74.3301Z" fill="#FFD066"/>
<path d="M275.536 399.677C275.536 399.677 277.826 385.37 277.504 381.994" stroke="#C69024" stroke-width="0.474185" stroke-miterlimit="10" stroke-linecap="round"/>
<path d="M281.929 388.625L282.593 381.076" stroke="#C69024" stroke-width="0.474185" stroke-miterlimit="10" stroke-linecap="round"/>
<path d="M288.738 123.887C291.052 126.121 294.551 124.29 294.655 121.218C294.708 120.208 294.404 119.117 293.608 118.477C293.351 118.278 293.005 118.116 292.654 117.875C291.934 117.381 291.436 116.504 291.559 115.589C291.687 114.683 292.503 113.906 293.442 113.986C293.74 114.019 293.712 114.465 293.413 114.46C292.787 114.451 292.218 115.058 292.185 115.66C292.142 116.286 292.517 116.931 293.067 117.272C293.351 117.457 293.712 117.609 294.072 117.86C295.827 119.193 295.85 121.872 294.788 123.641C293.555 125.94 289.914 126.386 288.368 124.186C288.197 123.949 288.548 123.674 288.738 123.892V123.887Z" fill="#FEE2CC"/>
<path d="M284.783 108.082C286.063 108.21 287.192 106.939 287.201 105.735C287.201 105.1 286.969 104.464 286.58 103.909C286.187 103.355 285.66 102.876 285.063 102.501C284.816 102.359 285.02 101.965 285.276 102.079C286.746 102.672 288.017 104.052 288.06 105.73C288.074 107.048 287.182 108.281 285.921 108.618C285.599 108.718 284.38 108.765 284.527 108.229C284.57 108.125 284.674 108.068 284.778 108.082H284.783Z" fill="#FEE2CC"/>
<path d="M253.368 107.656C253.368 107.656 255.312 107.618 256.45 109.103" stroke="#0F1F42" stroke-width="0.948369" stroke-miterlimit="10"/>
<path d="M264.63 110.174L279.998 113.583" stroke="#0F1F42" stroke-width="0.948369" stroke-miterlimit="10"/>
<path d="M279.999 113.582L271.449 119.519" stroke="#D7F4FB" stroke-width="0.948369" stroke-miterlimit="10" stroke-linecap="round"/>
<path d="M277.854 118.662C277.854 118.662 280.941 115.077 283.53 116.571" stroke="#C69024" stroke-width="0.474185" stroke-miterlimit="10" stroke-linecap="round"/>
<path d="M27.9317 53.5745C26.8268 49.7763 30.5397 38.6566 35.7605 35.8305C41.6214 32.6582 48.5018 35.6408 54.8748 33.2889C56.9802 32.3215 58.289 30.0834 57.7816 32.6345C56.1741 40.7668 52.7458 53.1477 44.5661 57.477C39.2362 60.2984 29.0697 57.477 27.9317 53.5745Z" fill="#264F85"/>
<path d="M51.7167 44.926C51.3942 48.7148 45.979 56.2733 40.9337 58.8386C36.0069 61.3423 33.0243 60.2517 29.1834 57.1268C28.5243 56.591 28.3821 56.9988 27.2487 57.2027C26.3004 57.3734 26.0775 55.4197 26.9121 54.2722C27.3863 53.6178 28.9985 49.905 29.2356 49.1984C31.0849 43.7263 33.1144 40.8812 36.0544 39.4113C41.2419 36.8222 52.0818 40.6015 51.7119 44.926H51.7167Z" fill="white"/>
<path d="M31.9999 48.4456C31.9999 55.179 35.2338 58.2565 38.7902 56.5257C43.6411 54.1643 45.5995 47.6632 45.5805 42.433C45.5805 41.2285 45.4809 40.1 45.296 39.0757C42.1569 37.5773 38.2544 37.8381 34.8497 39.9435C32.4266 41.4419 31.9951 44.8228 31.9951 48.4456H31.9999Z" fill="#0088C7"/>
<path d="M27.249 50.9341C28.1263 45.922 28.738 40.3219 30.7058 35.912C35.552 25.0579 47.4161 30.4256 55.0362 36.3814" stroke="black" stroke-width="0.422024" stroke-linecap="round" stroke-linejoin="round"/>
<path d="M41.3807 44.5508C41.8738 41.7684 41.1154 39.3076 39.6868 39.0544C38.2583 38.8012 36.7004 40.8515 36.2073 43.6339C35.7142 46.4163 36.4725 48.8771 37.9011 49.1303C39.3297 49.3835 40.8876 47.3332 41.3807 44.5508Z" fill="black"/>
<path d="M37.5649 43.5735C37.8528 41.9489 37.411 40.5123 36.5781 40.3647C35.7452 40.2171 34.8366 41.4144 34.5487 43.0389C34.2607 44.6635 34.7026 46.1001 35.5355 46.2477C36.3684 46.3954 37.277 45.1981 37.5649 43.5735Z" fill="white"/>
<path d="M77.3926 331.945L100.078 336.853L77.1697 339.461L72.7266 362.089L69.6586 339.081L46.9736 334.174L69.8815 331.566L74.3246 308.938L77.3926 331.945Z" fill="#FFD066"/>
<path d="M220.426 23.6963L206.978 25.6642L204.527 39.0314L202.559 25.5835L189.191 23.132L202.639 21.1641L205.091 7.79688L207.059 21.2448L220.426 23.6963Z" fill="#FFD066"/>
<defs>
<linearGradient id="paint0_linear_2049_7662" x1="373.312" y1="476.778" x2="282.89" y2="374.188" gradientUnits="userSpaceOnUse">
<stop offset="0.27" stop-color="#0088C3"/>
<stop offset="1" stop-color="#0F1F42"/>
</linearGradient>
<linearGradient id="paint1_linear_2049_7662" x1="229.432" y1="176.228" x2="403.087" y2="507.934" gradientUnits="userSpaceOnUse">
<stop offset="0.11" stop-color="white"/>
<stop offset="0.94" stop-color="#BEF5FF"/>
<stop offset="0.96" stop-color="#39C7DF"/>
</linearGradient>
<linearGradient id="paint2_linear_2049_7662" x1="350.262" y1="356.712" x2="280.311" y2="174.844" gradientUnits="userSpaceOnUse">
<stop offset="0.14" stop-color="#F0F4F8"/>
<stop offset="0.44" stop-color="#DE97FF"/>
<stop offset="0.83" stop-color="#A827D8"/>
</linearGradient>
<linearGradient id="paint3_linear_2049_7662" x1="232.461" y1="131.814" x2="367.324" y2="384.275" gradientUnits="userSpaceOnUse">
<stop stop-color="#F0F4F8"/>
<stop offset="0.54" stop-color="#BEF5FF"/>
<stop offset="0.96" stop-color="#39C7DF"/>
</linearGradient>
<linearGradient id="paint4_linear_2049_7662" x1="26.2713" y1="30.5334" x2="116.063" y2="109.476" gradientUnits="userSpaceOnUse">
<stop offset="0.2" stop-color="#FFFFA8"/>
<stop offset="0.53" stop-color="#FFCE4E"/>
<stop offset="0.94" stop-color="#C69024"/>
</linearGradient>
<linearGradient id="paint5_linear_2049_7662" x1="145.965" y1="116.366" x2="215.585" y2="199.206" gradientUnits="userSpaceOnUse">
<stop stop-color="#0088C3"/>
<stop offset="1" stop-color="#0F1F42"/>
</linearGradient>
<linearGradient id="paint6_linear_2049_7662" x1="117.671" y1="233.008" x2="219.009" y2="462.803" gradientUnits="userSpaceOnUse">
<stop stop-color="#F0F4F8"/>
<stop offset="0.32" stop-color="#00DC86"/>
<stop offset="1" stop-color="#23626A"/>
</linearGradient>
<linearGradient id="paint7_linear_2049_7662" x1="154.491" y1="212.341" x2="318.265" y2="424.676" gradientUnits="userSpaceOnUse">
<stop stop-color="#F0F4F8"/>
<stop offset="0.45" stop-color="#00DC86"/>
<stop offset="1" stop-color="#23626A"/>
</linearGradient>
<linearGradient id="paint8_linear_2049_7662" x1="207.543" y1="248.213" x2="257.854" y2="456.063" gradientUnits="userSpaceOnUse">
<stop stop-color="#F0F4F8"/>
<stop offset="0.54" stop-color="#BEF5FF"/>
<stop offset="0.96" stop-color="#39C7DF"/>
</linearGradient>
<linearGradient id="paint9_linear_2049_7662" x1="260.685" y1="72.2495" x2="304.594" y2="120.863" gradientUnits="userSpaceOnUse">
<stop stop-color="#F0F4F8"/>
<stop offset="0.54" stop-color="#BEF5FF"/>
<stop offset="0.96" stop-color="#39C7DF"/>
</linearGradient>
<linearGradient id="paint10_linear_2049_7662" x1="250.176" y1="122.351" x2="385.044" y2="374.807" gradientUnits="userSpaceOnUse">
<stop stop-color="#F0F4F8"/>
<stop offset="0.54" stop-color="#BEF5FF"/>
<stop offset="0.96" stop-color="#39C7DF"/>
</linearGradient>
<linearGradient id="paint11_linear_2049_7662" x1="169.418" y1="130.009" x2="196.21" y2="158.574" gradientUnits="userSpaceOnUse">
<stop stop-color="#0088C3"/>
<stop offset="1" stop-color="#0F1F42"/>
</linearGradient>
<linearGradient id="paint12_linear_2049_7662" x1="165.601" y1="133.594" x2="192.388" y2="162.159" gradientUnits="userSpaceOnUse">
<stop stop-color="#0088C3"/>
<stop offset="1" stop-color="#0F1F42"/>
</linearGradient>
<linearGradient id="paint13_linear_2049_7662" x1="234.187" y1="104.516" x2="282.521" y2="145.026" gradientUnits="userSpaceOnUse">
<stop offset="0.11" stop-color="white"/>
<stop offset="0.94" stop-color="#BEF5FF"/>
<stop offset="0.96" stop-color="#39C7DF"/>
</linearGradient>
<linearGradient id="paint14_linear_2049_7662" x1="155.866" y1="200.643" x2="204.608" y2="402.001" gradientUnits="userSpaceOnUse">
<stop stop-color="#F0F4F8"/>
<stop offset="0.54" stop-color="#BEF5FF"/>
<stop offset="0.96" stop-color="#39C7DF"/>
</linearGradient>
</defs>
</svg>
