<svg width="519" height="465" viewBox="0 0 519 465" fill="none" xmlns="http://www.w3.org/2000/svg">
<path d="M696.007 452.298C530.231 560.934 307.373 515.224 198.241 350.202C89.1081 185.18 135.027 -36.6626 300.804 -145.298C466.58 -253.934 689.438 -208.224 798.571 -43.2019C907.703 121.82 861.784 343.663 696.007 452.298Z" fill="url(#paint0_linear_2049_7321)"/>
<path d="M113.113 38.9915C113.345 45.8938 116.996 51.9135 123.159 54.9398C127.411 57.0286 131.888 57.533 134.389 55.7786C136.652 54.1942 137.693 50.5977 137.456 46.5517C137.065 39.7809 133.028 34.1615 126.926 31.2339C124.751 30.1867 122.14 29.5124 120.24 29.2986C115.928 28.8161 114.088 30.2251 113.35 33.8874C113.047 35.395 113.042 37.1494 113.108 38.997L113.113 38.9915Z" fill="url(#paint1_linear_2049_7321)"/>
<path d="M149.646 96.2006L129.263 56.9411L129.28 56.9302C129.28 56.9302 129.247 56.9137 129.235 56.9028C129.076 56.678 130.508 55.4006 132.435 54.0519C134.363 52.7032 136.054 51.7877 136.213 52.0125L166.824 83.5966C172.089 88.8761 173.907 92.2149 176.363 99.3311C177.415 102.39 175.862 106.168 172.607 108.448L171.18 109.446C167.926 111.727 163.828 111.913 161.289 109.896L160.898 109.589C155.247 105.093 152.852 102.555 149.652 96.2006H149.646Z" fill="url(#paint2_linear_2049_7321)"/>
<path d="M170.133 106.59C172.766 104.748 175.431 104.008 176.092 104.935L181.032 111.919L171.504 118.597L166.564 111.612C165.903 110.68 167.506 108.432 170.138 106.585L170.133 106.59Z" fill="url(#paint3_linear_2049_7321)"/>
<path d="M166.813 118.054C166.108 117.056 168.955 113.849 173.174 110.889C177.392 107.928 181.385 106.344 182.096 107.341C182.107 107.358 182.107 107.374 182.118 107.391H182.129L230.044 175.12L214.761 185.833L166.846 118.092H166.857C166.857 118.092 166.824 118.065 166.813 118.049V118.054Z" fill="url(#paint4_linear_2049_7321)"/>
<path d="M214.674 185.741C213.965 184.738 216.811 181.527 221.032 178.569C225.252 175.611 229.249 174.026 229.958 175.028C230.667 176.031 227.821 179.242 223.6 182.2C219.38 185.158 215.383 186.743 214.674 185.741Z" fill="#0B1E44"/>
<path d="M130.392 52.0237C129.495 52.0237 128.767 51.2996 128.767 50.4064C128.767 49.5132 129.495 48.7891 130.392 48.7891C131.289 48.7891 132.017 49.5132 132.017 50.4064C132.017 51.2996 131.289 52.0237 130.392 52.0237Z" fill="#8FEAFF"/>
<path d="M126.608 46.678C125.71 46.678 124.983 45.9539 124.983 45.0607C124.983 44.1675 125.71 43.4434 126.608 43.4434C127.505 43.4434 128.232 44.1675 128.232 45.0607C128.232 45.9539 127.505 46.678 126.608 46.678Z" fill="#8FEAFF"/>
<path d="M129.466 40.6409C128.569 40.6409 127.841 39.9168 127.841 39.0236C127.841 38.1303 128.569 37.4062 129.466 37.4062C130.363 37.4062 131.091 38.1303 131.091 39.0236C131.091 39.9168 130.363 40.6409 129.466 40.6409Z" fill="#8FEAFF"/>
<path d="M120.087 47.2151C119.19 47.2151 118.462 46.491 118.462 45.5978C118.462 44.7046 119.19 43.9805 120.087 43.9805C120.984 43.9805 121.712 44.7046 121.712 45.5978C121.712 46.491 120.984 47.2151 120.087 47.2151Z" fill="#8FEAFF"/>
<path d="M132.886 45.4768C131.989 45.4768 131.261 44.7527 131.261 43.8595C131.261 42.9663 131.989 42.2422 132.886 42.2422C133.783 42.2422 134.511 42.9663 134.511 43.8595C134.511 44.7527 133.783 45.4768 132.886 45.4768Z" fill="#8FEAFF"/>
<path d="M123.506 52.051C122.609 52.051 121.881 51.3269 121.881 50.4337C121.881 49.5405 122.609 48.8164 123.506 48.8164C124.403 48.8164 125.131 49.5405 125.131 50.4337C125.131 51.3269 124.403 52.051 123.506 52.051Z" fill="#8FEAFF"/>
<path d="M124.763 36.803C123.866 36.803 123.138 36.0789 123.138 35.1857C123.138 34.2925 123.866 33.5684 124.763 33.5684C125.66 33.5684 126.388 34.2925 126.388 35.1857C126.388 36.0789 125.66 36.803 124.763 36.803Z" fill="#8FEAFF"/>
<path d="M117.812 41.6721C116.914 41.6721 116.187 40.948 116.187 40.0548C116.187 39.1616 116.914 38.4375 117.812 38.4375C118.709 38.4375 119.437 39.1616 119.437 40.0548C119.437 40.948 118.709 41.6721 117.812 41.6721Z" fill="#8FEAFF"/>
<path d="M123.15 41.7815C122.252 41.7815 121.525 41.0574 121.525 40.1642C121.525 39.271 122.252 38.5469 123.15 38.5469C124.047 38.5469 124.774 39.271 124.774 40.1642C124.774 41.0574 124.047 41.7815 123.15 41.7815Z" fill="#8FEAFF"/>
<path d="M119.052 35.9924C118.155 35.9924 117.427 35.2683 117.427 34.3751C117.427 33.4819 118.155 32.7578 119.052 32.7578C119.949 32.7578 120.677 33.4819 120.677 34.3751C120.677 35.2683 119.949 35.9924 119.052 35.9924Z" fill="#8FEAFF"/>
<g style="mix-blend-mode:screen" opacity="0.48">
<path d="M134.121 52.8672C134.121 52.8672 170.261 89.7747 173.935 104.703C173.935 104.703 172.062 105.18 169.644 106.951C169.644 106.951 166.868 91.9019 132.436 54.0569L134.121 52.8727V52.8672Z" fill="#BEF5FF"/>
</g>
<g style="mix-blend-mode:screen" opacity="0.48">
<path d="M174.459 110.36L177.197 108.441L224.889 175.865L222.151 177.784L174.459 110.36Z" fill="#BEF5FF"/>
</g>
<path d="M222.058 180.005C224.69 178.163 227.025 176.957 227.67 177.867L243.564 200.334L234.037 207.011L218.142 184.544C217.498 183.634 219.425 181.847 222.058 180.005Z" fill="url(#paint5_linear_2049_7321)"/>
<g style="mix-blend-mode:screen" opacity="0.48">
<path d="M222.535 179.676L225.183 177.82L237.311 194.967L234.663 196.822L222.535 179.676Z" fill="#BEF5FF"/>
</g>
<path d="M226.315 202.179C225.61 201.181 228.457 197.974 232.676 195.014C236.894 192.053 240.887 190.469 241.598 191.466C241.609 191.483 241.609 191.499 241.62 191.516H241.631L289.546 259.245L274.263 269.958L226.348 202.217H226.359C226.359 202.217 226.326 202.19 226.315 202.174V202.179Z" fill="url(#paint6_linear_2049_7321)"/>
<g style="mix-blend-mode:screen" opacity="0.48">
<path d="M233.964 194.485L236.702 192.566L285.094 260.981L282.356 262.9L233.964 194.485Z" fill="#BEF5FF"/>
</g>
<path d="M265.263 439.004V460.654C265.263 464.239 249.055 467.145 229.062 467.145C209.07 467.145 192.862 464.239 192.862 460.654V439.004H265.269H265.263Z" fill="url(#paint7_linear_2049_7321)"/>
<g style="mix-blend-mode:darken" opacity="0.68">
<path d="M220.394 466.959C204.587 466.262 192.856 463.702 192.856 460.654V439.004H220.394V466.959Z" fill="#0B1E44"/>
</g>
<path d="M229.061 373.758C180.126 373.758 140.456 366.642 140.456 357.864C140.456 349.086 180.126 341.971 229.061 341.971C277.996 341.971 317.665 349.086 317.665 357.864C317.665 366.642 277.996 373.758 229.061 373.758Z" fill="url(#paint8_linear_2049_7321)"/>
<path d="M229.061 373.757C277.995 373.757 317.665 366.641 317.665 357.863C317.665 366.641 312.582 449.902 229.061 449.902C156.34 449.902 140.456 366.635 140.456 357.863C140.456 366.641 180.127 373.757 229.061 373.757Z" fill="url(#paint9_linear_2049_7321)"/>
<path d="M215.337 342.199C220.2 342.051 225.201 341.975 230.301 341.975C279.235 341.975 318.905 349.091 318.905 357.868C318.905 366.645 279.235 373.762 230.301 373.762C224.964 373.762 219.738 373.679 214.66 373.515C217.325 362.446 217.182 351.909 215.337 342.205V342.199Z" fill="url(#paint10_linear_2049_7321)"/>
<g style="mix-blend-mode:darken" opacity="0.44">
<path d="M220.394 449.492C210.766 448.577 202.241 446.132 194.696 442.595C181.604 418.851 173.547 394.476 170.369 369.789C179.049 371.16 189.232 372.234 200.429 372.92C203.497 399.23 210.21 425.002 220.394 449.498V449.492Z" fill="#0B1E44"/>
</g>
<path d="M375.115 91.9513C375.985 94.8679 376.42 98.1025 375.197 100.899C373.727 104.259 370.224 106.238 366.809 107.614C367.564 109.758 369.877 111.748 371.821 112.932C374.988 114.862 378.772 116.754 382.263 115.493C384.202 114.796 385.705 113.196 386.691 111.397C389.335 106.567 390.282 98.6069 387.71 93.7385C386.443 91.3427 382.891 90.9096 380.429 89.7638C377.967 88.6179 376.86 89.8789 375.115 91.9513Z" fill="#C69024"/>
<path d="M366.809 227.357C366.809 227.357 327.453 189.747 303.457 188.305C303.457 188.305 285.602 177.511 257.062 256.556H386.691L366.815 227.362L366.809 227.357Z" fill="#23626A"/>
<path d="M374.547 239.665C374.547 239.665 264.254 235.307 241.822 269.369C241.822 269.369 238.375 294.347 263.29 361.336C263.29 361.336 275.66 412.049 272.62 422.268C272.62 422.268 305.318 420.755 320.524 400.316C335.73 379.878 331.93 378.365 331.93 378.365L296.192 290.745H400.366V239.665H374.547Z" fill="#00DC86"/>
<path d="M410.413 80.4704V118.99C410.413 118.99 407.246 149.176 384.33 147.158C361.413 145.141 377.049 112.8 377.049 112.8L386.687 111.402C386.687 111.402 388.014 92.5865 384.324 92.2521C384.324 92.2521 410.408 69.1931 410.408 80.4759L410.413 80.4704Z" fill="#FEE2CC"/>
<path d="M391.203 243.375C391.203 243.375 374.02 244.505 361.314 229.412C361.314 229.412 366.431 200.618 365.555 186.079C365.555 186.079 356.545 180.646 356.682 169.385C356.682 169.385 363.253 131.786 372.759 123.64L377.556 118.113C377.556 118.113 373.089 140.383 382.771 143.151C392.453 145.925 405.815 131.605 406.856 120.564L413.933 120.734L391.203 243.375Z" fill="url(#paint11_linear_2049_7321)"/>
<path d="M390.688 159.725C392.352 158.069 395.227 158.239 397.105 160.109C397.204 160.208 397.297 160.317 397.391 160.432C397.391 160.284 397.397 160.142 397.413 160.005C397.711 157.373 399.847 155.454 402.188 155.717C404.529 155.981 406.187 158.322 405.889 160.953C405.873 161.09 405.845 161.233 405.812 161.375C405.928 161.282 406.043 161.2 406.165 161.129C408.417 159.72 411.253 160.186 412.509 162.17C413.765 164.155 412.955 166.907 410.703 168.316C410.587 168.387 410.46 168.459 410.323 168.519C410.466 168.552 410.604 168.59 410.736 168.634C413.247 169.506 414.652 172.006 413.875 174.221C413.098 176.435 410.433 177.521 407.927 176.644C407.795 176.6 407.663 176.54 407.53 176.479C407.596 176.611 407.652 176.743 407.696 176.874C408.577 179.374 407.486 182.028 405.267 182.801C403.047 183.574 400.53 182.181 399.649 179.681C399.605 179.549 399.567 179.412 399.534 179.27C399.467 179.401 399.401 179.528 399.324 179.648C397.909 181.89 395.15 182.696 393.156 181.452C391.162 180.207 390.688 177.378 392.104 175.136C392.176 175.021 392.264 174.906 392.357 174.791C392.214 174.824 392.071 174.851 391.933 174.862C389.29 175.158 386.938 173.513 386.668 171.183C386.404 168.853 388.331 166.726 390.975 166.43C391.113 166.414 391.256 166.408 391.404 166.408C391.289 166.315 391.179 166.222 391.08 166.123C389.196 164.254 389.025 161.392 390.688 159.736V159.725Z" fill="white"/>
<path d="M386.691 111.397C386.691 111.397 375.214 109.018 345.562 129.27L311.839 149.818L287.711 99.7578C287.711 99.7578 272.015 115.903 263.291 120.854L291.781 183.101C291.781 183.101 295.267 192.361 312.709 186.287C330.152 180.212 350.21 170.371 350.21 170.371L343.37 207.816L351.3 214.28C351.3 214.28 354.77 152.427 369.789 127.828C369.789 127.828 377.549 115.372 386.686 111.397H386.691Z" fill="url(#paint12_linear_2049_7321)"/>
<path d="M427.998 109.846C431.655 112.823 435.004 116.178 437.967 119.846C453.035 138.502 457.072 163.507 459.22 187.345C460.294 199.253 461.065 211.369 465.124 222.624C467.553 229.351 471.105 235.612 474.145 242.087C481.057 256.802 485.309 272.591 489.528 288.281L490.04 290.743H382.771C382.771 290.743 390.327 258.622 390.911 246.758C391.495 234.894 406.899 130.427 416.785 111.907L427.998 109.846Z" fill="url(#paint13_linear_2049_7321)"/>
<path d="M420.546 111.568C420.546 111.568 394 262.088 394.859 295.059" stroke="#0088C7" stroke-width="0.437904" stroke-miterlimit="10"/>
<path d="M390.903 98.6309C389.637 99.382 388.072 100.078 386.745 99.4423C386.723 99.4313 386.701 99.4149 386.679 99.4039C386.415 95.6265 385.748 92.381 384.234 92.2439C384.234 92.2439 394.83 82.88 402.513 79.0039C404.044 79.8537 405.553 81.8548 405.465 83.4556C405.371 85.199 403.02 87.5016 401.984 88.8339C398.939 92.7428 395.161 96.0871 390.898 98.6254L390.903 98.6309Z" fill="#EAB892"/>
<path d="M402.096 117.358C401.495 118.082 401.033 118.97 400.091 119.052C408.253 121.887 417.197 120.801 425.772 119.677C429.787 119.151 434.012 118.438 434.606 113.959C435.201 109.48 434.628 104.782 433.731 100.171C435.57 102.095 437.338 104.14 438.511 106.53C439.684 108.921 439.756 111.547 439.04 114.107C441.028 113.373 442.521 111.684 443.606 109.864C446.381 105.209 446.772 99.3046 444.949 94.2389C443.192 89.3596 437.338 86.0372 436.65 80.8838C436.358 78.6908 437.305 76.5527 437.949 74.4365C440.081 67.4354 438.869 59.6833 435.57 53.1483C432.271 46.6133 427.017 41.2076 421.135 36.8217C418.915 35.166 416.586 33.6364 414.041 32.5345C411.838 31.586 409.503 30.9665 407.129 30.6156C397.354 29.1792 386.983 32.5454 379.939 39.4478C378.259 38.3952 376.42 38.5487 374.779 39.6616C373.137 40.7745 372.041 42.5234 371.243 44.3326C370.02 47.0848 369.354 50.2043 370.092 53.1264C369.783 54.6998 430.123 83.4331 402.09 117.353L402.096 117.358Z" fill="url(#paint14_linear_2049_7321)"/>
<path d="M532.426 252.948L474.272 339.603L451.427 326.38L500.069 234.215L532.426 252.948Z" fill="#0088C3"/>
<path d="M500.055 234.226C500.055 234.226 500.055 234.215 500.061 234.209C500.077 234.182 500.099 234.16 500.121 234.138L554.442 160.191L571.548 170.093L532.439 252.893C532.439 252.893 532.428 252.932 532.417 252.948C532.417 252.948 532.412 252.954 532.406 252.959L532.395 252.987H532.39C531.426 254.357 523.55 251.358 514.689 246.232C505.827 241.101 499.317 235.772 500.039 234.259H500.033L500.05 234.237L500.055 234.226Z" fill="#F0F4F8"/>
<path d="M526.614 252.03C525.055 251.449 519.515 249.01 516.888 247.178L563.073 165.184L568.118 168.1L526.614 252.03Z" fill="white"/>
<path d="M426.85 223.059C424.736 234.215 434.412 284.275 439.165 293.217C440.597 288.59 433.933 245.476 433.206 241.216C432.336 236.112 429.808 227.203 426.85 223.059Z" fill="#8FEAFF"/>
<path d="M378.519 44.0465C378.519 44.0465 369.558 50.2032 371.265 60.8227C371.265 60.8227 371.563 66.9739 367.851 70.3785L365.923 72.5934C365.416 73.1745 365.438 74.0462 365.978 74.5945C366.705 75.3291 367.817 76.2721 369.134 76.749C369.134 76.749 369.679 78.6405 368.633 79.4573C367.586 80.2742 369.453 82.0615 369.453 82.0615C369.453 82.0615 367.812 83.3224 369.007 84.5121C369.007 84.5121 370.054 84.9562 370.054 85.7018C370.054 86.4474 370.131 87.7084 369.53 88.454C368.93 89.1996 367.437 92.3191 370.428 93.432C373.419 94.5449 384.334 92.2423 384.334 92.2423C384.334 92.2423 394.187 90.7292 395.046 90.4441C395.906 90.159 399.821 84.8356 402.493 81.7983C402.493 81.7983 406.502 83.8871 410.418 80.4661C413.508 77.7688 413.761 69.0792 408.033 68.8873C402.305 68.6954 400.301 75.2414 400.301 75.2414C400.301 75.2414 388.537 45.5322 378.524 44.041L378.519 44.0465Z" fill="#FEE2CC"/>
<path d="M382.868 78.0328C382.339 76.8057 383.168 75.2738 384.719 74.6113C386.271 73.9488 387.957 74.4064 388.486 75.6336C389.015 76.8607 388.186 78.3926 386.634 79.0551C385.083 79.7176 383.397 79.2599 382.868 78.0328Z" fill="#EAB892"/>
<path d="M368.627 79.4647C368.627 79.4647 369.53 78.8507 371.138 80.4351C372.064 81.3507 375.649 82.5129 377.048 82.7706C377.048 82.7706 371.276 83.1982 369.447 82.0689C369.447 82.0689 367.988 80.9176 368.627 79.4647Z" fill="#E28883"/>
<path d="M369.337 84.7379C369.607 84.9737 369.965 85.0888 370.328 85.0669C371.055 85.0285 372.316 84.8585 373.032 84.5241C374.073 84.0416 375.984 82.9781 375.984 82.9781L369.447 82.0625C369.447 82.0625 367.481 83.1151 369.337 84.7324V84.7379Z" fill="#F49C95"/>
<path d="M375.01 63.668C376.15 64.9673 377.609 65.9322 378.997 66.9629C380.385 67.9936 381.745 69.1449 382.561 70.669C380.341 71.0802 378.1 71.3104 375.874 70.9322" stroke="#C69024" stroke-width="0.460951" stroke-miterlimit="10"/>
<path d="M376.118 64.6271C376.228 64.1227 376.382 63.6293 376.586 63.1523C379.086 64.5339 381.228 66.535 382.787 68.9253" stroke="#C69024" stroke-width="0.460951" stroke-miterlimit="10"/>
<path d="M376.827 65.2637C377.538 65.7023 378.265 66.1518 378.92 66.5959C379.019 66.6617 379.118 66.7275 379.212 66.7987C379.278 66.9851 379.339 67.177 379.377 67.3799C379.647 68.7669 379.091 70.0114 378.138 70.1704C377.185 70.3239 376.199 69.3261 375.93 67.9446C375.698 66.7384 376.089 65.6419 376.816 65.2691L376.827 65.2637Z" fill="#C69024"/>
<path d="M376.415 65.0156C375.66 66.6603 375.693 69.1603 376.591 71.0079" stroke="#C69024" stroke-width="0.460951" stroke-miterlimit="10"/>
<path d="M378.364 60.5373C377.576 60.4661 376.728 60.4058 376.106 59.9178C375.483 59.4299 375.301 58.3225 375.968 57.9003C376.254 57.7194 376.612 57.7084 376.954 57.7139C378.644 57.7468 380.324 58.0703 381.916 58.6514C383.271 59.1503 385.479 59.9946 386.377 61.1843C387.407 62.5494 384.835 61.9792 384.135 61.749C382.263 61.1294 380.33 60.7183 378.369 60.5319L378.364 60.5373Z" fill="#C69024"/>
<path d="M274.587 85.9484C274.587 85.9484 273.557 81.3322 267.493 78.3169C261.43 75.3016 258.395 70.7402 258.395 70.7402C258.395 70.7402 255.972 71.1404 257.249 74.0242C258.527 76.9079 261.226 77.7741 260.956 81.0965C260.686 84.4188 274.587 85.9484 274.587 85.9484Z" fill="#EAB892"/>
<path d="M237.021 82.3643L233.458 77.6988L231.988 73.1758" stroke="black" stroke-width="0.460951" stroke-linecap="round" stroke-linejoin="round"/>
<path d="M284.968 420.459L296.655 448.205C296.655 448.205 302.405 459.652 298.852 461.527C295.3 463.402 289.445 463.09 289.55 468.501H311.503V409.516L284.968 420.459Z" fill="#BBFFEB"/>
<path d="M304.214 72.7396C296.537 72.7396 290.313 66.5443 290.313 58.902C290.313 51.2597 296.537 45.0645 304.214 45.0645C311.892 45.0645 318.115 51.2597 318.115 58.902C318.115 66.5443 311.892 72.7396 304.214 72.7396Z" fill="#019DD8"/>
<path d="M173.553 227.968C165.876 227.968 159.652 221.773 159.652 214.131C159.652 206.488 165.876 200.293 173.553 200.293C181.23 200.293 187.454 206.488 187.454 214.131C187.454 221.773 181.23 227.968 173.553 227.968Z" fill="#019DD8"/>
<path d="M164.158 260.496L162.809 265.041C159.758 275.337 152.207 284.021 141.936 289.048C152.201 294.076 159.752 302.765 162.809 313.056L164.158 317.601L165.508 313.056C168.559 302.76 176.109 294.076 186.381 289.048C176.115 284.021 168.564 275.331 165.508 265.041L164.158 260.496Z" fill="url(#paint15_linear_2049_7321)"/>
<path d="M472.872 288.894L504.816 123.49C504.816 123.49 516.37 81.1768 529.286 68.3205C542.201 55.4643 575.504 12.8386 538.12 -4.75441C500.735 -22.3474 476.271 48.9183 475.588 59.9599C474.227 81.9553 488.971 90.0254 481.602 123.49C474.233 156.955 430.729 309.13 430.729 309.13H470.152L472.872 288.894Z" fill="url(#paint16_linear_2049_7321)"/>
<path d="M538.121 -4.7545C575.506 12.8385 542.196 55.4642 529.287 68.3204C516.372 81.1767 504.817 123.49 504.817 123.49L472.874 288.894L470.153 309.129H464.15L466.87 288.894L498.814 123.49C498.814 123.49 510.369 81.1767 523.284 68.3204C536.199 55.4642 569.502 12.8385 532.118 -4.7545C529.122 -6.16348 526.208 -7.00229 523.377 -7.34768C528.026 -7.91785 532.949 -7.18869 538.115 -4.7545H538.121Z" fill="#FAE6FF"/>
<path d="M350.216 170.36C350.216 170.36 359.64 120.849 369.068 115.777" stroke="#0088C7" stroke-width="0.437904" stroke-miterlimit="10"/>
<path d="M324.077 290.744H497.414C504.361 290.744 509.993 296.35 509.993 303.266V459.717C509.993 466.633 504.361 472.239 497.414 472.239H324.077C317.13 472.239 311.498 466.633 311.498 459.717V303.266C311.498 296.35 317.13 290.744 324.077 290.744Z" fill="url(#paint17_linear_2049_7321)"/>
<path d="M497.414 290.744H324.077C317.132 290.744 311.498 296.358 311.498 303.266V328.03H509.993V303.266C509.993 296.353 504.353 290.744 497.414 290.744Z" fill="#43B4DE"/>
<g style="mix-blend-mode:multiply" opacity="0.31">
<g style="mix-blend-mode:multiply" opacity="0.31">
<path d="M495.03 290.742H500.262V328.028H495.03V290.742Z" fill="#0088C3"/>
</g>
<g style="mix-blend-mode:multiply" opacity="0.31">
<path d="M470.202 290.742H475.435V328.028H470.202V290.742Z" fill="#0088C3"/>
</g>
<g style="mix-blend-mode:multiply" opacity="0.31">
<path d="M445.374 290.742H450.606V328.028H445.374V290.742Z" fill="#0088C3"/>
</g>
<g style="mix-blend-mode:multiply" opacity="0.31">
<path d="M420.548 290.742H425.78V328.028H420.548V290.742Z" fill="#0088C3"/>
</g>
<g style="mix-blend-mode:multiply" opacity="0.31">
<path d="M395.719 290.742H400.951V328.028H395.719V290.742Z" fill="#0088C3"/>
</g>
<g style="mix-blend-mode:multiply" opacity="0.31">
<path d="M370.891 290.742H376.123V328.028H370.891V290.742Z" fill="#0088C3"/>
</g>
<g style="mix-blend-mode:multiply" opacity="0.31">
<path d="M346.064 290.742H351.296V328.028H346.064V290.742Z" fill="#0088C3"/>
</g>
<g style="mix-blend-mode:multiply" opacity="0.31">
<path d="M321.237 290.742H326.469V328.028H321.237V290.742Z" fill="#0088C3"/>
</g>
</g>
<path d="M476.575 354.921H484.935V399.849H476.575V354.921ZM380.926 368.04C377.704 361.434 371.822 356.917 364.327 356.917C353.653 356.917 345.612 366.078 345.612 377.382C345.612 388.687 353.653 397.848 364.327 397.848C373.855 397.848 381.158 390.551 382.749 380.94H357.173V376.938H392.811V377.382C392.811 390.282 380.056 400.737 364.321 400.737C348.586 400.737 335.831 390.282 335.831 377.382C335.831 364.482 348.586 354.027 364.321 354.027C376.003 354.027 386.048 359.795 390.46 368.04H380.926ZM398.952 355.327H407.313V400.255H398.952V355.327ZM458.543 368.04C455.327 361.434 449.439 356.917 441.944 356.917C431.27 356.917 423.229 366.078 423.229 377.382C423.229 388.687 431.27 397.848 441.944 397.848C451.472 397.848 458.775 390.551 460.366 380.94H434.789V376.938H470.434V377.382C470.434 390.282 457.679 400.737 441.944 400.737C426.209 400.737 413.453 390.282 413.453 377.382C413.453 364.482 426.209 354.027 441.944 354.027C453.625 354.027 463.671 359.795 468.082 368.04H458.543ZM485.37 414.169C485.227 413.939 485.029 413.753 484.814 413.588C484.478 413.336 483.927 413.111 483.547 412.947C483.228 412.81 482.903 412.684 482.583 412.547C482.352 412.442 482.126 412.322 481.934 412.152C481.807 412.042 481.702 411.911 481.653 411.746C481.581 411.499 481.625 411.264 481.724 411.033C481.862 410.71 482.121 410.513 482.44 410.392C482.644 410.315 482.864 410.293 483.085 410.299C484.087 410.31 484.676 411.006 484.803 411.318H484.935L485.282 410.381C484.957 410.008 484.17 409.646 483.239 409.581C482.875 409.553 482.281 409.564 481.934 409.652C481.471 409.772 481.063 409.986 480.727 410.326C480.584 410.474 480.463 410.639 480.369 410.82C480.276 410.995 480.221 411.187 480.182 411.384C480.127 411.675 480.127 411.971 480.199 412.261C480.303 412.662 480.551 412.919 480.865 413.182C481.273 413.522 481.972 413.78 482.457 413.977C482.721 414.082 482.985 414.186 483.239 414.306C483.476 414.416 483.701 414.548 483.9 414.723C484.076 414.882 484.197 415.096 484.241 415.326C484.296 415.617 484.241 415.896 484.12 416.159C483.999 416.412 483.817 416.604 483.575 416.746C483.343 416.883 483.079 416.965 482.809 416.982C482.352 417.009 481.851 416.894 481.565 416.724C481.052 416.434 480.705 416.061 480.524 415.315H480.386L479.885 416.417C480.089 416.713 480.788 417.19 481.196 417.377C481.471 417.503 481.757 417.585 482.049 417.645C482.33 417.7 482.611 417.705 482.892 417.694C483.167 417.684 483.657 417.645 483.922 417.563C484.373 417.426 484.775 417.207 485.1 416.861C485.624 416.313 485.954 415.123 485.365 414.164L485.37 414.169ZM461.17 409.657H459.413V417.612H461.17V409.657ZM381.752 409.537C379.263 409.537 377.28 411.34 377.28 413.632C377.28 415.935 379.252 417.733 381.758 417.727C384.269 417.727 386.219 415.918 386.219 413.627C386.219 411.324 384.225 409.537 381.752 409.531V409.537ZM384.291 414.559C384.176 415.079 383.966 415.556 383.642 415.978C383.355 416.351 382.997 416.642 382.557 416.812C382.193 416.954 381.802 416.998 381.416 416.932C381.025 416.867 380.678 416.702 380.37 416.461C380.051 416.209 379.808 415.902 379.61 415.545C379.478 415.31 379.379 415.057 379.302 414.8C379.18 414.372 379.125 413.939 379.136 413.5C379.142 413.193 379.18 412.892 379.252 412.59C379.401 411.998 379.66 411.461 380.078 411.011C380.337 410.732 380.645 410.562 381.009 410.43C381.284 410.326 381.576 410.282 381.868 410.299C382.435 410.326 382.909 410.556 383.317 410.935C383.691 411.28 383.95 411.658 384.132 412.13C384.225 412.371 384.297 412.623 384.33 412.881C384.363 413.122 384.385 413.369 384.396 413.511C384.385 413.934 384.357 414.252 384.286 414.564L384.291 414.559ZM434.867 409.537C432.377 409.537 430.395 411.34 430.395 413.632C430.395 415.935 432.366 417.733 434.872 417.727C437.383 417.727 439.333 415.918 439.333 413.627C439.333 411.324 437.339 409.537 434.867 409.531V409.537ZM437.406 414.559C437.29 415.079 437.081 415.556 436.756 415.978C436.469 416.351 436.111 416.642 435.671 416.812C435.307 416.954 434.916 416.998 434.531 416.932C434.14 416.867 433.793 416.702 433.484 416.461C433.165 416.209 432.922 415.902 432.724 415.545C432.592 415.31 432.493 415.057 432.416 414.8C432.295 414.372 432.24 413.939 432.251 413.5C432.256 413.193 432.295 412.892 432.366 412.59C432.515 411.998 432.774 411.461 433.198 411.011C433.457 410.732 433.765 410.562 434.129 410.43C434.404 410.326 434.696 410.282 434.988 410.299C435.555 410.326 436.029 410.556 436.436 410.935C436.811 411.28 437.07 411.658 437.251 412.13C437.345 412.371 437.417 412.623 437.45 412.881C437.483 413.122 437.505 413.369 437.516 413.511C437.505 413.934 437.477 414.252 437.406 414.564V414.559ZM353.648 409.559L349.936 417.618H350.861L351.368 416.499C351.571 416.05 351.946 415.216 352.045 414.992C353.554 414.992 355.03 414.992 355.03 414.992H355.063C355.168 415.227 355.559 416.127 355.724 416.516C355.873 416.861 356.203 417.623 356.203 417.623H358.01L354.336 409.564H353.648V409.559ZM352.365 414.241C352.365 414.241 353.565 411.571 353.571 411.571L354.738 414.241H352.365ZM408.679 409.559L404.966 417.618H405.892L406.398 416.499C406.602 416.05 406.977 415.216 407.076 414.992C408.585 414.992 410.061 414.992 410.061 414.992H410.094C410.199 415.227 410.59 416.127 410.755 416.516C410.904 416.861 411.234 417.623 411.234 417.623H413.04L409.367 409.564H408.679V409.559ZM407.395 414.241C407.395 414.241 408.596 411.571 408.601 411.571C408.601 411.571 409.378 413.341 409.769 414.241H407.395ZM341.113 416.708V409.646H339.328V417.612H344.428V416.702H341.113V416.708ZM398.088 413.769C398.594 413.435 398.892 412.941 398.98 412.338C399.04 411.905 398.98 411.488 398.787 411.099C398.611 410.726 398.341 410.43 397.999 410.195C397.642 409.948 397.239 409.794 396.81 409.712C396.579 409.668 396.347 409.652 396.116 409.652H393.043V417.612H394.739V414.268H395.169L397.498 417.618H399.509L397.135 414.208C397.135 414.208 397.52 414.131 398.088 413.764V413.769ZM395.736 413.638C395.428 413.638 394.739 413.638 394.739 413.638V410.326C394.739 410.326 395.163 410.326 395.527 410.326C395.664 410.326 395.791 410.337 395.89 410.343C396.386 410.381 396.804 410.573 397.129 410.962C397.273 411.138 397.361 411.335 397.416 411.554C397.471 411.768 397.482 411.987 397.454 412.207C397.388 412.832 397.069 413.276 396.468 413.506C396.232 413.599 395.984 413.638 395.73 413.638H395.736ZM370.517 414.58C370.335 414.147 370.033 413.813 369.608 413.605C369.449 413.522 369.272 413.468 369.096 413.396C369.168 413.369 369.239 413.347 369.306 413.314C369.597 413.177 369.851 412.991 370.038 412.727C370.176 412.536 370.269 412.316 370.308 412.086C370.363 411.768 370.341 411.456 370.242 411.143C370.121 410.765 369.9 410.447 369.592 410.195C369.261 409.931 368.881 409.789 368.468 409.712C368.221 409.668 367.973 409.652 367.725 409.652C366.712 409.652 364.597 409.652 364.597 409.652V417.618H368.055C368.397 417.618 368.733 417.585 369.058 417.497C369.283 417.431 369.498 417.344 369.697 417.218C370.005 417.02 370.242 416.768 370.413 416.45C370.545 416.198 370.622 415.929 370.655 415.65C370.699 415.282 370.655 414.926 370.517 414.58ZM367.306 410.337C367.741 410.354 368.127 410.485 368.424 410.82C368.584 411 368.678 411.214 368.727 411.445C368.771 411.653 368.766 411.867 368.727 412.075C368.65 412.459 368.441 412.749 368.094 412.947C367.835 413.095 367.549 413.155 367.257 413.161C367.13 413.161 366.998 413.161 366.904 413.161C366.7 413.161 366.304 413.161 366.304 413.161V410.326C366.706 410.326 366.91 410.326 367.312 410.337H367.306ZM369.074 415.595C369.019 415.94 368.876 416.247 368.606 416.488C368.435 416.642 368.232 416.741 368.006 416.795C367.802 416.845 367.598 416.861 367.394 416.861C366.965 416.861 366.728 416.861 366.298 416.861V413.824C366.756 413.824 367.02 413.824 367.477 413.824C367.758 413.824 368.033 413.857 368.298 413.966C368.601 414.098 368.821 414.306 368.953 414.597C369.096 414.915 369.135 415.244 369.08 415.589L369.074 415.595ZM424.342 409.652H418.443V410.452H420.514V417.618H422.271V410.452H424.342V409.652ZM474.124 410.392V409.657H468.765V417.618H474.124V416.883H470.439V413.955H473.964V413.221H470.439V410.392H474.124ZM451.18 413.769C451.686 413.435 451.989 412.941 452.072 412.338C452.138 411.905 452.072 411.488 451.879 411.099C451.697 410.726 451.433 410.43 451.092 410.195C450.734 409.948 450.332 409.794 449.902 409.712C449.671 409.668 449.439 409.652 449.208 409.652H446.135V417.612H447.831V414.268H448.261L450.59 417.618H452.601L450.227 414.208C450.227 414.208 450.612 414.131 451.18 413.764V413.769ZM448.828 413.638C448.52 413.638 447.837 413.638 447.837 413.638V410.326C447.837 410.326 448.255 410.326 448.624 410.326C448.762 410.326 448.894 410.337 448.988 410.343C449.483 410.381 449.902 410.573 450.227 410.962C450.37 411.138 450.458 411.335 450.513 411.554C450.568 411.768 450.579 411.987 450.552 412.207C450.486 412.832 450.166 413.276 449.566 413.506C449.329 413.599 449.081 413.638 448.828 413.638Z" fill="#173066"/>
<path d="M75.7832 306C63.7052 322.19 60.1474 345.917 73.6077 361.794C80.5692 369.662 93.8862 373.845 103.177 368.757C106.515 366.931 106.107 361.931 102.511 360.681C102.483 360.671 102.461 360.665 102.434 360.654C74.7478 358.225 79.3135 393.779 103.904 403.357" stroke="#0088C7" stroke-width="0.460951" stroke-linecap="round" stroke-linejoin="round"/>
<path d="M168.446 340.004C170.016 340.371 171.651 340.634 173.348 340.788" stroke="#0088C7" stroke-width="0.460951" stroke-linecap="round" stroke-linejoin="round"/>
<path d="M549.278 409.515C522.204 409.515 500.256 404.799 500.256 398.983C500.256 393.166 522.204 388.451 549.278 388.451C576.352 388.451 598.3 393.166 598.3 398.983C598.3 404.799 576.352 409.515 549.278 409.515Z" fill="white"/>
<path opacity="0.73" d="M503.829 357.256L519.767 335.238V301.297H578.593V335.238L594.531 357.256C596.916 360.551 598.199 364.509 598.199 368.566V476.948C598.199 483.976 576.252 489.678 549.177 489.678C522.102 489.678 500.155 483.976 500.155 476.948V368.566C500.155 364.504 501.438 360.551 503.823 357.256H503.829Z" fill="#BEF5FF"/>
<g style="mix-blend-mode:darken" opacity="0.22">
<path d="M549.183 377.125C576.258 377.125 598.205 372.411 598.205 366.594V476.949C598.205 483.977 576.258 489.679 549.183 489.679C522.108 489.679 500.161 483.977 500.161 476.949V366.594C500.161 372.411 522.108 377.125 549.183 377.125Z" fill="#0088C7"/>
</g>
<path d="M549.183 409.508C576.258 409.508 598.205 404.793 598.205 398.977V476.942C598.205 483.97 576.258 489.672 549.183 489.672C522.108 489.672 500.161 483.97 500.161 476.942V398.977C500.161 404.793 522.108 409.508 549.183 409.508Z" fill="url(#paint18_linear_2049_7321)"/>
<g style="mix-blend-mode:darken" opacity="0.22">
<path d="M549.183 377.125C576.258 377.125 598.205 372.411 598.205 366.594V398.978C598.205 393.161 576.258 388.447 549.183 388.447C522.108 388.447 500.161 393.161 500.161 398.978V366.594C500.161 372.411 522.108 377.125 549.183 377.125Z" fill="#0088C7"/>
</g>
<path d="M514.19 321.768C537.756 325.913 561.874 325.913 585.446 321.768C586.266 321.768 586.933 321.105 586.933 320.288V291.429C586.933 285.574 582.163 280.82 576.276 280.82H523.36C517.478 280.82 512.703 285.568 512.703 291.429V320.288C512.703 321.105 513.369 321.768 514.19 321.768Z" fill="url(#paint19_linear_2049_7321)"/>
<path d="M519.339 281.966H580.296C580.643 281.966 580.924 281.686 580.924 281.341V279.526C580.924 277.054 578.914 275.053 576.43 275.053H523.205C520.722 275.053 518.711 277.054 518.711 279.526V281.341C518.711 281.686 518.992 281.966 519.339 281.966Z" fill="#019DD8"/>
<path d="M281.801 105.588C281.801 105.588 277.907 95.1658 275.732 88.3621C274.498 84.508 271.078 81.7503 267.03 81.372C264.887 81.1747 262.123 81.0541 258.554 81.0925C243.337 81.2514 242.119 79.3436 242.119 79.3436L237.251 74.5848C237.251 74.5848 234.007 65.0235 229.744 65.2593L231.975 73.1704L226.495 70.177C226.495 70.177 220.001 60.4512 216.757 61.0543L223.047 73.3732C223.047 73.3732 232.988 83.0661 234.613 87.1067C234.613 87.1067 234.613 88.5266 243.133 89.3325C248.304 89.8204 255.271 91.9476 259.947 93.543C263.274 94.6778 265.829 97.3752 266.738 100.758C267.982 105.39 269.293 112.243 268.285 118.11L281.79 105.588H281.801Z" fill="#FEE2CC"/>
<g style="mix-blend-mode:screen" opacity="0.73">
<path d="M520.539 425.167C519.094 425.167 517.923 424.001 517.923 422.563C517.923 421.125 519.094 419.959 520.539 419.959C521.984 419.959 523.155 421.125 523.155 422.563C523.155 424.001 521.984 425.167 520.539 425.167Z" fill="#BEF5FF"/>
<path d="M520.539 425.167C519.094 425.167 517.923 424.001 517.923 422.563C517.923 421.125 519.094 419.959 520.539 419.959C521.984 419.959 523.155 421.125 523.155 422.563C523.155 424.001 521.984 425.167 520.539 425.167Z" stroke="black" stroke-width="0.244304" stroke-miterlimit="10"/>
</g>
<g style="mix-blend-mode:screen" opacity="0.73">
<path d="M519.766 463.566C518.321 463.566 517.15 462.4 517.15 460.962C517.15 459.523 518.321 458.357 519.766 458.357C521.211 458.357 522.382 459.523 522.382 460.962C522.382 462.4 521.211 463.566 519.766 463.566Z" fill="#BEF5FF"/>
<path d="M519.766 463.566C518.321 463.566 517.15 462.4 517.15 460.962C517.15 459.523 518.321 458.357 519.766 458.357C521.211 458.357 522.382 459.523 522.382 460.962C522.382 462.4 521.211 463.566 519.766 463.566Z" stroke="black" stroke-width="0.244304" stroke-miterlimit="10"/>
</g>
<defs>
<linearGradient id="paint0_linear_2049_7321" x1="595.041" y1="-207.987" x2="-233.961" y2="693.689" gradientUnits="userSpaceOnUse">
<stop stop-color="#EDFCFF"/>
<stop offset="0.345733" stop-color="#BEF5FF"/>
<stop offset="1" stop-color="#0190CC"/>
</linearGradient>
<linearGradient id="paint1_linear_2049_7321" x1="139.687" y1="57.8838" x2="70.7755" y2="-12.9452" gradientUnits="userSpaceOnUse">
<stop offset="0.15" stop-color="#0088C3"/>
<stop offset="1" stop-color="#0F1F42"/>
</linearGradient>
<linearGradient id="paint2_linear_2049_7321" x1="156.982" y1="61.6176" x2="123.153" y2="212.943" gradientUnits="userSpaceOnUse">
<stop stop-color="#0088C3"/>
<stop offset="1" stop-color="#0F1F42"/>
</linearGradient>
<linearGradient id="paint3_linear_2049_7321" x1="181.032" y1="111.568" x2="166.41" y2="111.568" gradientUnits="userSpaceOnUse">
<stop stop-color="#0088C3"/>
<stop offset="1" stop-color="#0F1F42"/>
</linearGradient>
<linearGradient id="paint4_linear_2049_7321" x1="214.579" y1="74.4909" x2="180.75" y2="225.822" gradientUnits="userSpaceOnUse">
<stop stop-color="#0088C3"/>
<stop offset="1" stop-color="#0F1F42"/>
</linearGradient>
<linearGradient id="paint5_linear_2049_7321" x1="243.564" y1="192.286" x2="218.021" y2="192.286" gradientUnits="userSpaceOnUse">
<stop stop-color="#0088C3"/>
<stop offset="1" stop-color="#0F1F42"/>
</linearGradient>
<linearGradient id="paint6_linear_2049_7321" x1="289.293" y1="91.1933" x2="255.464" y2="242.524" gradientUnits="userSpaceOnUse">
<stop stop-color="#0088C3"/>
<stop offset="1" stop-color="#0F1F42"/>
</linearGradient>
<linearGradient id="paint7_linear_2049_7321" x1="229.459" y1="475.413" x2="229" y2="445.703" gradientUnits="userSpaceOnUse">
<stop stop-color="#0088C3"/>
<stop offset="1" stop-color="#0F1F42"/>
</linearGradient>
<linearGradient id="paint8_linear_2049_7321" x1="101.953" y1="353.615" x2="201.88" y2="356.985" gradientUnits="userSpaceOnUse">
<stop stop-color="#BEF5FF"/>
<stop offset="1" stop-color="#0088C3"/>
</linearGradient>
<linearGradient id="paint9_linear_2049_7321" x1="294.258" y1="403.888" x2="122.766" y2="403.888" gradientUnits="userSpaceOnUse">
<stop stop-color="#0088C3"/>
<stop offset="1" stop-color="#0F1F42"/>
</linearGradient>
<linearGradient id="paint10_linear_2049_7321" x1="184.374" y1="357.298" x2="252.397" y2="358.144" gradientUnits="userSpaceOnUse">
<stop stop-color="#0088C3"/>
<stop offset="1" stop-color="#0F1F42"/>
</linearGradient>
<linearGradient id="paint11_linear_2049_7321" x1="407.065" y1="112.362" x2="360.096" y2="240.022" gradientUnits="userSpaceOnUse">
<stop stop-color="#F0F4F8"/>
<stop offset="0.45" stop-color="#00DC86"/>
<stop offset="1" stop-color="#23626A"/>
</linearGradient>
<linearGradient id="paint12_linear_2049_7321" x1="328.433" y1="80.0212" x2="297.443" y2="408.109" gradientUnits="userSpaceOnUse">
<stop offset="0.07" stop-color="white"/>
<stop offset="0.33" stop-color="#BEF5FF"/>
</linearGradient>
<linearGradient id="paint13_linear_2049_7321" x1="455.348" y1="92.006" x2="424.359" y2="420.1" gradientUnits="userSpaceOnUse">
<stop offset="0.11" stop-color="white"/>
<stop offset="0.6" stop-color="#BEF5FF"/>
</linearGradient>
<linearGradient id="paint14_linear_2049_7321" x1="443.093" y1="-3.28755" x2="389.788" y2="118.201" gradientUnits="userSpaceOnUse">
<stop offset="0.3" stop-color="white"/>
<stop offset="0.46" stop-color="#FFCE4E"/>
<stop offset="0.94" stop-color="#C69024"/>
</linearGradient>
<linearGradient id="paint15_linear_2049_7321" x1="186.063" y1="239.041" x2="106.913" y2="346.022" gradientUnits="userSpaceOnUse">
<stop stop-color="white"/>
<stop offset="0.46" stop-color="#FFCE4E"/>
<stop offset="0.94" stop-color="#C69024"/>
</linearGradient>
<linearGradient id="paint16_linear_2049_7321" x1="527.022" y1="-8.05482" x2="440.257" y2="364.36" gradientUnits="userSpaceOnUse">
<stop offset="0.21" stop-color="#F5CCFF"/>
<stop offset="0.77" stop-color="#BB7AC9"/>
</linearGradient>
<linearGradient id="paint17_linear_2049_7321" x1="490.117" y1="285.371" x2="294.093" y2="524.942" gradientUnits="userSpaceOnUse">
<stop offset="0.26" stop-color="white"/>
<stop offset="0.9" stop-color="#BEF5FF"/>
</linearGradient>
<linearGradient id="paint18_linear_2049_7321" x1="549.183" y1="390.967" x2="549.183" y2="471.509" gradientUnits="userSpaceOnUse">
<stop stop-color="#0088C3"/>
<stop offset="1" stop-color="#0F1F42"/>
</linearGradient>
<linearGradient id="paint19_linear_2049_7321" x1="549.818" y1="253.578" x2="549.818" y2="315.403" gradientUnits="userSpaceOnUse">
<stop stop-color="#BEF5FF"/>
<stop offset="1" stop-color="#0088C3"/>
</linearGradient>
</defs>
</svg>
