<svg width="68" height="68" viewBox="0 0 68 68" fill="none" xmlns="http://www.w3.org/2000/svg">
<path d="M50.6256 5.02214C55.7161 7.96127 59.9507 12.1789 62.9102 17.2575C65.8696 22.3361 67.4514 28.0996 67.4989 33.9774C67.5464 39.8552 66.0579 45.6435 63.1808 50.7692C60.3038 55.895 56.1379 60.1805 51.0956 63.2015C46.0532 66.2224 40.3094 67.8742 34.4325 67.9931C28.5557 68.112 22.7496 66.6941 17.5892 63.8796C12.4288 61.0651 8.09291 56.9517 5.01081 51.9465C1.92871 46.9413 0.207259 41.218 0.0168756 35.3431L0 34.2496L0.0168756 33.1561C0.205888 27.3275 1.902 21.6473 4.93984 16.6692C7.97769 11.6912 12.2536 7.58529 17.3507 4.75174C22.4478 1.91819 28.1922 0.453726 34.0238 0.501115C39.8554 0.548503 45.5752 2.10613 50.6256 5.02214ZM33.7504 13.9996C32.9238 13.9997 32.1259 14.3032 31.5081 14.8525C30.8904 15.4019 30.4957 16.1588 30.399 16.9798L30.3754 17.3746V34.2496L30.4057 34.6918C30.4827 35.2773 30.712 35.8324 31.0706 36.3016L31.3643 36.6391L41.4894 46.7641L41.8066 47.0409C42.3985 47.5001 43.1264 47.7493 43.8755 47.7493C44.6247 47.7493 45.3525 47.5001 45.9444 47.0409L46.2617 46.7608L46.5418 46.4435C47.001 45.8516 47.2503 45.1238 47.2503 44.3746C47.2503 43.6255 47.001 42.8976 46.5418 42.3058L46.2617 41.9885L37.1255 32.849V17.3746L37.1018 16.9798C37.0051 16.1588 36.6104 15.4019 35.9927 14.8525C35.3749 14.3032 34.5771 13.9997 33.7504 13.9996Z" fill="url(#paint0_linear_401_11005)"/>
<path d="M50.6256 5.02214C55.7161 7.96127 59.9507 12.1789 62.9102 17.2575C65.8696 22.3361 67.4514 28.0996 67.4989 33.9774C67.5464 39.8552 66.0579 45.6435 63.1808 50.7692C60.3038 55.895 56.1379 60.1805 51.0956 63.2015C46.0532 66.2224 40.3094 67.8742 34.4325 67.9931C28.5557 68.112 22.7496 66.6941 17.5892 63.8796C12.4288 61.0651 8.09291 56.9517 5.01081 51.9465C1.92871 46.9413 0.207259 41.218 0.0168756 35.3431L0 34.2496L0.0168756 33.1561C0.205888 27.3275 1.902 21.6473 4.93984 16.6692C7.97769 11.6912 12.2536 7.58529 17.3507 4.75174C22.4478 1.91819 28.1922 0.453726 34.0238 0.501115C39.8554 0.548503 45.5752 2.10613 50.6256 5.02214ZM33.7504 13.9996C32.9238 13.9997 32.1259 14.3032 31.5081 14.8525C30.8904 15.4019 30.4957 16.1588 30.399 16.9798L30.3754 17.3746V34.2496L30.4057 34.6918C30.4827 35.2773 30.712 35.8324 31.0706 36.3016L31.3643 36.6391L41.4894 46.7641L41.8066 47.0409C42.3985 47.5001 43.1264 47.7493 43.8755 47.7493C44.6247 47.7493 45.3525 47.5001 45.9444 47.0409L46.2617 46.7608L46.5418 46.4435C47.001 45.8516 47.2503 45.1238 47.2503 44.3746C47.2503 43.6255 47.001 42.8976 46.5418 42.3058L46.2617 41.9885L37.1255 32.849V17.3746L37.1018 16.9798C37.0051 16.1588 36.6104 15.4019 35.9927 14.8525C35.3749 14.3032 34.5771 13.9997 33.7504 13.9996Z" fill="url(#paint1_linear_401_11005)"/>
<defs>
<linearGradient id="paint0_linear_401_11005" x1="123.917" y1="-15.3636" x2="67.8742" y2="107.083" gradientUnits="userSpaceOnUse">
<stop stop-color="#F0F4F8"/>
<stop offset="0.0754656" stop-color="#F0F4F8"/>
<stop offset="0.33956" stop-color="#DE97FF"/>
<stop offset="0.83" stop-color="#A827D8"/>
<stop offset="0.953982" stop-color="#8520AB"/>
</linearGradient>
<linearGradient id="paint1_linear_401_11005" x1="-24.1071" y1="-46.1071" x2="31.1912" y2="111.398" gradientUnits="userSpaceOnUse">
<stop offset="0.2" stop-color="#FFFFA8"/>
<stop offset="0.53" stop-color="#FFCE4E"/>
<stop offset="0.94" stop-color="#C69024"/>
</linearGradient>
</defs>
</svg>
