<svg width="36" height="39" viewBox="0 0 36 39" fill="none" xmlns="http://www.w3.org/2000/svg">
<path d="M9.26181 17.7148C4.13768 17.7148 0.334205 13.8585 0.334205 8.99848C0.334205 4.1913 4.13768 0.282173 9.26181 0.282173C14.3331 0.282173 18.1366 4.08565 18.1366 8.99848C18.1366 13.8585 14.3859 17.7148 9.26181 17.7148ZM4.08486 32.4004L28.1736 5.61761L31.3959 7.41369L7.25442 34.2493L4.08486 32.4004ZM9.20899 12.3793C11.1636 12.3793 12.537 10.8474 12.537 8.99848C12.537 7.14956 11.1636 5.67043 9.20899 5.67043C7.30725 5.67043 5.93377 7.14956 5.93377 8.99848C5.93377 10.9002 7.30725 12.3793 9.20899 12.3793ZM27.117 38.6339C21.9929 38.6339 18.2422 34.7248 18.2422 29.9176C18.2422 25.1104 21.9929 21.2013 27.117 21.2013C32.2412 21.2013 35.9918 25.1104 35.9918 29.9176C35.9918 34.7248 32.2412 38.6339 27.117 38.6339ZM27.117 33.2985C29.0716 33.2985 30.3922 31.7137 30.3922 29.9176C30.3922 28.0159 29.0716 26.5367 27.117 26.5367C25.1625 26.5367 23.8418 28.0159 23.8418 29.9176C23.8418 31.8193 25.1625 33.2985 27.117 33.2985Z" fill="url(#paint0_linear_469_1200)"/>
<defs>
<linearGradient id="paint0_linear_469_1200" x1="37.9612" y1="-9.38023" x2="0.409014" y2="40.5663" gradientUnits="userSpaceOnUse">
<stop stop-color="#BEF5FF"/>
<stop offset="1" stop-color="#0088C3"/>
</linearGradient>
</defs>
</svg>
