<svg width="48" height="63" viewBox="0 0 48 63" fill="none" xmlns="http://www.w3.org/2000/svg">
<path fill-rule="evenodd" clip-rule="evenodd" d="M41.6653 23.6254V57.0948H6.68209V5.90636H24.1737V16.7347C24.1737 20.5384 27.2211 23.6254 30.976 23.6254H41.6653ZM41.1949 17.7191L30.0042 6.38281V16.7347C30.0042 17.2781 30.4396 17.7191 30.976 17.7191H41.1949ZM0.851562 3.93757C0.851562 2.89326 1.26109 1.89173 1.99004 1.15329C2.719 0.41485 3.70768 0 4.73858 0L30.3385 0C31.3693 0.000223014 32.3578 0.41522 33.0866 1.15371L46.3569 14.5966C47.0859 15.3349 47.4956 16.3362 47.4958 17.3805V59.0636C47.4958 60.1079 47.0863 61.1095 46.3573 61.8479C45.6284 62.5863 44.6397 63.0012 43.6088 63.0012H4.73858C3.70768 63.0012 2.719 62.5863 1.99004 61.8479C1.26109 61.1095 0.851563 60.1079 0.851562 59.0636V3.93757ZM15.4279 31.5006C14.6547 31.5006 13.9132 31.8117 13.3665 32.3656C12.8198 32.9194 12.5126 33.6705 12.5126 34.4538C12.5126 35.237 12.8198 35.9882 13.3665 36.542C13.9132 37.0958 14.6547 37.407 15.4279 37.407H32.9195C33.6926 37.407 34.4342 37.0958 34.9809 36.542C35.5276 35.9882 35.8347 35.237 35.8347 34.4538C35.8347 33.6705 35.5276 32.9194 34.9809 32.3656C34.4342 31.8117 33.6926 31.5006 32.9195 31.5006H15.4279ZM12.5126 44.2977C12.5126 43.5145 12.8198 42.7633 13.3665 42.2095C13.9132 41.6557 14.6547 41.3445 15.4279 41.3445H25.1454C25.9186 41.3445 26.6601 41.6557 27.2068 42.2095C27.7536 42.7633 28.0607 43.5145 28.0607 44.2977C28.0607 45.0809 27.7536 45.8321 27.2068 46.3859C26.6601 46.9398 25.9186 47.2509 25.1454 47.2509H15.4279C14.6547 47.2509 13.9132 46.9398 13.3665 46.3859C12.8198 45.8321 12.5126 45.0809 12.5126 44.2977Z" fill="url(#paint0_linear_401_11010)"/>
<defs>
<linearGradient id="paint0_linear_401_11010" x1="88.9502" y1="-14.8094" x2="29.2871" y2="89.1955" gradientUnits="userSpaceOnUse">
<stop stop-color="#F0F4F8"/>
<stop offset="0.0754656" stop-color="#F0F4F8"/>
<stop offset="0.33956" stop-color="#DE97FF"/>
<stop offset="0.83" stop-color="#A827D8"/>
<stop offset="0.953982" stop-color="#8520AB"/>
</linearGradient>
</defs>
</svg>
