<svg width="197" height="77" viewBox="0 0 197 77" fill="none" xmlns="http://www.w3.org/2000/svg">
<path d="M19.26 40.94C10.53 40.94 4.05 34.37 4.05 26.09C4.05 17.9 10.53 11.24 19.26 11.24C27.9 11.24 34.38 17.72 34.38 26.09C34.38 34.37 27.99 40.94 19.26 40.94ZM10.44 65.96L51.48 20.33L56.97 23.39L15.84 69.11L10.44 65.96ZM19.17 31.85C22.5 31.85 24.84 29.24 24.84 26.09C24.84 22.94 22.5 20.42 19.17 20.42C15.93 20.42 13.59 22.94 13.59 26.09C13.59 29.33 15.93 31.85 19.17 31.85ZM49.68 76.58C40.95 76.58 34.56 69.92 34.56 61.73C34.56 53.54 40.95 46.88 49.68 46.88C58.41 46.88 64.8 53.54 64.8 61.73C64.8 69.92 58.41 76.58 49.68 76.58ZM49.68 67.49C53.01 67.49 55.26 64.79 55.26 61.73C55.26 58.49 53.01 55.97 49.68 55.97C46.35 55.97 44.1 58.49 44.1 61.73C44.1 64.97 46.35 67.49 49.68 67.49Z" fill="url(#paint0_linear_401_11014)"/>
<defs>
<linearGradient id="paint0_linear_401_11014" x1="349.793" y1="-1.16034" x2="335.98" y2="110.051" gradientUnits="userSpaceOnUse">
<stop stop-color="#BEF5FF"/>
<stop offset="1" stop-color="#0088C3"/>
</linearGradient>
</defs>
</svg>
