<svg xmlns="http://www.w3.org/2000/svg" xmlns:xlink="http://www.w3.org/1999/xlink" viewBox="0 0 75.22 50"><defs><style>.cls-1{fill:url(#Безымянный_градиент_14);}.cls-2{fill:url(#Безымянный_градиент_14-2);}.cls-3{fill:url(#Безымянный_градиент_14-3);}.cls-4{fill:url(#Безымянный_градиент_14-4);}.cls-5{fill:url(#Безымянный_градиент_14-5);}.cls-6{fill:url(#Безымянный_градиент_14-6);}.cls-7{fill:url(#Безымянный_градиент_14-7);}</style><linearGradient id="Безымянный_градиент_14" x1="28.94" y1="129.4" x2="68.42" y2="91.73" gradientTransform="matrix(1, 0, 0, -1, 0, 123.54)" gradientUnits="userSpaceOnUse"><stop offset="0.2" stop-color="#ffffa8"/><stop offset="0.53" stop-color="#ffce4e"/><stop offset="0.94" stop-color="#c69024"/></linearGradient><linearGradient id="Безымянный_градиент_14-2" x1="53.95" y1="79.94" x2="54.12" y2="73.83" xlink:href="#Безымянный_градиент_14"/><linearGradient id="Безымянный_градиент_14-3" x1="20.27" y1="79.92" x2="20.44" y2="73.84" xlink:href="#Безымянный_градиент_14"/><linearGradient id="Безымянный_градиент_14-4" x1="-5.44" y1="150.25" x2="38.62" y2="58.67" xlink:href="#Безымянный_градиент_14"/><linearGradient id="Безымянный_градиент_14-5" x1="63.97" y1="96.8" x2="78.88" y2="94.67" xlink:href="#Безымянный_градиент_14"/><linearGradient id="Безымянный_градиент_14-6" x1="-2.84" y1="96.04" x2="6.33" y2="95.24" xlink:href="#Безымянный_градиент_14"/><linearGradient id="Безымянный_градиент_14-7" x1="21.72" y1="166.08" x2="48.85" y2="45.69" xlink:href="#Безымянный_градиент_14"/></defs><g id="Слой_2" data-name="Слой 2"><g id="Слой_1-2" data-name="Слой 1"><path class="cls-1" d="M55.92,3.41a1,1,0,0,0,.79-1.66A4.12,4.12,0,0,0,53.45.16h-.26C52.09.1,50.27,0,50,0a3.32,3.32,0,0,0-2.68,1.53l0,.09a4.48,4.48,0,0,0-.43,2.29V30.15l1.61-1.69a1,1,0,0,1,1.47,0l1.65,1.71V4.59a1,1,0,0,1,.93-1c1.18-.09,2.33-.14,3.45-.14Z"/><path class="cls-2" d="M68.17,48.24c-4-1.31-13.68-3.65-26.87-1.38a1,1,0,0,0-.72.56,3.55,3.55,0,0,1-.59.82H68.17Z"/><path class="cls-3" d="M6.26,48.25h28.3a3.62,3.62,0,0,1-.58-.81,1,1,0,0,0-.71-.54c-13.26-2.32-23,0-27,1.35Z"/><path class="cls-4" d="M36.14,41.46V8.65a1,1,0,0,0-.59-.93C33.77,6.93,30.36,5.43,29.08,5c-10.37-3.34-21.69-.23-24.34.6V45.5a1,1,0,0,0,1.32,1,52.82,52.82,0,0,1,16-2.31A66.05,66.05,0,0,1,32.66,45a1,1,0,0,0,1.12-.65,3.69,3.69,0,0,1,1.84-2,1,1,0,0,0,.5-.88Z"/><path class="cls-5" d="M73.48,8.7a1,1,0,1,0-2,0V47.21a1,1,0,1,0,2,0Z"/><path class="cls-6" d="M3,7.67H1.76V48.24H3Z"/><path class="cls-7" d="M71.43,5.93V4.35l-.57-.2c-.56-.2-13.68-4.78-26-.8-1.53.5-5.68,2.35-7.2,3a1,1,0,0,1-.82,0c-1.52-.68-5.67-2.53-7.2-3-12.36-4-25.49.6-26,.8L3,4.35V5.93H1A1,1,0,0,0,0,7V49a1,1,0,0,0,1,1H74.19a1,1,0,0,0,1-1V7a1,1,0,0,0-1-1ZM3,48.24H1.76V7.68H3Zm3.27,0c4-1.3,13.75-3.66,27-1.34a1.06,1.06,0,0,1,.7.54,3.65,3.65,0,0,0,.58.8H6.26Zm33.75,0a3.72,3.72,0,0,0,.59-.82,1,1,0,0,1,.72-.56c13.2-2.27,22.87.08,26.88,1.38H40ZM69.7,45.49a1,1,0,0,1-1.32,1,52.82,52.82,0,0,0-16-2.31,67.11,67.11,0,0,0-11.41,1l-1.67.3-1,.12V8.64a1,1,0,0,1,.59-.93c1.78-.79,5.19-2.29,6.47-2.71,9.6-3.1,20-.66,23.61.38a1,1,0,0,1,.73,1V45.49Zm2.76,2.75a1,1,0,0,1-1-1V8.69a1,1,0,0,1,2.06,0V47.22A1,1,0,0,1,72.46,48.24Z"/></g></g></svg>