<svg width="76" height="51" viewBox="0 0 76 51" fill="none" xmlns="http://www.w3.org/2000/svg">
<path d="M17.1 21.62C25.8 21.86 31.8 27.8 31.8 36.2C31.8 44.78 25.56 50.84 16.56 50.84C7.56 50.84 1.38 44.78 1.38 36.2C1.38 32.96 2.28 30.08 3.84 27.74L16.92 8H26.4L17.1 21.62ZM16.56 43.04C20.46 43.04 23.58 40.46 23.58 36.2C23.58 32 20.46 29.42 16.56 29.42C12.66 29.42 9.6 31.94 9.6 36.2C9.6 40.46 12.66 43.04 16.56 43.04ZM52.0641 50.84C41.3841 50.84 35.2641 41.96 35.2641 29C35.2641 16.04 41.3841 7.16 52.0641 7.16C62.8041 7.16 68.8641 16.04 68.8641 29C68.8641 41.96 62.8041 50.84 52.0641 50.84ZM52.0641 42.74C57.7041 42.74 60.6441 37.88 60.6441 29C60.6441 20.12 57.7041 15.2 52.0641 15.2C46.4241 15.2 43.5441 20.12 43.5441 29C43.5441 37.88 46.4241 42.74 52.0641 42.74Z" fill="url(#paint0_linear_401_12471)"/>
<defs>
<linearGradient id="paint0_linear_401_12471" x1="564.594" y1="15" x2="540.492" y2="-107.234" gradientUnits="userSpaceOnUse">
<stop stop-color="#F0F4F8"/>
<stop offset="0.300019" stop-color="#00DC86"/>
<stop offset="1" stop-color="#23626A"/>
</linearGradient>
</defs>
</svg>
