<svg width="192" height="51" viewBox="0 0 192 51" fill="none" xmlns="http://www.w3.org/2000/svg">
<path d="M21.18 25.04C26.64 26.66 30.78 30.86 30.78 37.04C30.78 46.04 23.7 50.84 15.78 50.84C9.48 50.84 3.78 47.96 1.38 41.96L8.46 37.88C9.48 41 11.82 42.74 15.78 42.74C20.1 42.74 22.5 40.46 22.5 37.04C22.5 33.68 20.1 31.34 15.78 31.34H13.98L10.8 26.54L19.08 15.74H2.64V8H29.04V14.84L21.18 25.04ZM49.2023 23.3C56.8823 23.3 63.5423 28.04 63.5423 37.04C63.5423 46.04 56.4623 50.84 48.5423 50.84C42.0023 50.84 36.3023 47.96 33.9023 41.84L40.9823 37.7C42.0023 40.94 44.3423 42.74 48.5423 42.74C52.8623 42.74 55.2623 40.46 55.2623 37.04C55.2623 33.68 52.8623 31.34 48.7823 31.34H36.0623L37.7423 8H61.5623V15.74H45.4223L44.8823 23.3H49.2023ZM99.1734 50.84C88.4934 50.84 82.3734 41.96 82.3734 29C82.3734 16.04 88.4934 7.16 99.1734 7.16C109.913 7.16 115.973 16.04 115.973 29C115.973 41.96 109.913 50.84 99.1734 50.84ZM99.1734 42.74C104.813 42.74 107.753 37.88 107.753 29C107.753 20.12 104.813 15.2 99.1734 15.2C93.5334 15.2 90.6534 20.12 90.6534 29C90.6534 37.88 93.5334 42.74 99.1734 42.74ZM136.966 50.84C126.286 50.84 120.166 41.96 120.166 29C120.166 16.04 126.286 7.16 136.966 7.16C147.706 7.16 153.766 16.04 153.766 29C153.766 41.96 147.706 50.84 136.966 50.84ZM136.966 42.74C142.606 42.74 145.546 37.88 145.546 29C145.546 20.12 142.606 15.2 136.966 15.2C131.326 15.2 128.446 20.12 128.446 29C128.446 37.88 131.326 42.74 136.966 42.74ZM174.759 50.84C164.079 50.84 157.959 41.96 157.959 29C157.959 16.04 164.079 7.16 174.759 7.16C185.499 7.16 191.559 16.04 191.559 29C191.559 41.96 185.499 50.84 174.759 50.84ZM174.759 42.74C180.399 42.74 183.339 37.88 183.339 29C183.339 20.12 180.399 15.2 174.759 15.2C169.119 15.2 166.239 20.12 166.239 29C166.239 37.88 169.119 42.74 174.759 42.74Z" fill="url(#paint0_linear_401_12453)"/>
<defs>
<linearGradient id="paint0_linear_401_12453" x1="233.195" y1="-0.773558" x2="223.987" y2="73.3672" gradientUnits="userSpaceOnUse">
<stop stop-color="#BEF5FF"/>
<stop offset="1" stop-color="#0088C3"/>
</linearGradient>
</defs>
</svg>
