<svg width="164" height="161" viewBox="0 0 164 161" fill="none" xmlns="http://www.w3.org/2000/svg">
<path d="M88.5634 16.3145L155.169 54.7695V131.68L88.5634 170.135L21.9573 131.68V54.7695L88.5634 16.3145Z" fill="#019DD8"/>
<path d="M65.29 60.6344C65.29 60.6344 68.8176 56.2479 69.3536 52.2892C70.2326 45.8068 69.5567 38.6551 74.2645 36.516C74.2645 36.516 77.544 34.5782 80.4506 35.1792C80.4506 35.1792 85.285 30.6096 90.2592 35.0627C94.1696 38.5636 99.6182 46.3611 99.3619 57.5514C99.3619 57.5514 93.3972 62.6321 86.0391 63.5926C76.6884 64.8129 66.735 63.0749 65.2917 60.6344H65.29Z" fill="url(#paint0_linear_1911_4796)"/>
<path d="M92.8789 61.5437C92.8789 61.5437 94.5519 54.8598 93.9094 47.3203" stroke="#F97803" stroke-width="0.166472" stroke-miterlimit="10"/>
<path d="M159.225 118.65C158.984 118.624 158.731 118.614 158.471 118.614C158.674 118.451 158.865 118.282 159.037 118.111C162.34 114.81 162.649 109.764 159.726 106.837C156.803 103.913 151.755 104.216 148.453 107.517C148.281 107.688 148.115 107.881 147.953 108.084C147.951 107.825 147.94 107.57 147.913 107.329C147.392 102.687 143.638 99.2996 139.53 99.7608C135.419 100.222 132.511 104.357 133.031 108.998C133.057 109.24 133.105 109.489 133.164 109.741C132.959 109.581 132.754 109.431 132.548 109.301C128.596 106.814 123.605 107.637 121.404 111.137C119.202 114.638 120.622 119.491 124.575 121.978C124.78 122.108 125.005 122.226 125.238 122.338C124.985 122.398 124.74 122.464 124.511 122.544C121.917 123.45 119.997 125.351 119.132 127.557H166.705C166.738 127.387 166.766 127.215 166.786 127.041C167.251 122.932 163.866 119.175 159.227 118.65H159.225Z" fill="url(#paint1_linear_1911_4796)"/>
<path d="M56.2703 84.3473C53.3471 81.4223 48.2997 81.7253 44.9969 85.0265C44.8254 85.1979 44.6589 85.391 44.4974 85.5941C44.4958 85.3344 44.4841 85.0797 44.4575 84.8383C43.9364 80.1971 40.1825 76.8094 36.074 77.2705C31.9638 77.7317 29.0555 81.8668 29.5749 86.5081C29.6015 86.7494 29.6498 86.9991 29.7081 87.2505C29.5033 87.0907 29.2986 86.9409 29.0921 86.811C25.1401 84.3239 20.1493 85.1463 17.9485 88.6472C15.7461 92.1481 17.1661 97.0008 21.1198 99.4879C21.3246 99.6177 21.5493 99.7359 21.7824 99.8475C21.5293 99.9074 21.2846 99.974 21.0549 100.054C16.6467 101.594 14.1779 106.007 15.543 109.912C16.9064 113.816 21.5859 115.732 25.9958 114.192C26.2255 114.112 26.4586 114.011 26.6916 113.898C26.5801 114.132 26.4802 114.367 26.4003 114.597C24.8554 119.003 26.7682 123.685 30.6703 125.053C34.5724 126.421 38.9889 123.958 40.5338 119.549C40.6137 119.32 40.6803 119.075 40.7369 118.822C40.8517 119.055 40.9716 119.28 41.1014 119.484C43.5835 123.44 48.4362 124.863 51.9387 122.664C55.4413 120.465 56.2687 115.478 53.7849 111.522C53.6551 111.316 53.5052 111.113 53.3438 110.91C53.5968 110.966 53.8482 111.011 54.0896 111.039C58.7291 111.564 62.8676 108.659 63.3338 104.549C63.7982 100.44 60.4138 96.6828 55.7743 96.1584C55.5329 96.1318 55.2798 96.1218 55.0201 96.1218C55.2232 95.9587 55.4147 95.7905 55.5862 95.6191C58.889 92.3179 59.1986 87.2722 56.2753 84.3456L56.2703 84.3473Z" fill="url(#paint2_linear_1911_4796)"/>
<path d="M135.287 67.2891H40.1849C39.3142 67.2891 38.6084 67.9949 38.6084 68.8656V126.713C38.6084 127.584 39.3142 128.289 40.1849 128.289H135.287C136.158 128.289 136.863 127.584 136.863 126.713V68.8656C136.863 67.9949 136.158 67.2891 135.287 67.2891Z" fill="white"/>
<path d="M136.59 126.56V69.0192C136.59 68.2212 135.943 67.5742 135.145 67.5742H40.3258C39.5277 67.5742 38.8808 68.2212 38.8808 69.0192V126.56C38.8808 127.358 39.5277 128.005 40.3258 128.005H135.145C135.943 128.005 136.59 127.358 136.59 126.56Z" fill="url(#paint3_linear_1911_4796)"/>
<path d="M155.989 142.691H155.066V143.114L137.55 129.419C137.169 129.121 135.394 128.881 133.582 128.881H41.8889C40.0776 128.881 38.3031 129.119 37.9202 129.419L20.9151 142.715H19.4834V143.985C19.5084 144.411 20.8751 144.727 22.9743 144.727H152.498C154.602 144.727 155.97 144.409 155.987 143.982H155.989V142.691Z" fill="url(#paint4_linear_1911_4796)"/>
<path d="M152.498 143.442H22.9762C20.4159 143.442 18.9426 142.972 19.6684 142.405L37.9221 128.131C38.3033 127.833 40.0779 127.594 41.8907 127.594H133.583C135.396 127.594 137.169 127.832 137.552 128.131L155.806 142.405C156.532 142.972 155.057 143.442 152.498 143.442Z" fill="white"/>
<path d="M141.904 136.804H33.5703C32.8212 136.804 32.3551 136.683 32.5299 136.535L41.6858 128.681C41.8057 128.577 42.4033 128.494 43.0226 128.494H132.451C133.069 128.494 133.668 128.577 133.788 128.681L142.944 136.535C143.117 136.683 142.651 136.804 141.904 136.804Z" fill="#EDEDED"/>
<path d="M103.958 142.578H71.516C70.677 142.578 70.0461 142.424 70.1077 142.238L71.546 137.908C71.5976 137.752 72.2568 137.625 73.0193 137.625H102.453C103.216 137.625 103.875 137.752 103.926 137.908L105.365 142.238C105.426 142.424 104.797 142.578 103.956 142.578H103.958Z" fill="#EDEDED"/>
<path d="M44.8093 132.922H39.2658C38.9212 132.922 38.575 132.983 38.4901 133.058L37.2498 134.164C37.16 134.244 37.3764 134.307 37.7309 134.307H49.1692C49.5238 134.307 49.8651 134.242 49.9333 134.164L50.8623 133.058C50.9255 132.983 50.6975 132.922 50.3545 132.922H44.811H44.8093Z" fill="url(#paint5_linear_1911_4796)"/>
<path d="M57.3898 134.307H52.3141C51.9595 134.307 51.7148 134.252 51.768 134.185L52.6869 133.037C52.7369 132.973 53.0582 132.922 53.4011 132.922H58.322C58.6666 132.922 58.9113 132.973 58.8697 133.037L58.1139 134.185C58.069 134.252 57.746 134.307 57.3914 134.307H57.3898Z" fill="url(#paint6_linear_1911_4796)"/>
<path d="M65.6098 134.307H60.534C60.1795 134.307 59.9248 134.252 59.9664 134.185L60.6755 133.037C60.7155 132.973 61.0251 132.922 61.3697 132.922H66.2906C66.6352 132.922 66.8883 132.973 66.8583 133.037L66.3106 134.185C66.279 134.252 65.9644 134.307 65.6098 134.307Z" fill="url(#paint7_linear_1911_4796)"/>
<path d="M73.8314 134.307H68.7557C68.4011 134.307 68.1364 134.252 68.1664 134.185L68.6658 133.037C68.6941 132.973 68.9937 132.922 69.3383 132.922H74.2592C74.6038 132.922 74.8669 132.973 74.8486 133.037L74.5106 134.185C74.4906 134.252 74.1877 134.307 73.8331 134.307H73.8314Z" fill="url(#paint8_linear_1911_4796)"/>
<path d="M90.2745 134.307H85.1988C84.8442 134.307 84.5595 134.252 84.5645 134.185L84.6461 133.037C84.6511 132.973 84.9324 132.922 85.277 132.922H90.1979C90.5425 132.922 90.8239 132.973 90.8289 133.037L90.9104 134.185C90.9154 134.252 90.6308 134.307 90.2762 134.307H90.2745Z" fill="url(#paint9_linear_1911_4796)"/>
<path d="M82.0538 134.307H76.978C76.6234 134.307 76.3488 134.252 76.3671 134.185L76.6567 133.037C76.6734 132.973 76.9647 132.922 77.3093 132.922H82.2302C82.5748 132.922 82.8478 132.973 82.8395 133.037L82.7113 134.185C82.7047 134.252 82.41 134.307 82.0554 134.307H82.0538Z" fill="url(#paint10_linear_1911_4796)"/>
<path d="M98.4967 134.307H93.4209C93.0663 134.307 92.7717 134.252 92.765 134.185L92.6368 133.037C92.6302 132.973 92.9032 132.922 93.2461 132.922H98.167C98.5116 132.922 98.803 132.973 98.8179 133.037L99.1076 134.185C99.1243 134.252 98.8512 134.307 98.4967 134.307Z" fill="url(#paint11_linear_1911_4796)"/>
<path d="M106.718 134.307H101.642C101.288 134.307 100.983 134.252 100.965 134.185L100.627 133.037C100.609 132.973 100.872 132.922 101.216 132.922H106.137C106.482 132.922 106.781 132.973 106.81 133.037L107.309 134.185C107.339 134.252 107.074 134.307 106.72 134.307H106.718Z" fill="url(#paint12_linear_1911_4796)"/>
<path d="M114.939 134.307H109.863C109.509 134.307 109.194 134.252 109.162 134.185L108.615 133.037C108.585 132.973 108.839 132.922 109.182 132.922H114.103C114.448 132.922 114.758 132.973 114.797 133.037L115.507 134.185C115.548 134.252 115.294 134.307 114.939 134.307Z" fill="url(#paint13_linear_1911_4796)"/>
<path d="M123.161 134.307H118.085C117.731 134.307 117.408 134.252 117.363 134.185L116.607 133.037C116.566 132.973 116.81 132.922 117.155 132.922H122.076C122.42 132.922 122.74 132.973 122.79 133.037L123.709 134.185C123.762 134.252 123.519 134.307 123.163 134.307H123.161Z" fill="url(#paint14_linear_1911_4796)"/>
<path d="M48.2013 136.235H43.5734C43.2039 136.235 42.9608 136.175 43.0291 136.104L44.2177 134.855C44.2826 134.787 44.6272 134.73 44.9851 134.73H49.4649C49.8228 134.73 50.0675 134.785 50.0109 134.855L48.9804 136.104C48.9205 136.177 48.5709 136.235 48.2013 136.235Z" fill="url(#paint15_linear_1911_4796)"/>
<path d="M40.2944 136.233H35.5949C35.2254 136.233 34.9923 136.173 35.0739 136.102L36.4739 134.853C36.5505 134.785 36.9034 134.729 37.2613 134.729H41.811C42.1689 134.729 42.4036 134.783 42.3354 134.853L41.0952 136.102C41.0219 136.175 40.664 136.233 40.2944 136.233Z" fill="url(#paint16_linear_1911_4796)"/>
<path d="M56.0944 136.233H51.4831C51.1135 136.233 50.8605 136.173 50.9171 136.102L51.8959 134.853C51.9492 134.785 52.2838 134.729 52.6417 134.729H57.1065C57.4644 134.729 57.7191 134.783 57.6725 134.853L56.8518 136.102C56.8035 136.175 56.4656 136.233 56.0944 136.233Z" fill="url(#paint17_linear_1911_4796)"/>
<path d="M131.987 136.233H127.359C126.99 136.233 126.64 136.173 126.58 136.102L125.548 134.853C125.492 134.785 125.735 134.729 126.094 134.729H130.574C130.932 134.729 131.275 134.783 131.341 134.853L132.533 136.102C132.603 136.175 132.36 136.233 131.989 136.233H131.987Z" fill="url(#paint18_linear_1911_4796)"/>
<path d="M124.08 136.233H119.38C119.011 136.233 118.671 136.173 118.623 136.101L118.292 135.597C118.245 135.525 118.501 135.469 118.866 135.469H123.489C123.853 135.469 124.193 135.527 124.25 135.597L124.646 136.101C124.702 136.175 124.449 136.233 124.08 136.233Z" fill="url(#paint19_linear_1911_4796)"/>
<path d="M139.878 136.233H135.267C134.897 136.233 134.538 136.173 134.466 136.101L133.965 135.597C133.893 135.525 134.131 135.469 134.496 135.469H139.032C139.397 135.469 139.756 135.527 139.836 135.597L140.402 136.101C140.484 136.175 140.251 136.233 139.881 136.233H139.878Z" fill="url(#paint20_linear_1911_4796)"/>
<path d="M64.6658 136.233H59.3719C59.0024 136.233 58.7394 136.173 58.7843 136.102L59.5534 134.853C59.5967 134.785 59.9213 134.729 60.2792 134.729H65.4032C65.7611 134.729 66.0258 134.783 65.9925 134.853L65.3982 136.102C65.3633 136.175 65.0353 136.233 64.6658 136.233Z" fill="url(#paint21_linear_1911_4796)"/>
<path d="M116.101 136.233H110.807C110.438 136.233 110.11 136.173 110.075 136.102L109.48 134.853C109.447 134.785 109.712 134.729 110.07 134.729H115.194C115.552 134.729 115.876 134.783 115.919 134.853L116.689 136.102C116.734 136.175 116.471 136.233 116.101 136.233Z" fill="url(#paint22_linear_1911_4796)"/>
<path d="M130.663 132.922H125.12C124.775 132.922 124.549 132.983 124.612 133.058L125.541 134.164C125.608 134.244 125.949 134.307 126.305 134.307H137.743C138.098 134.307 138.313 134.242 138.225 134.164L136.984 133.058C136.899 132.983 136.553 132.922 136.209 132.922H130.665H130.663Z" fill="url(#paint23_linear_1911_4796)"/>
<path d="M44.7112 131.254H41.1154C40.7842 131.254 40.4529 131.311 40.3746 131.38L39.2277 132.403C39.1461 132.476 39.3542 132.536 39.6954 132.536H47.1051C47.4464 132.536 47.7777 132.476 47.8442 132.403L48.7865 131.38C48.8514 131.311 48.635 131.254 48.3037 131.254H44.7079H44.7112Z" fill="url(#paint24_linear_1911_4796)"/>
<path d="M62.9038 132.534H58.0278C57.6865 132.534 57.4451 132.484 57.4884 132.423L58.2309 131.36C58.2725 131.302 58.5738 131.254 58.9034 131.254H63.6362C63.9675 131.254 64.2089 131.302 64.1756 131.36L63.583 132.423C63.548 132.484 63.2434 132.534 62.9038 132.534Z" fill="url(#paint25_linear_1911_4796)"/>
<path d="M55.0043 132.534H50.1283C49.7871 132.534 49.5557 132.484 49.6106 132.423L50.5462 131.36C50.5978 131.302 50.9074 131.254 51.2387 131.254H55.9715C56.3028 131.254 56.5358 131.302 56.4926 131.36L55.7051 132.423C55.6585 132.484 55.3456 132.534 55.0043 132.534Z" fill="url(#paint26_linear_1911_4796)"/>
<path d="M70.801 132.534H65.9234C65.5821 132.534 65.3324 132.484 65.364 132.423L65.9134 131.36C65.9434 131.302 66.2363 131.254 66.5676 131.254H71.3004C71.6317 131.254 71.8814 131.302 71.8598 131.36L71.4602 132.423C71.4369 132.484 71.1423 132.534 70.801 132.534Z" fill="url(#paint27_linear_1911_4796)"/>
<path d="M78.7004 132.534H73.8228C73.4815 132.534 73.2218 132.484 73.2434 132.423L73.5997 131.36C73.6197 131.302 73.9027 131.254 74.234 131.254H78.9668C79.298 131.254 79.5561 131.302 79.5444 131.36L79.338 132.423C79.3263 132.484 79.04 132.534 78.6987 132.534H78.7004Z" fill="url(#paint28_linear_1911_4796)"/>
<path d="M94.4944 132.534H89.6184C89.2771 132.534 88.9991 132.484 88.9975 132.423L88.9658 131.36C88.9642 131.302 89.2305 131.254 89.5618 131.254H94.2946C94.6259 131.254 94.9022 131.302 94.9122 131.36L95.0937 132.423C95.1036 132.484 94.8356 132.534 94.496 132.534H94.4944Z" fill="url(#paint29_linear_1911_4796)"/>
<path d="M86.5976 132.534H81.7216C81.3804 132.534 81.1124 132.484 81.1223 132.423L81.2855 131.36C81.2938 131.302 81.5702 131.254 81.9014 131.254H86.6342C86.9655 131.254 87.2319 131.302 87.2319 131.36L87.2185 132.423C87.2185 132.484 86.9405 132.534 86.5993 132.534H86.5976Z" fill="url(#paint30_linear_1911_4796)"/>
<path d="M102.394 132.534H97.5164C97.1752 132.534 96.8888 132.484 96.8755 132.423L96.6508 131.36C96.6391 131.302 96.8971 131.254 97.2268 131.254H101.96C102.291 131.254 102.576 131.302 102.595 131.36L102.97 132.423C102.992 132.484 102.734 132.534 102.392 132.534H102.394Z" fill="url(#paint31_linear_1911_4796)"/>
<path d="M110.292 132.534H105.414C105.073 132.534 104.777 132.484 104.753 132.423L104.335 131.36C104.312 131.302 104.562 131.254 104.893 131.254H109.626C109.957 131.254 110.25 131.302 110.282 131.36L110.85 132.423C110.883 132.484 110.633 132.534 110.292 132.534Z" fill="url(#paint32_linear_1911_4796)"/>
<path d="M118.191 132.534H113.313C112.972 132.534 112.667 132.484 112.631 132.423L112.02 131.36C111.986 131.302 112.226 131.254 112.557 131.254H117.29C117.621 131.254 117.923 131.302 117.966 131.36L118.727 132.423C118.772 132.484 118.53 132.534 118.191 132.534Z" fill="url(#paint33_linear_1911_4796)"/>
<path d="M126.088 132.534H121.212C120.871 132.534 120.556 132.484 120.51 132.423L119.706 131.36C119.661 131.302 119.894 131.254 120.223 131.254H124.956C125.288 131.254 125.597 131.302 125.65 131.36L126.604 132.423C126.659 132.484 126.43 132.534 126.088 132.534Z" fill="url(#paint34_linear_1911_4796)"/>
<path d="M54.5827 129.372H50.2627C49.9464 129.372 49.7317 129.329 49.7816 129.275L50.1296 128.907C50.1795 128.856 50.4708 128.812 50.7838 128.812H55.0438C55.3551 128.812 55.5732 128.854 55.5316 128.907L55.2336 129.275C55.1903 129.329 54.899 129.372 54.5827 129.372Z" fill="url(#paint35_linear_1911_4796)"/>
<path d="M47.5193 129.372H43.1994C42.8831 129.372 42.675 129.329 42.7349 129.275L43.1477 128.907C43.206 128.856 43.5057 128.812 43.817 128.812H48.077C48.3883 128.812 48.5997 128.854 48.5481 128.907L48.1852 129.275C48.1319 129.329 47.8339 129.372 47.5176 129.372H47.5193Z" fill="url(#paint36_linear_1911_4796)"/>
<path d="M61.6459 129.372H57.326C57.0097 129.372 56.7866 129.329 56.8282 129.275L57.1129 128.907C57.1529 128.856 57.4375 128.812 57.7505 128.812H62.0105C62.3218 128.812 62.5482 128.854 62.5149 128.907L62.2819 129.275C62.2486 129.329 61.9639 129.372 61.6493 129.372H61.6459Z" fill="url(#paint37_linear_1911_4796)"/>
<path d="M68.7084 129.372H64.3884C64.0721 129.372 63.8424 129.329 63.874 129.275L64.0937 128.907C64.1254 128.856 64.4017 128.812 64.7147 128.812H68.9747C69.286 128.812 69.5191 128.854 69.4958 128.907L69.326 129.275C69.301 129.329 69.0263 129.372 68.71 129.372H68.7084Z" fill="url(#paint38_linear_1911_4796)"/>
<path d="M82.8345 129.372H78.5146C78.1983 129.372 77.9536 129.329 77.9652 129.275L78.0551 128.907C78.0685 128.856 78.3315 128.812 78.6428 128.812H82.9028C83.2141 128.812 83.4621 128.854 83.4572 128.907L83.4172 129.275C83.4122 129.329 83.1508 129.372 82.8345 129.372Z" fill="url(#paint39_linear_1911_4796)"/>
<path d="M75.7715 129.372H71.4516C71.1353 129.372 70.8972 129.329 70.9205 129.275L71.0753 128.907C71.097 128.856 71.3667 128.812 71.6796 128.812H75.9397C76.251 128.812 76.4923 128.854 76.4774 128.907L76.3725 129.275C76.3575 129.329 76.0895 129.372 75.7732 129.372H75.7715Z" fill="url(#paint40_linear_1911_4796)"/>
<path d="M89.8967 129.372H85.5768C85.2605 129.372 85.0074 129.329 85.0108 129.275L85.0357 128.907C85.0391 128.856 85.2954 128.812 85.6067 128.812H89.8668C90.1781 128.812 90.4344 128.854 90.4378 128.907L90.4627 129.275C90.4661 129.329 90.213 129.372 89.8967 129.372Z" fill="url(#paint41_linear_1911_4796)"/>
<path d="M96.9602 129.372H92.6403C92.324 129.372 92.0643 129.329 92.0576 129.275L92.0177 128.907C92.0127 128.856 92.2607 128.812 92.572 128.812H96.832C97.1433 128.812 97.4064 128.854 97.4197 128.907L97.5096 129.275C97.5229 129.329 97.2765 129.372 96.9602 129.372Z" fill="url(#paint42_linear_1911_4796)"/>
<path d="M104.022 129.372H99.7019C99.3856 129.372 99.1176 129.329 99.1026 129.275L98.9977 128.907C98.9827 128.856 99.2241 128.812 99.5354 128.812H103.795C104.107 128.812 104.378 128.854 104.4 128.907L104.555 129.275C104.576 129.329 104.338 129.372 104.024 129.372H104.022Z" fill="url(#paint43_linear_1911_4796)"/>
<path d="M111.085 129.372H106.765C106.449 129.372 106.172 129.329 106.149 129.275L105.979 128.907C105.956 128.856 106.189 128.812 106.5 128.812H110.76C111.072 128.812 111.35 128.854 111.381 128.907L111.601 129.275C111.633 129.329 111.403 129.372 111.087 129.372H111.085Z" fill="url(#paint44_linear_1911_4796)"/>
<path d="M118.149 129.372H113.829C113.513 129.372 113.23 129.329 113.196 129.275L112.963 128.907C112.93 128.856 113.156 128.812 113.468 128.812H117.728C118.039 128.812 118.324 128.854 118.365 128.907L118.65 129.275C118.692 129.329 118.468 129.372 118.152 129.372H118.149Z" fill="url(#paint45_linear_1911_4796)"/>
<path d="M125.21 129.372H120.891C120.574 129.372 120.283 129.329 120.24 129.275L119.942 128.907C119.9 128.856 120.118 128.812 120.429 128.812H124.689C125.001 128.812 125.294 128.854 125.344 128.907L125.692 129.275C125.742 129.329 125.527 129.372 125.21 129.372Z" fill="url(#paint46_linear_1911_4796)"/>
<path d="M132.273 129.372H127.953C127.637 129.372 127.339 129.329 127.286 129.275L126.923 128.907C126.871 128.856 127.083 128.812 127.394 128.812H131.654C131.965 128.812 132.265 128.854 132.323 128.907L132.736 129.275C132.796 129.329 132.588 129.372 132.272 129.372H132.273Z" fill="url(#paint47_linear_1911_4796)"/>
<path d="M131.123 131.254H127.887C127.556 131.254 127.341 131.311 127.406 131.38L128.367 132.403C128.435 132.476 128.768 132.536 129.109 132.536H135.776C136.118 132.536 136.327 132.476 136.244 132.403L135.097 131.38C135.019 131.311 134.688 131.254 134.356 131.254H131.12H131.123Z" fill="url(#paint48_linear_1911_4796)"/>
<path d="M46.2922 129.707H42.8296C42.5116 129.707 42.1937 129.759 42.1221 129.824L41.06 130.771C40.9834 130.839 41.1882 130.894 41.5161 130.894H46.8649C47.1928 130.894 47.5125 130.839 47.5774 130.771L48.4913 129.824C48.5529 129.759 48.3465 129.707 48.0269 129.707H46.2939H46.2922Z" fill="url(#paint49_linear_1911_4796)"/>
<path d="M62.0608 130.894H57.3679C57.04 130.894 56.8086 130.848 56.8519 130.791L57.5827 129.807C57.6226 129.752 57.914 129.709 58.2319 129.709H62.7899C63.1079 129.709 63.341 129.752 63.3077 129.807L62.7167 130.791C62.6817 130.848 62.3887 130.894 62.0608 130.894Z" fill="url(#paint50_linear_1911_4796)"/>
<path d="M54.4612 130.894H49.7683C49.4404 130.894 49.2173 130.848 49.2706 130.791L50.1812 129.807C50.2311 129.752 50.5308 129.709 50.8487 129.709H55.4067C55.7247 129.709 55.9494 129.752 55.9061 129.807L55.1354 130.791C55.0904 130.848 54.7874 130.894 54.4595 130.894H54.4612Z" fill="url(#paint51_linear_1911_4796)"/>
<path d="M69.6604 130.894H64.9676C64.6396 130.894 64.3999 130.848 64.4315 130.791L64.9825 129.807C65.0125 129.752 65.2955 129.709 65.6151 129.709H70.1731C70.4911 129.709 70.7308 129.752 70.7092 129.807L70.2963 130.791C70.273 130.848 69.9867 130.894 69.6587 130.894H69.6604Z" fill="url(#paint52_linear_1911_4796)"/>
<path d="M77.2593 130.894H72.5664C72.2385 130.894 71.9904 130.848 72.0121 130.791L72.3833 129.807C72.4033 129.752 72.6796 129.709 72.9976 129.709H77.5556C77.8735 129.709 78.1216 129.752 78.1099 129.807L77.8769 130.791C77.8635 130.848 77.5872 130.894 77.2576 130.894H77.2593Z" fill="url(#paint53_linear_1911_4796)"/>
<path d="M92.4583 130.894H87.7655C87.4375 130.894 87.1729 130.848 87.1729 130.791L87.1862 129.807C87.1862 129.752 87.4459 129.709 87.7638 129.709H92.3218C92.6398 129.709 92.9045 129.752 92.9111 129.807L93.036 130.791C93.0426 130.848 92.783 130.894 92.455 130.894H92.4583Z" fill="url(#paint54_linear_1911_4796)"/>
<path d="M84.8587 130.894H80.1658C79.8379 130.894 79.5815 130.848 79.5932 130.791L79.7863 129.807C79.7963 129.752 80.0643 129.709 80.3822 129.709H84.9402C85.2582 129.709 85.5146 129.752 85.5112 129.807L85.458 130.791C85.4546 130.848 85.1866 130.894 84.8587 130.894Z" fill="url(#paint55_linear_1911_4796)"/>
<path d="M100.057 130.894H95.3646C95.0367 130.894 94.7637 130.848 94.7537 130.791L94.5872 129.807C94.5772 129.752 94.8286 129.709 95.1482 129.709H99.7062C100.024 129.709 100.297 129.752 100.314 129.807L100.618 130.791C100.637 130.848 100.385 130.894 100.057 130.894Z" fill="url(#paint56_linear_1911_4796)"/>
<path d="M107.656 130.894H102.963C102.635 130.894 102.352 130.848 102.332 130.791L101.987 129.807C101.969 129.752 102.21 129.709 102.53 129.709H107.088C107.406 129.709 107.687 129.752 107.714 129.807L108.198 130.791C108.227 130.848 107.984 130.894 107.656 130.894Z" fill="url(#paint57_linear_1911_4796)"/>
<path d="M115.256 130.894H110.563C110.235 130.894 109.943 130.848 109.913 130.791L109.389 129.807C109.361 129.752 109.595 129.709 109.913 129.709H114.471C114.789 129.709 115.077 129.752 115.114 129.807L115.777 130.791C115.815 130.848 115.58 130.894 115.252 130.894H115.256Z" fill="url(#paint58_linear_1911_4796)"/>
<path d="M122.855 130.894H118.162C117.834 130.894 117.534 130.848 117.495 130.791L116.79 129.807C116.752 129.752 116.978 129.709 117.296 129.709H121.854C122.172 129.709 122.469 129.752 122.515 129.807L123.358 130.791C123.406 130.848 123.181 130.894 122.853 130.894H122.855Z" fill="url(#paint59_linear_1911_4796)"/>
<path d="M127.797 129.707H124.68C124.362 129.707 124.151 129.759 124.207 129.824L125.056 130.771C125.118 130.839 125.433 130.894 125.761 130.894H133.958C134.286 130.894 134.49 130.839 134.414 130.771L133.352 129.824C133.278 129.759 132.962 129.707 132.644 129.707H127.797Z" fill="url(#paint60_linear_1911_4796)"/>
<path d="M107.527 136.235H67.9452C67.5756 136.235 67.3009 136.175 67.3326 136.104L67.8753 134.855C67.9052 134.787 68.2199 134.73 68.5778 134.73H106.895C107.253 134.73 107.567 134.785 107.597 134.855L108.14 136.104C108.171 136.177 107.897 136.235 107.527 136.235Z" fill="url(#paint61_linear_1911_4796)"/>
<path d="M134.03 71.2051H41.4434V124.373H134.03V71.2051Z" fill="white"/>
<g style="mix-blend-mode:multiply" opacity="0.48">
<g style="mix-blend-mode:multiply" opacity="0.48">
<path d="M51.0566 124.373H134.03V71.2051H123.53L51.0566 124.373Z" fill="#D7F4FB"/>
</g>
</g>
<g style="mix-blend-mode:multiply">
<path d="M87.2038 79.6504H50.4351C49.3162 79.6504 48.4092 80.5574 48.4092 81.6764V114.934C48.4092 116.053 49.3162 116.96 50.4351 116.96H87.2038C88.3227 116.96 89.2298 116.053 89.2298 114.934V81.6764C89.2298 80.5574 88.3227 79.6504 87.2038 79.6504Z" fill="white"/>
<path d="M87.2038 79.6504H50.4351C49.3162 79.6504 48.4092 80.5574 48.4092 81.6764V114.934C48.4092 116.053 49.3162 116.96 50.4351 116.96H87.2038C88.3227 116.96 89.2298 116.053 89.2298 114.934V81.6764C89.2298 80.5574 88.3227 79.6504 87.2038 79.6504Z" stroke="#39C7DF" stroke-width="0.166472" stroke-miterlimit="10"/>
</g>
<path d="M70.9857 96.8334L71.0458 96.9068C71.0976 96.9702 71.191 96.9795 71.2543 96.9276L86.278 84.6265C86.3413 84.5746 86.3506 84.4813 86.2988 84.418L86.2387 84.3445C86.1868 84.2812 86.0935 84.2719 86.0302 84.3238L71.0064 96.6249C70.9431 96.6768 70.9338 96.7701 70.9857 96.8334Z" fill="url(#paint62_linear_1911_4796)" stroke="white" stroke-width="0.166472" stroke-miterlimit="10"/>
<path d="M71.6541 97.7897L76.1405 94.1156C77.1393 93.255 78.02 91.8832 77.6271 91.4038C77.2342 90.9244 75.691 91.6052 74.7188 92.3793L70.2324 96.0534L71.6541 97.7897Z" fill="url(#paint63_linear_1911_4796)" stroke="white" stroke-width="0.166472" stroke-miterlimit="10"/>
<path d="M56.8857 101.448L63.7327 109.809L75.1078 100.494L75.1044 100.489C75.1244 100.477 75.1427 100.465 75.161 100.45C75.7903 99.9343 77.9361 95.3979 75.717 92.6878C73.3432 89.7878 68.9433 91.5741 68.314 92.0885C68.2957 92.1034 68.2807 92.1184 68.2658 92.1367L68.2624 92.1317L56.8874 101.448H56.8857Z" fill="url(#paint64_linear_1911_4796)" stroke="white" stroke-width="0.166472" stroke-miterlimit="10"/>
<path d="M56.8857 101.449L63.7327 109.811L75.1078 100.495L75.1044 100.49C75.1244 100.479 75.1427 100.467 75.161 100.452C75.7037 100.007 77.2985 96.4982 76.3596 93.8613L64.6999 95.0499L56.8857 101.449Z" fill="url(#paint65_linear_1911_4796)" stroke="white" stroke-width="0.166472" stroke-miterlimit="10"/>
<path d="M63.7002 109.808L64.5542 109.108L64.5425 109.093C64.992 108.444 63.9815 106.265 62.182 104.066C60.3824 101.869 58.4447 100.447 57.7188 100.76L56.8682 101.464L63.7002 109.806V109.808Z" fill="#0088C3" stroke="white" stroke-width="0.166472" stroke-miterlimit="10"/>
<path d="M63.73 109.818C64.3603 109.302 63.3386 107.012 61.4479 104.703C59.5573 102.394 57.5137 100.94 56.8834 101.456C56.2531 101.972 57.2749 104.263 59.1655 106.572C61.0562 108.881 63.0998 110.334 63.73 109.818Z" fill="url(#paint66_linear_1911_4796)"/>
<path d="M75.7326 98.4323C75.7376 97.7797 75.6194 97.0256 75.2615 96.2715L62.7578 106.511C63.1773 107.182 63.492 107.803 63.6817 108.326L75.7326 98.4323Z" fill="url(#paint67_linear_1911_4796)" stroke="white" stroke-width="0.166472" stroke-miterlimit="10"/>
<path d="M64.4485 107.723C64.2554 107.201 63.9391 106.58 63.5196 105.912L62.7705 106.526C63.19 107.197 63.5046 107.818 63.6944 108.341L64.4485 107.723Z" fill="#264F85" stroke="white" stroke-width="0.166472" stroke-miterlimit="10"/>
<path d="M70.239 91.8535C70.8799 91.9784 71.609 92.2414 72.3382 92.7059L59.8345 102.946C59.2601 102.403 58.7124 101.97 58.2363 101.682L70.2373 91.8552L70.239 91.8535Z" fill="#BEF5FF" stroke="white" stroke-width="0.166472" stroke-miterlimit="10"/>
<path d="M60.0287 102.754L70.1652 94.4824L66.5295 94.8836L58.7686 101.216L60.0287 102.754Z" fill="url(#paint68_linear_1911_4796)" stroke="white" stroke-width="0.166472" stroke-miterlimit="10"/>
<path d="M58.9804 101.045C59.4548 101.336 60.0009 101.769 60.5719 102.312L59.8227 102.926C59.2484 102.383 58.7007 101.951 58.2246 101.663L58.9787 101.045H58.9804Z" fill="#6DD2F2" stroke="white" stroke-width="0.166472" stroke-miterlimit="10"/>
<path d="M60.7079 106.282L63.6944 108.341C63.6944 108.341 63.5046 107.484 62.7705 106.527L60.29 105.645L60.4515 105.843C60.5597 105.974 60.6463 106.124 60.7079 106.282Z" fill="url(#paint69_linear_1911_4796)"/>
<path d="M67.5335 98.5709C67.8314 98.5709 68.0729 98.3294 68.0729 98.0316C68.0729 97.7337 67.8314 97.4922 67.5335 97.4922C67.2356 97.4922 66.9941 97.7337 66.9941 98.0316C66.9941 98.3294 67.2356 98.5709 67.5335 98.5709Z" fill="#F5CCFF" stroke="white" stroke-width="0.166472" stroke-miterlimit="10"/>
<path d="M71.3325 98.5849C71.6984 98.5849 71.995 98.2882 71.995 97.9223C71.995 97.5564 71.6984 97.2598 71.3325 97.2598C70.9666 97.2598 70.6699 97.5564 70.6699 97.9223C70.6699 98.2882 70.9666 98.5849 71.3325 98.5849Z" fill="#F5CCFF" stroke="white" stroke-width="0.166472" stroke-miterlimit="10"/>
<path d="M65.1831 103.503C65.4865 103.503 65.7325 103.257 65.7325 102.954C65.7325 102.65 65.4865 102.404 65.1831 102.404C64.8797 102.404 64.6338 102.65 64.6338 102.954C64.6338 103.257 64.8797 103.503 65.1831 103.503Z" fill="#DE97FF" stroke="white" stroke-width="0.166472" stroke-miterlimit="10"/>
<path d="M75.0929 100.479C75.1129 100.467 75.1312 100.456 75.1495 100.441C75.7788 99.9245 77.9246 95.3882 75.7056 92.678C73.3317 89.778 68.9318 91.5643 68.3025 92.0787C68.2842 92.0937 68.2693 92.1087 68.2543 92.127L68.2509 92.122L68.1211 92.2285C69.7009 91.2447 72.2896 92.1203 74.0791 94.3061C75.9702 96.6151 76.2516 99.51 74.7101 100.774" fill="#8FEAFF"/>
<path d="M75.0929 100.479C75.1129 100.467 75.1312 100.456 75.1495 100.441C75.7788 99.9245 77.9246 95.3882 75.7056 92.678C73.3317 89.778 68.9318 91.5643 68.3025 92.0787C68.2842 92.0937 68.2693 92.1087 68.2543 92.127L68.2509 92.122L68.1211 92.2285C69.7009 91.2447 72.2896 92.1203 74.0791 94.3061C75.9702 96.6151 76.2516 99.51 74.7101 100.774" stroke="white" stroke-width="0.166472" stroke-miterlimit="10"/>
<path d="M76.3765 93.8594L73.9277 94.1091C73.9843 94.174 74.0393 94.2389 74.0942 94.3072C75.9853 96.6162 76.2667 99.5111 74.7251 100.775L75.1097 100.478C75.1297 100.467 75.148 100.455 75.1663 100.44C75.2995 100.33 75.5009 100.042 75.714 99.6276C76.3499 98.3358 77.0857 95.8487 76.3765 93.8594Z" fill="#C46EE5" stroke="white" stroke-width="0.166472" stroke-miterlimit="10"/>
<path d="M74.9412 91.9052H74.9395C72.3758 90.5335 70.2217 91.837 70.2217 91.837L70.2949 91.8669C70.9592 91.9785 71.655 92.2581 72.3242 92.686C73.2115 91.9618 74.9212 91.9052 74.9412 91.9035V91.9052Z" fill="#E9FCFF" stroke="white" stroke-width="0.166472" stroke-miterlimit="10"/>
<path d="M75.2832 96.2632C75.5878 97.0074 75.7393 97.7515 75.7327 98.4324C76.5001 97.4352 76.7165 96.5712 76.6483 95.0397C76.6067 94.6351 76.5251 94.2389 76.3902 93.8594C76.3902 93.8594 76.6483 95.0397 75.2832 96.2632Z" fill="url(#paint70_linear_1911_4796)" stroke="white" stroke-width="0.166472" stroke-miterlimit="10"/>
<path d="M57.5467 109.342L60.7646 106.707C60.8961 106.6 60.683 106.124 60.2901 105.645C59.8973 105.165 59.4728 104.864 59.3429 104.971L56.125 107.606L57.5467 109.342Z" fill="#6DD2F2" stroke="white" stroke-width="0.166472" stroke-miterlimit="10"/>
<path d="M57.3151 109.061L60.7078 106.282C60.6196 106.096 60.4747 105.871 60.2899 105.645L56.834 108.475L57.3151 109.061Z" fill="#009CD8" stroke="white" stroke-width="0.166472" stroke-miterlimit="10"/>
<path d="M59.1038 113.571L59.9462 112.857C60.3956 112.208 59.3852 110.029 57.5856 107.83C55.786 105.631 53.8483 104.211 53.1225 104.524L52.2568 105.209L59.1038 113.571Z" fill="#0088C3" stroke="white" stroke-width="0.166472" stroke-miterlimit="10"/>
<path d="M59.1001 113.58C59.7304 113.064 58.7087 110.774 56.818 108.465C54.9274 106.155 52.8838 104.702 52.2535 105.218C51.6232 105.734 52.645 108.024 54.5356 110.333C56.4263 112.642 58.4699 114.096 59.1001 113.58Z" fill="#00A8E1" stroke="white" stroke-width="0.166472" stroke-miterlimit="10"/>
<path d="M59.8431 111.497C59.65 110.974 59.3337 110.353 58.9142 109.686L58.165 110.3C58.5845 110.971 58.8992 111.592 59.089 112.114L59.8431 111.497Z" fill="#264F85" stroke="white" stroke-width="0.166472" stroke-miterlimit="10"/>
<path d="M54.5839 105.021C55.0584 105.313 55.6044 105.746 56.1754 106.288L55.4263 106.903C54.8519 106.36 54.3042 105.927 53.8281 105.639L54.5822 105.021H54.5839Z" fill="#6DD2F2" stroke="white" stroke-width="0.166472" stroke-miterlimit="10"/>
<path d="M130.137 95.9199H99.3682V97.0453H130.137V95.9199Z" fill="#39C7DF"/>
<path d="M130.137 88.8125H99.3682V89.9379H130.137V88.8125Z" fill="#39C7DF"/>
<path d="M130.137 81.707H99.3682V82.8324H130.137V81.707Z" fill="#39C7DF"/>
<path d="M94.4487 80.1953L94.6868 80.7696C94.8949 81.2707 95.2361 81.7036 95.6756 82.0198L96.0186 82.2679L95.6756 82.5159C95.2361 82.8322 94.8932 83.2667 94.6868 83.7661L94.4487 84.3405L94.2107 83.7661C94.0026 83.2651 93.6613 82.8322 93.2218 82.5159L92.8789 82.2679L93.2218 82.0198C93.6613 81.7036 94.0043 81.2691 94.2107 80.7696L94.4487 80.1953Z" fill="#39C7DF"/>
<path d="M94.4487 87.3027L94.6868 87.8771C94.8949 88.3781 95.2361 88.811 95.6756 89.1273L96.0186 89.3753L95.6756 89.6234C95.2361 89.9397 94.8932 90.3741 94.6868 90.8736L94.4487 91.4479L94.2107 90.8736C94.0026 90.3725 93.6613 89.9397 93.2218 89.6234L92.8789 89.3753L93.2218 89.1273C93.6613 88.811 94.0043 88.3765 94.2107 87.8771L94.4487 87.3027Z" fill="#39C7DF"/>
<path d="M94.4487 94.4082L94.6868 94.9825C94.8949 95.4836 95.2361 95.9164 95.6756 96.2327L96.0186 96.4808L95.6756 96.7288C95.2361 97.0451 94.8932 97.4796 94.6868 97.979L94.4487 98.5534L94.2107 97.979C94.0026 97.4779 93.6613 97.0451 93.2218 96.7288L92.8789 96.4808L93.2218 96.2327C93.6613 95.9164 94.0043 95.4819 94.2107 94.9825L94.4487 94.4082Z" fill="#39C7DF"/>
<path d="M109.536 108.326C109.533 107.963 109.37 107.62 109.09 107.386L107.613 106.142C107.482 106.031 107.405 105.867 107.405 105.696V105.26H99.9158V105.696C99.9158 105.867 99.8392 106.031 99.7077 106.142L98.2311 107.386C97.9514 107.62 97.7899 107.963 97.7849 108.326C97.7733 109.536 97.7666 112.233 97.7666 112.233C97.7666 113.808 100.405 115.083 103.66 115.083C106.914 115.083 109.553 113.806 109.553 112.233C109.553 112.233 109.546 109.536 109.535 108.326H109.536Z" fill="#39C7DF"/>
<path d="M97.7849 108.325C97.7733 109.535 97.7666 112.232 97.7666 112.232C97.7666 115.394 100.405 115.082 103.66 115.082C106.914 115.082 109.553 115.553 109.553 112.232C109.553 112.232 109.546 109.535 109.535 108.325L109.468 108.061H97.8482L97.7816 108.325H97.7849Z" fill="#39C7DF"/>
<path d="M107.413 103.123H99.9054C99.6351 103.123 99.416 103.342 99.416 103.612V105.124C99.416 105.394 99.6351 105.613 99.9054 105.613H107.413C107.684 105.613 107.903 105.394 107.903 105.124V103.612C107.903 103.342 107.684 103.123 107.413 103.123Z" fill="#0088C3" stroke="white" stroke-width="0.166472" stroke-miterlimit="10"/>
<path d="M125.28 114.435H115.421C115.065 114.435 114.775 114.179 114.775 113.864V105.679C114.775 105.182 115.23 104.781 115.789 104.781H124.912C125.471 104.781 125.926 105.182 125.926 105.679V113.864C125.926 114.18 125.636 114.435 125.28 114.435Z" fill="#39C7DF"/>
<path d="M115.338 103.123H125.418C125.728 103.123 125.981 103.374 125.981 103.686V105.613H114.777V103.686C114.777 103.376 115.029 103.123 115.34 103.123H115.338Z" fill="#0088C3" stroke="white" stroke-width="0.166472" stroke-miterlimit="10"/>
<path d="M115.696 159.368C121.363 159.368 125.957 154.774 125.957 149.107C125.957 143.44 121.363 138.846 115.696 138.846C110.029 138.846 105.435 143.44 105.435 149.107C105.435 154.774 110.029 159.368 115.696 159.368Z" fill="#DE97FF"/>
<path d="M140.416 159.368C146.083 159.368 150.677 154.774 150.677 149.107C150.677 143.44 146.083 138.846 140.416 138.846C134.748 138.846 130.154 143.44 130.154 149.107C130.154 154.774 134.748 159.368 140.416 159.368Z" fill="#DE97FF"/>
<path d="M165.134 159.368C170.802 159.368 175.396 154.774 175.396 149.107C175.396 143.44 170.802 138.846 165.134 138.846C159.467 138.846 154.873 143.44 154.873 149.107C154.873 154.774 159.467 159.368 165.134 159.368Z" fill="#DE97FF"/>
<path d="M138.245 15.7363L144.509 28.4298L158.516 30.4658L148.379 40.3459L150.773 54.2962L138.245 47.7106L125.714 54.2962L128.108 40.3459L117.972 30.4658L131.98 28.4298L138.245 15.7363Z" fill="#DE97FF"/>
<path d="M28.6611 48.9013C28.6611 48.9013 37.3526 10.646 86.0207 9.69549C86.0207 9.69549 113.387 8.45694 129.831 27.9092" stroke="#264F85" stroke-width="0.166472" stroke-linecap="round" stroke-linejoin="round"/>
<path d="M155.99 44.6934C155.99 44.6934 169.666 55.9635 161.577 70.1619C151.955 87.0538 134.687 72.4143 145.619 70.1619C156.55 67.9095 167.915 80.1802 158.516 96.3446" stroke="#264F85" stroke-width="0.166472" stroke-linecap="round" stroke-linejoin="round"/>
<path d="M122.366 62.1075C116.119 60.9488 95.7908 64.5396 93.4286 64.5396C91.0664 64.5396 90.9532 59.5971 90.9532 59.5971V57.2148H79.8928L79.6064 65.7199H79.693V67.6077H132.002C132.213 65.8048 128.614 63.2661 122.366 62.1075Z" fill="#F9CCA7"/>
<path d="M72.694 67.5738C72.694 67.5738 83.7877 65.0101 84.998 64.9452C86.2082 64.8802 89.5959 65.5428 90.9527 65.7193C92.3094 65.8957 95.2693 65.6593 96.8408 65.3613C98.4123 65.0634 118.828 60.8033 123.526 62.3449C128.224 63.8864 131.832 65.2498 132 67.6071L72.6924 67.5738H72.694Z" fill="#F9CCA7"/>
<path d="M79.921 57.959C79.921 57.959 79.7245 64.5396 77.3623 64.5396C75.0001 64.5396 54.6705 60.9488 48.4245 62.1075C42.1768 63.2661 38.5777 65.8048 38.7891 67.6077H91.0979L90.9531 57.2148L79.921 57.959Z" fill="#F9CCA7"/>
<path d="M79.7927 60.208C81.9618 63.6906 87.0226 65.61 89.7877 61.7812C90.1655 61.1752 90.625 60.2879 90.953 59.3473V57.2148H79.8926L79.791 60.208H79.7927Z" fill="#EAB892"/>
<path d="M98.0966 67.5738C98.0966 67.5738 87.003 65.0101 85.7927 64.9452C84.5825 64.8802 81.1948 65.5428 79.838 65.7193C78.4813 65.8957 75.5214 65.6593 73.9499 65.3613C72.3784 65.0634 51.9623 60.8033 47.2644 62.3449C42.5666 63.8864 38.9592 65.2498 38.791 67.6071L98.0983 67.5738H98.0966Z" fill="#FEE2CC"/>
<path d="M92.5424 44.7213C92.1379 44.7213 91.7667 45.0043 91.482 45.4705C91.452 45.5204 91.3755 45.5054 91.3621 45.4488C89.4877 37.4282 81.4121 37.1319 80.0853 37.568C80.4499 41.7615 72.376 40.4913 75.2343 51.0972C75.251 51.1588 75.1911 51.2137 75.1378 51.1771C74.4086 50.701 73.6878 50.5678 73.2417 50.9074C72.5275 51.4518 72.7855 52.995 73.8193 54.3551C74.8531 55.7151 76.2715 56.376 76.9873 55.8333C77.0605 55.7784 77.1221 55.7118 77.1754 55.6369C77.3136 55.4405 77.6082 55.4521 77.7364 55.6552C78.622 57.0419 79.6076 58.2488 80.8528 59.0229C83.2233 60.4945 85.4191 61.0489 86.9606 60.6943C88.7702 60.2781 89.7557 59.5923 91.2806 56.6291C92.1013 55.0343 92.3327 53.5543 92.1812 51.272C92.1679 51.0689 92.3343 50.9074 92.5374 50.9091H92.5408C93.4397 50.9091 94.1672 49.524 94.1672 47.816C94.1672 46.108 93.4397 44.723 92.5408 44.723L92.5424 44.7213Z" fill="#FEE2CC"/>
<path d="M82.7028 56.3542C82.7028 56.3542 83.8149 57.5927 85.6394 57.015C85.8858 56.9368 86.1388 56.8819 86.3802 56.7886C88.7757 55.8564 88.3046 54.3398 88.3046 54.3398C88.3046 54.3398 83.8582 56.0112 82.7012 56.3542H82.7028Z" fill="#F49C95"/>
<path d="M82.4626 56.4236C82.4626 56.4236 84.2155 54.9536 84.675 54.7372C84.675 54.7372 85.4624 55.1517 86.0001 54.3177C86.0001 54.3177 86.8575 54.2128 87.843 54.1912C88.1326 54.1845 88.2941 54.1795 88.5621 54.1163C88.5938 54.108 88.6171 54.1512 88.5921 54.1745C88.3657 54.3926 87.6016 54.9253 86.4429 55.0918C86.1783 55.5529 85.1428 55.8326 84.7699 55.6661C84.7699 55.6661 83.3566 56.362 82.4609 56.4236H82.4626Z" fill="#E27E79"/>
<path opacity="0.54" d="M83.2407 51.4079C83.0043 52.9861 84.376 52.3801 84.4826 52.7147C83.8433 53.1359 82.9843 53.662 82.6514 53.0876C82.5981 52.9961 82.4649 52.793 82.425 52.1337C82.8012 51.5128 82.4133 50.4241 82.3034 50.1361C81.6076 48.3199 80.3807 46.8066 80.9467 46.8066C81.7125 46.8066 83.0992 50.0945 83.2407 51.4079Z" fill="#F9CCA7"/>
<path d="M78.4408 51.0279C78.4408 51.0279 79.4796 51.0129 80.5334 50.1289C80.5334 50.1289 79.6194 51.1411 78.5956 51.1927C77.5718 51.2443 78.4408 51.0279 78.4408 51.0279Z" fill="#443122"/>
<path d="M77.1641 50.8677V49.5092C77.1641 49.173 77.3439 48.86 77.6402 48.7019C78.1479 48.4305 79.0802 48.1358 80.5318 48.4055" stroke="#EAB892" stroke-width="0.166472" stroke-linecap="round" stroke-linejoin="round"/>
<path opacity="0.1" d="M79.0367 55.2159C79.8163 55.2159 80.4484 54.5839 80.4484 53.8043C80.4484 53.0246 79.8163 52.3926 79.0367 52.3926C78.257 52.3926 77.625 53.0246 77.625 53.8043C77.625 54.5839 78.257 55.2159 79.0367 55.2159Z" fill="#F49C95"/>
<path d="M82.6514 53.0875C83.4937 52.4982 83.4138 52.5148 84.2895 52.623C84.6191 52.663 84.7406 52.6114 84.947 52.3517C85.553 51.5926 85.7378 51.4494 86.1822 51.7957C86.6034 52.1236 85.7045 52.3234 85.0286 52.6613C84.8305 52.7612 84.947 53.0359 84.7522 53.1424C84.3477 53.3655 84.6324 52.6963 83.1874 53.3871C82.976 53.4254 82.7446 53.244 82.6514 53.0875Z" fill="#EAB892"/>
<path opacity="0.1" d="M90.2574 51.2374C91.037 51.2374 91.6691 50.6054 91.6691 49.8257C91.6691 49.0461 91.037 48.4141 90.2574 48.4141C89.4777 48.4141 88.8457 49.0461 88.8457 49.8257C88.8457 50.6054 89.4777 51.2374 90.2574 51.2374Z" fill="#F49C95"/>
<path d="M85.2163 52.5545C85.1647 52.5878 85.0915 52.5761 85.0831 52.5345C85.0632 52.4363 85.0681 52.2848 85.2529 52.2349C85.4377 52.1849 85.7257 52.2582 85.8855 52.2232C85.9288 52.2132 85.9521 52.2482 85.9172 52.2698L85.2163 52.5545Z" fill="#443122"/>
<path d="M84.154 52.9845C84.1906 52.9729 84.2023 52.9396 84.1723 52.9296C84.0424 52.8797 83.7628 52.7948 83.6346 52.9146C83.528 53.0128 83.3949 53.136 83.3083 53.2159C83.2817 53.2392 83.31 53.2659 83.3482 53.2526C83.523 53.1926 83.851 53.0811 84.154 52.9862V52.9845Z" fill="#443122"/>
<path d="M81.2598 46.9238C81.8457 47.6164 82.2669 48.4454 82.48 49.326" stroke="#EAB892" stroke-width="0.166472" stroke-linecap="round" stroke-linejoin="round"/>
<path opacity="0.54" d="M84.3073 51.7044C84.2857 51.9408 84.0609 52.1139 83.8046 52.0906C83.5482 52.0673 83.3584 51.8575 83.3784 51.6211C83.3984 51.3847 83.4949 51.0834 83.7513 51.1067C84.0077 51.13 84.3273 51.468 84.3056 51.7044H84.3073Z" fill="white"/>
<path d="M75.2344 51.0977C75.2344 51.0977 76.2365 53.5298 76.8425 54.2423" stroke="#EAB892" stroke-width="0.166472" stroke-linecap="round" stroke-linejoin="round"/>
<path d="M91.3623 45.4473L91.6703 47.5165" stroke="#EAB892" stroke-width="0.166472" stroke-linecap="round" stroke-linejoin="round"/>
<path d="M93.4288 45.7093C93.4288 45.7093 92.6813 45.12 92.355 46.9545C92.0287 48.789 92.2285 48.8373 92.2285 48.8373" stroke="#EAB892" stroke-width="0.166472" stroke-linecap="round" stroke-linejoin="round"/>
<path d="M73.0527 51.7986C73.0527 51.7986 74.526 51.2992 75.9693 53.2719" stroke="#EAB892" stroke-width="0.166472" stroke-linecap="round" stroke-linejoin="round"/>
<path opacity="0.56" d="M86.4241 58.179C86.9623 58.0498 87.3495 57.7407 87.289 57.4886C87.2285 57.2365 86.7431 57.1368 86.2049 57.266C85.6668 57.3953 85.2795 57.7044 85.3401 57.9565C85.4006 58.2086 85.8859 58.3082 86.4241 58.179Z" fill="#F9CCA7"/>
<path d="M91.7274 36.2784L91.5543 36.3416C88.0584 37.6251 84.6823 40.0972 82.0154 42.2464L81.7924 42.4262L81.1831 42.3562C77.6655 41.9484 74.0531 41.4756 70.3075 42.3046L67.6572 32.884L89.0772 26.8594L91.7274 36.28V36.2784Z" fill="url(#paint71_linear_1911_4796)"/>
<path d="M62.4866 47.6745C63.0024 47.6745 63.4205 47.2563 63.4205 46.7405C63.4205 46.2248 63.0024 45.8066 62.4866 45.8066C61.9709 45.8066 61.5527 46.2248 61.5527 46.7405C61.5527 47.2563 61.9709 47.6745 62.4866 47.6745Z" fill="url(#paint72_linear_1911_4796)"/>
<path d="M134.969 41.7351C136.329 42.118 138.305 43.8793 139.01 45.1129C138.941 45.6023 138.654 46.2565 138.478 46.7193C137.887 48.2608 137.296 49.8024 136.703 51.3422C136.703 51.3422 143.354 53.4714 147.494 43.6529C147.494 43.6529 143.885 42.2196 141.682 39.6992L139.267 37.0723C139.267 37.0723 133.572 41.3423 134.969 41.7351Z" fill="url(#paint73_linear_1911_4796)" stroke="#264F85" stroke-width="0.166472" stroke-miterlimit="10"/>
<path d="M62.4053 36.7676V45.807" stroke="black" stroke-width="0.166472" stroke-linecap="round" stroke-linejoin="round"/>
<path d="M62.4868 47.168C61.5779 48.2034 61.2083 49.6051 61.488 50.9535L61.5945 51.4713H63.3774L63.484 50.9535C63.7636 49.6051 63.3941 48.2034 62.4851 47.168H62.4868Z" fill="url(#paint74_linear_1911_4796)"/>
<path d="M132.304 31.59C132.463 30.0418 132.671 29.5857 133.511 28.7517C135.757 26.5243 138.965 26.6824 141.117 28.1623C140.891 27.4465 141.577 26.8489 142.231 26.481C143.185 25.9466 144.257 26.2479 145.178 26.8356C146.098 27.4232 146.616 28.5885 146.842 29.6573C146.981 30.3065 147.032 31.039 146.686 31.605C145.92 32.8535 144.89 32.5023 144.439 32.1394C144.848 33.3979 144.633 35.2774 144.072 37.027C143.779 37.9426 142.997 39.1212 141.678 39.7005C140.135 38.4853 139.669 37.891 138.712 37.0203C136.974 35.4405 135.519 33.551 134.435 31.4685C134.275 31.1605 134.119 30.8442 133.886 30.5878C133.606 30.2799 132.261 32.0012 132.303 31.5883L132.304 31.59Z" fill="#0B1E44" stroke="black" stroke-width="0.166472" stroke-linejoin="round"/>
<path d="M138.701 38.8203C138.559 39.4245 138.564 40.5532 137.622 40.8429C136.247 41.2657 134.557 41.8484 132.516 42.0082C132.047 42.0448 131.712 41.7984 131.549 41.3573C131.468 41.1359 131.503 40.7996 131.667 40.2969C131.687 40.2369 131.606 39.8624 131.301 39.7658C131.058 39.6892 131.141 39.2031 131.349 39.0583C131.26 38.9301 130.927 38.7753 131.035 38.4524C131.371 38.0861 131.469 37.6283 131.183 37.4951C130.431 37.1406 130.465 36.8542 130.449 36.7693C130.414 36.5745 132.002 35.2911 132.173 34.3338C132.31 33.5681 131.919 33.5298 132.225 31.9067C132.375 31.1126 132.761 30.7197 133.86 29.7559C133.98 32.0615 137.459 35.4509 138.258 36.0968C138.568 35.6024 139.069 35.0896 139.64 35.2128C140.194 35.3327 140.619 35.9236 140.605 36.4913C140.587 37.2787 139.856 39.4728 138.699 38.8203H138.701Z" fill="url(#paint75_linear_1911_4796)" stroke="#264F85" stroke-width="0.166472" stroke-miterlimit="10"/>
<path d="M44.7705 149.107C44.7705 149.107 61.3728 174.466 106.623 161.631" stroke="#264F85" stroke-width="0.166472" stroke-linecap="round" stroke-linejoin="round"/>
<path opacity="0.56" d="M85.5612 53.5314C85.9674 53.9009 85.458 54.2006 85.1999 54.2838C84.9419 54.3671 84.4725 54.4403 84.5607 53.8909C84.6106 53.5813 84.5973 53.2817 84.8553 53.2001C85.1134 53.1185 85.3298 53.3216 85.5612 53.533V53.5314Z" fill="#F9CCA7"/>
<path d="M83.8702 45.977C83.9617 46.0718 84.1049 46.0968 84.2247 46.0402C84.318 45.9953 84.4428 45.9204 84.5993 45.7905C84.9938 45.4675 86.011 44.3921 86.8284 44.0109C87.5708 43.6647 89.0391 43.8261 89.4919 43.9926C89.4919 43.9926 88.032 42.7724 86.7668 43.087C85.8978 43.3034 85.1537 43.8494 84.7741 44.1707C84.5111 44.3938 84.2264 44.5919 83.9234 44.7567C83.8585 44.7917 83.7953 44.825 83.742 44.8499C83.6354 44.8999 83.5655 45.0064 83.5639 45.1229C83.5589 45.346 83.6005 45.6973 83.8702 45.977Z" fill="#F97803"/>
<path d="M80.9183 46.7638C80.9083 46.8954 80.8134 47.0069 80.6852 47.0385C80.5853 47.0635 80.4405 47.0851 80.2374 47.0868C79.728 47.0918 78.258 46.9153 77.3874 47.1467C76.595 47.3548 75.5712 48.4202 75.3281 48.8364C75.3281 48.8364 75.6694 46.9636 76.8414 46.3959C77.6471 46.0047 78.5693 45.9498 79.0671 45.9531C79.4117 45.9548 79.7579 45.9265 80.0959 45.8599C80.1691 45.8449 80.2374 45.8299 80.2956 45.815C80.4088 45.785 80.5304 45.8216 80.6086 45.9115C80.7551 46.0797 80.9482 46.3776 80.9183 46.7638Z" fill="#F97803"/>
<path d="M88.1843 47.3616C88.1843 47.3616 87.4085 48.0525 86.0352 48.1157C86.0352 48.1157 87.3936 48.2422 88.181 47.5897C88.9684 46.9371 88.1826 47.3633 88.1826 47.3633L88.1843 47.3616Z" fill="#443122"/>
<path d="M85.0972 48.1501C85.0972 48.1501 84.939 48.3383 85.1055 48.3582C85.272 48.3782 85.3036 48.2201 85.4984 48.1718C85.6932 48.1235 86.2908 48.1535 86.7536 48.0203C87.2164 47.8871 88.117 47.7356 88.8461 46.6719C88.8461 46.6719 86.1293 46.81 85.0955 48.1501H85.0972Z" fill="#F0F4F8"/>
<path d="M85.0893 48.0404L85.0211 46.7935C85.0028 46.4755 85.1476 46.1676 85.4106 45.9878C85.8668 45.6731 86.7291 45.2853 88.1341 45.3851" stroke="#EAB892" stroke-width="0.166472" stroke-linecap="round" stroke-linejoin="round"/>
<path d="M81.2496 49.5186C81.2496 49.5186 81.4943 49.5485 81.3844 49.6784C81.2745 49.8082 81.1464 49.71 80.9682 49.8066C80.7901 49.9031 80.3723 50.3293 79.9411 50.544C79.5099 50.7588 78.7442 51.2565 77.4873 50.9669C77.4873 50.9669 79.5815 49.2306 81.2496 49.5186Z" fill="#F0F4F8"/>
<path d="M86.6633 47.1916C86.5967 47.165 86.5302 47.1433 86.4636 47.125C86.119 47.2931 85.806 47.4779 85.543 47.6477C85.6362 47.8009 85.8426 47.999 86.0674 48.1238C86.2838 48.1421 86.5568 48.1122 86.7965 48.0306C87.1211 47.9157 87.3142 47.8791 87.5107 47.7792C87.3958 47.5628 87.0296 47.3314 86.6633 47.1899V47.1916Z" fill="#443122"/>
<path d="M84.9971 48.2391C84.9971 48.2391 85.941 47.3218 86.8832 47.1404C87.2777 47.0638 87.9503 47.0688 88.4597 46.9789C89.3037 46.8307 89.5368 46.4045 90.0245 45.707C90.0245 45.707 89.8414 45.8752 89.5301 46.0533C89.1239 46.2864 88.6595 46.3929 88.19 46.3929C87.4609 46.3929 85.891 46.5993 84.9971 48.2391Z" fill="#443122"/>
<path d="M81.3821 49.518C81.3821 49.518 80.067 49.4797 79.2496 49.9842C78.9084 50.1956 78.4156 50.6534 77.9794 50.9314C77.257 51.3942 76.7975 51.2377 75.9668 51.0529C75.9668 51.0529 76.2148 51.0529 76.5644 50.973C77.0206 50.8698 77.4351 50.6334 77.7797 50.3171C78.3174 49.8243 79.6109 48.9137 81.3805 49.5147L81.3821 49.518Z" fill="#443122"/>
<path d="M79.217 49.9728C79.1504 49.9462 79.0839 49.9246 79.0173 49.9062C78.6727 50.0744 78.3597 50.2592 78.0967 50.429C78.2215 50.6354 78.4912 50.8435 78.8391 50.9783C78.8641 50.9883 78.8891 50.995 78.9141 51.0033C79.3802 50.8834 79.7281 50.682 79.9795 50.5555C79.8646 50.3391 79.5849 50.1143 79.2187 49.9728H79.217Z" fill="#443122"/>
<path d="M68.9268 62.6673C68.9268 62.6673 72.9504 58.0594 72.694 54.2422C72.694 54.2422 73.6429 59.6009 71.1758 63.2184L68.9268 62.6673Z" fill="#F97803"/>
<path d="M72.0124 42.0117C72.0124 42.0117 70.654 45.2496 70.902 51.474C71.1501 57.6984 66.6387 61.7636 66.6387 61.7636" stroke="#F97803" stroke-width="0.166472" stroke-miterlimit="10"/>
<path d="M90.2568 36.8711C90.2568 36.8711 97.5084 43.7331 96.4779 59.5962" stroke="#F97803" stroke-width="0.166472" stroke-miterlimit="10"/>
<path d="M81.8909 36.7139L62.0674 37.225L61.9492 35.9981L81.5829 35.1191L81.8909 36.7139Z" fill="#0088C7"/>
<path d="M62.0059 35.9912L74.984 27.0184L94.1716 26.1211L81.5147 35.2371L62.0059 35.9912Z" fill="#264F85"/>
<path d="M81.9528 36.7479L94.29 27.3539L94.1718 26.127L81.6465 35.1531L81.9528 36.7479Z" fill="#0F1F42"/>
<path d="M48.1882 51.3008H12.2519C10.6576 51.3008 9.36523 52.5932 9.36523 54.1874V76.1018C9.36523 77.696 10.6576 78.9884 12.2519 78.9884H48.1882C49.7824 78.9884 51.0748 77.696 51.0748 76.1018V54.1874C51.0748 52.5932 49.7824 51.3008 48.1882 51.3008Z" fill="url(#paint76_linear_1911_4796)"/>
<path opacity="0.73" d="M44.4359 64.6344L42.9759 62.9164V60.2695H37.5872V62.9164L36.1273 64.6344C35.9092 64.8908 35.791 65.2004 35.791 65.5167V73.9702C35.791 74.5179 37.802 74.9623 40.2824 74.9623C42.7629 74.9623 44.7738 74.5179 44.7738 73.9702V65.5167C44.7738 65.2004 44.6556 64.8908 44.4376 64.6344H44.4359Z" fill="#BEF5FF"/>
<path d="M42.9737 62.8892C41.2407 63.4602 39.3179 63.4602 37.585 62.8892V60.2656H42.9737V62.8892Z" fill="url(#paint77_linear_1911_4796)"/>
<g style="mix-blend-mode:darken" opacity="0.22">
<path d="M40.2805 66.182C37.8 66.182 35.7891 65.8141 35.7891 65.3613V73.9696C35.7891 74.5173 37.8 74.9618 40.2805 74.9618C42.7609 74.9618 44.7719 74.5173 44.7719 73.9696V65.3613C44.7719 65.8158 42.7609 66.182 40.2805 66.182Z" fill="#0088C7"/>
</g>
<g style="mix-blend-mode:darken" opacity="0.22">
<path d="M41.2346 68.1565H39.3535L39.3252 61.7656L41.2063 61.8988L41.2346 68.1565Z" fill="#0088C7"/>
</g>
<path opacity="0.84" d="M40.2805 68.7094C37.8 68.7094 35.7891 68.3415 35.7891 67.8887V73.9699C35.7891 74.5176 37.8 74.9621 40.2805 74.9621C42.7609 74.9621 44.7719 74.5176 44.7719 73.9699V67.8887C44.7719 68.3431 42.7609 68.7094 40.2805 68.7094Z" fill="#00A8E1"/>
<g style="mix-blend-mode:darken" opacity="0.22">
<path d="M40.2805 66.182C37.8 66.182 35.7891 65.8141 35.7891 65.3613V67.8884C35.7891 67.4339 37.8 67.0677 40.2805 67.0677C42.7609 67.0677 44.7719 67.4356 44.7719 67.8884V65.3613C44.7719 65.8158 42.7609 66.182 40.2805 66.182Z" fill="#0088C7"/>
</g>
<g style="mix-blend-mode:screen" opacity="0.73">
<path d="M37.3623 65.9824L37.4455 74.7355C37.7851 74.7971 38.1664 74.8487 38.5792 74.887V66.1389L38.5859 66.1223C38.1381 66.089 37.7252 66.0407 37.364 65.9841L37.3623 65.9824Z" fill="#BEF5FF"/>
<path d="M37.3623 65.9824L37.4455 74.7355C37.7851 74.7971 38.1664 74.8487 38.5792 74.887V66.1389L38.5859 66.1223C38.1381 66.089 37.7252 66.0407 37.364 65.9841L37.3623 65.9824Z" stroke="black" stroke-width="0.166472" stroke-miterlimit="10"/>
</g>
<g style="mix-blend-mode:screen" opacity="0.73">
<path d="M39.5165 59.5977H38.3911L38.436 63.1369L38.2796 63.3399C37.6803 64.124 37.3623 65.0363 37.3623 65.9702V65.9819C37.7219 66.0385 38.1331 66.0851 38.5792 66.12V66.0135C38.5825 65.0529 38.9321 64.0857 39.5664 63.29L39.5165 59.5977Z" fill="#BEF5FF"/>
<path d="M39.5165 59.5977H38.3911L38.436 63.1369L38.2796 63.3399C37.6803 64.124 37.3623 65.0363 37.3623 65.9702V65.9819C37.7219 66.0385 38.1331 66.0851 38.5792 66.12V66.0135C38.5825 65.0529 38.9321 64.0857 39.5664 63.29L39.5165 59.5977Z" stroke="black" stroke-width="0.166472" stroke-miterlimit="10"/>
</g>
<path d="M38.1382 57.7871H42.305C42.5031 57.7871 42.6646 57.9486 42.6646 58.1467V58.2083C42.6646 58.2616 42.6213 58.3032 42.5697 58.3032H37.8752C37.8219 58.3032 37.7803 58.2599 37.7803 58.2083V58.1467C37.7803 57.9486 37.9418 57.7871 38.1399 57.7871H38.1382Z" fill="url(#paint78_linear_1911_4796)" stroke="white" stroke-width="0.166472" stroke-miterlimit="10"/>
<path d="M42.0131 57.7876C41.567 57.2699 41.3273 56.644 41.3273 56.003V54.2634C41.3273 53.7457 40.8329 53.3262 40.2219 53.3262C39.6109 53.3262 39.1165 53.7457 39.1165 54.2634V56.003C39.1165 56.644 38.8768 57.2682 38.4307 57.7876H42.0148H42.0131Z" fill="url(#paint79_linear_1911_4796)" stroke="white" stroke-width="0.166472" stroke-miterlimit="10"/>
<path d="M43.4852 61.8648C41.326 62.1878 39.1169 62.1878 36.9578 61.8648C36.8829 61.8648 36.8213 61.8132 36.8213 61.7499V59.4992C36.8213 59.0431 37.2591 58.6719 37.7968 58.6719H42.6445C43.1838 58.6719 43.62 59.0431 43.62 59.4992V61.7499C43.62 61.8132 43.5584 61.8648 43.4835 61.8648H43.4852Z" fill="url(#paint80_linear_1911_4796)" stroke="white" stroke-width="0.166472" stroke-miterlimit="10"/>
<path d="M43.0135 58.7601H37.4284C37.3968 58.7601 37.3701 58.7384 37.3701 58.7118V58.5703C37.3701 58.3772 37.5549 58.2207 37.7813 58.2207H42.6573C42.8853 58.2207 43.0685 58.3772 43.0685 58.5703V58.7118C43.0685 58.7384 43.0435 58.7601 43.0102 58.7601H43.0135Z" fill="url(#paint81_linear_1911_4796)" stroke="white" stroke-width="0.166472" stroke-miterlimit="10"/>
<g style="mix-blend-mode:multiply">
<path d="M128.111 100.93H94.9049C93.786 100.93 92.8789 101.837 92.8789 102.956V114.933C92.8789 116.052 93.786 116.959 94.9049 116.959H128.111C129.23 116.959 130.137 116.052 130.137 114.933V102.956C130.137 101.837 129.23 100.93 128.111 100.93Z" fill="white"/>
<path d="M128.111 100.93H94.9049C93.786 100.93 92.8789 101.837 92.8789 102.956V114.933C92.8789 116.052 93.786 116.959 94.9049 116.959H128.111C129.23 116.959 130.137 116.052 130.137 114.933V102.956C130.137 101.837 129.23 100.93 128.111 100.93Z" stroke="#39C7DF" stroke-width="0.166472" stroke-miterlimit="10"/>
</g>
<path d="M49.895 85.1044C53.0908 85.1044 55.6815 82.5136 55.6815 79.3178C55.6815 76.122 53.0908 73.5312 49.895 73.5312C46.6991 73.5312 44.1084 76.122 44.1084 79.3178C44.1084 82.5136 46.6991 85.1044 49.895 85.1044Z" fill="#00DC86"/>
<g style="mix-blend-mode:darken">
<path d="M30.767 63.7309L27.8071 61.8331V58.9082H18.0934V61.8331L15.1336 63.7309C14.7224 64.0156 14.501 64.3552 14.501 64.7064V74.0455C14.501 74.6515 18.2832 75.3157 22.9494 75.3157C27.6156 75.3157 31.3979 74.6515 31.3979 74.0455V64.7064C31.3979 64.3568 31.1765 64.0156 30.7653 63.7309H30.767Z" fill="#BEF5FF"/>
</g>
<path opacity="0.84" d="M22.9514 68.2256C18.2852 68.2256 14.5029 67.8194 14.5029 67.3184V74.0372C14.5029 74.6431 18.2852 75.329 22.9514 75.329C27.6176 75.329 31.3998 74.6431 31.3998 74.0372V67.3184C31.3998 67.8194 27.6176 68.2256 22.9514 68.2256Z" fill="#00A8E1"/>
<path d="M28.9109 62.492C25.077 63.1213 20.8253 63.1213 16.9932 62.492V59.5938H28.9109V62.492Z" fill="#8FEAFF"/>
<g style="mix-blend-mode:screen" opacity="0.73">
<path d="M20.8655 58.1579H19.3872L19.4471 62.5461L19.2424 62.7709C18.455 63.6365 18.0371 64.1659 18.0371 65.198V65.2113C18.5099 65.2746 19.0476 65.3262 19.6336 65.3628V65.2446C19.6369 64.1825 20.098 63.5932 20.9304 62.7143L20.8638 58.1562L20.8655 58.1579Z" fill="#BEF5FF"/>
<path d="M20.8655 58.1579H19.3872L19.4471 62.5461L19.2424 62.7709C18.455 63.6365 18.0371 64.1659 18.0371 65.198V65.2113C18.5099 65.2746 19.0476 65.3262 19.6336 65.3628V65.2446C19.6369 64.1825 20.098 63.5932 20.9304 62.7143L20.8638 58.1562L20.8655 58.1579Z" stroke="black" stroke-width="0.166472" stroke-miterlimit="10"/>
</g>
<path opacity="0.6" d="M22.9514 65.4346C18.2852 65.4346 14.5029 65.0284 14.5029 64.5273V67.3191C14.5029 66.818 18.2852 66.4118 22.9514 66.4118C27.6176 66.4118 31.3998 66.818 31.3998 67.3191V64.5273C31.3998 65.0284 27.6176 65.4346 22.9514 65.4346Z" fill="#8FEAFF"/>
<path d="M29.3871 61.5274C25.0572 62.0351 20.6274 62.0351 16.2974 61.5274C16.1459 61.5274 16.0244 61.4458 16.0244 61.3459V58.6807C16.0244 57.9616 16.9001 57.3789 17.9821 57.3789H27.7041C28.7845 57.3789 29.6618 57.9616 29.6618 58.6807V61.3459C29.6618 61.4458 29.5403 61.5274 29.3888 61.5274H29.3871Z" fill="url(#paint82_linear_1911_4796)" stroke="white" stroke-width="0.166472" stroke-miterlimit="10"/>
<g style="mix-blend-mode:screen" opacity="0.73">
<path d="M18.0391 65.2126L18.1489 75.2509C18.5951 75.3191 19.0945 75.3757 19.6372 75.4173V65.3841L19.6455 65.3641C19.0562 65.3258 18.5152 65.2742 18.0407 65.2109L18.0391 65.2126Z" fill="#BEF5FF"/>
<path d="M18.0391 65.2126L18.1489 75.2509C18.5951 75.3191 19.0945 75.3757 19.6372 75.4173V65.3841L19.6455 65.3641C19.0562 65.3258 18.5152 65.2742 18.0407 65.2109L18.0391 65.2126Z" stroke="black" stroke-width="0.166472" stroke-miterlimit="10"/>
</g>
<path fill-rule="evenodd" clip-rule="evenodd" d="M121.769 146.489C121.864 146.175 121.769 145.955 121.329 145.955H119.863C119.485 145.955 119.318 146.155 119.224 146.375C119.224 146.375 118.479 148.197 117.421 149.371C117.074 149.717 116.928 149.822 116.74 149.822C116.645 149.822 116.51 149.717 116.51 149.403V146.489C116.51 146.112 116.405 145.955 116.091 145.955H113.785C113.555 145.955 113.407 146.133 113.407 146.29C113.407 146.646 113.931 146.729 113.995 147.715V149.874C113.995 150.345 113.911 150.43 113.722 150.43C113.229 150.43 112.014 148.607 111.301 146.511C111.155 146.123 111.018 145.955 110.64 145.955H109.174C108.754 145.955 108.671 146.155 108.671 146.375C108.671 146.762 109.164 148.69 110.987 151.237C112.202 152.977 113.91 153.921 115.461 153.921C116.394 153.921 116.51 153.711 116.51 153.355V152.035C116.51 151.615 116.593 151.532 116.898 151.532C117.118 151.532 117.486 151.637 118.355 152.476C119.35 153.471 119.518 153.922 120.073 153.922H121.539C121.959 153.922 122.168 153.713 122.042 153.305C121.905 152.895 121.434 152.299 120.805 151.587C120.459 151.177 119.946 150.748 119.8 150.528C119.58 150.245 119.643 150.119 119.8 149.879C119.8 149.869 121.591 147.353 121.769 146.494V146.489Z" fill="white"/>
<path d="M134.067 149.389V148.833C134.071 148.815 134.074 148.798 134.076 148.78C134.081 148.683 134.084 148.588 134.087 148.492C134.099 148.235 134.107 147.979 134.121 147.724C134.139 147.406 134.166 147.088 134.206 146.772C134.236 146.541 134.272 146.311 134.325 146.085C134.474 145.457 134.996 144.983 135.577 144.873C135.809 144.829 136.04 144.8 136.275 144.78C136.608 144.753 136.941 144.728 137.274 144.711C137.605 144.693 137.938 144.68 138.269 144.671C138.774 144.658 139.276 144.648 139.781 144.641C140.586 144.63 141.39 144.641 142.195 144.661C142.661 144.673 143.127 144.693 143.591 144.711C143.763 144.718 143.934 144.73 144.106 144.741C144.319 144.758 144.53 144.776 144.743 144.796C144.95 144.816 145.158 144.841 145.361 144.888C145.822 144.991 146.175 145.246 146.418 145.65C146.531 145.838 146.593 146.046 146.631 146.259C146.668 146.466 146.701 146.672 146.728 146.88C146.746 147.022 146.761 147.167 146.761 147.31C146.764 148.494 146.761 149.677 146.761 150.861C146.761 150.914 146.761 150.967 146.756 151.019C146.743 151.16 146.728 151.302 146.711 151.443C146.683 151.678 146.648 151.911 146.589 152.141C146.463 152.637 146.168 152.997 145.707 153.22C145.527 153.306 145.336 153.345 145.141 153.373C144.813 153.421 144.482 153.448 144.151 153.471C143.914 153.488 143.679 153.501 143.443 153.511C143.034 153.528 142.624 153.541 142.215 153.553C141.928 153.561 141.644 153.563 141.357 153.569C141.334 153.569 141.311 153.574 141.289 153.576H139.653C139.631 153.574 139.611 153.569 139.589 153.569C138.993 153.554 138.396 153.541 137.8 153.523C137.58 153.516 137.36 153.506 137.14 153.491C136.819 153.469 136.498 153.443 136.177 153.416C135.97 153.398 135.765 153.373 135.564 153.326C134.99 153.195 134.593 152.853 134.38 152.304C134.317 152.139 134.287 151.963 134.259 151.79C134.211 151.512 134.177 151.23 134.157 150.949C134.134 150.624 134.116 150.3 134.099 149.973C134.089 149.8 134.086 149.627 134.079 149.452C134.079 149.431 134.072 149.411 134.069 149.389H134.067ZM139.188 147.192V151.022C140.298 150.383 141.402 149.747 142.513 149.106L139.188 147.19V147.192Z" fill="white"/>
<path d="M139.188 147.191L142.513 149.107C141.403 149.747 140.299 150.383 139.188 151.024V147.193V147.191Z" fill="#DE97FF"/>
<path d="M170.198 145.417C170.163 145.871 170.098 146.357 170.03 146.843C169.849 148.125 169.646 149.405 169.424 150.681C169.274 151.54 169.118 152.397 168.961 153.254C168.935 153.402 168.887 153.544 168.825 153.68C168.602 154.186 168.229 154.298 167.701 154.095C167.453 154 167.247 153.839 167.029 153.689C166.105 153.054 165.174 152.43 164.245 151.803C164.12 151.719 163.999 151.633 163.894 151.523C163.653 151.268 163.641 151.025 163.856 150.747C163.982 150.582 164.135 150.443 164.284 150.299C165.188 149.429 166.125 148.593 167.012 147.704C167.107 147.609 167.195 147.508 167.285 147.408C167.362 147.323 167.428 147.231 167.34 147.121C167.252 147.012 167.139 147.056 167.045 147.115C166.734 147.308 166.424 147.504 166.118 147.707C164.954 148.485 163.789 149.261 162.631 150.045C162.108 150.398 161.56 150.537 160.942 150.351C160.696 150.276 160.443 150.224 160.197 150.15C159.847 150.043 159.498 149.931 159.153 149.805C158.966 149.737 158.755 149.66 158.74 149.415C158.725 149.172 158.923 149.069 159.096 148.971C159.456 148.768 159.847 148.626 160.225 148.463C162.724 147.378 165.217 146.279 167.748 145.27C168.274 145.06 168.798 144.837 169.354 144.714C169.454 144.693 169.559 144.678 169.661 144.686C170.06 144.719 170.193 144.896 170.198 145.415V145.417Z" fill="#FEFEFE"/>
<path d="M30.1709 45.4471L39.8396 44.8278L30.94 48.4902L31.7407 58.0807L27.8819 49.1961L18.2148 49.8153L27.1128 46.1529L26.312 36.5625L30.1709 45.4471Z" fill="#FFD066"/>
<path d="M162 95.2109L167.993 102.822L159.929 97.5682L152.486 103.668L157.613 95.4506L151.622 87.8395L159.684 93.0917L167.129 86.9922L162 95.2109Z" fill="#FFD066"/>
<path d="M94.4005 25.0846L100.926 25.7921L94.5603 27.2054L93.9843 33.7012L92.4361 27.322L85.9121 26.6161L92.2763 25.2011L92.8523 18.707L94.4005 25.0846Z" fill="#FFD066"/>
<defs>
<linearGradient id="paint0_linear_1911_4796" x1="79.0173" y1="31.7249" x2="83.7335" y2="68.685" gradientUnits="userSpaceOnUse">
<stop stop-color="#F97803"/>
<stop offset="0.23" stop-color="#F97A06"/>
<stop offset="0.42" stop-color="#F98410"/>
<stop offset="0.61" stop-color="#FA9322"/>
<stop offset="0.78" stop-color="#FCA93B"/>
<stop offset="0.95" stop-color="#FEC65A"/>
<stop offset="1" stop-color="#FFD066"/>
</linearGradient>
<linearGradient id="paint1_linear_1911_4796" x1="142.981" y1="100.139" x2="142.981" y2="160.355" gradientUnits="userSpaceOnUse">
<stop offset="0.32" stop-color="#00DC86"/>
<stop offset="0.78" stop-color="#23626A"/>
</linearGradient>
<linearGradient id="paint2_linear_1911_4796" x1="18.5112" y1="64.6137" x2="76.3186" y2="171.97" gradientUnits="userSpaceOnUse">
<stop stop-color="#F0F4F8"/>
<stop offset="0.32" stop-color="#00DC86"/>
<stop offset="1" stop-color="#23626A"/>
</linearGradient>
<linearGradient id="paint3_linear_1911_4796" x1="87.5805" y1="65.3385" x2="87.8951" y2="131.082" gradientUnits="userSpaceOnUse">
<stop stop-color="#0088C3"/>
<stop offset="1" stop-color="#0F1F42"/>
</linearGradient>
<linearGradient id="paint4_linear_1911_4796" x1="19.4834" y1="136.805" x2="155.989" y2="136.805" gradientUnits="userSpaceOnUse">
<stop stop-color="#0088C3"/>
<stop offset="1" stop-color="#0F1F42"/>
</linearGradient>
<linearGradient id="paint5_linear_1911_4796" x1="43.7239" y1="65.5456" x2="44.0386" y2="131.289" gradientUnits="userSpaceOnUse">
<stop stop-color="#0088C3"/>
<stop offset="1" stop-color="#0F1F42"/>
</linearGradient>
<linearGradient id="paint6_linear_1911_4796" x1="54.9893" y1="65.4907" x2="55.3056" y2="131.236" gradientUnits="userSpaceOnUse">
<stop stop-color="#0088C3"/>
<stop offset="1" stop-color="#0F1F42"/>
</linearGradient>
<linearGradient id="paint7_linear_1911_4796" x1="63.0844" y1="65.4524" x2="63.399" y2="131.196" gradientUnits="userSpaceOnUse">
<stop stop-color="#0088C3"/>
<stop offset="1" stop-color="#0F1F42"/>
</linearGradient>
<linearGradient id="paint8_linear_1911_4796" x1="71.1779" y1="65.4141" x2="71.4942" y2="131.157" gradientUnits="userSpaceOnUse">
<stop stop-color="#0088C3"/>
<stop offset="1" stop-color="#0F1F42"/>
</linearGradient>
<linearGradient id="paint9_linear_1911_4796" x1="87.4062" y1="65.3359" x2="87.7225" y2="131.079" gradientUnits="userSpaceOnUse">
<stop stop-color="#0088C3"/>
<stop offset="1" stop-color="#0F1F42"/>
</linearGradient>
<linearGradient id="paint10_linear_1911_4796" x1="79.2737" y1="65.3758" x2="79.5883" y2="131.119" gradientUnits="userSpaceOnUse">
<stop stop-color="#0088C3"/>
<stop offset="1" stop-color="#0F1F42"/>
</linearGradient>
<linearGradient id="paint11_linear_1911_4796" x1="95.5451" y1="65.2976" x2="95.8597" y2="131.041" gradientUnits="userSpaceOnUse">
<stop stop-color="#0088C3"/>
<stop offset="1" stop-color="#0F1F42"/>
</linearGradient>
<linearGradient id="paint12_linear_1911_4796" x1="103.638" y1="65.2576" x2="103.955" y2="131.001" gradientUnits="userSpaceOnUse">
<stop stop-color="#0088C3"/>
<stop offset="1" stop-color="#0F1F42"/>
</linearGradient>
<linearGradient id="paint13_linear_1911_4796" x1="111.734" y1="65.2193" x2="112.049" y2="130.962" gradientUnits="userSpaceOnUse">
<stop stop-color="#0088C3"/>
<stop offset="1" stop-color="#0F1F42"/>
</linearGradient>
<linearGradient id="paint14_linear_1911_4796" x1="119.828" y1="65.181" x2="120.145" y2="130.924" gradientUnits="userSpaceOnUse">
<stop stop-color="#0088C3"/>
<stop offset="1" stop-color="#0F1F42"/>
</linearGradient>
<linearGradient id="paint15_linear_1911_4796" x1="46.1837" y1="65.5366" x2="46.4983" y2="131.28" gradientUnits="userSpaceOnUse">
<stop stop-color="#0088C3"/>
<stop offset="1" stop-color="#0F1F42"/>
</linearGradient>
<linearGradient id="paint16_linear_1911_4796" x1="38.3684" y1="65.5712" x2="38.683" y2="131.314" gradientUnits="userSpaceOnUse">
<stop stop-color="#0088C3"/>
<stop offset="1" stop-color="#0F1F42"/>
</linearGradient>
<linearGradient id="paint17_linear_1911_4796" x1="53.9569" y1="65.4963" x2="54.2715" y2="131.241" gradientUnits="userSpaceOnUse">
<stop stop-color="#0088C3"/>
<stop offset="1" stop-color="#0F1F42"/>
</linearGradient>
<linearGradient id="paint18_linear_1911_4796" x1="128.703" y1="65.1384" x2="129.019" y2="130.881" gradientUnits="userSpaceOnUse">
<stop stop-color="#0088C3"/>
<stop offset="1" stop-color="#0F1F42"/>
</linearGradient>
<linearGradient id="paint19_linear_1911_4796" x1="121.13" y1="65.1748" x2="121.446" y2="130.917" gradientUnits="userSpaceOnUse">
<stop stop-color="#0088C3"/>
<stop offset="1" stop-color="#0F1F42"/>
</linearGradient>
<linearGradient id="paint20_linear_1911_4796" x1="136.843" y1="65.0999" x2="137.159" y2="130.843" gradientUnits="userSpaceOnUse">
<stop stop-color="#0088C3"/>
<stop offset="1" stop-color="#0F1F42"/>
</linearGradient>
<linearGradient id="paint21_linear_1911_4796" x1="62.0521" y1="65.458" x2="62.3668" y2="131.201" gradientUnits="userSpaceOnUse">
<stop stop-color="#0088C3"/>
<stop offset="1" stop-color="#0F1F42"/>
</linearGradient>
<linearGradient id="paint22_linear_1911_4796" x1="112.748" y1="65.215" x2="113.065" y2="130.958" gradientUnits="userSpaceOnUse">
<stop stop-color="#0088C3"/>
<stop offset="1" stop-color="#0F1F42"/>
</linearGradient>
<linearGradient id="paint23_linear_1911_4796" x1="131.095" y1="65.1261" x2="131.409" y2="130.869" gradientUnits="userSpaceOnUse">
<stop stop-color="#0088C3"/>
<stop offset="1" stop-color="#0F1F42"/>
</linearGradient>
<linearGradient id="paint24_linear_1911_4796" x1="43.6874" y1="65.5473" x2="44.0037" y2="131.291" gradientUnits="userSpaceOnUse">
<stop stop-color="#0088C3"/>
<stop offset="1" stop-color="#0F1F42"/>
</linearGradient>
<linearGradient id="paint25_linear_1911_4796" x1="60.5132" y1="65.4675" x2="60.8278" y2="131.211" gradientUnits="userSpaceOnUse">
<stop stop-color="#0088C3"/>
<stop offset="1" stop-color="#0F1F42"/>
</linearGradient>
<linearGradient id="paint26_linear_1911_4796" x1="52.732" y1="65.5041" x2="53.0466" y2="131.247" gradientUnits="userSpaceOnUse">
<stop stop-color="#0088C3"/>
<stop offset="1" stop-color="#0F1F42"/>
</linearGradient>
<linearGradient id="paint27_linear_1911_4796" x1="68.2939" y1="65.4292" x2="68.6086" y2="131.172" gradientUnits="userSpaceOnUse">
<stop stop-color="#0088C3"/>
<stop offset="1" stop-color="#0F1F42"/>
</linearGradient>
<linearGradient id="paint28_linear_1911_4796" x1="76.0751" y1="65.3926" x2="76.3898" y2="131.136" gradientUnits="userSpaceOnUse">
<stop stop-color="#0088C3"/>
<stop offset="1" stop-color="#0F1F42"/>
</linearGradient>
<linearGradient id="paint29_linear_1911_4796" x1="91.711" y1="65.3177" x2="92.0256" y2="131.061" gradientUnits="userSpaceOnUse">
<stop stop-color="#0088C3"/>
<stop offset="1" stop-color="#0F1F42"/>
</linearGradient>
<linearGradient id="paint30_linear_1911_4796" x1="83.8558" y1="65.3543" x2="84.1704" y2="131.097" gradientUnits="userSpaceOnUse">
<stop stop-color="#0088C3"/>
<stop offset="1" stop-color="#0F1F42"/>
</linearGradient>
<linearGradient id="paint31_linear_1911_4796" x1="99.4924" y1="65.2794" x2="99.8071" y2="131.023" gradientUnits="userSpaceOnUse">
<stop stop-color="#0088C3"/>
<stop offset="1" stop-color="#0F1F42"/>
</linearGradient>
<linearGradient id="paint32_linear_1911_4796" x1="107.274" y1="65.2428" x2="107.59" y2="130.986" gradientUnits="userSpaceOnUse">
<stop stop-color="#0088C3"/>
<stop offset="1" stop-color="#0F1F42"/>
</linearGradient>
<linearGradient id="paint33_linear_1911_4796" x1="115.054" y1="65.2045" x2="115.371" y2="130.948" gradientUnits="userSpaceOnUse">
<stop stop-color="#0088C3"/>
<stop offset="1" stop-color="#0F1F42"/>
</linearGradient>
<linearGradient id="paint34_linear_1911_4796" x1="122.835" y1="65.1679" x2="123.152" y2="130.911" gradientUnits="userSpaceOnUse">
<stop stop-color="#0088C3"/>
<stop offset="1" stop-color="#0F1F42"/>
</linearGradient>
<linearGradient id="paint35_linear_1911_4796" x1="52.3503" y1="65.504" x2="52.6666" y2="131.248" gradientUnits="userSpaceOnUse">
<stop stop-color="#0088C3"/>
<stop offset="1" stop-color="#0F1F42"/>
</linearGradient>
<linearGradient id="paint36_linear_1911_4796" x1="45.3369" y1="65.5373" x2="45.6532" y2="131.281" gradientUnits="userSpaceOnUse">
<stop stop-color="#0088C3"/>
<stop offset="1" stop-color="#0F1F42"/>
</linearGradient>
<linearGradient id="paint37_linear_1911_4796" x1="59.3636" y1="65.4707" x2="59.6799" y2="131.215" gradientUnits="userSpaceOnUse">
<stop stop-color="#0088C3"/>
<stop offset="1" stop-color="#0F1F42"/>
</linearGradient>
<linearGradient id="paint38_linear_1911_4796" x1="66.3777" y1="65.4374" x2="66.694" y2="131.181" gradientUnits="userSpaceOnUse">
<stop stop-color="#0088C3"/>
<stop offset="1" stop-color="#0F1F42"/>
</linearGradient>
<linearGradient id="paint39_linear_1911_4796" x1="80.4041" y1="65.3692" x2="80.7204" y2="131.113" gradientUnits="userSpaceOnUse">
<stop stop-color="#0088C3"/>
<stop offset="1" stop-color="#0F1F42"/>
</linearGradient>
<linearGradient id="paint40_linear_1911_4796" x1="73.391" y1="65.4025" x2="73.7073" y2="131.148" gradientUnits="userSpaceOnUse">
<stop stop-color="#0088C3"/>
<stop offset="1" stop-color="#0F1F42"/>
</linearGradient>
<linearGradient id="paint41_linear_1911_4796" x1="87.4296" y1="65.3359" x2="87.7459" y2="131.08" gradientUnits="userSpaceOnUse">
<stop stop-color="#0088C3"/>
<stop offset="1" stop-color="#0F1F42"/>
</linearGradient>
<linearGradient id="paint42_linear_1911_4796" x1="94.4565" y1="65.3026" x2="94.7728" y2="131.047" gradientUnits="userSpaceOnUse">
<stop stop-color="#0088C3"/>
<stop offset="1" stop-color="#0F1F42"/>
</linearGradient>
<linearGradient id="paint43_linear_1911_4796" x1="101.47" y1="65.2693" x2="101.786" y2="131.013" gradientUnits="userSpaceOnUse">
<stop stop-color="#0088C3"/>
<stop offset="1" stop-color="#0F1F42"/>
</linearGradient>
<linearGradient id="paint44_linear_1911_4796" x1="108.483" y1="65.2343" x2="108.799" y2="130.978" gradientUnits="userSpaceOnUse">
<stop stop-color="#0088C3"/>
<stop offset="1" stop-color="#0F1F42"/>
</linearGradient>
<linearGradient id="paint45_linear_1911_4796" x1="115.497" y1="65.201" x2="115.813" y2="130.945" gradientUnits="userSpaceOnUse">
<stop stop-color="#0088C3"/>
<stop offset="1" stop-color="#0F1F42"/>
</linearGradient>
<linearGradient id="paint46_linear_1911_4796" x1="122.51" y1="65.1677" x2="122.827" y2="130.912" gradientUnits="userSpaceOnUse">
<stop stop-color="#0088C3"/>
<stop offset="1" stop-color="#0F1F42"/>
</linearGradient>
<linearGradient id="paint47_linear_1911_4796" x1="129.525" y1="65.1344" x2="129.839" y2="130.878" gradientUnits="userSpaceOnUse">
<stop stop-color="#0088C3"/>
<stop offset="1" stop-color="#0F1F42"/>
</linearGradient>
<linearGradient id="paint48_linear_1911_4796" x1="131.508" y1="65.1262" x2="131.824" y2="130.869" gradientUnits="userSpaceOnUse">
<stop stop-color="#0088C3"/>
<stop offset="1" stop-color="#0F1F42"/>
</linearGradient>
<linearGradient id="paint49_linear_1911_4796" x1="44.461" y1="65.5437" x2="44.7757" y2="131.287" gradientUnits="userSpaceOnUse">
<stop stop-color="#0088C3"/>
<stop offset="1" stop-color="#0F1F42"/>
</linearGradient>
<linearGradient id="paint50_linear_1911_4796" x1="59.7685" y1="65.4708" x2="60.0848" y2="131.214" gradientUnits="userSpaceOnUse">
<stop stop-color="#0088C3"/>
<stop offset="1" stop-color="#0F1F42"/>
</linearGradient>
<linearGradient id="paint51_linear_1911_4796" x1="52.277" y1="65.5058" x2="52.5933" y2="131.249" gradientUnits="userSpaceOnUse">
<stop stop-color="#0088C3"/>
<stop offset="1" stop-color="#0F1F42"/>
</linearGradient>
<linearGradient id="paint52_linear_1911_4796" x1="67.2599" y1="65.4342" x2="67.5745" y2="131.177" gradientUnits="userSpaceOnUse">
<stop stop-color="#0088C3"/>
<stop offset="1" stop-color="#0F1F42"/>
</linearGradient>
<linearGradient id="paint53_linear_1911_4796" x1="74.7505" y1="65.3993" x2="75.0652" y2="131.142" gradientUnits="userSpaceOnUse">
<stop stop-color="#0088C3"/>
<stop offset="1" stop-color="#0F1F42"/>
</linearGradient>
<linearGradient id="paint54_linear_1911_4796" x1="89.7915" y1="65.326" x2="90.1078" y2="131.069" gradientUnits="userSpaceOnUse">
<stop stop-color="#0088C3"/>
<stop offset="1" stop-color="#0F1F42"/>
</linearGradient>
<linearGradient id="paint55_linear_1911_4796" x1="82.2401" y1="65.3626" x2="82.5564" y2="131.106" gradientUnits="userSpaceOnUse">
<stop stop-color="#0088C3"/>
<stop offset="1" stop-color="#0F1F42"/>
</linearGradient>
<linearGradient id="paint56_linear_1911_4796" x1="97.2907" y1="65.291" x2="97.607" y2="131.034" gradientUnits="userSpaceOnUse">
<stop stop-color="#0088C3"/>
<stop offset="1" stop-color="#0F1F42"/>
</linearGradient>
<linearGradient id="paint57_linear_1911_4796" x1="104.782" y1="65.2544" x2="105.097" y2="130.997" gradientUnits="userSpaceOnUse">
<stop stop-color="#0088C3"/>
<stop offset="1" stop-color="#0F1F42"/>
</linearGradient>
<linearGradient id="paint58_linear_1911_4796" x1="112.274" y1="65.2178" x2="112.589" y2="130.963" gradientUnits="userSpaceOnUse">
<stop stop-color="#0088C3"/>
<stop offset="1" stop-color="#0F1F42"/>
</linearGradient>
<linearGradient id="paint59_linear_1911_4796" x1="119.765" y1="65.1828" x2="120.08" y2="130.926" gradientUnits="userSpaceOnUse">
<stop stop-color="#0088C3"/>
<stop offset="1" stop-color="#0F1F42"/>
</linearGradient>
<linearGradient id="paint60_linear_1911_4796" x1="129.002" y1="65.1375" x2="129.316" y2="130.881" gradientUnits="userSpaceOnUse">
<stop stop-color="#0088C3"/>
<stop offset="1" stop-color="#0F1F42"/>
</linearGradient>
<linearGradient id="paint61_linear_1911_4796" x1="87.3974" y1="65.3385" x2="87.712" y2="131.081" gradientUnits="userSpaceOnUse">
<stop stop-color="#0088C3"/>
<stop offset="1" stop-color="#0F1F42"/>
</linearGradient>
<linearGradient id="paint62_linear_1911_4796" x1="76.9834" y1="86.4647" x2="78.5697" y2="90.4597" gradientUnits="userSpaceOnUse">
<stop stop-color="#BEF5FF"/>
<stop offset="1" stop-color="#0088C3"/>
</linearGradient>
<linearGradient id="paint63_linear_1911_4796" x1="73.283" y1="90.2556" x2="74.0246" y2="94.0804" gradientUnits="userSpaceOnUse">
<stop stop-color="#BEF5FF"/>
<stop offset="1" stop-color="#0088C3"/>
</linearGradient>
<linearGradient id="paint64_linear_1911_4796" x1="65.4357" y1="88.3702" x2="66.9412" y2="99.4383" gradientUnits="userSpaceOnUse">
<stop offset="0.3" stop-color="#BEF5FF"/>
<stop offset="0.47" stop-color="#8CD8EF"/>
<stop offset="0.84" stop-color="#289FCF"/>
<stop offset="1" stop-color="#0088C3"/>
</linearGradient>
<linearGradient id="paint65_linear_1911_4796" x1="66.0537" y1="88.6736" x2="67.9566" y2="114.585" gradientUnits="userSpaceOnUse">
<stop offset="0.25" stop-color="#DE97FF"/>
<stop offset="1" stop-color="#A827D8"/>
</linearGradient>
<linearGradient id="paint66_linear_1911_4796" x1="62.7066" y1="99.315" x2="59.9662" y2="106.52" gradientUnits="userSpaceOnUse">
<stop stop-color="#0088C3"/>
<stop offset="1" stop-color="#0F1F42"/>
</linearGradient>
<linearGradient id="paint67_linear_1911_4796" x1="68.1004" y1="91.6461" x2="69.2461" y2="102.292" gradientUnits="userSpaceOnUse">
<stop offset="0.47" stop-color="#DE97FF"/>
<stop offset="0.53" stop-color="#B940DD"/>
<stop offset="1" stop-color="#8C00BC"/>
</linearGradient>
<linearGradient id="paint68_linear_1911_4796" x1="63.8091" y1="88.837" x2="65.7119" y2="114.748" gradientUnits="userSpaceOnUse">
<stop offset="0.14" stop-color="#F0F4F8"/>
<stop offset="0.44" stop-color="#DE97FF"/>
<stop offset="0.83" stop-color="#A827D8"/>
</linearGradient>
<linearGradient id="paint69_linear_1911_4796" x1="60.4019" y1="107.108" x2="63.5912" y2="106.874" gradientUnits="userSpaceOnUse">
<stop stop-color="#0F1F42"/>
<stop offset="1" stop-color="#0F1F42"/>
</linearGradient>
<linearGradient id="paint70_linear_1911_4796" x1="75.4536" y1="90.8542" x2="76.5993" y2="101.501" gradientUnits="userSpaceOnUse">
<stop stop-color="#DE97FF"/>
<stop offset="0.53" stop-color="#B940DD"/>
<stop offset="1" stop-color="#8C00BC"/>
</linearGradient>
<linearGradient id="paint71_linear_1911_4796" x1="81.6276" y1="47.1573" x2="79.3153" y2="32.1265" gradientUnits="userSpaceOnUse">
<stop stop-color="#0088C3"/>
<stop offset="1" stop-color="#0F1F42"/>
</linearGradient>
<linearGradient id="paint72_linear_1911_4796" x1="62.4866" y1="53.5559" x2="62.4866" y2="46.7539" gradientUnits="userSpaceOnUse">
<stop stop-color="#0088C3"/>
<stop offset="1" stop-color="#0F1F42"/>
</linearGradient>
<linearGradient id="paint73_linear_1911_4796" x1="135.288" y1="36.9341" x2="140.675" y2="45.291" gradientUnits="userSpaceOnUse">
<stop offset="0.29" stop-color="#BEF5FF"/>
<stop offset="0.61" stop-color="white"/>
</linearGradient>
<linearGradient id="paint74_linear_1911_4796" x1="62.4868" y1="53.5555" x2="62.4868" y2="46.7535" gradientUnits="userSpaceOnUse">
<stop stop-color="#0088C3"/>
<stop offset="1" stop-color="#0F1F42"/>
</linearGradient>
<linearGradient id="paint75_linear_1911_4796" x1="134.842" y1="27.6733" x2="137.669" y2="64.422" gradientUnits="userSpaceOnUse">
<stop offset="0.34" stop-color="white"/>
<stop offset="0.64" stop-color="#BEF5FF"/>
</linearGradient>
<linearGradient id="paint76_linear_1911_4796" x1="18.696" y1="41.2176" x2="44.1063" y2="93.9742" gradientUnits="userSpaceOnUse">
<stop offset="0.36" stop-color="white"/>
<stop offset="1" stop-color="#BEF5FF"/>
</linearGradient>
<linearGradient id="paint77_linear_1911_4796" x1="40.2801" y1="63.5901" x2="40.2801" y2="61.0514" gradientUnits="userSpaceOnUse">
<stop offset="0.2" stop-color="#BEF5FF"/>
<stop offset="0.76" stop-color="#39C7DF"/>
</linearGradient>
<linearGradient id="paint78_linear_1911_4796" x1="40.2224" y1="56.3738" x2="40.2224" y2="59.7415" gradientUnits="userSpaceOnUse">
<stop offset="0.25" stop-color="#DE97FF"/>
<stop offset="1" stop-color="#A827D8"/>
</linearGradient>
<linearGradient id="paint79_linear_1911_4796" x1="40.2219" y1="55.6018" x2="40.2219" y2="64.3716" gradientUnits="userSpaceOnUse">
<stop offset="0.25" stop-color="#DE97FF"/>
<stop offset="1" stop-color="#A827D8"/>
</linearGradient>
<linearGradient id="paint80_linear_1911_4796" x1="40.2223" y1="55.6021" x2="40.2223" y2="64.3719" gradientUnits="userSpaceOnUse">
<stop offset="0.25" stop-color="#DE97FF"/>
<stop offset="1" stop-color="#A827D8"/>
</linearGradient>
<linearGradient id="paint81_linear_1911_4796" x1="40.2218" y1="56.9655" x2="40.2218" y2="60.1018" gradientUnits="userSpaceOnUse">
<stop offset="0.4" stop-color="#DE97FF"/>
<stop offset="1" stop-color="#A827D8"/>
</linearGradient>
<linearGradient id="paint82_linear_1911_4796" x1="18.966" y1="55.546" x2="25.4933" y2="62.8092" gradientUnits="userSpaceOnUse">
<stop offset="0.25" stop-color="#DE97FF"/>
<stop offset="1" stop-color="#A827D8"/>
</linearGradient>
</defs>
</svg>
