<svg width="151" height="140" viewBox="0 0 151 140" fill="none" xmlns="http://www.w3.org/2000/svg">
<path d="M72.9157 149.015C112.986 149.015 145.47 115.657 145.47 74.5077C145.47 33.3582 112.986 0 72.9157 0C32.845 0 0.361328 33.3582 0.361328 74.5077C0.361328 115.657 32.845 149.015 72.9157 149.015Z" fill="url(#paint0_linear_1911_5010)"/>
<path d="M62.7889 5.21207C62.7889 5.21207 54.0478 13.2087 47.6139 16.7263C41.1797 20.2425 38.8799 24.1099 32.8874 26.7356C26.8952 29.3628 25.3625 34.3853 22.3866 41.35C19.4106 48.3148 18.0813 59.2417 13.8268 65.3476C13.8268 65.3476 12.578 66.3147 16.7873 76.5815C20.9963 86.8468 20.1937 102.058 22.9132 107.245C22.9132 107.245 36.4898 106.277 39.2907 92.9425C39.2907 92.9425 34.0195 79.2133 33.9798 76.2157C33.9415 73.2176 33.0866 69.4005 33.0866 69.4005C33.0866 69.4005 38.1805 64.5596 38.71 56.2181C38.71 56.2181 39.4569 51.6337 37.9559 47.3279C37.9559 47.3279 41.2915 41.8924 41.1818 38.4345C41.1818 38.4345 44.8916 36.339 48.2082 29.844L55.6104 24.1732C55.6104 24.1732 71.3963 22.1094 75.0048 16.7039C75.0048 16.7039 76.0899 15.5058 75.8765 14.696C75.8765 14.696 76.4067 13.5989 75.6166 13.7099C74.8266 13.8209 70.0749 15.1387 69.8342 15.3593C69.8342 15.3593 60.1784 17.8488 58.7968 17.4097C58.7968 17.4097 67.3851 10.0219 64.1725 5.93312L63.7116 5.45201C63.7116 5.45201 63.9635 5.04855 63.4333 4.77997C63.0152 4.98579 62.7889 5.21207 62.7889 5.21207Z" fill="#F9CCA7" stroke="#A86436" stroke-width="0.226205" stroke-linecap="round" stroke-linejoin="round"/>
<path d="M34.3651 51.9343C34.3651 51.9343 33.9442 49.3681 34.6622 48.2113C35.3803 47.0544 36.6385 44.0714 36.5922 42.9268C36.5922 42.9268 38.1657 41.0916 38.8217 40.266C39.8328 38.9962 41.5142 33.2013 39.2767 29.1774C38.7423 28.2161 37.817 27.5264 36.7354 27.4071C36.3186 27.361 35.8885 27.3988 35.5297 27.6155C34.4127 28.2884 33.2056 32.026 32.8634 32.4274C32.5211 32.8287 29.7564 38.0231 29.7201 38.6409C29.6838 39.2587 23.3509 48.1032 22.0654 48.5205" stroke="#A86436" stroke-width="0.226205" stroke-linecap="round" stroke-linejoin="round"/>
<g style="mix-blend-mode:multiply" opacity="0.7">
<path d="M38.2768 96.8007C38.7871 95.6515 39.2066 94.3791 39.504 92.9678C39.504 92.9678 34.2051 79.2021 34.1652 76.1965C34.1268 73.1905 33.2673 69.3633 33.2673 69.3633C33.2673 69.3633 38.3881 64.5095 38.9204 56.1458C38.9204 56.1458 39.1096 54.9914 39.1075 53.2968L38.5854 49.9452C38.9922 56.222 35.7682 62.7473 33.4929 64.8261C30.8873 67.2068 31.6419 70.5152 31.6419 70.5152C29.8012 76.4209 36.0447 91.6654 38.2768 96.8007Z" fill="#EAB892"/>
</g>
<g style="mix-blend-mode:multiply" opacity="0.7">
<path d="M62.1844 7.1255C61.5998 9.9265 59.7792 12.4491 57.3254 13.8595C56.9758 14.0603 56.5797 14.2792 56.4618 14.6714C56.3063 15.1885 56.7134 15.7962 56.4364 16.2599C56.2103 16.6374 55.6936 16.6543 55.2953 16.8282C54.5864 17.1379 54.2669 17.9577 53.9139 18.6566C53.036 20.3936 51.5258 21.7942 49.7482 22.5211C49.4397 22.6466 49.1071 22.7659 48.8995 23.0305C48.734 23.2423 48.6715 23.5161 48.5918 23.7735C48.2266 24.9552 47.4099 25.9331 46.5996 26.8618C45.2296 28.4294 43.8197 29.9611 42.3683 31.4509L42.7987 31.5385C42.7987 31.5385 46.698 29.0051 50.7026 23.9639C50.7026 23.9639 58.3673 18.1219 61.6575 14.1484C64.9478 10.1749 65.2394 7.32698 63.9247 5.8924C62.6101 4.45782 62.1822 7.12937 62.1822 7.12937L62.1844 7.1255Z" fill="#EAB892"/>
</g>
<g style="mix-blend-mode:multiply" opacity="0.7">
<path d="M75.6161 14.7488C75.6161 14.7488 73.5035 18.5196 67.352 19.794C61.2006 21.0685 56.9804 21.4606 54.0503 24.0821C51.1201 26.7036 47.1726 29.358 47.1726 29.358C47.1726 29.358 43.9379 36.9164 41.0434 38.3456C41.0434 38.3456 46.1363 34.5973 48.045 29.8064L55.4212 24.1694C55.4212 24.1694 64.4182 23.1164 70.8705 19.8419C70.8705 19.8419 75.7733 17.1252 75.6165 14.7503L75.6161 14.7488Z" fill="#EAB892"/>
</g>
<path d="M32.2877 39.7989C32.2802 39.4175 32.1534 39.0277 31.8788 38.7714C31.6043 38.5152 31.1712 38.4249 30.8413 38.6104C30.5114 38.7959 30.3615 39.2809 30.5762 39.5902" stroke="#A86436" stroke-width="0.226205" stroke-linecap="round" stroke-linejoin="round"/>
<path d="M45.6748 18.1205C45.9373 18.4594 45.7526 18.9991 45.4068 19.2556C45.0609 19.5122 44.6124 19.5619 44.1888 19.6028" stroke="#A86436" stroke-width="0.226205" stroke-linecap="round" stroke-linejoin="round"/>
<path d="M33.2534 69.3503C32.9265 69.5704 32.5999 69.792 32.2523 69.976C31.2952 70.4842 30.2196 70.6968 29.1619 70.9043" stroke="#A86436" stroke-width="0.226205" stroke-linecap="round" stroke-linejoin="round"/>
<path d="M35.0121 27.5849C35.0121 27.5849 36.0999 29.3093 37.5557 29.6737C37.5557 29.6737 37.5582 33.7814 35.3026 34.2122C35.3026 34.2122 34.7097 34.1705 34.1113 33.8575C33.4962 33.5361 33.168 32.8338 33.2826 32.1344C33.4821 30.909 33.9749 28.6685 35.0121 27.5849Z" fill="#FEE2CC"/>
<path d="M63.8322 5.63847C63.8322 5.63847 61.4477 8.9944 60.0251 9.24844C60.0251 9.24844 59.0619 9.42038 59.0648 8.36676L63.2682 4.51501C63.2682 4.51501 64.0256 4.876 63.8322 5.63847Z" fill="#FEE2CC"/>
<path d="M75.7372 14.0912C75.7372 14.0912 75.9367 14.875 73.3409 15.6931C70.7451 16.5111 69.8825 16.4856 69.7158 16.2609C69.5491 16.0361 69.3222 15.4933 69.5295 15.3939C69.7368 15.2946 75.2877 13.7589 75.2877 13.7589C75.2877 13.7589 75.6829 13.59 75.7383 14.0892L75.7372 14.0912Z" fill="#FEE2CC"/>
<path d="M49.4549 120.926C48.9387 119.681 48.1713 118.488 47.2698 117.396C48.5488 117.964 49.8863 118.377 51.2008 118.541C57.081 119.276 60.1089 116.358 60.5835 112.351C61.0581 108.344 58.8007 104.765 52.9204 104.029C51.6122 103.866 50.2223 103.952 48.8508 104.208C49.9696 103.353 50.9866 102.372 51.7832 101.285C55.3428 96.4239 54.3967 92.2717 51.2547 89.8458C48.1127 87.4199 43.9645 87.6383 40.405 92.4995C39.6129 93.5819 38.9904 94.8605 38.5204 96.2072C38.3601 94.7846 38.0396 93.3904 37.5219 92.1387C35.2012 86.5417 31.2271 85.3074 27.609 86.8898C23.9924 88.4707 22.1032 92.2685 24.4223 97.8655C24.9386 99.1109 25.7059 100.304 26.6074 101.396C25.3284 100.828 23.9909 100.415 22.6765 100.25C16.7962 99.516 13.7683 102.434 13.2937 106.441C12.8191 110.447 15.0766 114.027 20.9568 114.763C22.265 114.926 23.655 114.84 25.0264 114.584C23.9077 115.438 22.8906 116.419 22.094 117.507C18.5344 122.368 19.4806 126.52 22.6225 128.946C25.7645 131.372 29.9127 131.153 33.4723 126.292C34.2643 125.21 34.8869 123.931 35.3568 122.585C35.5171 124.007 35.8376 125.401 36.3554 126.653C38.676 132.25 42.6501 133.484 46.2682 131.902C49.8863 130.319 51.774 126.523 49.4549 120.926Z" fill="white"/>
<path d="M33.9438 110.901C34.6042 110.901 35.1396 110.351 35.1396 109.673C35.1396 108.995 34.6042 108.445 33.9438 108.445C33.2834 108.445 32.748 108.995 32.748 109.673C32.748 110.351 33.2834 110.901 33.9438 110.901Z" fill="#FFD066"/>
<path d="M37.9624 109.04C38.6228 109.04 39.1581 108.49 39.1581 107.812C39.1581 107.134 38.6228 106.584 37.9624 106.584C37.302 106.584 36.7666 107.134 36.7666 107.812C36.7666 108.49 37.302 109.04 37.9624 109.04Z" fill="#FFD066"/>
<path d="M37.9194 113.54C38.5798 113.54 39.1152 112.99 39.1152 112.312C39.1152 111.634 38.5798 111.084 37.9194 111.084C37.259 111.084 36.7236 111.634 36.7236 112.312C36.7236 112.99 37.259 113.54 37.9194 113.54Z" fill="#FFD066"/>
<path d="M45.9423 98.3296C44.4153 100.485 40.8495 104.8 40.4397 104.493C40.0298 104.186 42.9298 99.374 44.4569 97.2187C45.9839 95.0635 47.5542 93.5649 47.9656 93.8719C48.377 94.1789 47.471 96.1743 45.9439 98.3296H45.9423Z" fill="#FDEBEA"/>
<path opacity="0.2" d="M27.5014 121.148C29.0284 118.993 32.5941 114.677 33.004 114.984C33.4139 115.291 30.5139 120.103 28.9868 122.259C27.4597 124.414 25.8895 125.913 25.4781 125.606C25.0667 125.299 25.9727 123.303 27.4998 121.148H27.5014Z" fill="#F49C95"/>
<path d="M50.8738 112.673C48.302 112.313 42.9133 111.132 42.9811 110.615C43.0489 110.097 48.5501 110.442 51.1219 110.803C53.6937 111.164 55.7231 111.874 55.6538 112.39C55.5844 112.906 53.4441 113.033 50.8738 112.673Z" fill="#FDEBEA"/>
<path opacity="0.2" d="M22.5708 106.804C25.1426 107.165 30.5313 108.345 30.4635 108.863C30.3957 109.38 24.8945 109.035 22.3227 108.674C19.7509 108.314 17.7214 107.603 17.7908 107.087C17.8601 106.571 20.0005 106.445 22.5708 106.804Z" fill="#F49C95"/>
<path d="M41.3908 123.769C40.3969 121.307 38.6742 115.932 39.1426 115.732C39.611 115.533 42.095 120.584 43.0889 123.048C44.0828 125.51 44.5081 127.669 44.0382 127.868C43.5697 128.067 42.3832 126.233 41.3908 123.771V123.769Z" fill="#FDEBEA"/>
<path opacity="0.2" d="M32.0546 95.7071C33.0485 98.1693 34.7712 103.545 34.3028 103.744C33.8344 103.944 31.3504 98.8925 30.3565 96.4286C29.3626 93.9664 28.9373 91.808 29.4072 91.6086C29.8772 91.4092 31.0622 93.2432 32.0546 95.7055V95.7071Z" fill="#F49C95"/>
<path d="M64.0583 142.265C64.0583 142.265 74.4643 136.934 81.5249 135.304C88.5854 133.676 91.769 130.565 98.1809 129.677C104.593 128.788 107.332 124.346 111.948 118.421C116.563 112.497 120.6 102.279 126.224 97.5396C126.224 97.5396 127.667 96.9478 126.224 85.8392C124.782 74.7321 129.397 60.2181 128.1 54.4423C128.1 54.4423 114.832 51.6287 108.775 63.7722C108.775 63.7722 110.36 78.5284 109.641 81.4432C108.92 84.358 108.775 88.2919 108.775 88.2919C108.775 88.2919 102.665 91.5739 100.048 99.5081C100.048 99.5081 98.1732 103.743 98.5245 108.329C98.5245 108.329 93.951 112.672 93.1821 116.052C93.1821 116.052 89.094 117.057 84.2708 122.433L75.7371 125.881C75.7371 125.881 60.0735 123.518 55.2457 127.758C55.2457 127.758 53.902 128.618 53.902 129.462C53.902 129.462 53.1161 130.378 53.902 130.489C54.6879 130.6 59.5788 130.636 59.8654 130.489C59.8654 130.489 69.7567 130.745 70.971 131.552C70.971 131.552 60.8655 136.336 62.9134 141.184L63.2339 141.778C63.2339 141.778 62.8903 142.099 63.331 142.506C63.784 142.422 64.0583 142.265 64.0583 142.265Z" fill="#F9CCA7" stroke="#A86436" stroke-width="0.226205" stroke-linecap="round" stroke-linejoin="round"/>
<path d="M103.154 104.715C103.154 104.715 102.909 107.318 101.928 108.24C100.946 109.163 98.9847 111.706 98.7396 112.828C98.7396 112.828 96.7657 114.171 95.9274 114.79C94.6361 115.741 91.5573 120.892 92.6868 125.41C92.9565 126.489 93.67 127.413 94.6777 127.828C95.0661 127.988 95.4883 128.07 95.8874 127.959C97.1294 127.616 99.2327 124.327 99.6627 124.033C100.093 123.739 104.059 119.469 104.25 118.881C104.441 118.292 112.754 111.472 114.094 111.423" stroke="#A86436" stroke-width="0.226205" stroke-linecap="round" stroke-linejoin="round"/>
<g style="mix-blend-mode:multiply" opacity="0.7">
<path d="M110.85 60.4062C110.074 61.3763 109.353 62.4903 108.713 63.7721C108.713 63.7721 110.299 78.5282 109.579 81.443C108.858 84.3578 108.713 88.2917 108.713 88.2917C108.713 88.2917 102.603 91.5737 99.9867 99.508C99.9867 99.508 99.5152 100.571 99.0899 102.209L98.7432 105.591C99.9374 99.4146 104.659 93.9964 107.354 92.6133C110.44 91.0293 110.554 87.6255 110.554 87.6255C113.8 82.4257 111.686 65.9811 110.85 60.4062Z" fill="#EAB892"/>
</g>
<g style="mix-blend-mode:multiply" opacity="0.7">
<path d="M64.9004 140.467C66.1717 137.91 68.5602 135.965 71.2753 135.275C71.6621 135.177 72.0982 135.074 72.3108 134.726C72.5913 134.267 72.354 133.565 72.7376 133.191C73.0505 132.887 73.5513 133.014 73.9781 132.955C74.7378 132.851 75.2525 132.144 75.7687 131.563C77.0523 130.12 78.8582 129.178 80.7505 128.965C81.0787 128.928 81.4285 128.904 81.6951 128.705C81.9078 128.545 82.0372 128.297 82.179 128.069C82.8292 127.023 83.8617 126.3 84.8756 125.622C86.5891 124.48 88.3319 123.383 90.104 122.339L89.7126 122.135C89.7126 122.135 85.324 123.515 80.1989 127.3C80.1989 127.3 71.3539 130.849 67.1856 133.796C63.0174 136.742 62.0158 139.426 62.9157 141.182C63.8156 142.939 64.9035 140.464 64.9035 140.464L64.9004 140.467Z" fill="#EAB892"/>
</g>
<g style="mix-blend-mode:multiply" opacity="0.7">
<path d="M53.9014 129.462C53.9014 129.462 56.8939 126.373 63.1393 126.837C69.3847 127.301 73.5468 128.089 77.0339 126.346C80.5211 124.604 84.996 123.112 84.996 123.112C84.996 123.112 90.0317 116.643 93.1814 116.053C93.1814 116.053 87.3258 118.293 84.2702 122.433L75.7365 125.881C75.7365 125.881 66.8083 124.413 59.7646 125.815C59.7646 125.815 54.3544 127.103 53.9014 129.461V129.462Z" fill="#EAB892"/>
</g>
<path d="M102.074 117.041C101.985 117.413 102.008 117.826 102.207 118.15C102.406 118.475 102.798 118.682 103.162 118.593C103.526 118.505 103.792 118.076 103.664 117.717" stroke="#A86436" stroke-width="0.226205" stroke-linecap="round" stroke-linejoin="round"/>
<path d="M83.5826 134.321C83.4162 133.919 83.7306 133.445 84.1281 133.292C84.5257 133.138 84.9695 133.214 85.3871 133.292" stroke="#A86436" stroke-width="0.226205" stroke-linecap="round" stroke-linejoin="round"/>
<path d="M108.75 88.2877C109.121 88.1627 109.493 88.0361 109.875 87.9523C110.927 87.7196 112.018 87.8098 113.091 87.9" stroke="#A86436" stroke-width="0.226205" stroke-linecap="round" stroke-linejoin="round"/>
<path d="M96.3121 128.103C96.3121 128.103 95.705 126.133 94.4014 125.378C94.4014 125.378 95.4369 121.4 97.7082 121.605C97.7082 121.605 98.266 121.81 98.7607 122.278C99.2692 122.759 99.4063 123.53 99.1197 124.175C98.6189 125.307 97.5803 127.34 96.3121 128.103Z" fill="#FEE2CC"/>
<path d="M62.8666 141.424C62.8666 141.424 66.0086 138.826 67.4401 138.973C67.4401 138.973 68.4093 139.073 68.1397 140.095L63.1239 142.671C63.1239 142.671 62.4875 142.111 62.8666 141.424Z" fill="#FEE2CC"/>
<path d="M53.5522 130.042C53.5522 130.042 53.5599 129.22 56.2689 129.141C58.9778 129.062 59.8022 129.326 59.9055 129.592C60.0087 129.858 60.0889 130.451 59.8639 130.491C59.6389 130.531 53.9005 130.491 53.9005 130.491C53.9005 130.491 53.4767 130.546 53.5507 130.043L53.5522 130.042Z" fill="#FEE2CC"/>
<path d="M70.9668 131.566L80.1924 127.316C80.1924 127.316 86.293 122.806 89.7385 122.137" stroke="#A86436" stroke-width="0.226205" stroke-linecap="round" stroke-linejoin="round"/>
<path d="M129.309 50.4058C128.417 49.4104 127.305 48.5496 126.1 47.8312C127.491 47.9261 128.884 47.8565 130.177 47.559C135.957 46.2282 137.858 42.4367 136.999 38.498C136.139 34.5594 132.844 31.9626 127.064 33.2934C125.778 33.5894 124.497 34.148 123.287 34.8616C124.064 33.6716 124.7 32.3978 125.096 31.0986C126.864 25.2943 124.617 21.7069 120.867 20.5011C117.114 19.2953 113.277 20.9284 111.51 26.7343C111.117 28.0271 110.948 29.445 110.944 30.8771C110.33 29.5922 109.573 28.3879 108.676 27.3878C104.665 22.9127 100.517 23.1169 97.6246 25.8513C94.7323 28.5857 94.1914 32.814 98.2025 37.2891C99.0947 38.2844 100.207 39.1453 101.412 39.8637C100.021 39.7687 98.6278 39.8384 97.3349 40.1358C91.5549 41.4667 89.6533 45.2582 90.5132 49.1968C91.373 53.1355 94.6675 55.7322 100.448 54.4014C101.734 54.1055 103.015 53.5469 104.224 52.8332C103.448 54.0232 102.811 55.2971 102.415 56.5962C100.648 62.4006 102.895 65.9879 106.645 67.1937C110.397 68.3995 114.234 66.7665 116.002 60.9606C116.395 59.6677 116.564 58.2499 116.567 56.8194C117.182 58.1043 117.939 59.3085 118.836 60.3086C122.847 64.7837 126.995 64.5796 129.887 61.8451C132.78 59.1107 133.32 54.8825 129.309 50.4074V50.4058Z" fill="white"/>
<g opacity="0.34">
<path opacity="0.34" d="M118.633 30.3218C117.898 32.8774 115.945 38.1706 115.458 38.0219C114.971 37.8731 116.135 32.3425 116.87 29.7869C117.605 27.2313 118.597 25.2786 119.084 25.4258C119.571 25.5729 119.369 27.7662 118.634 30.3218H118.633Z" fill="#F49C95"/>
<path opacity="0.34" d="M108.701 58.1641C109.436 55.6085 111.389 50.3153 111.876 50.464C112.363 50.6112 111.199 56.1433 110.464 58.6989C109.729 61.2546 108.737 63.2073 108.25 63.0601C107.763 62.9129 107.965 60.7197 108.7 58.1641H108.701Z" fill="#F49C95"/>
<path opacity="0.34" d="M127.962 42.1397C125.421 42.6857 119.958 43.4262 119.853 42.9151C119.748 42.404 125.045 40.8374 127.586 40.2915C130.127 39.7455 132.27 39.7186 132.373 40.2282C132.476 40.7377 130.501 41.5938 127.962 42.1397Z" fill="#F49C95"/>
<path opacity="0.34" d="M99.3775 46.3475C101.918 45.8016 107.381 45.061 107.486 45.5721C107.589 46.0817 102.294 47.6499 99.7535 48.1958C97.2125 48.7417 95.069 48.7686 94.9658 48.2591C94.8625 47.7495 96.838 46.8935 99.3775 46.3475Z" fill="#F49C95"/>
<path opacity="0.34" d="M122.64 55.8607C120.9 53.8827 117.524 49.4108 117.9 49.0611C118.278 48.7114 122.266 52.6168 124.004 54.5964C125.743 56.5744 126.848 58.4623 126.471 58.8104C126.093 59.1585 124.378 57.8388 122.64 55.8607Z" fill="#F49C95"/>
<path opacity="0.34" d="M104.699 32.6288C106.438 34.6068 109.815 39.0788 109.439 39.4285C109.061 39.7782 105.073 35.8728 103.335 33.8932C101.595 31.9151 100.49 30.0273 100.868 29.6792C101.245 29.3294 102.961 30.6508 104.699 32.6288Z" fill="#F49C95"/>
</g>
<path d="M111.033 46.3661C111.693 46.3661 112.228 45.8163 112.228 45.1381C112.228 44.4599 111.693 43.9102 111.033 43.9102C110.372 43.9102 109.837 44.4599 109.837 45.1381C109.837 45.8163 110.372 46.3661 111.033 46.3661Z" fill="#FFD066"/>
<path d="M114.212 43.2294C114.873 43.2294 115.408 42.6796 115.408 42.0014C115.408 41.3232 114.873 40.7734 114.212 40.7734C113.552 40.7734 113.017 41.3232 113.017 42.0014C113.017 42.6796 113.552 43.2294 114.212 43.2294Z" fill="#FFD066"/>
<path d="M115.64 47.4852C116.301 47.4852 116.836 46.9354 116.836 46.2573C116.836 45.5791 116.301 45.0293 115.64 45.0293C114.98 45.0293 114.444 45.5791 114.444 46.2573C114.444 46.9354 114.98 47.4852 115.64 47.4852Z" fill="#FFD066"/>
<path d="M18.0653 89.0237C21.9716 92.3627 21.7097 96.1621 21.383 98.0578C21.1919 99.1671 20.3228 100.007 19.2334 100.137C17.3704 100.36 14.1329 99.9963 10.6488 96.1984C5.23857 90.3007 5.97514 78.3281 5.97514 78.3281C5.97514 78.3281 12.0865 83.9125 18.0669 89.0237H18.0653Z" fill="#00DC86"/>
<path d="M20.785 99.314C20.785 99.314 19.0144 99.4058 17.4211 98.4405C14.4502 96.6397 12.5841 93.5588 13.2036 91.8592C13.447 91.1915 15.139 97.5844 20.7834 99.314H20.785Z" fill="#0088C7"/>
<path d="M33.9567 136.149C38.1727 134.132 38.806 130.708 38.9478 128.951C39.031 127.924 38.4531 126.971 37.5178 126.595C35.9198 125.951 32.9735 125.495 29.0257 128.021C22.8973 131.942 20.8232 142.713 20.8232 142.713C20.8232 142.713 27.5017 139.238 33.9567 136.151V136.149Z" fill="#00DC86"/>
<path d="M38.7066 127.696C38.7066 127.696 37.1595 127.19 35.5323 127.663C32.4936 128.544 30.1406 130.823 30.3039 132.475C30.3671 133.124 33.318 127.873 38.7082 127.696H38.7066Z" fill="#009CD8"/>
<path d="M135.537 60.8289C132.17 57.4916 132.646 54.0594 133.064 52.3615C133.308 51.3686 134.156 50.6718 135.163 50.6382C136.882 50.5803 139.822 51.1606 142.775 54.8831C147.358 60.6623 145.938 71.4868 145.938 71.4868C145.938 71.4868 140.692 65.9384 135.536 60.8304L135.537 60.8289Z" fill="#00DC86"/>
<path d="M133.736 51.2736C133.736 51.2736 135.361 51.3275 136.755 52.3267C139.359 54.1906 140.873 57.1299 140.199 58.6224C139.936 59.2089 138.788 53.2802 133.734 51.2731L133.736 51.2736Z" fill="#009CD8"/>
<path d="M121.808 108.478C121.697 103.713 124.412 101.579 125.885 100.651C126.747 100.109 127.837 100.203 128.583 100.886C129.857 102.052 131.566 104.535 131.113 109.286C130.409 116.662 121.908 123.449 121.908 123.449C121.908 123.449 121.977 115.774 121.807 108.479L121.808 108.478Z" fill="#00DC86"/>
<path d="M127.047 100.296C127.047 100.296 128.18 101.48 128.491 103.182C129.072 106.361 128.124 109.548 126.604 110.151C126.007 110.388 129.293 105.302 127.047 100.295L127.047 100.296Z" fill="#009CD8"/>
<path d="M59.6805 106.581C55.7258 109.063 52.5832 107.706 51.0714 106.854C50.1873 106.356 49.7258 105.334 49.9301 104.327C50.2788 102.605 51.5191 99.8368 55.7418 97.8653C62.2973 94.8054 72.2275 99.0039 72.2275 99.0039C72.2275 99.0039 65.7352 102.781 59.6818 106.582L59.6805 106.581Z" fill="#00DC86"/>
<path d="M50.1771 105.986C50.1771 105.986 50.6108 104.382 51.889 103.254C54.2743 101.146 57.426 100.398 58.6869 101.454C59.1826 101.868 53.2742 101.478 50.1762 105.987L50.1771 105.986Z" fill="#009CD8"/>
<path d="M101.372 60.7244C105.894 59.5998 107.143 56.3812 107.604 54.6934C107.874 53.7067 107.479 52.6599 106.626 52.1041C105.17 51.1538 102.351 50.1168 98.0009 51.7916C91.2478 54.3921 87.2362 64.5001 87.2362 64.5001C87.2362 64.5001 94.4495 62.4461 101.372 60.7259L101.372 60.7244Z" fill="#00DC86"/>
<path d="M107.591 53.3825C107.591 53.3825 106.161 52.5784 104.474 52.7136C101.323 52.9641 98.5918 54.7149 98.4509 56.359C98.3946 57.0045 102.257 52.475 107.592 53.3828L107.591 53.3825Z" fill="#009CD8"/>
<path d="M17.5782 28.2356C18.2038 32.9587 15.7367 35.3793 14.3722 36.4638C13.5746 37.0982 12.4803 37.1247 11.6652 36.5286C10.2722 35.5107 8.30413 33.2328 8.24036 28.4613C8.14206 21.0539 15.8581 13.3695 15.8581 13.3695C15.8581 13.3695 16.6201 21.0042 17.5795 28.2347L17.5782 28.2356Z" fill="#00DC86"/>
<path d="M13.2417 36.9495C13.2417 36.9495 11.9877 35.8987 11.495 34.2416C10.573 31.1483 11.1703 27.8772 12.6158 27.1109C13.183 26.8092 10.4684 32.2245 13.2425 36.9508L13.2417 36.9495Z" fill="#009CD8"/>
<path d="M102.204 22.5226C106.159 25.0046 109.302 23.6476 110.813 22.7952C111.697 22.297 112.159 21.2757 111.955 20.2682C111.606 18.5467 110.366 15.7782 106.143 13.8067C99.5874 10.7468 89.6573 14.9453 89.6573 14.9453C89.6573 14.9453 96.1496 18.7224 102.203 22.5234L102.204 22.5226Z" fill="#00DC86"/>
<path d="M111.708 21.927C111.708 21.927 111.274 20.3237 109.996 19.1953C107.61 17.0869 104.459 16.3398 103.198 17.3958C102.702 17.8098 108.611 17.4194 111.709 21.9283L111.708 21.927Z" fill="#009CD8"/>
<path d="M114.088 124.295L114.431 125.512C115.206 128.268 117.121 130.593 119.727 131.94C117.121 133.286 115.204 135.611 114.431 138.367L114.088 139.584L113.746 138.367C112.971 135.611 111.056 133.286 108.45 131.94C111.056 130.593 112.973 128.268 113.746 125.512L114.088 124.295Z" fill="url(#paint1_linear_1911_5010)" stroke="#C69024" stroke-width="0.226205" stroke-linecap="round" stroke-linejoin="round"/>
<defs>
<linearGradient id="paint0_linear_1911_5010" x1="52.7785" y1="-1.37582" x2="106.294" y2="189.845" gradientUnits="userSpaceOnUse">
<stop stop-color="#0088C3"/>
<stop offset="1" stop-color="#0F1F42"/>
</linearGradient>
<linearGradient id="paint1_linear_1911_5010" x1="129.795" y1="154.624" x2="93.3842" y2="104.761" gradientUnits="userSpaceOnUse">
<stop offset="0.3" stop-color="white"/>
<stop offset="0.46" stop-color="#FFCE4E"/>
<stop offset="0.94" stop-color="#C69024"/>
</linearGradient>
</defs>
</svg>
