<svg width="172" height="157" viewBox="0 0 172 157" fill="none" xmlns="http://www.w3.org/2000/svg">
<path d="M97.323 166.48C139.247 166.48 173.233 132.494 173.233 90.5701C173.233 48.6462 139.247 14.6602 97.323 14.6602C55.3991 14.6602 21.4131 48.6462 21.4131 90.5701C21.4131 132.494 55.3991 166.48 97.323 166.48Z" fill="url(#paint0_linear_1911_5316)"/>
<path d="M105.359 91.3789H76.4053V135.435H105.359V91.3789Z" fill="url(#paint1_linear_1911_5316)" stroke="#264F85" stroke-width="0.41593" stroke-miterlimit="10"/>
<path d="M83.4574 108.231C87.1189 107.078 83.6517 103.413 81.7608 106.087C82.5432 104.435 82.3324 102.73 80.8532 102.522C80.7841 102.512 80.7182 102.506 80.6556 102.499C78.6527 102.331 78.2738 104.143 78.7136 105.909C75.3287 100.885 72.3557 109.236 77.3465 109.3C72.3952 110.572 75.2777 116.363 79.0233 112.44C78.7284 113.696 79.7217 115.111 80.9521 115.187C82.3834 115.434 84.1014 112.838 82.5976 111.962C85.9939 113.388 87.2985 107.301 83.4574 108.231Z" fill="url(#paint2_linear_1911_5316)"/>
<path d="M82.5892 72.2991C82.6041 74.6347 82.5793 76.972 82.5151 79.306C82.4608 81.2628 82.3702 83.2558 81.6899 85.0907C81.0096 86.9256 80.3705 87.7772 78.4961 88.3356C78.4961 88.3356 82.0523 104.334 90.4181 103.886C98.4001 103.458 98.1316 88.5777 98.1316 88.5777C98.1316 88.5777 93.2297 87.0442 94.8242 62.123C94.0615 62.6666 93.4735 63.7471 93.4735 63.7471L92.3007 65.643C89.7526 68.3624 86.7054 70.5663 83.3239 72.1343L82.5233 72.505" fill="#FEE2CC"/>
<path d="M82.6681 72.2993C82.6632 74.9232 82.7142 78.5551 82.6138 81.1395C82.5396 82.6235 82.2876 84.1175 81.7062 85.4929C81.4245 86.1764 81.0737 86.8715 80.512 87.3986C79.9602 87.9257 79.2355 88.2106 78.5173 88.4099L78.5717 88.3177C79.7939 93.1158 81.973 99.174 85.9459 102.328C88.2321 104.147 91.5923 104.423 93.8555 102.419C95.104 101.338 95.9128 99.8411 96.4942 98.3142C97.6324 95.2143 98.0244 91.8656 98.0524 88.5779L98.1067 88.6521C98.0211 88.6224 97.9684 88.5779 97.9008 88.5401C97.7279 88.4215 97.5566 88.2535 97.4182 88.0937C96.8533 87.4447 96.4991 86.631 96.1796 85.8404C95.608 84.2361 95.2424 82.5395 95.0118 80.8545C94.6873 78.6737 94.5489 76.2574 94.4682 74.0518C94.404 71.5482 94.4468 68.8798 94.5259 66.3762C94.5604 65.7074 94.707 62.82 94.7433 62.1183L94.8668 62.1875C94.5819 62.3951 94.3348 62.6569 94.1124 62.937C93.6924 63.4706 92.7535 65.0815 92.3665 65.6844C89.624 68.6344 86.2408 70.9635 82.5561 72.5777L82.4902 72.436C86.1403 70.8498 89.5597 68.473 92.233 65.6037L93.3778 63.7539C93.7468 63.1214 94.18 62.5054 94.7779 62.0623L94.9096 61.9668L94.9014 62.1315C94.8635 62.8315 94.7153 65.775 94.684 66.3861C94.5703 70.0345 94.5209 73.8114 94.8042 77.4515C94.9755 79.6818 95.2506 82.0092 95.8255 84.1686C96.1038 85.259 96.4827 86.3378 97.0493 87.3146C97.2255 87.6127 97.4364 87.8993 97.6768 88.148C97.8251 88.3012 98.0096 88.4594 98.2089 88.5269C98.1858 91.8607 97.7938 95.2324 96.6408 98.3768C96.0495 99.9267 95.2292 101.445 93.9576 102.546C91.6335 104.596 88.2009 104.326 85.8504 102.46C81.8396 99.2777 79.6506 93.1965 78.4169 88.3589L78.4004 88.2897L78.4712 88.265C79.163 88.0393 79.8334 87.7264 80.3341 87.2207C82.5462 84.6627 82.2975 79.9502 82.4161 76.7169L82.51 72.3042H82.6665L82.6681 72.2993Z" fill="#C69024"/>
<path d="M102.599 144.955C103.435 150.067 105.942 154.51 106.323 159.668C139.414 156.82 147.368 148.785 134.561 126.191C132.985 123.411 128.854 115.393 127.322 111.953C114.223 87.612 121.437 87.9728 94.8242 86.0703C94.8242 86.0703 100.899 89.7863 98.6143 103.644C96.3297 117.501 93.1523 149.658 93.1523 149.658L102.6 144.954L102.599 144.955Z" fill="url(#paint3_linear_1911_5316)"/>
<path d="M81.6451 118.952L79.624 120.034L83.0353 126.119L79.624 135.942C65.7864 158.684 50.8683 163.291 46.5479 147.472C44.2567 139.085 48.4932 134.535 55.6747 119.075C57.2806 115.62 62.1249 101.777 63.3454 99.5041C66.246 94.1064 65.6069 88.5012 76.5406 87.4685C78.6144 87.2725 80.3636 85.79 81.6896 85.0488C80.2253 87.905 79.4116 91.0098 79.3062 94.169C79.1414 99.1187 78.8482 103.192 79.8415 108.782L81.6451 118.95V118.952Z" fill="url(#paint4_linear_1911_5316)"/>
<path d="M79.1526 86.4648C75.5602 89.293 71.1014 93.8621 68.6735 97.7362C68.545 97.9421 68.4133 98.1941 68.5121 98.4165C68.5829 98.5729 68.7476 98.6619 68.8992 98.7426C70.6138 99.6502 72.1012 100.981 73.1916 102.585C73.2904 102.73 73.3893 102.89 73.3794 103.065C73.3646 103.315 73.1405 103.493 72.9363 103.641C71.2776 104.849 69.8133 106.324 68.6175 107.991C72.2083 111.966 74.4418 116.347 76.4052 121.216" stroke="#0088C7" stroke-width="0.41593" stroke-miterlimit="10"/>
<path d="M67.4136 104.137C67.4136 104.137 66.4879 109.282 66.4336 127.399" stroke="#0088C7" stroke-width="0.41593" stroke-miterlimit="10"/>
<path d="M55.2051 133.672L79.6239 120.035" stroke="#0088C3" stroke-width="0.402795" stroke-miterlimit="10"/>
<path d="M97.7627 83.3164C103.187 86.9253 107.878 91.6295 111.473 97.0618C111.719 97.4324 111.969 97.8507 111.903 98.2905C111.852 98.6364 111.612 98.9214 111.383 99.1866C110.131 100.626 108.879 102.066 107.626 103.505C108.861 104.456 109.983 105.556 110.958 106.772C111.149 107.01 111.342 107.267 111.386 107.571C111.442 107.954 111.248 108.327 111.06 108.667C107.43 115.208 103.15 121.551 101.33 128.807" fill="white"/>
<path d="M97.7627 83.3164C103.187 86.9253 107.878 91.6295 111.473 97.0618C111.719 97.4324 111.969 97.8507 111.903 98.2905C111.852 98.6364 111.612 98.9214 111.383 99.1866C110.131 100.626 108.879 102.066 107.626 103.505C108.861 104.456 109.983 105.556 110.958 106.772C111.149 107.01 111.342 107.267 111.386 107.571C111.442 107.954 111.248 108.327 111.06 108.667C107.43 115.208 103.15 121.551 101.33 128.807" stroke="#009EDE" stroke-width="0.402795" stroke-miterlimit="10"/>
<path d="M164.127 151.021L134.723 167.984V133.831L164.127 116.867V151.021Z" fill="#FFD066"/>
<path d="M154.713 125.434L154.335 125.312L154.704 130.002L154.683 129.989L141.563 137.149L142.506 137.755C142.738 137.773 142.972 137.722 143.176 137.607L155.044 130.896C155.418 130.685 155.645 130.287 155.638 129.859L155.526 126.494C155.526 126.461 155.525 126.428 155.521 126.395C155.475 125.943 155.142 125.573 154.711 125.433L154.713 125.434Z" fill="#0B1E44"/>
<path d="M164.127 151.021L167.293 153.056V118.903L164.127 116.867V151.021Z" fill="#C69024" stroke="#F0F4F8" stroke-width="0.437821" stroke-miterlimit="10"/>
<path d="M164.127 151.021L134.723 167.985L137.888 169.796L167.293 153.057L164.127 151.021Z" fill="#A37624" stroke="#F0F4F8" stroke-width="0.437821" stroke-miterlimit="10"/>
<path d="M156.735 132.398L157.133 147.343L157.059 147.293L139.079 157.698L141.169 158.532C141.563 158.688 142.006 158.66 142.375 158.453L158.754 149.28C159.197 149.031 159.472 148.563 159.472 148.054V134.907C159.472 134.423 159.222 133.971 158.812 133.716L156.736 132.398H156.735Z" fill="#0B1E44" stroke="#F0F4F8" stroke-width="0.437821" stroke-miterlimit="10"/>
<path d="M156.977 132.754C156.975 132.457 156.654 132.274 156.397 132.422L154.692 133.406C154.315 133.623 153.846 133.347 153.852 132.912L153.907 130.673C153.91 130.538 153.982 130.415 154.099 130.349L154.518 130.108C154.641 130.037 154.715 129.904 154.71 129.762L154.592 125.612C154.584 125.32 154.266 125.142 154.012 125.289L141.833 132.314C141.459 132.53 141.235 132.936 141.255 133.37L141.412 136.817C141.428 137.196 141.841 137.422 142.169 137.232C142.426 137.084 142.749 137.27 142.749 137.566V138.774C142.749 139.622 142.296 140.405 141.563 140.828L140.644 141.51C140.634 141.516 140.626 141.523 140.616 141.528C139.511 142.172 138.839 143.363 138.857 144.644L139.041 157.044C139.046 157.339 139.366 157.52 139.621 157.373L156.89 147.41C157.01 147.341 157.084 147.212 157.082 147.072L156.974 132.755L156.977 132.754Z" fill="#F0F4F8" stroke="white" stroke-width="0.41593" stroke-miterlimit="10"/>
<path d="M112.259 123.129L112.438 123.383C112.59 123.6 112.889 123.652 113.106 123.5L164.608 87.2764C164.825 87.1241 164.877 86.8251 164.724 86.6086L164.545 86.354C164.393 86.1374 164.094 86.0854 163.878 86.2377L112.375 122.461C112.159 122.613 112.107 122.912 112.259 123.129Z" fill="url(#paint5_linear_1911_5316)" stroke="white" stroke-width="0.41593" stroke-miterlimit="10"/>
<path d="M114.229 126.387L129.612 115.571C133.048 113.023 136.22 108.799 135.064 107.155C133.908 105.512 128.754 107.35 125.427 109.62L110.044 120.436L114.229 126.387Z" fill="url(#paint6_linear_1911_5316)" stroke="white" stroke-width="0.41593" stroke-miterlimit="10"/>
<path d="M65.6084 134.714L85.7661 163.377L124.764 135.952L124.752 135.936C124.818 135.905 124.882 135.868 124.943 135.827C127.103 134.309 135.119 120.146 128.587 110.857C121.598 100.918 106.947 105.645 104.787 107.164C104.728 107.207 104.672 107.254 104.619 107.305L104.608 107.289L65.61 134.714H65.6084Z" fill="url(#paint7_linear_1911_5316)" stroke="white" stroke-width="0.41593" stroke-miterlimit="10"/>
<path d="M65.6084 134.713L85.7661 163.376L124.764 135.951L124.752 135.935C124.818 135.904 124.882 135.867 124.943 135.826C126.804 134.517 132.797 123.548 130.384 114.799L92.3974 115.874L65.6084 134.713Z" fill="url(#paint8_linear_1911_5316)" stroke="white" stroke-width="0.41593" stroke-miterlimit="10"/>
<path d="M85.6578 163.361L88.5881 161.301L88.5535 161.253C90.1627 159.258 87.4087 151.971 82.1099 144.437C76.811 136.903 70.8846 131.847 68.4633 132.687L65.543 134.762L85.6562 163.361H85.6578Z" fill="#0088C3" stroke="white" stroke-width="0.41593" stroke-miterlimit="10"/>
<path d="M85.7708 163.365C87.9301 161.846 85.1679 154.199 79.6012 146.284C74.0344 138.37 67.7713 133.185 65.6119 134.703C63.4526 136.222 66.2149 143.869 71.7816 151.784C77.3483 159.699 83.6115 164.884 85.7708 163.365Z" fill="url(#paint9_linear_1911_5316)"/>
<path d="M127.268 129.431C127.437 127.322 127.238 124.856 126.258 122.334L83.3945 152.477C84.592 154.745 85.4633 156.83 85.9509 158.566L127.268 129.431Z" fill="url(#paint10_linear_1911_5316)" stroke="white" stroke-width="0.41593" stroke-miterlimit="10"/>
<path d="M88.5743 156.803C88.0769 155.065 87.1989 152.985 86.0015 150.727L83.4336 152.532C84.6311 154.8 85.5024 156.885 85.9899 158.621L88.576 156.803H88.5743Z" fill="#264F85" stroke="white" stroke-width="0.41593" stroke-miterlimit="10"/>
<path d="M111.068 106.85C113.111 107.403 115.405 108.429 117.657 110.103L74.7934 140.245C73.0639 138.351 71.3953 136.826 69.9277 135.782L111.068 106.85Z" fill="#BEF5FF" stroke="white" stroke-width="0.41593" stroke-miterlimit="10"/>
<path d="M75.4603 139.685L110.207 115.342L98.3539 115.777L71.751 134.409L75.4603 139.685Z" fill="url(#paint11_linear_1911_5316)" stroke="white" stroke-width="0.41593" stroke-miterlimit="10"/>
<path d="M72.4737 133.908C73.9397 134.964 75.6016 136.493 77.3212 138.385L74.7533 140.19C73.0238 138.296 71.3553 136.771 69.8877 135.727L72.4737 133.908Z" fill="#6DD2F2" stroke="white" stroke-width="0.41593" stroke-miterlimit="10"/>
<path d="M76.8209 151.251L85.9888 158.62C85.9888 158.62 85.5787 155.8 83.4325 152.53L75.6201 149.088L76.0978 149.767C76.4157 150.219 76.6595 150.72 76.8209 151.251Z" fill="url(#paint12_linear_1911_5316)"/>
<path d="M100.851 127.942C101.816 127.942 102.599 127.16 102.599 126.195C102.599 125.23 101.816 124.447 100.851 124.447C99.886 124.447 99.1035 125.23 99.1035 126.195C99.1035 127.16 99.886 127.942 100.851 127.942Z" fill="#F5CCFF" stroke="white" stroke-width="0.41593" stroke-miterlimit="10"/>
<path d="M113.162 128.888C114.347 128.888 115.308 127.927 115.308 126.742C115.308 125.557 114.347 124.596 113.162 124.596C111.977 124.596 111.016 125.557 111.016 126.742C111.016 127.927 111.977 128.888 113.162 128.888Z" fill="#F5CCFF" stroke="white" stroke-width="0.41593" stroke-miterlimit="10"/>
<path d="M92.0804 143.333C93.0637 143.333 93.8609 142.535 93.8609 141.552C93.8609 140.569 93.0637 139.771 92.0804 139.771C91.097 139.771 90.2998 140.569 90.2998 141.552C90.2998 142.535 91.097 143.333 92.0804 143.333Z" fill="#DE97FF" stroke="white" stroke-width="0.41593" stroke-miterlimit="10"/>
<path d="M124.718 135.901C124.783 135.869 124.848 135.833 124.909 135.792C127.068 134.273 135.085 120.111 128.552 110.821C121.563 100.883 106.912 105.61 104.753 107.129C104.693 107.171 104.637 107.219 104.585 107.27L104.573 107.254L104.125 107.568C109.468 104.763 117.632 108.211 122.899 115.702C128.465 123.616 128.69 133.05 123.401 136.769" fill="#8FEAFF"/>
<path d="M124.718 135.901C124.783 135.869 124.848 135.833 124.909 135.792C127.068 134.273 135.085 120.111 128.552 110.821C121.563 100.883 106.912 105.61 104.753 107.129C104.693 107.171 104.637 107.219 104.585 107.27L104.573 107.254L104.125 107.568C109.468 104.763 117.632 108.211 122.899 115.702C128.465 123.616 128.69 133.05 123.401 136.769" stroke="white" stroke-width="0.41593" stroke-miterlimit="10"/>
<path d="M130.44 114.799L122.463 115.024C122.629 115.247 122.794 115.473 122.955 115.703C128.521 123.618 128.747 133.051 123.458 136.77L124.774 135.902C124.84 135.871 124.904 135.834 124.965 135.793C125.421 135.472 126.141 134.584 126.928 133.298C129.294 129.274 132.262 121.405 130.442 114.799H130.44Z" fill="#C46EE5" stroke="white" stroke-width="0.41593" stroke-miterlimit="10"/>
<path d="M126.262 108.137L126.255 108.131C118.291 103.096 111.016 106.798 111.016 106.798L111.245 106.912C113.364 107.432 115.549 108.5 117.614 110.045C120.655 107.915 126.197 108.136 126.262 108.137Z" fill="#E9FCFF" stroke="white" stroke-width="0.41593" stroke-miterlimit="10"/>
<path d="M126.33 122.31C127.136 124.79 127.45 127.23 127.266 129.432C129.982 126.388 130.891 123.646 131.034 118.678C130.998 117.362 130.825 116.057 130.479 114.799C130.479 114.799 131.034 118.678 126.33 122.31Z" fill="url(#paint13_linear_1911_5316)" stroke="white" stroke-width="0.41593" stroke-miterlimit="10"/>
<path d="M65.869 160.396L76.9031 152.637C77.3512 152.322 76.778 150.733 75.6217 149.09C74.4654 147.446 73.1658 146.371 72.7178 146.686L61.6836 154.445L65.869 160.396Z" fill="#6DD2F2" stroke="white" stroke-width="0.41593" stroke-miterlimit="10"/>
<path d="M65.1903 159.43L76.8207 151.251C76.5802 150.628 76.1668 149.865 75.6216 149.088L63.7754 157.417L65.1903 159.429V159.43Z" fill="#009CD8" stroke="white" stroke-width="0.41593" stroke-miterlimit="10"/>
<path d="M69.9015 174.441L72.7972 172.331C74.4064 170.336 71.6524 163.05 66.3536 155.516C61.0547 147.982 55.1283 142.925 52.707 143.765L49.7422 145.778L69.8999 174.441H69.9015Z" fill="#0088C3" stroke="white" stroke-width="0.41593" stroke-miterlimit="10"/>
<path d="M69.9085 174.43C72.0678 172.911 69.3056 165.264 63.7389 157.349C58.1721 149.434 51.9089 144.249 49.7496 145.768C47.5903 147.286 50.3526 154.934 55.9193 162.849C61.486 170.763 67.7492 175.948 69.9085 174.43Z" fill="#00A8E1" stroke="white" stroke-width="0.41593" stroke-miterlimit="10"/>
<path d="M57.3126 145.719C58.7785 146.775 60.4405 148.303 62.1601 150.196L59.5922 152.001C57.8627 150.107 56.1942 148.581 54.7266 147.537L57.3126 145.719Z" fill="#6DD2F2" stroke="white" stroke-width="0.41593" stroke-miterlimit="10"/>
<path d="M82.6445 72.5047L82.7104 72.4734C82.7104 72.4158 82.7104 72.3565 82.7104 72.2988L82.6445 72.5047Z" fill="#F9CCA7"/>
<path d="M94.9437 62.123C94.1811 62.6666 93.593 63.7471 93.593 63.7471L92.4203 65.643C89.8722 68.3624 86.825 70.5663 83.4434 72.1343L82.7104 72.4753C82.7219 74.4074 82.689 78.7097 82.6445 80.6418C83.2013 80.5529 87.9648 79.0358 90.3465 75.6987C92.8238 72.2282 94.1448 67.7447 94.7246 66.3792C94.7757 64.7782 94.8251 63.9728 94.9437 62.123Z" fill="url(#paint14_linear_1911_5316)"/>
<path d="M88.6617 159.359C91.218 158.281 94.8977 153.961 94.1285 153.783C91.4486 153.164 81.7816 157.224 79.0259 156.97C78.5005 156.923 77.9586 156.876 77.4546 157.016C76.9505 157.156 76.5701 157.697 76.5371 158.16C77.028 158.858 79.2746 160.128 79.6271 160.192" fill="url(#paint15_linear_1911_5316)"/>
<path d="M103.853 147.546C100.588 148.463 96.9615 148.002 94.0296 146.299C93.0578 145.734 92.137 145.029 91.0466 144.751C89.8755 144.453 88.6451 144.68 87.4377 144.705C85.84 144.736 82.3646 144.387 81.0518 143.476C80.9497 143.405 80.8344 143.328 80.7125 143.352C80.6021 143.374 80.5264 143.473 80.4704 143.568C80.0174 144.342 80.2447 145.373 80.7998 146.077C81.3549 146.78 84.0265 147.185 84.8254 147.589C87.6453 149.015 85.4085 151.927 84.6294 152.698L84.6244 152.703C83.1321 154.179 81.7238 155.072 79.7489 154.856C77.3672 154.596 75.2736 154.116 72.8408 154.479C73.7286 154.347 73.6051 155.803 75.0628 155.899C75.0628 156.373 75.0463 156.413 75.2506 156.925C75.3247 157.111 75.5438 157.371 76.0659 157.745C76.7248 158.216 77.4643 158.565 78.2418 158.794C80.5906 159.486 80.8904 159.949 82.241 159.964C84.3527 159.987 86.4758 159.432 88.4837 158.9C88.9202 158.784 89.36 158.666 89.7569 158.45C90.0929 158.267 90.3878 158.02 90.6925 157.788C92.6905 156.258 95.1052 155.324 97.5825 154.882C100.06 154.441 102.605 154.482 105.103 154.769L103.855 147.544L103.853 147.546Z" fill="#BEF5FF"/>
<path d="M65.869 160.322L76.9031 152.562C77.3512 152.248 76.778 150.658 75.6217 149.016C74.4654 147.372 73.1658 146.297 72.7178 146.611L61.6836 154.371L65.869 160.322Z" fill="url(#paint16_linear_1911_5316)"/>
<path d="M65.1903 159.358L76.8207 151.178C76.5802 150.556 76.1668 149.793 75.6216 149.016L63.7754 157.345L65.1903 159.356V159.358Z" fill="#264F85"/>
<path d="M69.9005 174.365L72.7962 172.255C74.4054 170.26 71.6514 162.973 66.3526 155.439C61.0538 147.905 55.1273 142.849 52.7061 143.689L49.7412 145.701L69.8989 174.365H69.9005Z" fill="#0088C3"/>
<path d="M69.9075 174.357C72.0668 172.839 69.3046 165.191 63.7379 157.277C58.1712 149.362 51.908 144.177 49.7487 145.695C47.5893 147.214 50.3516 154.862 55.9183 162.776C61.485 170.691 67.7482 175.876 69.9075 174.357Z" fill="url(#paint17_linear_1911_5316)"/>
<path d="M57.3116 145.645C58.7775 146.7 60.4395 148.229 62.1591 150.121L59.5912 151.927C57.8617 150.033 56.1932 148.507 54.7256 147.463L57.3116 145.645Z" fill="#6DD2F2"/>
<path d="M79.624 119.994C79.624 119.994 85.5191 117.049 88.9188 112.699C88.9188 112.699 90.3469 111.951 96.3293 109.98C102.312 108.008 104.04 107.066 105.907 106.107C105.907 106.107 106.798 106.852 105.235 108.143C105.235 108.143 107.354 107.707 107.887 107.328C107.887 107.328 108.907 108.891 104.964 110.523C104.964 110.523 98.2334 113.854 96.1942 115.147C96.1942 115.147 98.2334 115.555 99.253 115.555C100.273 115.555 101.088 116.236 102.653 116.643C104.217 117.049 102.857 118.206 101.09 118.001C99.3221 117.797 97.8941 117.117 96.3309 117.254C94.7678 117.39 92.1917 119.021 90.9975 119.634C89.8033 120.245 85.4368 121.269 81.4392 123.498L79.6257 119.994H79.624Z" fill="url(#paint18_linear_1911_5316)"/>
<path d="M79.624 119.995C79.624 119.995 86.3839 116.012 88.7376 112.947C88.8628 112.785 89.0275 112.66 89.2186 112.589C90.3271 112.179 94.0398 110.581 97.2467 109.631C97.6075 109.524 97.9616 109.4 98.3108 109.262C101.636 107.936 104.553 106.944 105.906 106.109" stroke="#0088C7" stroke-width="0.41593" stroke-miterlimit="10"/>
<path d="M106.321 159.668L103.299 145.443C103.299 145.443 116.478 137.743 127.321 135.434" fill="url(#paint19_linear_1911_5316)"/>
<path d="M103.539 146.554C100.275 147.471 97.7198 147.471 94.0286 146.295C92.9563 145.954 92.136 145.025 91.0456 144.747C89.8745 144.449 88.6441 144.676 87.4368 144.701C85.839 144.732 82.3636 144.383 81.0508 143.472C80.9487 143.401 80.8334 143.324 80.7115 143.348C80.6011 143.37 80.5254 143.469 80.4694 143.564C80.0164 144.338 80.2437 145.369 80.7988 146.073C81.3539 146.776 84.0255 147.181 84.8244 147.585C87.6443 149.011 85.4075 151.923 84.6284 152.694L84.6234 152.699C83.1311 154.175 81.7228 155.068 79.7479 154.852C77.8356 154.643 76.1077 154.294 74.2432 154.351C73.6634 154.369 73.4163 155.101 73.8643 155.468C74.1295 155.686 74.487 155.857 75.0618 155.895C75.0618 156.369 75.0453 156.409 75.2496 156.921C75.3287 157.12 75.5757 157.407 76.1852 157.825C76.816 158.258 77.516 158.576 78.249 158.792C80.5913 159.484 80.8927 159.943 82.24 159.96C84.3517 159.983 86.4748 159.428 88.4827 158.896C88.9192 158.78 89.359 158.662 89.7559 158.446C90.0919 158.263 90.3868 158.016 90.6915 157.784C92.6895 156.254 95.1042 155.32 97.5815 154.878C100.059 154.437 102.859 154.582 105.359 154.869L103.541 146.55L103.539 146.554Z" fill="url(#paint20_linear_1911_5316)"/>
<path d="M103.229 113.75C100.913 113.426 98.8176 111.823 97.8985 109.672C96.9794 107.521 97.2693 104.899 98.6348 103.001C99.1537 102.28 99.8092 101.665 100.326 100.942C100.842 100.219 101.221 99.3313 101.069 98.455C100.914 97.5655 100.231 96.8424 99.4419 96.4027C98.6546 95.9612 97.7602 95.7553 96.8872 95.5264C94.3786 94.8675 91.7794 93.8661 90.2509 91.7709C89.2807 90.4417 88.8393 88.783 88.7536 87.1392C88.5494 83.2157 90.3942 79.2411 93.5221 76.866C93.6753 75.9255 94.5005 75.5038 95.4344 75.3144C96.3684 75.1249 97.3336 75.3242 98.2659 75.5301C98.956 75.6833 99.6511 75.8431 100.29 76.1462C100.732 76.3554 101.142 76.6337 101.501 76.9648C102.575 77.958 103.155 79.419 103.217 80.88C103.28 82.3411 102.856 83.7955 102.163 85.0835C101.911 85.5513 101.621 86.0076 101.484 86.5231C101.348 87.0387 101.395 87.6366 101.756 88.027C102.221 88.5293 102.998 88.5162 103.68 88.5804C106.767 88.8736 109.289 91.6391 109.784 94.6995C110.28 97.7599 108.99 100.932 106.866 103.189C105.564 104.569 103.948 105.679 102.934 107.282C102.445 108.055 102.11 108.923 101.957 109.824C101.85 110.449 101.832 111.103 102.023 111.709C102.298 112.582 102.351 113.488 103.227 113.75H103.229Z" fill="#FFD066"/>
<path d="M103.305 113.766C103.101 113.788 102.837 113.811 102.636 113.753C102.313 113.697 101.99 113.625 101.682 113.516C99.1095 112.689 97.1461 110.261 96.9353 107.547C96.7969 105.914 97.1906 104.21 98.1196 102.846C99.0502 101.381 101.198 99.978 100.396 98.0542C99.7469 96.7677 98.2069 96.3938 96.8925 96.0463C94.3723 95.3644 91.6891 94.3728 90.0437 92.2101C86.5221 87.4071 88.9895 79.794 93.445 76.8506C93.5784 75.9249 94.4992 75.4209 95.3409 75.2693C96.7525 74.9926 98.1904 75.4604 99.5476 75.8162C101.826 76.4618 103.231 78.725 103.242 81.0277C103.264 82.1675 102.992 83.2991 102.539 84.3401C102.223 85.1274 101.654 85.811 101.465 86.6461C101.259 87.5915 101.756 88.3558 102.725 88.4777C103.285 88.5683 103.86 88.5601 104.412 88.6984C106.65 89.1992 108.455 90.9682 109.328 93.0485C110.661 96.2637 109.561 100.016 107.409 102.61C106.334 103.941 104.927 104.939 103.797 106.214C102.671 107.463 101.921 109.111 101.944 110.808C101.949 111.376 102.17 111.908 102.307 112.45C102.384 112.72 102.473 112.987 102.624 113.211C102.715 113.354 102.84 113.465 102.979 113.555L103.068 113.6C103.105 113.62 103.15 113.636 103.191 113.661C103.244 113.694 103.28 113.738 103.308 113.765L103.305 113.766ZM103.152 113.733C103.114 113.737 103.084 113.756 103.069 113.765C103.045 113.776 103.023 113.751 102.997 113.741C102.796 113.641 102.616 113.485 102.498 113.295C102.333 113.045 102.246 112.763 102.17 112.49C102.035 111.935 101.817 111.391 101.819 110.813C101.801 108.428 103.224 106.468 104.945 104.961C105.777 104.19 106.648 103.455 107.362 102.574C109.511 99.9978 110.62 96.2654 109.302 93.06C108.437 90.9797 106.642 89.2107 104.408 88.7034C103.598 88.4711 102.661 88.6737 101.931 88.1862C100.9 87.3807 101.61 85.9872 102.142 85.0961C103.361 82.8939 103.69 79.9933 102.208 77.8372C101.185 76.2955 99.6069 75.8079 97.8742 75.49C97.0489 75.322 96.1941 75.1985 95.3656 75.3912C94.5766 75.5493 93.7118 76.0056 93.5982 76.8769C90.4604 79.4959 88.6914 83.6516 89.1657 87.6393C89.5248 90.8974 91.2856 92.9497 94.2834 94.1587C95.2025 94.5359 96.1628 94.8241 97.1461 95.0695C98.7274 95.4418 100.538 96.0002 101.33 97.5996C101.905 98.7015 101.556 100.062 100.908 101.022C100.043 102.3 98.8262 103.215 98.3008 104.676C96.843 108.281 98.8344 112.264 102.509 113.471L102.858 113.58C102.961 113.613 103.036 113.7 103.153 113.733H103.152Z" fill="#E5AE4C"/>
<path d="M92.4717 77.5287C92.8769 77.5419 93.2623 77.3772 93.6329 77.2141C94.4499 76.8567 95.2685 76.4992 96.0312 76.0397C96.3095 75.8717 96.5879 75.6823 96.7641 75.4088C97.1067 74.8752 96.9717 74.1784 96.8251 73.5607L96.5088 72.2266C95.2257 72.5395 93.903 73.1012 92.7879 73.8095C92.7501 73.8342 92.7138 73.8984 92.7566 73.9132C92.6479 75.1519 92.5787 76.29 92.4717 77.527V77.5287Z" fill="#264F85" stroke="#264F85" stroke-width="0.41593" stroke-miterlimit="10"/>
<path d="M95.1185 80.4203L94.5239 83.9106C94.0726 86.2627 93.5719 89.6722 96.2896 90.7808C97.0984 91.1184 97.9615 91.2354 98.8279 91.405C100.006 91.6043 101.185 92.0556 102.101 92.8479C105.097 95.3055 105.067 99.868 102.122 102.347L102.022 102.227C105.349 99.2915 104.507 93.935 100.435 92.194C98.8065 91.4956 96.848 91.7196 95.3557 90.6358C93.2787 89.0447 93.8305 86.0798 94.2719 83.8628L94.9653 80.3906L95.1202 80.4186L95.1185 80.4203Z" fill="#E5AE4C"/>
<path d="M76.4767 54.5368C76.7369 55.4592 76.6068 56.5463 76.0517 57.327C75.8228 57.6499 75.4966 57.892 75.2528 58.2049C74.6039 59.0334 74.6352 60.1881 74.6961 61.2373C74.874 64.268 75.0502 67.2988 75.2281 70.3279C75.2907 71.41 76.0138 72.3473 77.0499 72.6652C78.5241 73.1181 80.0575 73.4574 81.5597 73.4904C82.4146 73.5085 83.2711 73.469 84.1194 73.3635C87.6508 72.9205 92.0191 70.3147 94.2575 67.5475C94.9048 67.9 96.5124 68.4188 98.7394 66.1573C99.6717 65.2102 100.207 63.8283 99.8726 62.4562C99.6964 61.7331 99.1923 61.1154 98.4791 60.8997C97.3788 60.5669 96.4383 61.3394 95.6675 62.0741C96.4647 61.178 97.1351 60.0234 97.6226 58.928C98.8184 56.2399 98.3935 52.9983 96.911 50.4552C95.4303 47.912 92.9991 46.0211 90.339 44.7627C88.6803 43.977 85.2312 42.9261 83.4128 43.1682C81.2698 43.4532 75.3978 50.7055 76.4767 54.5384V54.5368Z" fill="#FEE2CC"/>
<path d="M76.671 61.9901C76.5557 61.8583 76.5408 61.6673 76.6347 61.519C77.1684 60.6889 78.888 58.0568 79.2784 57.9266C79.7429 57.7718 80.3589 57.8673 80.1695 60.1931C80.0987 61.0677 80.0476 61.687 80.013 62.1186C79.9718 62.6226 79.5205 62.9916 79.0165 62.9306L78.295 62.845C77.6658 62.7692 77.0877 62.4645 76.6693 61.9885L76.671 61.9901Z" fill="#F9CCA7"/>
<path d="M74.6742 60.0215C74.6528 60.4267 74.6726 60.8401 74.6956 61.2387C74.7533 62.2204 74.8109 63.2038 74.8686 64.1854C75.1288 63.8527 75.3265 63.3685 75.4088 62.7854C75.567 61.662 75.2474 60.5337 74.6742 60.0215Z" fill="#F9CCA7"/>
<path d="M81.7375 55.2651L81.8248 54.9028C81.8594 54.7595 81.9961 54.6672 82.1427 54.6886C83.047 54.8204 86.0546 55.2734 86.4845 55.5122C87.3295 55.9833 88.5846 57.4146 88.5846 57.4146L86.5965 56.6092C85.8553 56.3572 82.9053 55.7906 81.9599 55.611C81.8001 55.5814 81.6996 55.4233 81.7375 55.2651Z" fill="#C99239"/>
<path d="M76.4766 54.2068C76.4766 54.2068 77.8733 54.8064 78.4432 55.317L78.3592 54.3419C78.3592 54.3419 77.2639 53.2861 76.5523 53.4014L76.4766 54.2068Z" fill="#C99239"/>
<path d="M87.1696 66.7044C88.5323 66.7044 89.637 65.5997 89.637 64.2369C89.637 62.8742 88.5323 61.7695 87.1696 61.7695C85.8068 61.7695 84.7021 62.8742 84.7021 64.2369C84.7021 65.5997 85.8068 66.7044 87.1696 66.7044Z" fill="#F9CCA7"/>
<path d="M95.2305 64.7866C95.6686 63.1642 98.1228 61.8416 99.3829 63.3487L99.2676 63.4541C97.9087 62.3983 96.1463 63.6238 95.3738 64.8525L95.2305 64.7866Z" fill="#F9CCA7"/>
<path d="M74.8707 61.6746C74.8707 61.6746 74.6055 70.8261 75.2923 72.1734C75.9808 73.5208 76.4321 74.2916 78.9523 74.3394C80.3161 74.3658 82.6287 74.3971 85.106 73.781C87.2044 73.2589 89.4231 72.2706 91.2844 70.4192L96.29 61.584C96.29 61.584 87.5421 63.6445 85.4239 63.8406C84.5525 63.9213 83.6763 63.918 82.8033 63.8669C79.6869 63.6874 74.8707 61.6746 74.8707 61.6746Z" fill="url(#paint21_linear_1911_5316)"/>
<path d="M93.4137 36.4618L66.7334 39.1812L67.5059 35.9792L94.1862 33.2598L93.4137 36.4618Z" fill="url(#paint22_linear_1911_5316)"/>
<path d="M78.4425 55.3164C78.4425 55.3164 79.6186 56.9915 78.8296 58.3537L76.5928 61.5821" fill="#FEE2CC"/>
<path d="M78.4425 55.3164C78.4425 55.3164 79.6186 56.9915 78.8296 58.3537L76.5928 61.5821" stroke="#C69024" stroke-width="0.41593" stroke-linecap="round" stroke-linejoin="round"/>
<path d="M94.427 65.6564C93.7995 67.2706 93.1834 68.4253 92.1029 69.7792C89.6833 72.8116 88.6736 76.2788 89.4873 80.0722C88.4282 79.2404 88.2124 77.8057 88.1712 76.46C88.0048 71.115 91.8888 67.3134 92.1392 63.5102C92.1836 62.8299 92.9117 59.3891 91.4062 58.1932C89.3209 56.5379 86.9144 55.2943 84.9873 53.4577C83.0601 51.6228 81.7227 48.7271 82.8081 46.2976C80.6981 47.0915 78.9077 48.6563 77.7597 50.5901C77.2145 51.5092 76.6676 52.649 76.5523 53.7279C76.4403 54.7804 76.9855 55.8905 76.5029 56.9068C76.1553 57.6365 75.5294 58.2245 75.1111 58.9163C74.3138 60.234 75.2297 61.8202 74.7932 63.2977C74.3731 64.7192 72.6519 65.5774 71.7427 66.7468C70.5913 68.2276 70.0214 70.0559 70.6704 71.8167C69.4433 70.5748 69.6805 68.4911 70.4118 66.9049C71.1431 65.3188 72.2796 63.8973 72.6733 62.1958C73.2926 59.5126 71.942 56.7586 72.0507 54.0079C72.1396 51.7809 73.174 49.7154 74.187 47.729C75.1638 45.815 76.2871 43.7577 78.2637 42.9128C81.0688 41.7136 83.9117 41.5703 86.9556 41.7614C90.828 42.0052 94.2771 45.1759 97.5681 47.2315C100.859 49.2855 103.855 50.5028 103.425 54.3587C103.425 54.3587 107.314 65.4999 96.8253 73.5577L92.6366 74.5114L92.6432 74.2528C92.6811 72.7309 92.9759 71.227 93.5129 69.8039L94.4007 67.4534C94.4007 67.4534 96.7759 69.122 99.515 65.0849C99.515 65.0849 100.724 62.8266 98.8743 61.2355C98.7557 61.1334 98.5795 61.0626 98.3933 61.0098C96.0462 60.3395 94.7812 64.739 94.4254 65.6548L94.427 65.6564Z" fill="#FFD066"/>
<path d="M116.738 52.9447L93.3623 36.5277L94.1859 33.2598L117.511 49.7427L116.738 52.9447Z" fill="#0B1F43"/>
<path d="M116.739 52.9438L85.2538 46.1939L66.7334 39.1804L93.4137 36.4609L116.739 52.9438Z" fill="#030917"/>
<path d="M90.6988 41.6564C84.8103 40.2349 79.1853 40.6088 75.2734 42.3433L73.9326 47.8991C77.8446 46.1646 83.4695 45.7907 89.3581 47.2122C96.0932 48.8379 101.451 52.3957 103.795 56.3192L105.136 50.7634C102.79 46.84 97.434 43.2821 90.6988 41.6564Z" fill="url(#paint23_linear_1911_5316)"/>
<path d="M94.5244 56.6172C95.6313 57.2184 96.8271 58.3615 96.6015 59.7352C96.4664 58.4043 95.4583 57.4819 94.5244 56.6172Z" fill="#E5AE4C"/>
<path d="M83.9297 47.4899C84.7516 49.7564 86.5701 51.4183 88.4132 52.881C88.433 52.8958 88.4116 52.9304 88.3901 52.9156C86.3938 51.7988 84.3316 49.7498 83.9313 47.4883L83.9297 47.4899Z" fill="#E5AE4C"/>
<path d="M86.8365 47.9456C87.8001 49.0377 88.9498 49.9337 90.2131 50.6519C92.7283 52.1112 95.7228 53.0913 97.5775 55.4945C98.5015 56.6573 99.1225 58.1826 98.887 59.6765C98.8837 59.7078 98.831 59.7045 98.8326 59.6716C98.7931 56.6689 96.2812 54.5045 93.8385 53.1605C91.2854 51.767 88.4408 50.5267 86.713 48.0428C86.6883 48.0082 86.6949 47.9588 86.7311 47.9325C86.764 47.9094 86.8085 47.9143 86.8349 47.944L86.8365 47.9456Z" fill="#E5AE4C"/>
<path d="M95.6544 77.1445C97.0166 78.7159 97.7101 80.8539 97.5239 82.9359C97.2291 85.7031 96.5702 88.1705 100.029 88.9545C100.522 89.0747 101.026 89.1604 101.533 89.2691C103.055 89.5936 104.572 90.175 105.783 91.1831C106.937 92.1763 108 93.7032 107.835 95.2927L107.679 95.2976C107.323 93.1811 106.216 91.6179 104.315 90.6066C103.427 90.1289 102.455 89.8077 101.464 89.5919C100.454 89.3696 99.3918 89.2428 98.4727 88.7058C96.3512 87.4688 97.0644 84.896 97.267 82.9145C97.4778 80.9 96.842 78.8081 95.5342 77.2467L95.6528 77.1445H95.6544Z" fill="#E5AE4C"/>
<path d="M103.34 103.91C102.253 105.473 100.565 107.261 100.062 109.115C99.7179 110.476 100.729 111.826 101.76 112.615C101.823 112.66 101.836 112.749 101.79 112.81C101.744 112.871 101.657 112.884 101.596 112.838C101.233 112.568 100.915 112.248 100.639 111.896C100.093 111.189 99.6603 110.313 99.7673 109.39C100.011 108.071 100.843 106.944 101.625 105.902L103.215 103.815C103.274 103.739 103.403 103.823 103.34 103.909V103.91Z" fill="#E5AE4C"/>
<path d="M132.178 55.9221C138.113 53.3937 144.704 53.229 150.718 55.4592C154.973 57.0372 159.403 60.623 159.818 66.0339C160.26 71.784 156.061 76.3252 152.196 79.6458C145.847 85.0978 138.957 90.2847 131.244 91.2976C128.663 91.6369 125.24 90.6437 125.024 87.4812C124.879 85.3531 126.383 83.6269 127.849 82.4657C135.293 76.5673 145.762 76.3565 152.826 82.9154C159.891 89.4743 162.403 102.786 157.641 111.936" stroke="#CAFFED" stroke-width="1.2653" stroke-linecap="round" stroke-linejoin="round"/>
<path d="M46.9816 104.16L16.9658 121.478V86.6132L46.9816 69.2969V104.16Z" fill="url(#paint24_linear_1911_5316)"/>
<path d="M42.785 102.904L39.6044 101.727L36.4023 106.586L37.641 97.9348L41.6336 95.9648L42.785 102.904Z" fill="url(#paint25_linear_1911_5316)"/>
<path d="M46.9814 104.16L50.2148 106.239V71.3739L46.9814 69.2969V104.16Z" fill="#6DD2F2" stroke="#F0F4F8" stroke-width="0.437821" stroke-miterlimit="10"/>
<path d="M46.9816 103.93L16.9658 121.478L20.1991 123.639L50.2149 106.239L46.9816 103.93Z" fill="#4FBAD3" stroke="#F0F4F8" stroke-width="0.437821" stroke-miterlimit="10"/>
<path d="M30.1265 83.6114L19.7363 89.383V88.6912L30.1265 82.918V83.6114Z" fill="#019DD8"/>
<path d="M30.2417 86.3829L19.8516 92.1545V91.4627L30.2417 85.6895V86.3829Z" fill="#019DD8"/>
<path d="M30.3569 89.1544L19.9668 94.9259V94.2341L30.3569 88.4609V89.1544Z" fill="#019DD8"/>
<path d="M30.4741 91.9239L20.084 97.6955V97.0037L30.4741 91.2305V91.9239Z" fill="#019DD8"/>
<path d="M30.3569 102.774L19.9668 108.547V107.854L30.3569 102.082V102.774Z" fill="#019DD8"/>
<path d="M30.4741 105.547L20.084 111.319V110.625L30.4741 104.854V105.547Z" fill="#019DD8"/>
<path d="M43.7495 76.4535L33.3594 82.2267V81.5333L43.7495 75.7617V76.4535Z" fill="#019DD8"/>
<path d="M43.8647 79.223L33.4746 84.9963V84.3028L43.8647 78.5312V79.223Z" fill="#019DD8"/>
<path d="M43.981 81.9945L33.5908 87.7677V87.0743L43.981 81.3027V81.9945Z" fill="#019DD8"/>
<path d="M44.0962 84.766L33.7061 90.5392V89.8458L44.0962 84.0742V84.766Z" fill="#019DD8"/>
<path d="M43.0644 96.7574C43.9363 94.0172 42.8827 91.2357 40.7112 90.5448C38.5397 89.8539 36.0726 91.5151 35.2007 94.2553C34.3289 96.9955 35.3824 99.7769 37.5539 100.468C39.7254 101.159 42.1926 99.4975 43.0644 96.7574Z" fill="url(#paint26_linear_1911_5316)"/>
<path d="M33.1885 73.3217C27.4153 82.5869 25.8225 86.8447 24.7585 89.3286C24.6876 89.4933 24.5246 89.5905 24.3648 89.5114L23.2118 89.3813L23.2085 83.5949C22.2548 81.8456 21.1002 80.1063 19.7627 78.7342C21.2385 76.1301 22.3503 73.9312 23.2003 72.0584L23.1937 60.9336L25.9312 61.7374C25.9312 61.7374 27.725 66.5932 33.1902 73.3234L33.1885 73.3217Z" fill="#A37624" stroke="#F0F4F8" stroke-width="0.437821" stroke-miterlimit="10"/>
<path d="M31.1027 73.3963C27.6223 78.2999 24.7843 84.274 23.2097 89.3834C22.7452 87.6342 20.4244 80.8974 16.6738 77.048C22.0007 67.6511 22.6002 63.5003 23.1915 61.084C24.4318 64.7752 28.2268 71.0475 31.1027 73.3963Z" fill="#FFD066" stroke="#F0F4F8" stroke-width="0.437821" stroke-miterlimit="10"/>
<path d="M67.335 39.3379V51.0556" stroke="#0F1F42" stroke-width="0.836238" stroke-miterlimit="10"/>
<path d="M67.4534 52.8618C67.9955 52.8618 68.4351 52.4223 68.4351 51.8801C68.4351 51.338 67.9955 50.8984 67.4534 50.8984C66.9112 50.8984 66.4717 51.338 66.4717 51.8801C66.4717 52.4223 66.9112 52.8618 67.4534 52.8618Z" fill="url(#paint27_linear_1911_5316)"/>
<path d="M69.8385 59.0019H65.0684L65.9858 53.9584C66.1044 53.3045 66.6743 52.8301 67.3381 52.8301C67.9805 52.8301 68.5356 53.2748 68.6789 53.9007L69.8385 59.0035V59.0019Z" fill="url(#paint28_linear_1911_5316)"/>
<path d="M154.994 48.1631L123.753 66.186V29.8996L154.994 11.875V48.1631Z" fill="#F0F4F8"/>
<path d="M154.994 47.9226L158.358 50.0853V14.0393L154.994 11.875V47.9226Z" fill="#C5C3FF" stroke="#F0F4F8" stroke-width="0.437821" stroke-miterlimit="10"/>
<path d="M154.994 47.9219L123.753 65.9448L127.118 68.1372L158.358 50.1142L154.994 47.9219Z" fill="#8B89CA" stroke="#F0F4F8" stroke-width="0.437821" stroke-miterlimit="10"/>
<path d="M156.892 147.406L159.28 148.765" stroke="#F0F4F8" stroke-width="0.437821" stroke-miterlimit="10"/>
<path d="M107.886 107.33L102.09 109.221" stroke="#0088C7" stroke-width="0.41593" stroke-miterlimit="10" stroke-linecap="round"/>
<path d="M76.9641 56.27C76.7731 56.2009 76.3613 56.0477 76.5952 56.4067C76.5952 56.4067 76.1603 57.3061 76.4766 57.7146C76.7928 58.1231 78.2225 58.0736 78.2225 58.0736L78.3856 58.2054C78.4779 58.2417 78.5701 58.1544 78.5388 58.0605L78.3906 57.6816C78.076 57.0277 77.6477 56.522 76.9658 56.2717L76.9641 56.27Z" fill="#F0F4F8"/>
<path d="M159.418 43.2703C159.573 43.9819 159.651 44.3377 159.805 45.0476C160.431 44.3311 160.744 43.972 161.37 43.2555C164.06 39.7784 166.396 43.384 164.813 46.3752C164.38 47.2679 164.164 47.7127 163.732 48.6054C164.358 48.6021 164.671 48.6005 165.295 48.5955C169 49.0122 165.712 54.6685 164.067 55.6716C163.371 56.0735 163.026 56.2728 162.33 56.6747C162.484 57.3863 162.561 57.7421 162.716 58.4553C163.111 60.697 160.621 65.9629 157.74 64.1593C157.307 63.7673 157.089 63.5713 156.656 63.1809C156.223 64.072 156.005 64.5184 155.572 65.4095C154.469 67.8127 149.447 70.0017 150.596 65.4457C150.749 64.5563 150.827 64.1115 150.982 63.2221C150.287 63.6223 149.941 63.8216 149.246 64.2219C145.535 66.7453 146.732 60.0283 148.017 58.5623C148.643 57.8442 148.956 57.4851 149.58 56.7686C149.147 56.3749 148.931 56.1789 148.499 55.7853C146.505 53.5468 149.346 48.9398 151.942 48.6927C152.568 48.6878 152.881 48.6845 153.507 48.6795C153.662 47.7901 153.739 47.3437 153.894 46.4542C154.202 44.7412 158.527 39.1195 159.417 43.2687L159.418 43.2703Z" fill="#0B1E44"/>
<path d="M158.402 41.9383C158.557 42.6499 158.634 43.0056 158.789 43.7156C159.415 42.9991 159.728 42.64 160.354 41.9235C163.043 38.4464 165.379 42.0519 163.796 45.0431C163.363 45.9359 163.147 46.3806 162.716 47.2734C163.342 47.2701 163.654 47.2684 164.279 47.2635C167.983 47.6802 164.695 53.3365 163.05 54.3396C162.355 54.7415 162.009 54.9408 161.314 55.3427C161.467 56.0543 161.544 56.41 161.699 57.1233C162.095 59.365 159.604 64.6309 156.723 62.8273C156.29 62.4353 156.073 62.2393 155.639 61.8489C155.206 62.74 154.989 63.1864 154.556 64.0775C153.452 66.4806 148.43 68.6697 149.58 64.1137C149.733 63.2242 149.81 62.7795 149.965 61.8901C149.27 62.2903 148.924 62.4896 148.229 62.8899C144.518 65.4133 145.715 58.6963 147 57.2303C147.626 56.5122 147.939 56.1531 148.563 55.4366C148.13 55.0429 147.914 54.8469 147.483 54.4532C145.488 52.2148 148.329 47.6077 150.925 47.3607C151.551 47.3557 151.864 47.3524 152.49 47.3475C152.645 46.458 152.722 46.0117 152.877 45.1222C153.185 43.4092 157.511 37.7875 158.4 41.9366L158.402 41.9383Z" fill="#833CF6"/>
<path d="M82.9586 58.3455C82.9586 58.3455 83.3341 57.4116 86.8573 60.5C86.8573 60.5 84.9368 60.6944 83.3819 60.2134C83.1414 60.1393 82.9701 59.8774 82.555 59.7571C82.5056 59.7423 82.3771 59.6138 82.4858 59.4524C82.5451 59.3651 82.7362 59.431 82.7066 59.151C82.6456 58.5564 82.9586 58.3455 82.9586 58.3455Z" fill="#F0F4F8"/>
<path d="M84.4157 59.3102C84.6236 58.784 84.4218 58.2111 83.965 58.0305C83.5081 57.85 82.9692 58.1303 82.7613 58.6565C82.5533 59.1828 82.7551 59.7557 83.212 59.9362C83.6688 60.1167 84.2078 59.8365 84.4157 59.3102Z" fill="#E5AE4C"/>
<path d="M88.124 60.624C88.2426 60.6388 87.1736 60.7459 86.8557 60.4988L85.3354 59.275C83.1809 57.5011 82.7642 58.659 82.7642 58.659C82.7642 58.659 82.2091 58.1039 82.2239 57.2919C82.2239 57.2919 84.3718 57.1601 86.7815 60.1842C86.7815 60.1842 87.2938 60.5252 88.1256 60.6224L88.124 60.624Z" fill="#E5AE4C"/>
<path d="M87.2016 59.6951C85.0389 56.7286 83.1826 56.8983 83.1826 56.8983" stroke="#F9CCA7" stroke-width="0.437821" stroke-linecap="round" stroke-linejoin="round"/>
<path d="M76.7688 56.1255C76.5778 56.0563 76.166 55.9031 76.3999 56.2622C76.3999 56.2622 75.965 57.1616 76.2813 57.57C76.3422 57.6475 76.4427 57.7084 76.5662 57.7562C76.9714 57.8023 77.3931 57.5322 77.571 57.0808C77.6187 56.959 77.6435 56.8354 77.65 56.7152C77.4112 56.4599 77.1246 56.2573 76.7672 56.1255H76.7688Z" fill="#E5AE4C"/>
<path d="M78.5375 58.058C78.5375 58.058 77.7501 56.2544 76.3978 56.2627C76.3978 56.2627 75.9004 55.813 75.9004 55.4688C75.9004 55.4688 78.1537 56.126 78.5375 58.0597V58.058Z" fill="#E5AE4C"/>
<path d="M76.6807 55.4688C76.6807 55.4688 78.028 55.6466 78.537 56.8985" stroke="#F9CCA7" stroke-width="0.437821" stroke-linecap="round" stroke-linejoin="round"/>
<path d="M88.123 60.6262C88.2416 60.641 87.1726 60.7481 86.8547 60.501L86.041 59.6659C85.588 59.2014 85.056 58.8143 84.4614 58.5524C83.0136 57.9134 82.7615 58.6628 82.7615 58.6628C82.7615 58.6628 82.4091 58.6183 82.4222 57.8063C82.4222 57.8063 84.9621 56.9564 86.6307 59.5308C86.9667 60.0497 87.5284 60.4104 88.0966 60.6229C88.1049 60.6262 88.1131 60.6245 88.1213 60.6262H88.123Z" fill="#E5AE4C"/>
<path d="M87.2006 59.6971C85.038 56.7306 83.1816 56.9002 83.1816 56.9002" stroke="#F9CCA7" stroke-width="0.437821" stroke-linecap="round" stroke-linejoin="round"/>
<path d="M78.5374 58.059C78.5374 58.059 78.1915 56.3196 76.4751 56.4464C76.4751 56.4464 76.1836 56.2603 76.1836 55.916C76.1836 55.916 78.4945 55.4697 78.5374 58.0606V58.059Z" fill="#E5AE4C"/>
<path d="M76.6807 55.4707C76.6807 55.4707 78.028 55.6486 78.537 56.9004" stroke="#F9CCA7" stroke-width="0.437821" stroke-linecap="round" stroke-linejoin="round"/>
<path d="M145.483 28.6594C145.228 29.5801 144.959 30.4152 144.376 31.2075C144.23 31.4068 144.085 31.6802 144.025 31.9026C143.554 33.6914 142.711 35.3682 141.614 36.8522C140.697 38.0925 139.669 39.2175 138.613 40.3178C138.455 40.4825 138.394 40.5912 138.397 40.7691C138.409 41.2781 138.402 41.8002 138.404 42.3191C138.774 42.1494 139.119 41.9633 139.448 41.8513C139.743 41.7508 140.044 41.6784 140.3 41.6932C141.031 41.736 141.021 42.7128 140.26 43.5495C139.776 44.0815 139.234 44.5444 138.704 45.0039C138.468 45.2082 138.399 45.3465 138.414 45.5755C138.432 45.8654 138.432 46.1701 138.419 46.4781C138.409 46.6906 138.465 46.7351 138.677 46.6494C139.04 46.5028 139.415 46.3645 139.745 46.3315C140.655 46.2426 140.767 47.1156 139.982 48.2142C139.631 48.705 139.219 49.1646 138.809 49.6044C138.517 49.9157 138.387 50.1644 138.424 50.479C138.45 50.7063 138.438 50.9616 138.424 51.2153C138.407 51.4821 138.513 51.5958 138.738 51.5299C139.193 51.3965 139.652 51.2565 140.112 51.0802C140.529 50.9221 140.954 50.703 141.365 50.535C141.537 50.4658 141.701 50.4461 141.866 50.4049C141.858 50.4411 141.851 50.479 141.843 50.5152C139.302 51.9927 136.773 53.4883 134.258 55.0103L134.237 54.9246C134.396 54.7714 134.554 54.6018 134.721 54.4684C135.329 53.9825 135.956 53.518 136.585 53.0156C137.621 52.1854 137.625 52.1756 137.592 51.1132C137.592 51.067 137.584 51.0242 137.577 50.9435C136.976 51.5282 136.391 52.0998 135.815 52.6697C135.801 52.6466 135.788 52.6236 135.777 52.6005C135.895 52.4655 136.012 52.3271 136.132 52.197C136.508 51.7934 136.888 51.3932 137.269 50.9896C137.495 50.7491 137.608 50.5202 137.602 50.2418C137.584 49.4611 137.595 48.6622 137.593 47.8765C137.234 47.9918 136.89 48.122 136.562 48.201C136.032 48.3295 135.539 48.3641 135.149 48.1714C134.711 47.9523 134.757 47.4582 135.292 46.7762C135.806 46.119 136.396 45.6216 137 45.1555C137.106 45.0731 137.215 44.994 137.322 44.9199C137.503 44.7947 137.6 44.6432 137.597 44.4455C137.593 44.2594 137.597 44.07 137.597 43.8493C137.246 44.0371 136.905 44.2495 136.575 44.3912C136.022 44.6284 135.459 44.9034 134.953 45.0056C133.975 45.2049 133.846 44.1556 134.642 42.9499C134.741 42.8001 134.844 42.6452 134.96 42.5184C135.714 41.6915 136.488 40.8597 137.277 40.0477C137.46 39.8599 137.542 39.7463 137.541 39.5239C137.526 38.2507 137.355 38.0695 136.244 38.2391C135.133 38.4104 134.029 38.6361 133.016 38.7366C132.492 38.7876 132.031 38.6773 131.575 38.6015C131.097 38.5224 131.008 37.8982 130.731 37.4732C130.868 37.3744 130.954 37.3085 131.041 37.2541C134.846 34.8724 138.753 32.6652 142.627 30.3971C142.955 30.2028 142.971 30.1649 142.988 29.8041C143.029 28.834 142.807 28.1027 142.255 27.7008C141.739 27.3252 141.118 27.1358 140.252 27.5179C139.858 27.6909 139.483 27.9923 139.168 28.4238C139.01 28.6429 138.853 28.9312 138.802 29.1585C138.676 29.7284 138.417 30.2522 138.012 30.7381C137.592 31.2421 137.167 31.7478 136.722 32.2073C136.231 32.7146 135.986 32.6158 136.096 31.9932C136.455 29.9886 137.504 28.1817 138.901 26.7207C139.59 25.9877 140.318 25.487 141.019 25.3108C141.739 25.1296 142.395 25.1329 142.956 25.3602C143.897 25.739 144.289 26.668 144.334 28.0055C144.345 28.3761 144.355 28.75 144.348 29.1321C144.345 29.3265 144.413 29.3364 144.567 29.2359C144.867 29.0432 145.162 28.8669 145.487 28.6643L145.483 28.6594ZM142.044 33.9154C141.888 34.0735 141.728 34.2316 141.57 34.3914C140.814 35.1573 140.039 35.915 139.275 36.7024C138.628 37.3711 138.346 38.1535 138.513 38.7893C139.967 37.3892 141.309 35.8244 142.042 33.9154H142.044ZM138.443 49.5583L138.519 49.5813C138.806 49.1893 139.119 48.8088 139.367 48.402C139.555 48.094 139.68 47.7448 139.787 47.4219C139.827 47.3017 139.773 47.1254 139.692 47.1007C139.339 46.9986 138.909 47.1633 138.442 47.4236C138.442 48.1549 138.445 48.8566 138.445 49.5566L138.443 49.5583ZM137.579 41.288C136.892 41.965 136.251 42.5925 135.628 43.2316C135.548 43.314 135.5 43.4688 135.437 43.5907C135.449 43.6187 135.46 43.6467 135.472 43.6747C136.154 43.4078 136.849 43.1377 137.579 42.8544C137.579 42.329 137.579 41.853 137.579 41.2863V41.288ZM137.577 45.9066C137.101 46.1882 136.686 46.5605 136.3 47.025C136.144 47.2127 136.167 47.305 136.289 47.3412C136.653 47.4466 137.083 47.3149 137.577 47.0283C137.577 46.6527 137.577 46.2986 137.577 45.9049V45.9066ZM138.427 43.4128C138.427 43.617 138.427 43.79 138.427 43.9959C138.789 43.7126 139.073 43.3963 139.313 42.8956C138.985 43.0867 138.715 43.2448 138.427 43.4128Z" fill="#019DD8"/>
<defs>
<linearGradient id="paint0_linear_1911_5316" x1="76.2545" y1="13.2584" x2="129.548" y2="208.813" gradientUnits="userSpaceOnUse">
<stop stop-color="#0088C3"/>
<stop offset="1" stop-color="#0F1F42"/>
</linearGradient>
<linearGradient id="paint1_linear_1911_5316" x1="83.3463" y1="82.6392" x2="98.8805" y2="146.07" gradientUnits="userSpaceOnUse">
<stop stop-color="#C5C3FF"/>
<stop offset="0.51" stop-color="#833CF6"/>
<stop offset="1" stop-color="#6B00F8"/>
</linearGradient>
<linearGradient id="paint2_linear_1911_5316" x1="90.1509" y1="100.747" x2="73.7938" y2="122.86" gradientUnits="userSpaceOnUse">
<stop offset="0.18" stop-color="#F0F4F8"/>
<stop offset="0.48" stop-color="#BEF5FF"/>
<stop offset="1" stop-color="#0088C3"/>
</linearGradient>
<linearGradient id="paint3_linear_1911_5316" x1="92.6895" y1="106.493" x2="218.579" y2="249.911" gradientUnits="userSpaceOnUse">
<stop offset="0.2" stop-color="#BEF5FF"/>
<stop offset="0.76" stop-color="#39C7DF"/>
</linearGradient>
<linearGradient id="paint4_linear_1911_5316" x1="53.932" y1="106.081" x2="151.419" y2="217.003" gradientUnits="userSpaceOnUse">
<stop offset="0.15" stop-color="#F0F4F8"/>
<stop offset="0.39" stop-color="#F0F4F8"/>
</linearGradient>
<linearGradient id="paint5_linear_1911_5316" x1="134.125" y1="91.0159" x2="138.307" y2="104.31" gradientUnits="userSpaceOnUse">
<stop stop-color="#BEF5FF"/>
<stop offset="1" stop-color="#0088C3"/>
</linearGradient>
<linearGradient id="paint6_linear_1911_5316" x1="121.277" y1="102.413" x2="122.77" y2="114.96" gradientUnits="userSpaceOnUse">
<stop stop-color="#BEF5FF"/>
<stop offset="1" stop-color="#0088C3"/>
</linearGradient>
<linearGradient id="paint7_linear_1911_5316" x1="96.3506" y1="94.4594" x2="98.5907" y2="130.606" gradientUnits="userSpaceOnUse">
<stop offset="0.3" stop-color="#BEF5FF"/>
<stop offset="0.47" stop-color="#8CD8EF"/>
<stop offset="0.84" stop-color="#289FCF"/>
<stop offset="1" stop-color="#0088C3"/>
</linearGradient>
<linearGradient id="paint8_linear_1911_5316" x1="98.2777" y1="95.58" x2="98.2777" y2="179.823" gradientUnits="userSpaceOnUse">
<stop offset="0.25" stop-color="#DE97FF"/>
<stop offset="1" stop-color="#A827D8"/>
</linearGradient>
<linearGradient id="paint9_linear_1911_5316" x1="84.9622" y1="129.15" x2="74.3941" y2="151.799" gradientUnits="userSpaceOnUse">
<stop stop-color="#0088C3"/>
<stop offset="1" stop-color="#0F1F42"/>
</linearGradient>
<linearGradient id="paint10_linear_1911_5316" x1="104.186" y1="105.676" x2="105.366" y2="140.378" gradientUnits="userSpaceOnUse">
<stop offset="0.47" stop-color="#DE97FF"/>
<stop offset="0.53" stop-color="#B940DD"/>
<stop offset="1" stop-color="#8C00BC"/>
</linearGradient>
<linearGradient id="paint11_linear_1911_5316" x1="90.978" y1="95.5795" x2="90.978" y2="179.822" gradientUnits="userSpaceOnUse">
<stop offset="0.14" stop-color="#F0F4F8"/>
<stop offset="0.44" stop-color="#DE97FF"/>
<stop offset="0.83" stop-color="#A827D8"/>
</linearGradient>
<linearGradient id="paint12_linear_1911_5316" x1="75.6218" y1="153.855" x2="85.9905" y2="153.855" gradientUnits="userSpaceOnUse">
<stop stop-color="#0F1F42"/>
<stop offset="1" stop-color="#0F1F42"/>
</linearGradient>
<linearGradient id="paint13_linear_1911_5316" x1="128.152" y1="104.863" x2="129.331" y2="139.565" gradientUnits="userSpaceOnUse">
<stop stop-color="#DE97FF"/>
<stop offset="0.53" stop-color="#B940DD"/>
<stop offset="1" stop-color="#8C00BC"/>
</linearGradient>
<linearGradient id="paint14_linear_1911_5316" x1="93.9307" y1="84.03" x2="87.9796" y2="69.3754" gradientUnits="userSpaceOnUse">
<stop offset="0.52" stop-color="#FFE2C7"/>
<stop offset="0.74" stop-color="#D3B091"/>
<stop offset="0.91" stop-color="#B68F6D"/>
<stop offset="1" stop-color="#AB8360"/>
</linearGradient>
<linearGradient id="paint15_linear_1911_5316" x1="76.5338" y1="156.955" x2="94.2306" y2="156.955" gradientUnits="userSpaceOnUse">
<stop offset="0.2" stop-color="#BEF5FF"/>
<stop offset="0.76" stop-color="#39C7DF"/>
</linearGradient>
<linearGradient id="paint16_linear_1911_5316" x1="65.8756" y1="141.011" x2="78.7743" y2="185.79" gradientUnits="userSpaceOnUse">
<stop offset="0.2" stop-color="#0088C3"/>
<stop offset="0.24" stop-color="#0372A8"/>
<stop offset="0.33" stop-color="#094571"/>
<stop offset="0.4" stop-color="#0D294E"/>
<stop offset="0.44" stop-color="#0F1F42"/>
</linearGradient>
<linearGradient id="paint17_linear_1911_5316" x1="56.2148" y1="134.174" x2="62.0028" y2="175.697" gradientUnits="userSpaceOnUse">
<stop stop-color="#0088C3"/>
<stop offset="1" stop-color="#0F1F42"/>
</linearGradient>
<linearGradient id="paint18_linear_1911_5316" x1="91.4669" y1="96.0039" x2="95.4942" y2="126.655" gradientUnits="userSpaceOnUse">
<stop offset="0.2" stop-color="#BEF5FF"/>
<stop offset="0.76" stop-color="#39C7DF"/>
</linearGradient>
<linearGradient id="paint19_linear_1911_5316" x1="103.931" y1="135.865" x2="161.189" y2="187.768" gradientUnits="userSpaceOnUse">
<stop offset="0.2" stop-color="#BEF5FF"/>
<stop offset="0.6" stop-color="#39C7DF"/>
</linearGradient>
<linearGradient id="paint20_linear_1911_5316" x1="73.6337" y1="151.655" x2="105.358" y2="151.655" gradientUnits="userSpaceOnUse">
<stop offset="0.2" stop-color="#BEF5FF"/>
<stop offset="0.76" stop-color="#39C7DF"/>
</linearGradient>
<linearGradient id="paint21_linear_1911_5316" x1="79.0972" y1="57.9965" x2="104.145" y2="91.6475" gradientUnits="userSpaceOnUse">
<stop offset="0.09" stop-color="#BEF5FF"/>
<stop offset="0.47" stop-color="#6DD2F2"/>
</linearGradient>
<linearGradient id="paint22_linear_1911_5316" x1="66.7334" y1="36.2197" x2="94.1862" y2="36.2197" gradientUnits="userSpaceOnUse">
<stop stop-color="#BEF5FF"/>
<stop offset="1" stop-color="#0088C3"/>
</linearGradient>
<linearGradient id="paint23_linear_1911_5316" x1="75.1927" y1="41.1524" x2="95.3223" y2="50.4571" gradientUnits="userSpaceOnUse">
<stop stop-color="#0088C3"/>
<stop offset="1" stop-color="#0F1F42"/>
</linearGradient>
<linearGradient id="paint24_linear_1911_5316" x1="15.7206" y1="79.4844" x2="52.88" y2="115.842" gradientUnits="userSpaceOnUse">
<stop stop-color="#F0F4F8"/>
<stop offset="0.54" stop-color="#BEF5FF"/>
<stop offset="0.96" stop-color="#39C7DF"/>
</linearGradient>
<linearGradient id="paint25_linear_1911_5316" x1="31.5268" y1="92.2555" x2="42.8937" y2="105.942" gradientUnits="userSpaceOnUse">
<stop offset="0.06" stop-color="white"/>
<stop offset="0.46" stop-color="#FFCE4E"/>
<stop offset="0.94" stop-color="#C69024"/>
</linearGradient>
<linearGradient id="paint26_linear_1911_5316" x1="34.4349" y1="89.8452" x2="45.8018" y2="103.53" gradientUnits="userSpaceOnUse">
<stop offset="0.06" stop-color="white"/>
<stop offset="0.46" stop-color="#FFCE4E"/>
<stop offset="0.94" stop-color="#C69024"/>
</linearGradient>
<linearGradient id="paint27_linear_1911_5316" x1="64.5676" y1="47.3011" x2="71.8199" y2="58.8113" gradientUnits="userSpaceOnUse">
<stop offset="0.28" stop-color="#0088C3"/>
<stop offset="1" stop-color="#0F1F42"/>
</linearGradient>
<linearGradient id="paint28_linear_1911_5316" x1="62.1249" y1="48.8407" x2="69.3773" y2="60.3526" gradientUnits="userSpaceOnUse">
<stop offset="0.32" stop-color="#0088C3"/>
<stop offset="1" stop-color="#0F1F42"/>
</linearGradient>
</defs>
</svg>
