<svg width="162" height="133" viewBox="0 0 162 133" fill="none" xmlns="http://www.w3.org/2000/svg">
<path d="M83.7913 150.309C124.598 150.309 157.678 117.483 157.678 76.9905C157.678 36.4977 124.598 3.67188 83.7913 3.67188C42.9846 3.67188 9.9043 36.4977 9.9043 76.9905C9.9043 117.483 42.9846 150.309 83.7913 150.309Z" fill="url(#paint0_linear_1911_5460)"/>
<path d="M106.788 86.6104C106.788 86.6104 106.999 89.0382 109.556 88.7709C112.114 88.5036 114.001 85.0545 114.422 84.2464C114.844 83.4382 118.688 80.0527 119.322 79.052C119.955 78.0514 124.569 70.2798 122.172 67.4543C119.775 64.6289 113.441 69.8359 110.592 75.3134C107.742 80.7893 106.291 84.4436 106.789 86.612L106.788 86.6104Z" fill="#F9CCA7"/>
<path d="M50.2992 77.5178C50.2992 77.5178 49.0791 79.6544 46.7865 78.4994C44.4938 77.3444 44.1219 73.5103 44.0193 72.6066C43.9167 71.703 41.5423 67.1784 41.3098 66.0203C41.0773 64.8621 39.5622 55.9673 42.8184 54.1775C46.0746 52.3878 50.118 59.4944 50.8106 65.6194C51.5032 71.7444 51.5465 75.6707 50.2992 77.5194V77.5178Z" fill="#F9CCA7"/>
<path d="M47.8171 74.8763C48.6765 74.6583 49.2937 73.742 49.1687 72.8702C49.0019 71.7072 47.7803 70.9833 47.3426 69.892C47.0925 69.2699 47.1229 68.5429 47.4243 67.9431C47.7257 67.3433 48.2917 66.882 48.9426 66.7054C48.3157 64.5847 47.6007 62.5277 46.7398 60.4897C46.2476 59.3252 45.6207 58.0779 44.4503 57.5815C44.1201 57.4415 43.7497 57.3715 43.397 57.4415C42.8824 57.5449 42.4735 57.9299 42.1497 58.3388C41.2935 59.4206 40.8318 60.8015 40.8639 62.1761" stroke="#AB8360" stroke-width="0.159091" stroke-linecap="round" stroke-linejoin="round"/>
<path d="M49.55 66.6587C49.55 66.6587 48.0927 63.0155 48.0782 61.8732C48.0205 57.3217 48.7949 42.4864 49.55 38.6826C50.3051 34.8787 56.6892 5.88437 80.4172 8.40915C80.4172 8.40915 89.7208 5.89074 98.5387 8.25324C107.356 10.6157 121.327 26.9591 121.055 45.5044C120.782 64.0496 116.978 67.9696 116.978 67.9696C116.978 67.9696 111.012 73.1321 110.589 75.3116C110.589 75.3116 106.399 85.7671 103.554 93.168C93.8877 93.3017 62.2637 112.948 53.6399 80.1894C52.6539 76.4428 49.8033 71.8801 49.55 66.6603V66.6587Z" fill="#AB8360"/>
<path d="M56.3903 91.3574C56.3903 91.3574 61.9888 108.239 58.4408 145.116C58.4408 145.116 68.0699 158.359 93.9141 151.82C119.758 145.283 112.664 134.722 112.664 134.722C112.664 134.722 102.192 130.029 100.67 108.406C100.67 108.406 100.374 100.57 102.043 94.8495L56.3887 91.3574H56.3903Z" fill="#F9CCA7"/>
<path d="M100.788 102.806C100.953 100.313 101.308 97.3762 102.044 94.8514L56.3896 91.3594C56.3896 91.3594 57.2362 93.9128 58.0618 99.201C60.4394 105.528 65.8808 114.601 77.5829 114.832C91.1527 115.099 97.5144 108.912 100.787 102.808L100.788 102.806Z" fill="#EAB892"/>
<path d="M53.416 48.7605C57.7928 35.4621 63.1685 18.9373 80.453 20.4884C80.5572 19.2364 80.453 12.6468 80.9805 11.7734C83.9802 11.7734 82.7008 19.9173 83.4495 20.8034C85.1265 22.1223 87.7654 21.96 90.0917 21.8041C95.3055 21.4525 100.968 22.9066 104.853 26.3748C108.417 29.5582 112.409 35.9616 113.308 40.1473C116.282 58.5143 113.183 71.5041 105.403 89.9666C100.043 102.683 80.8923 101.175 67.9028 98.0118C59.4297 95.95 53.8536 90.5378 52.8292 83.4709C52.6672 82.3541 52.4877 81.2373 52.2488 80.1348C49.464 67.2628 47.4711 62.0143 53.4176 48.7605H53.416Z" fill="#FEE2CC"/>
<path opacity="0.34" d="M90.9141 57.928C90.9141 57.928 93.4231 49.9989 100.554 52.25C106.853 54.2387 106.138 59.8227 106.138 59.8227C106.138 59.8227 101.77 63.5009 93.4921 57.5287C92.7321 56.9814 92.2047 57.4682 90.9141 57.928Z" fill="#F49C95"/>
<path opacity="0.1" d="M75.5857 44.4293C76.0555 44.5391 83.6981 50.3873 81.9538 55.1505C78.7633 63.8607 76.894 63.5711 80.4002 66.0641C79.3966 70.3055 77.0447 68.1561 76.0843 67.9318C75.1224 67.7075 74.2294 67.4848 74.1572 66.2518C80.3586 48.4782 77.1152 49.1909 75.5857 44.4277V44.4293Z" fill="#F49C95"/>
<path d="M88.1947 68.3647C87.7602 67.1683 86.7165 66.4922 85.5013 66.104C84.791 65.8765 84.0215 65.964 83.3641 66.314C82.981 66.5192 82.5417 66.6354 82.0751 66.6354C81.219 66.6354 80.4559 66.244 79.954 65.6331C79.4747 65.0476 78.7644 64.6913 78.0061 64.6547C77.4754 64.6292 76.9063 64.6611 76.2698 64.7772C75.4842 64.9204 74.7644 65.342 74.3122 65.9958C73.0104 67.8779 74.5928 70.3422 77.3504 69.7297C82.5625 68.8388 83.7329 72.6204 86.8368 71.4431C87.9045 71.0374 88.5346 69.3686 88.1931 68.3631L88.1947 68.3647Z" fill="#F9CCA7"/>
<path d="M68.1003 113.719L75.2299 114.931C75.2299 114.931 84.5127 117.044 87.2382 121.42C87.7159 122.186 87.1452 123.177 86.2377 123.167C85.1042 123.156 83.5363 123.069 81.9859 122.747C79.052 122.141 61.0957 119.169 61.0957 119.169L68.1003 113.719Z" fill="url(#paint1_linear_1911_5460)"/>
<path d="M83.9903 84.2404C83.4757 84.2404 82.9594 84.1576 82.4608 84.0781C81.8131 83.9747 81.1654 83.8729 80.5177 83.7695C79.2207 83.5642 77.9237 83.359 76.6282 83.1474C76.1248 83.0647 75.7529 82.9104 75.3585 82.7465C75.1885 82.6765 75.0138 82.6033 74.8214 82.5317C74.4382 82.3917 74.0358 82.3249 73.6478 82.2597C73.2085 82.1865 72.7548 82.1117 72.33 81.9304C71.9147 81.7522 70.9432 81.2447 70.8999 80.3617C70.8598 79.5281 71.6726 78.9076 72.3861 78.459C73.4041 77.8195 74.4126 77.2181 75.5332 76.8745C76.2274 76.6613 76.9617 76.5547 77.7136 76.5547C80.2019 76.5547 82.8729 77.7161 85.0437 79.7397C85.4814 80.147 85.9655 80.6465 86.2509 81.2558C86.5475 81.889 86.5683 82.5763 86.307 83.0949C86.0232 83.6597 85.3868 84.0717 84.606 84.1942C84.4104 84.2245 84.2084 84.2404 83.9887 84.2404H83.9903Z" fill="white"/>
<path d="M77.7151 76.4782V76.6372C80.1825 76.6372 82.8342 77.7907 84.9906 79.8C85.4219 80.2025 85.9012 80.6941 86.1802 81.2907C86.4656 81.9032 86.488 82.5634 86.2379 83.0597C85.9653 83.6022 85.3513 83.9968 84.5962 84.1161C84.4054 84.1463 84.2082 84.1607 83.9902 84.1607C83.4819 84.1607 82.9689 84.0795 82.4735 84C81.8258 83.8966 81.1781 83.7948 80.5304 83.6913C79.2542 83.4893 77.9363 83.2809 76.6393 83.0693C76.1455 82.9897 75.7944 82.8434 75.3872 82.6732C75.2172 82.6032 75.0409 82.53 74.8469 82.4584C74.4573 82.3152 74.0517 82.2484 73.6589 82.1832C73.2244 82.1116 72.7755 82.0368 72.3586 81.8586C71.9562 81.6868 71.0183 81.1968 70.9782 80.36C70.9398 79.5677 71.7334 78.9647 72.4276 78.5288C73.4408 77.8925 74.4429 77.2927 75.5555 76.9522C76.2417 76.7422 76.968 76.6357 77.7135 76.6357V76.4766L77.7151 76.4782ZM77.7135 76.4766C76.9728 76.4766 76.2321 76.5784 75.509 76.8011C74.3739 77.1479 73.3462 77.7652 72.3426 78.3952C71.6003 78.8613 70.7762 79.4977 70.8179 80.3679C70.8548 81.1411 71.5795 81.6995 72.2961 82.005C73.109 82.3518 73.9859 82.312 74.7908 82.6079C75.4417 82.8466 75.8858 83.1091 76.6136 83.2268C78.5568 83.5434 80.5031 83.8472 82.4478 84.1575C82.9577 84.2386 83.4755 84.3197 83.9902 84.3197C84.2018 84.3197 84.4118 84.3054 84.6202 84.2736C85.3401 84.1607 86.0551 83.7788 86.3806 83.1313C86.6772 82.5427 86.6034 81.8204 86.3245 81.2238C86.0455 80.6272 85.5822 80.1341 85.0996 79.6838C83.1004 77.8193 80.3989 76.4782 77.7151 76.4782L77.7135 76.4766Z" fill="black"/>
<path d="M78.3446 85.339C83.1736 87.6109 86.4202 86.4447 88.6102 84.8825C89.0399 84.577 89.1184 83.9565 88.7529 83.5779C87.0919 81.8518 80.5748 80.8877 79.1944 80.6936C77.1807 80.4088 66.556 77.7313 69.1549 81.4906C69.9533 83.072 73.6568 85.3152 78.3446 85.3406V85.339Z" fill="#F49C95"/>
<path opacity="0.34" d="M76.1321 54.7473C76.1321 54.7473 76.1033 46.4364 68.6193 46.4905C62.0092 46.5382 61.0264 52.0809 61.0264 52.0809C61.0264 52.0809 64.1014 56.8775 73.7898 53.6066C74.678 53.3059 75.0371 53.9264 76.1337 54.7457L76.1321 54.7473Z" fill="#F49C95"/>
<path d="M78.8251 66.1235C78.6327 66.0233 78.4018 66.0313 78.187 66.0599C77.427 66.1649 76.6864 66.5419 76.2423 67.1624C76.1749 67.2563 76.1124 67.3613 76.1044 67.4774C76.0915 67.6588 76.2246 67.829 76.3914 67.9054C76.5581 67.9817 76.7505 67.9801 76.9316 67.9483C77.3757 67.8719 77.7749 67.6349 78.2046 67.4981C78.6359 67.3597 79.1072 67.3565 79.4808 67.6333C79.6812 67.1322 79.29 66.3638 78.8267 66.1235H78.8251Z" fill="#443122"/>
<path d="M84.1087 67.2628C84.3652 67.1387 84.6554 67.0416 84.9344 67.0989C85.1765 67.1498 85.3801 67.3105 85.5596 67.4791C86.0294 67.9198 86.4238 68.4893 86.4735 69.1289C86.4783 69.2005 86.4799 69.2784 86.443 69.3405C86.4061 69.4057 86.3372 69.4455 86.2715 69.4789C85.9123 69.6603 85.4538 69.7334 85.1219 69.5075C84.9712 69.4041 84.8638 69.2514 84.7532 69.105C84.548 68.8346 84.3011 68.545 83.9676 68.4305C83.7175 68.3446 83.4177 68.5037 83.2093 68.4257C82.491 68.1584 83.8393 67.3916 84.1071 67.2628H84.1087Z" fill="#443122"/>
<path d="M90.9141 57.9277C90.9141 57.9277 92.4852 56.8888 93.4921 57.5284C94.4989 58.1679 98.7699 61.0061 102.235 60.9663C102.235 60.9663 104.208 60.9266 105.055 60.4063C105.055 60.4063 106.546 62.0848 109.204 61.7252C109.204 61.7252 105.071 65.3191 98.2457 61.485C98.2457 61.485 93.3366 57.8561 93.1137 57.6604C93.1137 57.6604 91.9979 57.2929 90.9141 57.9261V57.9277Z" fill="#0B1E44"/>
<path d="M76.1323 54.7472C76.1323 54.7472 74.9427 53.2931 73.7884 53.6081C72.6357 53.9231 67.7089 55.3788 64.4126 54.3224C64.4126 54.3224 62.5384 53.7035 61.8859 52.959C61.8859 52.959 59.9604 54.1251 57.5283 52.9988C57.5283 52.9988 60.4029 57.6458 68.0664 55.9913C68.0664 55.9913 73.8381 53.9692 74.1106 53.8483C74.1106 53.8483 75.2858 53.8244 76.1323 54.7488V54.7472Z" fill="#0B1E44"/>
<path d="M91.2699 47.9003C91.3324 48.3601 91.6899 48.726 92.1484 48.8119C92.506 48.8788 93.019 48.9233 93.734 48.8867C95.5281 48.7928 100.668 47.8669 103.785 48.4826C106.618 49.0426 110.454 52.541 111.399 53.9474C111.399 53.9474 109.792 47.4803 105.542 45.7463C102.619 44.5547 99.363 44.5578 97.6123 44.6772C96.397 44.7599 95.1754 44.7328 93.9681 44.569C93.7084 44.534 93.4647 44.4958 93.2579 44.456C92.8507 44.3765 92.4322 44.5324 92.1789 44.8585C91.6995 45.4758 91.0855 46.5576 91.2699 47.9019V47.9003Z" fill="url(#paint2_linear_1911_5460)"/>
<path d="M79.2052 45.4696C78.9903 45.8817 78.5318 46.1076 78.0685 46.036C77.7077 45.9803 77.2107 45.8514 76.5486 45.5778C74.8892 44.8921 70.3601 42.3117 67.2161 41.8567C64.3575 41.443 59.5623 43.4635 58.1963 44.4737C58.1963 44.4737 61.8934 38.9135 66.4834 38.6939C69.6386 38.5428 72.7072 39.6294 74.3153 40.323C75.4327 40.8051 76.5919 41.1853 77.7847 41.4319C78.0412 41.4844 78.2833 41.5305 78.4917 41.5607C78.9021 41.6212 79.2436 41.9076 79.3735 42.2989C79.6172 43.0387 79.8304 44.2621 79.202 45.468L79.2052 45.4696Z" fill="url(#paint3_linear_1911_5460)"/>
<path d="M9.57538 120.682C9.57538 120.682 12.2319 120.058 15.4497 115.365C18.6674 110.672 29.6592 103.233 41.1624 104.454L45.2828 104.806C45.2828 104.806 56.6225 100.735 61.2863 101.429C65.9502 102.122 67.0772 104.629 67.0772 104.629C67.0772 104.629 78.8482 97.9667 83.7525 99.7708C88.6569 101.575 79.217 106.771 79.217 106.771C79.217 106.771 69.9198 112.404 68.1001 113.717C66.2804 115.029 61.9821 118.419 61.9821 118.419C61.9821 118.419 66.0239 118.095 69.5911 117.131C75.5343 115.526 82.6287 113.142 85.6267 114.835C85.6267 114.835 87.3582 116.012 86.0516 118.146C84.745 120.279 77.8013 120.987 75.2105 122.492C72.6196 123.997 70.6909 124.435 68.4865 124.654C66.282 124.874 53.6068 126.896 52.6144 128.756C51.622 130.615 58.5672 131.49 58.5672 131.49L64.5441 130.424C65.6471 130.227 66.7887 130.313 67.8324 130.717C68.6035 131.016 69.3779 131.498 69.7867 132.268C70.141 132.935 69.8172 133.745 69.1037 133.998C68.5602 134.19 67.8067 134.316 66.8881 134.114C64.9032 133.676 58.7869 138.379 56.8021 138.271C54.8172 138.163 52.228 137.56 45.3389 133.294C45.3389 133.294 43.9056 131.381 39.8269 132.036C35.7483 132.691 25.1124 133.403 25.1124 133.403C25.1124 133.403 17.4521 136.355 16.0188 138.872C16.0188 138.872 4.06824 135.135 9.57538 120.68V120.682Z" fill="url(#paint4_linear_1911_5460)"/>
<path d="M50.5586 121.647L61.9833 118.422" stroke="#23626A" stroke-width="0.159091" stroke-linecap="round" stroke-linejoin="round"/>
<path opacity="0.1" d="M64.0641 70.2113C66.32 68.5837 66.5114 65.0296 64.4916 62.273C62.4718 59.5164 59.0056 58.6012 56.7497 60.2288C54.4938 61.8564 54.3024 65.4105 56.3222 68.1671C58.342 70.9237 61.8082 71.8389 64.0641 70.2113Z" fill="#F49C95"/>
<path opacity="0.1" d="M102.965 74.4674C105.94 72.7633 107.221 69.4388 105.826 67.0419C104.431 64.645 100.89 64.0834 97.9151 65.7875C94.9406 67.4916 93.6598 70.8161 95.0544 73.213C96.449 75.6099 99.9908 76.1715 102.965 74.4674Z" fill="#F49C95"/>
<path d="M51.0732 116.114L57.1447 111.758L67.0768 104.631" stroke="#23626A" stroke-width="0.159091" stroke-linecap="round" stroke-linejoin="round"/>
<path d="M60.3017 109.494C60.3017 109.494 54.7753 110.216 54.4402 110.382C54.1933 110.504 50.3022 111.173 48.2693 111.518C47.9968 111.564 48.0256 111.963 48.3014 111.968C49.6962 111.995 51.5656 111.62 51.5656 111.62L58.312 110.921L60.3017 109.494Z" fill="#23626A"/>
<path d="M37.5983 121.656C35.8283 121.546 34.1289 120.956 32.3941 120.588C29.8354 120.046 27.174 119.987 24.5928 120.418" stroke="#23626A" stroke-width="0.159091" stroke-linecap="round" stroke-linejoin="round"/>
<path d="M111.148 65.0839C113.199 54.7176 111.198 43.5049 106.002 34.2839C104.912 32.3478 103.624 30.4944 101.97 29.0021C98.4619 25.8362 93.3364 24.5364 88.7286 25.6437C87.6945 25.8919 86.6733 26.2562 85.6087 26.2785C83.3882 26.3246 81.4387 24.9087 79.324 24.2358C74.851 22.8119 69.8489 24.896 66.5622 28.2258C63.2756 31.5555 61.3469 35.9433 59.4903 40.2244L55.3283 49.7874C55.3283 49.7874 51.0204 60.0503 52.1539 67.9683C53.2874 75.8862 55.3283 89.611 63.9441 93.0983C72.5599 96.5855 93.8702 100.297 100.219 91.8605C100.219 91.8605 106.877 86.6774 111.148 65.0839V65.0839Z" stroke="#AB8360" stroke-width="0.159091" stroke-linecap="round" stroke-linejoin="round"/>
<path d="M91.8965 63.5723C91.8965 63.5723 97.7451 71.1434 107.116 65.7741" stroke="#A37624" stroke-width="0.159091" stroke-linecap="round" stroke-linejoin="round"/>
<path d="M106.529 66.9664C106.49 66.9457 106.476 66.8964 106.497 66.8582L107.082 65.7891L105.857 65.7159C105.812 65.7128 105.778 65.6762 105.781 65.6316C105.785 65.5871 105.823 65.5537 105.866 65.5569L107.216 65.638C107.244 65.6396 107.268 65.6555 107.282 65.6793C107.297 65.7032 107.295 65.7319 107.282 65.7557L106.638 66.9346C106.63 66.9489 106.618 66.9584 106.606 66.9664C106.583 66.9791 106.553 66.9807 106.529 66.9664Z" fill="#A37624"/>
<path d="M92.7842 69.6484C92.7842 69.6484 100.34 75.7575 107.946 69.7693" stroke="#A37624" stroke-width="0.159091" stroke-linecap="round" stroke-linejoin="round"/>
<path d="M107.54 71.0324C107.499 71.0181 107.478 70.9719 107.492 70.9306L107.914 69.7883L106.692 69.8933C106.647 69.8965 106.609 69.8647 106.606 69.8217C106.602 69.7787 106.635 69.739 106.679 69.7358L108.026 69.6212C108.053 69.6197 108.081 69.6308 108.097 69.6515C108.113 69.6737 108.118 69.7024 108.108 69.7278L107.643 70.9878C107.638 71.0022 107.629 71.0149 107.616 71.0244C107.595 71.0403 107.566 71.0451 107.539 71.0356L107.54 71.0324Z" fill="#A37624"/>
<path d="M71.4356 61.6972C71.4356 61.6972 62.9624 66.2027 56.6553 57.4766" stroke="#A37624" stroke-width="0.159091" stroke-linecap="round" stroke-linejoin="round"/>
<path d="M57.9304 57.8906C57.9144 57.932 57.8679 57.9527 57.8262 57.9368L56.6799 57.504L56.768 58.7179C56.7712 58.7624 56.7376 58.8006 56.6943 58.8038C56.651 58.807 56.6109 58.7736 56.6077 58.7306L56.5099 57.3927C56.5083 57.3656 56.5195 57.3386 56.542 57.3227C56.5644 57.3068 56.5933 57.302 56.6189 57.3115L57.8823 57.7888C57.8967 57.7952 57.9095 57.8047 57.9176 57.8159C57.9336 57.8365 57.9384 57.8652 57.9288 57.8922L57.9304 57.8906Z" fill="#A37624"/>
<path d="M68.1025 66.8705C68.1025 66.8705 58.6802 69.346 54.2393 60.7773" stroke="#A37624" stroke-width="0.159091" stroke-linecap="round" stroke-linejoin="round"/>
<path d="M55.4401 61.3705C55.4192 61.4087 55.3695 61.423 55.3311 61.4007L54.2617 60.8057L54.1703 62.0196C54.1671 62.0641 54.1286 62.0959 54.0837 62.0927C54.0388 62.0896 54.0068 62.0514 54.01 62.0068L54.111 60.6689C54.1126 60.6418 54.1286 60.618 54.1527 60.6052C54.1767 60.5925 54.2056 60.5925 54.2296 60.6052L55.4096 61.2607C55.424 61.2687 55.4337 61.2798 55.4417 61.2925C55.4545 61.3164 55.4545 61.345 55.4417 61.3689L55.4401 61.3705Z" fill="#A37624"/>
<path opacity="0.56" d="M79.8432 74.4047C79.3991 74.1183 79.0769 73.6251 79.0704 73.0985C79.0672 72.8663 79.1249 72.6372 79.2035 72.4192C79.3702 71.961 79.6492 71.5331 80.0516 71.2547C80.454 70.9762 80.9911 70.8697 81.4496 71.0431C81.9707 71.2388 82.3154 71.7685 82.3924 72.3158C82.6088 73.8606 81.3679 75.391 79.8416 74.4047H79.8432Z" fill="#F9CCA7"/>
<path d="M83.002 53.9495C83.002 53.9495 84.2348 44.5297 83.935 39.6074" stroke="#A37624" stroke-width="0.159091" stroke-linecap="round" stroke-linejoin="round"/>
<path d="M84.7508 40.6573C84.7139 40.6827 84.6642 40.6732 84.6385 40.6382L83.9315 39.6439L83.3223 40.7002C83.2998 40.7384 83.2517 40.7512 83.2132 40.7305C83.1748 40.7082 83.1619 40.6589 83.1828 40.6223L83.8545 39.4577C83.8674 39.4339 83.893 39.4196 83.9203 39.418C83.9475 39.418 83.9732 39.4291 83.9892 39.4514L84.77 40.5475C84.7796 40.5602 84.7844 40.5746 84.7844 40.5889C84.7844 40.6143 84.7732 40.6414 84.7508 40.6573Z" fill="#A37624"/>
<path d="M86.4766 54.6522C86.4766 54.6522 88.3892 43.4633 90.8037 39.9824" stroke="#A37624" stroke-width="0.159091" stroke-linecap="round" stroke-linejoin="round"/>
<path d="M90.8196 41.313C90.7747 41.313 90.7411 41.2748 90.7427 41.2302L90.786 40.0148L89.6573 40.4905C89.6172 40.508 89.5691 40.4905 89.5515 40.4491C89.5338 40.4093 89.5531 40.3616 89.5947 40.3441L90.8389 39.8191C90.8645 39.808 90.8934 39.8111 90.9158 39.827C90.9383 39.843 90.9511 39.8684 90.9511 39.8955L90.9046 41.2366C90.9046 41.2525 90.8982 41.2668 90.8902 41.2795C90.8757 41.3018 90.8501 41.3145 90.8212 41.3145L90.8196 41.313Z" fill="#A37624"/>
<path d="M110.057 85.0191C109.332 84.5116 109.085 83.4377 109.516 82.6677C110.09 81.6416 111.492 81.3966 112.293 80.5327C112.75 80.0395 112.983 79.3507 112.917 78.6841C112.851 78.0175 112.487 77.3859 111.944 76.9898C113.292 75.2302 114.7 73.5614 116.237 71.9625C117.116 71.0493 118.15 70.1059 119.423 70.0566C119.782 70.0423 120.152 70.1075 120.457 70.2984C120.899 70.5768 121.145 71.0811 121.299 71.5775C121.709 72.8916 121.645 74.3457 121.121 75.6184" stroke="#A37624" stroke-width="0.159091" stroke-linecap="round" stroke-linejoin="round"/>
<path d="M12.0195 31.2019C12.0195 31.2019 24.1416 22.374 28.9224 18.1803C33.7033 13.9867 38.598 13.2151 38.598 13.2151C38.598 13.2151 41.4886 11.1183 43.1576 9.02146C44.825 6.92464 53.3574 4.9376 56.5431 1.73828C56.5431 1.73828 58.8069 1.95942 56.5431 6.26283C56.5431 6.26283 54.4973 8.91169 49.5497 11.0085L46.3817 14.2094C46.3817 14.2094 51.3855 12.6646 52.8316 12.8858C54.2777 13.1069 63.9885 15.2037 63.9885 15.2037C63.9885 15.2037 71.2432 15.8656 71.4356 19.0665C71.628 22.2674 62.2859 21.604 59.283 20.5015C56.2802 19.399 49.5497 21.2746 49.5497 21.2746L58.8373 23.2617C58.8373 23.2617 66.1337 26.2431 68.1008 26.7378C70.068 27.2326 74.3198 27.7846 73.81 31.2067C73.3899 34.029 68.1008 33.2065 68.1008 33.2065C68.1008 33.2065 69.7185 34.7481 68.1008 36.7256C66.4832 38.7015 53.6091 37.4987 53.6091 37.4987C53.6091 37.4987 43.0438 36.8369 40.5972 36.1751C40.5972 36.1751 41.5977 40.1476 40.0409 42.9062C38.4842 45.6649 46.3801 48.3137 46.3801 48.3137C46.3801 48.3137 53.5049 50.7971 51.8007 54.6583C51.8007 54.6583 50.0499 56.3685 45.1569 55.3758C41.5544 54.644 38.9764 53.691 36.5346 53.2328C33.2416 52.614 30.3237 50.6715 28.5842 47.8269C28.4687 47.6376 28.3581 47.4435 28.2523 47.2462C26.3621 43.6794 22.9135 45.0031 22.9135 45.0031C22.9135 45.0031 12.4603 45.4437 12.0146 31.2083L12.0195 31.2019Z" fill="url(#paint5_linear_1911_5460)"/>
<path d="M115.423 93.0703C115.423 93.0703 114.676 99.2383 114.094 100.21C113.512 101.182 115.436 106.191 115.436 106.191" stroke="#23626A" stroke-width="0.159091" stroke-linecap="round" stroke-linejoin="round"/>
<path d="M17.695 76.2331C24.4489 72.4645 28.7947 67.4164 27.4016 64.958C26.0085 62.4996 19.404 63.5618 12.65 67.3305C5.89606 71.0992 1.55025 76.1472 2.94337 78.6056C4.3365 81.064 10.941 80.0018 17.695 76.2331Z" fill="url(#paint6_linear_1911_5460)"/>
<path d="M16.9372 63.4196C20.6936 62.3378 20.7914 64.2819 21.2627 65.9778C21.492 66.8035 22.2984 67.3285 23.1562 67.2346C35.4546 65.8776 23.8552 81.9998 17.213 83.6639C-1.5097 89.4596 5.14215 66.8178 16.9372 63.4212V63.4196Z" fill="url(#paint7_linear_1911_5460)"/>
<path d="M17.6157 76.0951C10.8628 79.864 4.25747 80.9251 2.86426 78.4671L10.0163 91.0894C12.3474 95.2035 19.7127 95.4835 26.4656 91.7146C33.2184 87.9458 36.8049 81.5567 34.4738 77.4426L27.3217 64.8203C28.7149 67.2783 24.3701 72.3262 17.6157 76.0951Z" fill="url(#paint8_linear_1911_5460)"/>
<g style="mix-blend-mode:darken" opacity="0.22">
<path d="M23.832 71.6898L32.4126 86.8305C33.8459 85.0757 34.7726 83.2191 35.074 81.4643L27.2566 67.668C27.1283 67.8175 26.9936 67.9686 26.8541 68.1198C26.2177 69.2334 25.1804 70.4552 23.832 71.6882V71.6898Z" fill="#0088C7"/>
</g>
<g style="mix-blend-mode:screen" opacity="0.73">
<path d="M8.78676 79.5162L16.6859 94.3594C17.4843 94.3833 18.3228 94.3371 19.1854 94.2194L11.081 78.9355C10.281 79.1805 9.51142 79.3762 8.78516 79.5178L8.78676 79.5162Z" fill="#BEF5FF"/>
<path d="M8.78676 79.5162L16.6859 94.3594C17.4843 94.3833 18.3228 94.3371 19.1854 94.2194L11.081 78.9355C10.281 79.1805 9.51142 79.3762 8.78516 79.5178L8.78676 79.5162Z" stroke="black" stroke-width="0.159091" stroke-miterlimit="10"/>
</g>
<path d="M16.4669 65.2677C16.8933 65.0704 17.4721 64.9383 17.7735 65.2979C16.8372 66.367 15.8849 67.4568 15.3174 68.7565C14.8701 69.7795 14.5061 70.6481 13.2043 70.7118C11.1682 70.8104 12.6159 68.7645 13.177 67.9913C14.0203 66.8299 15.1586 65.8754 16.4685 65.2693L16.4669 65.2677Z" fill="white"/>
<path d="M25.1602 79.0015C24.474 78.3206 23.2892 78.3906 22.5132 79.159C22.4732 79.1988 22.4347 79.2433 22.3962 79.291C22.3962 79.2306 22.393 79.1717 22.3866 79.1144C22.2647 78.0326 21.383 77.2435 20.4178 77.3517C19.4527 77.4599 18.7697 78.4224 18.8915 79.5042C18.8979 79.5599 18.9092 79.6188 18.922 79.6776C18.8739 79.6394 18.8258 79.606 18.7777 79.5758C17.8494 78.9967 16.6774 79.1876 16.1612 80.0038C15.645 80.8199 15.9768 81.9494 16.9051 82.5285C16.9532 82.5588 17.0061 82.5858 17.0606 82.6129C17.0013 82.6272 16.9436 82.6431 16.8891 82.6606C15.8534 83.0201 15.2746 84.0479 15.5953 84.9579C15.9159 85.8679 17.0141 86.3133 18.0498 85.9554C18.1043 85.9363 18.1588 85.9124 18.2134 85.8869C18.1877 85.941 18.1637 85.9967 18.1444 86.0492C17.7821 87.0754 18.231 88.1667 19.1464 88.4849C20.0635 88.8031 21.0992 88.2288 21.4615 87.2026C21.4808 87.1485 21.4952 87.0928 21.5096 87.034C21.5369 87.0881 21.5641 87.1406 21.5946 87.1883C22.1782 88.1094 23.3165 88.4419 24.1389 87.9297C24.9614 87.4174 25.1554 86.2544 24.5718 85.3333C24.5413 85.2856 24.5061 85.2379 24.4676 85.1901C24.5269 85.2029 24.5862 85.214 24.6424 85.2204C25.7326 85.3429 26.7041 84.6651 26.8131 83.709C26.9222 82.7513 26.127 81.8763 25.0384 81.7538C24.9822 81.7474 24.9229 81.7458 24.8604 81.7458C24.9085 81.7076 24.9534 81.6694 24.9935 81.6281C25.7694 80.8597 25.8416 79.684 25.1554 79.0015H25.1602Z" fill="white"/>
<path d="M46.3849 14.207L38.5947 17.0707" stroke="#23626A" stroke-width="0.159091" stroke-linecap="round" stroke-linejoin="round"/>
<path d="M45.7588 27.6953C45.7588 27.6953 51.2691 29.571 53.0022 29.8049C54.7353 30.0387 59.1667 30.7133 60.6513 31.2351C62.1359 31.7569 68.1048 33.2014 68.1048 33.2014" stroke="#23626A" stroke-width="0.159091" stroke-linecap="round" stroke-linejoin="round"/>
<path d="M49.5505 21.2695L46.7031 20.3516" stroke="#23626A" stroke-width="0.159091" stroke-linecap="round" stroke-linejoin="round"/>
<path d="M32.375 39.8267C32.375 39.8267 36.0737 35.9687 40.6012 36.1676" stroke="#23626A" stroke-width="0.159091" stroke-linecap="round" stroke-linejoin="round"/>
<path d="M56.1482 26.9927C56.0056 26.2275 56.6757 25.5307 57.3972 25.23C57.4741 25.1982 57.5607 25.1696 57.6361 25.2014" stroke="#23626A" stroke-width="0.159091" stroke-linecap="round" stroke-linejoin="round"/>
<path d="M52.5533 14.2676C52.4138 14.6446 52.5437 15.0774 52.7874 15.3987C52.9573 15.623 53.1994 15.8155 53.4816 15.833C53.7638 15.8505 54.0652 15.631 54.054 15.351" stroke="#23626A" stroke-width="0.159091" stroke-linecap="round" stroke-linejoin="round"/>
<path d="M45.5083 8.32031C45.5403 8.78168 45.5692 9.26213 45.3992 9.69327C45.2293 10.1244 44.8012 10.4935 44.3379 10.4378" stroke="#23626A" stroke-width="0.159091" stroke-linecap="round" stroke-linejoin="round"/>
<path d="M40.6318 21.9369C41.3741 22.228 42.2447 22.1755 42.9437 21.7969" stroke="#23626A" stroke-width="0.159091" stroke-linecap="round" stroke-linejoin="round"/>
<path d="M39.3848 30.1719L41.6662 30.4948" stroke="#23626A" stroke-width="0.159091" stroke-linecap="round" stroke-linejoin="round"/>
<path d="M103.443 0.912109L103.519 2.40438C103.69 5.78347 105.366 9.00188 108.149 11.2976C104.617 12.0835 101.649 14.1898 99.9434 17.1219L99.1899 18.4169L99.1145 16.9246C98.943 13.5455 97.2676 10.3271 94.4844 8.03143C98.0163 7.24552 100.984 5.13915 102.69 2.20711L103.443 0.912109Z" fill="url(#paint9_linear_1911_5460)"/>
<path d="M90.3882 84.2441C88.8555 81.1736 87.0887 77.2886 84.2286 75.3493C82.9283 74.5634 81.7932 75.4496 80.5475 75.3493C80.0072 75.3064 79.3467 74.907 78.8705 74.4759C75.9446 71.9559 70.088 77.8105 67.5869 79.5859C70.9072 80.4736 74.9394 78.4914 77.8124 78.1795C79.2778 78.7634 80.3455 79.1341 81.5608 79.0371C82.3127 79.4093 83.3372 80.2366 83.9785 80.8364C86.0114 82.4957 87.8134 83.8114 90.3882 84.2457V84.2441Z" fill="#E27E79"/>
<path opacity="0.51" d="M79.8084 62.9336C79.717 62.4023 79.9462 61.637 80.5811 61.4048C81.03 61.2409 81.5896 61.4748 81.6697 61.8439C81.8557 62.7014 81.2128 64.0218 80.0456 63.3139" fill="white"/>
<path opacity="0.51" d="M81.3292 91.295C81.6742 89.7942 79.8516 88.1017 77.2584 87.5146C74.6651 86.9276 72.2832 87.6684 71.9382 89.1693C71.5932 90.6701 73.4157 92.3626 76.009 92.9496C78.6023 93.5366 80.9842 92.7958 81.3292 91.295Z" fill="white"/>
<path d="M144.148 78.2217C144.016 78.6354 143.742 78.9886 143.455 79.3163C142.838 80.0195 142.136 80.651 141.371 81.1935C141.296 81.246 141.217 81.3017 141.174 81.3813C141.118 81.4831 141.124 81.6056 141.123 81.7217C141.108 82.4408 140.666 83.0772 140.186 83.6165C138.522 85.4922 136.271 86.7363 134.065 87.9438C133.776 88.1013 133.445 88.2635 133.132 88.1585C132.823 88.0535 132.657 87.7226 132.558 87.4124C132.128 86.0617 132.364 84.5647 132.973 83.284C133.582 82.0033 134.54 80.9167 135.572 79.9399C137.029 78.5622 138.774 77.2306 140.715 76.6117C141.903 76.2331 144.739 76.3476 144.146 78.2233L144.148 78.2217Z" fill="#057C49"/>
<path d="M133.139 90.9168C133.139 90.9168 138.57 88.987 139.083 86.6086C139.596 84.2302 137.206 85.3788 137.206 85.3788L133.134 88.155L133.14 90.9152L133.139 90.9168Z" fill="#057C49"/>
<path d="M113.985 59.306C113.844 59.4778 113.956 59.7991 113.964 59.8055L114.746 60.4355L115.256 59.8119L114.474 59.1819C114.474 59.1819 114.126 59.1341 113.985 59.306Z" fill="white"/>
<path d="M121.317 63.1339L119.271 65.6364L116.323 63.2644C115.627 62.7044 114.287 60.6966 114.851 60.0062C115.415 59.3157 117.671 60.2019 118.369 60.7619L121.317 63.1339Z" fill="url(#paint10_linear_1911_5460)"/>
<path d="M120.631 64.6604C121.196 63.9691 121.504 63.288 121.319 63.1391C121.134 62.9903 120.526 63.43 119.961 64.1213C119.396 64.8126 119.088 65.4937 119.273 65.6426C119.458 65.7915 120.066 65.3517 120.631 64.6604Z" fill="#39C7DF"/>
<path d="M120.197 64.3072C119.79 64.8051 119.564 65.2935 119.69 65.3953L120.721 66.2242L122.196 64.4185L121.165 63.5897C121.037 63.4863 120.604 63.8076 120.197 64.3056V64.3072Z" fill="url(#paint11_linear_1911_5460)"/>
<path d="M120.985 64.9409C120.344 65.7252 119.995 66.4984 120.205 66.6671L141.289 83.6325L143.612 80.7912L122.528 63.8257C122.318 63.6571 121.628 64.1566 120.987 64.9409H120.985Z" fill="#23626A"/>
<path d="M145.87 77.9709C145.252 77.7481 143.381 79.2674 141.56 81.4963C139.651 83.8334 138.519 86.0654 139.035 86.4806C139.059 86.4997 139.088 86.514 139.117 86.5252L139.327 86.6954L139.476 86.5124C140.297 86.2738 141.879 84.8929 143.426 83.0013C144.972 81.1097 146.008 79.2865 146.072 78.4418L146.232 78.2445L145.879 77.9597L145.868 77.974L145.87 77.9709Z" fill="white"/>
<path d="M143.678 83.2026C145.588 80.8652 146.719 78.6339 146.203 78.2188C145.687 77.8038 143.72 79.3621 141.81 81.6995C139.9 84.0368 138.77 86.2681 139.285 86.6832C139.801 87.0982 141.768 85.5399 143.678 83.2026Z" fill="url(#paint12_linear_1911_5460)"/>
<path d="M113.985 59.3062L106.401 53.2051" stroke="white" stroke-width="0.159091" stroke-miterlimit="10"/>
<path d="M142.355 82.1343C141.713 82.9186 141.364 83.6918 141.574 83.8604L148.917 89.7691L151.24 86.9277L143.897 81.0191C143.687 80.8504 142.997 81.35 142.356 82.1343H142.355Z" fill="url(#paint13_linear_1911_5460)"/>
<path d="M129.312 73.9886C129.303 73.9838 129.293 73.979 129.285 73.9727L129.309 73.9917L129.312 73.987V73.9886Z" fill="white"/>
<path d="M131.632 71.1524L131.607 71.1328C131.616 71.1394 131.622 71.1492 131.629 71.1573L131.632 71.1524Z" fill="white"/>
<path d="M122.755 66.3648C122.114 67.1491 121.764 67.9223 121.974 68.0909L136.657 79.905C136.413 79.7093 136.735 78.9139 137.376 78.1295C138.018 77.3452 138.734 76.8679 138.978 77.0636L124.296 65.2495C124.086 65.0809 123.396 65.5804 122.755 66.3648Z" fill="#D7F4FB"/>
<path d="M120.985 64.9409C120.344 65.7252 119.995 66.4984 120.205 66.6671L134.887 78.4812C134.643 78.2855 134.966 77.49 135.607 76.7057C136.248 75.9214 136.965 75.4441 137.209 75.6398L122.526 63.8257C122.316 63.6571 121.627 64.1566 120.985 64.9409Z" fill="url(#paint14_linear_1911_5460)"/>
<path d="M153.493 84.56C152.856 84.3213 150.969 85.8279 149.148 88.0568C147.238 90.3938 146.124 92.6402 146.661 93.0713C146.687 93.092 146.716 93.1063 146.746 93.1175L146.966 93.2941L147.115 93.1111C147.952 92.8852 149.546 91.5138 151.091 89.6206C152.637 87.7291 153.661 85.8979 153.711 85.0388L153.871 84.8416L153.504 84.5457L153.493 84.56Z" fill="white"/>
<path d="M151.348 89.833C153.259 87.4956 154.372 85.2509 153.836 84.8192C153.299 84.3876 151.316 85.9324 149.406 88.2698C147.496 90.6071 146.382 92.8519 146.919 93.2836C147.455 93.7152 149.438 92.1703 151.348 89.833Z" fill="url(#paint15_linear_1911_5460)"/>
<path d="M129.714 74.2677L130.735 73.0156" stroke="#264F85" stroke-width="0.159091" stroke-miterlimit="10"/>
<path d="M127.142 72.1958L128.164 70.9453" stroke="#264F85" stroke-width="0.159091" stroke-miterlimit="10"/>
<path d="M124.567 70.127L125.59 68.875" stroke="#264F85" stroke-width="0.159091" stroke-miterlimit="10"/>
<path d="M121.994 68.0567L123.017 66.8047" stroke="#264F85" stroke-width="0.159091" stroke-miterlimit="10"/>
<path d="M126.571 144.1C124.712 144.03 123.127 142.739 122.694 140.946C121.633 136.551 120.414 128.617 118.402 123.602C117.097 120.352 115.646 117.162 114.141 114C112.715 111.007 112.648 107.583 112.169 104.301L111.551 100.077C111.466 99.4952 111.382 98.8986 111.507 98.3243C111.675 97.5479 112.201 96.9036 112.711 96.2927C113.612 95.2157 114.514 94.1418 115.423 93.0711C115.285 89.9529 117.217 86.7441 120.182 85.7004C122.041 85.045 124.167 85.1229 125.851 84.1C125.851 84.1 126.179 81.502 128.716 79.0504C131.252 76.5972 135.326 69.8391 137.785 70.0538C140.245 70.2686 139.323 75.5536 136.479 79.0504C136.479 79.0504 135.249 83.0038 133.942 85.597C133.942 85.597 132.636 95.1266 131.868 96.9975C131.1 98.8684 132.089 104.775 136.863 104.817C137.457 104.822 138.143 104.581 138.77 104.279C139.866 103.749 140.841 103.002 141.665 102.107C142.983 100.677 145.244 97.8932 145.856 95.055C145.856 95.055 149.436 87.7018 155.046 88.2347C155.046 88.2347 158.658 87.7002 155.046 94.4886L150.916 102.144C150.916 102.144 149.661 105.033 146.355 110.372C143.233 115.414 142.627 121.147 144.758 128.846C146.133 133.817 145.404 135.816 145.139 136.465C144.084 139.048 138.794 144.564 126.572 144.098L126.571 144.1Z" fill="url(#paint16_linear_1911_5460)"/>
<path d="M123.614 91.7475L125.849 84.1016C125.849 84.1016 123.279 84.7968 117.78 94.9595" stroke="#23626A" stroke-width="0.159091" stroke-linecap="round" stroke-linejoin="round"/>
<path d="M136.926 23.8224C136.493 23.4756 136.544 22.8249 137.003 22.5115C137.376 22.257 137.63 21.9165 137.702 21.514L138.988 9.25923C139.119 8.11218 139.172 5.40923 137.502 5.11173C135.754 4.8015 134.933 7.37082 134.656 8.49241L131.594 20.4274C131.521 20.8283 131.638 21.2356 131.9 21.6031C132.22 22.0533 132.039 22.6817 131.513 22.8583C130.184 23.3038 129.221 24.1199 129.126 24.6481L123.799 54.1531C123.643 55.017 125.623 56.0908 128.224 56.5538C130.822 57.0151 133.056 56.6906 133.213 55.8267L138.54 26.3217C138.637 25.7935 138.018 24.6974 136.928 23.8208L136.926 23.8224Z" fill="url(#paint17_linear_1911_5460)"/>
<path d="M131.646 20.9938C131.697 21.2054 131.793 21.4106 131.933 21.6079C132.253 22.0581 132.072 22.6865 131.546 22.8631C130.357 23.2624 129.462 23.9576 129.219 24.4779L129.212 24.3538C129.204 24.3983 129.206 24.4429 129.212 24.489C129.186 24.5463 129.167 24.6004 129.158 24.6529L127.226 35.3565C127.226 35.3279 127.229 35.2992 127.234 35.2706L123.846 54.0306H123.851C123.849 54.0401 123.846 54.0465 123.844 54.0561C123.841 54.072 123.841 54.0879 123.84 54.1038L123.83 54.1579C123.759 54.5445 124.12 54.9724 124.77 55.3701V55.3813L124.827 55.4051C125.63 55.8808 126.852 56.3088 128.253 56.557C130.852 57.0183 133.086 56.6938 133.243 55.8299L138.373 27.4147C136.254 25.1508 134.007 23.0063 131.644 20.9922L131.646 20.9938Z" fill="url(#paint18_linear_1911_5460)"/>
<path d="M136.615 36.9412C136.459 37.8051 134.226 38.1296 131.626 37.6683C129.027 37.2069 127.045 36.1314 127.201 35.2676L123.813 54.0276H123.818C123.816 54.0371 123.813 54.0435 123.811 54.053C123.656 54.9169 125.636 55.9908 128.236 56.4537C130.835 56.9151 133.068 56.5905 133.226 55.7267C133.229 55.7124 133.229 55.6964 133.23 55.6805L136.613 36.9412H136.615Z" fill="url(#paint19_linear_1911_5460)"/>
<path d="M133.211 55.829C133.055 56.6929 130.822 57.0174 128.222 56.5561C125.621 56.0947 123.641 55.0192 123.797 54.1554C123.952 53.2915 126.404 51.7642 129.002 52.2256C131.601 52.687 133.365 54.9652 133.209 55.829H133.211Z" fill="url(#paint20_linear_1911_5460)"/>
<path d="M136.605 37.0718C136.761 36.2087 134.781 35.1343 132.182 34.6721C129.583 34.2099 127.349 34.535 127.193 35.3981C127.037 36.2612 129.018 37.3356 131.617 37.7978C134.216 38.26 136.449 37.9349 136.605 37.0718Z" fill="url(#paint21_linear_1911_5460)"/>
<g style="mix-blend-mode:screen" opacity="0.73">
<path d="M133.635 26.5715C132.861 26.4331 132.143 26.2485 131.516 26.0369C131.525 25.916 131.535 25.7919 131.545 25.7442C131.718 24.874 132.24 24.1262 132.959 23.5965C133.861 22.9315 133.752 21.899 133.586 21.296C133.485 20.9333 133.47 20.5546 133.554 20.1887C134.132 17.6306 136.292 8.07555 136.428 7.23555C136.566 6.3876 137.501 5.11328 137.501 5.11328C136.321 5.31055 135.917 6.6326 135.917 6.6326C135.917 6.6326 132.616 19.7337 132.556 20.2858C132.497 20.8378 132.758 20.9396 132.71 21.9642C132.704 22.0978 132.683 22.2235 132.654 22.3396C132.521 22.8615 132.136 23.2783 131.652 23.5201C130.487 24.1056 130.174 24.9471 130.092 25.4196C129.584 25.1285 129.258 24.8246 129.188 24.5415C129.146 24.6146 129.117 24.6926 129.103 24.7737C129.023 25.2208 129.372 25.7044 130.015 26.1435L124.737 55.3796L125.945 55.8537L131.197 26.7656C131.857 27.0376 132.636 27.2667 133.485 27.4162C136.083 27.8776 138.338 27.4449 138.517 26.4474C138.532 26.3662 138.556 26.2437 138.543 26.161C138.115 26.7846 136.026 26.9978 133.637 26.5731L133.635 26.5715Z" fill="#BEF5FF"/>
</g>
<g style="mix-blend-mode:screen" opacity="0.53">
<path d="M133.948 40.9985C134.351 40.9985 134.678 40.6744 134.678 40.2746C134.678 39.8749 134.351 39.5508 133.948 39.5508C133.545 39.5508 133.219 39.8749 133.219 40.2746C133.219 40.6744 133.545 40.9985 133.948 40.9985Z" fill="#BEF5FF"/>
</g>
<g style="mix-blend-mode:screen" opacity="0.53">
<path d="M127.608 47.5377C128.104 47.5377 128.506 47.1388 128.506 46.6468C128.506 46.1547 128.104 45.7559 127.608 45.7559C127.112 45.7559 126.71 46.1547 126.71 46.6468C126.71 47.1388 127.112 47.5377 127.608 47.5377Z" fill="#BEF5FF"/>
</g>
<path d="M158.335 49.9595C158.658 49.2388 158.659 48.4211 158.342 47.7163L156.663 43.992C156.513 43.6595 156.516 43.2713 156.671 42.9324L158.624 38.6672L144.402 32.2559L142.449 36.5211C142.293 36.86 142.002 37.1177 141.651 37.2243L137.719 38.419C136.975 38.6449 136.357 39.1843 136.022 39.8986C134.904 42.2818 132.45 47.6113 132.45 47.6113C131.024 50.7231 134.88 55.5054 141.061 58.2927C147.241 61.0784 153.407 60.8143 154.832 57.7024C154.832 57.7024 157.263 52.3634 158.337 49.9595H158.335Z" fill="url(#paint22_linear_1911_5460)"/>
<path d="M136.02 39.8997C134.902 42.2829 132.448 47.6125 132.448 47.6125C131.022 50.7243 134.878 55.5065 141.059 58.2938C147.239 61.0795 153.405 60.8154 154.83 57.7036C154.83 57.7036 157.261 52.3645 158.335 49.9606L158.449 49.3815C157.742 50.9263 152.23 49.9511 146.136 47.2036C140.044 44.4561 135.677 40.9784 136.384 39.4336L136.02 39.8997Z" fill="url(#paint23_linear_1911_5460)"/>
<path d="M160.827 37.5437L143.804 29.8691L142.221 33.3262L142.228 33.3294C142.217 33.3485 142.204 33.366 142.194 33.3866C141.675 34.521 145.066 37.1571 149.766 39.2762C154.467 41.3953 158.698 42.1939 159.217 41.0612C159.227 41.0405 159.232 41.0198 159.238 40.9975L159.245 41.0007L160.827 37.5437Z" fill="url(#paint24_linear_1911_5460)"/>
<path d="M160.819 37.5377C161.38 36.3129 158.024 33.6023 153.323 31.4834C148.622 29.3645 144.357 28.6397 143.796 29.8644C143.236 31.0892 146.592 33.7997 151.293 35.9187C155.994 38.0376 160.259 38.7624 160.819 37.5377Z" fill="#00A8E1"/>
<path d="M142.292 36.8633C142.292 36.8633 144.561 39.4708 148.798 41.3926C152.854 43.2333 156.516 43.2746 156.516 43.2746" stroke="#AC4DD7" stroke-width="0.159091" stroke-linecap="round" stroke-linejoin="round"/>
<g style="mix-blend-mode:soft-light">
<path d="M149.506 45.5562C148.82 44.8753 147.635 44.9453 146.859 45.7137C146.819 45.7534 146.78 45.798 146.742 45.8457C146.742 45.7853 146.739 45.7264 146.732 45.6691C146.61 44.5873 145.729 43.7982 144.764 43.9064C143.798 44.0146 143.115 44.9771 143.237 46.0589C143.244 46.1146 143.255 46.1734 143.268 46.2323C143.22 46.1941 143.171 46.1607 143.123 46.1305C142.195 45.5514 141.023 45.7423 140.507 46.5584C139.991 47.3746 140.323 48.5041 141.251 49.0832C141.299 49.1134 141.352 49.1405 141.406 49.1675C141.347 49.1819 141.289 49.1978 141.235 49.2153C140.199 49.5748 139.62 50.6025 139.941 51.5125C140.262 52.4225 141.36 52.868 142.396 52.51C142.45 52.4909 142.505 52.4671 142.559 52.4416C142.533 52.4957 142.509 52.5514 142.49 52.6039C142.128 53.63 142.577 54.7214 143.492 55.0396C144.409 55.3578 145.445 54.7834 145.807 53.7573C145.826 53.7032 145.841 53.6475 145.855 53.5887C145.883 53.6428 145.91 53.6953 145.94 53.743C146.524 54.6641 147.662 54.9966 148.485 54.4844C149.307 53.9721 149.501 52.8091 148.918 51.888C148.887 51.8403 148.852 51.7925 148.813 51.7448C148.873 51.7575 148.932 51.7687 148.988 51.775C150.078 51.8975 151.05 51.2198 151.159 50.2637C151.268 49.3059 150.473 48.4309 149.384 48.3084C149.328 48.3021 149.269 48.3005 149.206 48.3005C149.254 48.2623 149.299 48.2241 149.339 48.1828C150.115 47.4144 150.187 46.2387 149.501 45.5562H149.506Z" fill="white"/>
</g>
<defs>
<linearGradient id="paint0_linear_1911_5460" x1="63.2842" y1="2.31801" x2="114.416" y2="191.397" gradientUnits="userSpaceOnUse">
<stop stop-color="#0088C3"/>
<stop offset="1" stop-color="#0F1F42"/>
</linearGradient>
<linearGradient id="paint1_linear_1911_5460" x1="37.6563" y1="119.995" x2="90.8891" y2="117.872" gradientUnits="userSpaceOnUse">
<stop stop-color="#F0F4F8"/>
<stop offset="0.45" stop-color="#00DC86"/>
<stop offset="1" stop-color="#23626A"/>
</linearGradient>
<linearGradient id="paint2_linear_1911_5460" x1="116.389" y1="49.0363" x2="83.8886" y2="49.3998" gradientUnits="userSpaceOnUse">
<stop stop-color="#A37624"/>
<stop offset="0.44" stop-color="#AB8360"/>
<stop offset="1" stop-color="#F9CCA7"/>
</linearGradient>
<linearGradient id="paint3_linear_1911_5460" x1="58.0793" y1="41.0087" x2="84.6171" y2="44.1005" gradientUnits="userSpaceOnUse">
<stop stop-color="#A37624"/>
<stop offset="0.44" stop-color="#AB8360"/>
<stop offset="1" stop-color="#F9CCA7"/>
</linearGradient>
<linearGradient id="paint4_linear_1911_5460" x1="-19.5844" y1="50.3747" x2="134.712" y2="207.303" gradientUnits="userSpaceOnUse">
<stop stop-color="#F0F4F8"/>
<stop offset="0.45" stop-color="#00DC86"/>
<stop offset="1" stop-color="#23626A"/>
</linearGradient>
<linearGradient id="paint5_linear_1911_5460" x1="19.9491" y1="6.40442" x2="98.3195" y2="81.5541" gradientUnits="userSpaceOnUse">
<stop stop-color="#F0F4F8"/>
<stop offset="0.45" stop-color="#00DC86"/>
<stop offset="1" stop-color="#23626A"/>
</linearGradient>
<linearGradient id="paint6_linear_1911_5460" x1="10.1586" y1="46.9037" x2="16.5023" y2="78.8696" gradientUnits="userSpaceOnUse">
<stop offset="0.41" stop-color="#0088C3"/>
<stop offset="1" stop-color="#0F1F42"/>
</linearGradient>
<linearGradient id="paint7_linear_1911_5460" x1="4.16898" y1="67.7866" x2="21.0634" y2="77.8281" gradientUnits="userSpaceOnUse">
<stop offset="0.22" stop-color="white"/>
<stop offset="0.56" stop-color="#FEE2CC"/>
<stop offset="1" stop-color="#EAB892"/>
</linearGradient>
<linearGradient id="paint8_linear_1911_5460" x1="-0.776705" y1="82.0769" x2="37.8803" y2="77.9076" gradientUnits="userSpaceOnUse">
<stop offset="0.2" stop-color="#BEF5FF"/>
<stop offset="0.76" stop-color="#39C7DF"/>
</linearGradient>
<linearGradient id="paint9_linear_1911_5460" x1="101.818" y1="27.2242" x2="100.771" y2="-10.1245" gradientUnits="userSpaceOnUse">
<stop offset="0.3" stop-color="white"/>
<stop offset="0.46" stop-color="#FFCE4E"/>
<stop offset="0.94" stop-color="#C69024"/>
</linearGradient>
<linearGradient id="paint10_linear_1911_5460" x1="115.715" y1="63.3391" x2="124.127" y2="59.8202" gradientUnits="userSpaceOnUse">
<stop offset="0.2" stop-color="#BEF5FF"/>
<stop offset="0.76" stop-color="#39C7DF"/>
</linearGradient>
<linearGradient id="paint11_linear_1911_5460" x1="120.511" y1="64.8974" x2="123.375" y2="64.8974" gradientUnits="userSpaceOnUse">
<stop offset="0.2" stop-color="#BEF5FF"/>
<stop offset="0.76" stop-color="#39C7DF"/>
</linearGradient>
<linearGradient id="paint12_linear_1911_5460" x1="139.163" y1="82.4462" x2="146.329" y2="82.4462" gradientUnits="userSpaceOnUse">
<stop offset="0.2" stop-color="#BEF5FF"/>
<stop offset="0.76" stop-color="#39C7DF"/>
</linearGradient>
<linearGradient id="paint13_linear_1911_5460" x1="140.95" y1="83.1127" x2="156.953" y2="89.902" gradientUnits="userSpaceOnUse">
<stop offset="0.2" stop-color="#BEF5FF"/>
<stop offset="0.76" stop-color="#39C7DF"/>
</linearGradient>
<linearGradient id="paint14_linear_1911_5460" x1="120.838" y1="68.2866" x2="141.061" y2="75.7582" gradientUnits="userSpaceOnUse">
<stop offset="0.2" stop-color="#BEF5FF"/>
<stop offset="0.76" stop-color="#39C7DF"/>
</linearGradient>
<linearGradient id="paint15_linear_1911_5460" x1="146.787" y1="89.0462" x2="153.975" y2="89.0462" gradientUnits="userSpaceOnUse">
<stop offset="0.2" stop-color="#BEF5FF"/>
<stop offset="0.76" stop-color="#39C7DF"/>
</linearGradient>
<linearGradient id="paint16_linear_1911_5460" x1="128.142" y1="73.2309" x2="152.664" y2="173.029" gradientUnits="userSpaceOnUse">
<stop stop-color="#BBFFEB"/>
<stop offset="0.45" stop-color="#00DC86"/>
<stop offset="1" stop-color="#23626A"/>
</linearGradient>
<linearGradient id="paint17_linear_1911_5460" x1="124.56" y1="9.00627" x2="143.435" y2="69.8382" gradientUnits="userSpaceOnUse">
<stop offset="0.2" stop-color="#BEF5FF"/>
<stop offset="0.76" stop-color="#39C7DF"/>
</linearGradient>
<linearGradient id="paint18_linear_1911_5460" x1="123.822" y1="38.8804" x2="138.375" y2="38.8804" gradientUnits="userSpaceOnUse">
<stop offset="0.2" stop-color="#BEF5FF"/>
<stop offset="0.76" stop-color="#39C7DF"/>
</linearGradient>
<linearGradient id="paint19_linear_1911_5460" x1="125.924" y1="38.2044" x2="134.399" y2="53.1231" gradientUnits="userSpaceOnUse">
<stop stop-color="#0088C3"/>
<stop offset="1" stop-color="#0F1F42"/>
</linearGradient>
<linearGradient id="paint20_linear_1911_5460" x1="128.687" y1="52.3338" x2="128.29" y2="58.2476" gradientUnits="userSpaceOnUse">
<stop stop-color="#0088C3"/>
<stop offset="1" stop-color="#0F1F42"/>
</linearGradient>
<linearGradient id="paint21_linear_1911_5460" x1="142.862" y1="32.9576" x2="120.748" y2="39.6588" gradientUnits="userSpaceOnUse">
<stop stop-color="#0088C3"/>
<stop offset="1" stop-color="#0F1F42"/>
</linearGradient>
<linearGradient id="paint22_linear_1911_5460" x1="139.778" y1="33.2613" x2="150.966" y2="55.8084" gradientUnits="userSpaceOnUse">
<stop offset="0.16" stop-color="#F0F4F8"/>
<stop offset="0.4" stop-color="#DE97FF"/>
<stop offset="0.88" stop-color="#A827D8"/>
</linearGradient>
<linearGradient id="paint23_linear_1911_5460" x1="151.698" y1="32.4384" x2="141.498" y2="59.2723" gradientUnits="userSpaceOnUse">
<stop offset="0.14" stop-color="#F0F4F8"/>
<stop offset="0.52" stop-color="#DE97FF"/>
<stop offset="0.83" stop-color="#A827D8"/>
</linearGradient>
<linearGradient id="paint24_linear_1911_5460" x1="142.141" y1="35.7237" x2="160.827" y2="35.7237" gradientUnits="userSpaceOnUse">
<stop stop-color="#0088C3"/>
<stop offset="1" stop-color="#0F1F42"/>
</linearGradient>
</defs>
</svg>
