<svg width="157" height="144" viewBox="0 0 157 144" fill="none" xmlns="http://www.w3.org/2000/svg">
<g clip-path="url(#clip0_1911_5587)">
<path d="M83.0857 135.998C119.553 135.998 149.116 106.435 149.116 69.9675C149.116 33.5001 119.553 3.9375 83.0857 3.9375C46.6183 3.9375 17.0557 33.5001 17.0557 69.9675C17.0557 106.435 46.6183 135.998 83.0857 135.998Z" fill="url(#paint0_linear_1911_5587)"/>
<path d="M72.9734 123.135C72.4934 122.008 71.7799 120.927 70.9417 119.939C72.1309 120.453 73.3746 120.827 74.5967 120.976C80.0641 121.641 82.8795 118.999 83.3208 115.371C83.7621 111.743 81.6631 108.502 76.1957 107.836C74.9793 107.689 73.6869 107.766 72.4118 107.998C73.4519 107.224 74.3976 106.336 75.1383 105.352C78.448 100.95 77.5682 97.1908 74.6469 94.9944C71.7255 92.7979 67.8685 92.9957 64.5588 97.3971C63.8224 98.3771 63.2435 99.5348 62.8066 100.754C62.6576 99.466 62.3595 98.2037 61.8781 97.0704C59.7204 92.0028 56.0253 90.8852 52.6612 92.318C49.2985 93.7493 47.542 97.1879 49.6983 102.256C50.1782 103.383 50.8918 104.463 51.7299 105.452C50.5407 104.938 49.2971 104.564 48.075 104.415C42.6076 103.75 39.7922 106.392 39.3509 110.02C38.9096 113.647 41.0086 116.888 46.476 117.555C47.6924 117.702 48.9848 117.625 50.2599 117.393C49.2197 118.166 48.2741 119.055 47.5334 120.039C44.2237 124.44 45.1034 128.2 48.0248 130.396C50.9462 132.593 54.8032 132.395 58.1128 127.994C58.8493 127.014 59.4281 125.856 59.8651 124.637C60.0141 125.925 60.3121 127.187 60.7935 128.32C62.9513 133.388 66.6463 134.505 70.0105 133.073C73.3746 131.64 75.1297 128.203 72.9734 123.135Z" fill="white"/>
<path d="M58.5513 114.058C59.1653 114.058 59.6631 113.56 59.6631 112.946C59.6631 112.332 59.1653 111.834 58.5513 111.834C57.9372 111.834 57.4395 112.332 57.4395 112.946C57.4395 113.56 57.9372 114.058 58.5513 114.058Z" fill="#FFD066"/>
<path d="M62.2905 112.372C62.9046 112.372 63.4023 111.874 63.4023 111.26C63.4023 110.646 62.9046 110.148 62.2905 110.148C61.6765 110.148 61.1787 110.646 61.1787 111.26C61.1787 111.874 61.6765 112.372 62.2905 112.372Z" fill="white"/>
<path d="M62.2485 116.448C62.8626 116.448 63.3604 115.95 63.3604 115.336C63.3604 114.722 62.8626 114.225 62.2485 114.225C61.6345 114.225 61.1367 114.722 61.1367 115.336C61.1367 115.95 61.6345 116.448 62.2485 116.448Z" fill="#FFD066"/>
<path d="M69.7085 102.676C68.2887 104.627 64.9733 108.534 64.5922 108.256C64.2111 107.978 66.9075 103.621 68.3274 101.67C69.7472 99.7185 71.2072 98.3617 71.5898 98.6396C71.9723 98.9176 71.1298 100.724 69.71 102.676H69.7085Z" fill="white"/>
<path opacity="0.2" d="M52.5623 123.335C53.9822 121.383 57.2976 117.476 57.6787 117.754C58.0598 118.032 55.3633 122.389 53.9435 124.341C52.5236 126.292 51.0636 127.649 50.6811 127.371C50.2985 127.093 51.141 125.286 52.5609 123.335H52.5623Z" fill="#F49C95"/>
<path d="M74.2933 115.663C71.902 115.336 66.8916 114.267 66.9547 113.799C67.0177 113.33 72.1327 113.643 74.5239 113.969C76.9152 114.296 78.8022 114.939 78.7377 115.406C78.6732 115.873 76.6831 115.988 74.2933 115.663Z" fill="white"/>
<path opacity="0.2" d="M47.9773 110.349C50.3685 110.676 55.3789 111.745 55.3158 112.213C55.2528 112.682 50.1379 112.369 47.7466 112.043C45.3553 111.716 43.4684 111.073 43.5329 110.606C43.5973 110.138 45.5874 110.024 47.9773 110.349Z" fill="#F49C95"/>
<path d="M65.4735 125.708C64.5494 123.479 62.9476 118.611 63.3831 118.431C63.8187 118.25 66.1283 122.824 67.0524 125.055C67.9766 127.284 68.372 129.238 67.935 129.419C67.4994 129.599 66.3962 127.939 65.4735 125.709V125.708Z" fill="white"/>
<path opacity="0.2" d="M56.7977 100.3C57.7218 102.53 59.3236 107.397 58.888 107.577C58.4525 107.758 56.1429 103.185 55.2188 100.954C54.2946 98.7244 53.8992 96.7701 54.3362 96.5896C54.7732 96.4091 55.875 98.0696 56.7977 100.299V100.3Z" fill="#F49C95"/>
<path d="M55.4659 97.4189C55.4659 97.4189 46.2934 93.5089 42.8218 83.5899C39.3502 73.671 46.7891 61.2733 46.4581 51.3544C46.1272 41.4354 46.2432 10.9105 81.2311 8.3201C116.219 5.72824 118.203 24.7395 117.708 28.0463C117.212 31.3531 134.901 43.255 134.57 54.1654C134.239 65.0759 129.494 103.752 107.896 98.631L55.4659 97.4203V97.4189Z" fill="url(#paint1_linear_1911_5587)"/>
<path d="M81.2321 8.31986C46.2442 10.9117 46.1281 41.4352 46.4591 51.3541C46.7901 61.2731 39.3512 73.6707 42.8228 83.5897C45.9505 92.5258 53.7046 96.5848 55.209 97.3012C56.9154 96.5261 57.9584 95.9 57.9584 95.9C57.9584 95.9 49.9135 86.4853 48.8676 76.4918C47.8231 66.4984 47.6927 58.6153 65.5033 39.0553C83.3139 19.4954 117.709 28.046 117.709 28.046C118.204 24.7392 116.221 5.72944 81.2321 8.31986Z" fill="url(#paint2_linear_1911_5587)"/>
<path d="M60.8457 135.183C60.8457 135.183 63.6482 123.485 60.8457 108.252H102.176C102.176 108.252 99.9542 125.435 103.25 133.721C103.25 133.721 96.5471 149.806 82.0476 149.684C67.5481 149.563 60.8457 135.182 60.8457 135.182V135.183Z" fill="#FEE2CC"/>
<g style="mix-blend-mode:multiply" opacity="0.7">
<path d="M60.8457 108.252C61.5277 111.957 61.8773 115.452 62.0163 118.621C62.0163 118.621 67.5453 133.983 82.6365 133.983C94.5742 133.983 101.46 118.622 101.46 118.622C101.569 112.953 102.176 108.252 102.176 108.252H60.8457Z" fill="#EAB892"/>
</g>
<path d="M76.1675 135.536C76.1675 135.536 85.8429 130.709 92.4078 129.233C98.9726 127.759 101.933 124.942 107.894 124.138C113.856 123.333 116.404 119.311 120.695 113.947C124.986 108.583 128.74 99.3313 133.969 95.0402C133.969 95.0402 135.31 94.5044 133.969 84.4464C132.628 74.3899 136.919 61.2487 135.713 56.0191C135.713 56.0191 123.377 53.4717 117.745 64.4666C117.745 64.4666 119.219 77.8271 118.55 80.4662C117.879 83.1054 117.745 86.6672 117.745 86.6672C117.745 86.6672 112.064 89.6387 109.631 96.8226C109.631 96.8226 107.887 100.657 108.214 104.809C108.214 104.809 103.962 108.742 103.247 111.802C103.247 111.802 99.4455 112.712 94.9609 117.579L87.0263 120.701C87.0263 120.701 72.4624 118.562 67.9735 122.4C67.9735 122.4 66.7242 123.18 66.7242 123.943C66.7242 123.943 65.9935 124.773 66.7242 124.873C67.4549 124.973 72.0024 125.006 72.2689 124.873C72.2689 124.873 81.4658 125.105 82.5948 125.836C82.5948 125.836 73.1988 130.167 75.1029 134.557L75.4009 135.094C75.4009 135.094 75.0814 135.385 75.4912 135.753C75.9124 135.677 76.1675 135.536 76.1675 135.536Z" fill="#F9CCA7" stroke="#A86436" stroke-width="0.143276" stroke-linecap="round" stroke-linejoin="round"/>
<path d="M112.52 101.535C112.52 101.535 112.292 103.892 111.379 104.727C110.466 105.563 108.643 107.865 108.415 108.881C108.415 108.881 106.579 110.097 105.8 110.658C104.599 111.519 101.737 116.182 102.787 120.273C103.038 121.25 103.701 122.087 104.638 122.462C104.999 122.607 105.392 122.681 105.763 122.581C106.918 122.27 108.873 119.293 109.273 119.026C109.673 118.76 113.361 114.894 113.538 114.361C113.716 113.828 121.446 107.653 122.691 107.609" stroke="#A86436" stroke-width="0.143276" stroke-linecap="round" stroke-linejoin="round"/>
<g style="mix-blend-mode:multiply" opacity="0.7">
<path d="M119.675 61.418C118.953 62.2962 118.282 63.3049 117.688 64.4654C117.688 64.4654 119.162 77.8259 118.493 80.465C117.823 83.1042 117.688 86.666 117.688 86.666C117.688 86.666 112.007 89.6375 109.574 96.8214C109.574 96.8214 109.136 97.7842 108.74 99.2671L108.418 102.329C109.528 96.7368 113.918 91.8311 116.424 90.5789C119.294 89.1447 119.4 86.0628 119.4 86.0628C122.417 81.3548 120.452 66.4656 119.675 61.418Z" fill="#EAB892"/>
</g>
<g style="mix-blend-mode:multiply" opacity="0.7">
<path d="M76.9516 133.907C78.1337 131.592 80.3544 129.831 82.8789 129.206C83.2386 129.117 83.644 129.024 83.8418 128.709C84.1025 128.294 83.8819 127.657 84.2386 127.319C84.5295 127.044 84.9951 127.159 85.392 127.106C86.0984 127.011 86.5769 126.371 87.0569 125.845C88.2504 124.538 89.9295 123.686 91.689 123.492C91.9941 123.459 92.3194 123.438 92.5673 123.257C92.765 123.113 92.8853 122.888 93.0171 122.681C93.6218 121.734 94.5817 121.08 95.5245 120.466C97.1177 119.432 98.7381 118.439 100.386 117.493L100.022 117.309C100.022 117.309 95.9414 118.558 91.176 121.985C91.176 121.985 82.952 125.199 79.0764 127.867C75.2008 130.534 74.2695 132.964 75.1062 134.555C75.943 136.145 76.9545 133.904 76.9545 133.904L76.9516 133.907Z" fill="#EAB892"/>
</g>
<g style="mix-blend-mode:multiply" opacity="0.7">
<path d="M66.7256 123.942C66.7256 123.942 69.508 121.145 75.315 121.565C81.1219 121.985 84.9918 122.698 88.2341 121.121C91.4764 119.543 95.6372 118.192 95.6372 118.192C95.6372 118.192 100.319 112.335 103.248 111.801C103.248 111.801 97.8035 113.83 94.9623 117.578L87.0277 120.7C87.0277 120.7 78.7263 119.37 72.1772 120.639C72.1772 120.639 67.1468 121.806 66.7256 123.941V123.942Z" fill="#EAB892"/>
</g>
<path d="M111.516 112.695C111.433 113.032 111.454 113.406 111.639 113.7C111.824 113.993 112.189 114.181 112.528 114.101C112.866 114.021 113.114 113.632 112.995 113.307" stroke="#A86436" stroke-width="0.143276" stroke-linecap="round" stroke-linejoin="round"/>
<path d="M94.3226 128.344C94.1679 127.98 94.4601 127.551 94.8298 127.412C95.1994 127.274 95.6121 127.342 96.0004 127.412" stroke="#A86436" stroke-width="0.143276" stroke-linecap="round" stroke-linejoin="round"/>
<path d="M117.723 86.662C118.068 86.5488 118.413 86.4342 118.769 86.3582C119.747 86.1476 120.762 86.2293 121.759 86.3109" stroke="#A86436" stroke-width="0.143276" stroke-linecap="round" stroke-linejoin="round"/>
<path d="M106.156 122.712C106.156 122.712 105.591 120.928 104.379 120.245C104.379 120.245 105.342 116.643 107.454 116.829C107.454 116.829 107.972 117.014 108.432 117.438C108.905 117.874 109.032 118.571 108.766 119.156C108.3 120.18 107.335 122.022 106.156 122.712Z" fill="#FEE2CC"/>
<path d="M75.0603 134.776C75.0603 134.776 77.9817 132.423 79.3127 132.556C79.3127 132.556 80.2139 132.647 79.9632 133.572L75.2996 135.905C75.2996 135.905 74.7078 135.397 75.0603 134.776Z" fill="#FEE2CC"/>
<path d="M66.4011 124.469C66.4011 124.469 66.4083 123.725 68.927 123.654C71.4458 123.582 72.2124 123.821 72.3083 124.062C72.4043 124.303 72.4788 124.84 72.2697 124.876C72.0605 124.911 66.7249 124.876 66.7249 124.876C66.7249 124.876 66.3309 124.926 66.3997 124.47L66.4011 124.469Z" fill="#FEE2CC"/>
<path d="M52.7173 82.5948L55.855 99.5142C56.398 102.446 57.6359 105.209 59.4957 107.539C60.7293 109.085 62.3827 110.797 64.5418 112.389C70.601 116.853 75.8635 120.839 81.1245 120.839C88.4588 120.839 96.4321 113.664 96.4321 113.664C96.4321 113.664 105.84 107.764 107.115 102.981C107.994 99.6847 109.251 87.6796 109.949 80.5345C110.257 77.3695 109.519 74.1974 107.876 71.4766C107 70.0281 106.132 68.2744 105.681 66.4677C104.564 62.0032 101.057 51.9581 91.3301 47.0151C81.6031 42.0721 81.2048 38.8828 81.2048 38.8828C81.2048 38.8828 59.2807 47.8117 56.57 58.1763C56.57 58.1763 56.3694 63.1824 56.0914 66.1482C55.9152 68.0351 54.7747 70.637 53.4738 74.077C52.4465 76.7921 52.19 79.7393 52.7187 82.5948H52.7173Z" fill="#FEE2CC"/>
<path d="M102.176 73.5038C102.176 73.5038 100.51 75.9036 91.4967 73.5038C91.4967 73.5038 90.0267 73.3462 88.9492 74.0367C88.9492 74.0367 90.6814 73.5396 92.2001 74.6657C93.7189 75.7919 102.519 78.1846 105.8 74.5697C105.8 74.5697 103.007 74.286 102.175 73.5023L102.176 73.5038Z" fill="#0B1E44"/>
<path opacity="0.34" d="M102.177 73.504C102.177 73.504 102.112 68.5366 97.3756 68.187C90.143 67.654 88.5928 74.2204 88.5928 74.2204C88.5928 74.2204 90.5571 73.0326 93.5616 73.9997C96.5661 74.9683 101.224 74.9468 102.177 73.504Z" fill="#F49C95"/>
<path d="M86.75 64.1622C86.75 64.1622 86.4605 66.6681 87.5208 66.9088C88.581 67.1495 98.6504 64.5963 98.6504 64.5963C98.6504 64.5963 101.493 63.8742 104.529 66.138C104.529 66.138 104.131 63.5848 100.626 62.0904C98.3238 61.109 93.0971 62.5217 90.9379 63.1808C90.2101 63.4028 89.4751 63.5934 88.73 63.7481L86.75 64.1622Z" fill="#A86436"/>
<path d="M60.31 73.5038C60.31 73.5038 61.9763 75.9036 70.9897 73.5038C70.9897 73.5038 72.4597 73.3462 73.5372 74.0367C73.5372 74.0367 71.805 73.5396 70.2862 74.6657C68.7675 75.7919 59.9675 78.1846 56.6865 74.5697C56.6865 74.5697 59.479 74.286 60.3114 73.5023L60.31 73.5038Z" fill="#0B1E44"/>
<path opacity="0.34" d="M60.3096 73.504C60.3096 73.504 60.374 68.5366 65.1107 68.187C72.3433 67.654 73.8935 74.2204 73.8935 74.2204C73.8935 74.2204 71.9292 73.0326 68.9247 73.9997C65.9202 74.9683 61.2624 74.9468 60.3096 73.504Z" fill="#F49C95"/>
<path d="M75.7361 64.1622C75.7361 64.1622 76.0255 66.6681 74.9653 66.9088C73.905 67.1495 63.8356 64.5963 63.8356 64.5963C63.8356 64.5963 60.993 63.8742 57.957 66.138C57.957 66.138 58.3553 63.5848 61.8599 62.0904C64.1623 61.109 69.389 62.5217 71.5482 63.1808C72.276 63.4028 73.011 63.5934 73.756 63.7481L75.7361 64.1622Z" fill="#A86436"/>
<path d="M71.5842 100.51C72.7375 101.637 75.2635 103.847 77.6533 104.195C78.0058 104.246 78.364 104.234 78.7179 104.183C79.3855 104.087 81.1134 103.931 84.1895 104.242C84.1895 104.242 88.1225 104.395 91.0711 100.514C91.0711 100.514 91.8992 98.8579 88.8976 98.4954C86.1152 98.1601 75.1976 96.1944 71.6386 99.0742C71.193 99.4338 71.1744 100.109 71.5842 100.508V100.51Z" fill="#F49C95"/>
<path d="M83.2365 75.6788C83.2665 74.7289 83.1347 73.7804 83.1419 72.8305C83.1505 71.8806 83.3153 70.892 83.8726 70.1226C84.4514 69.3231 85.3741 68.8574 86.261 68.4219" stroke="#A86436" stroke-width="0.143276" stroke-linecap="round" stroke-linejoin="round"/>
<path d="M78.4458 89.4286C78.4458 89.4286 75.4356 90.1378 74.6089 88.3469C73.7822 86.5559 76.8412 85.5487 77.8111 84.8395C78.7811 84.1303 79.3743 82.8623 80.9618 82.7505C82.5493 82.6388 83.184 84.0185 84.0422 84.6532C84.9004 85.288 87.5868 85.553 87.6241 87.7924C87.6585 89.8713 85.0365 89.7653 82.9719 89.2051C80.9087 88.6449 78.4458 89.4286 78.4458 89.4286Z" fill="#F9CCA7"/>
<path d="M77.4002 88.483C77.1409 88.4529 76.9088 88.258 76.8314 88.0087C76.754 87.7594 76.8371 87.4686 77.0348 87.2966C77.2168 87.1376 77.4704 87.0875 77.7111 87.086C78.3301 87.0803 78.9461 87.3625 79.343 87.8368C79.3516 87.8482 79.3616 87.8597 79.3645 87.8726C79.376 87.9213 79.3129 87.9514 79.2642 87.9629C78.5808 88.1262 78.161 88.5718 77.3988 88.4815L77.4002 88.483Z" fill="#443122"/>
<path d="M84.9393 88.483C85.1986 88.4529 85.4307 88.258 85.5081 88.0087C85.5855 87.7594 85.5024 87.4686 85.3047 87.2966C85.1227 87.1376 84.8691 87.0875 84.6284 87.086C84.0094 87.0803 83.3934 87.3625 82.9965 87.8368C82.9879 87.8482 82.9779 87.8597 82.975 87.8726C82.9635 87.9213 83.0266 87.9514 83.0753 87.9629C83.7587 88.1262 84.1785 88.5718 84.9407 88.4815L84.9393 88.483Z" fill="#443122"/>
<path d="M75.4544 89.2197C75.4544 89.2197 71.841 87.6379 76.1693 82.4141" stroke="#A86436" stroke-width="0.143276" stroke-linecap="round" stroke-linejoin="round"/>
<path d="M86.3174 89.4337C86.3174 89.4337 91.0555 88.2129 86.3174 81.6094" stroke="#A86436" stroke-width="0.143276" stroke-linecap="round" stroke-linejoin="round"/>
<path d="M81.1728 75.2707C80.5094 75.1818 79.932 75.7678 79.7157 76.4011C78.8804 78.8382 78.0852 82.413 77.8115 84.8386C77.8115 84.8386 78.823 87.0866 81.0467 87.0866C83.5655 87.0866 84.0426 84.6524 84.0426 84.6524C83.5368 82.668 83.2617 75.5501 81.1728 75.2721V75.2707Z" fill="#FCE7D9"/>
<path opacity="0.2" d="M59.3671 89.5643C61.9333 89.5643 64.0136 87.4841 64.0136 84.9179C64.0136 82.3518 61.9333 80.2715 59.3671 80.2715C56.801 80.2715 54.7207 82.3518 54.7207 84.9179C54.7207 87.4841 56.801 89.5643 59.3671 89.5643Z" fill="#F49C95"/>
<path opacity="0.2" d="M103.25 89.5643C105.816 89.5643 107.896 87.4841 107.896 84.9179C107.896 82.3518 105.816 80.2715 103.25 80.2715C100.684 80.2715 98.6035 82.3518 98.6035 84.9179C98.6035 87.4841 100.684 89.5643 103.25 89.5643Z" fill="#F49C95"/>
<path d="M81.2326 107.737C83.0114 107.737 84.4534 107.08 84.4534 106.27C84.4534 105.46 83.0114 104.803 81.2326 104.803C79.4537 104.803 78.0117 105.46 78.0117 106.27C78.0117 107.08 79.4537 107.737 81.2326 107.737Z" fill="#F9CCA7"/>
<path d="M81.2321 94.6233C82.1548 94.6233 82.9027 93.7182 82.9027 92.6017C82.9027 91.4852 82.1548 90.5801 81.2321 90.5801C80.3095 90.5801 79.5615 91.4852 79.5615 92.6017C79.5615 93.7182 80.3095 94.6233 81.2321 94.6233Z" fill="#F9CCA7"/>
<path d="M41.5081 89.0043C45.1402 92.0274 44.8966 95.4675 44.5928 97.1839C44.4152 98.1883 43.6071 98.9491 42.5942 99.0666C40.862 99.2686 37.8517 98.939 34.6123 95.5004C29.5819 90.1605 30.2667 79.3203 30.2667 79.3203C30.2667 79.3203 35.949 84.3765 41.5096 89.0043H41.5081Z" fill="#00DC86"/>
<path opacity="0.51" d="M82.0472 84.4108C82.5575 84.4108 82.9713 83.997 82.9713 83.4866C82.9713 82.9762 82.5575 82.5625 82.0472 82.5625C81.5368 82.5625 81.123 82.9762 81.123 83.4866C81.123 83.997 81.5368 84.4108 82.0472 84.4108Z" fill="white"/>
<path d="M82.5977 125.846L91.1756 121.998C91.1756 121.998 96.8479 117.915 100.051 117.309" stroke="#A86436" stroke-width="0.143276" stroke-linecap="round" stroke-linejoin="round"/>
<path d="M87.6507 66.89C87.5633 65.9271 87.8169 64.9385 88.3542 64.1348" stroke="#443122" stroke-width="0.143276" stroke-linecap="round" stroke-linejoin="round"/>
<path d="M88.1855 66.885C88.2586 66.0311 88.5022 65.1915 88.8962 64.4293C89.0524 64.127 89.2429 63.8261 89.5323 63.6484" stroke="#443122" stroke-width="0.143276" stroke-linecap="round" stroke-linejoin="round"/>
<path d="M89.1832 66.7146C89.1431 66.5298 89.2391 66.345 89.3351 66.1816C89.8222 65.3578 90.4125 64.5956 91.0873 63.9179C91.3323 63.6729 91.6031 63.4293 91.9398 63.3477" stroke="#443122" stroke-width="0.143276" stroke-linecap="round" stroke-linejoin="round"/>
<path d="M90.8262 66.4528C90.8405 66.235 90.9623 66.0402 91.0869 65.8596C91.9452 64.6117 93.0355 63.5228 94.2848 62.666" stroke="#443122" stroke-width="0.143276" stroke-linecap="round" stroke-linejoin="round"/>
<path d="M69.3721 62.9492C69.928 63.8218 70.3736 64.7645 70.6931 65.7474" stroke="#443122" stroke-width="0.143276" stroke-linecap="round" stroke-linejoin="round"/>
<path d="M70.1484 63C70.7602 64.1032 71.2846 65.2566 71.713 66.4429" stroke="#443122" stroke-width="0.143276" stroke-linecap="round" stroke-linejoin="round"/>
<path d="M74.7303 66.8424C74.8678 65.8854 74.6601 64.8824 74.1543 64.0586" stroke="#443122" stroke-width="0.143276" stroke-linecap="round" stroke-linejoin="round"/>
<path d="M73.9343 66.4936C73.9085 65.3746 73.5432 64.2671 72.8984 63.3516" stroke="#443122" stroke-width="0.143276" stroke-linecap="round" stroke-linejoin="round"/>
<path d="M136.843 52.3625C136.014 51.4613 134.979 50.6818 133.859 50.0314C135.153 50.1173 136.448 50.0543 137.65 49.7849C143.024 48.58 144.792 45.1471 143.993 41.581C143.193 38.0148 140.13 35.6637 134.756 36.8686C133.559 37.1366 132.369 37.6423 131.244 38.2885C131.966 37.2111 132.558 36.0577 132.926 34.8814C134.57 29.626 132.481 26.378 128.993 25.2862C125.505 24.1945 121.937 25.6731 120.294 30.9299C119.928 32.1004 119.771 33.3842 119.768 34.6808C119.196 33.5174 118.493 32.4271 117.659 31.5216C113.929 27.4697 110.072 27.6546 107.383 30.1304C104.694 32.6062 104.191 36.4345 107.92 40.4863C108.75 41.3875 109.784 42.167 110.905 42.8174C109.611 42.7315 108.316 42.7945 107.114 43.0639C101.739 44.2688 99.9714 47.7017 100.771 51.2678C101.57 54.834 104.634 57.1851 110.008 55.9802C111.204 55.7122 112.395 55.2065 113.52 54.5603C112.797 55.6377 112.206 56.7911 111.837 57.9674C110.194 63.2227 112.283 66.4708 115.77 67.5626C119.259 68.6543 122.827 67.1757 124.47 61.9189C124.835 60.7484 124.993 59.4646 124.996 58.1694C125.568 59.3328 126.271 60.4231 127.105 61.3286C130.834 65.3805 134.691 65.1957 137.381 62.7199C140.07 60.244 140.573 56.4157 136.843 52.3639V52.3625Z" fill="white"/>
<g opacity="0.34">
<g opacity="0.34">
<path opacity="0.34" d="M119.842 48.7041C120.456 48.7041 120.954 48.2063 120.954 47.5923C120.954 46.9782 120.456 46.4805 119.842 46.4805C119.228 46.4805 118.73 46.9782 118.73 47.5923C118.73 48.2063 119.228 48.7041 119.842 48.7041Z" fill="#FFD066"/>
<path opacity="0.34" d="M122.799 45.8643C123.413 45.8643 123.911 45.3665 123.911 44.7524C123.911 44.1384 123.413 43.6406 122.799 43.6406C122.185 43.6406 121.688 44.1384 121.688 44.7524C121.688 45.3665 122.185 45.8643 122.799 45.8643Z" fill="#FFD066"/>
<path opacity="0.34" d="M124.126 49.7178C124.741 49.7178 125.238 49.22 125.238 48.606C125.238 47.9919 124.741 47.4941 124.126 47.4941C123.512 47.4941 123.015 47.9919 123.015 48.606C123.015 49.22 123.512 49.7178 124.126 49.7178Z" fill="#FFD066"/>
</g>
<path opacity="0.34" d="M126.913 34.1783C126.23 36.4922 124.415 41.2848 123.962 41.1501C123.509 41.0154 124.591 36.0079 125.274 33.694C125.958 31.3801 126.88 29.6121 127.333 29.7453C127.786 29.8786 127.598 31.8644 126.915 34.1783H126.913Z" fill="#F49C95"/>
<path opacity="0.34" d="M117.679 59.3886C118.363 57.0747 120.178 52.2822 120.631 52.4168C121.084 52.5501 120.002 57.559 119.318 59.8729C118.635 62.1868 117.712 63.9548 117.26 63.8216C116.807 63.6883 116.994 61.7025 117.678 59.3886H117.679Z" fill="#F49C95"/>
<path opacity="0.34" d="M135.585 44.8795C133.222 45.3738 128.143 46.0443 128.045 45.5815C127.948 45.1188 132.872 43.7003 135.235 43.206C137.598 42.7117 139.591 42.6874 139.687 43.1487C139.783 43.6101 137.946 44.3852 135.585 44.8795Z" fill="#F49C95"/>
<path opacity="0.34" d="M109.008 48.6876C111.371 48.1933 116.45 47.5228 116.547 47.9856C116.643 48.4469 111.72 49.8668 109.358 50.3611C106.995 50.8554 105.002 50.8797 104.906 50.4184C104.81 49.957 106.647 49.1819 109.008 48.6876Z" fill="#F49C95"/>
<path opacity="0.34" d="M130.638 57.2995C129.021 55.5086 125.881 51.4596 126.231 51.143C126.582 50.8263 130.29 54.3624 131.906 56.1548C133.524 57.9457 134.551 59.655 134.2 59.9702C133.849 60.2854 132.254 59.0905 130.638 57.2995Z" fill="#F49C95"/>
<path opacity="0.34" d="M113.952 36.2664C115.569 38.0573 118.709 42.1063 118.359 42.4229C118.008 42.7396 114.3 39.2035 112.684 37.4112C111.066 35.6202 110.039 33.9109 110.39 33.5957C110.741 33.2791 112.336 34.4754 113.952 36.2664Z" fill="#F49C95"/>
</g>
<path d="M44.0383 98.3211C44.0383 98.3211 42.3921 98.4042 40.9106 97.5303C38.1483 95.8998 36.4132 93.1102 36.9892 91.5714C37.2156 90.9668 38.7887 96.7551 44.0369 98.3211H44.0383Z" fill="#0088C7"/>
<path d="M37.2495 128.78C41.1695 126.953 41.7584 123.853 41.8902 122.262C41.9675 121.333 41.4303 120.47 40.5606 120.129C39.0748 119.546 36.3354 119.133 32.6646 121.42C26.9666 124.97 25.0381 134.723 25.0381 134.723C25.0381 134.723 31.2477 131.577 37.2495 128.781V128.78Z" fill="#00DC86"/>
<path d="M41.665 121.127C41.665 121.127 40.2265 120.669 38.7135 121.097C35.8881 121.895 33.7003 123.958 33.8522 125.454C33.9109 126.041 36.6547 121.288 41.6664 121.127H41.665Z" fill="#009CD8"/>
<g style="mix-blend-mode:multiply" opacity="0.33">
<path d="M61.5354 102.423C58.8418 98.0348 56.2299 80.346 56.2657 77.5177C56.3015 74.688 59.5009 72.0503 59.5009 72.0503C57.2214 66.5098 59.9479 55.7355 61.3506 50.9902C59.0166 53.2296 57.2256 55.661 56.568 58.1769C56.568 58.1769 56.3674 63.183 56.0895 66.1488C55.9132 68.0357 54.7728 70.6376 53.4718 74.0777C52.4445 76.7927 52.1881 79.7399 52.7168 82.5954L55.8545 99.5148C56.3975 102.446 57.6354 105.21 59.4951 107.54C60.7287 109.086 62.3821 110.798 64.5413 112.39C70.6004 116.854 75.8629 120.84 81.124 120.84C88.4583 120.84 96.4316 113.665 96.4316 113.665C96.4316 113.665 89.7134 116.777 82.5983 117.747C75.4833 118.717 64.229 106.812 61.5354 102.423Z" fill="#EAB892"/>
</g>
<path d="M15.8973 33.2195C15.8973 33.2195 12.2653 23.2002 21.7831 17.3145C21.7831 17.3145 27.6187 18.4205 33.4672 21.1858C33.4672 21.1858 35.3083 23.4509 46.7044 22.1987C46.7044 22.1987 52.5544 21.958 54.1677 23.653C55.7809 25.3465 64.3316 25.2677 64.3316 25.2677L68.4451 24.9439C68.4451 24.9439 70.7031 25.7505 68.7674 28.2507C66.8318 30.7508 58.2811 30.9127 58.2811 30.9127L61.2655 34.231C61.2655 34.231 67.5539 37.4461 69.3706 38.333C71.1874 39.2199 79.0962 44.2216 81.2324 45.9552C82.9675 47.3636 84.9275 49.0185 84.6352 50.669C84.512 51.3668 83.9117 51.884 83.2068 51.9571C82.6766 52.0115 81.9574 52.0172 81.2324 51.8081C81.2324 51.8081 84.7957 53.6592 84.0421 55.9172C83.2884 58.1752 77.9758 57.0462 77.9758 57.0462C77.9758 57.0462 80.2238 58.9002 78.6105 60.2728C76.9972 61.6454 71.6731 61.4018 68.6886 60.7571C68.6886 60.7571 69.895 62.7042 66.8662 63.6484C63.8373 64.5925 56.344 62.6641 56.344 62.6641C56.344 62.6641 46.1958 60.7413 45.3433 60.0622C44.4908 59.3845 38.8443 56.3814 36.5046 54.6163C34.1649 52.8511 31.5029 48.9784 30.9384 48.0113C30.3739 47.0427 25.13 39.8646 22.5496 38.2513C19.9692 36.638 15.8987 33.218 15.8987 33.218L15.8973 33.2195Z" fill="#F9CCA7"/>
<path d="M77.9759 57.0483L72.434 55.0768L65.8562 52.9377L57.9574 49.1337C57.9574 49.1337 54.5188 47.0734 54.7194 47.7869C54.92 48.5004 56.6851 48.9761 56.6851 48.9761" stroke="#A86436" stroke-width="0.143276" stroke-linecap="round" stroke-linejoin="round"/>
<path d="M81.2327 51.81C81.2327 51.81 76.1922 49.3572 75.1062 48.6508C74.0202 47.9445 68.4869 45.526 68.4869 45.526C68.4869 45.526 66.0956 44.3855 62.8461 42.7178C59.5966 41.05 57.959 40.5156 57.959 40.5156" stroke="#A86436" stroke-width="0.143276" stroke-linecap="round" stroke-linejoin="round"/>
<path d="M68.6867 60.7578L59.3652 57.5326C59.3652 57.5326 53.3333 54.6012 52.0653 53.9665C50.7973 53.3318 48.578 52.8891 48.8961 53.5868" stroke="#A86436" stroke-width="0.143276" stroke-linecap="round" stroke-linejoin="round"/>
<path d="M78.3515 57.4125C78.3515 57.4125 77.6007 58.1603 77.3285 59.8438C77.3285 59.8438 72.9829 60.2995 73.142 57.8408C73.301 55.3837 78.3515 57.411 78.3515 57.411V57.4125Z" fill="#FEE2CC"/>
<path d="M81.9703 56.6254L83.426 54.1554C83.426 54.1554 80.2854 51.8801 78.8297 52.8816C77.374 53.8831 79.9215 56.3661 81.9703 56.6254Z" fill="#FEE2CC"/>
<path d="M82.6977 51.6078C82.6977 51.6078 83.8353 50.1062 83.6534 49.3326C83.4714 48.5589 79.6488 46.6934 78.9654 48.1491C78.2834 49.6048 80.2391 51.198 82.6977 51.6078Z" fill="#FEE2CC"/>
<path d="M67.2858 62.6649C67.2858 62.6649 63.2913 62.4042 64.2025 60.7565C64.2025 60.7565 64.0722 59.841 67.8059 60.7565L67.2844 62.6649H67.2858Z" fill="#FEE2CC"/>
<path d="M17.7266 44.0664C17.7266 44.0664 23.1567 60.9228 37.4914 68.1568" stroke="#BEF5FF" stroke-width="0.143276" stroke-linecap="round" stroke-linejoin="round"/>
<path d="M37.4934 65.7461L37.919 68.3981L34.8672 68.6961" stroke="#BEF5FF" stroke-width="0.143276" stroke-linecap="round" stroke-linejoin="round"/>
<path d="M102.56 99.852L104.96 98.5625C100.5 111.356 86.3184 114.849 86.3184 114.849" stroke="#A86436" stroke-width="0.143276" stroke-linecap="round" stroke-linejoin="round"/>
<path d="M105.585 100.888L104.96 98.5625" stroke="#A86436" stroke-width="0.143276" stroke-linecap="round" stroke-linejoin="round"/>
<path d="M81.0459 62.3175C81.0459 62.3175 88.2856 58.1539 88.949 47.6074" stroke="#A86436" stroke-width="0.143276" stroke-linecap="round" stroke-linejoin="round"/>
<path d="M87.251 48.9363L88.9244 47.5078L89.9188 49.6383" stroke="#A86436" stroke-width="0.143276" stroke-linecap="round" stroke-linejoin="round"/>
<path d="M70.0557 99.2224C70.0557 99.2224 75.6821 95.2379 79.1035 95.0316C79.1035 95.0316 79.9388 95.8597 81.2326 95.8597C82.5264 95.8597 83.3029 95.0316 83.3029 95.0316C83.3029 95.0316 85.4764 94.2034 92.4095 99.7926C92.4095 99.7926 88.5282 99.9989 84.6483 98.8097C84.6483 98.8097 82.1639 99.4301 81.2326 99.3785C80.3013 99.327 79.1035 98.8613 79.1035 98.8613C79.1035 98.8613 73.9356 100.827 70.0557 99.2238V99.2224Z" fill="#E27E79"/>
<path d="M55.519 58.9957C55.2081 58.328 55.9818 57.4626 56.6795 57.6976" stroke="#A86436" stroke-width="0.143276" stroke-linecap="round" stroke-linejoin="round"/>
<path d="M64.2689 55.269C63.7545 55.3936 63.21 55.5168 62.7029 55.3664C62.1957 55.216 61.7587 54.683 61.912 54.1758" stroke="#A86436" stroke-width="0.143276" stroke-linecap="round" stroke-linejoin="round"/>
<path d="M67.3951 49.9178C67.0885 50.1356 66.6372 50.1241 66.342 49.892C66.0469 49.6599 65.9294 49.2243 66.0698 48.8747C66.1801 48.5996 66.4223 48.3976 66.6744 48.2429C67.216 47.9105 67.8522 47.7371 68.4869 47.7486" stroke="#A86436" stroke-width="0.143276" stroke-linecap="round" stroke-linejoin="round"/>
<path d="M58.2726 30.8793C56.9301 29.2832 55.4744 27.6097 53.4814 26.9922" stroke="#A86436" stroke-width="0.143276" stroke-linecap="round" stroke-linejoin="round"/>
<path d="M122.691 119.266L123.009 120.367C123.729 122.863 125.51 124.968 127.933 126.187C125.51 127.407 123.728 129.511 123.009 132.007L122.691 133.109L122.373 132.007C121.652 129.511 119.871 127.407 117.448 126.187C119.871 124.968 121.653 122.863 122.373 120.367L122.691 119.266Z" fill="url(#paint3_linear_1911_5587)" stroke="#C69024" stroke-width="0.143276" stroke-linecap="round" stroke-linejoin="round"/>
<path d="M44.7503 10.1855L45.2045 11.7587C46.2332 15.322 48.7778 18.3293 52.2379 20.0701C48.7778 21.8109 46.2332 24.8169 45.2045 28.3815L44.7503 29.9547L44.2961 28.3815C43.2674 24.8183 40.7228 21.8109 37.2627 20.0701C40.7228 18.3293 43.2674 15.3234 44.2961 11.7587L44.7503 10.1855Z" fill="url(#paint4_linear_1911_5587)" stroke="#C69024" stroke-width="0.143276" stroke-linecap="round" stroke-linejoin="round"/>
</g>
<defs>
<linearGradient id="paint0_linear_1911_5587" x1="64.7593" y1="2.71822" x2="111.116" y2="172.821" gradientUnits="userSpaceOnUse">
<stop stop-color="#0088C3"/>
<stop offset="1" stop-color="#0F1F42"/>
</linearGradient>
<linearGradient id="paint1_linear_1911_5587" x1="64.4822" y1="42.4498" x2="153.305" y2="107.358" gradientUnits="userSpaceOnUse">
<stop stop-color="white"/>
<stop offset="0.27" stop-color="#BEF5FF"/>
<stop offset="0.56" stop-color="#BCF3FE"/>
<stop offset="0.66" stop-color="#B5F0FC"/>
<stop offset="0.74" stop-color="#A9E9F8"/>
<stop offset="0.8" stop-color="#98DFF3"/>
<stop offset="0.85" stop-color="#82D2EC"/>
<stop offset="0.89" stop-color="#67C3E3"/>
<stop offset="0.93" stop-color="#46B0D9"/>
<stop offset="0.97" stop-color="#229BCD"/>
<stop offset="1" stop-color="#0088C3"/>
</linearGradient>
<linearGradient id="paint2_linear_1911_5587" x1="118.156" y1="15.3504" x2="9.36219" y2="89.4554" gradientUnits="userSpaceOnUse">
<stop stop-color="white"/>
<stop offset="0.38" stop-color="#BEF5FF"/>
<stop offset="0.62" stop-color="#BCF3FE"/>
<stop offset="0.71" stop-color="#B5F0FC"/>
<stop offset="0.78" stop-color="#A9E9F8"/>
<stop offset="0.83" stop-color="#98DFF3"/>
<stop offset="0.87" stop-color="#82D2EC"/>
<stop offset="0.91" stop-color="#67C3E3"/>
<stop offset="0.94" stop-color="#46B0D9"/>
<stop offset="0.98" stop-color="#229BCD"/>
<stop offset="1" stop-color="#0088C3"/>
</linearGradient>
<linearGradient id="paint3_linear_1911_5587" x1="137.295" y1="146.726" x2="104.604" y2="100.752" gradientUnits="userSpaceOnUse">
<stop offset="0.3" stop-color="white"/>
<stop offset="0.46" stop-color="#FFCE4E"/>
<stop offset="0.94" stop-color="#C69024"/>
</linearGradient>
<linearGradient id="paint4_linear_1911_5587" x1="65.6055" y1="49.3972" x2="18.922" y2="-16.2517" gradientUnits="userSpaceOnUse">
<stop offset="0.3" stop-color="white"/>
<stop offset="0.46" stop-color="#FFCE4E"/>
<stop offset="0.94" stop-color="#C69024"/>
</linearGradient>
<clipPath id="clip0_1911_5587">
<rect width="157.603" height="157.603" fill="white"/>
</clipPath>
</defs>
</svg>
