<svg width="110" height="107" viewBox="0 0 110 107" fill="none" xmlns="http://www.w3.org/2000/svg">
<path d="M54.6707 28.0748L100.12 35.979V45.8593M62.2884 51.3627L105.813 30.1184C107.527 29.282 107.538 26.844 105.833 25.9912L59.8485 2.99905C56.591 1.37034 52.7549 1.37956 49.5054 3.02392L4.10763 25.9963C2.41522 26.8527 2.42689 29.2737 4.12748 30.1137L47.0707 51.3266C51.864 53.6944 57.4839 53.7077 62.2884 51.3627Z" stroke="white" stroke-width="2"/>
<path d="M98.1455 55.0801L95.5107 61.6669" stroke="white" stroke-width="2"/>
<path d="M102.1 54.4238L105.393 62.328" stroke="white" stroke-width="2"/>
<circle cx="100.121" cy="50.4687" r="4.26946" stroke="white" stroke-width="2"/>
<path d="M24.3721 39.9297V60.3488" stroke="white" stroke-width="2"/>
<path d="M84.9697 39.9297V59.6902" stroke="white" stroke-width="2"/>
<path d="M84.9709 59.6914C84.9709 65.5119 71.7691 70.889 54.6715 70.889C37.5738 70.889 24.3721 65.5119 24.3721 59.6914" stroke="white" stroke-width="2"/>
<path d="M84.9709 51.7871C84.9709 57.6076 71.7691 64.3021 54.6715 64.3021C37.5738 64.3021 24.3721 57.6076 24.3721 51.7871" stroke="white" stroke-width="2"/>
<path d="M27.65 98.8067C28.098 99.0213 28.4527 99.3293 28.714 99.7307C28.9847 100.132 29.12 100.594 29.12 101.117C29.12 101.901 28.8447 102.559 28.294 103.091C27.7433 103.623 27.0713 103.889 26.278 103.889H22.05V94.0887H25.97C26.7353 94.0887 27.384 94.3453 27.916 94.8587C28.448 95.372 28.714 96.0067 28.714 96.7627C28.714 97.6307 28.3593 98.312 27.65 98.8067ZM25.97 95.3067H23.352V98.3027H25.97C26.3807 98.3027 26.726 98.158 27.006 97.8687C27.286 97.5793 27.426 97.2247 27.426 96.8047C27.426 96.394 27.2813 96.044 26.992 95.7547C26.712 95.456 26.3713 95.3067 25.97 95.3067ZM26.278 102.671C26.7167 102.671 27.0853 102.517 27.384 102.209C27.6827 101.901 27.832 101.523 27.832 101.075C27.832 100.636 27.678 100.263 27.37 99.9547C27.0713 99.6467 26.7073 99.4927 26.278 99.4927H23.352V102.671H26.278ZM33.8683 104.071C32.8136 104.071 31.9363 103.721 31.2363 103.021C30.5363 102.311 30.1863 101.434 30.1863 100.389C30.1863 99.3433 30.5363 98.4707 31.2363 97.7707C31.9363 97.0613 32.8136 96.7067 33.8683 96.7067C34.559 96.7067 35.1796 96.8747 35.7303 97.2107C36.281 97.5373 36.6916 97.9807 36.9623 98.5407L35.9403 99.1287C35.763 98.7553 35.4876 98.4567 35.1143 98.2327C34.7503 98.0087 34.335 97.8967 33.8683 97.8967C33.1683 97.8967 32.5803 98.1347 32.1043 98.6107C31.6376 99.0867 31.4043 99.6793 31.4043 100.389C31.4043 101.089 31.6376 101.677 32.1043 102.153C32.5803 102.629 33.1683 102.867 33.8683 102.867C34.335 102.867 34.755 102.759 35.1283 102.545C35.5016 102.321 35.7863 102.022 35.9823 101.649L37.0183 102.251C36.7196 102.801 36.2903 103.245 35.7303 103.581C35.1703 103.907 34.5496 104.071 33.8683 104.071ZM38.9792 100.949C39.1005 101.574 39.3852 102.059 39.8332 102.405C40.2905 102.75 40.8505 102.923 41.5132 102.923C42.4372 102.923 43.1092 102.582 43.5292 101.901L44.5652 102.489C43.8838 103.543 42.8572 104.071 41.4852 104.071C40.3745 104.071 39.4692 103.725 38.7692 103.035C38.0785 102.335 37.7332 101.453 37.7332 100.389C37.7332 99.334 38.0738 98.4567 38.7552 97.7567C39.4365 97.0567 40.3185 96.7067 41.4012 96.7067C42.4278 96.7067 43.2632 97.0707 43.9072 97.7987C44.5605 98.5173 44.8872 99.3853 44.8872 100.403C44.8872 100.58 44.8732 100.762 44.8452 100.949H38.9792ZM41.4012 97.8547C40.7478 97.8547 40.2065 98.0413 39.7772 98.4147C39.3478 98.7787 39.0818 99.2687 38.9792 99.8847H43.6552C43.5525 99.222 43.2912 98.718 42.8712 98.3727C42.4512 98.0273 41.9612 97.8547 41.4012 97.8547ZM55.7093 103.889H54.1973L51.0053 100.571V103.889H49.7873V96.8887H51.0053V99.9827L54.0293 96.8887H55.5973L52.2513 100.277L55.7093 103.889ZM61.5229 96.8887H62.8249L59.9689 104.323C59.6702 105.116 59.2502 105.718 58.7089 106.129C58.1676 106.549 57.5516 106.735 56.8609 106.689V105.555C57.7196 105.62 58.3496 105.153 58.7509 104.155L58.8629 103.903L55.8249 96.8887H57.1129L59.5069 102.377L61.5229 96.8887ZM67.706 96.7067C68.686 96.7067 69.5213 97.066 70.212 97.7847C70.9026 98.494 71.248 99.362 71.248 100.389C71.248 101.415 70.9026 102.288 70.212 103.007C69.5213 103.716 68.686 104.071 67.706 104.071C66.5486 104.071 65.6666 103.609 65.06 102.685V106.689H63.842V96.8887H65.06V98.0927C65.6666 97.1687 66.5486 96.7067 67.706 96.7067ZM67.552 102.895C68.252 102.895 68.84 102.657 69.316 102.181C69.792 101.695 70.03 101.098 70.03 100.389C70.03 99.6793 69.792 99.0867 69.316 98.6107C68.84 98.1253 68.252 97.8827 67.552 97.8827C66.8426 97.8827 66.25 98.1253 65.774 98.6107C65.298 99.0867 65.06 99.6793 65.06 100.389C65.06 101.098 65.298 101.695 65.774 102.181C66.25 102.657 66.8426 102.895 67.552 102.895ZM75.9913 104.071C74.9367 104.071 74.0593 103.721 73.3593 103.021C72.6593 102.311 72.3093 101.434 72.3093 100.389C72.3093 99.3433 72.6593 98.4707 73.3593 97.7707C74.0593 97.0613 74.9367 96.7067 75.9913 96.7067C76.682 96.7067 77.3027 96.8747 77.8533 97.2107C78.404 97.5373 78.8147 97.9807 79.0853 98.5407L78.0633 99.1287C77.886 98.7553 77.6107 98.4567 77.2373 98.2327C76.8733 98.0087 76.458 97.8967 75.9913 97.8967C75.2913 97.8967 74.7033 98.1347 74.2273 98.6107C73.7607 99.0867 73.5273 99.6793 73.5273 100.389C73.5273 101.089 73.7607 101.677 74.2273 102.153C74.7033 102.629 75.2913 102.867 75.9913 102.867C76.458 102.867 76.878 102.759 77.2513 102.545C77.6247 102.321 77.9093 102.022 78.1053 101.649L79.1413 102.251C78.8427 102.801 78.4133 103.245 77.8533 103.581C77.2933 103.907 76.6727 104.071 75.9913 104.071ZM83.3116 99.4087C84.0116 99.4087 84.5903 99.6187 85.0476 100.039C85.5143 100.449 85.7476 100.986 85.7476 101.649C85.7476 102.311 85.5143 102.853 85.0476 103.273C84.5903 103.683 84.0116 103.889 83.3116 103.889H80.3576V96.8887H81.5756V99.4087H83.3116ZM86.6576 96.8887H87.8756V103.889H86.6576V96.8887ZM83.3116 102.755C83.6569 102.755 83.9463 102.657 84.1796 102.461C84.4223 102.255 84.5436 101.985 84.5436 101.649C84.5436 101.313 84.4223 101.042 84.1796 100.837C83.9463 100.631 83.6569 100.529 83.3116 100.529H81.5756V102.755H83.3116Z" fill="white"/>
</svg>
