<svg width="443" height="419" viewBox="0 0 443 419" fill="none" xmlns="http://www.w3.org/2000/svg">
<g clip-path="url(#clip0_401_7140)">
<path d="M220.356 -0.380859L437.933 376.148H2.77847L220.356 -0.380859Z" fill="#019DD8"/>
<path d="M378.047 43.8616H101.02C98.4848 43.8616 96.4297 45.9149 96.4297 48.4477V216.81C96.4297 219.342 98.4848 221.396 101.02 221.396H378.047C380.582 221.396 382.637 219.342 382.637 216.81V48.4477C382.637 45.9149 380.582 43.8616 378.047 43.8616Z" fill="white"/>
<path d="M381.84 216.36V48.8935C381.84 46.571 379.955 44.6882 377.631 44.6882L101.435 44.6882C99.11 44.6882 97.2256 46.571 97.2256 48.8935V216.36C97.2256 218.683 99.11 220.565 101.435 220.565L377.631 220.565C379.955 220.565 381.84 218.683 381.84 216.36Z" fill="url(#paint0_linear_401_7140)"/>
<path d="M374.11 56.4011H104.418V211.142H374.11V56.4011Z" fill="white"/>
<g style="mix-blend-mode:multiply">
<path d="M190.275 110.685C200.581 110.685 208.937 102.337 208.937 92.0391C208.937 81.7414 200.581 73.3936 190.275 73.3936C179.968 73.3936 171.613 81.7414 171.613 92.0391C171.613 102.337 179.968 110.685 190.275 110.685Z" fill="#D7F4FB"/>
</g>
<g style="mix-blend-mode:multiply">
<path d="M145.191 110.685C155.498 110.685 163.853 102.337 163.853 92.0391C163.853 81.7414 155.498 73.3936 145.191 73.3936C134.884 73.3936 126.529 81.7414 126.529 92.0391C126.529 102.337 134.884 110.685 145.191 110.685Z" fill="#D7F4FB"/>
</g>
<g style="mix-blend-mode:multiply">
<path d="M190.275 155.411C200.581 155.411 208.937 147.063 208.937 136.765C208.937 126.468 200.581 118.12 190.275 118.12C179.968 118.12 171.613 126.468 171.613 136.765C171.613 147.063 179.968 155.411 190.275 155.411Z" fill="#D7F4FB"/>
</g>
<g style="mix-blend-mode:multiply">
<path d="M145.191 155.411C155.498 155.411 163.853 147.063 163.853 136.765C163.853 126.468 155.498 118.12 145.191 118.12C134.884 118.12 126.529 126.468 126.529 136.765C126.529 147.063 134.884 155.411 145.191 155.411Z" fill="#D7F4FB"/>
</g>
<path d="M190.277 79.3813L193.147 88.2146H202.442L194.924 93.6731L197.795 102.506L190.277 97.0479L182.755 102.506L185.629 93.6731L178.107 88.2146H187.402L190.277 79.3813Z" fill="#00DC86"/>
<path d="M155.173 132.922H149.038V126.336H141.341V132.922H135.207V140.613H141.341V147.195H149.038V140.613H155.173V132.922Z" fill="#00DC86"/>
<path d="M139.83 88.051L136.288 83.5525L132.75 88.051H135.148V101.07H137.432V88.051H139.83Z" fill="#DE97FF"/>
<path d="M148.728 88.051L145.19 83.5525L141.648 88.051H144.046V101.07H146.33V88.051H148.728Z" fill="#DE97FF"/>
<path d="M157.626 88.051L154.089 83.5525L150.547 88.051H152.945V101.07H155.228V88.051H157.626Z" fill="#DE97FF"/>
<path d="M196.197 129.791C196.472 129.791 196.62 129.471 196.452 129.254C196.209 128.942 195.827 128.74 195.396 128.74C195.366 128.74 195.339 128.74 195.313 128.744C194.958 128.721 194.371 128.683 194.272 128.69C193.696 128.728 193.448 129.113 193.406 129.185C193.403 129.193 193.395 129.204 193.391 129.212C193.254 129.494 193.254 129.696 193.254 129.955V138.438L193.772 137.889C193.902 137.752 194.119 137.752 194.249 137.889L194.783 138.441V130.172C194.783 130.001 194.912 129.856 195.084 129.841C195.465 129.81 195.839 129.795 196.201 129.795L196.197 129.791Z" fill="#DE97FF"/>
<path d="M200.162 144.285C198.87 143.862 195.736 143.104 191.466 143.839C191.363 143.858 191.283 143.926 191.234 144.018C191.184 144.113 191.119 144.205 191.043 144.285H200.158H200.162Z" fill="#DE97FF"/>
<path d="M180.129 144.285H189.286C189.214 144.208 189.149 144.121 189.099 144.026C189.054 143.938 188.97 143.866 188.871 143.85C184.578 143.1 181.425 143.862 180.125 144.285H180.129Z" fill="#DE97FF"/>
<path d="M189.797 142.09V131.486C189.797 131.356 189.724 131.238 189.606 131.185C189.03 130.93 187.929 130.442 187.513 130.309C184.158 129.227 180.495 130.233 179.637 130.503V143.397C179.637 143.622 179.85 143.782 180.064 143.713C181.036 143.401 182.82 142.966 185.237 142.966C186.27 142.966 187.422 143.046 188.672 143.248C188.828 143.275 188.977 143.184 189.034 143.039C189.141 142.749 189.358 142.513 189.629 142.38C189.736 142.327 189.793 142.212 189.793 142.094L189.797 142.09Z" fill="#DE97FF"/>
<path d="M201.878 131.501C201.878 131.318 201.731 131.17 201.549 131.17C201.366 131.17 201.219 131.318 201.219 131.501V143.953C201.219 144.136 201.366 144.285 201.549 144.285C201.731 144.285 201.878 144.136 201.878 143.953V131.501Z" fill="#DE97FF"/>
<path d="M179.072 131.17H178.672V144.285H179.072V131.17Z" fill="#DE97FF"/>
<path d="M201.218 130.606V130.096L201.031 130.031C200.852 129.966 196.605 128.484 192.606 129.772C192.11 129.932 190.768 130.53 190.276 130.751C190.189 130.789 190.097 130.789 190.01 130.751C189.518 130.53 188.176 129.932 187.68 129.772C183.681 128.484 179.434 129.966 179.255 130.031L179.068 130.096V130.606H178.435C178.252 130.606 178.104 130.755 178.104 130.937V144.521C178.104 144.704 178.252 144.852 178.435 144.852H202.11C202.293 144.852 202.442 144.704 202.442 144.521V130.937C202.442 130.755 202.293 130.606 202.11 130.606H201.218ZM179.072 144.285H178.672V131.17H179.072V144.285ZM180.128 144.285C181.428 143.862 184.577 143.1 188.874 143.85C188.973 143.869 189.053 143.938 189.102 144.025C189.152 144.121 189.217 144.208 189.289 144.285H180.132H180.128ZM191.05 144.285C191.123 144.205 191.188 144.117 191.241 144.018C191.291 143.926 191.371 143.854 191.474 143.839C195.743 143.104 198.873 143.862 200.17 144.285H191.054H191.05ZM200.658 143.393C200.658 143.618 200.444 143.778 200.231 143.709C199.258 143.397 197.474 142.963 195.057 142.963C193.952 142.963 192.716 143.054 191.367 143.287C191.188 143.317 191.008 143.351 190.825 143.386L190.498 143.424V131.482C190.498 131.353 190.57 131.235 190.688 131.181C191.264 130.926 192.366 130.438 192.781 130.305C195.888 129.303 199.258 130.092 200.421 130.427C200.562 130.469 200.658 130.595 200.658 130.743V143.389V143.393ZM201.55 144.285C201.367 144.285 201.218 144.136 201.218 143.953V131.497C201.218 131.315 201.367 131.166 201.55 131.166C201.733 131.166 201.881 131.315 201.881 131.497V143.953C201.881 144.136 201.733 144.285 201.55 144.285Z" fill="#DE97FF"/>
<path d="M257.924 86.0891C260.771 76.8368 262.598 74.319 268.743 70.2547C285.159 59.3988 304.545 64.2668 315.883 75.8998C315.373 71.2603 320.283 68.4454 324.724 67.0017C331.19 64.8991 337.37 68.0416 342.28 72.7458C347.187 77.4501 348.933 85.1825 349.013 91.9741C349.063 96.0994 348.903 101.066 345.689 103.657C338.449 109.492 333.638 106.944 331.32 104.182C332.292 112.357 333.112 119.483 327.557 129.478C326.394 131.57 312.559 143.454 307.027 142.772C299.742 137.977 293.299 130.873 290.432 126.995C281.751 115.251 257.161 88.5612 257.924 86.0853V86.0891Z" fill="url(#paint1_linear_401_7140)"/>
<path d="M257.881 150.508C267.999 150.508 274.846 153.354 278.513 157.925C281.296 161.395 284.457 164.537 287.781 167.497C291.64 170.933 294.27 175.157 298.197 178.49C303.069 182.627 300.282 188.279 301.472 194.557C316.546 192.721 332.977 177.915 338.444 163.756L323.442 154.554C315.421 149.632 307.884 143.964 300.93 137.63L295.803 132.956L257.877 150.508H257.881Z" stroke="#264F85" stroke-miterlimit="10"/>
<path d="M288.159 137.946C286.558 141.458 285.224 148.345 279.116 148.97C270.207 149.884 259.185 151.373 246.543 149.869C243.63 149.522 241.892 147.617 241.431 144.726C241.198 143.275 241.831 141.271 243.444 138.407C243.634 138.068 243.596 135.684 241.854 134.727C240.466 133.962 241.556 131.105 243.009 130.469C242.612 129.581 240.775 128.233 241.823 126.393C244.324 124.569 245.472 121.898 243.897 120.733C239.734 117.655 240.291 115.956 240.302 115.412C240.325 114.177 251.575 108.285 253.787 102.651C255.556 98.145 253.211 97.4403 257.05 87.9099C258.929 83.2476 260.413 80.7717 264.965 77.6978C262.891 91.9019 284.69 115.88 288.777 120.794C291.27 118.15 294.949 115.636 298.281 117.084C301.522 118.493 303.39 122.607 302.623 126.054C301.556 130.838 294.427 143.328 288.155 137.942L288.159 137.946Z" fill="url(#paint2_linear_401_7140)" stroke="#264F85" stroke-miterlimit="10"/>
<g style="mix-blend-mode:multiply">
<path d="M132.688 210.757H374.382V56.0203H343.799L132.688 210.757Z" fill="#D7F4FB"/>
</g>
<path d="M50.0833 155.952V166.891C44.3037 164.537 37.9904 159.471 37.369 148.562C37.2393 146.254 35.2721 144.441 32.878 144.441H16.8659C14.4755 144.441 12.5045 146.242 12.3749 148.543C11.4371 165.185 11.4027 227.064 61.9246 233.653C68.2684 241.283 76.7815 247.046 86.5183 249.998C91.6689 251.56 95.142 256.371 95.142 261.749V300.952H111.535V260.401C111.535 255.312 114.688 250.752 119.457 248.97C138.962 241.683 152.846 222.897 152.846 200.872V155.952H50.0833ZM39.4276 211.225C32.3061 203.699 27.411 192.645 24.8796 178.364C23.3279 169.615 22.9886 161.361 23.0344 155.3H27.3729C29.5116 164.671 35.3255 171.95 44.155 176.144C46.1908 177.111 48.2038 177.82 50.0833 178.342V200.869C50.0833 207.912 51.5053 214.623 54.071 220.733C48.3944 218.729 43.5412 215.572 39.4276 211.225Z" fill="url(#paint3_linear_401_7140)"/>
<path d="M103.343 223.14C90.8533 223.14 80.6895 212.985 80.6895 200.507C80.6895 188.028 90.8533 177.873 103.343 177.873C115.832 177.873 125.996 188.028 125.996 200.507C125.996 212.985 115.832 223.14 103.343 223.14ZM103.343 179.778C91.9017 179.778 82.5956 189.076 82.5956 200.507C82.5956 211.938 91.9017 221.236 103.343 221.236C114.784 221.236 124.09 211.938 124.09 200.507C124.09 189.076 114.784 179.778 103.343 179.778Z" fill="url(#paint4_linear_401_7140)"/>
<path d="M107.49 213.488H102.256V195.582H96.1445V192.108C97.7572 192.035 98.8856 191.929 99.5299 191.784C100.559 191.555 101.394 191.102 102.038 190.424C102.481 189.959 102.816 189.338 103.041 188.561C103.171 188.097 103.239 187.75 103.239 187.521H107.486V213.484L107.49 213.488Z" fill="url(#paint5_linear_401_7140)"/>
<path d="M274.698 297.848C274.698 297.848 267 284.551 274.698 265.76L88.7138 267.958L86.8457 268.617V294.111L91.4663 297.848H274.698Z" fill="white"/>
<g style="mix-blend-mode:multiply">
<path d="M94.4375 297.299C94.4375 297.299 87.1787 286.089 94.4375 267.299C94.4375 267.299 85.8025 269.718 85.8597 281.256C85.913 292.793 89.5996 296.968 94.4375 297.299Z" fill="#D7F4FB"/>
</g>
<path d="M279.098 264.587C279.113 266.389 277.668 267.859 275.865 267.878L94.9211 269.516C91.2612 269.55 88.1656 274.064 88.1656 279.37V286.055C88.1656 291.395 91.2765 295.909 94.9593 295.909H275.834C277.638 295.909 279.098 297.368 279.098 299.17C279.098 300.971 277.638 302.43 275.834 302.43H94.9631C87.6166 302.43 81.6426 295.086 81.6426 286.059V279.374C81.6426 270.263 87.4489 263.067 94.864 262.999L275.808 261.361C277.611 261.345 279.083 262.789 279.102 264.591L279.098 264.587Z" fill="#00A8E1"/>
<path d="M242.438 289.468H116.469V290.31H242.438V289.468Z" fill="#CCCCCC"/>
<path d="M250.696 281.88H108.707V282.722H250.696V281.88Z" fill="#CCCCCC"/>
<path d="M242.438 274.292H116.469V275.134H242.438V274.292Z" fill="#CCCCCC"/>
<path d="M50.084 305.729C50.084 305.729 59.554 319.027 50.084 337.817L278.816 335.619L281.115 334.96V309.466L275.434 305.729H50.084Z" fill="white"/>
<g style="mix-blend-mode:multiply">
<path d="M272.383 306.689C272.383 306.689 280.465 317.899 272.383 336.689C272.383 336.689 281.998 334.271 281.937 322.733C281.876 311.195 277.774 307.02 272.383 306.689Z" fill="#D7F4FB"/>
</g>
<path d="M44.6737 338.99C44.6547 337.188 46.4351 335.718 48.6501 335.699L271.187 334.061C275.689 334.027 279.494 329.513 279.494 324.207V317.522C279.494 312.182 275.667 307.668 271.137 307.668H48.6882C46.4732 307.668 44.6737 306.209 44.6737 304.407C44.6737 302.606 46.4694 301.147 48.6882 301.147H271.134C280.169 301.147 287.516 308.491 287.516 317.518V324.203C287.516 333.315 280.375 340.51 271.256 340.578L48.7187 342.216C46.5037 342.232 44.689 340.788 44.6699 338.986L44.6737 338.99Z" fill="#00DC86"/>
<path d="M244.688 313.271H89.7637V314.113H244.688V313.271Z" fill="#CCCCCC"/>
<path d="M254.234 320.859H79.6074V321.7H254.234V320.859Z" fill="#CCCCCC"/>
<path d="M244.688 328.447H89.7637V329.288H244.688V328.447Z" fill="#CCCCCC"/>
<path d="M65.2754 345.934C65.2754 345.934 74.7454 362.355 65.2754 385.56L294.007 382.844L296.306 382.029V350.547L290.626 345.934H65.2754Z" fill="white"/>
<g style="mix-blend-mode:multiply">
<path d="M287.574 346.89C287.574 346.89 295.656 361.338 287.574 385.556C287.574 385.556 297.189 382.44 297.128 367.57C297.067 352.699 292.965 347.317 287.574 346.89Z" fill="#D7F4FB"/>
</g>
<path d="M59.8651 387.75C59.8461 385.541 61.6265 383.735 63.8415 383.716L286.375 381.709C290.877 381.667 294.682 376.136 294.682 369.627V361.429C294.682 354.882 290.854 349.347 286.325 349.347H63.8758C61.6608 349.347 59.8613 347.557 59.8613 345.351C59.8613 343.142 61.657 341.355 63.8758 341.355H286.325C295.36 341.355 302.707 350.36 302.707 361.429V369.627C302.707 380.799 295.566 389.617 286.447 389.7L63.9101 391.708C61.6951 391.727 59.8804 389.956 59.8613 387.746L59.8651 387.75Z" fill="url(#paint6_linear_401_7140)"/>
<path d="M259.875 357.738H104.951V358.58H259.875V357.738Z" fill="#CCCCCC"/>
<path d="M269.425 365.326H94.7988V366.168H269.425V365.326Z" fill="#CCCCCC"/>
<path d="M259.875 372.914H104.951V373.756H259.875V372.914Z" fill="#CCCCCC"/>
<path d="M163.097 206.563L116.994 206.479C115.968 204.259 115.343 201.828 115.411 199.383C115.48 196.938 116.052 194.759 117.356 192.69C118.446 190.961 120.36 189.948 122.216 189.087C124.073 188.226 126.029 187.392 127.378 185.857C128.694 184.364 129.22 182.764 129.064 180.783C128.877 178.452 128.747 176.01 129.704 173.874C130.726 171.588 132.83 170 134.893 168.583C136.116 167.741 137.367 166.922 138.629 166.13C139.891 165.337 140.806 164.023 141.107 162.542C141.172 162.229 141.244 161.921 141.336 161.616C142.03 159.384 144.42 158.024 146.158 156.458C146.833 155.849 147.05 155.091 147.912 154.794C149.944 154.093 151.633 152.71 153.6 151.895C157.001 150.482 161.122 150.962 164.111 153.114C164.751 153.575 165.338 154.84 165.727 155.529C166.135 156.26 167.367 159.007 166.173 160.168C165.384 160.938 165.091 162.831 164.87 163.909L163.348 171.245C163.204 171.95 163.055 172.655 162.807 173.329C162.433 174.331 161.835 175.245 161.515 176.266C161.137 177.469 161.465 178.814 162.376 179.686C163.425 180.692 163.974 182.025 164.416 183.427C164.671 184.23 164.915 185.583 164.961 186.428C165.266 192.058 164.374 197.981 161.282 202.727C161.282 202.727 159.162 205.988 163.101 206.563H163.097Z" fill="#A86436"/>
<path d="M142.816 181.728L156.945 185.525L165.069 206.563L161.828 235.901L128.203 237.341L142.816 181.728Z" fill="url(#paint7_linear_401_7140)"/>
<path d="M149.763 168.933C149.763 168.933 147.91 174.395 142.816 181.724C142.816 181.724 145.024 189.178 152.854 188.546C154.174 188.439 155.428 187.838 156.27 186.813C156.587 186.428 156.846 185.99 156.949 185.525L155.386 184.916C155.386 184.916 155.954 177.599 158.18 174.403C158.18 174.403 153.247 165.307 149.766 168.937L149.763 168.933Z" fill="#FEE2CC"/>
<path d="M156.945 185.525C156.945 185.525 163.777 185.438 168.985 194.142C174.193 202.845 177.155 216.57 177.155 216.57L186.762 228.949L189.301 231.052H160.258L163.102 206.563L156.949 185.525H156.945Z" fill="url(#paint8_linear_401_7140)"/>
<path d="M159.521 225.525L161.278 225.978L172.723 226.801L179.452 231.806C179.452 231.806 178.663 232.625 177.443 232.404C176.223 232.183 171.96 230.476 171.96 230.476C170.931 230.069 167.466 231.387 165.46 231.425C161.823 231.493 157.66 229.814 157.66 229.814L159.517 225.525H159.521Z" fill="#FEE2CC"/>
<path d="M160.258 235.901H208.938L211.382 231.052H160.258V235.901Z" fill="url(#paint9_linear_401_7140)"/>
<path d="M183.711 231.406H211.381L228.838 195.89H201.172L183.711 231.406Z" fill="url(#paint10_linear_401_7140)"/>
<path d="M211.1 216.243C212.038 214.243 211.909 212.205 210.811 211.691C209.713 211.176 208.062 212.38 207.123 214.38C206.185 216.38 206.314 218.419 207.412 218.933C208.51 219.448 210.161 218.243 211.1 216.243Z" fill="url(#paint11_linear_401_7140)"/>
<path d="M189.301 234.449C189.301 234.449 202.892 234.293 210.414 242.464C211.889 244.067 212.529 246.269 212.163 248.417L202.19 306.91L200.982 318.341C200.982 318.341 202.377 322.5 203.338 325.06C204.299 327.62 194.691 322.714 194.585 319.727C194.478 316.741 193.517 308.209 192.343 307.142C191.169 306.076 188.073 300.743 190.528 298.503C190.528 298.503 194.371 297.65 195.225 296.583C196.079 295.517 192.682 255.35 192.682 255.35L134.551 237.348L189.304 234.457L189.301 234.449Z" fill="url(#paint12_linear_401_7140)"/>
<path d="M148.747 196.324C148.027 195.604 146.784 195.68 145.968 196.492C145.926 196.534 145.884 196.583 145.846 196.633C145.846 196.568 145.846 196.507 145.835 196.446C145.705 195.303 144.782 194.469 143.768 194.583C142.754 194.698 142.037 195.715 142.167 196.857C142.175 196.918 142.186 196.979 142.201 197.04C142.152 197.002 142.102 196.964 142.049 196.934C141.073 196.32 139.845 196.522 139.304 197.387C138.763 198.252 139.109 199.444 140.085 200.057C140.135 200.088 140.192 200.118 140.249 200.145C140.188 200.16 140.127 200.175 140.07 200.194C138.984 200.575 138.374 201.661 138.713 202.621C139.048 203.581 140.204 204.053 141.29 203.676C141.347 203.657 141.405 203.63 141.462 203.603C141.435 203.661 141.408 203.718 141.389 203.775C141.008 204.86 141.481 206.015 142.442 206.35C143.402 206.685 144.493 206.079 144.874 204.994C144.893 204.937 144.908 204.876 144.923 204.815C144.95 204.872 144.981 204.929 145.015 204.978C145.625 205.954 146.822 206.304 147.687 205.763C148.553 205.222 148.755 203.992 148.141 203.021C148.111 202.971 148.072 202.922 148.03 202.868C148.091 202.883 148.156 202.895 148.213 202.899C149.357 203.028 150.375 202.312 150.493 201.299C150.608 200.286 149.773 199.364 148.629 199.234C148.568 199.227 148.507 199.227 148.442 199.227C148.492 199.185 148.538 199.147 148.583 199.101C149.399 198.29 149.475 197.044 148.755 196.324H148.747Z" fill="white"/>
<path d="M203.337 325.056C202.376 322.497 200.981 318.337 200.981 318.337L202.189 306.906L204.351 294.218L195.213 290.302C195.384 293.879 195.422 296.321 195.22 296.576C194.366 297.642 190.523 298.496 190.523 298.496C188.068 300.735 191.164 306.068 192.338 307.135C193.512 308.201 194.473 316.734 194.58 319.72C194.687 322.706 204.294 327.612 203.333 325.053L203.337 325.056Z" fill="url(#paint13_linear_401_7140)"/>
<path d="M127.471 263.029H161.714L181.748 257.487C181.748 257.487 178.751 268.518 186.479 279.553C194.207 290.588 209.681 315.176 209.681 315.176C209.681 315.176 207.302 321.323 208.091 323.373C208.881 325.422 214.245 328.1 214.245 328.1C214.245 328.1 217.401 331.41 218.819 334.404C220.238 337.398 226.707 340.236 231.599 338.03L228.842 333.775C228.842 333.775 222.132 321.167 218.19 314.231C214.248 307.295 193.109 245.667 193.109 245.667C193.109 245.667 190.612 236.217 153.83 235.901L131.744 232.442L127.475 263.029H127.471Z" fill="url(#paint14_linear_401_7140)"/>
<path d="M218.818 334.404C220.237 337.398 226.706 340.236 231.597 338.03L228.841 333.775C228.841 333.775 222.131 321.167 218.189 314.231C217.221 312.528 215.216 307.531 212.745 300.96L203.348 305.196C207.019 310.94 209.684 315.179 209.684 315.179C209.684 315.179 207.305 321.327 208.094 323.376C208.883 325.426 214.247 328.104 214.247 328.104C214.247 328.104 217.404 331.414 218.822 334.408L218.818 334.404Z" fill="url(#paint15_linear_401_7140)"/>
<path d="M118.905 230.48L107.045 263.029H127.472L135.23 234.667L118.905 230.48Z" fill="url(#paint16_linear_401_7140)"/>
<path d="M270.535 169.988H214.359V173.641H270.535V169.988Z" fill="#019DD8"/>
<path d="M270.535 182.577H214.359V186.23H270.535V182.577Z" fill="#019DD8"/>
<path d="M206.04 167.013L206.586 168.327C207.062 169.474 207.844 170.464 208.85 171.188L209.635 171.756L208.85 172.323C207.844 173.047 207.058 174.041 206.586 175.184L206.04 176.498L205.495 175.184C205.019 174.037 204.237 173.047 203.231 172.323L202.445 171.756L203.231 171.188C204.237 170.464 205.022 169.47 205.495 168.327L206.04 167.013Z" fill="#019DD8"/>
<path d="M206.04 179.465L206.586 180.779C207.062 181.926 207.844 182.916 208.85 183.64L209.635 184.207L208.85 184.775C207.844 185.499 207.058 186.493 206.586 187.636L206.04 188.95L205.495 187.636C205.019 186.489 204.237 185.499 203.231 184.775L202.445 184.207L203.231 183.64C204.237 182.916 205.022 181.922 205.495 180.779L206.04 179.465Z" fill="#019DD8"/>
<path d="M74.0975 153.514L93.0527 165.029L71.547 160.225L60.4606 179.26L64.8791 157.536L45.9277 146.021L67.4334 150.825L78.5199 131.794L74.0975 153.514Z" fill="#BEF5FF"/>
<path d="M333.313 328.233C355.689 328.233 373.827 310.11 373.827 287.754C373.827 265.398 355.689 247.275 333.313 247.275C310.938 247.275 292.799 265.398 292.799 287.754C292.799 310.11 310.938 328.233 333.313 328.233Z" fill="white"/>
<path d="M353.785 273.424C353.027 275.032 352.222 276.445 350.549 277.374C350.125 277.61 349.714 278.003 349.546 278.399C348.238 281.496 346.012 283.964 342.87 285.88C340.404 287.384 337.701 288.504 334.941 289.533C334.529 289.685 334.365 289.841 334.376 290.222C334.407 291.319 334.388 292.416 334.388 293.521C335.352 293.62 336.252 293.65 337.11 293.818C337.876 293.97 338.669 294.187 339.336 294.534C341.254 295.528 341.212 297.589 339.21 298.427C337.937 298.956 336.527 299.273 335.15 299.589C334.536 299.73 334.357 299.935 334.395 300.442C334.441 301.082 334.437 301.726 334.403 302.366C334.38 302.804 334.521 302.967 335.074 303.051C336.016 303.192 336.984 303.364 337.842 303.703C340.209 304.643 340.491 306.636 338.444 307.995C337.529 308.601 336.458 309.07 335.398 309.489C334.643 309.786 334.308 310.151 334.399 310.864C334.464 311.378 334.437 311.907 334.395 312.425C334.353 312.97 334.624 313.343 335.204 313.488C336.374 313.774 337.556 314.044 338.753 314.246C339.836 314.425 340.949 314.486 342.039 314.635C342.493 314.696 342.928 314.856 343.374 314.974L343.313 315.179H323.442L323.381 314.97C323.82 314.856 324.251 314.696 324.7 314.631C326.344 314.383 328.006 314.204 329.641 313.934C332.344 313.488 332.341 313.465 332.253 311.168C332.253 311.069 332.234 310.97 332.215 310.791C330.659 311.275 329.138 311.747 327.617 312.22L327.514 312.025C327.827 311.892 328.135 311.744 328.452 311.622C329.439 311.245 330.431 310.875 331.418 310.498C332.005 310.273 332.295 309.927 332.28 309.329C332.234 307.649 332.264 305.969 332.264 304.301C331.33 304.095 330.434 303.943 329.573 303.695C328.181 303.299 326.87 302.75 325.818 301.844C324.632 300.823 324.761 299.84 326.195 299.075C327.575 298.336 329.134 298.019 330.72 297.791C330.999 297.749 331.281 297.715 331.559 297.692C332.032 297.65 332.287 297.452 332.28 297.029C332.272 296.629 332.28 296.233 332.28 295.764C331.365 295.726 330.469 295.749 329.599 295.639C328.143 295.448 326.637 295.319 325.265 294.9C322.607 294.081 322.226 291.696 324.399 290.154C324.67 289.963 324.952 289.765 325.269 289.643C327.32 288.847 329.371 288.047 331.448 287.304C331.929 287.133 332.146 286.992 332.142 286.52C332.104 283.804 331.673 283.206 328.711 282.193C325.741 281.176 322.718 280.269 319.794 279.172C318.28 278.604 316.904 277.767 315.501 276.997C314.033 276.193 313.74 274.75 312.852 273.47C313.29 273.451 313.561 273.428 313.831 273.428C324.449 273.428 335.066 273.428 345.688 273.428C346.584 273.428 346.633 273.371 346.679 272.624C346.805 270.617 346.199 268.785 344.708 267.238C343.316 265.795 341.654 264.618 339.352 264.362C338.303 264.248 337.304 264.423 336.473 264.96C336.05 265.231 335.638 265.654 335.501 266.073C335.162 267.128 334.475 267.924 333.4 268.461C332.287 269.017 331.155 269.566 329.969 269.996C328.658 270.472 327.994 269.958 328.288 268.773C329.203 265.086 331.803 262.572 335.779 261.018C337.613 260.302 339.546 260.127 341.425 260.622C343.351 261.128 345.116 261.959 346.652 263.155C349.218 265.155 350.339 267.642 350.449 270.529C350.48 271.329 350.503 272.133 350.484 272.933C350.472 273.34 350.667 273.447 351.109 273.436C351.967 273.413 352.828 273.428 353.793 273.428L353.785 273.424ZM344.064 280.178C343.637 280.319 343.21 280.456 342.786 280.6C340.754 281.29 338.707 281.945 336.702 282.68C334.998 283.301 334.262 284.615 334.693 286.169C338.467 284.909 342.035 283.465 344.064 280.181V280.178ZM334.456 308.932L334.651 309.073C335.39 308.597 336.206 308.182 336.847 307.626C337.335 307.203 337.663 306.62 337.941 306.064C338.044 305.855 337.907 305.417 337.693 305.264C336.782 304.609 335.665 304.426 334.453 304.396V308.929L334.456 308.932ZM332.238 290.314C330.438 290.896 328.749 291.43 327.079 292.001C326.862 292.073 326.736 292.344 326.569 292.523L326.664 292.748L332.238 293.643V290.317V290.314ZM332.222 300.103C330.983 300.111 329.897 300.377 328.879 300.876C328.467 301.078 328.528 301.303 328.848 301.531C329.809 302.213 330.934 302.472 332.219 302.484V300.103H332.222ZM334.441 295.867V297.105C335.383 296.953 336.122 296.633 336.751 295.867H334.441Z" fill="#019DD8"/>
<path d="M149.762 168.933C149.762 168.933 149.449 169.851 148.736 171.432C149.064 172.651 149.674 173.885 150.429 174.894C151.882 176.837 154.039 178.235 156.403 178.776C156.822 177.138 157.398 175.515 158.18 174.399C158.18 174.399 153.246 165.303 149.766 168.933H149.762Z" fill="url(#paint17_linear_401_7140)"/>
<path d="M165.935 160.625C165.935 160.625 166.057 161.406 165.962 161.978C165.809 162.888 165.054 164.774 165.169 165.242C165.356 166.004 165.249 166.377 165.436 167.828C165.459 168.019 164.955 167.916 164.769 168.236C164.696 168.362 164.597 169.463 164.593 170.255C164.593 170.521 164.09 171.527 163.991 172.224C163.949 172.517 164.075 173.131 164.075 173.131C164.197 174.151 163.812 174.67 162.805 174.879L162.596 174.921C162.264 174.99 155.581 174.422 154.235 172.837C154.117 172.696 152.946 169.931 152.63 168.986C152.63 168.986 151.627 169.615 150.144 168.358C148.802 167.219 148.269 164.088 150.121 163.878C150.472 163.84 150.823 163.939 151.128 164.107L153.324 165.478C153.553 165.604 153.026 162.629 154.223 161.383C158.619 156.816 161.478 159.026 163.209 155.521L164.262 156.79C164.868 156.816 165.928 160.622 165.928 160.622L165.935 160.625Z" fill="#FEE2CC"/>
<path d="M154.896 143.709L176.013 149.728L175.849 147.038L154.732 141.02L154.896 143.709Z" fill="url(#paint18_linear_401_7140)"/>
<path d="M133.723 153.636L154.927 143.77L154.733 141.02L133.559 150.947L133.723 153.636Z" fill="#0B1F43"/>
<path d="M133.723 153.636L160.074 152.722L176.014 149.728L154.897 143.709L133.723 153.636Z" fill="#030917"/>
<path d="M156.09 148.947C160.157 148.699 163.84 149.613 166.227 151.221L166.299 156.245C165.952 156.237 165.392 156.786 164.747 157.871C164.359 158.527 163.493 158.74 162.857 158.325C157.828 155.053 148.617 155.437 145.518 157.083L145.445 153.27C147.462 150.95 151.431 149.225 156.086 148.947H156.09Z" fill="url(#paint19_linear_401_7140)"/>
<path d="M142.815 181.728C142.815 181.728 135.499 180.033 130.223 187.331C124.946 194.629 110.067 215.781 110.2 224.23C110.334 232.678 154.435 237.341 154.435 237.341C154.435 237.341 159.78 229.974 160.253 224.839L137.958 220.565L142.811 181.724L142.815 181.728Z" fill="url(#paint20_linear_401_7140)"/>
<path d="M138.425 220.565L132.059 219.03C131.54 218.905 131.247 218.352 131.437 217.853L134.552 210.616" stroke="#8FEAFF" stroke-miterlimit="10" stroke-linecap="round"/>
<path d="M347.869 222.698V242.323" stroke="#264F85" stroke-linecap="round" stroke-linejoin="round"/>
<path d="M165.698 165.128C165.576 165.173 165.435 165.101 165.363 164.991C165.29 164.88 165.275 164.747 165.256 164.617C165.222 164.358 165.29 164.309 165.256 164.05" stroke="#C69024" stroke-width="0.24" stroke-linecap="round" stroke-linejoin="round"/>
<path d="M161.894 164.96C161.894 164.96 165.047 165.528 166.199 165.078L165.493 164.941L165.318 164.541L161.891 164.96H161.894Z" fill="#443122"/>
<path d="M164.17 165.078C164.17 165.261 164.437 165.669 164.57 165.768C164.829 165.954 165.043 165.574 165.291 165.223C165.317 165.185 165.34 165.143 165.363 165.105C164.986 165.12 164.574 165.105 164.17 165.078Z" fill="#443122"/>
<path d="M165.675 168.046C165.782 167.954 165.816 167.798 165.767 167.661C165.477 166.888 164.535 164.438 164.257 164.267C163.929 164.065 163.449 164.046 163.273 166.004C163.208 166.739 163.163 167.261 163.128 167.623C163.09 168.046 163.384 168.423 163.773 168.453L164.329 168.495C164.817 168.533 165.294 168.369 165.675 168.042V168.046Z" fill="#F9CCA7"/>
<path d="M162.663 162.797L162.648 162.522C162.641 162.416 162.557 162.328 162.446 162.324C161.771 162.298 159.526 162.221 159.183 162.336C158.504 162.564 157.402 163.433 157.402 163.433L158.954 163.117C159.526 163.033 161.745 163.021 162.458 163.018C162.58 163.018 162.671 162.915 162.667 162.797H162.663Z" fill="#A86436"/>
<path d="M165.961 161.978C165.458 161.799 164.958 162.473 164.958 162.473L164.764 163.17C165.248 162.877 165.904 162.572 165.904 162.572L165.957 161.978H165.961Z" fill="#A86436"/>
<path d="M157.398 168.834C158.405 168.834 159.221 168.019 159.221 167.013C159.221 166.008 158.405 165.193 157.398 165.193C156.392 165.193 155.576 166.008 155.576 167.013C155.576 168.019 156.392 168.834 157.398 168.834Z" fill="#F9CCA7"/>
<path d="M164.768 163.17C164.768 163.17 164.207 163.654 164.596 164.747L165.767 167.661" stroke="#C69024" stroke-width="0.3" stroke-linecap="round" stroke-linejoin="round"/>
<path d="M149.891 165.055C149.891 165.055 151.793 165.086 152.727 166.621L149.891 165.055Z" fill="#F9CCA7"/>
<path d="M162.205 163.17L161.824 163.837L161.988 164.572" stroke="#C69024" stroke-width="0.3" stroke-linecap="round" stroke-linejoin="round"/>
<path d="M161.989 164.572C160.571 164.934 158.52 164.785 158.52 164.785C158.52 164.785 160.288 165.92 161.39 165.833C161.39 165.833 161.638 165.383 161.932 165.383L161.913 165.04L161.989 164.572Z" fill="white"/>
<path d="M158.516 164.785C158.516 164.785 161.668 165.353 162.82 164.903L162.114 164.766L161.939 164.366L158.512 164.785H158.516Z" fill="#443122"/>
<path d="M160.792 164.972C160.792 165.155 160.433 165.497 160.567 165.596C160.826 165.783 161.348 165.768 161.596 165.417C161.623 165.379 161.962 165.04 161.985 165.002C161.608 165.017 161.196 165.002 160.792 164.975V164.972Z" fill="#443122"/>
<path d="M164.547 170.411C164.898 172.506 162.206 171.581 161.387 170.411H164.547Z" fill="#F49C95"/>
<path d="M164.672 169.356C164.584 169.855 164.191 169.623 163.917 169.497C163.597 169.505 161.706 170.59 161.016 170.403C161.374 170.499 162.285 170.407 163.124 170.411C164.252 170.697 165.183 170.403 164.672 169.356Z" fill="#E28883"/>
<path d="M158.941 164.987C158.941 164.987 160.093 165.573 160.97 165.703L161.557 165.817C161.557 165.817 160.02 166.065 158.941 164.987Z" fill="#A86436"/>
<path d="M248.75 146.044C248.75 146.044 278.441 148.905 281.514 137.173" stroke="#00A8E1" stroke-linecap="round" stroke-linejoin="round"/>
<path d="M282.604 138.83L282.261 138.997L281.442 137.306L279.814 138.247L279.623 137.916L281.605 136.769L282.604 138.83Z" fill="#00A8E1"/>
<path d="M257.883 99.8134C257.883 99.8134 258.066 91.2353 262.153 84.9465" stroke="#00A8E1" stroke-linecap="round" stroke-linejoin="round"/>
<path d="M262.812 86.8472L262.434 86.9196L262.084 85.076L260.269 85.5597L260.17 85.1941L262.381 84.5999L262.812 86.8472Z" fill="#00A8E1"/>
<path d="M248.75 143.908C248.75 143.908 275.513 145.359 276.42 118.535" stroke="#00A8E1" stroke-linecap="round" stroke-linejoin="round"/>
<path d="M277.9 119.88L277.606 120.123L276.405 118.68L275.052 119.983L274.785 119.708L276.436 118.12L277.9 119.88Z" fill="#00A8E1"/>
</g>
<defs>
<linearGradient id="paint0_linear_401_7140" x1="199.558" y1="72.6279" x2="455.455" y2="457.406" gradientUnits="userSpaceOnUse">
<stop stop-color="#0088C3"/>
<stop offset="1" stop-color="#0F1F42"/>
</linearGradient>
<linearGradient id="paint1_linear_401_7140" x1="263.265" y1="114.787" x2="349.294" y2="84.6904" gradientUnits="userSpaceOnUse">
<stop stop-color="#0088C3"/>
<stop offset="1" stop-color="#0F1F42"/>
</linearGradient>
<linearGradient id="paint2_linear_401_7140" x1="277.955" y1="67.006" x2="251.094" y2="290.095" gradientUnits="userSpaceOnUse">
<stop offset="0.34" stop-color="white"/>
<stop offset="0.64" stop-color="#BEF5FF"/>
</linearGradient>
<linearGradient id="paint3_linear_401_7140" x1="82.5077" y1="117.788" x2="82.5077" y2="280.928" gradientUnits="userSpaceOnUse">
<stop stop-color="white"/>
<stop offset="0.46" stop-color="#FFCE4E"/>
<stop offset="0.94" stop-color="#C69024"/>
</linearGradient>
<linearGradient id="paint4_linear_401_7140" x1="101.909" y1="165.322" x2="107.725" y2="308.441" gradientUnits="userSpaceOnUse">
<stop stop-color="white"/>
<stop offset="0.61" stop-color="#FFCE4E"/>
<stop offset="0.94" stop-color="#C69024"/>
</linearGradient>
<linearGradient id="paint5_linear_401_7140" x1="100.75" y1="165.368" x2="106.565" y2="308.487" gradientUnits="userSpaceOnUse">
<stop stop-color="white"/>
<stop offset="0.46" stop-color="#FFCE4E"/>
<stop offset="0.94" stop-color="#C69024"/>
</linearGradient>
<linearGradient id="paint6_linear_401_7140" x1="59.8651" y1="366.534" x2="302.707" y2="366.534" gradientUnits="userSpaceOnUse">
<stop offset="0.21" stop-color="#F5CCFF"/>
<stop offset="0.77" stop-color="#BB7AC9"/>
</linearGradient>
<linearGradient id="paint7_linear_401_7140" x1="138.638" y1="181.64" x2="154.117" y2="259.808" gradientUnits="userSpaceOnUse">
<stop stop-color="#F0F4F8"/>
<stop offset="0.45" stop-color="#00DC86"/>
<stop offset="1" stop-color="#23626A"/>
</linearGradient>
<linearGradient id="paint8_linear_401_7140" x1="175.355" y1="183.526" x2="168.075" y2="264.417" gradientUnits="userSpaceOnUse">
<stop offset="0.26" stop-color="white"/>
<stop offset="0.9" stop-color="#BEF5FF"/>
</linearGradient>
<linearGradient id="paint9_linear_401_7140" x1="221.691" y1="189.224" x2="160.816" y2="261.973" gradientUnits="userSpaceOnUse">
<stop stop-color="#0088C3"/>
<stop offset="0.16" stop-color="#0084BE"/>
<stop offset="0.34" stop-color="#0179B0"/>
<stop offset="0.51" stop-color="#04699C"/>
<stop offset="0.62" stop-color="#055D8D"/>
<stop offset="0.82" stop-color="#0A3E67"/>
<stop offset="1" stop-color="#0F1F42"/>
</linearGradient>
<linearGradient id="paint10_linear_401_7140" x1="215.64" y1="197.597" x2="172.41" y2="271.823" gradientUnits="userSpaceOnUse">
<stop stop-color="#0088C3"/>
<stop offset="0.18" stop-color="#0084BF"/>
<stop offset="0.36" stop-color="#017BB3"/>
<stop offset="0.53" stop-color="#046BA0"/>
<stop offset="0.7" stop-color="#075585"/>
<stop offset="0.87" stop-color="#0B3962"/>
<stop offset="1" stop-color="#0F1F42"/>
</linearGradient>
<linearGradient id="paint11_linear_401_7140" x1="212.707" y1="205.129" x2="206.415" y2="222.978" gradientUnits="userSpaceOnUse">
<stop offset="0.26" stop-color="white"/>
<stop offset="0.9" stop-color="#BEF5FF"/>
</linearGradient>
<linearGradient id="paint12_linear_401_7140" x1="220.505" y1="334.739" x2="175.451" y2="245.335" gradientUnits="userSpaceOnUse">
<stop stop-color="#F0F4F8"/>
<stop offset="0.45" stop-color="#00DC86"/>
<stop offset="1" stop-color="#23626A"/>
</linearGradient>
<linearGradient id="paint13_linear_401_7140" x1="195.887" y1="294.572" x2="207.234" y2="334.215" gradientUnits="userSpaceOnUse">
<stop stop-color="#EAB892"/>
<stop offset="0.65" stop-color="#F9CCA7"/>
</linearGradient>
<linearGradient id="paint14_linear_401_7140" x1="234.374" y1="311.37" x2="148.809" y2="246.617" gradientUnits="userSpaceOnUse">
<stop stop-color="#F0F4F8"/>
<stop offset="0.45" stop-color="#00DC86"/>
<stop offset="1" stop-color="#23626A"/>
</linearGradient>
<linearGradient id="paint15_linear_401_7140" x1="219.623" y1="292.405" x2="216.624" y2="333.113" gradientUnits="userSpaceOnUse">
<stop offset="0.05" stop-color="#EAB892"/>
<stop offset="0.92" stop-color="#FEE2CC"/>
</linearGradient>
<linearGradient id="paint16_linear_401_7140" x1="116.42" y1="290.367" x2="122.958" y2="232.704" gradientUnits="userSpaceOnUse">
<stop offset="0.26" stop-color="white"/>
<stop offset="0.9" stop-color="#BEF5FF"/>
</linearGradient>
<linearGradient id="paint17_linear_401_7140" x1="156.38" y1="169.097" x2="150.455" y2="177.665" gradientUnits="userSpaceOnUse">
<stop offset="0.3" stop-color="#EAB892"/>
<stop offset="0.81" stop-color="#F9CCA7"/>
<stop offset="0.84" stop-color="#FEE2CC"/>
</linearGradient>
<linearGradient id="paint18_linear_401_7140" x1="176.434" y1="147.328" x2="154.306" y2="143.379" gradientUnits="userSpaceOnUse">
<stop stop-color="#BEF5FF"/>
<stop offset="1" stop-color="#0088C3"/>
</linearGradient>
<linearGradient id="paint19_linear_401_7140" x1="166.762" y1="151.718" x2="152.228" y2="155.534" gradientUnits="userSpaceOnUse">
<stop stop-color="#0088C3"/>
<stop offset="1" stop-color="#0F1F42"/>
</linearGradient>
<linearGradient id="paint20_linear_401_7140" x1="139.197" y1="180.273" x2="131.917" y2="261.164" gradientUnits="userSpaceOnUse">
<stop offset="0.26" stop-color="white"/>
<stop offset="0.9" stop-color="#BEF5FF"/>
</linearGradient>
<clipPath id="clip0_401_7140">
<rect width="443" height="419" fill="white"/>
</clipPath>
</defs>
</svg>
