<svg width="52" height="47" viewBox="0 0 52 47" fill="none" xmlns="http://www.w3.org/2000/svg">
<path d="M0.984 46.1768V40.4168L16.6 24.4808C19.8 21.2808 22.296 18.0168 22.296 14.6248C22.296 10.1448 19.224 7.71276 15.384 7.71276C11.672 7.71276 8.792 9.69675 7.064 13.2808L0.856 9.63276C3.736 3.48875 9.368 0.544754 15.32 0.544754C22.68 0.544754 29.656 5.47276 29.656 14.3688C29.656 19.9368 26.328 24.6088 22.04 28.9608L11.928 39.0728H30.488V46.1768H0.984ZM44.858 1.37675H51.258V46.1768H43.898V9.24876L34.874 11.8088L33.082 5.53675L44.858 1.37675Z" fill="url(#paint0_linear_401_13092)"/>
<defs>
<linearGradient id="paint0_linear_401_13092" x1="136.014" y1="-7.82323" x2="10.982" y2="-70.339" gradientUnits="userSpaceOnUse">
<stop stop-color="#F0F4F8"/>
<stop offset="0.300019" stop-color="#00DC86"/>
<stop offset="1" stop-color="#23626A"/>
</linearGradient>
</defs>
</svg>
