<svg width="65" height="47" viewBox="0 0 65 47" fill="none" xmlns="http://www.w3.org/2000/svg">
<path d="M0.984 46.1768V40.4168L16.6 24.4808C19.8 21.2808 22.296 18.0168 22.296 14.6248C22.296 10.1448 19.224 7.71276 15.384 7.71276C11.672 7.71276 8.792 9.69675 7.064 13.2808L0.856 9.63276C3.736 3.48875 9.368 0.544754 15.32 0.544754C22.68 0.544754 29.656 5.47276 29.656 14.3688C29.656 19.9368 26.328 24.6088 22.04 28.9608L11.928 39.0728H30.488V46.1768H0.984ZM34.859 46.1768V40.4168L50.475 24.4808C53.675 21.2808 56.171 18.0168 56.171 14.6248C56.171 10.1448 53.099 7.71276 49.259 7.71276C45.547 7.71276 42.667 9.69675 40.939 13.2808L34.731 9.63276C37.611 3.48875 43.243 0.544754 49.195 0.544754C56.555 0.544754 63.531 5.47276 63.531 14.3688C63.531 19.9368 60.203 24.6088 55.915 28.9608L45.803 39.0728H64.363V46.1768H34.859Z" fill="url(#paint0_linear_401_13106)"/>
<defs>
<linearGradient id="paint0_linear_401_13106" x1="127.434" y1="-22.8675" x2="79.0357" y2="98.2086" gradientUnits="userSpaceOnUse">
<stop stop-color="#F0F4F8"/>
<stop offset="0.0754656" stop-color="#F0F4F8"/>
<stop offset="0.33956" stop-color="#DE97FF"/>
<stop offset="0.83" stop-color="#A827D8"/>
<stop offset="0.953982" stop-color="#8520AB"/>
</linearGradient>
</defs>
</svg>
