<svg width="779" height="714" viewBox="0 0 779 714" fill="none" xmlns="http://www.w3.org/2000/svg">
<g clip-path="url(#clip0_2049_8436)">
<path d="M371.917 68.5117L651.625 230.002V552.982L371.917 714.472L92.2076 552.982V230.002L371.917 68.5117Z" fill="#019DD8"/>
<path d="M371.917 68.5117L651.625 230.002V552.982L371.917 714.472L92.2076 552.982V230.002L371.917 68.5117Z" fill="url(#paint0_radial_2049_8436)"/>
<path d="M274.184 254.63C274.184 254.63 288.997 236.209 291.248 219.585C294.94 192.362 292.101 162.329 311.872 153.346C311.872 153.346 325.644 145.209 337.85 147.732C337.85 147.732 358.151 128.542 379.04 147.243C395.462 161.945 418.343 194.69 417.267 241.683C417.267 241.683 392.218 263.02 361.318 267.053C322.05 272.178 280.252 264.879 274.191 254.63H274.184Z" fill="url(#paint1_linear_2049_8436)"/>
<path d="M390.044 258.453C390.044 258.453 397.07 230.384 394.371 198.723" stroke="#F97803" stroke-miterlimit="10"/>
<path d="M668.66 498.27C667.646 498.158 666.584 498.116 665.493 498.116C666.346 497.431 667.15 496.725 667.87 496.005C681.74 482.142 683.04 460.952 670.764 448.662C658.488 436.379 637.292 437.652 623.422 451.515C622.702 452.235 622.003 453.046 621.325 453.899C621.318 452.808 621.269 451.738 621.157 450.725C618.969 431.234 603.204 417.008 585.951 418.944C568.69 420.88 556.477 438.246 558.658 457.737C558.77 458.75 558.973 459.799 559.217 460.854C558.357 460.183 557.498 459.554 556.631 459.009C540.034 448.564 519.076 452.018 509.834 466.72C500.585 481.422 506.548 501.8 523.151 512.245C524.011 512.79 524.955 513.286 525.934 513.755C524.871 514.006 523.843 514.286 522.879 514.622C511.987 518.425 503.926 526.408 500.291 535.671H700.07C700.21 534.958 700.329 534.238 700.413 533.504C702.363 516.25 688.151 500.472 668.667 498.27H668.66Z" fill="url(#paint2_linear_2049_8436)"/>
<path d="M236.307 354.207C224.031 341.924 202.834 343.197 188.964 357.06C188.244 357.78 187.545 358.591 186.867 359.443C186.86 358.353 186.811 357.283 186.699 356.27C184.511 336.779 168.747 322.552 151.493 324.489C134.233 326.425 122.019 343.791 124.201 363.281C124.313 364.295 124.515 365.344 124.76 366.399C123.9 365.728 123.04 365.099 122.173 364.554C105.577 354.109 84.6181 357.563 75.3762 372.265C66.1272 386.967 72.0904 407.345 88.6938 417.79C89.5537 418.335 90.4975 418.831 91.4762 419.3C90.4136 419.551 89.3859 419.831 88.4212 420.167C69.9093 426.633 59.5417 445.166 65.2743 461.567C70.9998 477.96 90.6513 486.007 109.17 479.54C110.135 479.205 111.114 478.778 112.092 478.303C111.624 479.289 111.205 480.274 110.869 481.239C104.381 499.744 112.414 519.402 128.801 525.149C145.187 530.896 163.734 520.549 170.222 502.037C170.557 501.072 170.837 500.045 171.075 498.982C171.557 499.961 172.06 500.905 172.606 501.764C183.029 518.375 203.408 524.352 218.117 515.117C232.825 505.882 236.3 484.937 225.869 468.327C225.324 467.46 224.695 466.607 224.017 465.754C225.079 465.992 226.135 466.181 227.149 466.3C246.632 468.502 264.012 456.303 265.969 439.042C267.92 421.788 253.707 406.01 234.224 403.808C233.21 403.696 232.147 403.654 231.057 403.654C231.91 402.969 232.714 402.263 233.434 401.543C247.304 387.68 248.604 366.49 236.328 354.2L236.307 354.207Z" fill="url(#paint3_linear_2049_8436)"/>
<path d="M568.131 282.58H168.754C165.098 282.58 162.134 285.544 162.134 289.2V532.128C162.134 535.784 165.098 538.748 168.754 538.748H568.131C571.787 538.748 574.751 535.784 574.751 532.128V289.2C574.751 285.544 571.787 282.58 568.131 282.58Z" fill="white"/>
<path d="M573.604 531.484V289.843C573.604 286.492 570.888 283.775 567.536 283.775H169.348C165.997 283.775 163.28 286.492 163.28 289.843V531.484C163.28 534.836 165.997 537.552 169.348 537.552H567.536C570.888 537.552 573.604 534.836 573.604 531.484Z" fill="url(#paint4_linear_2049_8436)"/>
<path d="M655.07 599.227H651.197V601.003L577.639 543.489C576.038 542.237 568.585 541.23 560.972 541.23H175.913C168.307 541.23 160.854 542.23 159.247 543.489L87.8344 599.325H81.8223V604.659C81.9271 606.449 87.6667 607.777 96.4822 607.777H640.41C649.246 607.777 654.993 606.442 655.063 604.645H655.07V599.227Z" fill="url(#paint5_linear_2049_8436)"/>
<path d="M640.41 602.38H96.4892C85.7371 602.38 79.5502 600.408 82.5982 598.024L159.254 538.084C160.854 536.833 168.307 535.826 175.92 535.826H560.979C568.592 535.826 576.038 536.826 577.645 538.084L654.301 598.024C657.349 600.408 651.155 602.38 640.41 602.38Z" fill="white"/>
<path d="M595.92 574.506H140.98C137.834 574.506 135.876 573.996 136.61 573.374L175.06 540.39C175.564 539.957 178.073 539.607 180.674 539.607H556.226C558.819 539.607 561.336 539.957 561.839 540.39L600.289 573.374C601.016 573.996 599.059 574.506 595.92 574.506Z" fill="#EDEDED"/>
<path d="M436.569 598.745H300.33C296.807 598.745 294.157 598.102 294.416 597.319L300.456 579.136C300.673 578.479 303.441 577.947 306.643 577.947H430.249C433.451 577.947 436.219 578.479 436.436 579.136L442.476 597.319C442.735 598.102 440.092 598.745 436.562 598.745H436.569Z" fill="#EDEDED"/>
<path d="M188.175 558.211H164.895C163.448 558.211 161.994 558.47 161.637 558.784L156.429 563.426C156.052 563.762 156.961 564.027 158.45 564.027H206.484C207.973 564.027 209.406 563.755 209.693 563.426L213.594 558.784C213.86 558.47 212.902 558.211 211.462 558.211H188.182H188.175Z" fill="url(#paint6_linear_2049_8436)"/>
<path d="M241.005 564.027H219.69C218.201 564.027 217.173 563.797 217.397 563.517L221.256 558.693C221.465 558.428 222.815 558.211 224.255 558.211H244.92C246.367 558.211 247.395 558.428 247.22 558.693L244.046 563.517C243.857 563.797 242.501 564.027 241.012 564.027H241.005Z" fill="url(#paint7_linear_2049_8436)"/>
<path d="M275.526 564.027H254.211C252.722 564.027 251.653 563.797 251.827 563.517L254.805 558.693C254.973 558.428 256.274 558.211 257.721 558.211H278.386C279.833 558.211 280.895 558.428 280.77 558.693L278.47 563.517C278.337 563.797 277.016 564.027 275.526 564.027Z" fill="url(#paint8_linear_2049_8436)"/>
<path d="M310.055 564.027H288.739C287.25 564.027 286.139 563.797 286.265 563.517L288.362 558.693C288.481 558.428 289.739 558.211 291.186 558.211H311.851C313.298 558.211 314.403 558.428 314.326 558.693L312.907 563.517C312.823 563.797 311.551 564.027 310.062 564.027H310.055Z" fill="url(#paint9_linear_2049_8436)"/>
<path d="M379.103 564.027H357.788C356.299 564.027 355.103 563.797 355.124 563.517L355.467 558.693C355.488 558.428 356.669 558.211 358.116 558.211H378.782C380.229 558.211 381.41 558.428 381.431 558.693L381.774 563.517C381.795 563.797 380.599 564.027 379.11 564.027H379.103Z" fill="url(#paint10_linear_2049_8436)"/>
<path d="M344.583 564.027H323.268C321.778 564.027 320.625 563.797 320.702 563.517L321.918 558.693C321.988 558.428 323.212 558.211 324.659 558.211H345.324C346.771 558.211 347.917 558.428 347.883 558.693L347.344 563.517C347.316 563.797 346.079 564.027 344.59 564.027H344.583Z" fill="url(#paint11_linear_2049_8436)"/>
<path d="M413.632 564.027H392.317C390.828 564.027 389.59 563.797 389.562 563.517L389.024 558.693C388.996 558.428 390.143 558.211 391.583 558.211H412.248C413.695 558.211 414.918 558.428 414.981 558.693L416.198 563.517C416.268 563.797 415.121 564.027 413.632 564.027Z" fill="url(#paint12_linear_2049_8436)"/>
<path d="M448.16 564.027H426.844C425.355 564.027 424.076 563.797 423.999 563.517L422.58 558.693C422.503 558.428 423.608 558.211 425.055 558.211H445.72C447.167 558.211 448.425 558.428 448.544 558.693L450.641 563.517C450.767 563.797 449.656 564.027 448.167 564.027H448.16Z" fill="url(#paint13_linear_2049_8436)"/>
<path d="M482.681 564.027H461.366C459.876 564.027 458.555 563.797 458.422 563.517L456.122 558.693C455.997 558.428 457.066 558.211 458.506 558.211H479.171C480.618 558.211 481.919 558.428 482.087 558.693L485.065 563.517C485.239 563.797 484.17 564.027 482.681 564.027Z" fill="url(#paint14_linear_2049_8436)"/>
<path d="M517.209 564.027H495.893C494.404 564.027 493.048 563.797 492.859 563.517L489.685 558.693C489.511 558.428 490.538 558.211 491.985 558.211H512.65C514.098 558.211 515.44 558.428 515.65 558.693L519.509 563.517C519.732 563.797 518.712 564.027 517.216 564.027H517.209Z" fill="url(#paint15_linear_2049_8436)"/>
<path d="M202.422 572.117H182.988C181.436 572.117 180.415 571.865 180.702 571.564L185.693 566.321C185.966 566.035 187.413 565.797 188.916 565.797H207.728C209.231 565.797 210.259 566.028 210.021 566.321L205.694 571.564C205.442 571.872 203.974 572.117 202.422 572.117Z" fill="url(#paint16_linear_2049_8436)"/>
<path d="M169.215 572.117H149.48C147.928 572.117 146.949 571.865 147.292 571.564L153.171 566.321C153.493 566.035 154.975 565.797 156.478 565.797H175.584C177.087 565.797 178.073 566.028 177.786 566.321L172.578 571.564C172.27 571.872 170.767 572.117 169.215 572.117Z" fill="url(#paint17_linear_2049_8436)"/>
<path d="M235.566 572.117H216.201C214.649 572.117 213.587 571.865 213.824 571.564L217.935 566.321C218.159 566.035 219.564 565.797 221.067 565.797H239.816C241.32 565.797 242.389 566.028 242.193 566.321L238.747 571.564C238.544 571.872 237.125 572.117 235.566 572.117Z" fill="url(#paint18_linear_2049_8436)"/>
<path d="M554.274 572.117H534.84C533.288 572.117 531.82 571.865 531.568 571.564L527.234 566.321C526.996 566.035 528.017 565.797 529.527 565.797H548.339C549.842 565.797 551.282 566.028 551.562 566.321L556.567 571.564C556.861 571.872 555.84 572.117 554.281 572.117H554.274Z" fill="url(#paint19_linear_2049_8436)"/>
<path d="M521.068 572.117H501.332C499.78 572.117 498.354 571.865 498.151 571.565L496.76 569.446C496.565 569.146 497.641 568.908 499.172 568.908H518.586C520.117 568.908 521.543 569.153 521.781 569.446L523.445 571.565C523.682 571.872 522.62 572.117 521.068 572.117Z" fill="url(#paint20_linear_2049_8436)"/>
<path d="M587.411 572.117H568.047C566.495 572.117 564.985 571.865 564.684 571.565L562.58 569.446C562.279 569.146 563.279 568.908 564.81 568.908H583.86C585.391 568.908 586.901 569.153 587.237 569.446L589.614 571.565C589.956 571.872 588.977 572.117 587.425 572.117H587.411Z" fill="url(#paint21_linear_2049_8436)"/>
<path d="M271.563 572.117H249.332C247.78 572.117 246.675 571.865 246.864 571.564L250.094 566.321C250.275 566.035 251.639 565.797 253.142 565.797H274.66C276.163 565.797 277.274 566.028 277.134 566.321L274.639 571.564C274.492 571.872 273.115 572.117 271.563 572.117Z" fill="url(#paint22_linear_2049_8436)"/>
<path d="M487.561 572.117H465.33C463.778 572.117 462.4 571.865 462.254 571.564L459.758 566.321C459.618 566.035 460.73 565.797 462.233 565.797H483.751C485.254 565.797 486.617 566.028 486.799 566.321L490.029 571.564C490.217 571.872 489.113 572.117 487.561 572.117Z" fill="url(#paint23_linear_2049_8436)"/>
<path d="M548.717 558.211H525.437C523.99 558.211 523.04 558.47 523.305 558.784L527.206 563.426C527.486 563.762 528.919 564.027 530.415 564.027H578.45C579.939 564.027 580.84 563.755 580.47 563.426L575.262 558.784C574.905 558.47 573.451 558.211 572.004 558.211H548.724H548.717Z" fill="url(#paint24_linear_2049_8436)"/>
<path d="M187.762 551.199H172.662C171.271 551.199 169.88 551.437 169.551 551.731L164.734 556.023C164.392 556.331 165.266 556.582 166.699 556.582H197.815C199.249 556.582 200.64 556.331 200.919 556.023L204.876 551.731C205.149 551.437 204.24 551.199 202.849 551.199H187.749H187.762Z" fill="url(#paint25_linear_2049_8436)"/>
<path d="M264.159 556.575H243.683C242.249 556.575 241.236 556.365 241.418 556.107L244.536 551.647C244.71 551.402 245.976 551.199 247.36 551.199H267.235C268.626 551.199 269.64 551.402 269.5 551.647L267.011 556.107C266.864 556.365 265.585 556.575 264.159 556.575Z" fill="url(#paint26_linear_2049_8436)"/>
<path d="M230.987 556.575H210.511C209.078 556.575 208.106 556.365 208.337 556.107L212.266 551.647C212.482 551.402 213.783 551.199 215.174 551.199H235.049C236.44 551.199 237.419 551.402 237.237 551.647L233.93 556.107C233.735 556.365 232.42 556.575 230.987 556.575Z" fill="url(#paint27_linear_2049_8436)"/>
<path d="M297.324 556.575H276.841C275.408 556.575 274.359 556.365 274.492 556.107L276.799 551.647C276.925 551.402 278.155 551.199 279.546 551.199H299.421C300.813 551.199 301.861 551.402 301.77 551.647L300.093 556.107C299.995 556.365 298.757 556.575 297.324 556.575Z" fill="url(#paint28_linear_2049_8436)"/>
<path d="M330.496 556.575H310.012C308.579 556.575 307.489 556.365 307.58 556.107L309.076 551.647C309.159 551.402 310.348 551.199 311.739 551.199H331.614C333.005 551.199 334.089 551.402 334.04 551.647L333.173 556.107C333.124 556.365 331.922 556.575 330.489 556.575H330.496Z" fill="url(#paint29_linear_2049_8436)"/>
<path d="M396.825 556.575H376.349C374.916 556.575 373.748 556.365 373.741 556.107L373.608 551.647C373.601 551.402 374.72 551.199 376.111 551.199H395.986C397.378 551.199 398.538 551.402 398.58 551.647L399.342 556.107C399.384 556.365 398.258 556.575 396.832 556.575H396.825Z" fill="url(#paint30_linear_2049_8436)"/>
<path d="M363.66 556.575H343.184C341.751 556.575 340.625 556.365 340.667 556.107L341.352 551.647C341.387 551.402 342.548 551.199 343.939 551.199H363.814C365.205 551.199 366.324 551.402 366.324 551.647L366.268 556.107C366.268 556.365 365.1 556.575 363.667 556.575H363.66Z" fill="url(#paint31_linear_2049_8436)"/>
<path d="M429.997 556.575H409.514C408.081 556.575 406.878 556.365 406.822 556.107L405.879 551.647C405.83 551.402 406.913 551.199 408.297 551.199H428.173C429.564 551.199 430.759 551.402 430.843 551.647L432.416 556.107C432.507 556.365 431.423 556.575 429.99 556.575H429.997Z" fill="url(#paint32_linear_2049_8436)"/>
<path d="M463.162 556.575H442.679C441.246 556.575 440.002 556.365 439.904 556.107L438.149 551.647C438.051 551.402 439.1 551.199 440.491 551.199H460.366C461.757 551.199 462.988 551.402 463.12 551.647L465.504 556.107C465.644 556.365 464.596 556.575 463.162 556.575Z" fill="url(#paint33_linear_2049_8436)"/>
<path d="M496.334 556.575H475.851C474.418 556.575 473.139 556.365 472.985 556.107L470.419 551.647C470.279 551.402 471.286 551.199 472.677 551.199H492.552C493.944 551.199 495.209 551.402 495.391 551.647L498.586 556.107C498.774 556.365 497.761 556.575 496.334 556.575Z" fill="url(#paint34_linear_2049_8436)"/>
<path d="M529.499 556.575H509.023C507.59 556.575 506.269 556.365 506.073 556.107L502.696 551.647C502.507 551.402 503.486 551.199 504.87 551.199H524.745C526.137 551.199 527.437 551.402 527.661 551.647L531.666 556.107C531.897 556.365 530.932 556.575 529.499 556.575Z" fill="url(#paint35_linear_2049_8436)"/>
<path d="M229.218 543.3H211.077C209.749 543.3 208.847 543.118 209.057 542.895L210.518 541.35C210.727 541.133 211.951 540.951 213.265 540.951H231.155C232.462 540.951 233.378 541.126 233.203 541.35L231.952 542.895C231.77 543.118 230.547 543.3 229.218 543.3Z" fill="url(#paint36_linear_2049_8436)"/>
<path d="M199.556 543.3H181.415C180.086 543.3 179.212 543.118 179.464 542.895L181.198 541.35C181.443 541.133 182.701 540.951 184.008 540.951H201.898C203.205 540.951 204.093 541.126 203.876 541.35L202.352 542.895C202.129 543.118 200.877 543.3 199.549 543.3H199.556Z" fill="url(#paint37_linear_2049_8436)"/>
<path d="M258.881 543.3H240.739C239.411 543.3 238.474 543.118 238.649 542.895L239.844 541.35C240.012 541.133 241.208 540.951 242.522 540.951H260.412C261.719 540.951 262.67 541.126 262.53 541.35L261.551 542.895C261.411 543.118 260.216 543.3 258.895 543.3H258.881Z" fill="url(#paint38_linear_2049_8436)"/>
<path d="M288.536 543.3H270.395C269.067 543.3 268.102 543.118 268.235 542.895L269.158 541.35C269.291 541.133 270.451 540.951 271.765 540.951H289.655C290.962 540.951 291.941 541.126 291.843 541.35L291.13 542.895C291.025 543.118 289.872 543.3 288.543 543.3H288.536Z" fill="url(#paint39_linear_2049_8436)"/>
<path d="M347.861 543.3H329.72C328.392 543.3 327.364 543.118 327.413 542.895L327.79 541.35C327.846 541.133 328.951 540.951 330.258 540.951H348.148C349.455 540.951 350.497 541.126 350.476 541.35L350.308 542.895C350.287 543.118 349.189 543.3 347.861 543.3Z" fill="url(#paint40_linear_2049_8436)"/>
<path d="M318.198 543.3H300.057C298.729 543.3 297.729 543.118 297.827 542.895L298.477 541.35C298.568 541.133 299.7 540.951 301.015 540.951H318.905C320.212 540.951 321.226 541.126 321.163 541.35L320.722 542.895C320.659 543.118 319.534 543.3 318.205 543.3H318.198Z" fill="url(#paint41_linear_2049_8436)"/>
<path d="M377.517 543.3H359.375C358.047 543.3 356.984 543.118 356.998 542.895L357.103 541.35C357.117 541.133 358.194 540.951 359.501 540.951H377.391C378.698 540.951 379.775 541.126 379.789 541.35L379.893 542.895C379.907 543.118 378.845 543.3 377.517 543.3Z" fill="url(#paint42_linear_2049_8436)"/>
<path d="M407.179 543.3H389.038C387.709 543.3 386.619 543.118 386.591 542.895L386.423 541.35C386.402 541.133 387.444 540.951 388.751 540.951H406.641C407.948 540.951 409.053 541.126 409.109 541.35L409.486 542.895C409.542 543.118 408.507 543.3 407.179 543.3Z" fill="url(#paint43_linear_2049_8436)"/>
<path d="M436.835 543.3H418.693C417.365 543.3 416.24 543.118 416.177 542.895L415.736 541.35C415.673 541.133 416.687 540.951 417.994 540.951H435.884C437.191 540.951 438.331 541.126 438.422 541.35L439.072 542.895C439.163 543.118 438.163 543.3 436.842 543.3H436.835Z" fill="url(#paint44_linear_2049_8436)"/>
<path d="M466.497 543.3H448.355C447.027 543.3 445.867 543.118 445.769 542.895L445.056 541.35C444.958 541.133 445.936 540.951 447.244 540.951H465.133C466.441 540.951 467.608 541.126 467.741 541.35L468.664 542.895C468.797 543.118 467.832 543.3 466.504 543.3H466.497Z" fill="url(#paint45_linear_2049_8436)"/>
<path d="M496.159 543.3H478.018C476.69 543.3 475.501 543.118 475.361 542.895L474.383 541.35C474.243 541.133 475.194 540.951 476.501 540.951H494.391C495.698 540.951 496.894 541.126 497.068 541.35L498.264 542.895C498.438 543.118 497.502 543.3 496.173 543.3H496.159Z" fill="url(#paint46_linear_2049_8436)"/>
<path d="M525.815 543.3H507.673C506.345 543.3 505.122 543.118 504.94 542.895L503.688 541.35C503.514 541.133 504.429 540.951 505.737 540.951H523.626C524.934 540.951 526.164 541.126 526.374 541.35L527.835 542.895C528.045 543.118 527.143 543.3 525.815 543.3Z" fill="url(#paint47_linear_2049_8436)"/>
<path d="M555.477 543.3H537.336C536.007 543.3 534.756 543.118 534.532 542.895L533.008 541.35C532.791 541.133 533.679 540.951 534.987 540.951H552.876C554.184 540.951 555.442 541.126 555.687 541.35L557.42 542.895C557.672 543.118 556.798 543.3 555.47 543.3H555.477Z" fill="url(#paint48_linear_2049_8436)"/>
<path d="M550.647 551.199H537.056C535.665 551.199 534.763 551.437 535.036 551.731L539.07 556.023C539.356 556.331 540.754 556.582 542.188 556.582H570.186C571.619 556.582 572.5 556.331 572.151 556.023L567.334 551.731C567.005 551.437 565.614 551.199 564.223 551.199H550.633H550.647Z" fill="url(#paint49_linear_2049_8436)"/>
<path d="M194.404 544.705H179.863C178.528 544.705 177.192 544.922 176.892 545.194L172.432 549.172C172.11 549.459 172.97 549.69 174.347 549.69H196.809C198.186 549.69 199.528 549.459 199.801 549.172L203.639 545.194C203.898 544.922 203.031 544.705 201.689 544.705H194.411H194.404Z" fill="url(#paint50_linear_2049_8436)"/>
<path d="M260.622 549.69H240.915C239.537 549.69 238.566 549.495 238.747 549.257L241.816 545.125C241.984 544.895 243.208 544.713 244.543 544.713H263.684C265.019 544.713 265.998 544.895 265.858 545.125L263.376 549.257C263.23 549.495 261.999 549.69 260.622 549.69Z" fill="url(#paint51_linear_2049_8436)"/>
<path d="M228.709 549.69H209.001C207.624 549.69 206.687 549.495 206.911 549.257L210.735 545.125C210.945 544.895 212.203 544.713 213.538 544.713H232.679C234.015 544.713 234.958 544.895 234.777 545.125L231.54 549.257C231.351 549.495 230.079 549.69 228.702 549.69H228.709Z" fill="url(#paint52_linear_2049_8436)"/>
<path d="M292.536 549.69H272.828C271.451 549.69 270.444 549.495 270.577 549.257L272.891 545.125C273.017 544.895 274.205 544.713 275.548 544.713H294.689C296.024 544.713 297.031 544.895 296.94 545.125L295.206 549.257C295.108 549.495 293.906 549.69 292.529 549.69H292.536Z" fill="url(#paint53_linear_2049_8436)"/>
<path d="M324.449 549.69H304.742C303.365 549.69 302.323 549.495 302.414 549.257L303.973 545.125C304.057 544.895 305.217 544.713 306.552 544.713H325.693C327.029 544.713 328.07 544.895 328.021 545.125L327.043 549.257C326.987 549.495 325.826 549.69 324.442 549.69H324.449Z" fill="url(#paint54_linear_2049_8436)"/>
<path d="M388.276 549.69H368.569C367.192 549.69 366.08 549.495 366.08 549.257L366.136 545.125C366.136 544.895 367.227 544.713 368.562 544.713H387.703C389.038 544.713 390.15 544.895 390.178 545.125L390.702 549.257C390.73 549.495 389.639 549.69 388.262 549.69H388.276Z" fill="url(#paint55_linear_2049_8436)"/>
<path d="M356.363 549.69H336.656C335.278 549.69 334.202 549.495 334.251 549.257L335.062 545.125C335.104 544.895 336.229 544.713 337.564 544.713H356.705C358.041 544.713 359.117 544.895 359.103 545.125L358.88 549.257C358.866 549.495 357.74 549.69 356.363 549.69Z" fill="url(#paint56_linear_2049_8436)"/>
<path d="M420.19 549.69H400.483C399.106 549.69 397.959 549.495 397.917 549.257L397.218 545.125C397.176 544.895 398.232 544.713 399.574 544.713H418.715C420.05 544.713 421.197 544.895 421.267 545.125L422.546 549.257C422.623 549.495 421.567 549.69 420.19 549.69Z" fill="url(#paint57_linear_2049_8436)"/>
<path d="M452.096 549.69H432.389C431.012 549.69 429.823 549.495 429.739 549.257L428.292 545.125C428.215 544.895 429.229 544.713 430.571 544.713H449.712C451.048 544.713 452.229 544.895 452.341 545.125L454.375 549.257C454.494 549.495 453.473 549.69 452.096 549.69Z" fill="url(#paint58_linear_2049_8436)"/>
<path d="M484.01 549.69H464.303C462.925 549.69 461.702 549.495 461.576 549.257L459.374 545.125C459.255 544.895 460.241 544.713 461.576 544.713H480.717C482.052 544.713 483.262 544.895 483.416 545.125L486.198 549.257C486.359 549.495 485.373 549.69 483.996 549.69H484.01Z" fill="url(#paint59_linear_2049_8436)"/>
<path d="M515.923 549.69H496.216C494.839 549.69 493.58 549.495 493.412 549.257L490.455 545.125C490.294 544.895 491.245 544.713 492.58 544.713H511.722C513.057 544.713 514.301 544.895 514.497 545.125L518.034 549.257C518.237 549.495 517.293 549.69 515.916 549.69H515.923Z" fill="url(#paint60_linear_2049_8436)"/>
<path d="M536.679 544.705H523.592C522.257 544.705 521.369 544.922 521.607 545.194L525.172 549.172C525.431 549.459 526.752 549.69 528.129 549.69H562.553C563.93 549.69 564.79 549.459 564.468 549.172L560.008 545.194C559.7 544.922 558.372 544.705 557.037 544.705H536.679Z" fill="url(#paint61_linear_2049_8436)"/>
<path d="M451.557 572.117H285.334C283.782 572.117 282.629 571.865 282.761 571.564L285.04 566.321C285.166 566.035 286.488 565.797 287.991 565.797H448.9C450.403 565.797 451.725 566.028 451.851 566.321L454.13 571.564C454.262 571.872 453.109 572.117 451.557 572.117Z" fill="url(#paint62_linear_2049_8436)"/>
<path d="M562.852 299.023H174.039V522.299H562.852V299.023Z" fill="white"/>
<g style="mix-blend-mode:multiply" opacity="0.48">
<g style="mix-blend-mode:multiply" opacity="0.48">
<path d="M214.412 522.299H562.853V299.023H518.761L214.412 522.299Z" fill="#D7F4FB"/>
</g>
</g>
<g style="mix-blend-mode:multiply">
<path d="M366.212 334.486H211.804C207.105 334.486 203.296 338.295 203.296 342.994V482.659C203.296 487.357 207.105 491.167 211.804 491.167H366.212C370.911 491.167 374.72 487.357 374.72 482.659V342.994C374.72 338.295 370.911 334.486 366.212 334.486Z" fill="white"/>
<path d="M366.212 334.486H211.804C207.105 334.486 203.296 338.295 203.296 342.994V482.659C203.296 487.357 207.105 491.167 211.804 491.167H366.212C370.911 491.167 374.72 487.357 374.72 482.659V342.994C374.72 338.295 370.911 334.486 366.212 334.486Z" stroke="#39C7DF" stroke-miterlimit="10"/>
</g>
<path d="M298.105 406.644L298.358 406.952C298.575 407.218 298.967 407.257 299.233 407.039L362.325 355.381C362.591 355.164 362.63 354.772 362.412 354.506L362.16 354.197C361.942 353.932 361.55 353.892 361.284 354.11L298.193 405.768C297.927 405.986 297.888 406.378 298.105 406.644Z" fill="url(#paint63_linear_2049_8436)" stroke="white" stroke-miterlimit="10"/>
<path d="M300.91 410.659L319.75 395.231C323.945 391.616 327.643 385.856 325.993 383.842C324.343 381.829 317.863 384.688 313.78 387.939L294.939 403.368L300.91 410.659Z" fill="url(#paint64_linear_2049_8436)" stroke="white" stroke-miterlimit="10"/>
<path d="M238.894 426.025L267.647 461.141L315.416 422.02L315.402 421.999C315.486 421.95 315.563 421.901 315.64 421.838C318.282 419.671 327.294 400.62 317.975 389.239C308.006 377.061 289.529 384.562 286.886 386.722C286.809 386.785 286.746 386.848 286.683 386.925L286.669 386.904L238.901 426.025H238.894Z" fill="url(#paint65_linear_2049_8436)" stroke="white" stroke-miterlimit="10"/>
<path d="M238.894 426.025L267.647 461.14L315.416 422.019L315.402 421.998C315.486 421.949 315.563 421.9 315.64 421.837C317.919 419.971 324.616 405.234 320.673 394.16L271.709 399.152L238.894 426.025Z" fill="url(#paint66_linear_2049_8436)" stroke="white" stroke-miterlimit="10"/>
<path d="M267.507 461.126L271.093 458.19L271.044 458.127C272.932 455.4 268.689 446.249 261.131 437.014C253.574 427.786 245.437 421.816 242.389 423.13L238.816 426.087L267.507 461.119V461.126Z" fill="#0088C3" stroke="white" stroke-miterlimit="10"/>
<path d="M267.633 461.174C270.28 459.007 265.989 449.389 258.05 439.692C250.11 429.995 241.528 423.891 238.881 426.058C236.235 428.226 240.525 437.843 248.465 447.54C256.405 457.237 264.987 463.341 267.633 461.174Z" fill="url(#paint67_linear_2049_8436)"/>
<path d="M318.038 413.357C318.059 410.617 317.563 407.45 316.06 404.283L263.551 447.284C265.312 450.102 266.634 452.709 267.431 454.904L318.038 413.357Z" fill="url(#paint68_linear_2049_8436)" stroke="white" stroke-miterlimit="10"/>
<path d="M270.653 452.382C269.842 450.186 268.514 447.579 266.752 444.775L263.606 447.355C265.368 450.172 266.689 452.78 267.486 454.975L270.653 452.382Z" fill="#264F85" stroke="white" stroke-miterlimit="10"/>
<path d="M294.968 385.729C297.659 386.253 300.721 387.357 303.783 389.308L251.275 432.309C248.863 430.03 246.563 428.212 244.563 427.003L294.961 385.736L294.968 385.729Z" fill="#BEF5FF" stroke="white" stroke-miterlimit="10"/>
<path d="M252.093 431.513L294.661 396.775L279.392 398.46L246.801 425.054L252.093 431.513Z" fill="url(#paint69_linear_2049_8436)" stroke="white" stroke-miterlimit="10"/>
<path d="M247.689 424.334C249.681 425.557 251.974 427.375 254.372 429.654L251.226 432.234C248.814 429.955 246.514 428.137 244.515 426.928L247.682 424.334H247.689Z" fill="#6DD2F2" stroke="white" stroke-miterlimit="10"/>
<path d="M254.945 446.326L267.487 454.974C267.487 454.974 266.69 451.373 263.607 447.354L253.19 443.648L253.869 444.48C254.323 445.033 254.686 445.662 254.945 446.326Z" fill="url(#paint70_linear_2049_8436)"/>
<path d="M283.608 413.944C284.859 413.944 285.873 412.93 285.873 411.679C285.873 410.428 284.859 409.414 283.608 409.414C282.357 409.414 281.343 410.428 281.343 411.679C281.343 412.93 282.357 413.944 283.608 413.944Z" fill="#F5CCFF" stroke="white" stroke-miterlimit="10"/>
<path d="M299.561 414C301.097 414 302.343 412.755 302.343 411.218C302.343 409.681 301.097 408.436 299.561 408.436C298.024 408.436 296.778 409.681 296.778 411.218C296.778 412.755 298.024 414 299.561 414Z" fill="#F5CCFF" stroke="white" stroke-miterlimit="10"/>
<path d="M273.737 434.651C275.011 434.651 276.044 433.618 276.044 432.344C276.044 431.07 275.011 430.037 273.737 430.037C272.463 430.037 271.43 431.07 271.43 432.344C271.43 433.618 272.463 434.651 273.737 434.651Z" fill="#DE97FF" stroke="white" stroke-miterlimit="10"/>
<path d="M315.353 421.956C315.437 421.907 315.514 421.858 315.591 421.795C318.233 419.628 327.245 400.577 317.926 389.196C307.957 377.018 289.48 384.519 286.837 386.68C286.76 386.742 286.697 386.805 286.634 386.882L286.62 386.861L286.075 387.309C292.71 383.177 303.58 386.854 311.096 396.033C319.037 405.73 320.219 417.887 313.745 423.193" fill="#8FEAFF"/>
<path d="M315.353 421.956C315.437 421.907 315.514 421.858 315.591 421.795C318.233 419.628 327.245 400.577 317.926 389.196C307.957 377.018 289.48 384.519 286.837 386.68C286.76 386.742 286.697 386.805 286.634 386.882L286.62 386.861L286.075 387.309C292.71 383.177 303.58 386.854 311.096 396.033C319.037 405.73 320.219 417.887 313.745 423.193" stroke="white" stroke-miterlimit="10"/>
<path d="M320.744 394.154L310.46 395.203C310.698 395.476 310.928 395.748 311.159 396.035C319.101 405.731 320.282 417.888 313.809 423.195L315.424 421.95C315.507 421.901 315.584 421.852 315.661 421.789C316.22 421.328 317.066 420.119 317.961 418.378C320.632 412.953 323.722 402.508 320.744 394.154Z" fill="#C46EE5" stroke="white" stroke-miterlimit="10"/>
<path d="M314.717 385.945H314.71C303.944 380.185 294.897 385.659 294.897 385.659L295.205 385.785C297.994 386.253 300.917 387.427 303.727 389.224C307.453 386.183 314.633 385.945 314.717 385.938V385.945Z" fill="#E9FCFF" stroke="white" stroke-miterlimit="10"/>
<path d="M316.15 404.249C317.43 407.374 318.066 410.499 318.038 413.358C321.261 409.171 322.17 405.543 321.883 399.111C321.708 397.412 321.366 395.748 320.799 394.154C320.799 394.154 321.883 399.111 316.15 404.249Z" fill="url(#paint71_linear_2049_8436)" stroke="white" stroke-miterlimit="10"/>
<path d="M241.669 459.177L255.183 448.11C255.735 447.663 254.84 445.663 253.19 443.65C251.541 441.636 249.758 440.371 249.213 440.818L235.699 451.885L241.669 459.177Z" fill="#6DD2F2" stroke="white" stroke-miterlimit="10"/>
<path d="M240.697 457.994L254.945 446.326C254.574 445.543 253.966 444.599 253.19 443.648L238.677 455.533L240.697 457.994Z" fill="#009CD8" stroke="white" stroke-miterlimit="10"/>
<path d="M248.206 476.933L251.743 473.933C253.631 471.207 249.387 462.056 241.83 452.821C234.273 443.586 226.135 437.623 223.087 438.937L219.452 441.817L248.206 476.933Z" fill="#0088C3" stroke="white" stroke-miterlimit="10"/>
<path d="M248.192 476.969C250.839 474.802 246.548 465.184 238.608 455.487C230.669 445.79 222.087 439.686 219.44 441.853C216.793 444.021 221.084 453.638 229.023 463.335C236.963 473.032 245.545 479.136 248.192 476.969Z" fill="#00A8E1" stroke="white" stroke-miterlimit="10"/>
<path d="M251.31 468.221C250.499 466.026 249.17 463.419 247.409 460.615L244.263 463.195C246.024 466.012 247.346 468.62 248.143 470.815L251.31 468.221Z" fill="#264F85" stroke="white" stroke-miterlimit="10"/>
<path d="M229.226 441.027C231.218 442.251 233.511 444.068 235.909 446.347L232.763 448.927C230.351 446.648 228.051 444.83 226.052 443.621L229.219 441.027H229.226Z" fill="#6DD2F2" stroke="white" stroke-miterlimit="10"/>
<path d="M546.508 402.809H417.295V407.534H546.508V402.809Z" fill="#39C7DF"/>
<path d="M546.508 372.965H417.295V377.691H546.508V372.965Z" fill="#39C7DF"/>
<path d="M546.508 343.127H417.295V347.853H546.508V343.127Z" fill="#39C7DF"/>
<path d="M396.636 336.779L397.636 339.191C398.51 341.295 399.943 343.113 401.789 344.441L403.229 345.483L401.789 346.525C399.943 347.853 398.503 349.678 397.636 351.775L396.636 354.187L395.637 351.775C394.763 349.671 393.33 347.853 391.484 346.525L390.044 345.483L391.484 344.441C393.33 343.113 394.77 341.288 395.637 339.191L396.636 336.779Z" fill="#39C7DF"/>
<path d="M396.636 366.623L397.636 369.035C398.51 371.139 399.943 372.957 401.789 374.285L403.229 375.327L401.789 376.368C399.943 377.697 398.503 379.521 397.636 381.619L396.636 384.03L395.637 381.619C394.763 379.514 393.33 377.697 391.484 376.368L390.044 375.327L391.484 374.285C393.33 372.957 394.77 371.132 395.637 369.035L396.636 366.623Z" fill="#39C7DF"/>
<path d="M396.636 396.461L397.636 398.873C398.51 400.977 399.943 402.795 401.789 404.123L403.229 405.165L401.789 406.206C399.943 407.535 398.503 409.359 397.636 411.456L396.636 413.868L395.637 411.456C394.763 409.352 393.33 407.535 391.484 406.206L390.044 405.165L391.484 404.123C393.33 402.795 394.77 400.97 395.637 398.873L396.636 396.461Z" fill="#39C7DF"/>
<path d="M459.995 454.905C459.981 453.381 459.296 451.94 458.122 450.955L451.921 445.733C451.368 445.264 451.047 444.579 451.047 443.859V442.027H419.595V443.859C419.595 444.579 419.273 445.264 418.721 445.733L412.52 450.955C411.345 451.94 410.667 453.381 410.646 454.905C410.597 459.987 410.569 471.312 410.569 471.312C410.569 477.926 421.65 483.281 435.317 483.281C448.984 483.281 460.065 477.919 460.065 471.312C460.065 471.312 460.037 459.987 459.988 454.905H459.995Z" fill="#39C7DF"/>
<path d="M410.646 454.905C410.597 459.987 410.569 471.312 410.569 471.312C410.569 484.588 421.65 483.281 435.317 483.281C448.984 483.281 460.065 485.259 460.065 471.312C460.065 471.312 460.037 459.987 459.988 454.905L459.708 453.793H410.912L410.632 454.905H410.646Z" fill="#39C7DF"/>
<path d="M451.081 433.059H419.552C418.417 433.059 417.497 433.979 417.497 435.114V441.462C417.497 442.597 418.417 443.517 419.552 443.517H451.081C452.217 443.517 453.137 442.597 453.137 441.462V435.114C453.137 433.979 452.217 433.059 451.081 433.059Z" fill="#0088C3" stroke="white" stroke-miterlimit="10"/>
<path d="M526.108 480.562H484.708C483.212 480.562 481.995 479.485 481.995 478.164V443.79C481.995 441.706 483.904 440.021 486.253 440.021H524.563C526.912 440.021 528.82 441.706 528.82 443.79V478.164C528.82 479.492 527.604 480.562 526.108 480.562Z" fill="#39C7DF"/>
<path d="M484.358 433.059H526.688C527.988 433.059 529.051 434.114 529.051 435.422V443.517H482.002V435.422C482.002 434.121 483.058 433.059 484.365 433.059H484.358Z" fill="#0088C3" stroke="white" stroke-miterlimit="10"/>
<path d="M580.553 66.084L606.86 119.39L665.682 127.94L623.114 169.431L633.167 228.014L580.553 200.358L527.933 228.014L537.986 169.431L495.418 127.94L554.246 119.39L580.553 66.084Z" fill="#DE97FF"/>
<path d="M120.362 205.358C120.362 205.358 156.862 44.7066 361.241 40.7148C361.241 40.7148 476.165 35.5136 545.221 117.202" stroke="#264F85" stroke-linecap="round" stroke-linejoin="round"/>
<path d="M670.271 187.686C670.271 187.686 727.702 235.014 693.733 294.639C653.325 365.576 580.809 304.098 626.718 294.639C672.62 285.181 720.347 336.711 680.877 404.592" stroke="#264F85" stroke-linecap="round" stroke-linejoin="round"/>
<path d="M513.874 260.816C487.637 255.95 402.271 271.03 392.351 271.03C382.431 271.03 381.956 250.274 381.956 250.274V240.27H335.508L334.306 275.986H334.669V283.914H554.338C555.225 276.343 540.111 265.681 513.874 260.816Z" fill="#F9CCA7"/>
<path d="M305.279 283.774C305.279 283.774 351.867 273.008 356.949 272.735C362.032 272.463 376.258 275.245 381.956 275.986C387.653 276.727 400.083 275.734 406.683 274.483C413.282 273.232 499.019 255.342 518.747 261.815C538.475 268.289 553.624 274.015 554.331 283.914L305.272 283.774H305.279Z" fill="#F9CCA7"/>
<path d="M335.627 243.394C335.627 243.394 334.802 271.03 324.882 271.03C314.962 271.03 229.589 255.95 203.359 260.816C177.122 265.681 162.008 276.343 162.895 283.914H382.564L381.956 240.27L335.627 243.394Z" fill="#F9CCA7"/>
<path d="M335.088 252.839C344.197 267.464 365.45 275.525 377.061 259.446C378.648 256.901 380.578 253.175 381.955 249.225V240.27H335.508L335.081 252.839H335.088Z" fill="#EAB892"/>
<path d="M411.953 283.774C411.953 283.774 365.366 273.008 360.284 272.735C355.201 272.463 340.975 275.245 335.277 275.986C329.58 276.727 317.15 275.734 310.55 274.483C303.951 273.232 218.214 255.342 198.486 261.815C178.758 268.289 163.608 274.015 162.902 283.914L411.96 283.774H411.953Z" fill="#FEE2CC"/>
<path d="M388.632 187.804C386.933 187.804 385.374 188.992 384.179 190.95C384.053 191.159 383.731 191.096 383.676 190.859C375.804 157.177 341.891 155.932 336.319 157.764C337.85 175.374 303.944 170.04 315.948 214.579C316.017 214.838 315.766 215.068 315.542 214.914C312.48 212.915 309.453 212.356 307.579 213.782C304.58 216.068 305.664 222.549 310.005 228.26C314.347 233.972 320.303 236.747 323.309 234.468C323.617 234.237 323.875 233.958 324.099 233.643C324.679 232.818 325.917 232.867 326.455 233.72C330.174 239.543 334.313 244.612 339.542 247.863C349.497 254.043 358.718 256.371 365.192 254.881C372.791 253.134 376.929 250.254 383.333 237.81C386.779 231.112 387.751 224.897 387.115 215.313C387.059 214.46 387.758 213.782 388.611 213.789H388.625C392.4 213.789 395.455 207.973 395.455 200.8C395.455 193.627 392.4 187.811 388.625 187.811L388.632 187.804Z" fill="#FEE2CC"/>
<path d="M347.309 236.656C347.309 236.656 351.979 241.857 359.641 239.432C360.675 239.103 361.738 238.872 362.752 238.481C372.812 234.566 370.833 228.197 370.833 228.197C370.833 228.197 352.16 235.216 347.302 236.656H347.309Z" fill="#F49C95"/>
<path d="M346.302 236.95C346.302 236.95 353.663 230.777 355.593 229.868C355.593 229.868 358.9 231.609 361.158 228.106C361.158 228.106 364.758 227.666 368.897 227.575C370.113 227.547 370.791 227.526 371.917 227.26C372.049 227.225 372.147 227.407 372.042 227.505C371.092 228.421 367.883 230.658 363.017 231.357C361.906 233.293 357.557 234.468 355.991 233.769C355.991 233.769 350.056 236.691 346.295 236.95H346.302Z" fill="#E27E79"/>
<path opacity="0.54" d="M349.566 215.885C348.574 222.513 354.334 219.968 354.782 221.373C352.097 223.142 348.49 225.351 347.092 222.939C346.868 222.555 346.309 221.702 346.141 218.933C347.721 216.326 346.092 211.754 345.63 210.544C342.708 202.917 337.556 196.562 339.933 196.562C343.149 196.562 348.972 210.37 349.566 215.885Z" fill="#F9CCA7"/>
<path d="M329.412 214.293C329.412 214.293 333.774 214.23 338.2 210.518C338.2 210.518 334.362 214.768 330.062 214.985C325.763 215.201 329.412 214.293 329.412 214.293Z" fill="#443122"/>
<path d="M324.05 213.614V207.909C324.05 206.497 324.805 205.183 326.049 204.519C328.181 203.379 332.096 202.142 338.192 203.274" stroke="#EAB892" stroke-linecap="round" stroke-linejoin="round"/>
<path opacity="0.1" d="M331.915 231.874C335.189 231.874 337.843 229.22 337.843 225.946C337.843 222.672 335.189 220.018 331.915 220.018C328.641 220.018 325.986 222.672 325.986 225.946C325.986 229.22 328.641 231.874 331.915 231.874Z" fill="#F49C95"/>
<path d="M347.092 222.94C350.629 220.465 350.294 220.535 353.971 220.99C355.355 221.157 355.865 220.941 356.732 219.85C359.277 216.662 360.053 216.061 361.92 217.515C363.688 218.892 359.913 219.731 357.075 221.15C356.243 221.57 356.732 222.723 355.914 223.171C354.216 224.108 355.411 221.297 349.343 224.198C348.455 224.359 347.483 223.597 347.092 222.94Z" fill="#EAB892"/>
<path opacity="0.1" d="M379.034 215.165C382.308 215.165 384.962 212.511 384.962 209.237C384.962 205.963 382.308 203.309 379.034 203.309C375.76 203.309 373.105 205.963 373.105 209.237C373.105 212.511 375.76 215.165 379.034 215.165Z" fill="#F49C95"/>
<path d="M357.865 220.703C357.648 220.843 357.341 220.794 357.306 220.619C357.222 220.207 357.243 219.571 358.019 219.361C358.795 219.151 360.004 219.459 360.675 219.312C360.857 219.27 360.955 219.417 360.808 219.508L357.865 220.703Z" fill="#443122"/>
<path d="M353.405 222.507C353.559 222.458 353.608 222.318 353.482 222.277C352.936 222.067 351.762 221.71 351.224 222.214C350.776 222.626 350.217 223.143 349.853 223.479C349.742 223.577 349.86 223.689 350.021 223.633C350.755 223.381 352.132 222.913 353.405 222.514V222.507Z" fill="#443122"/>
<path d="M341.247 197.053C343.708 199.961 345.477 203.442 346.371 207.141" stroke="#EAB892" stroke-linecap="round" stroke-linejoin="round"/>
<path opacity="0.54" d="M354.048 217.13C353.957 218.123 353.013 218.85 351.936 218.752C350.86 218.654 350.063 217.773 350.147 216.781C350.231 215.788 350.636 214.523 351.713 214.621C352.789 214.718 354.132 216.138 354.041 217.13H354.048Z" fill="white"/>
<path d="M315.947 214.578C315.947 214.578 320.156 224.792 322.7 227.784" stroke="#EAB892" stroke-linecap="round" stroke-linejoin="round"/>
<path d="M383.676 190.852L384.969 199.541" stroke="#EAB892" stroke-linecap="round" stroke-linejoin="round"/>
<path d="M392.351 191.957C392.351 191.957 389.212 189.482 387.842 197.186C386.472 204.89 387.311 205.093 387.311 205.093" stroke="#EAB892" stroke-linecap="round" stroke-linejoin="round"/>
<path d="M306.782 217.528C306.782 217.528 312.969 215.431 319.03 223.715" stroke="#EAB892" stroke-linecap="round" stroke-linejoin="round"/>
<path opacity="0.56" d="M362.938 244.318C365.199 243.776 366.825 242.478 366.571 241.419C366.316 240.36 364.278 239.942 362.018 240.484C359.758 241.027 358.132 242.325 358.386 243.384C358.64 244.442 360.678 244.861 362.938 244.318Z" fill="#F9CCA7"/>
<path d="M385.207 152.346L384.479 152.611C369.799 158.001 355.621 168.383 344.422 177.408L343.485 178.163L340.926 177.869C326.154 176.157 310.984 174.171 295.255 177.653L284.125 138.091L374.077 112.791L385.207 152.353V152.346Z" fill="url(#paint72_linear_2049_8436)"/>
<path d="M262.411 200.205C264.577 200.205 266.333 198.449 266.333 196.283C266.333 194.117 264.577 192.361 262.411 192.361C260.245 192.361 258.489 194.117 258.489 196.283C258.489 198.449 260.245 200.205 262.411 200.205Z" fill="url(#paint73_linear_2049_8436)"/>
<path d="M566.795 175.269C572.507 176.877 580.805 184.273 583.769 189.454C583.475 191.509 582.273 194.256 581.532 196.2C579.05 202.673 576.568 209.147 574.08 215.614C574.08 215.614 602.008 224.555 619.395 183.323C619.395 183.323 604.238 177.303 594.99 166.719L584.846 155.688C584.846 155.688 560.93 173.619 566.795 175.269Z" fill="url(#paint74_linear_2049_8436)" stroke="#264F85" stroke-miterlimit="10"/>
<path d="M262.068 154.4V192.361" stroke="black" stroke-linecap="round" stroke-linejoin="round"/>
<path d="M262.411 198.08C258.594 202.428 257.042 208.315 258.216 213.977L258.664 216.152H266.151L266.598 213.977C267.773 208.315 266.221 202.428 262.404 198.08H262.411Z" fill="url(#paint75_linear_2049_8436)"/>
<path d="M555.61 132.659C556.274 126.158 557.148 124.242 560.678 120.74C570.109 111.386 583.58 112.05 592.619 118.265C591.669 115.259 594.549 112.749 597.296 111.204C601.302 108.96 605.804 110.225 609.67 112.693C613.536 115.161 615.71 120.054 616.661 124.543C617.241 127.269 617.458 130.345 616.004 132.722C612.788 137.965 608.461 136.49 606.566 134.966C608.286 140.251 607.384 148.144 605.028 155.491C603.798 159.336 600.512 164.286 594.975 166.719C588.495 161.615 586.537 159.12 582.518 155.463C575.219 148.829 569.109 140.894 564.558 132.149C563.887 130.855 563.23 129.527 562.251 128.451C561.076 127.157 555.428 134.386 555.603 132.652L555.61 132.659Z" fill="#0B1E44" stroke="black" stroke-linejoin="round"/>
<path d="M582.469 163.021C581.875 165.558 581.896 170.298 577.939 171.515C572.164 173.29 565.068 175.737 556.498 176.408C554.526 176.562 553.121 175.527 552.436 173.675C552.093 172.745 552.24 171.333 552.932 169.222C553.016 168.97 552.674 167.397 551.394 166.991C550.374 166.67 550.723 164.628 551.597 164.02C551.219 163.482 549.821 162.832 550.276 161.476C551.688 159.938 552.1 158.015 550.898 157.456C547.738 155.967 547.885 154.764 547.815 154.408C547.668 153.59 554.337 148.2 555.057 144.18C555.631 140.964 553.988 140.803 555.274 133.987C555.903 130.653 557.525 129.003 562.139 124.955C562.643 134.637 577.254 148.871 580.609 151.583C581.91 149.507 584.014 147.354 586.412 147.871C588.74 148.375 590.522 150.856 590.466 153.24C590.39 156.547 587.321 165.761 582.462 163.021H582.469Z" fill="url(#paint76_linear_2049_8436)" stroke="#264F85" stroke-miterlimit="10"/>
<path d="M188.014 626.168C188.014 626.168 257.734 732.66 447.761 678.761" stroke="#264F85" stroke-linecap="round" stroke-linejoin="round"/>
<path opacity="0.56" d="M359.312 224.807C361.017 226.359 358.878 227.617 357.795 227.966C356.711 228.316 354.74 228.624 355.11 226.317C355.32 225.016 355.264 223.758 356.348 223.415C357.431 223.073 358.34 223.926 359.312 224.814V224.807Z" fill="#F9CCA7"/>
<path d="M352.209 193.075C352.593 193.473 353.195 193.578 353.698 193.34C354.089 193.152 354.614 192.837 355.271 192.292C356.928 190.935 361.199 186.419 364.632 184.818C367.75 183.364 373.916 184.042 375.817 184.741C375.817 184.741 369.686 179.617 364.373 180.938C360.724 181.847 357.599 184.14 356.005 185.489C354.9 186.426 353.705 187.258 352.433 187.95C352.16 188.097 351.894 188.237 351.671 188.342C351.223 188.552 350.929 188.999 350.922 189.488C350.902 190.425 351.076 191.9 352.209 193.075Z" fill="#F97803"/>
<path d="M339.814 196.381C339.772 196.934 339.374 197.402 338.836 197.535C338.416 197.64 337.808 197.731 336.955 197.738C334.816 197.759 328.643 197.018 324.987 197.989C321.659 198.863 317.36 203.337 316.339 205.085C316.339 205.085 317.772 197.22 322.694 194.836C326.077 193.194 329.95 192.963 332.04 192.977C333.488 192.984 334.942 192.865 336.361 192.585C336.668 192.522 336.955 192.46 337.2 192.397C337.675 192.271 338.185 192.425 338.514 192.802C339.129 193.508 339.94 194.76 339.814 196.381Z" fill="#F97803"/>
<path d="M370.33 198.891C370.33 198.891 367.072 201.793 361.305 202.058C361.305 202.058 367.009 202.59 370.316 199.849C373.623 197.109 370.323 198.898 370.323 198.898L370.33 198.891Z" fill="#443122"/>
<path d="M357.361 202.204C357.361 202.204 356.697 202.994 357.396 203.078C358.095 203.162 358.228 202.498 359.046 202.295C359.864 202.092 362.374 202.218 364.317 201.659C366.261 201.099 370.043 200.463 373.105 195.996C373.105 195.996 361.696 196.576 357.354 202.204H357.361Z" fill="#F0F4F8"/>
<path d="M357.333 201.743L357.047 196.507C356.97 195.172 357.578 193.878 358.682 193.123C360.598 191.802 364.219 190.173 370.12 190.593" stroke="#EAB892" stroke-linecap="round" stroke-linejoin="round"/>
<path d="M341.206 207.952C341.206 207.952 342.233 208.078 341.772 208.623C341.311 209.168 340.772 208.756 340.024 209.161C339.276 209.567 337.521 211.356 335.711 212.258C333.9 213.16 330.684 215.25 325.406 214.034C325.406 214.034 334.201 206.742 341.206 207.952Z" fill="#F0F4F8"/>
<path d="M363.94 198.178C363.661 198.066 363.381 197.975 363.101 197.898C361.654 198.605 360.34 199.381 359.235 200.094C359.627 200.737 360.494 201.569 361.438 202.093C362.346 202.17 363.493 202.044 364.5 201.701C365.863 201.219 366.674 201.065 367.499 200.646C367.016 199.737 365.478 198.765 363.94 198.171V198.178Z" fill="#443122"/>
<path d="M356.942 202.582C356.942 202.582 360.906 198.73 364.863 197.968C366.52 197.647 369.344 197.668 371.483 197.29C375.028 196.668 376.007 194.878 378.055 191.949C378.055 191.949 377.286 192.655 375.979 193.403C374.273 194.382 372.322 194.829 370.351 194.829C367.289 194.829 360.697 195.696 356.942 202.582Z" fill="#443122"/>
<path d="M341.765 207.952C341.765 207.952 336.242 207.791 332.81 209.91C331.376 210.797 329.307 212.72 327.475 213.887C324.441 215.831 322.512 215.174 319.023 214.398C319.023 214.398 320.065 214.398 321.533 214.062C323.449 213.629 325.189 212.636 326.637 211.308C328.895 209.239 334.327 205.414 341.758 207.938L341.765 207.952Z" fill="#443122"/>
<path d="M332.67 209.86C332.39 209.748 332.11 209.657 331.831 209.58C330.384 210.286 329.069 211.062 327.965 211.775C328.489 212.642 329.622 213.516 331.083 214.082C331.188 214.124 331.293 214.152 331.397 214.187C333.355 213.684 334.816 212.838 335.872 212.307C335.389 211.398 334.215 210.454 332.677 209.86H332.67Z" fill="#443122"/>
<path d="M289.459 263.166C289.459 263.166 306.356 243.815 305.279 227.785C305.279 227.785 309.264 250.289 298.904 265.48L289.459 263.166Z" fill="#F97803"/>
<path d="M302.413 176.422C302.413 176.422 296.709 190.019 297.75 216.158C298.792 242.297 279.847 259.369 279.847 259.369" stroke="#F97803" stroke-miterlimit="10"/>
<path d="M379.033 154.842C379.033 154.842 409.486 183.658 405.158 250.275" stroke="#F97803" stroke-miterlimit="10"/>
<path d="M343.897 154.176L260.65 156.322L260.153 151.17L342.604 147.479L343.897 154.176Z" fill="#0088C7"/>
<path d="M260.391 151.142L314.892 113.461L395.469 109.693L342.317 147.976L260.391 151.142Z" fill="#264F85"/>
<path d="M344.156 154.323L395.966 114.873L395.47 109.721L342.87 147.625L344.156 154.323Z" fill="#0F1F42"/>
<path d="M202.366 215.439H51.4533C44.7584 215.439 39.3311 220.867 39.3311 227.562V319.59C39.3311 326.285 44.7584 331.712 51.4533 331.712H202.366C209.061 331.712 214.488 326.285 214.488 319.59V227.562C214.488 220.867 209.061 215.439 202.366 215.439Z" fill="url(#paint77_linear_2049_8436)"/>
<path opacity="0.73" d="M186.608 271.422L180.477 264.207V253.092H157.848V264.207L151.717 271.422C150.801 272.499 150.305 273.799 150.305 275.127V310.627C150.305 312.927 158.75 314.794 169.166 314.794C179.583 314.794 188.028 312.927 188.028 310.627V275.127C188.028 273.799 187.531 272.499 186.615 271.422H186.608Z" fill="#BEF5FF"/>
<path d="M180.47 264.102C173.193 266.5 165.118 266.5 157.841 264.102V253.084H180.47V264.102Z" fill="url(#paint78_linear_2049_8436)"/>
<g style="mix-blend-mode:darken" opacity="0.22">
<path d="M169.159 277.931C158.743 277.931 150.298 276.386 150.298 274.484V310.634C150.298 312.934 158.743 314.801 169.159 314.801C179.576 314.801 188.021 312.934 188.021 310.634V274.484C188.021 276.393 179.576 277.931 169.159 277.931Z" fill="#0088C7"/>
</g>
<g style="mix-blend-mode:darken" opacity="0.22">
<path d="M173.165 286.221H165.265L165.146 259.383L173.046 259.942L173.165 286.221Z" fill="#0088C7"/>
</g>
<path opacity="0.84" d="M169.159 288.542C158.743 288.542 150.298 286.997 150.298 285.096V310.633C150.298 312.934 158.743 314.8 169.159 314.8C179.576 314.8 188.021 312.934 188.021 310.633V285.096C188.021 287.004 179.576 288.542 169.159 288.542Z" fill="#00A8E1"/>
<g style="mix-blend-mode:darken" opacity="0.22">
<path d="M169.159 277.931C158.743 277.931 150.298 276.386 150.298 274.484V285.097C150.298 283.188 158.743 281.65 169.159 281.65C179.576 281.65 188.021 283.195 188.021 285.097V274.484C188.021 276.393 179.576 277.931 169.159 277.931Z" fill="#0088C7"/>
</g>
<g style="mix-blend-mode:screen" opacity="0.73">
<path d="M156.904 277.092L157.254 313.85C158.68 314.109 160.281 314.325 162.015 314.486V277.749L162.043 277.679C160.162 277.539 158.428 277.336 156.911 277.099L156.904 277.092Z" fill="#BEF5FF"/>
<path d="M156.904 277.092L157.254 313.85C158.68 314.109 160.281 314.325 162.015 314.486V277.749L162.043 277.679C160.162 277.539 158.428 277.336 156.911 277.099L156.904 277.092Z" stroke="black" stroke-miterlimit="10"/>
</g>
<g style="mix-blend-mode:screen" opacity="0.73">
<path d="M165.951 250.273H161.225L161.413 265.136L160.756 265.989C158.24 269.282 156.904 273.113 156.904 277.035V277.084C158.414 277.321 160.141 277.517 162.015 277.664V277.216C162.029 273.183 163.497 269.121 166.16 265.779L165.951 250.273Z" fill="#BEF5FF"/>
<path d="M165.951 250.273H161.225L161.413 265.136L160.756 265.989C158.24 269.282 156.904 273.113 156.904 277.035V277.084C158.414 277.321 160.141 277.517 162.015 277.664V277.216C162.029 273.183 163.497 269.121 166.16 265.779L165.951 250.273Z" stroke="black" stroke-miterlimit="10"/>
</g>
<path d="M160.162 242.676H177.66C178.492 242.676 179.171 243.354 179.171 244.186V244.444C179.171 244.668 178.989 244.843 178.772 244.843H159.058C158.834 244.843 158.659 244.661 158.659 244.444V244.186C158.659 243.354 159.337 242.676 160.169 242.676H160.162Z" fill="url(#paint79_linear_2049_8436)" stroke="white" stroke-miterlimit="10"/>
<path d="M176.437 242.675C174.563 240.501 173.557 237.872 173.557 235.181V227.875C173.557 225.701 171.48 223.939 168.915 223.939C166.349 223.939 164.273 225.701 164.273 227.875V235.181C164.273 237.872 163.266 240.494 161.393 242.675H176.444H176.437Z" fill="url(#paint80_linear_2049_8436)" stroke="white" stroke-miterlimit="10"/>
<path d="M182.616 259.795C173.549 261.152 164.272 261.152 155.205 259.795C154.89 259.795 154.632 259.579 154.632 259.313V249.861C154.632 247.946 156.47 246.387 158.729 246.387H179.086C181.351 246.387 183.183 247.946 183.183 249.861V259.313C183.183 259.579 182.924 259.795 182.609 259.795H182.616Z" fill="url(#paint81_linear_2049_8436)" stroke="white" stroke-miterlimit="10"/>
<path d="M180.639 246.757H157.184C157.051 246.757 156.939 246.666 156.939 246.554V245.96C156.939 245.149 157.715 244.492 158.666 244.492H179.143C180.1 244.492 180.869 245.149 180.869 245.96V246.554C180.869 246.666 180.764 246.757 180.625 246.757H180.639Z" fill="url(#paint82_linear_2049_8436)" stroke="white" stroke-miterlimit="10"/>
<g style="mix-blend-mode:multiply">
<path d="M538 423.844H398.552C393.853 423.844 390.044 427.653 390.044 432.352V482.651C390.044 487.35 393.853 491.159 398.552 491.159H538C542.698 491.159 546.507 487.35 546.507 482.651V432.352C546.507 427.653 542.698 423.844 538 423.844Z" fill="white"/>
<path d="M538 423.844H398.552C393.853 423.844 390.044 427.653 390.044 432.352V482.651C390.044 487.35 393.853 491.159 398.552 491.159H538C542.698 491.159 546.507 487.35 546.507 482.651V432.352C546.507 427.653 542.698 423.844 538 423.844Z" stroke="#39C7DF" stroke-miterlimit="10"/>
</g>
<path d="M209.532 357.39C222.953 357.39 233.832 346.51 233.832 333.089C233.832 319.669 222.953 308.789 209.532 308.789C196.111 308.789 185.231 319.669 185.231 333.089C185.231 346.51 196.111 357.39 209.532 357.39Z" fill="#00DC86"/>
<g style="mix-blend-mode:darken">
<path d="M129.207 267.634L116.777 259.664V247.381H75.9848V259.664L63.555 267.634C61.8282 268.829 60.8984 270.255 60.8984 271.73V310.949C60.8984 313.494 76.7818 316.283 96.3773 316.283C115.973 316.283 131.856 313.494 131.856 310.949V271.73C131.856 270.262 130.926 268.829 129.2 267.634H129.207Z" fill="#BEF5FF"/>
</g>
<path opacity="0.84" d="M96.3841 286.509C76.7886 286.509 60.9053 284.803 60.9053 282.699V310.915C60.9053 313.459 76.7886 316.339 96.3841 316.339C115.98 316.339 131.863 313.459 131.863 310.915V282.699C131.863 284.803 115.98 286.509 96.3841 286.509Z" fill="#00A8E1"/>
<path d="M121.412 262.433C105.312 265.075 87.4573 265.075 71.3643 262.433V250.262H121.412V262.433Z" fill="#8FEAFF"/>
<g style="mix-blend-mode:screen" opacity="0.73">
<path d="M87.6246 244.235H81.4167L81.6684 262.664L80.8085 263.607C77.5018 267.243 75.7471 269.466 75.7471 273.8V273.856C77.7325 274.122 79.9906 274.338 82.4514 274.492V273.996C82.4653 269.536 84.4018 267.061 87.8973 263.37L87.6176 244.229L87.6246 244.235Z" fill="#BEF5FF"/>
<path d="M87.6246 244.235H81.4167L81.6684 262.664L80.8085 263.607C77.5018 267.243 75.7471 269.466 75.7471 273.8V273.856C77.7325 274.122 79.9906 274.338 82.4514 274.492V273.996C82.4653 269.536 84.4018 267.061 87.8973 263.37L87.6176 244.229L87.6246 244.235Z" stroke="black" stroke-miterlimit="10"/>
</g>
<path opacity="0.6" d="M96.3841 274.792C76.7886 274.792 60.9053 273.087 60.9053 270.982V282.706C60.9053 280.602 76.7886 278.896 96.3841 278.896C115.98 278.896 131.863 280.602 131.863 282.706V270.982C131.863 273.087 115.98 274.792 96.3841 274.792Z" fill="#8FEAFF"/>
<path d="M123.411 258.384C105.228 260.516 86.6248 260.516 68.4414 258.384C67.8053 258.384 67.2949 258.042 67.2949 257.622V246.43C67.2949 243.41 70.9721 240.963 75.5162 240.963H116.343C120.88 240.963 124.564 243.41 124.564 246.43V257.622C124.564 258.042 124.054 258.384 123.418 258.384H123.411Z" fill="url(#paint83_linear_2049_8436)" stroke="white" stroke-miterlimit="10"/>
<g style="mix-blend-mode:screen" opacity="0.73">
<path d="M75.7539 273.862L76.2153 316.018C78.0889 316.304 80.1861 316.542 82.4652 316.717V274.583L82.5001 274.499C80.0254 274.338 77.7533 274.121 75.7609 273.855L75.7539 273.862Z" fill="#BEF5FF"/>
<path d="M75.7539 273.862L76.2153 316.018C78.0889 316.304 80.1861 316.542 82.4652 316.717V274.583L82.5001 274.499C80.0254 274.338 77.7533 274.121 75.7609 273.855L75.7539 273.862Z" stroke="black" stroke-miterlimit="10"/>
</g>
<path d="M126.704 190.851L167.307 188.251L129.934 203.631L133.296 243.906L117.091 206.595L76.4951 209.196L113.862 193.816L110.499 153.541L126.704 190.851Z" fill="#FFD066"/>
<path d="M700.5 393.093L721 419.109L693.416 401.151L667.955 422L685.495 393.913L665 367.896L692.579 385.849L718.045 365L700.5 393.093Z" fill="#FFD066"/>
<path d="M396.434 105.339L423.838 108.31L397.105 114.245L394.686 141.524L388.184 114.735L360.787 111.77L387.513 105.828L389.932 78.5566L396.434 105.339Z" fill="#FFD066"/>
</g>
<defs>
<radialGradient id="paint0_radial_2049_8436" cx="0" cy="0" r="1" gradientUnits="userSpaceOnUse" gradientTransform="translate(496.355 -258.663) rotate(113.323) scale(1304.05 1194.48)">
<stop stop-color="#EDFCFF"/>
<stop offset="0.437618" stop-color="#BEF5FF"/>
<stop offset="0.715196" stop-color="#0190CC"/>
</radialGradient>
<linearGradient id="paint1_linear_2049_8436" x1="331.831" y1="133.226" x2="351.636" y2="288.438" gradientUnits="userSpaceOnUse">
<stop stop-color="#F97803"/>
<stop offset="0.23" stop-color="#F97A06"/>
<stop offset="0.42" stop-color="#F98410"/>
<stop offset="0.61" stop-color="#FA9322"/>
<stop offset="0.78" stop-color="#FCA93B"/>
<stop offset="0.95" stop-color="#FEC65A"/>
<stop offset="1" stop-color="#FFD066"/>
</linearGradient>
<linearGradient id="paint2_linear_2049_8436" x1="600.443" y1="420.531" x2="600.443" y2="673.406" gradientUnits="userSpaceOnUse">
<stop offset="0.32" stop-color="#00DC86"/>
<stop offset="0.78" stop-color="#23626A"/>
</linearGradient>
<linearGradient id="paint3_linear_2049_8436" x1="77.7391" y1="271.337" x2="320.498" y2="722.174" gradientUnits="userSpaceOnUse">
<stop stop-color="#F0F4F8"/>
<stop offset="0.32" stop-color="#00DC86"/>
<stop offset="1" stop-color="#23626A"/>
</linearGradient>
<linearGradient id="paint4_linear_2049_8436" x1="367.792" y1="274.387" x2="369.113" y2="550.472" gradientUnits="userSpaceOnUse">
<stop stop-color="#0088C3"/>
<stop offset="1" stop-color="#0F1F42"/>
</linearGradient>
<linearGradient id="paint5_linear_2049_8436" x1="81.8223" y1="574.507" x2="655.07" y2="574.507" gradientUnits="userSpaceOnUse">
<stop stop-color="#0088C3"/>
<stop offset="1" stop-color="#0F1F42"/>
</linearGradient>
<linearGradient id="paint6_linear_2049_8436" x1="183.617" y1="275.268" x2="184.938" y2="551.353" gradientUnits="userSpaceOnUse">
<stop stop-color="#0088C3"/>
<stop offset="1" stop-color="#0F1F42"/>
</linearGradient>
<linearGradient id="paint7_linear_2049_8436" x1="230.924" y1="275.037" x2="232.252" y2="551.129" gradientUnits="userSpaceOnUse">
<stop stop-color="#0088C3"/>
<stop offset="1" stop-color="#0F1F42"/>
</linearGradient>
<linearGradient id="paint8_linear_2049_8436" x1="264.921" y1="274.876" x2="266.243" y2="550.961" gradientUnits="userSpaceOnUse">
<stop stop-color="#0088C3"/>
<stop offset="1" stop-color="#0F1F42"/>
</linearGradient>
<linearGradient id="paint9_linear_2049_8436" x1="298.911" y1="274.715" x2="300.239" y2="550.801" gradientUnits="userSpaceOnUse">
<stop stop-color="#0088C3"/>
<stop offset="1" stop-color="#0F1F42"/>
</linearGradient>
<linearGradient id="paint10_linear_2049_8436" x1="367.058" y1="274.387" x2="368.386" y2="550.472" gradientUnits="userSpaceOnUse">
<stop stop-color="#0088C3"/>
<stop offset="1" stop-color="#0F1F42"/>
</linearGradient>
<linearGradient id="paint11_linear_2049_8436" x1="332.908" y1="274.555" x2="334.229" y2="550.64" gradientUnits="userSpaceOnUse">
<stop stop-color="#0088C3"/>
<stop offset="1" stop-color="#0F1F42"/>
</linearGradient>
<linearGradient id="paint12_linear_2049_8436" x1="401.237" y1="274.226" x2="402.558" y2="550.311" gradientUnits="userSpaceOnUse">
<stop stop-color="#0088C3"/>
<stop offset="1" stop-color="#0F1F42"/>
</linearGradient>
<linearGradient id="paint13_linear_2049_8436" x1="435.227" y1="274.058" x2="436.555" y2="550.143" gradientUnits="userSpaceOnUse">
<stop stop-color="#0088C3"/>
<stop offset="1" stop-color="#0F1F42"/>
</linearGradient>
<linearGradient id="paint14_linear_2049_8436" x1="469.223" y1="273.897" x2="470.545" y2="549.983" gradientUnits="userSpaceOnUse">
<stop stop-color="#0088C3"/>
<stop offset="1" stop-color="#0F1F42"/>
</linearGradient>
<linearGradient id="paint15_linear_2049_8436" x1="503.213" y1="273.737" x2="504.541" y2="549.822" gradientUnits="userSpaceOnUse">
<stop stop-color="#0088C3"/>
<stop offset="1" stop-color="#0F1F42"/>
</linearGradient>
<linearGradient id="paint16_linear_2049_8436" x1="193.949" y1="275.22" x2="195.271" y2="551.305" gradientUnits="userSpaceOnUse">
<stop stop-color="#0088C3"/>
<stop offset="1" stop-color="#0F1F42"/>
</linearGradient>
<linearGradient id="paint17_linear_2049_8436" x1="161.127" y1="275.374" x2="162.448" y2="551.459" gradientUnits="userSpaceOnUse">
<stop stop-color="#0088C3"/>
<stop offset="1" stop-color="#0F1F42"/>
</linearGradient>
<linearGradient id="paint18_linear_2049_8436" x1="226.59" y1="275.06" x2="227.911" y2="551.151" gradientUnits="userSpaceOnUse">
<stop stop-color="#0088C3"/>
<stop offset="1" stop-color="#0F1F42"/>
</linearGradient>
<linearGradient id="paint19_linear_2049_8436" x1="540.481" y1="273.557" x2="541.81" y2="549.641" gradientUnits="userSpaceOnUse">
<stop stop-color="#0088C3"/>
<stop offset="1" stop-color="#0F1F42"/>
</linearGradient>
<linearGradient id="paint20_linear_2049_8436" x1="508.68" y1="273.712" x2="510.008" y2="549.795" gradientUnits="userSpaceOnUse">
<stop stop-color="#0088C3"/>
<stop offset="1" stop-color="#0F1F42"/>
</linearGradient>
<linearGradient id="paint21_linear_2049_8436" x1="574.667" y1="273.398" x2="575.995" y2="549.481" gradientUnits="userSpaceOnUse">
<stop stop-color="#0088C3"/>
<stop offset="1" stop-color="#0F1F42"/>
</linearGradient>
<linearGradient id="paint22_linear_2049_8436" x1="260.587" y1="274.899" x2="261.908" y2="550.983" gradientUnits="userSpaceOnUse">
<stop stop-color="#0088C3"/>
<stop offset="1" stop-color="#0F1F42"/>
</linearGradient>
<linearGradient id="paint23_linear_2049_8436" x1="473.481" y1="273.878" x2="474.809" y2="549.963" gradientUnits="userSpaceOnUse">
<stop stop-color="#0088C3"/>
<stop offset="1" stop-color="#0F1F42"/>
</linearGradient>
<linearGradient id="paint24_linear_2049_8436" x1="550.528" y1="273.506" x2="551.849" y2="549.591" gradientUnits="userSpaceOnUse">
<stop stop-color="#0088C3"/>
<stop offset="1" stop-color="#0F1F42"/>
</linearGradient>
<linearGradient id="paint25_linear_2049_8436" x1="183.463" y1="275.268" x2="184.791" y2="551.353" gradientUnits="userSpaceOnUse">
<stop stop-color="#0088C3"/>
<stop offset="1" stop-color="#0F1F42"/>
</linearGradient>
<linearGradient id="paint26_linear_2049_8436" x1="254.12" y1="274.932" x2="255.441" y2="551.017" gradientUnits="userSpaceOnUse">
<stop stop-color="#0088C3"/>
<stop offset="1" stop-color="#0F1F42"/>
</linearGradient>
<linearGradient id="paint27_linear_2049_8436" x1="221.445" y1="275.086" x2="222.766" y2="551.171" gradientUnits="userSpaceOnUse">
<stop stop-color="#0088C3"/>
<stop offset="1" stop-color="#0F1F42"/>
</linearGradient>
<linearGradient id="paint28_linear_2049_8436" x1="286.796" y1="274.772" x2="288.117" y2="550.857" gradientUnits="userSpaceOnUse">
<stop stop-color="#0088C3"/>
<stop offset="1" stop-color="#0F1F42"/>
</linearGradient>
<linearGradient id="paint29_linear_2049_8436" x1="319.471" y1="274.618" x2="320.792" y2="550.703" gradientUnits="userSpaceOnUse">
<stop stop-color="#0088C3"/>
<stop offset="1" stop-color="#0F1F42"/>
</linearGradient>
<linearGradient id="paint30_linear_2049_8436" x1="385.136" y1="274.303" x2="386.458" y2="550.388" gradientUnits="userSpaceOnUse">
<stop stop-color="#0088C3"/>
<stop offset="1" stop-color="#0F1F42"/>
</linearGradient>
<linearGradient id="paint31_linear_2049_8436" x1="352.146" y1="274.457" x2="353.468" y2="550.542" gradientUnits="userSpaceOnUse">
<stop stop-color="#0088C3"/>
<stop offset="1" stop-color="#0F1F42"/>
</linearGradient>
<linearGradient id="paint32_linear_2049_8436" x1="417.812" y1="274.142" x2="419.133" y2="550.227" gradientUnits="userSpaceOnUse">
<stop stop-color="#0088C3"/>
<stop offset="1" stop-color="#0F1F42"/>
</linearGradient>
<linearGradient id="paint33_linear_2049_8436" x1="450.488" y1="273.989" x2="451.816" y2="550.074" gradientUnits="userSpaceOnUse">
<stop stop-color="#0088C3"/>
<stop offset="1" stop-color="#0F1F42"/>
</linearGradient>
<linearGradient id="paint34_linear_2049_8436" x1="483.164" y1="273.828" x2="484.492" y2="549.913" gradientUnits="userSpaceOnUse">
<stop stop-color="#0088C3"/>
<stop offset="1" stop-color="#0F1F42"/>
</linearGradient>
<linearGradient id="paint35_linear_2049_8436" x1="515.839" y1="273.674" x2="517.167" y2="549.759" gradientUnits="userSpaceOnUse">
<stop stop-color="#0088C3"/>
<stop offset="1" stop-color="#0F1F42"/>
</linearGradient>
<linearGradient id="paint36_linear_2049_8436" x1="219.844" y1="275.09" x2="221.172" y2="551.179" gradientUnits="userSpaceOnUse">
<stop stop-color="#0088C3"/>
<stop offset="1" stop-color="#0F1F42"/>
</linearGradient>
<linearGradient id="paint37_linear_2049_8436" x1="190.391" y1="275.23" x2="191.719" y2="551.319" gradientUnits="userSpaceOnUse">
<stop stop-color="#0088C3"/>
<stop offset="1" stop-color="#0F1F42"/>
</linearGradient>
<linearGradient id="paint38_linear_2049_8436" x1="249.296" y1="274.95" x2="250.624" y2="551.039" gradientUnits="userSpaceOnUse">
<stop stop-color="#0088C3"/>
<stop offset="1" stop-color="#0F1F42"/>
</linearGradient>
<linearGradient id="paint39_linear_2049_8436" x1="278.749" y1="274.811" x2="280.078" y2="550.899" gradientUnits="userSpaceOnUse">
<stop stop-color="#0088C3"/>
<stop offset="1" stop-color="#0F1F42"/>
</linearGradient>
<linearGradient id="paint40_linear_2049_8436" x1="337.654" y1="274.524" x2="338.983" y2="550.613" gradientUnits="userSpaceOnUse">
<stop stop-color="#0088C3"/>
<stop offset="1" stop-color="#0F1F42"/>
</linearGradient>
<linearGradient id="paint41_linear_2049_8436" x1="308.201" y1="274.664" x2="309.53" y2="550.76" gradientUnits="userSpaceOnUse">
<stop stop-color="#0088C3"/>
<stop offset="1" stop-color="#0F1F42"/>
</linearGradient>
<linearGradient id="paint42_linear_2049_8436" x1="367.156" y1="274.384" x2="368.484" y2="550.473" gradientUnits="userSpaceOnUse">
<stop stop-color="#0088C3"/>
<stop offset="1" stop-color="#0F1F42"/>
</linearGradient>
<linearGradient id="paint43_linear_2049_8436" x1="396.665" y1="274.244" x2="397.993" y2="550.333" gradientUnits="userSpaceOnUse">
<stop stop-color="#0088C3"/>
<stop offset="1" stop-color="#0F1F42"/>
</linearGradient>
<linearGradient id="paint44_linear_2049_8436" x1="426.118" y1="274.104" x2="427.446" y2="550.193" gradientUnits="userSpaceOnUse">
<stop stop-color="#0088C3"/>
<stop offset="1" stop-color="#0F1F42"/>
</linearGradient>
<linearGradient id="paint45_linear_2049_8436" x1="455.57" y1="273.958" x2="456.898" y2="550.046" gradientUnits="userSpaceOnUse">
<stop stop-color="#0088C3"/>
<stop offset="1" stop-color="#0F1F42"/>
</linearGradient>
<linearGradient id="paint46_linear_2049_8436" x1="485.023" y1="273.818" x2="486.351" y2="549.907" gradientUnits="userSpaceOnUse">
<stop stop-color="#0088C3"/>
<stop offset="1" stop-color="#0F1F42"/>
</linearGradient>
<linearGradient id="paint47_linear_2049_8436" x1="514.475" y1="273.678" x2="515.804" y2="549.767" gradientUnits="userSpaceOnUse">
<stop stop-color="#0088C3"/>
<stop offset="1" stop-color="#0F1F42"/>
</linearGradient>
<linearGradient id="paint48_linear_2049_8436" x1="543.935" y1="273.538" x2="545.256" y2="549.627" gradientUnits="userSpaceOnUse">
<stop stop-color="#0088C3"/>
<stop offset="1" stop-color="#0F1F42"/>
</linearGradient>
<linearGradient id="paint49_linear_2049_8436" x1="552.261" y1="273.499" x2="553.59" y2="549.584" gradientUnits="userSpaceOnUse">
<stop stop-color="#0088C3"/>
<stop offset="1" stop-color="#0F1F42"/>
</linearGradient>
<linearGradient id="paint50_linear_2049_8436" x1="186.714" y1="275.254" x2="188.035" y2="551.339" gradientUnits="userSpaceOnUse">
<stop stop-color="#0088C3"/>
<stop offset="1" stop-color="#0F1F42"/>
</linearGradient>
<linearGradient id="paint51_linear_2049_8436" x1="250.996" y1="274.948" x2="252.324" y2="551.033" gradientUnits="userSpaceOnUse">
<stop stop-color="#0088C3"/>
<stop offset="1" stop-color="#0F1F42"/>
</linearGradient>
<linearGradient id="paint52_linear_2049_8436" x1="219.537" y1="275.095" x2="220.865" y2="551.179" gradientUnits="userSpaceOnUse">
<stop stop-color="#0088C3"/>
<stop offset="1" stop-color="#0F1F42"/>
</linearGradient>
<linearGradient id="paint53_linear_2049_8436" x1="282.455" y1="274.794" x2="283.776" y2="550.879" gradientUnits="userSpaceOnUse">
<stop stop-color="#0088C3"/>
<stop offset="1" stop-color="#0F1F42"/>
</linearGradient>
<linearGradient id="paint54_linear_2049_8436" x1="313.914" y1="274.647" x2="315.235" y2="550.732" gradientUnits="userSpaceOnUse">
<stop stop-color="#0088C3"/>
<stop offset="1" stop-color="#0F1F42"/>
</linearGradient>
<linearGradient id="paint55_linear_2049_8436" x1="377.077" y1="274.34" x2="378.405" y2="550.424" gradientUnits="userSpaceOnUse">
<stop stop-color="#0088C3"/>
<stop offset="1" stop-color="#0F1F42"/>
</linearGradient>
<linearGradient id="paint56_linear_2049_8436" x1="345.366" y1="274.493" x2="346.694" y2="550.578" gradientUnits="userSpaceOnUse">
<stop stop-color="#0088C3"/>
<stop offset="1" stop-color="#0F1F42"/>
</linearGradient>
<linearGradient id="paint57_linear_2049_8436" x1="408.571" y1="274.193" x2="409.899" y2="550.278" gradientUnits="userSpaceOnUse">
<stop stop-color="#0088C3"/>
<stop offset="1" stop-color="#0F1F42"/>
</linearGradient>
<linearGradient id="paint58_linear_2049_8436" x1="440.03" y1="274.039" x2="441.351" y2="550.124" gradientUnits="userSpaceOnUse">
<stop stop-color="#0088C3"/>
<stop offset="1" stop-color="#0F1F42"/>
</linearGradient>
<linearGradient id="paint59_linear_2049_8436" x1="471.489" y1="273.885" x2="472.81" y2="549.977" gradientUnits="userSpaceOnUse">
<stop stop-color="#0088C3"/>
<stop offset="1" stop-color="#0F1F42"/>
</linearGradient>
<linearGradient id="paint60_linear_2049_8436" x1="502.948" y1="273.738" x2="504.269" y2="549.823" gradientUnits="userSpaceOnUse">
<stop stop-color="#0088C3"/>
<stop offset="1" stop-color="#0F1F42"/>
</linearGradient>
<linearGradient id="paint61_linear_2049_8436" x1="541.741" y1="273.549" x2="543.062" y2="549.634" gradientUnits="userSpaceOnUse">
<stop stop-color="#0088C3"/>
<stop offset="1" stop-color="#0F1F42"/>
</linearGradient>
<linearGradient id="paint62_linear_2049_8436" x1="367.023" y1="274.389" x2="368.344" y2="550.473" gradientUnits="userSpaceOnUse">
<stop stop-color="#0088C3"/>
<stop offset="1" stop-color="#0F1F42"/>
</linearGradient>
<linearGradient id="paint63_linear_2049_8436" x1="323.292" y1="363.101" x2="329.954" y2="379.878" gradientUnits="userSpaceOnUse">
<stop stop-color="#BEF5FF"/>
<stop offset="1" stop-color="#0088C3"/>
</linearGradient>
<linearGradient id="paint64_linear_2049_8436" x1="307.75" y1="379.021" x2="310.865" y2="395.083" gradientUnits="userSpaceOnUse">
<stop stop-color="#BEF5FF"/>
<stop offset="1" stop-color="#0088C3"/>
</linearGradient>
<linearGradient id="paint65_linear_2049_8436" x1="274.799" y1="371.108" x2="281.121" y2="417.588" gradientUnits="userSpaceOnUse">
<stop offset="0.3" stop-color="#BEF5FF"/>
<stop offset="0.47" stop-color="#8CD8EF"/>
<stop offset="0.84" stop-color="#289FCF"/>
<stop offset="1" stop-color="#0088C3"/>
</linearGradient>
<linearGradient id="paint66_linear_2049_8436" x1="277.394" y1="372.375" x2="285.385" y2="481.189" gradientUnits="userSpaceOnUse">
<stop offset="0.25" stop-color="#DE97FF"/>
<stop offset="1" stop-color="#A827D8"/>
</linearGradient>
<linearGradient id="paint67_linear_2049_8436" x1="263.336" y1="417.066" x2="251.827" y2="447.322" gradientUnits="userSpaceOnUse">
<stop stop-color="#0088C3"/>
<stop offset="1" stop-color="#0F1F42"/>
</linearGradient>
<linearGradient id="paint68_linear_2049_8436" x1="285.987" y1="384.859" x2="290.798" y2="429.564" gradientUnits="userSpaceOnUse">
<stop offset="0.47" stop-color="#DE97FF"/>
<stop offset="0.53" stop-color="#B940DD"/>
<stop offset="1" stop-color="#8C00BC"/>
</linearGradient>
<linearGradient id="paint69_linear_2049_8436" x1="267.968" y1="373.068" x2="275.959" y2="481.882" gradientUnits="userSpaceOnUse">
<stop offset="0.14" stop-color="#F0F4F8"/>
<stop offset="0.44" stop-color="#DE97FF"/>
<stop offset="0.83" stop-color="#A827D8"/>
</linearGradient>
<linearGradient id="paint70_linear_2049_8436" x1="253.66" y1="449.794" x2="267.054" y2="448.811" gradientUnits="userSpaceOnUse">
<stop stop-color="#0F1F42"/>
<stop offset="1" stop-color="#0F1F42"/>
</linearGradient>
<linearGradient id="paint71_linear_2049_8436" x1="316.866" y1="381.534" x2="321.677" y2="426.246" gradientUnits="userSpaceOnUse">
<stop stop-color="#DE97FF"/>
<stop offset="0.53" stop-color="#B940DD"/>
<stop offset="1" stop-color="#8C00BC"/>
</linearGradient>
<linearGradient id="paint72_linear_2049_8436" x1="342.793" y1="198.031" x2="333.082" y2="134.91" gradientUnits="userSpaceOnUse">
<stop stop-color="#0088C3"/>
<stop offset="1" stop-color="#0F1F42"/>
</linearGradient>
<linearGradient id="paint73_linear_2049_8436" x1="262.411" y1="224.904" x2="262.411" y2="196.339" gradientUnits="userSpaceOnUse">
<stop stop-color="#0088C3"/>
<stop offset="1" stop-color="#0F1F42"/>
</linearGradient>
<linearGradient id="paint74_linear_2049_8436" x1="568.137" y1="155.107" x2="590.76" y2="190.202" gradientUnits="userSpaceOnUse">
<stop offset="0.29" stop-color="#BEF5FF"/>
<stop offset="0.61" stop-color="white"/>
</linearGradient>
<linearGradient id="paint75_linear_2049_8436" x1="262.411" y1="224.904" x2="262.411" y2="196.339" gradientUnits="userSpaceOnUse">
<stop stop-color="#0088C3"/>
<stop offset="1" stop-color="#0F1F42"/>
</linearGradient>
<linearGradient id="paint76_linear_2049_8436" x1="566.264" y1="116.209" x2="578.134" y2="270.534" gradientUnits="userSpaceOnUse">
<stop offset="0.34" stop-color="white"/>
<stop offset="0.64" stop-color="#BEF5FF"/>
</linearGradient>
<linearGradient id="paint77_linear_2049_8436" x1="78.5151" y1="173.096" x2="185.224" y2="394.644" gradientUnits="userSpaceOnUse">
<stop offset="0.36" stop-color="white"/>
<stop offset="1" stop-color="#BEF5FF"/>
</linearGradient>
<linearGradient id="paint78_linear_2049_8436" x1="169.159" y1="267.045" x2="169.159" y2="256.384" gradientUnits="userSpaceOnUse">
<stop offset="0.2" stop-color="#BEF5FF"/>
<stop offset="0.76" stop-color="#39C7DF"/>
</linearGradient>
<linearGradient id="paint79_linear_2049_8436" x1="168.915" y1="236.74" x2="168.915" y2="250.883" gradientUnits="userSpaceOnUse">
<stop offset="0.25" stop-color="#DE97FF"/>
<stop offset="1" stop-color="#A827D8"/>
</linearGradient>
<linearGradient id="paint80_linear_2049_8436" x1="168.915" y1="233.496" x2="168.915" y2="270.324" gradientUnits="userSpaceOnUse">
<stop offset="0.25" stop-color="#DE97FF"/>
<stop offset="1" stop-color="#A827D8"/>
</linearGradient>
<linearGradient id="paint81_linear_2049_8436" x1="168.914" y1="233.495" x2="168.914" y2="270.324" gradientUnits="userSpaceOnUse">
<stop offset="0.25" stop-color="#DE97FF"/>
<stop offset="1" stop-color="#A827D8"/>
</linearGradient>
<linearGradient id="paint82_linear_2049_8436" x1="168.915" y1="239.221" x2="168.915" y2="252.392" gradientUnits="userSpaceOnUse">
<stop offset="0.4" stop-color="#DE97FF"/>
<stop offset="1" stop-color="#A827D8"/>
</linearGradient>
<linearGradient id="paint83_linear_2049_8436" x1="79.6479" y1="233.266" x2="107.059" y2="263.767" gradientUnits="userSpaceOnUse">
<stop offset="0.25" stop-color="#DE97FF"/>
<stop offset="1" stop-color="#A827D8"/>
</linearGradient>
<clipPath id="clip0_2049_8436">
<rect width="779" height="714" fill="white"/>
</clipPath>
</defs>
</svg>
