<svg width="598" height="693" viewBox="0 0 598 693" fill="none" xmlns="http://www.w3.org/2000/svg">
<path d="M278.188 550.52C268.12 540.445 250.742 541.49 239.362 552.857C238.772 553.446 238.197 554.113 237.643 554.807C237.643 553.909 237.601 553.039 237.502 552.204C235.706 536.221 222.783 524.553 208.631 526.145C194.48 527.731 184.461 541.974 186.25 557.958C186.341 558.786 186.503 559.649 186.706 560.519C186.005 559.964 185.296 559.452 184.587 559.003C170.976 550.443 153.794 553.271 146.21 565.325C138.625 577.379 143.516 594.092 157.127 602.659C157.835 603.101 158.607 603.515 159.414 603.901C158.544 604.104 157.702 604.336 156.909 604.616C141.727 609.921 133.23 625.118 137.924 638.562C142.625 652.005 158.733 658.607 173.916 653.303C174.709 653.029 175.509 652.678 176.309 652.286C175.923 653.092 175.579 653.899 175.305 654.692C169.987 669.869 176.568 685.992 190.011 690.7C203.454 695.408 218.657 686.925 223.976 671.749C224.249 670.963 224.481 670.114 224.677 669.244C225.07 670.051 225.484 670.816 225.933 671.531C234.486 685.15 251.191 690.055 263.251 682.484C275.312 674.913 278.16 657.73 269.608 644.112C269.166 643.403 268.647 642.701 268.085 642C268.962 642.196 269.818 642.35 270.653 642.442C286.636 644.252 300.885 634.239 302.485 620.095C304.085 605.943 292.431 593.004 276.448 591.194C275.614 591.103 274.744 591.068 273.853 591.068C274.547 590.507 275.207 589.931 275.803 589.335C287.176 577.968 288.242 560.589 278.174 550.513L278.188 550.52Z" fill="url(#paint0_linear_2049_7954)"/>
<path d="M344.632 498C482.151 498 593.632 386.519 593.632 249C593.632 111.481 482.151 0 344.632 0C207.113 0 95.6318 111.481 95.6318 249C95.6318 386.519 207.113 498 344.632 498Z" fill="#BEF5FF"/>
<path d="M345.591 468.346L394.092 457.184C394.092 457.184 416.572 443.036 427.18 439.503C427.18 439.503 447.086 420.826 471.884 423.272C471.884 423.272 474.82 423.855 475.922 425.788L398.052 471.638L345.591 468.346Z" fill="#EAB892"/>
<path d="M310.313 469.832C310.313 469.832 383.989 466.527 398.641 466.775C398.641 466.775 418.093 453.388 438.042 447.075C438.042 447.075 472.9 421.815 489.06 423.329C489.06 423.329 498.381 422.206 500.919 433.126L393.835 492.789C393.835 492.789 301.39 505.672 299.876 490.514C298.362 475.357 310.306 469.825 310.306 469.825L310.313 469.832Z" fill="#EAB892"/>
<path d="M427.776 439.645L430.855 442.901" stroke="#A37624" stroke-width="1.04" stroke-miterlimit="10"/>
<path d="M395.321 457.256C396.103 457.377 396.8 457.974 397.028 458.742" stroke="#A37624" stroke-width="1.04" stroke-miterlimit="10"/>
<path d="M438.932 449.57C440.503 448.909 441.953 450.679 442.749 452.187" stroke="#A37624" stroke-width="1.04" stroke-miterlimit="10"/>
<path d="M402.353 470.288C404.279 470.174 406.227 471.205 407.223 472.854" stroke="#A37624" stroke-width="1.04" stroke-miterlimit="10"/>
<path d="M402.232 390.619C403.391 390.406 404.542 390.192 405.666 389.823C406.014 389.709 406.377 389.602 406.739 389.553C408.574 389.332 410.337 388.834 412.079 388.23C413.259 387.825 414.489 387.569 415.683 387.192C419.401 386.026 423.113 384.825 426.831 383.645C427.535 383.424 428.224 383.161 428.935 382.998C432.028 382.287 435.014 381.263 437.9 379.948C438.234 379.791 438.569 379.642 438.91 379.5C439.472 379.265 440.062 379.158 440.637 379.35C441.924 379.763 443.24 379.805 444.569 379.784C445.934 379.763 447.171 380.239 448.408 380.708C448.607 380.787 448.813 380.907 448.963 381.057C449.695 381.782 450.434 382.5 451.117 383.268C451.707 383.929 452.162 384.704 452.411 385.557C452.752 386.723 453.463 387.64 454.238 388.536C455.958 390.512 458.063 391.92 460.452 392.994C462.286 393.818 464.206 394.295 466.154 394.657C467.455 394.899 468.805 394.892 470.114 394.657C473.711 394.01 477.052 392.716 480.024 390.562C481.887 389.211 483.487 387.583 484.745 385.664C485.719 384.185 486.764 382.763 487.93 381.433C488.449 380.836 488.925 380.161 489.977 380.097C489.643 379.685 489.494 379.429 489.281 379.244C487.724 377.879 486.423 376.3 485.221 374.615C484.112 373.058 482.882 371.587 481.418 370.336C480.977 369.959 480.479 369.589 479.946 369.383C477.827 368.551 475.723 367.669 473.533 367.015C471.557 366.432 469.587 365.814 467.583 365.352C466.154 365.025 464.675 364.911 463.217 364.726C462.25 364.605 461.319 364.868 460.395 365.124C460.338 365.138 460.196 365.082 460.196 365.067C460.203 364.947 460.196 364.783 460.274 364.719C462.577 362.536 465.243 360.809 467.767 358.903C468.229 358.555 468.784 358.306 469.339 358.114C470.661 357.659 471.998 357.254 473.334 356.863C474.18 356.614 475.062 356.479 475.901 356.216C476.761 355.953 477.614 355.868 478.51 355.889C479.463 355.903 480.422 355.775 481.375 355.718C482.036 355.683 482.697 355.647 483.359 355.661C483.664 355.661 483.906 355.882 484.041 356.152C484.169 356.415 484.247 356.699 484.354 356.97C484.716 357.851 485.079 358.74 485.449 359.621C485.854 360.603 486.501 361.399 487.354 362.003C488.193 362.6 489.06 363.155 489.935 363.702C491.428 364.648 493.013 365.43 494.613 366.184C496.397 367.03 498.978 367.428 500.862 367.015C503.457 366.454 505.91 365.586 508.085 363.901C510.14 362.309 511.996 360.588 513.652 358.583C514.932 357.034 515.984 355.406 516.866 353.607C517.804 351.694 518.984 349.903 520.058 348.061C520.129 347.941 520.179 347.813 520.271 347.621C519.368 347.144 518.451 346.682 517.562 346.177C516.987 345.85 516.404 345.516 515.913 345.083C513.73 343.17 511.214 341.798 508.647 340.511C508.32 340.348 507.957 340.248 507.602 340.17C506.379 339.907 505.156 339.658 503.926 339.43C502.106 339.089 500.279 338.947 498.431 339.096C497.315 339.189 496.269 339.48 495.26 339.978C493.738 340.739 492.317 341.67 491.023 342.758C490.191 343.462 489.444 344.308 488.797 345.196C488.186 346.035 487.518 346.81 486.771 347.521C486.124 348.14 485.619 348.829 485.214 349.64C484.624 350.827 484.027 352 483.657 353.28C483.6 353.486 483.465 353.671 483.38 353.841C483.067 354.161 482.683 354.14 482.328 354.147C481.517 354.154 480.707 354.147 479.896 354.112C478.19 354.041 476.512 354.211 474.87 354.68C474.514 354.78 474.159 354.851 473.796 354.922C473.732 354.936 473.604 354.901 473.597 354.865C473.562 354.751 473.519 354.574 473.576 354.503C473.803 354.218 474.038 353.934 474.322 353.699C476.022 352.284 477.628 350.777 479.15 349.17C480.564 347.677 482.121 346.305 483.714 345.004C485.378 343.646 486.778 342.033 488.307 340.547C488.833 340.035 489.331 339.487 489.835 338.954C490.042 338.741 490.283 338.556 490.44 338.314C491.918 336.025 494.101 334.504 496.319 333.067C498.48 331.674 500.585 330.174 502.867 328.965C503.123 328.823 503.386 328.667 503.663 328.588C503.855 328.539 504.118 328.567 504.296 328.66C504.552 328.795 504.758 329.015 504.971 329.214C506.209 330.38 507.588 331.361 509.074 332.186C510.297 332.861 511.519 333.544 512.685 334.312C513.681 334.966 514.74 335.47 515.813 335.947C517.747 336.8 519.745 337.07 521.849 336.665C523.591 336.331 525.326 336.004 526.904 335.158C528.653 334.219 530.374 333.217 531.853 331.852C533.424 330.401 534.981 328.951 536.175 327.145C536.58 326.534 537.007 325.937 537.298 325.261C537.86 323.981 538.436 322.709 538.827 321.358C539.026 320.654 539.275 319.95 539.559 319.275C540.092 317.988 540.576 316.666 541.735 315.763C541.969 315.578 542.083 315.308 541.991 314.995C539.744 314.433 537.782 313.282 535.877 312.03C535.194 311.582 534.504 311.177 533.744 310.886C532.443 310.381 531.134 309.883 529.784 309.521C529.144 309.35 528.525 309.101 527.921 308.845C526.819 308.376 525.681 308.156 524.487 308.149C522.255 308.127 520.079 308.376 518.06 309.421C517.605 309.656 517.058 309.741 516.66 310.04C515.892 310.601 515.159 311.22 514.491 311.895C513.617 312.791 512.856 313.786 511.733 314.412C511.42 314.59 511.178 314.888 510.887 315.123C509.635 316.126 508.967 317.512 508.377 318.941C508.178 319.417 508.071 319.922 507.908 320.413C507.815 320.69 507.751 320.995 507.595 321.23C506.472 322.858 505.59 324.65 504.325 326.185C504.14 326.406 503.912 326.605 503.663 326.754C502.839 327.238 502 327.686 501.161 328.148C501.111 328.176 500.99 328.155 500.976 328.126C500.926 328.005 500.834 327.849 500.876 327.75C501.083 327.273 501.324 326.825 501.722 326.477C502.696 325.638 503.322 324.564 503.791 323.384C504.552 321.465 505.483 319.63 506.528 317.853C507.126 316.836 507.78 315.855 508.455 314.896C509.849 312.912 511.271 310.943 512.707 308.988C513.005 308.575 513.368 308.177 513.773 307.878C514.839 307.104 515.92 306.329 517.051 305.646C518.252 304.928 519.482 304.26 520.563 303.364C521.48 302.603 522.56 302.141 523.378 301.651C523.94 301.565 524.174 301.757 524.402 301.935C525.34 302.667 526.364 303.215 527.544 303.442C527.9 303.513 528.291 303.599 528.582 303.79C529.307 304.267 530.082 304.295 530.907 304.288C533.132 304.288 535.301 303.904 537.426 303.286C538.777 302.888 540.028 302.276 541.223 301.53C542.595 300.669 543.917 299.731 545.211 298.757C546.107 298.082 546.875 297.292 547.515 296.389C549.491 293.588 550.828 290.503 551.397 287.112C551.517 286.379 551.653 285.668 551.887 284.964C552.506 283.073 552.818 281.104 553.21 279.156C553.323 278.587 553.33 277.983 553.366 277.4C553.394 276.959 553.394 276.518 553.416 276.078C553.444 275.36 553.942 274.563 553.437 273.952C552.975 273.39 552.093 273.49 551.411 273.255C550.231 272.85 549.001 272.587 547.785 272.281C547.358 272.174 546.918 272.075 546.484 272.082C543.078 272.146 539.73 272.587 536.488 273.66C535.862 273.867 535.272 274.172 534.675 274.45C534.476 274.542 534.312 274.72 534.113 274.798C532.336 275.466 530.971 276.682 529.684 278.018C529.428 278.282 529.137 278.509 528.831 278.715C528.753 278.772 528.568 278.708 528.447 278.665C528.397 278.651 528.348 278.537 528.362 278.474C528.419 278.04 528.447 277.592 528.554 277.165C528.945 275.672 529.215 274.144 529.762 272.693C529.89 272.359 529.94 271.983 529.976 271.62C530.054 270.852 530.438 270.596 531.127 270.539C532.244 270.454 533.274 270.162 534.305 269.707C535.173 269.324 536.118 269.096 537.05 268.904C537.647 268.783 538.166 268.57 538.671 268.257C539.737 267.603 540.811 266.963 541.863 266.288C543.64 265.15 545.034 263.679 545.794 261.667C546.128 260.778 546.612 259.932 546.889 259.022C547.188 258.041 547.373 257.017 547.522 256C547.778 254.251 547.913 252.495 547.657 250.725C547.501 249.637 547.501 248.528 547.23 247.448C547.074 246.815 547.06 246.125 547.081 245.471C547.117 244.554 546.854 243.722 546.541 242.897C546.413 242.556 546.256 242.215 546.086 241.895C545.368 240.523 544.699 239.137 544.358 237.608C544.266 237.189 544.017 236.798 543.825 236.399C543.413 235.539 543.014 234.665 542.574 233.819C541.521 231.785 540.647 229.688 540.014 227.484C539.979 227.356 539.858 227.249 539.737 227.086C539.502 227.257 539.261 227.413 539.04 227.598C538.635 227.932 538.187 228.138 537.647 228.195C536.31 228.33 535.08 228.828 533.907 229.468C532.805 230.065 531.703 230.648 530.679 231.373C530.082 231.792 529.421 232.134 528.803 232.532C528.184 232.923 527.573 233.328 526.975 233.755C525.347 234.921 523.968 236.321 522.788 237.956C521.842 239.265 520.847 240.537 519.766 241.753C518.743 242.905 517.982 244.27 517.356 245.692C517.029 246.431 516.731 247.185 516.226 247.831C515.856 248.308 515.614 248.834 515.55 249.438C515.501 249.886 515.323 250.291 515.046 250.647C514.605 251.209 514.534 251.855 514.64 252.531C514.775 253.405 514.989 254.266 514.875 255.161C515.202 256.05 515.252 257.01 515.828 257.835C516.368 258.61 516.738 259.512 517.107 260.387C517.754 261.901 518.821 263.131 519.773 264.432C520.2 265.008 520.854 265.42 521.409 265.904C522.468 266.814 523.513 267.745 524.601 268.627C525.575 269.416 526.613 270.12 527.878 270.383C528.092 270.426 528.305 270.511 528.511 270.582C528.76 270.667 528.973 271.044 528.902 271.286C528.426 272.985 527.964 274.691 527.459 276.376C527.139 277.436 526.84 278.488 526.719 279.597C526.641 280.315 526.371 281.026 526.137 281.715C525.923 282.341 525.667 282.952 525.376 283.55C524.594 285.164 524.309 286.905 524.068 288.654C523.826 290.403 523.598 292.152 523.342 293.901C523.143 295.287 523.058 296.681 523.122 298.082C523.143 298.586 522.895 298.92 522.511 299.176C521.466 299.866 520.413 300.534 519.354 301.21C516.361 303.122 513.659 305.397 511.171 307.907C510.19 308.895 509.372 310.047 508.54 311.163C507.574 312.464 506.671 313.801 505.739 315.13C505.448 315.542 505.163 315.962 504.872 316.367C504.858 316.389 504.744 316.381 504.701 316.346C504.644 316.303 504.588 316.225 504.588 316.161C504.531 314.519 504.083 312.976 503.414 311.483C503.386 311.419 503.407 311.341 503.4 311.199C503.578 310.701 503.798 310.161 503.955 309.592C504.175 308.817 504.474 308.035 504.516 307.239C504.637 305.084 505.227 303.037 505.739 300.968C505.846 300.541 505.91 300.108 505.981 299.674C506.066 299.169 506.372 298.906 506.863 298.849C508.64 298.657 510.261 297.925 511.946 297.413C512.877 297.129 513.709 296.603 514.399 295.956C516.617 293.887 518.615 291.64 519.766 288.761C520.122 287.865 520.392 286.955 520.513 286.002C520.691 284.616 520.875 283.237 520.662 281.829C520.541 281.033 520.584 280.215 520.591 279.405C520.598 278.289 520.378 277.222 520.079 276.149C519.653 274.634 519.034 273.241 517.882 272.132C517.669 271.926 517.463 271.712 517.299 271.471C516.56 270.354 515.629 269.423 514.605 268.57C514.271 268.286 513.915 267.994 513.666 267.639C512.991 266.657 512.138 265.854 511.235 265.093C510.332 264.34 509.593 263.416 508.59 262.761C508.128 262.456 507.801 261.951 507.438 261.56C506.991 261.631 506.72 261.887 506.45 262.136C505.405 263.067 504.275 263.871 503.038 264.546C501.879 265.179 500.748 265.897 499.71 266.707C496.554 269.181 493.859 272.068 492.068 275.715C491.421 277.037 490.681 278.303 490.255 279.725C489.956 280.706 489.828 281.737 489.316 282.654C489.188 282.881 489.203 283.237 489.252 283.514C489.515 285.036 489.693 286.564 490.091 288.071C490.71 290.439 492.053 292.323 493.788 293.972C493.945 294.122 494.129 294.264 494.321 294.363C495.509 294.968 496.532 295.821 497.599 296.603C498.438 297.214 499.327 297.719 500.272 298.138C500.876 298.401 501.424 298.785 502.028 299.056C502.824 299.418 503.045 300.051 502.981 300.854C502.967 301.004 502.981 301.146 502.974 301.295C502.789 303.122 502.618 304.956 502.398 306.776C502.313 307.502 502.163 308.234 501.779 308.881C501.715 308.988 501.552 309.094 501.424 309.101C501.303 309.101 501.132 309.016 501.061 308.916C500.898 308.682 500.72 308.426 500.642 308.156C500.329 307.082 499.803 306.13 499.263 305.156C498.523 303.812 497.876 302.411 497.179 301.025C496.739 300.904 496.319 301.082 495.928 301.274C494.983 301.729 494.002 301.949 492.949 301.985C491.997 302.02 491.044 302.155 490.098 302.312C489.601 302.397 489.103 302.561 488.634 302.767C487.077 303.435 485.513 304.075 484.006 304.843C483.159 305.269 482.313 305.802 481.666 306.478C480.038 308.177 478.297 309.791 476.917 311.71C475.083 314.263 474.72 317.107 475.559 320.121C476.405 321.927 477.33 323.69 478.766 325.112C480.017 326.356 481.247 327.629 482.733 328.617C483.28 328.979 483.757 329.456 484.247 329.904C485.278 330.856 486.373 331.724 487.66 332.307C488.812 332.826 489.75 333.665 490.738 334.425C490.816 334.489 490.838 334.717 490.788 334.831C490.703 335.03 490.582 335.236 490.418 335.371C489.558 336.082 488.883 336.956 488.157 337.781C486.792 339.324 485.442 340.888 484.02 342.381C483.003 343.447 481.873 344.393 480.828 345.431C479.363 346.881 477.934 348.374 476.491 349.839C476.128 350.201 475.787 350.614 475.367 350.898C473.469 352.178 471.855 353.813 470.014 355.164C468.237 356.472 466.438 357.759 464.703 359.117C463.31 360.204 461.966 361.349 460.658 362.536C459.343 363.724 457.914 364.762 456.485 365.8C455.297 366.66 454.046 367.449 452.795 368.224C451.423 369.084 450.086 370.001 448.813 371.004C447.825 371.779 446.766 372.44 445.65 373.016C445.564 373.058 445.387 372.952 445.266 372.895C445.252 372.895 445.28 372.753 445.316 372.696C445.699 372.07 446.055 371.423 446.496 370.833C447.427 369.589 448.202 368.252 448.863 366.852C449.802 364.854 450.776 362.885 451.309 360.716C451.622 359.437 452.134 358.2 452.624 356.97C453.044 355.939 453.363 354.894 453.406 353.777C453.406 353.635 453.47 353.493 453.506 353.351C453.57 353.095 453.868 352.818 454.131 352.803C455.162 352.754 456.179 352.732 457.203 352.967C460.068 353.607 462.919 353.429 465.706 352.555C468.009 351.829 469.9 350.5 471.251 348.417C472.424 346.611 473.384 344.741 473.896 342.637C474.159 341.549 474.216 340.447 474.244 339.352C474.273 338.25 474.159 337.148 474.088 336.046C474.066 335.755 473.995 335.463 473.91 335.186C473.391 333.494 472.794 331.845 471.941 330.281C471.13 328.795 470.213 327.373 469.31 325.944C468.827 325.176 468.201 324.586 467.433 324.117C465.77 323.107 465.713 323.05 463.921 323.299C463.04 323.42 462.165 323.455 461.283 323.448C459.414 323.441 457.651 323.875 455.923 324.572C453.072 325.723 450.74 327.622 448.444 329.598C447.775 330.174 447.114 330.764 446.496 331.397C445.927 331.973 445.401 332.584 444.889 333.21C444.363 333.842 444.036 334.589 443.879 335.392C443.559 337.056 443.261 338.712 443.275 340.426C443.282 341.62 443.481 342.779 443.744 343.917C444.114 345.53 444.996 346.888 446.098 348.111C446.389 348.438 446.752 348.715 447.029 349.057C447.839 350.038 448.799 350.834 450.015 351.254C451.117 351.637 451.359 352.412 451.316 353.5C451.266 354.851 450.939 356.131 450.548 357.382C449.411 361.036 448.195 364.662 446.51 368.11C445.308 370.57 443.773 372.817 441.974 374.879C441.64 375.255 441.206 375.568 440.773 375.824C439.13 376.805 437.424 377.644 435.604 378.291C431.587 379.727 427.606 381.256 423.632 382.827C421.3 383.751 418.932 384.555 416.522 385.223C414.254 385.856 412.015 386.567 409.825 387.413C408.446 387.946 407.052 388.372 405.602 388.671C404.599 388.877 403.632 389.261 402.651 389.581C402.225 389.723 402.132 389.958 402.182 390.633V390.591L402.232 390.619Z" fill="url(#paint1_linear_2049_7954)"/>
<path d="M236.132 246.6C236.047 246.422 235.997 246.237 235.883 246.102C235.563 245.718 235.229 245.349 234.874 244.993C234.61 244.723 234.326 244.474 234.035 244.24C232.023 242.633 230.231 240.799 228.482 238.922C228.226 238.644 227.956 238.381 227.736 238.083C225.93 235.68 224.096 233.298 222.332 230.867C220.42 228.229 218.763 225.428 217.341 222.492C217.043 221.866 216.758 221.24 216.311 220.714C215.088 219.278 214.192 217.622 213.111 216.093C212.784 215.631 212.493 215.147 212.13 214.721C211.327 213.761 210.609 212.737 209.884 211.714C209.123 210.64 208.369 209.566 207.744 208.408C207.509 207.974 207.196 207.569 206.876 207.192C206.386 206.616 205.98 205.983 205.661 205.301C205.127 204.163 204.608 203.026 204.125 201.874C203.805 201.127 203.613 200.338 203.485 199.528C203.229 197.921 203.037 196.307 202.838 194.693C202.653 193.2 202.468 191.714 202.483 190.221C202.483 189.283 202.547 188.345 202.639 187.413C202.966 184.221 203.812 181.143 204.843 178.114C205.028 177.581 205.184 177.04 205.362 176.507C205.632 175.675 205.945 174.865 206.371 174.09C207.154 172.661 207.793 171.168 208.199 169.583C208.291 169.22 208.405 168.857 208.519 168.502C208.931 167.251 209.194 165.964 209.365 164.656C209.5 163.603 209.649 162.551 209.82 161.499C209.869 161.193 209.997 160.902 210.111 160.61C210.403 159.857 210.85 159.608 211.725 159.686C211.91 159.7 212.102 159.707 212.287 159.729C212.614 159.764 212.905 159.906 213.076 160.184C213.822 161.364 214.839 162.288 215.912 163.156C216.154 163.355 216.353 163.596 216.574 163.817C217.327 164.563 218.124 165.253 218.998 165.878C220.619 167.052 222.268 168.196 223.726 169.575C224.408 170.222 225.119 170.805 225.638 171.623C225.965 172.135 226.484 172.54 226.975 172.931C227.423 173.294 227.8 173.699 228.119 174.161C228.759 175.085 229.413 176.002 229.904 177.026C230.153 177.531 230.444 178.014 230.75 178.484C231.532 179.706 232.101 181.036 232.471 182.429C232.968 184.299 233.402 186.19 233.821 188.081C234.035 189.048 234.276 190.037 234.312 191.025C234.404 193.591 234.362 196.158 233.523 198.639C233.203 199.585 232.918 200.552 232.591 201.49C232.471 201.838 232.286 202.173 232.072 202.478C231.646 203.097 231.262 203.737 230.942 204.419C230.437 205.507 229.719 206.481 228.838 207.277C227.807 208.201 226.911 209.254 226.036 210.306C225.162 211.365 224.252 212.396 223.328 213.413C222.247 214.6 221.543 215.965 221.095 217.486C220.918 218.091 220.818 218.702 220.861 219.335C220.953 220.579 221.024 221.83 221.131 223.075C221.223 224.212 221.621 225.271 222.098 226.295C222.489 227.148 222.873 228.009 223.285 228.847C223.783 229.85 224.423 230.788 225.077 231.698C226.321 233.419 227.601 235.118 228.93 236.775C229.399 237.358 229.762 238.026 230.181 238.644C230.743 239.476 231.354 240.265 232.115 240.934C232.392 241.182 232.67 241.446 232.904 241.737C233.7 242.718 234.66 243.521 235.684 244.247C236.452 244.787 237.213 245.334 237.888 245.996C238.521 246.621 239.345 246.963 240.149 247.304C241.478 247.865 242.829 248.328 244.237 248.662C246.974 249.309 249.69 250.055 252.427 250.731C253.522 251.001 254.638 251.178 255.74 251.399C258.008 251.854 260.283 252.288 262.551 252.764C263.66 252.991 264.762 253.155 265.892 253.226C267.641 253.333 269.383 253.567 271.125 253.738C272.184 253.845 273.244 253.923 274.303 254.015C274.488 254.029 274.68 254.029 274.865 254.044C277.047 254.207 279.237 254.342 281.42 254.548C282.785 254.683 284.142 254.925 285.507 255.124C285.557 255.131 285.657 255.195 285.65 255.21C285.621 255.323 285.607 255.48 285.522 255.529C284.171 256.368 282.678 256.468 281.178 256.184C277.843 255.558 274.459 255.465 271.097 255.174C267.975 254.904 264.861 254.577 261.79 253.951C260.567 253.702 259.359 253.361 258.15 253.027C257.176 252.757 256.195 252.572 255.185 252.6C254.489 252.615 253.82 252.508 253.166 252.259C252.519 252.024 251.858 251.833 251.204 251.626C251.083 251.591 250.962 251.52 250.841 251.527C249.249 251.577 247.82 250.802 246.263 250.631C244.962 250.489 243.661 250.283 242.346 250.219C241.158 250.162 239.978 250.02 238.798 249.87C236.8 249.629 234.81 249.557 232.805 249.678C231.973 249.728 231.198 249.934 230.466 250.304C229.513 250.787 228.61 251.335 227.828 252.088C227.153 252.743 226.463 253.375 225.773 254.008C225.589 254.172 225.375 254.314 225.162 254.435C224.373 254.883 223.783 255.501 223.42 256.326C223.207 256.816 222.816 257.108 222.332 257.3C221.984 257.435 221.629 257.57 221.301 257.741C221.088 257.854 220.811 258.011 220.74 258.21C220.512 258.814 220 259.027 219.489 259.269C219.204 259.404 218.906 259.518 218.657 259.696C217.676 260.385 216.574 260.819 215.486 261.309C214.384 261.807 213.232 262.084 212.059 262.234C210.566 262.419 209.066 262.511 207.566 262.483C206.435 262.461 205.326 262.284 204.239 261.964C202.44 261.43 200.655 260.798 198.828 260.414C196.674 259.966 194.619 259.205 192.529 258.572C190.915 258.082 189.28 257.648 187.659 257.186C187.538 257.15 187.41 257.143 187.297 257.094C186.266 256.603 185.15 256.439 184.041 256.269C183.777 256.226 183.607 256.048 183.699 255.935C183.806 255.8 183.927 255.636 184.083 255.579C184.488 255.43 184.915 255.323 185.342 255.21C187.098 254.74 188.861 254.292 190.503 253.51C191.52 253.027 192.522 252.508 193.51 251.975C194.285 251.562 195.067 251.178 195.928 250.965C196.29 250.873 196.653 250.759 196.994 250.603C198.828 249.735 200.798 249.373 202.781 249.074C204.829 248.761 206.891 248.74 208.959 248.733C211.462 248.733 213.964 248.875 216.446 249.273C217.249 249.401 218.06 249.451 218.877 249.351C219.375 249.287 219.88 249.287 220.377 249.294C222.51 249.33 224.636 249.216 226.754 249.095C227.252 249.067 227.757 249.053 228.247 249.124C228.894 249.216 229.506 249.138 230.089 248.889C231.326 248.37 232.613 248.221 233.949 248.278C234.746 248.313 235.556 248.278 236.48 248.285C236.31 248.086 236.253 247.979 236.189 247.965C232.215 247.218 228.482 245.789 225.055 243.664C223.036 242.412 221.081 241.062 219.375 239.377C218.358 238.367 217.235 237.45 216.126 236.54C215.735 236.22 215.337 235.929 215.038 235.516C214.107 234.236 212.77 233.54 211.298 233.163C209.478 232.701 207.63 232.345 205.739 232.31C205.177 232.296 204.608 232.296 204.054 232.331C202.049 232.459 200.051 232.409 198.082 231.94C197.904 231.897 197.712 231.905 197.541 231.89C197.257 232.068 196.994 232.232 196.731 232.395C196.312 232.26 195.892 232.118 195.473 231.997C194.683 231.762 193.901 231.57 193.091 231.947C192.927 232.025 192.721 232.018 192.536 232.018C191.69 232.033 190.958 232.374 190.276 232.836C189.131 233.604 187.986 234.372 186.835 235.125C186.209 235.538 185.597 235.985 184.922 236.305C183.344 237.059 181.765 237.834 180.088 238.353C179.668 238.481 179.277 238.68 178.872 238.843C178.815 238.865 178.765 238.907 178.708 238.929C176.192 240.13 173.476 240.777 170.739 240.806C169.985 240.813 169.246 240.713 168.506 240.578C164.667 239.896 161.532 237.912 158.731 235.324C158.226 234.862 157.821 234.293 157.351 233.789C156.079 232.409 154.835 231.009 153.598 229.594C151.664 227.383 149.879 225.03 147.81 222.939C147.37 222.492 146.957 222.022 146.502 221.589C145.237 220.373 143.964 219.171 142.684 217.977C142.137 217.465 141.639 216.889 140.815 216.818C140.644 216.804 140.488 216.64 140.338 216.527C140.011 216.285 139.862 215.958 139.969 215.474C140.274 215.361 140.616 215.19 140.971 215.119C142.194 214.87 143.431 214.664 144.654 214.415C146.246 214.102 147.846 213.782 149.431 213.441C150.96 213.114 152.481 212.766 154.003 212.41C154.429 212.311 154.849 212.169 155.247 211.998C155.83 211.749 156.42 211.621 157.06 211.593C157.607 211.564 158.162 211.386 158.695 211.216C159.349 211.01 159.996 210.761 160.629 210.498C162.349 209.78 164.155 209.652 165.975 209.801C167.973 209.965 169.949 210.313 171.777 211.223C171.89 211.28 172.004 211.33 172.125 211.365C174.926 212.169 177.315 213.832 179.889 215.105C180.671 215.489 181.431 215.937 182.185 216.384C182.668 216.669 183.159 216.96 183.586 217.323C184.687 218.247 185.853 219.093 186.863 220.138C187.297 220.586 187.809 220.963 188.306 221.34C189.657 222.364 190.851 223.558 192.017 224.788C193.56 226.43 195.131 228.044 196.809 229.551C197.477 230.156 198.245 230.483 199.106 230.746C200.513 231.179 201.949 231.229 203.371 231.201C205.454 231.158 207.495 231.378 209.528 231.755C209.834 231.812 210.147 231.862 210.459 231.897C210.63 231.912 210.822 231.954 210.95 231.748C211.035 231.62 211.035 231.386 210.886 231.243C210.019 230.426 209.237 229.537 208.298 228.798C206.286 227.198 204.452 225.406 202.703 223.522C202.106 222.883 201.466 222.285 200.84 221.667C199.817 220.65 198.906 219.541 198.053 218.375C196.575 216.349 195.195 214.259 193.852 212.147C193.717 211.934 193.589 211.721 193.468 211.5C192.202 209.197 190.951 206.886 189.685 204.583C188.747 202.876 188.15 201.028 187.496 199.201C186.792 197.253 186.024 195.347 184.929 193.577C184.595 193.037 184.218 192.546 183.699 192.177C183.344 191.928 182.974 191.7 182.54 191.579C181.154 191.188 179.782 190.762 178.403 190.357C178.161 190.285 177.919 190.207 177.67 190.179C175.587 189.966 173.71 189.027 171.713 188.529C171.293 188.423 170.895 188.217 170.49 188.046C167.959 186.972 165.435 185.878 162.89 184.825C162.364 184.605 161.845 184.392 161.39 184.065C159.854 182.984 158.311 181.918 156.975 180.581C156.356 179.962 155.688 179.394 155.055 178.789C154.365 178.135 153.832 177.375 153.384 176.536C152.737 175.32 152.062 174.118 151.387 172.924C151.237 172.654 151.059 172.391 150.868 172.142C150.043 171.111 149.41 169.959 148.799 168.793C147.931 167.13 147.092 165.452 146.374 163.717C146.154 163.191 145.997 162.665 145.891 162.11C145.486 159.963 145.073 157.809 144.519 155.691C144.22 154.546 143.929 153.38 144.135 152.171C143.978 150.245 144.163 148.282 143.623 146.391C143.637 144.948 143.154 143.555 143.282 142.104C143.303 141.863 143.267 141.599 143.218 141.358C142.983 140.192 142.734 139.033 142.485 137.874C142.45 137.689 142.393 137.512 142.35 137.327C141.661 134.241 141.561 133.679 140.701 131.795C140.665 131.717 140.751 131.582 140.8 131.483C140.815 131.447 140.914 131.426 140.964 131.44C142.308 131.938 143.708 132.314 144.952 133.068C145.322 133.288 145.749 133.431 146.161 133.566C147.896 134.106 149.616 134.653 151.315 135.293C152.773 135.841 154.309 136.196 155.816 136.601C157.991 137.184 160.167 137.753 162.257 138.613C163.011 138.919 163.778 139.189 164.539 139.481C165.812 139.971 169.537 142.14 170.476 143.036C171.926 144.415 173.362 145.808 174.727 147.273C175.879 148.51 176.91 149.854 177.99 151.148C178.474 151.723 178.879 152.349 179.142 153.074C179.313 153.543 179.554 153.984 179.817 154.411C180.336 155.271 180.784 156.167 181.111 157.112C181.602 158.534 182.228 159.899 182.853 161.264C183.244 162.118 183.55 162.999 183.813 163.909C184.581 166.618 185.221 169.362 185.733 172.128C185.846 172.739 185.917 173.365 186.01 173.983C186.038 174.168 186.024 174.367 186.088 174.538C186.635 176.081 186.65 177.737 187.083 179.301C187.247 179.898 187.318 180.531 187.354 181.157C187.474 183.283 187.602 185.408 187.19 187.52C187.133 187.826 187.133 188.145 187.076 188.451C186.963 189.148 187.041 189.823 187.268 190.485C187.389 190.84 187.546 191.188 187.645 191.551C187.709 191.786 187.809 192.084 187.723 192.283C187.318 193.293 187.716 194.26 187.837 195.227C187.979 196.336 188.278 197.431 188.527 198.532C188.619 198.959 188.761 199.371 188.882 199.791C188.918 199.912 188.975 200.025 189.024 200.139C189.437 200.985 189.387 201.981 189.92 202.791C190.404 203.53 190.773 204.32 191.022 205.166C191.058 205.287 191.114 205.4 191.186 205.507C192.145 206.915 192.735 208.507 193.482 210.014C193.958 210.974 194.499 211.884 195.188 212.702C195.956 213.612 196.667 214.564 197.214 215.631C197.506 216.193 197.869 216.697 198.331 217.131C198.928 217.693 199.397 218.354 199.852 219.036C200.62 220.181 201.516 221.233 202.547 222.157C203.62 223.124 204.601 224.177 205.54 225.264C206.151 225.982 206.827 226.629 207.537 227.241C209.621 229.039 211.718 230.831 213.9 232.502C215.692 233.874 217.384 235.36 219.048 236.881C220.484 238.196 222.034 239.348 223.633 240.45C224.252 240.877 224.878 241.289 225.468 241.758C226.307 242.42 227.217 242.96 228.191 243.408C229.271 243.898 230.345 244.41 231.425 244.908C231.71 245.036 231.994 245.164 232.3 245.256C233.501 245.612 234.653 246.095 235.791 246.607C235.89 246.65 236.032 246.607 236.189 246.607L236.132 246.6Z" fill="url(#paint2_linear_2049_7954)"/>
<path d="M411.446 417.656V417.642L411.36 225.806C411.36 218.128 407.898 210.855 401.947 206.006L373.843 183.113V160.021H297.487V184.336L268.999 206.013C263.049 210.862 259.586 218.135 259.586 225.813L259.501 417.649V418.403H259.522C260.454 435.807 294.103 449.798 335.473 449.798C376.844 449.798 410.493 435.807 411.424 418.403H411.446V417.663V417.656Z" fill="url(#paint3_linear_2049_7954)"/>
<path d="M373.595 182.963C366.677 188.188 351.825 193.293 334.613 193.293C318.745 193.293 304.895 189.027 297.409 184.449V171.289H373.595V182.963Z" fill="url(#paint4_linear_2049_7954)"/>
<path d="M563.739 400.444C582.44 400.444 597.601 385.283 597.601 366.581C597.601 347.88 582.44 332.719 563.739 332.719C545.037 332.719 529.876 347.88 529.876 366.581C529.876 385.283 545.037 400.444 563.739 400.444Z" fill="url(#paint5_linear_2049_7954)"/>
<path d="M186.138 77.8286C202.162 77.8286 215.152 64.8387 215.152 48.8147C215.152 32.7908 202.162 19.8008 186.138 19.8008C170.114 19.8008 157.124 32.7908 157.124 48.8147C157.124 64.8387 170.114 77.8286 186.138 77.8286Z" fill="url(#paint6_linear_2049_7954)"/>
<g style="mix-blend-mode:soft-light">
<path d="M259.743 218.98C259.21 221.028 258.919 223.147 258.904 225.308C271.886 235.922 300.978 243.316 334.784 243.316C368.59 243.316 397.682 235.922 410.664 225.308C410.65 223.154 410.358 221.028 409.825 218.98C396.459 226.097 367.886 231.017 334.784 231.017C301.682 231.017 273.109 226.097 259.743 218.98Z" fill="#00C0F9"/>
</g>
<g style="mix-blend-mode:soft-light">
<path d="M303.296 141.266L302.486 186.916C289.418 211.124 285.373 226.999 285.373 226.999L285.117 441.728C289.945 443.477 295.305 444.97 301.071 446.164C301.071 446.164 303.979 250.354 303.979 229.516L307.142 188.473V141.266H303.296Z" fill="#00C0F9"/>
</g>
<g style="mix-blend-mode:multiply" opacity="0.7">
<path d="M400.483 227.696V221.667C400.483 221.667 392.976 203.104 371.526 184.342L366.998 141.266H363.151V187.598L366.656 193.357C376.851 208.401 385.12 216.015 385.347 230.917C385.212 230.938 384.942 440.853 384.942 440.853C390.708 439.659 395.862 436.41 400.896 432.706C400.896 432.706 400.619 227.668 400.483 227.703V227.696Z" fill="#0088C7"/>
</g>
<path d="M303.666 241.105C297.68 240.288 291.75 239.079 285.92 237.501L285.373 237.351V227L303.979 229.517L303.666 241.105Z" fill="#BEF5FF"/>
<path d="M232.791 478.903C247.542 478.903 259.501 466.945 259.501 452.193C259.501 437.441 247.542 425.482 232.791 425.482C218.039 425.482 206.08 437.441 206.08 452.193C206.08 466.945 218.039 478.903 232.791 478.903Z" fill="#DE97FF"/>
<path d="M292.575 118.303V167.081C292.575 176.06 311.472 183.341 334.784 183.341C358.096 183.341 376.994 176.06 376.994 167.081V118.303H292.582H292.575Z" fill="#0B1E44"/>
<path d="M334.784 134.562C358.096 134.562 376.994 127.282 376.994 118.302C376.994 109.323 358.096 102.043 334.784 102.043C311.473 102.043 292.575 109.323 292.575 118.302C292.575 127.282 311.473 134.562 334.784 134.562Z" fill="url(#paint7_linear_2049_7954)"/>
<g style="mix-blend-mode:soft-light">
<path d="M306.787 129.891V178.669C309.396 179.565 312.304 180.333 315.432 180.951L320.907 182.089V133.083C315.646 132.379 310.868 131.284 306.787 129.891Z" fill="#00C0F9"/>
</g>
<path d="M290.747 102.875L292.176 107.816C295.404 118.999 303.388 128.441 314.251 133.901C303.388 139.368 295.404 148.802 292.176 159.986L290.747 164.927L289.318 159.986C286.09 148.802 278.107 139.361 267.243 133.901C278.107 128.434 286.09 118.999 289.318 107.816L290.747 102.875Z" fill="url(#paint8_linear_2049_7954)" stroke="#C69024" stroke-miterlimit="10"/>
<path d="M566.134 102.375L561.271 94.1853L564.769 86.1018L503.492 59.5762L499.994 67.6597L490.695 69.7215C482.96 71.4348 476.775 76.3546 473.846 83.1158L456.705 122.716C453.178 130.856 471.379 146.568 497.35 157.815C523.321 169.063 547.23 171.572 550.756 163.425L567.897 123.825C570.819 117.064 570.172 109.186 566.127 102.375H566.134Z" fill="url(#paint9_linear_2049_7954)"/>
<path d="M561.228 93.6735C554.581 93.8797 541.947 90.5382 528.204 84.5947C515.535 79.1132 505.077 72.9422 500.079 68.0864L502.909 61.5527L563.738 87.8793L561.228 93.6735Z" fill="#AC4DD7"/>
<path d="M505.54 45.1367L498.373 61.6948C497.051 64.7448 511.284 73.8378 530.167 82.0067C549.043 90.1755 565.416 94.3274 566.738 91.2846L573.905 74.7265L505.54 45.1367Z" fill="#0B1E44"/>
<path d="M573.865 74.6919C575.184 71.6433 560.949 62.5491 542.07 54.3794C523.191 46.2098 506.817 42.0584 505.498 45.107C504.179 48.1556 518.414 57.2498 537.293 65.4194C556.172 73.5891 572.546 77.7405 573.865 74.6919Z" fill="url(#paint10_linear_2049_7954)"/>
<g style="mix-blend-mode:soft-light">
<path d="M515.344 54.052L508.178 70.6101C510.161 71.8258 512.401 73.1055 514.839 74.4137L519.105 76.7172L526.307 60.0809C522.155 57.9978 518.437 55.9503 515.344 54.0449V54.052Z" fill="#00C0F9"/>
</g>
<path d="M517.768 110.809C491.826 99.5827 472.573 86.3803 474.763 81.3184C474.393 81.9724 474.052 82.6478 473.746 83.3446L456.605 122.945C453.079 131.085 471.279 146.797 497.25 158.044C523.221 169.284 547.13 171.801 550.657 163.654L567.798 124.054C568.025 123.52 568.224 122.987 568.409 122.44C565.004 126.698 542.851 121.665 517.761 110.809H517.768Z" fill="url(#paint11_linear_2049_7954)"/>
<path d="M551.083 115.927L555.107 117.668L545.715 139.367L541.691 137.625L551.083 115.927ZM502.354 102.362C502.184 98.5012 500.3 95.0958 496.695 93.5388C491.562 91.3206 485.782 94.072 483.422 99.525C481.061 104.985 483.009 111.078 488.143 113.303C492.721 115.287 497.762 113.282 500.534 108.974L488.242 103.649L489.081 101.715L506.215 109.13L506.122 109.343C503.428 115.571 495.11 117.967 487.545 114.697C479.981 111.419 476.035 103.72 478.73 97.4846C481.424 91.2567 489.742 88.8607 497.307 92.1311C502.923 94.5626 506.549 99.4326 506.94 104.338L502.354 102.355V102.362ZM513.68 99.9729L517.697 101.715L508.305 123.413L504.288 121.671L513.68 99.9729ZM539.672 118.515C539.509 114.654 537.618 111.249 534.013 109.692C528.88 107.473 523.1 110.225 520.74 115.678C518.379 121.138 520.327 127.231 525.46 129.456C530.039 131.44 535.08 129.435 537.852 125.126L525.56 119.801L526.399 117.868L543.533 125.283L543.483 125.389L543.44 125.496C540.746 131.724 532.428 134.12 524.863 130.85C517.299 127.572 513.353 119.872 516.047 113.637C518.742 107.409 527.06 105.014 534.625 108.284C540.241 110.715 543.867 115.585 544.258 120.491L539.672 118.507V118.515ZM542.928 146.377C542.907 146.235 542.85 146.107 542.779 145.979C542.672 145.787 542.452 145.559 542.303 145.403C542.175 145.268 542.047 145.14 541.926 145.012C541.834 144.912 541.755 144.806 541.698 144.685C541.663 144.606 541.634 144.521 541.649 144.429C541.663 144.294 541.734 144.187 541.834 144.102C541.969 143.974 542.132 143.931 542.31 143.938C542.424 143.938 542.53 143.981 542.637 144.023C543.113 144.237 543.255 144.699 543.248 144.877L543.312 144.905L543.675 144.521C543.597 144.272 543.291 143.931 542.864 143.711C542.694 143.625 542.409 143.504 542.225 143.476C541.976 143.44 541.734 143.455 541.507 143.554C541.407 143.597 541.315 143.654 541.229 143.718C541.151 143.782 541.08 143.86 541.023 143.952C540.938 144.08 540.874 144.223 540.845 144.379C540.81 144.592 540.881 144.77 540.973 144.962C541.101 145.211 541.379 145.481 541.57 145.68C541.677 145.787 541.777 145.893 541.876 146C541.969 146.099 542.047 146.213 542.104 146.341C542.153 146.455 542.168 146.583 542.139 146.704C542.104 146.853 542.026 146.981 541.905 147.081C541.798 147.173 541.663 147.23 541.521 147.251C541.379 147.273 541.236 147.251 541.101 147.209C540.874 147.13 540.66 146.967 540.554 146.825C540.369 146.576 540.277 146.327 540.348 145.929L540.284 145.9L539.814 146.327C539.85 146.512 540.085 146.889 540.241 147.066C540.348 147.187 540.469 147.287 540.596 147.372C540.717 147.457 540.852 147.521 540.995 147.571C541.13 147.621 541.371 147.706 541.514 147.72C541.755 147.749 541.997 147.72 542.225 147.628C542.587 147.472 543 146.967 542.914 146.384L542.928 146.377ZM532.236 139.161L531.39 138.798L529.726 142.637L530.572 143L532.236 139.161ZM494.079 122.574C492.885 122.055 491.548 122.517 491.072 123.619C490.588 124.728 491.164 126.008 492.366 126.527C493.574 127.046 494.889 126.584 495.366 125.475C495.849 124.359 495.259 123.086 494.072 122.567L494.079 122.574ZM494.25 125.525C494.086 125.752 493.887 125.937 493.638 126.072C493.425 126.193 493.19 126.257 492.941 126.25C492.735 126.25 492.536 126.186 492.366 126.072C492.195 125.958 492.06 125.809 491.96 125.624C491.861 125.439 491.804 125.233 491.79 125.027C491.775 124.885 491.783 124.742 491.797 124.6C491.825 124.366 491.889 124.145 491.989 123.939C492.053 123.79 492.138 123.655 492.238 123.527C492.43 123.271 492.671 123.065 492.963 122.937C493.148 122.858 493.332 122.837 493.531 122.851C493.688 122.858 493.837 122.901 493.972 122.965C494.235 123.093 494.42 123.306 494.534 123.576C494.641 123.825 494.69 124.06 494.676 124.323C494.676 124.458 494.655 124.593 494.612 124.728C494.577 124.849 494.534 124.977 494.513 125.048C494.42 125.247 494.342 125.397 494.242 125.532L494.25 125.525ZM519.616 133.622C518.422 133.103 517.085 133.565 516.609 134.667C516.126 135.776 516.701 137.056 517.903 137.575C519.112 138.094 520.427 137.632 520.903 136.523C521.387 135.407 520.797 134.134 519.609 133.615L519.616 133.622ZM519.787 136.573C519.623 136.8 519.424 136.985 519.176 137.12C518.962 137.241 518.728 137.305 518.479 137.298C518.273 137.298 518.074 137.234 517.903 137.12C517.732 137.006 517.597 136.857 517.498 136.672C517.398 136.487 517.341 136.281 517.327 136.075C517.313 135.933 517.32 135.791 517.334 135.648C517.363 135.414 517.427 135.193 517.526 134.987C517.59 134.838 517.675 134.703 517.775 134.575C517.967 134.319 518.209 134.113 518.507 133.985C518.692 133.907 518.877 133.885 519.076 133.9C519.232 133.907 519.382 133.949 519.517 134.013C519.78 134.141 519.965 134.355 520.078 134.625C520.185 134.874 520.235 135.108 520.221 135.371C520.221 135.506 520.199 135.641 520.157 135.776C520.121 135.897 520.078 136.025 520.057 136.096C519.965 136.295 519.886 136.445 519.787 136.58V136.573ZM480.564 116.73L477.094 119.851L477.542 120.043L478.019 119.609C478.211 119.432 478.566 119.112 478.658 119.019C479.384 119.332 480.095 119.638 480.095 119.638H480.109C480.109 119.78 480.109 120.299 480.109 120.519C480.109 120.718 480.109 121.152 480.109 121.152L480.976 121.529L480.898 116.872L480.564 116.73ZM478.971 118.728L480.109 117.69V119.218L478.971 118.721V118.728ZM507.025 128.183L503.556 131.305L504.004 131.496L504.48 131.063C504.672 130.885 505.028 130.565 505.12 130.473C505.845 130.786 506.556 131.091 506.556 131.091H506.57C506.57 131.233 506.57 131.752 506.57 131.973C506.57 132.172 506.57 132.606 506.57 132.606L507.438 132.982L507.36 128.326L507.025 128.183ZM505.433 130.181L506.57 129.143C506.57 129.143 506.57 130.16 506.57 130.672L505.426 130.181H505.433ZM473.049 117.576L474.528 114.171L473.668 113.801L472.004 117.647L474.457 118.706L474.649 118.266L473.056 117.576H473.049ZM501.053 128.013C501.366 127.956 501.615 127.778 501.786 127.508C501.907 127.316 501.963 127.096 501.949 126.868C501.942 126.655 501.871 126.449 501.757 126.271C501.636 126.079 501.473 125.923 501.288 125.795C501.188 125.724 501.075 125.667 500.968 125.624L499.489 124.984L497.826 128.83L498.643 129.186L499.34 127.572L499.546 127.664L499.966 129.769L500.933 130.181L500.506 128.041C500.506 128.041 500.705 128.084 501.053 128.027V128.013ZM499.951 127.458C499.802 127.394 499.475 127.252 499.475 127.252L500.165 125.652C500.165 125.652 500.371 125.738 500.542 125.816C500.605 125.844 500.669 125.88 500.712 125.901C500.947 126.022 501.103 126.2 501.174 126.456C501.21 126.57 501.21 126.683 501.188 126.804C501.167 126.918 501.132 127.025 501.075 127.124C500.911 127.409 500.662 127.558 500.328 127.544C500.193 127.544 500.065 127.508 499.944 127.451L499.951 127.458ZM487.631 122.666C487.631 122.418 487.56 122.197 487.396 122.005C487.332 121.934 487.261 121.87 487.19 121.799C487.232 121.799 487.268 121.799 487.311 121.799C487.481 121.799 487.638 121.756 487.787 121.671C487.894 121.607 487.986 121.522 488.05 121.415C488.143 121.273 488.199 121.117 488.214 120.946C488.235 120.74 488.199 120.541 488.1 120.356C488 120.164 487.844 120.015 487.659 119.887C487.552 119.816 487.432 119.759 487.311 119.702C486.82 119.489 485.803 119.048 485.803 119.048L484.14 122.894L485.803 123.612C485.967 123.683 486.138 123.74 486.308 123.761C486.429 123.776 486.55 123.783 486.678 123.761C486.863 123.733 487.033 123.655 487.183 123.541C487.296 123.449 487.389 123.335 487.467 123.207C487.567 123.036 487.623 122.858 487.623 122.659L487.631 122.666ZM486.977 119.951C487.183 120.05 487.339 120.192 487.417 120.42C487.46 120.541 487.46 120.662 487.432 120.782C487.41 120.889 487.36 120.996 487.296 121.088C487.176 121.259 487.019 121.358 486.806 121.38C486.65 121.394 486.5 121.365 486.358 121.309C486.301 121.287 486.237 121.259 486.187 121.237C486.088 121.195 485.896 121.109 485.896 121.109L486.486 119.737C486.678 119.823 486.777 119.858 486.969 119.951H486.977ZM486.728 122.858C486.628 123.015 486.493 123.129 486.315 123.193C486.202 123.228 486.081 123.235 485.96 123.214C485.853 123.2 485.754 123.164 485.654 123.114C485.448 123.022 485.334 122.979 485.128 122.887L485.761 121.422C485.981 121.515 486.109 121.572 486.33 121.671C486.465 121.728 486.593 121.806 486.692 121.913C486.813 122.041 486.87 122.183 486.877 122.354C486.877 122.539 486.827 122.702 486.728 122.858ZM514.54 131.489L511.703 130.259L511.533 130.643L512.528 131.077L511.028 134.539L511.874 134.902L513.374 131.44L514.369 131.873L514.54 131.489ZM538.321 142.203L538.478 141.848L535.904 140.732L534.241 144.578L536.814 145.694L536.971 145.339L535.2 144.571L535.812 143.156L537.504 143.888L537.66 143.533L535.968 142.801L536.558 141.436L538.329 142.203H538.321ZM526.584 139.061C526.896 139.004 527.145 138.826 527.316 138.556C527.437 138.364 527.494 138.144 527.479 137.916C527.472 137.703 527.401 137.497 527.287 137.319C527.167 137.127 527.003 136.971 526.818 136.843C526.719 136.772 526.605 136.715 526.498 136.672L525.02 136.032L523.356 139.879L524.174 140.234L524.87 138.62L525.076 138.713L525.496 140.817L526.463 141.229L526.036 139.089C526.036 139.089 526.235 139.132 526.584 139.075V139.061ZM525.482 138.506C525.332 138.443 525.005 138.3 525.005 138.3L525.695 136.701C525.695 136.701 525.901 136.786 526.072 136.864C526.136 136.893 526.2 136.928 526.242 136.95C526.477 137.07 526.633 137.248 526.705 137.504C526.74 137.618 526.74 137.732 526.719 137.852C526.697 137.966 526.662 138.073 526.605 138.172C526.441 138.457 526.193 138.606 525.858 138.592C525.723 138.592 525.595 138.556 525.475 138.499L525.482 138.506Z" fill="#0F1F42"/>
<path d="M453.221 233.263C444.128 233.263 436.763 225.897 436.763 216.804C436.763 207.711 444.128 200.346 453.221 200.346C462.314 200.346 469.68 207.711 469.68 216.804C469.68 225.897 462.314 233.263 453.221 233.263Z" fill="#DE97FF"/>
<path d="M438.206 76.7043C440.481 75.3819 440.438 75.3535 441.938 73.0927C444.37 69.4313 445.479 65.3717 445.841 61.0492C446.239 56.3498 445.443 51.8352 443.865 47.4273C443.716 47.0079 443.538 46.5955 443.324 46.2116C442.038 43.8797 440.708 41.5691 439.059 39.4789C438.184 38.3769 437.082 37.4313 435.987 36.5356C435.376 36.0308 434.75 35.5544 434.167 34.9999C433.215 34.0757 432.177 33.2225 431.096 32.4476C428.992 30.9332 426.66 29.8171 424.221 28.9497C422.714 28.4165 421.193 27.9046 419.65 27.4922C417.673 26.9661 415.676 26.5325 413.678 26.0917C412.633 25.8642 411.573 25.7362 410.5 25.8215C409.647 25.8855 408.95 26.1841 408.58 27.0301C408.403 27.4354 408.182 27.8264 407.969 28.2103C407.699 28.6866 407.564 29.1843 407.613 29.7389C407.777 31.5162 407.692 33.2865 407.578 35.0639C407.521 35.9455 407.613 36.8341 407.663 37.7228C407.72 38.6968 407.876 39.6708 407.876 40.6448C407.876 43.7019 408.666 46.6311 409.334 49.5744C409.547 50.5129 409.981 51.43 410.45 52.276C411.488 54.1387 412.526 56.0156 413.735 57.7646C414.844 59.3642 416.095 60.8856 417.432 62.3075C418.825 63.7934 420.354 65.1656 421.911 66.495C422.991 67.4193 424.157 68.244 425.359 68.9976C427.719 70.4693 429.724 72.3533 431.779 74.1946C432.113 74.4932 432.369 74.8772 432.326 75.3606C432.255 76.1355 432.802 76.4555 433.35 76.7541C433.577 76.8749 433.862 76.9602 434.111 76.946C435.461 76.882 435.575 77.4792 435.639 78.5741C435.739 80.2591 435.817 81.9511 435.938 83.6361C436.037 85.0509 436.286 86.4443 436.3 87.8805C436.322 91.4352 436.378 94.9829 435.639 98.495C435.547 98.9286 435.511 99.3765 435.483 99.8173C435.341 101.95 434.942 104.048 434.573 106.152C434.374 107.289 434.203 108.441 434.167 109.593C434.089 112.095 433.677 114.541 433.144 116.98C432.625 119.326 432.056 121.658 431.58 124.004C431.189 125.938 430.556 127.779 429.71 129.549C428.103 132.919 426.617 136.353 424.726 139.588C424.591 139.815 424.463 140.057 424.285 140.242C424.186 140.349 423.972 140.413 423.823 140.391C423.674 140.37 423.432 140.249 423.411 140.135C423.162 138.827 422.863 137.526 422.735 136.204C422.536 134.135 421.811 132.222 421.164 130.289C420.944 129.628 420.475 129.052 420.126 128.433C419.906 128.049 419.664 127.672 419.472 127.274C419.173 126.642 419.486 125.739 420.091 125.419C420.247 125.34 420.411 125.262 420.574 125.213C422.252 124.694 423.525 123.606 424.584 122.255C426.141 120.279 427.435 118.174 427.769 115.6C427.897 114.634 428.174 113.688 428.416 112.742C429.042 110.297 429.177 107.83 428.736 105.341C428.608 104.645 428.466 103.941 428.238 103.273C427.456 101.005 426.688 98.7225 425.807 96.4901C424.285 92.6438 422.067 89.2384 419.181 86.2595C416.23 83.2166 412.803 80.8634 408.872 79.2779C408.545 79.1429 408.211 79.0149 407.862 78.9438C407.329 78.8372 406.803 78.8514 406.319 79.1571C405.402 79.733 404.62 80.4297 404.073 81.3895C403.056 83.174 402.175 85.0082 401.585 86.9847C400.867 89.3663 400.084 91.7338 399.366 94.1155C398.826 95.9071 398.392 97.72 398.407 99.6112C398.414 100.322 398.392 101.033 398.57 101.73C398.634 101.986 398.719 102.256 398.712 102.519C398.67 105.533 399.864 108.256 400.731 111.043C401.421 113.261 402.63 115.252 403.717 117.285C403.924 117.669 404.229 118.011 404.499 118.359C405.374 119.475 406.298 120.563 407.123 121.722C407.649 122.461 408.26 123.087 408.964 123.634C411.204 125.39 413.457 127.139 416.088 128.291C416.856 128.625 417.417 129.208 417.801 129.919C419.472 132.983 420.837 136.161 421.221 139.673C421.463 141.899 421.42 144.117 420.645 146.257C420.467 146.754 420.283 147.28 419.97 147.693C418.889 149.108 417.773 150.494 416.621 151.845C415.932 152.655 415.15 153.38 414.41 154.148C412.874 155.755 411.403 157.426 409.682 158.848C409.341 159.132 408.971 159.409 408.708 159.758C407.535 161.35 405.864 162.431 404.578 163.91C404.116 164.436 403.54 164.855 403.028 165.339C402.985 165.374 403.028 165.495 403.028 165.58C403.028 165.808 403.149 165.929 403.376 165.872C403.796 165.758 404.272 165.701 404.62 165.459C406.447 164.201 408.374 163.071 409.981 161.507C410.486 161.009 411.026 160.54 411.581 160.099C413.038 158.926 414.36 157.618 415.647 156.253C418.327 153.395 420.873 150.437 423.254 147.33C424.292 145.979 425.025 144.451 425.814 142.958C427.769 139.261 429.639 135.521 431.551 131.803C432.248 130.452 432.824 129.059 433.208 127.594C433.84 125.191 434.487 122.781 435.134 120.378C435.739 118.139 436.208 115.878 436.506 113.581C436.62 112.7 436.784 111.825 436.933 110.944C437.082 110.034 437.495 109.266 438.149 108.619C438.59 108.185 439.037 107.744 439.464 107.297C439.827 106.913 440.253 106.557 440.509 106.102C441.021 105.178 441.867 104.936 442.77 105C444.469 105.121 446.119 105.484 447.412 106.721C448.031 107.311 448.735 107.581 449.581 107.538C451.358 107.46 453.136 107.481 454.906 107.325C455.958 107.233 456.982 106.87 458.02 106.628C460.295 106.095 462.35 105 464.44 104.033C465.563 103.514 466.516 102.668 467.433 101.822C469.075 100.315 470.575 98.6727 471.997 96.9664C473.881 94.6914 475.275 92.1035 476.476 89.4161C476.832 88.6198 476.967 87.7098 477.18 86.8496C477.784 84.4181 478.047 81.9582 477.905 79.4486C477.82 77.9414 477.848 76.427 477.799 74.9127C477.784 74.5643 477.699 74.216 477.607 73.8747C477.514 73.5263 476.889 73.1567 476.54 73.2135C476.362 73.242 476.185 73.2775 476.028 73.3415C475.104 73.7254 474.343 73.569 473.618 72.8296C472.616 71.813 471.372 71.4859 469.95 71.8272C469.26 71.9907 468.556 72.1116 467.852 72.1827C464.646 72.5239 461.589 73.4837 458.553 74.4932C456.591 75.1473 454.849 76.1924 453.228 77.4792C451.138 79.1429 449.176 80.9487 447.27 82.8185C445.6 84.4608 444.327 86.3519 443.531 88.5843C442.933 90.255 442.13 91.8547 441.533 93.5325C440.587 96.2057 439.528 98.8647 439.62 101.787C439.635 102.313 439.556 102.853 439.464 103.379C439.372 103.92 439.073 104.367 438.661 104.73C438.54 104.837 438.327 104.943 438.191 104.915C438.056 104.886 437.893 104.687 437.864 104.545C437.808 104.204 437.793 103.841 437.822 103.493C437.992 101.545 438.206 99.5969 438.355 97.6489C438.526 95.4308 438.696 93.2197 438.789 91.0015C438.909 88.2288 438.511 85.4988 438.035 82.7829C437.864 81.8018 437.864 80.8349 437.928 79.8609C437.992 78.8087 438.099 77.7636 438.184 76.7114L438.206 76.7043Z" fill="url(#paint12_linear_2049_7954)"/>
<path d="M198.132 618C198.132 618 157.579 624.529 178.986 563.415C190.119 531.629 197.62 500.063 218.173 484.905C278.234 440.613 324.382 406.516 336.44 391.443C336.44 391.443 351.015 397.977 348 418.076C344.986 438.174 310.313 469.833 310.313 469.833C310.313 469.833 291.721 488.929 319.861 489.931C348 490.934 397.752 484.4 397.752 484.4C397.752 484.4 433.435 463.292 447.505 457.768C447.505 457.768 484.695 428.619 504.288 433.645C504.288 433.645 508.782 434.648 511.455 437.769L514.348 443.336C514.348 443.336 475.132 471.411 471.35 474.973C467.561 478.535 459.541 482.552 455.979 485.893C452.418 489.235 411.197 520.424 411.197 520.424C411.197 520.424 401.613 532.013 378.443 531.344C355.273 530.676 293.555 547.831 280.858 559.861C268.16 571.89 214.499 570.523 251.632 653L207.132 630L198.132 618Z" fill="#F9CCA7"/>
<mask id="mask0_2049_7954" style="mask-type:alpha" maskUnits="userSpaceOnUse" x="135" y="524" width="169" height="169">
<path d="M279.074 548.846C268.872 538.637 251.262 539.696 239.73 551.213C239.133 551.811 238.55 552.486 237.989 553.19C237.989 552.28 237.946 551.398 237.846 550.552C236.026 534.357 222.931 522.534 208.591 524.147C194.251 525.754 184.098 540.186 185.911 556.382C186.004 557.221 186.167 558.095 186.373 558.977C185.663 558.415 184.944 557.896 184.226 557.441C170.434 548.768 153.023 551.633 145.337 563.847C137.652 576.061 142.607 592.996 156.4 601.677C157.118 602.125 157.9 602.544 158.717 602.935C157.836 603.141 156.983 603.376 156.179 603.66C140.794 609.035 132.185 624.434 136.941 638.056C141.704 651.678 158.028 658.368 173.413 652.993C174.216 652.716 175.027 652.36 175.837 651.962C175.446 652.78 175.098 653.597 174.821 654.401C169.432 669.779 176.1 686.116 189.722 690.887C203.344 695.657 218.75 687.062 224.139 671.684C224.416 670.888 224.651 670.028 224.85 669.146C225.248 669.964 225.668 670.738 226.123 671.464C234.789 685.263 251.717 690.233 263.938 682.562C276.16 674.89 279.046 657.479 270.38 643.68C269.932 642.962 269.405 642.251 268.837 641.54C269.725 641.739 270.593 641.895 271.439 641.988C287.634 643.822 302.074 633.677 303.695 619.344C305.316 605.004 293.507 591.894 277.311 590.06C276.465 589.967 275.584 589.932 274.681 589.932C275.385 589.363 276.053 588.78 276.657 588.176C288.182 576.658 289.262 559.048 279.06 548.839L279.074 548.846Z" fill="url(#paint13_linear_2049_7954)"/>
</mask>
<g mask="url(#mask0_2049_7954)">
<path d="M143.552 693C143.552 693 157.579 624.529 178.986 563.415C190.119 531.629 197.62 500.063 218.173 484.905C278.234 440.613 324.382 406.516 336.44 391.443C336.44 391.443 351.014 397.977 348 418.076C344.986 438.174 310.313 469.833 310.313 469.833C310.313 469.833 291.721 488.929 319.861 489.931C348 490.934 397.752 484.4 397.752 484.4C397.752 484.4 433.435 463.292 447.505 457.768C447.505 457.768 484.695 428.619 504.288 433.645C504.288 433.645 508.782 434.648 511.455 437.769L514.348 443.336C514.348 443.336 475.132 471.411 471.35 474.973C467.561 478.535 459.541 482.552 455.979 485.893C452.417 489.235 411.197 520.424 411.197 520.424C411.197 520.424 401.613 532.013 378.443 531.344C355.273 530.676 293.555 547.831 280.858 559.861C268.16 571.89 237.269 610.509 274.402 692.986H143.552V693Z" fill="#F9CCA7"/>
</g>
<path d="M492.65 459.005C492.65 459.005 486.636 453.979 499.696 445.646C499.696 445.646 515.187 433.553 518.977 440.051L492.643 459.005H492.65Z" fill="#F49C95"/>
<path d="M311.344 414.513L320.977 422.327C320.977 422.327 333.568 412.508 339.86 402.79C342.476 398.751 342 393.448 338.779 389.872L337.4 388.336L311.344 414.513Z" fill="#F49C95"/>
<path d="M463.153 479.424C462.684 477.426 462.4 474.895 464.085 473.708C464.987 473.068 466.182 473.075 467.291 473.103C468.137 473.125 469.075 473.182 469.687 473.772" stroke="#AB8360" stroke-width="1.04" stroke-miterlimit="10"/>
<path d="M182 359.94C187.262 365.841 187.539 374.266 182.612 378.659L139.919 416.745C134.992 421.139 126.653 419.909 121.392 414.008L4.78872 305.389C-0.806465 300.362 -1.07663 291.354 1.80983 288.774C17.0526 262.646 40.059 241.794 67.5586 229.182L69.7341 228.186C71.2769 226.807 78.813 228.762 84.074 234.663L182 359.94Z" fill="url(#paint14_linear_2049_7954)"/>
<g style="mix-blend-mode:screen">
<g style="mix-blend-mode:screen">
<path d="M168.755 390.525C169.63 388.783 170.063 386.757 169.992 384.582C169.871 380.949 168.371 377.337 165.769 374.422L67.8571 249.16C63.7762 244.581 58.1028 242.121 54.8325 242.121C54.7756 242.121 54.7187 242.121 54.6689 242.121L69.9757 228.464C70.2103 228.25 70.7009 228.137 71.3408 228.137C73.822 228.137 79.3887 229.978 83.7895 234.912L181.702 360.175C184.204 362.983 185.64 366.424 185.747 369.886C185.861 373.32 184.652 376.342 182.356 378.389L168.748 390.532L168.755 390.525Z" fill="#FFCE4E"/>
</g>
<g style="mix-blend-mode:screen">
<path d="M71.348 228.507C73.9359 228.507 79.4173 230.562 83.5053 235.14L181.417 360.403L181.432 360.424L181.446 360.445C186.451 366.055 186.75 373.982 182.114 378.12L169.715 389.182C170.192 387.767 170.412 386.217 170.355 384.582C170.234 380.871 168.706 377.188 166.054 374.202L68.1416 248.94L68.1274 248.918L68.1132 248.897C64.274 244.589 59.013 242.129 55.5933 241.788L70.2176 228.742C70.3456 228.628 70.7082 228.507 71.3409 228.507H71.348ZM71.3409 227.768C70.6015 227.768 70.0399 227.91 69.727 228.187L53.2188 242.911C53.5316 242.634 54.0932 242.491 54.8255 242.491C57.7191 242.491 63.3569 244.688 67.5586 249.388L165.485 374.664C170.746 380.565 171.023 388.99 166.104 393.384L182.612 378.66C187.539 374.266 187.262 365.841 182 359.941L84.074 234.664C79.8794 229.964 74.2416 227.768 71.348 227.768H71.3409Z" fill="black"/>
</g>
</g>
<g style="mix-blend-mode:multiply">
<path d="M136.251 400.756L19.6476 292.136C14.0524 287.11 13.7823 278.102 16.6687 275.521L1.80983 288.774C-1.07663 291.354 -0.806464 300.355 4.78872 305.389L121.392 414.008C126.653 419.909 134.992 421.139 139.919 416.745L154.778 403.493C149.851 407.886 141.512 406.656 136.251 400.756Z" fill="#A37624"/>
</g>
<path d="M127.869 408.227L11.2655 299.608C5.6703 294.581 5.40014 285.574 8.2866 283L1.80983 288.78C-1.07663 291.361 -0.806465 300.361 4.78872 305.395L121.392 414.014C126.653 419.915 134.992 421.145 139.919 416.751L146.396 410.971C141.469 415.365 133.137 414.128 127.869 408.234V408.227Z" fill="#A37624"/>
<path d="M195.615 408.256L167.348 433.473C164.142 436.331 161.17 435.642 159.378 433.63L142.365 414.562L179.086 381.809L196.22 401.018C197.883 402.881 198.673 405.526 195.608 408.256H195.615Z" fill="white"/>
<g style="mix-blend-mode:multiply" opacity="0.7">
<path d="M176.455 416.851C173.249 419.709 170.277 419.012 168.486 417.007L155.696 402.667L142.365 414.562L159.378 433.629C161.17 435.634 164.142 436.331 167.348 433.473L195.615 408.256C198.68 405.526 197.891 402.881 196.227 401.018L195.331 400.016L176.462 416.851H176.455Z" fill="#CCCCCC"/>
</g>
<path d="M158.61 432.769L159.378 433.629C161.17 435.634 164.142 436.331 167.348 433.473L195.615 408.256C198.68 405.526 197.89 402.881 196.227 401.018L195.331 400.016L158.61 432.769Z" fill="#CCCCCC"/>
<path d="M175.624 417.591C173.242 414.918 173.505 410.794 176.221 408.37C178.937 405.945 183.067 406.152 185.449 408.825L175.617 417.598L175.624 417.591Z" fill="#CCCCCC"/>
<path d="M1.80957 288.782L69.7339 228.188" stroke="#A37624" stroke-width="1.04" stroke-miterlimit="10"/>
<path d="M389.442 280.087H396.403V317.661H389.442V280.087ZM309.816 291.057C307.136 285.533 302.237 281.758 295.995 281.758C287.108 281.758 280.418 289.422 280.418 298.87C280.418 308.319 287.108 315.983 295.995 315.983C303.929 315.983 310.008 309.876 311.33 301.842H290.037V298.493H319.705V298.863C319.705 309.648 309.084 318.393 295.988 318.393C282.892 318.393 272.271 309.648 272.271 298.863C272.271 288.078 282.892 279.326 295.988 279.326C305.714 279.326 314.074 284.146 317.75 291.05H309.809L309.816 291.057ZM324.824 280.428H331.784V318.002H324.824V280.428ZM374.434 291.057C371.754 285.533 366.855 281.758 360.613 281.758C351.726 281.758 345.029 289.422 345.029 298.87C345.029 308.319 351.719 315.983 360.613 315.983C368.548 315.983 374.626 309.876 375.949 301.842H354.656V298.493H384.331V298.863C384.331 309.648 373.709 318.393 360.613 318.393C347.518 318.393 336.896 309.648 336.896 298.863C336.896 288.078 347.518 279.326 360.613 279.326C370.339 279.326 378.7 284.146 382.376 291.05H374.434V291.057ZM396.772 329.633C396.651 329.441 396.488 329.285 396.31 329.15C396.033 328.936 395.571 328.752 395.251 328.616C394.981 328.503 394.711 328.396 394.447 328.282C394.256 328.197 394.071 328.09 393.907 327.955C393.801 327.863 393.715 327.756 393.673 327.614C393.616 327.408 393.651 327.209 393.729 327.017C393.843 326.747 394.056 326.583 394.327 326.484C394.497 326.42 394.675 326.398 394.86 326.405C395.692 326.42 396.189 326.995 396.289 327.259H396.396L396.687 326.469C396.417 326.157 395.763 325.851 394.988 325.801C394.689 325.78 394.192 325.787 393.9 325.865C393.516 325.965 393.175 326.142 392.898 326.427C392.777 326.548 392.677 326.69 392.599 326.839C392.521 326.988 392.471 327.145 392.443 327.308C392.4 327.55 392.393 327.799 392.457 328.041C392.542 328.375 392.748 328.588 393.011 328.808C393.353 329.093 393.936 329.313 394.334 329.477C394.554 329.562 394.775 329.654 394.988 329.754C395.187 329.846 395.372 329.953 395.535 330.102C395.685 330.237 395.784 330.415 395.82 330.607C395.862 330.849 395.82 331.083 395.72 331.304C395.621 331.51 395.464 331.674 395.265 331.794C395.073 331.908 394.853 331.979 394.625 331.993C394.248 332.015 393.829 331.915 393.587 331.78C393.161 331.538 392.876 331.226 392.72 330.6H392.606L392.187 331.517C392.357 331.766 392.94 332.164 393.282 332.321C393.509 332.427 393.751 332.498 393.993 332.548C394.227 332.598 394.462 332.598 394.696 332.591C394.924 332.584 395.336 332.548 395.557 332.484C395.933 332.37 396.268 332.185 396.538 331.901C396.971 331.439 397.249 330.451 396.758 329.647L396.772 329.633ZM376.624 325.858H375.159V332.512H376.624V325.858ZM310.513 325.758C308.444 325.758 306.787 327.266 306.787 329.185C306.787 331.112 308.429 332.619 310.513 332.612C312.603 332.612 314.231 331.098 314.224 329.185C314.224 327.259 312.567 325.766 310.505 325.758H310.513ZM312.631 329.953C312.532 330.387 312.361 330.785 312.091 331.14C311.849 331.453 311.558 331.695 311.188 331.837C310.889 331.958 310.555 331.993 310.235 331.937C309.908 331.88 309.624 331.745 309.361 331.538C309.098 331.325 308.892 331.069 308.728 330.771C308.621 330.572 308.536 330.365 308.472 330.145C308.373 329.789 308.323 329.427 308.337 329.057C308.337 328.801 308.373 328.545 308.437 328.297C308.557 327.799 308.771 327.351 309.126 326.974C309.347 326.74 309.595 326.597 309.901 326.491C310.129 326.405 310.37 326.37 310.619 326.377C311.088 326.398 311.487 326.59 311.828 326.91C312.141 327.202 312.354 327.514 312.503 327.913C312.581 328.119 312.638 328.325 312.667 328.545C312.695 328.744 312.709 328.951 312.724 329.071C312.717 329.427 312.688 329.69 312.631 329.953ZM354.734 325.758C352.665 325.758 351.008 327.266 351.008 329.185C351.008 331.112 352.651 332.619 354.734 332.612C356.824 332.612 358.452 331.098 358.445 329.185C358.445 327.259 356.788 325.766 354.727 325.758H354.734ZM356.852 329.953C356.753 330.387 356.582 330.785 356.312 331.14C356.077 331.453 355.779 331.695 355.409 331.837C355.111 331.958 354.776 331.993 354.456 331.937C354.129 331.88 353.845 331.745 353.582 331.538C353.319 331.325 353.113 331.069 352.949 330.771C352.843 330.572 352.757 330.365 352.693 330.145C352.594 329.789 352.544 329.427 352.558 329.057C352.558 328.801 352.594 328.545 352.658 328.297C352.779 327.799 352.999 327.351 353.347 326.974C353.568 326.74 353.824 326.597 354.122 326.491C354.35 326.405 354.592 326.37 354.84 326.377C355.31 326.398 355.708 326.59 356.049 326.91C356.362 327.202 356.575 327.514 356.732 327.913C356.81 328.119 356.867 328.325 356.895 328.545C356.923 328.744 356.938 328.951 356.952 329.071C356.945 329.427 356.916 329.69 356.859 329.953H356.852ZM287.122 325.773L284.03 332.512H284.797L285.217 331.574C285.388 331.197 285.693 330.5 285.779 330.309C287.03 330.309 288.267 330.309 288.267 330.309H288.295C288.381 330.508 288.708 331.261 288.843 331.581C288.971 331.873 289.241 332.505 289.241 332.505H290.741L287.684 325.766H287.108L287.122 325.773ZM286.056 329.69L287.058 327.458L288.032 329.69H286.056ZM332.936 325.773L329.843 332.512H330.611L331.031 331.574C331.201 331.197 331.507 330.5 331.592 330.309C332.844 330.309 334.081 330.309 334.081 330.309H334.109C334.194 330.508 334.521 331.261 334.656 331.581C334.784 331.873 335.055 332.505 335.055 332.505H336.555L333.498 325.766H332.922L332.936 325.773ZM331.87 329.69L332.872 327.458C332.872 327.458 333.519 328.943 333.846 329.69H331.87ZM276.686 331.752V325.851H275.2V332.512H279.444V331.752H276.686ZM324.113 329.292C324.54 329.015 324.781 328.602 324.86 328.097C324.909 327.735 324.86 327.386 324.696 327.059C324.547 326.747 324.326 326.498 324.042 326.306C323.743 326.1 323.409 325.972 323.054 325.908C322.862 325.872 322.67 325.858 322.478 325.858H319.918V332.52H321.333V329.718H321.689L323.63 332.52H325.307L323.331 329.669C323.331 329.669 323.651 329.605 324.12 329.299L324.113 329.292ZM322.158 329.178C321.902 329.178 321.333 329.178 321.333 329.178V326.412C321.333 326.412 321.682 326.412 321.987 326.412C322.101 326.412 322.208 326.42 322.293 326.427C322.705 326.455 323.054 326.619 323.324 326.946C323.445 327.088 323.516 327.259 323.566 327.443C323.608 327.621 323.615 327.806 323.601 327.984C323.544 328.51 323.281 328.88 322.784 329.071C322.585 329.15 322.378 329.178 322.172 329.178H322.158ZM301.164 329.967C301.014 329.605 300.765 329.327 300.41 329.15C300.275 329.079 300.133 329.036 299.983 328.979C300.04 328.958 300.104 328.936 300.161 328.908C300.403 328.794 300.616 328.638 300.773 328.417C300.886 328.261 300.965 328.076 300.993 327.884C301.036 327.621 301.021 327.358 300.936 327.095C300.837 326.775 300.652 326.512 300.396 326.306C300.126 326.085 299.806 325.965 299.464 325.901C299.258 325.865 299.052 325.851 298.846 325.851C298 325.851 296.244 325.851 296.244 325.851V332.512H299.123C299.408 332.512 299.685 332.484 299.955 332.413C300.14 332.363 300.325 332.285 300.488 332.178C300.744 332.015 300.943 331.801 301.085 331.531C301.192 331.318 301.256 331.098 301.284 330.863C301.32 330.557 301.284 330.259 301.171 329.967H301.164ZM298.49 326.42C298.853 326.434 299.173 326.548 299.422 326.825C299.557 326.974 299.635 327.152 299.671 327.351C299.706 327.529 299.706 327.706 299.671 327.877C299.607 328.197 299.429 328.446 299.144 328.602C298.931 328.723 298.689 328.773 298.448 328.78C298.341 328.78 298.234 328.78 298.156 328.78C297.986 328.78 297.659 328.78 297.659 328.78V326.412C297.993 326.412 298.163 326.412 298.498 326.42H298.49ZM299.962 330.82C299.912 331.112 299.799 331.368 299.571 331.567C299.429 331.695 299.258 331.78 299.073 331.823C298.903 331.865 298.739 331.88 298.561 331.88C298.206 331.88 298.007 331.88 297.651 331.88V329.335C298.028 329.335 298.256 329.335 298.633 329.335C298.867 329.335 299.095 329.363 299.315 329.455C299.564 329.562 299.749 329.74 299.855 329.981C299.976 330.245 300.005 330.522 299.962 330.813V330.82ZM345.968 325.851H341.055V326.519H342.783V332.512H344.24V326.519H345.968V325.851ZM387.409 326.469V325.851H382.951V332.512H387.409V331.894H384.345V329.448H387.281V328.83H384.345V326.462H387.409V326.469ZM368.306 329.292C368.732 329.015 368.981 328.602 369.052 328.097C369.102 327.735 369.052 327.386 368.889 327.059C368.74 326.747 368.519 326.498 368.235 326.306C367.936 326.1 367.602 325.972 367.247 325.908C367.055 325.872 366.863 325.858 366.664 325.858H364.104V332.52H365.519V329.718H365.874L367.808 332.52H369.486L367.51 329.669C367.51 329.669 367.829 329.605 368.299 329.299L368.306 329.292ZM366.351 329.178C366.095 329.178 365.526 329.178 365.526 329.178V326.412C365.526 326.412 365.874 326.412 366.18 326.412C366.294 326.412 366.4 326.42 366.486 326.427C366.898 326.455 367.246 326.619 367.517 326.946C367.638 327.088 367.709 327.259 367.751 327.443C367.794 327.621 367.801 327.806 367.787 327.984C367.73 328.51 367.467 328.88 366.969 329.071C366.77 329.15 366.564 329.178 366.358 329.178H366.351Z" fill="white"/>
<path d="M127.059 306.242L130.414 303.42L145.629 321.514L142.273 324.336L127.059 306.242ZM93.1533 343.774C89.627 342.202 85.7381 342.366 82.7307 344.89C78.4508 348.487 78.3299 354.893 82.1549 359.443C85.9798 363.993 92.3072 364.974 96.5872 361.377C100.405 358.163 100.867 352.76 98.2508 348.352L87.9989 356.976L86.641 355.362L100.931 343.347L101.08 343.525C105.453 348.722 103.874 357.232 97.5683 362.536C91.2622 367.839 82.6028 367.932 78.2375 362.735C73.8652 357.538 75.4435 349.027 81.7496 343.724C86.4348 339.785 92.4139 338.719 96.9782 340.56L93.1533 343.774ZM96.0753 332.576L99.431 329.761L114.645 347.854L111.29 350.67L96.0753 332.576ZM124.272 317.603C120.745 316.025 116.856 316.196 113.849 318.72C109.569 322.317 109.448 328.723 113.273 333.273C117.098 337.823 123.426 338.804 127.706 335.207C131.523 331.993 131.985 326.59 129.369 322.189L119.117 330.813L117.759 329.199L132.049 317.184L132.128 317.276L132.206 317.369C136.578 322.566 135 331.076 128.694 336.38C122.388 341.683 113.728 341.776 109.356 336.579C104.984 331.382 106.562 322.872 112.868 317.568C117.553 313.629 123.532 312.563 128.097 314.404L124.272 317.618V317.603ZM150.648 327.137C150.513 327.095 150.371 327.087 150.228 327.095C150.008 327.109 149.709 327.201 149.503 327.265C149.326 327.322 149.155 327.379 148.984 327.429C148.856 327.464 148.728 327.493 148.593 327.486C148.501 327.486 148.416 327.464 148.344 327.415C148.231 327.336 148.167 327.23 148.131 327.102C148.081 326.924 148.11 326.76 148.202 326.604C148.259 326.505 148.337 326.419 148.43 326.348C148.835 326.014 149.311 326.092 149.468 326.177L149.518 326.135L149.34 325.637C149.084 325.594 148.643 325.715 148.252 326C148.096 326.113 147.861 326.313 147.754 326.469C147.612 326.675 147.52 326.896 147.498 327.144C147.491 327.251 147.498 327.358 147.52 327.464C147.541 327.564 147.584 327.663 147.633 327.756C147.712 327.891 147.811 328.012 147.939 328.104C148.117 328.232 148.302 328.253 148.522 328.246C148.799 328.246 149.169 328.118 149.432 328.033C149.574 327.99 149.717 327.941 149.859 327.898C149.994 327.862 150.129 327.841 150.264 327.841C150.392 327.841 150.506 327.891 150.605 327.969C150.726 328.069 150.797 328.197 150.84 328.346C150.875 328.488 150.868 328.63 150.819 328.765C150.769 328.9 150.698 329.021 150.591 329.121C150.42 329.284 150.179 329.405 150.008 329.441C149.702 329.498 149.439 329.462 149.112 329.227L149.055 329.277L149.226 329.889C149.404 329.938 149.852 329.889 150.079 329.832C150.236 329.789 150.378 329.725 150.513 329.654C150.641 329.583 150.762 329.49 150.868 329.391C150.975 329.291 151.16 329.114 151.238 328.993C151.373 328.787 151.458 328.559 151.473 328.31C151.494 327.912 151.231 327.322 150.669 327.13L150.648 327.137ZM139.415 333.479L138.711 334.069L141.406 337.275L142.109 336.685L139.415 333.479ZM107.529 360.204C106.533 361.043 106.349 362.436 107.123 363.36C107.906 364.284 109.306 364.348 110.309 363.502C111.311 362.656 111.482 361.27 110.707 360.346C109.925 359.422 108.524 359.372 107.529 360.204ZM110.245 361.37C110.373 361.618 110.451 361.881 110.465 362.159C110.479 362.408 110.429 362.642 110.316 362.863C110.216 363.04 110.074 363.19 109.896 363.296C109.718 363.403 109.519 363.453 109.313 363.46C109.1 363.46 108.894 363.424 108.702 363.346C108.567 363.296 108.446 363.225 108.325 363.147C108.133 363.019 107.962 362.863 107.82 362.678C107.721 362.55 107.628 362.415 107.557 362.272C107.415 361.988 107.337 361.682 107.351 361.355C107.358 361.156 107.429 360.986 107.529 360.808C107.607 360.673 107.706 360.559 107.827 360.467C108.062 360.289 108.332 360.218 108.624 360.232C108.894 360.246 109.121 360.31 109.356 360.438C109.477 360.502 109.59 360.58 109.69 360.673C109.782 360.758 109.875 360.851 109.932 360.9C110.067 361.071 110.166 361.213 110.245 361.362V361.37ZM128.822 342.295C127.826 343.134 127.642 344.527 128.416 345.451C129.199 346.376 130.599 346.44 131.602 345.594C132.604 344.748 132.782 343.361 132 342.437C131.218 341.506 129.817 341.463 128.822 342.295ZM131.538 343.461C131.666 343.71 131.744 343.973 131.758 344.25C131.772 344.499 131.722 344.733 131.609 344.954C131.509 345.131 131.367 345.281 131.189 345.387C131.011 345.494 130.812 345.544 130.606 345.551C130.393 345.551 130.187 345.515 129.995 345.437C129.86 345.387 129.739 345.316 129.618 345.238C129.426 345.11 129.255 344.954 129.113 344.769C129.014 344.641 128.921 344.506 128.85 344.364C128.708 344.072 128.63 343.774 128.651 343.446C128.658 343.247 128.729 343.077 128.829 342.899C128.907 342.764 129.007 342.65 129.127 342.558C129.362 342.38 129.632 342.309 129.924 342.323C130.194 342.337 130.421 342.401 130.656 342.529C130.777 342.593 130.891 342.672 130.99 342.764C131.083 342.849 131.175 342.942 131.232 342.991C131.367 343.162 131.466 343.304 131.545 343.454L131.538 343.461ZM96.2601 369.688L97.4972 374.181L97.8669 373.868L97.6891 373.25C97.6181 373.001 97.483 372.539 97.4474 372.411C98.0517 371.906 98.6418 371.401 98.6418 371.401L98.656 371.387C98.7769 371.444 99.239 371.678 99.4381 371.778C99.6158 371.863 100.007 372.062 100.007 372.062L100.732 371.451L96.5303 369.446L96.253 369.681L96.2601 369.688ZM97.3337 372.005C97.3337 372.005 96.9142 370.527 96.9142 370.52L98.2863 371.202L97.3337 372.005ZM118.328 351.132L119.572 355.625L119.942 355.312L119.764 354.694C119.693 354.445 119.558 353.983 119.522 353.855C120.127 353.35 120.717 352.845 120.717 352.845L120.731 352.831C120.852 352.888 121.314 353.123 121.513 353.222C121.691 353.307 122.082 353.506 122.082 353.506L122.807 352.895L118.605 350.89L118.328 351.125V351.132ZM119.402 353.45C119.402 353.45 118.982 351.971 118.982 351.964C118.982 351.964 119.892 352.419 120.354 352.646L119.402 353.45ZM93.6581 376.79L91.2693 373.946L90.5512 374.551L93.2528 377.757L95.3004 376.037L94.9946 375.667L93.6652 376.783L93.6581 376.79ZM115.506 356.4C115.598 356.094 115.548 355.796 115.378 355.518C115.257 355.326 115.086 355.177 114.88 355.085C114.681 354.992 114.475 354.964 114.261 354.985C114.034 355.007 113.821 355.078 113.622 355.191C113.515 355.248 113.415 355.326 113.323 355.405L112.086 356.443L114.788 359.649L115.47 359.08L114.34 357.73L114.51 357.587L116.579 358.156L117.382 357.474L115.278 356.905C115.278 356.905 115.406 356.741 115.513 356.407L115.506 356.4ZM114.517 357.139C114.396 357.246 114.119 357.474 114.119 357.474L112.996 356.137C112.996 356.137 113.167 355.995 113.309 355.874C113.366 355.831 113.423 355.789 113.458 355.76C113.671 355.604 113.906 355.547 114.162 355.59C114.276 355.611 114.382 355.661 114.475 355.732C114.567 355.803 114.645 355.888 114.709 355.981C114.894 356.258 114.916 356.542 114.752 356.834C114.688 356.947 114.603 357.047 114.503 357.132L114.517 357.139ZM104.728 366.019C104.507 365.905 104.273 365.87 104.031 365.934C103.938 365.955 103.846 365.991 103.754 366.026C103.775 365.991 103.796 365.955 103.81 365.92C103.882 365.763 103.917 365.607 103.903 365.436C103.896 365.315 103.853 365.194 103.796 365.088C103.711 364.939 103.597 364.818 103.448 364.732C103.27 364.619 103.078 364.569 102.865 364.569C102.644 364.569 102.445 364.647 102.253 364.754C102.14 364.818 102.033 364.896 101.934 364.981C101.528 365.322 100.675 366.033 100.675 366.033L103.377 369.24L104.763 368.074C104.898 367.96 105.026 367.832 105.126 367.69C105.197 367.59 105.254 367.477 105.289 367.363C105.346 367.178 105.353 367 105.318 366.815C105.282 366.666 105.225 366.538 105.14 366.41C105.033 366.247 104.898 366.119 104.72 366.026L104.728 366.019ZM102.005 365.394C102.182 365.251 102.389 365.173 102.616 365.209C102.744 365.23 102.851 365.28 102.95 365.358C103.035 365.429 103.114 365.514 103.163 365.614C103.263 365.792 103.277 365.984 103.206 366.176C103.149 366.325 103.057 366.446 102.943 366.545C102.893 366.588 102.844 366.631 102.801 366.666C102.716 366.737 102.559 366.865 102.559 366.865L101.599 365.721C101.763 365.586 101.841 365.514 102.005 365.386V365.394ZM104.493 366.915C104.585 367.071 104.635 367.242 104.607 367.434C104.592 367.555 104.543 367.661 104.472 367.761C104.408 367.846 104.329 367.925 104.251 367.996C104.081 368.138 103.981 368.223 103.81 368.365L102.78 367.142C102.964 366.986 103.071 366.901 103.249 366.744C103.363 366.652 103.483 366.567 103.626 366.524C103.789 366.474 103.953 366.488 104.102 366.56C104.265 366.638 104.393 366.759 104.486 366.915H104.493ZM124.641 345.892L122.274 347.883L122.544 348.203L123.376 347.506L125.8 350.392L126.504 349.802L124.08 346.916L124.911 346.219L124.641 345.899V345.892ZM144.854 329.405L144.605 329.107L142.458 330.912L145.152 334.119L147.299 332.313L147.05 332.014L145.572 333.259L144.583 332.078L145.998 330.891L145.749 330.592L144.335 331.78L143.375 330.642L144.854 329.398V329.405ZM136.799 338.498C136.891 338.193 136.841 337.894 136.671 337.617C136.55 337.425 136.379 337.275 136.173 337.183C135.974 337.091 135.768 337.062 135.554 337.083C135.327 337.105 135.114 337.176 134.915 337.29C134.808 337.347 134.708 337.425 134.616 337.503L133.379 338.541L136.081 341.747L136.763 341.171L135.633 339.821L135.803 339.678L137.872 340.247L138.675 339.565L136.571 338.996C136.571 338.996 136.699 338.832 136.806 338.498H136.799ZM135.81 339.238C135.689 339.344 135.412 339.572 135.412 339.572L134.289 338.235C134.289 338.235 134.46 338.093 134.602 337.972C134.659 337.929 134.715 337.887 134.751 337.858C134.964 337.702 135.199 337.645 135.455 337.688C135.569 337.709 135.675 337.759 135.768 337.83C135.86 337.901 135.938 337.986 136.002 338.079C136.187 338.356 136.208 338.64 136.045 338.932C135.981 339.046 135.896 339.145 135.796 339.231L135.81 339.238Z" fill="black"/>
<path d="M173.696 304.906L175.338 310.032C179.064 321.642 188.271 331.439 200.798 337.112C188.271 342.786 179.064 352.583 175.338 364.192L173.696 369.318L172.054 364.192C168.329 352.583 159.122 342.786 146.595 337.112C159.122 331.439 168.329 321.642 172.054 310.032L173.696 304.906Z" fill="url(#paint15_linear_2049_7954)" stroke="#C69024" stroke-miterlimit="10"/>
<path d="M51 26L52.1514 29.5811C54.7631 37.692 61.2177 44.5364 70 48.5C61.2177 52.4636 54.7631 59.3079 52.1514 67.4189L51 71L49.8486 67.4189C47.2369 59.3079 40.7823 52.4636 32 48.5C40.7823 44.5364 47.2369 37.692 49.8486 29.5811L51 26Z" fill="url(#paint16_linear_2049_7954)" stroke="#C69024" stroke-miterlimit="10"/>
<path d="M345.591 468.347L398.642 466.782C398.642 466.782 418.911 454.839 438.043 447.082C438.043 447.082 462.791 428.242 475.93 425.789" stroke="#AB8360" stroke-width="1.04" stroke-miterlimit="10"/>
<path d="M281.847 442.248C284.591 443.329 287.165 445.199 290.115 445.213C292.49 445.22 294.822 443.89 296.023 441.843C297.225 439.795 297.246 437.108 296.073 435.039" stroke="#A37624" stroke-width="1.04" stroke-miterlimit="10"/>
<path d="M477.103 56.2148L478.553 60.2104C481.83 69.2608 489.949 76.8964 500.983 81.3185C489.949 85.7407 481.83 93.3763 478.553 102.427L477.103 106.422L475.652 102.427C472.375 93.3763 464.256 85.7407 453.222 81.3185C464.256 76.8964 472.375 69.2608 475.652 60.2104L477.103 56.2148Z" fill="url(#paint17_linear_2049_7954)" stroke="#C69024" stroke-miterlimit="10"/>
<defs>
<linearGradient id="paint0_linear_2049_7954" x1="28.628" y1="607.97" x2="267.103" y2="609.373" gradientUnits="userSpaceOnUse">
<stop offset="0.42" stop-color="#0088C3"/>
<stop offset="1" stop-color="#0F1F42"/>
</linearGradient>
<linearGradient id="paint1_linear_2049_7954" x1="562.463" y1="-16.4491" x2="462.157" y2="399.39" gradientUnits="userSpaceOnUse">
<stop stop-color="#F0F4F8"/>
<stop offset="0.53" stop-color="#00DC86"/>
<stop offset="1" stop-color="#23626A"/>
</linearGradient>
<linearGradient id="paint2_linear_2049_7954" x1="209.066" y1="-46.8666" x2="214.505" y2="369.125" gradientUnits="userSpaceOnUse">
<stop stop-color="#F0F4F8"/>
<stop offset="0.53" stop-color="#00DC86"/>
<stop offset="1" stop-color="#23626A"/>
</linearGradient>
<linearGradient id="paint3_linear_2049_7954" x1="282.351" y1="304.906" x2="428.487" y2="304.906" gradientUnits="userSpaceOnUse">
<stop offset="0.42" stop-color="#0088C3"/>
<stop offset="1" stop-color="#0F1F42"/>
</linearGradient>
<linearGradient id="paint4_linear_2049_7954" x1="297.402" y1="182.295" x2="373.595" y2="182.295" gradientUnits="userSpaceOnUse">
<stop stop-color="#0088C3"/>
<stop offset="1" stop-color="#0F1F42"/>
</linearGradient>
<linearGradient id="paint5_linear_2049_7954" x1="520.961" y1="193.223" x2="581.64" y2="439.134" gradientUnits="userSpaceOnUse">
<stop offset="0.14" stop-color="#F0F4F8"/>
<stop offset="0.52" stop-color="#DE97FF"/>
<stop offset="0.83" stop-color="#A827D8"/>
</linearGradient>
<linearGradient id="paint6_linear_2049_7954" x1="150.427" y1="-22.6075" x2="202.938" y2="82.4143" gradientUnits="userSpaceOnUse">
<stop offset="0.14" stop-color="#F0F4F8"/>
<stop offset="0.52" stop-color="#DE97FF"/>
<stop offset="0.83" stop-color="#A827D8"/>
</linearGradient>
<linearGradient id="paint7_linear_2049_7954" x1="361.509" y1="74.4083" x2="327.405" y2="130.431" gradientUnits="userSpaceOnUse">
<stop offset="0.42" stop-color="#0088C3"/>
<stop offset="1" stop-color="#0F1F42"/>
</linearGradient>
<linearGradient id="paint8_linear_2049_7954" x1="356.205" y1="225.955" x2="209.677" y2="19.8999" gradientUnits="userSpaceOnUse">
<stop offset="0.3" stop-color="white"/>
<stop offset="0.46" stop-color="#FFCE4E"/>
<stop offset="0.94" stop-color="#C69024"/>
</linearGradient>
<linearGradient id="paint9_linear_2049_7954" x1="474.03" y1="37.5367" x2="551.005" y2="183.076" gradientUnits="userSpaceOnUse">
<stop offset="0.14" stop-color="#F0F4F8"/>
<stop offset="0.52" stop-color="#DE97FF"/>
<stop offset="0.83" stop-color="#A827D8"/>
</linearGradient>
<linearGradient id="paint10_linear_2049_7954" x1="625.654" y1="53.1992" x2="503.086" y2="62.8254" gradientUnits="userSpaceOnUse">
<stop offset="0.42" stop-color="#0088C3"/>
<stop offset="1" stop-color="#0F1F42"/>
</linearGradient>
<linearGradient id="paint11_linear_2049_7954" x1="501.949" y1="68.2297" x2="523.001" y2="181.897" gradientUnits="userSpaceOnUse">
<stop offset="0.14" stop-color="#F0F4F8"/>
<stop offset="0.52" stop-color="#DE97FF"/>
<stop offset="0.83" stop-color="#A827D8"/>
</linearGradient>
<linearGradient id="paint12_linear_2049_7954" x1="446.119" y1="222.073" x2="429.546" y2="-56.0019" gradientUnits="userSpaceOnUse">
<stop stop-color="#F0F4F8"/>
<stop offset="0.53" stop-color="#00DC86"/>
<stop offset="1" stop-color="#23626A"/>
</linearGradient>
<linearGradient id="paint13_linear_2049_7954" x1="26.189" y1="607.059" x2="267.841" y2="608.48" gradientUnits="userSpaceOnUse">
<stop offset="0.42" stop-color="#0088C3"/>
<stop offset="1" stop-color="#0F1F42"/>
</linearGradient>
<linearGradient id="paint14_linear_2049_7954" x1="70.2034" y1="55.5815" x2="105.509" y2="482.97" gradientUnits="userSpaceOnUse">
<stop offset="0.3" stop-color="white"/>
<stop offset="0.46" stop-color="#FFCE4E"/>
<stop offset="0.94" stop-color="#C69024"/>
</linearGradient>
<linearGradient id="paint15_linear_2049_7954" x1="138.39" y1="329.619" x2="244.407" y2="352.128" gradientUnits="userSpaceOnUse">
<stop offset="0.3" stop-color="white"/>
<stop offset="0.46" stop-color="#FFCE4E"/>
<stop offset="0.94" stop-color="#C69024"/>
</linearGradient>
<linearGradient id="paint16_linear_2049_7954" x1="26.2482" y1="43.2649" x2="100.551" y2="59.0955" gradientUnits="userSpaceOnUse">
<stop offset="0.3" stop-color="white"/>
<stop offset="0.46" stop-color="#FFCE4E"/>
<stop offset="0.94" stop-color="#C69024"/>
</linearGradient>
<linearGradient id="paint17_linear_2049_7954" x1="450.364" y1="63.559" x2="523.457" y2="112.103" gradientUnits="userSpaceOnUse">
<stop offset="0.3" stop-color="white"/>
<stop offset="0.46" stop-color="#FFCE4E"/>
<stop offset="0.94" stop-color="#C69024"/>
</linearGradient>
</defs>
</svg>
