<svg width="746" height="745" viewBox="0 0 746 745" fill="none" xmlns="http://www.w3.org/2000/svg">
<g clip-path="url(#clip0_1911_4123)">
<path d="M393.386 636.096C221.003 636.096 81.2583 496.351 81.2583 323.968C81.2583 151.584 221.003 11.8398 393.386 11.8398C565.77 11.8398 705.514 151.584 705.514 323.968C705.514 496.351 565.77 636.096 393.386 636.096Z" fill="#BEF5FF"/>
<path d="M51.1525 116.107C51.4369 124.634 55.9272 132.07 63.5059 135.809C68.7345 138.389 74.2406 139.012 77.3155 136.845C80.0991 134.888 81.3791 130.445 81.0879 125.446C80.607 117.082 75.6426 110.14 68.1384 106.523C65.4632 105.23 62.2529 104.397 59.9163 104.133C54.6133 103.537 52.3512 105.277 51.4436 109.801C51.0711 111.664 51.0644 113.831 51.1457 116.114L51.1525 116.107Z" fill="url(#paint0_linear_1911_4123)"/>
<path d="M96.0766 186.781L71.0107 138.281L71.0311 138.267C71.0311 138.267 70.9904 138.247 70.9769 138.234C70.7804 137.956 72.5414 136.378 74.9118 134.712C77.2823 133.046 79.3615 131.915 79.5579 132.192L117.201 171.21C123.675 177.732 125.91 181.857 128.931 190.648C130.225 194.427 128.315 199.093 124.312 201.911L122.558 203.143C118.555 205.961 113.516 206.191 110.394 203.699L109.913 203.319C102.964 197.766 100.018 194.63 96.0834 186.781H96.0766Z" fill="url(#paint1_linear_1911_4123)"/>
<path d="M121.27 199.615C124.507 197.339 127.785 196.425 128.598 197.57L134.673 206.198L122.957 214.447L116.881 205.819C116.069 204.667 118.04 201.891 121.277 199.608L121.27 199.615Z" fill="url(#paint2_linear_1911_4123)"/>
<path d="M117.186 213.777C116.319 212.544 119.821 208.582 125.009 204.925C130.197 201.267 135.107 199.31 135.98 200.543C135.994 200.563 135.994 200.583 136.008 200.604H136.021L194.944 284.274L176.15 297.508L117.227 213.824H117.24C117.24 213.824 117.2 213.79 117.186 213.77V213.777Z" fill="url(#paint3_linear_1911_4123)"/>
<path d="M176.045 297.393C175.173 296.155 178.673 292.188 183.863 288.534C189.053 284.879 193.968 282.921 194.84 284.16C195.712 285.398 192.212 289.365 187.021 293.019C181.831 296.674 176.917 298.632 176.045 297.393Z" fill="#0B1E44"/>
<path d="M72.3995 132.205C71.2961 132.205 70.4015 131.31 70.4015 130.207C70.4015 129.103 71.2961 128.209 72.3995 128.209C73.5029 128.209 74.3975 129.103 74.3975 130.207C74.3975 131.31 73.5029 132.205 72.3995 132.205Z" fill="#8FEAFF"/>
<path d="M67.7457 125.601C66.6423 125.601 65.7477 124.707 65.7477 123.603C65.7477 122.5 66.6423 121.605 67.7457 121.605C68.8492 121.605 69.7437 122.5 69.7437 123.603C69.7437 124.707 68.8492 125.601 67.7457 125.601Z" fill="#8FEAFF"/>
<path d="M71.2618 118.144C70.1584 118.144 69.2639 117.25 69.2639 116.146C69.2639 115.043 70.1584 114.148 71.2618 114.148C72.3652 114.148 73.2598 115.043 73.2598 116.146C73.2598 117.25 72.3652 118.144 71.2618 118.144Z" fill="#8FEAFF"/>
<path d="M59.7271 126.265C58.6237 126.265 57.7292 125.371 57.7292 124.267C57.7292 123.164 58.6237 122.27 59.7271 122.27C60.8305 122.27 61.7251 123.164 61.7251 124.267C61.7251 125.371 60.8305 126.265 59.7271 126.265Z" fill="#8FEAFF"/>
<path d="M75.4669 124.119C74.3634 124.119 73.4689 123.224 73.4689 122.121C73.4689 121.018 74.3634 120.123 75.4669 120.123C76.5703 120.123 77.4648 121.018 77.4648 122.121C77.4648 123.224 76.5703 124.119 75.4669 124.119Z" fill="#8FEAFF"/>
<path d="M63.9323 132.24C62.8288 132.24 61.9343 131.346 61.9343 130.242C61.9343 129.139 62.8288 128.244 63.9323 128.244C65.0357 128.244 65.9302 129.139 65.9302 130.242C65.9302 131.346 65.0357 132.24 63.9323 132.24Z" fill="#8FEAFF"/>
<path d="M65.4771 113.404C64.3737 113.404 63.4792 112.51 63.4792 111.406C63.4792 110.303 64.3737 109.408 65.4771 109.408C66.5805 109.408 67.4751 110.303 67.4751 111.406C67.4751 112.51 66.5805 113.404 65.4771 113.404Z" fill="#8FEAFF"/>
<path d="M56.9297 119.418C55.8263 119.418 54.9318 118.523 54.9318 117.42C54.9318 116.316 55.8263 115.422 56.9297 115.422C58.0332 115.422 58.9277 116.316 58.9277 117.42C58.9277 118.523 58.0332 119.418 56.9297 119.418Z" fill="#8FEAFF"/>
<path d="M63.4933 119.554C62.3898 119.554 61.4953 118.66 61.4953 117.557C61.4953 116.453 62.3898 115.559 63.4933 115.559C64.5967 115.559 65.4912 116.453 65.4912 117.557C65.4912 118.66 64.5967 119.554 63.4933 119.554Z" fill="#8FEAFF"/>
<path d="M58.4541 112.402C57.3507 112.402 56.4562 111.508 56.4562 110.404C56.4562 109.301 57.3507 108.406 58.4541 108.406C59.5576 108.406 60.4521 109.301 60.4521 110.404C60.4521 111.508 59.5576 112.402 58.4541 112.402Z" fill="#8FEAFF"/>
<g style="mix-blend-mode:screen" opacity="0.48">
<path d="M76.9838 133.248C76.9838 133.248 121.426 178.842 125.944 197.284C125.944 197.284 123.641 197.873 120.668 200.061C120.668 200.061 117.254 181.47 74.9114 134.718L76.9838 133.255V133.248Z" fill="#BEF5FF"/>
</g>
<g style="mix-blend-mode:screen" opacity="0.48">
<path d="M126.591 204.273L129.958 201.902L188.605 285.195L185.238 287.566L126.591 204.273Z" fill="#BEF5FF"/>
</g>
<path d="M185.123 290.308C188.361 288.032 191.232 286.542 192.025 287.666L211.571 315.421L199.854 323.67L180.308 295.916C179.516 294.791 181.886 292.583 185.123 290.308Z" fill="url(#paint4_linear_1911_4123)"/>
<g style="mix-blend-mode:screen" opacity="0.48">
<path d="M185.71 289.902L188.966 287.609L203.88 308.791L200.624 311.084L185.71 289.902Z" fill="#BEF5FF"/>
</g>
<path d="M190.359 317.704C189.492 316.472 192.994 312.51 198.182 308.852C203.369 305.195 208.28 303.238 209.153 304.47C209.167 304.491 209.167 304.511 209.18 304.531H209.194L268.117 388.202L249.322 401.435L190.4 317.752H190.413C190.413 317.752 190.373 317.718 190.359 317.697V317.704Z" fill="url(#paint5_linear_1911_4123)"/>
<g style="mix-blend-mode:screen" opacity="0.48">
<path d="M199.764 308.197L203.131 305.826L262.641 390.343L259.274 392.713L199.764 308.197Z" fill="#BEF5FF"/>
</g>
<path d="M219.808 639.75V666.496C219.808 670.925 199.876 674.514 175.291 674.514C150.706 674.514 130.774 670.925 130.774 666.496V639.75H219.815H219.808Z" fill="url(#paint6_linear_1911_4123)"/>
<g style="mix-blend-mode:darken" opacity="0.68">
<path d="M164.63 674.286C145.193 673.426 130.767 670.263 130.767 666.497V639.752H164.63V674.286Z" fill="#0B1E44"/>
</g>
<path d="M175.29 559.149C115.114 559.149 66.3307 550.359 66.3307 539.515C66.3307 528.671 115.114 519.881 175.29 519.881C235.467 519.881 284.25 528.671 284.25 539.515C284.25 550.359 235.467 559.149 175.29 559.149Z" fill="url(#paint7_linear_1911_4123)"/>
<path d="M175.29 559.15C235.466 559.15 284.25 550.359 284.25 539.516C284.25 550.359 277.999 653.216 175.29 653.216C85.8633 653.216 66.3307 550.352 66.3307 539.516C66.3307 550.359 115.115 559.15 175.29 559.15Z" fill="url(#paint8_linear_1911_4123)"/>
<path d="M158.413 520.164C164.393 519.982 170.543 519.887 176.814 519.887C236.99 519.887 285.774 528.678 285.774 539.521C285.774 550.364 236.99 559.155 176.814 559.155C170.252 559.155 163.824 559.053 157.58 558.85C160.858 545.176 160.682 532.159 158.413 520.171V520.164Z" fill="url(#paint9_linear_1911_4123)"/>
<g style="mix-blend-mode:darken" opacity="0.44">
<path d="M164.63 652.708C152.791 651.577 142.307 648.556 133.028 644.188C116.93 614.855 107.021 584.744 103.113 554.246C113.787 555.939 126.31 557.267 140.079 558.113C143.851 590.616 152.107 622.454 164.63 652.715V652.708Z" fill="#0B1E44"/>
</g>
<path d="M354.897 211.017C355.967 214.62 356.502 218.616 354.999 222.07C353.19 226.222 348.883 228.667 344.684 230.367C345.612 233.015 348.456 235.474 350.847 236.937C354.741 239.321 359.394 241.657 363.688 240.099C366.072 239.239 367.921 237.262 369.133 235.04C372.384 229.073 373.549 219.239 370.386 213.225C368.828 210.266 364.46 209.731 361.433 208.315C358.405 206.9 357.044 208.457 354.897 211.017Z" fill="#C69024"/>
<path d="M344.683 378.291C344.683 378.291 296.285 331.831 266.777 330.049C266.777 330.049 244.819 316.714 209.723 414.363H369.133L344.69 378.298L344.683 378.291Z" fill="#23626A"/>
<path d="M354.2 393.495C354.2 393.495 218.569 388.111 190.984 430.19C190.984 430.19 186.744 461.046 217.384 543.802C217.384 543.802 232.595 606.45 228.857 619.074C228.857 619.074 269.066 617.205 287.766 591.956C306.465 566.708 301.792 564.838 301.792 564.838L257.844 456.597H385.95V393.495H354.2Z" fill="#00DC86"/>
<path d="M398.304 196.836V244.421C398.304 244.421 394.409 281.711 366.228 279.219C338.047 276.727 357.275 236.774 357.275 236.774L369.127 235.047C369.127 235.047 370.759 211.803 366.221 211.39C366.221 211.39 398.297 182.904 398.297 196.842L398.304 196.836Z" fill="#FEE2CC"/>
<path d="M374.68 398.081C374.68 398.081 353.549 399.476 337.925 380.831C337.925 380.831 344.217 345.261 343.14 327.299C343.14 327.299 332.06 320.588 332.229 306.676C332.229 306.676 340.309 260.229 351.998 250.165L357.897 243.338C357.897 243.338 352.405 270.849 364.311 274.269C376.218 277.696 392.648 260.006 393.928 246.365L402.631 246.575L374.68 398.081Z" fill="url(#paint10_linear_1911_4123)"/>
<path d="M374.05 294.742C376.095 292.697 379.631 292.907 381.94 295.216C382.062 295.338 382.177 295.474 382.292 295.616C382.292 295.433 382.299 295.257 382.319 295.088C382.685 291.837 385.313 289.466 388.191 289.792C391.07 290.117 393.108 293.009 392.743 296.259C392.722 296.429 392.689 296.605 392.648 296.781C392.79 296.666 392.932 296.564 393.081 296.476C395.851 294.736 399.339 295.311 400.884 297.763C402.428 300.215 401.432 303.615 398.662 305.355C398.52 305.443 398.364 305.531 398.195 305.606C398.371 305.646 398.54 305.694 398.703 305.748C401.791 306.825 403.518 309.913 402.563 312.649C401.608 315.386 398.33 316.727 395.249 315.643C395.086 315.589 394.924 315.514 394.761 315.44C394.842 315.602 394.91 315.765 394.964 315.927C396.048 319.016 394.707 322.294 391.977 323.249C389.248 324.204 386.153 322.483 385.069 319.395C385.015 319.233 384.968 319.063 384.927 318.887C384.846 319.05 384.764 319.205 384.67 319.354C382.929 322.125 379.536 323.12 377.084 321.583C374.632 320.045 374.05 316.551 375.791 313.781C375.879 313.638 375.987 313.496 376.102 313.354C375.926 313.394 375.75 313.428 375.581 313.442C372.33 313.808 369.438 311.776 369.106 308.897C368.781 306.019 371.151 303.391 374.402 303.025C374.571 303.005 374.748 302.998 374.93 302.998C374.788 302.883 374.653 302.768 374.531 302.646C372.215 300.337 372.005 296.801 374.05 294.756V294.742Z" fill="white"/>
<path d="M369.133 235.041C369.133 235.041 355.018 232.101 318.554 257.12L277.085 282.504L247.413 220.662C247.413 220.662 228.111 240.608 217.383 246.724L252.418 323.621C252.418 323.621 256.706 335.06 278.155 327.556C299.604 320.052 324.27 307.895 324.27 307.895L315.859 354.153L325.611 362.138C325.611 362.138 329.878 285.728 348.347 255.338C348.347 255.338 357.89 239.951 369.126 235.041H369.133Z" fill="url(#paint11_linear_1911_4123)"/>
<path d="M419.928 233.123C424.425 236.801 428.543 240.946 432.187 245.477C450.717 268.524 455.682 299.415 458.323 328.862C459.644 343.573 460.592 358.54 465.583 372.445C468.57 380.755 472.938 388.489 476.677 396.488C485.177 414.666 490.405 434.171 495.593 453.555L496.223 456.596H364.311C364.311 456.596 373.603 416.915 374.321 402.258C375.039 387.602 393.982 258.548 406.139 235.67L419.928 233.123Z" fill="url(#paint12_linear_1911_4123)"/>
<path d="M410.764 235.25C410.764 235.25 378.12 421.195 379.176 461.926" stroke="#0088C7" stroke-width="0.41593" stroke-miterlimit="10"/>
<path d="M374.313 219.268C372.756 220.196 370.832 221.056 369.2 220.27C369.173 220.257 369.146 220.236 369.119 220.223C368.794 215.556 367.974 211.547 366.112 211.378C366.112 211.378 379.142 199.81 388.59 195.021C390.473 196.071 392.329 198.543 392.221 200.521C392.105 202.675 389.213 205.519 387.94 207.165C384.195 211.994 379.549 216.125 374.307 219.261L374.313 219.268Z" fill="#EAB892"/>
<path d="M388.076 242.403C387.338 243.297 386.769 244.395 385.611 244.496C395.648 247.998 406.647 246.657 417.192 245.268C422.129 244.618 427.324 243.738 428.055 238.204C428.787 232.671 428.082 226.867 426.978 221.171C429.241 223.548 431.415 226.074 432.857 229.027C434.3 231.98 434.388 235.224 433.507 238.387C435.952 237.48 437.788 235.394 439.122 233.145C442.535 227.395 443.016 220.101 440.774 213.843C438.614 207.815 431.415 203.711 430.568 197.344C430.209 194.635 431.374 191.994 432.166 189.38C434.787 180.731 433.297 171.154 429.241 163.081C425.184 155.008 418.722 148.33 411.489 142.912C408.76 140.867 405.895 138.977 402.766 137.616C400.057 136.444 397.185 135.679 394.266 135.245C382.245 133.471 369.492 137.629 360.829 146.156C358.764 144.856 356.501 145.045 354.483 146.42C352.465 147.795 351.117 149.956 350.135 152.191C348.631 155.591 347.812 159.444 348.72 163.054C348.34 164.998 422.542 200.494 388.069 242.397L388.076 242.403Z" fill="url(#paint13_linear_1911_4123)"/>
<path d="M526.543 399.569L457.683 502.647L430.632 486.918L488.23 377.285L526.543 399.569Z" fill="#0088C3"/>
<path d="M548.599 166.857C551.071 162.781 565.444 160.557 584.141 163.394L585.361 183.721L594.073 165.311C605.551 167.992 618.027 172.537 630.079 179.541C666.671 200.821 685.446 236.813 681.396 244.091C681.396 244.091 681.383 244.13 681.376 244.143L681.357 244.13L572.879 301.017C559.712 295.8 565.829 299.491 554.645 290.804L552.623 289.239L548.599 166.922L548.58 166.909C548.58 166.909 548.599 166.883 548.606 166.87L548.599 166.857Z" fill="url(#paint14_linear_1911_4123)"/>
<path d="M561.087 296.086L631.558 180.408C633.469 181.556 635.328 182.743 637.134 183.956L561.087 296.08V296.086Z" fill="url(#paint15_linear_1911_4123)"/>
<path d="M561.087 296.085L644.934 189.648C646.643 190.998 648.299 192.368 649.903 193.757L561.087 296.079V296.085Z" fill="url(#paint16_linear_1911_4123)"/>
<path d="M563.631 297.527L669.637 215.174C672.2 218.695 674.385 222.106 676.159 225.289L563.631 297.527Z" fill="url(#paint17_linear_1911_4123)"/>
<path d="M561.088 296.087L584.148 163.395" stroke="url(#paint18_linear_1911_4123)" stroke-width="0.875642" stroke-miterlimit="10"/>
<path d="M561.088 296.087L566.885 162.129" stroke="url(#paint19_linear_1911_4123)" stroke-width="0.875642" stroke-miterlimit="10"/>
<path d="M488.216 377.298C488.216 377.298 488.216 377.285 488.223 377.279C488.242 377.246 488.268 377.22 488.295 377.194L552.616 289.232L572.872 301.01L526.563 399.504C526.563 399.504 526.55 399.55 526.537 399.569C526.537 399.569 526.53 399.576 526.523 399.582L526.51 399.615H526.504C525.363 401.245 516.037 397.678 505.544 391.58C495.051 385.476 487.342 379.137 488.197 377.338H488.19L488.21 377.311L488.216 377.298Z" fill="#F0F4F8"/>
<path d="M519.663 398.481C517.818 397.789 511.257 394.887 508.146 392.709L562.835 295.174L568.809 298.643L519.663 398.481Z" fill="white"/>
<path d="M418.519 372.98C415.918 386.763 427.818 448.605 433.663 459.651C435.424 453.935 427.229 400.674 426.335 395.412C425.265 389.106 422.156 378.101 418.519 372.98Z" fill="#8FEAFF"/>
<path d="M359.083 151.837C359.083 151.837 348.064 159.443 350.163 172.561C350.163 172.561 350.529 180.16 345.964 184.366L343.594 187.102C342.971 187.82 342.998 188.897 343.661 189.574C344.555 190.482 345.923 191.647 347.542 192.236C347.542 192.236 348.213 194.573 346.926 195.582C345.639 196.591 347.935 198.799 347.935 198.799C347.935 198.799 345.917 200.357 347.386 201.826C347.386 201.826 348.673 202.375 348.673 203.296C348.673 204.217 348.768 205.775 348.03 206.696C347.292 207.617 345.456 211.471 349.134 212.846C352.811 214.22 366.235 211.376 366.235 211.376C366.235 211.376 378.351 209.507 379.408 209.154C380.464 208.802 385.28 202.226 388.565 198.474C388.565 198.474 393.495 201.054 398.311 196.828C402.11 193.496 402.422 182.761 395.378 182.524C388.334 182.287 385.869 190.374 385.869 190.374C385.869 190.374 371.403 153.672 359.09 151.83L359.083 151.837Z" fill="#FEE2CC"/>
<path d="M364.431 193.823C363.78 192.307 364.8 190.414 366.708 189.596C368.615 188.777 370.689 189.343 371.34 190.859C371.99 192.375 370.971 194.267 369.063 195.085C367.155 195.904 365.081 195.339 364.431 193.823Z" fill="#EAB892"/>
<path d="M346.919 195.59C346.919 195.59 348.03 194.831 350.007 196.789C351.145 197.92 355.554 199.356 357.274 199.674C357.274 199.674 350.177 200.202 347.928 198.807C347.928 198.807 346.133 197.385 346.919 195.59Z" fill="#E28883"/>
<path d="M347.792 202.104C348.124 202.395 348.564 202.537 349.011 202.51C349.905 202.463 351.456 202.253 352.336 201.84C353.616 201.244 355.966 199.93 355.966 199.93L347.927 198.799C347.927 198.799 345.509 200.099 347.792 202.097V202.104Z" fill="#F49C95"/>
<path d="M354.768 176.078C356.17 177.683 357.965 178.875 359.671 180.149C361.378 181.422 363.051 182.844 364.053 184.727C361.324 185.235 358.567 185.519 355.831 185.052" stroke="#C69024" stroke-width="0.437821" stroke-miterlimit="10"/>
<path d="M356.13 177.261C356.265 176.638 356.455 176.029 356.705 175.439C359.78 177.146 362.415 179.618 364.332 182.571" stroke="#C69024" stroke-width="0.437821" stroke-miterlimit="10"/>
<path d="M357.003 178.049C357.877 178.591 358.771 179.146 359.577 179.695C359.699 179.776 359.821 179.857 359.936 179.945C360.017 180.175 360.091 180.413 360.139 180.663C360.471 182.377 359.787 183.914 358.615 184.11C357.443 184.3 356.231 183.067 355.899 181.361C355.615 179.871 356.096 178.516 356.99 178.056L357.003 178.049Z" fill="#C69024"/>
<path d="M356.496 177.744C355.568 179.776 355.608 182.864 356.712 185.147" stroke="#C69024" stroke-width="0.437821" stroke-miterlimit="10"/>
<path d="M358.892 172.21C357.924 172.122 356.881 172.047 356.115 171.445C355.35 170.842 355.127 169.474 355.946 168.952C356.298 168.729 356.739 168.715 357.158 168.722C359.238 168.763 361.303 169.162 363.261 169.88C364.927 170.496 367.643 171.539 368.747 173.009C370.013 174.695 366.85 173.991 365.99 173.707C363.687 172.941 361.31 172.433 358.899 172.203L358.892 172.21Z" fill="#C69024"/>
<path d="M231.274 203.602C231.274 203.602 230.008 197.899 222.551 194.174C215.094 190.449 211.363 184.814 211.363 184.814C211.363 184.814 208.383 185.309 209.954 188.871C211.525 192.434 214.844 193.504 214.512 197.608C214.18 201.712 231.274 203.602 231.274 203.602Z" fill="#EAB892"/>
<path d="M185.078 199.173L180.696 193.41L178.888 187.822" stroke="black" stroke-width="0.437821" stroke-linecap="round" stroke-linejoin="round"/>
<path d="M244.04 616.839L258.412 651.115C258.412 651.115 265.482 665.257 261.114 667.573C256.746 669.889 249.546 669.503 249.675 676.188H276.671V603.32L244.04 616.839Z" fill="#BBFFEB"/>
<path d="M293.259 230.32C283.818 230.32 276.164 222.666 276.164 213.225C276.164 203.784 283.818 196.131 293.259 196.131C302.7 196.131 310.353 203.784 310.353 213.225C310.353 222.666 302.7 230.32 293.259 230.32Z" fill="#019DD8"/>
<path d="M107.029 379.05C97.5877 379.05 89.9343 371.397 89.9343 361.956C89.9343 352.515 97.5877 344.861 107.029 344.861C116.47 344.861 124.123 352.515 124.123 361.956C124.123 371.397 116.47 379.05 107.029 379.05Z" fill="#019DD8"/>
<path d="M195.602 175.218C156.349 175.218 124.529 143.398 124.529 104.145C124.529 64.8927 156.349 33.0723 195.602 33.0723C234.854 33.0723 266.675 64.8927 266.675 104.145C266.675 143.398 234.854 175.218 195.602 175.218Z" fill="url(#paint20_linear_1911_4123)"/>
<path d="M145.349 424.373L143.689 429.988C139.937 442.707 130.652 453.435 118.021 459.645C130.645 465.856 139.931 476.591 143.689 489.303L145.349 494.918L147.008 489.303C150.76 476.584 160.046 465.856 172.677 459.645C160.052 453.435 150.767 442.7 147.008 429.988L145.349 424.373Z" fill="url(#paint21_linear_1911_4123)"/>
<g style="mix-blend-mode:screen" opacity="0.53">
<path d="M549.606 665.17C544.859 665.17 541.011 661.322 541.011 656.575C541.011 651.828 544.859 647.98 549.606 647.98C554.353 647.98 558.201 651.828 558.201 656.575C558.201 661.322 554.353 665.17 549.606 665.17Z" fill="#BEF5FF"/>
</g>
<path d="M474.023 434.653L513.305 230.319C513.305 230.319 527.514 178.048 543.396 162.165C559.278 146.283 600.233 93.6255 554.259 71.8918C508.286 50.1581 478.202 138.197 477.362 151.837C475.689 179.009 493.82 188.979 484.758 230.319C475.696 271.66 422.198 459.651 422.198 459.651H470.677L474.023 434.653Z" fill="url(#paint22_linear_1911_4123)"/>
<path d="M554.259 71.8912C600.232 93.6249 559.271 146.283 543.396 162.165C527.514 178.047 513.304 230.319 513.304 230.319L474.023 434.652L470.677 459.65H463.295L466.64 434.652L505.922 230.319C505.922 230.319 520.131 178.047 536.013 162.165C551.895 146.283 592.85 93.6249 546.877 71.8912C543.192 70.1506 539.61 69.1144 536.128 68.6877C541.845 67.9834 547.899 68.8841 554.252 71.8912H554.259Z" fill="#FAE6FF"/>
<path d="M324.277 307.88C324.277 307.88 335.866 246.716 347.46 240.451" stroke="#0088C7" stroke-width="0.41593" stroke-miterlimit="10"/>
<path d="M292.134 456.598H505.292C513.835 456.598 520.761 463.523 520.761 472.067V665.34C520.761 673.883 513.835 680.809 505.292 680.809H292.134C283.591 680.809 276.665 673.883 276.665 665.34V472.067C276.665 463.523 283.591 456.598 292.134 456.598Z" fill="url(#paint23_linear_1911_4123)"/>
<path d="M505.292 456.598H292.134C283.593 456.598 276.665 463.533 276.665 472.067V502.659H520.761V472.067C520.761 463.526 513.825 456.598 505.292 456.598Z" fill="#43B4DE"/>
<g style="mix-blend-mode:multiply" opacity="0.31">
<g style="mix-blend-mode:multiply" opacity="0.31">
<path d="M502.359 456.596H508.793V502.657H502.359V456.596Z" fill="#0088C3"/>
</g>
<g style="mix-blend-mode:multiply" opacity="0.31">
<path d="M471.828 456.596H478.262V502.657H471.828V456.596Z" fill="#0088C3"/>
</g>
<g style="mix-blend-mode:multiply" opacity="0.31">
<path d="M441.296 456.596H447.73V502.657H441.296V456.596Z" fill="#0088C3"/>
</g>
<g style="mix-blend-mode:multiply" opacity="0.31">
<path d="M410.766 456.596H417.2V502.657H410.766V456.596Z" fill="#0088C3"/>
</g>
<g style="mix-blend-mode:multiply" opacity="0.31">
<path d="M380.233 456.596H386.667V502.657H380.233V456.596Z" fill="#0088C3"/>
</g>
<g style="mix-blend-mode:multiply" opacity="0.31">
<path d="M349.703 456.596H356.137V502.657H349.703V456.596Z" fill="#0088C3"/>
</g>
<g style="mix-blend-mode:multiply" opacity="0.31">
<path d="M319.17 456.596H325.604V502.657H319.17V456.596Z" fill="#0088C3"/>
</g>
<g style="mix-blend-mode:multiply" opacity="0.31">
<path d="M288.64 456.596H295.074V502.657H288.64V456.596Z" fill="#0088C3"/>
</g>
</g>
<path d="M479.665 535.879H489.946V591.382H479.665V535.879ZM362.043 552.086C358.081 543.925 350.848 538.345 341.63 538.345C328.504 538.345 318.616 549.662 318.616 563.627C318.616 577.593 328.504 588.91 341.63 588.91C353.347 588.91 362.327 579.895 364.285 568.023H332.832V563.079H376.659V563.627C376.659 579.563 360.973 592.479 341.623 592.479C322.274 592.479 306.588 579.563 306.588 563.627C306.588 547.691 322.274 534.775 341.623 534.775C355.988 534.775 368.342 541.9 373.767 552.086H362.043ZM384.21 536.381H394.491V591.883H384.21V536.381ZM457.491 552.086C453.536 543.925 446.296 538.345 437.078 538.345C423.952 538.345 414.064 549.662 414.064 563.627C414.064 577.593 423.952 588.91 437.078 588.91C448.795 588.91 457.775 579.895 459.733 568.023H428.28V563.079H472.113V563.627C472.113 579.563 456.428 592.479 437.078 592.479C417.728 592.479 402.043 579.563 402.043 563.627C402.043 547.691 417.728 534.775 437.078 534.775C451.443 534.775 463.796 541.9 469.221 552.086H457.491ZM490.481 609.072C490.305 608.788 490.061 608.557 489.797 608.354C489.384 608.043 488.707 607.765 488.239 607.562C487.846 607.393 487.447 607.237 487.054 607.068C486.77 606.939 486.492 606.79 486.255 606.58C486.099 606.444 485.97 606.282 485.909 606.079C485.821 605.774 485.876 605.483 485.997 605.198C486.167 604.799 486.485 604.555 486.878 604.406C487.128 604.311 487.399 604.284 487.67 604.291C488.903 604.304 489.628 605.164 489.783 605.55H489.946L490.373 604.392C489.973 603.932 489.005 603.485 487.86 603.403C487.413 603.37 486.681 603.383 486.255 603.492C485.686 603.64 485.185 603.905 484.772 604.325C484.595 604.507 484.446 604.711 484.331 604.934C484.216 605.151 484.148 605.388 484.101 605.632C484.033 605.991 484.033 606.356 484.121 606.715C484.25 607.21 484.555 607.528 484.941 607.853C485.442 608.273 486.302 608.591 486.898 608.835C487.223 608.964 487.548 609.093 487.86 609.242C488.151 609.377 488.429 609.54 488.673 609.756C488.889 609.953 489.038 610.217 489.093 610.501C489.16 610.86 489.093 611.206 488.944 611.531C488.795 611.842 488.571 612.079 488.273 612.255C487.989 612.425 487.664 612.526 487.332 612.547C486.77 612.58 486.153 612.438 485.801 612.228C485.171 611.869 484.744 611.409 484.521 610.488H484.352L483.735 611.849C483.986 612.215 484.846 612.804 485.347 613.034C485.686 613.19 486.038 613.292 486.397 613.366C486.742 613.434 487.088 613.441 487.433 613.427C487.772 613.414 488.375 613.366 488.7 613.265C489.255 613.095 489.75 612.824 490.149 612.398C490.793 611.72 491.199 610.251 490.474 609.065L490.481 609.072ZM460.722 603.498H458.561V613.326H460.722V603.498ZM363.059 603.349C359.998 603.349 357.559 605.578 357.559 608.409C357.559 611.253 359.984 613.474 363.066 613.468C366.154 613.468 368.552 611.233 368.552 608.402C368.552 605.557 366.1 603.349 363.059 603.343V603.349ZM366.181 609.553C366.039 610.197 365.782 610.786 365.382 611.307C365.03 611.768 364.59 612.127 364.048 612.337C363.601 612.513 363.12 612.567 362.646 612.486C362.165 612.404 361.738 612.201 361.359 611.903C360.966 611.592 360.668 611.212 360.424 610.772C360.262 610.481 360.14 610.169 360.045 609.851C359.896 609.323 359.828 608.788 359.842 608.246C359.849 607.867 359.896 607.494 359.984 607.122C360.167 606.39 360.485 605.726 361 605.171C361.318 604.826 361.698 604.616 362.145 604.453C362.483 604.325 362.842 604.27 363.201 604.291C363.899 604.325 364.481 604.609 364.982 605.076C365.443 605.503 365.761 605.97 365.985 606.553C366.1 606.851 366.188 607.162 366.229 607.481C366.269 607.779 366.296 608.083 366.31 608.259C366.296 608.781 366.262 609.174 366.174 609.56L366.181 609.553ZM428.375 603.349C425.314 603.349 422.876 605.578 422.876 608.409C422.876 611.253 425.3 613.474 428.382 613.468C431.47 613.468 433.868 611.233 433.868 608.402C433.868 605.557 431.416 603.349 428.375 603.343V603.349ZM431.497 609.553C431.355 610.197 431.098 610.786 430.698 611.307C430.346 611.768 429.906 612.127 429.364 612.337C428.917 612.513 428.436 612.567 427.962 612.486C427.481 612.404 427.054 612.201 426.675 611.903C426.282 611.592 425.984 611.212 425.74 610.772C425.578 610.481 425.456 610.169 425.361 609.851C425.212 609.323 425.144 608.788 425.158 608.246C425.165 607.867 425.212 607.494 425.3 607.122C425.483 606.39 425.801 605.726 426.323 605.171C426.641 604.826 427.021 604.616 427.468 604.453C427.806 604.325 428.165 604.27 428.524 604.291C429.222 604.325 429.804 604.609 430.305 605.076C430.766 605.503 431.084 605.97 431.308 606.553C431.423 606.851 431.511 607.162 431.551 607.481C431.592 607.779 431.619 608.083 431.633 608.259C431.619 608.781 431.585 609.174 431.497 609.56V609.553ZM328.498 603.376L323.933 613.332H325.071L325.694 611.951C325.944 611.395 326.405 610.366 326.527 610.088C328.383 610.088 330.198 610.088 330.198 610.088H330.238C330.367 610.379 330.848 611.49 331.051 611.971C331.234 612.398 331.64 613.339 331.64 613.339H333.862L329.344 603.383H328.498V603.376ZM326.92 609.16C326.92 609.16 328.396 605.862 328.403 605.862L329.839 609.16H326.92ZM396.171 603.376L391.606 613.332H392.744L393.367 611.951C393.617 611.395 394.078 610.366 394.2 610.088C396.056 610.088 397.871 610.088 397.871 610.088H397.911C398.04 610.379 398.521 611.49 398.724 611.971C398.907 612.398 399.313 613.339 399.313 613.339H401.535L397.017 603.383H396.171V603.376ZM394.593 609.16C394.593 609.16 396.069 605.862 396.076 605.862C396.076 605.862 397.031 608.05 397.512 609.16H394.593ZM313.083 612.208V603.485H310.889V613.326H317.16V612.201H313.083V612.208ZM383.147 608.578C383.77 608.165 384.136 607.555 384.244 606.81C384.318 606.275 384.244 605.76 384.007 605.28C383.79 604.819 383.458 604.453 383.038 604.162C382.598 603.857 382.104 603.668 381.576 603.566C381.291 603.512 381.007 603.492 380.722 603.492H376.943V613.326H379.029V609.194H379.557L382.422 613.332H384.894L381.975 609.12C381.975 609.12 382.449 609.025 383.147 608.571V608.578ZM380.255 608.415C379.876 608.415 379.029 608.415 379.029 608.415V604.325C379.029 604.325 379.55 604.325 379.997 604.325C380.167 604.325 380.323 604.338 380.444 604.345C381.054 604.392 381.569 604.629 381.968 605.11C382.144 605.327 382.253 605.571 382.321 605.842C382.388 606.106 382.402 606.377 382.368 606.648C382.287 607.42 381.894 607.968 381.156 608.253C380.864 608.368 380.56 608.415 380.248 608.415H380.255ZM349.243 609.58C349.019 609.045 348.647 608.632 348.125 608.375C347.929 608.273 347.712 608.205 347.495 608.117C347.583 608.083 347.671 608.056 347.753 608.016C348.111 607.846 348.423 607.616 348.653 607.291C348.823 607.054 348.938 606.783 348.985 606.499C349.053 606.106 349.026 605.72 348.904 605.334C348.755 604.866 348.484 604.474 348.105 604.162C347.698 603.837 347.231 603.661 346.723 603.566C346.418 603.512 346.114 603.492 345.809 603.492C344.563 603.492 341.962 603.492 341.962 603.492V613.332H346.215C346.635 613.332 347.048 613.292 347.448 613.183C347.725 613.102 347.99 612.994 348.233 612.838C348.613 612.594 348.904 612.283 349.114 611.89C349.276 611.578 349.371 611.246 349.412 610.901C349.466 610.447 349.412 610.007 349.243 609.58ZM345.294 604.338C345.829 604.358 346.303 604.521 346.669 604.934C346.865 605.158 346.98 605.422 347.041 605.706C347.096 605.964 347.089 606.228 347.041 606.485C346.947 606.959 346.689 607.318 346.263 607.562C345.944 607.745 345.592 607.819 345.233 607.826C345.077 607.826 344.915 607.826 344.8 607.826C344.549 607.826 344.061 607.826 344.061 607.826V604.325C344.556 604.325 344.806 604.325 345.301 604.338H345.294ZM347.468 610.833C347.4 611.26 347.224 611.639 346.892 611.937C346.682 612.127 346.432 612.249 346.154 612.316C345.904 612.377 345.653 612.398 345.402 612.398C344.874 612.398 344.583 612.398 344.055 612.398V608.646C344.617 608.646 344.942 608.646 345.504 608.646C345.849 608.646 346.188 608.686 346.513 608.822C346.886 608.984 347.157 609.242 347.319 609.601C347.495 609.993 347.543 610.4 347.475 610.826L347.468 610.833ZM415.432 603.492H408.179V604.48H410.725V613.332H412.886V604.48H415.432V603.492ZM476.651 604.406V603.498H470.061V613.332H476.651V612.425H472.12V608.808H476.455V607.901H472.12V604.406H476.651ZM448.436 608.578C449.059 608.165 449.431 607.555 449.533 606.81C449.614 606.275 449.533 605.76 449.296 605.28C449.073 604.819 448.747 604.453 448.328 604.162C447.887 603.857 447.393 603.668 446.865 603.566C446.58 603.512 446.296 603.492 446.011 603.492H442.232V613.326H444.318V609.194H444.846L447.711 613.332H450.183L447.264 609.12C447.264 609.12 447.738 609.025 448.436 608.571V608.578ZM445.544 608.415C445.165 608.415 444.325 608.415 444.325 608.415V604.325C444.325 604.325 444.84 604.325 445.293 604.325C445.463 604.325 445.625 604.338 445.74 604.345C446.35 604.392 446.865 604.629 447.264 605.11C447.44 605.327 447.549 605.571 447.616 605.842C447.684 606.106 447.698 606.377 447.664 606.648C447.583 607.42 447.19 607.968 446.451 608.253C446.16 608.368 445.855 608.415 445.544 608.415Z" fill="#173066"/>
<path d="M247.548 117.825V114.504H248.058V118.271H245.636V117.825H247.548ZM242.343 114.967V114.504H245.091V118.271H242.301V117.825H244.592V116.543H242.511V116.107H244.592V114.967H242.343ZM239.186 114.504L240.252 117.715L241.335 114.504H241.902L240.526 118.271H239.984L238.613 114.504H239.186ZM235.335 114.967V114.504H238.083V118.271H235.293V117.825H237.583V116.543H235.503V116.107H237.583V114.967H235.335ZM234.116 117.825V114.504H234.626V118.271H232.203V117.825H234.116ZM231.149 116.832V114.504H231.669V116.622C231.669 117.084 231.606 117.441 231.48 117.688C231.254 118.145 230.823 118.371 230.188 118.371C229.552 118.371 229.116 118.145 228.89 117.688C228.764 117.441 228.701 117.084 228.701 116.622V114.504H229.221V116.832C229.221 117.105 229.258 117.321 229.347 117.483C229.5 117.778 229.794 117.925 230.23 117.925C230.587 117.925 230.845 117.788 230.997 117.515C231.102 117.331 231.149 117.105 231.149 116.832ZM226.17 114.504H227.867V118.271H227.352V116.68H226.17C225.792 116.68 225.508 116.569 225.324 116.349C225.141 116.133 225.051 115.876 225.051 115.582C225.051 115.24 225.151 114.977 225.361 114.783C225.566 114.599 225.834 114.504 226.17 114.504ZM225.876 115.019C225.671 115.119 225.566 115.308 225.566 115.587C225.566 115.834 225.64 116.002 225.781 116.102C225.923 116.196 226.112 116.249 226.338 116.249H227.352V114.941H226.338C226.139 114.941 225.986 114.967 225.876 115.019ZM223.68 115.744V114.504H224.2V115.744L224.069 117.373H223.806L223.68 115.744ZM223.69 118.271V117.736H224.2V118.271H223.69Z" fill="#A37624"/>
<path d="M195.901 46.2852L190.923 61.6051H174.811L187.841 71.0801L182.863 86.4L195.901 76.9317L208.932 86.4L203.954 71.0801L216.991 61.6051H200.879L195.901 46.2852Z" fill="#C69024"/>
<path d="M162.037 57.3711L159.809 64.2251H152.603L158.434 68.4581L156.206 75.312L162.037 71.0791L167.869 75.312L165.64 68.4581L171.472 64.2251H164.265L162.037 57.3711Z" fill="#C69024"/>
<path d="M229.169 57.3711L226.94 64.2251H219.734L225.566 68.4581L223.337 75.312L229.169 71.0791L235 75.312L232.772 68.4581L238.603 64.2251H231.397L229.169 57.3711Z" fill="#C69024"/>
<path d="M636.773 101.207L635.635 105.054C633.061 113.764 626.702 121.112 618.053 125.372C626.702 129.625 633.061 136.974 635.635 145.69L636.773 149.537L637.911 145.69C640.484 136.981 646.844 129.632 655.493 125.372C646.844 121.119 640.484 113.77 637.911 105.054L636.773 101.207Z" fill="url(#paint24_linear_1911_4123)"/>
<path d="M73.0962 382.781C71.4707 383.987 69.9062 385.287 68.4027 386.682" stroke="#0088C7" stroke-width="0.437821" stroke-linecap="round" stroke-linejoin="round"/>
<path d="M60.5529 395.439C45.7003 415.439 41.3251 444.752 57.8776 464.366C66.4383 474.084 82.8148 479.252 94.2404 472.967C98.3447 470.712 97.8435 464.535 93.4209 462.991C93.3871 462.977 93.36 462.97 93.3261 462.957C59.2796 459.956 64.8942 503.878 95.1344 515.71" stroke="#0088C7" stroke-width="0.437821" stroke-linecap="round" stroke-linejoin="round"/>
<path d="M100.75 517.449C102.68 517.903 104.691 518.228 106.777 518.418" stroke="#0088C7" stroke-width="0.437821" stroke-linecap="round" stroke-linejoin="round"/>
<path d="M478.262 120.129C465.712 102.33 444.676 92.5908 423.883 86.1296C411.503 82.2827 398.547 79.2892 385.645 80.6166C372.743 81.9441 359.8 88.2021 353.122 99.3229C350.223 104.159 348.713 110.599 351.856 115.279C354.998 119.959 363.985 119.648 365.035 114.108C365.76 110.295 362.577 106.922 359.495 104.558C338.161 88.1953 307.589 84.8631 283.234 96.2549" stroke="#0088C7" stroke-width="0.437821" stroke-linecap="round" stroke-linejoin="round"/>
<path d="M569.07 603.322C535.776 603.322 508.786 597.497 508.786 590.311C508.786 583.126 535.776 577.301 569.07 577.301C602.364 577.301 629.354 583.126 629.354 590.311C629.354 597.497 602.364 603.322 569.07 603.322Z" fill="white"/>
<path opacity="0.73" d="M513.182 538.764L532.782 511.565V469.635H605.122V511.565L624.722 538.764C627.654 542.834 629.232 547.724 629.232 552.736V686.626C629.232 695.309 602.243 702.353 568.948 702.353C535.654 702.353 508.664 695.309 508.664 686.626V552.736C508.664 547.718 510.242 542.834 513.175 538.764H513.182Z" fill="#BEF5FF"/>
<path d="M532.783 511.173C556.047 520.201 581.851 520.201 605.122 511.173V469.629H532.783V511.173Z" fill="url(#paint25_linear_1911_4123)"/>
<g style="mix-blend-mode:darken" opacity="0.22">
<path d="M568.955 563.309C602.25 563.309 629.239 557.485 629.239 550.299V686.627C629.239 695.31 602.25 702.353 568.955 702.353C535.66 702.353 508.671 695.31 508.671 686.627V550.299C508.671 557.485 535.66 563.309 568.955 563.309Z" fill="#0088C7"/>
</g>
<g style="mix-blend-mode:darken" opacity="0.22">
<path d="M556.202 494.924H581.702V592.478H556.202V494.924Z" fill="#0088C7"/>
</g>
<path d="M568.955 603.315C602.25 603.315 629.239 597.491 629.239 590.305V686.62C629.239 695.302 602.25 702.346 568.955 702.346C535.66 702.346 508.671 695.302 508.671 686.62V590.305C508.671 597.491 535.66 603.315 568.955 603.315Z" fill="url(#paint26_linear_1911_4123)"/>
<g style="mix-blend-mode:darken" opacity="0.22">
<path d="M568.955 563.309C602.25 563.309 629.239 557.485 629.239 550.299V590.305C629.239 583.119 602.25 577.295 568.955 577.295C535.66 577.295 508.671 583.119 508.671 590.305V550.299C508.671 557.485 535.66 563.309 568.955 563.309Z" fill="#0088C7"/>
</g>
<g style="mix-blend-mode:screen" opacity="0.73">
<path d="M608.102 560.132V560.159L606.991 698.749C602.433 699.731 597.319 700.537 591.786 701.14V562.59L591.705 562.313C597.726 561.771 603.252 561.033 608.102 560.125V560.132Z" fill="#BEF5FF"/>
<path d="M608.102 560.132V560.159L606.991 698.749C602.433 699.731 597.319 700.537 591.786 701.14V562.59L591.705 562.313C597.726 561.771 603.252 561.033 608.102 560.125V560.132Z" stroke="black" stroke-width="0.437821" stroke-miterlimit="10"/>
</g>
<g style="mix-blend-mode:screen" opacity="0.73">
<path d="M579.202 459.008H594.312L593.703 515.052L595.796 518.283C603.835 530.69 608.115 545.157 608.115 559.942V560.131C603.286 561.032 597.78 561.777 591.786 562.312V560.626C591.752 545.414 587.045 530.094 578.532 517.484L579.202 459.008Z" fill="#BEF5FF"/>
<path d="M579.202 459.008H594.312L593.703 515.052L595.796 518.283C603.835 530.69 608.115 545.157 608.115 559.942V560.131C603.286 561.032 597.78 561.777 591.786 562.312V560.626C591.752 545.414 587.045 530.094 578.532 517.484L579.202 459.008Z" stroke="black" stroke-width="0.437821" stroke-miterlimit="10"/>
</g>
<path d="M597.286 430.354H542.183C539.291 430.354 536.947 432.697 536.947 435.589V437.133C536.947 437.905 537.571 438.528 538.343 438.528H601.126C601.898 438.528 602.521 437.905 602.521 437.133V435.589C602.521 432.697 600.178 430.354 597.286 430.354Z" fill="#019DD8"/>
<path d="M545.684 430.353C551.665 422.145 554.888 412.256 554.888 402.097V374.539C554.888 366.337 561.532 359.693 569.734 359.693C577.936 359.693 584.58 366.337 584.58 374.539V402.097C584.58 412.25 587.804 422.145 593.784 430.353H545.684Z" fill="url(#paint27_linear_1911_4123)"/>
<path d="M632.443 525.225L630.784 530.839C627.032 543.558 617.746 554.286 605.115 560.497C617.739 566.708 627.025 577.442 630.784 590.155L632.443 595.769L634.102 590.155C637.854 577.436 647.14 566.708 659.771 560.497C647.147 554.286 637.861 543.552 634.102 530.839L632.443 525.225Z" fill="url(#paint28_linear_1911_4123)"/>
<path d="M525.922 494.923C554.902 500.044 584.56 500.044 613.547 494.923C614.556 494.923 615.376 494.104 615.376 493.095V457.443C615.376 450.21 609.511 444.338 602.271 444.338H537.198C529.965 444.338 524.093 450.203 524.093 457.443V493.095C524.093 494.104 524.913 494.923 525.922 494.923Z" fill="url(#paint29_linear_1911_4123)"/>
<path d="M532.255 445.753H607.215C607.642 445.753 607.987 445.408 607.987 444.981V442.739C607.987 439.685 605.515 437.213 602.461 437.213H537.009C533.955 437.213 531.483 439.685 531.483 442.739V444.981C531.483 445.408 531.828 445.753 532.255 445.753Z" fill="#019DD8"/>
<path d="M240.146 227.861C240.146 227.861 235.358 214.986 232.682 206.581C231.165 201.819 226.959 198.413 221.982 197.945C219.347 197.702 215.947 197.553 211.558 197.6C192.845 197.796 191.348 195.44 191.348 195.44L185.361 189.561C185.361 189.561 181.372 177.749 176.13 178.04L178.873 187.813L172.134 184.116C172.134 184.116 164.149 172.101 160.16 172.846L167.895 188.064C167.895 188.064 180.119 200.038 182.117 205.03C182.117 205.03 182.117 206.784 192.595 207.779C198.954 208.382 207.522 211.01 213.272 212.981C217.363 214.383 220.505 217.715 221.623 221.894C223.153 227.617 224.765 236.083 223.526 243.33L240.132 227.861H240.146Z" fill="#FEE2CC"/>
<g style="mix-blend-mode:screen" opacity="0.73">
<path d="M533.731 622.657C531.954 622.657 530.514 621.216 530.514 619.44C530.514 617.663 531.954 616.223 533.731 616.223C535.507 616.223 536.948 617.663 536.948 619.44C536.948 621.216 535.507 622.657 533.731 622.657Z" fill="#BEF5FF"/>
<path d="M533.731 622.657C531.954 622.657 530.514 621.216 530.514 619.44C530.514 617.663 531.954 616.223 533.731 616.223C535.507 616.223 536.948 617.663 536.948 619.44C536.948 621.216 535.507 622.657 533.731 622.657Z" stroke="black" stroke-width="0.232045" stroke-miterlimit="10"/>
</g>
<g style="mix-blend-mode:screen" opacity="0.73">
<path d="M532.782 670.094C531.005 670.094 529.565 668.654 529.565 666.877C529.565 665.1 531.005 663.66 532.782 663.66C534.559 663.66 535.999 665.1 535.999 666.877C535.999 668.654 534.559 670.094 532.782 670.094Z" fill="#BEF5FF"/>
<path d="M532.782 670.094C531.005 670.094 529.565 668.654 529.565 666.877C529.565 665.1 531.005 663.66 532.782 663.66C534.559 663.66 535.999 665.1 535.999 666.877C535.999 668.654 534.559 670.094 532.782 670.094Z" stroke="black" stroke-width="0.232045" stroke-miterlimit="10"/>
</g>
<g style="mix-blend-mode:screen" opacity="0.73">
<path d="M545.685 638.465C542.333 638.465 539.616 635.748 539.616 632.396C539.616 629.045 542.333 626.328 545.685 626.328C549.036 626.328 551.753 629.045 551.753 632.396C551.753 635.748 549.036 638.465 545.685 638.465Z" fill="#BEF5FF"/>
<path d="M545.685 638.465C542.333 638.465 539.616 635.748 539.616 632.396C539.616 629.045 542.333 626.328 545.685 626.328C549.036 626.328 551.753 629.045 551.753 632.396C551.753 635.748 549.036 638.465 545.685 638.465Z" stroke="black" stroke-width="0.437821" stroke-miterlimit="10"/>
</g>
<g style="mix-blend-mode:screen" opacity="0.73">
<path d="M609.593 619.454C607.124 619.454 605.123 617.452 605.123 614.984C605.123 612.515 607.124 610.514 609.593 610.514C612.061 610.514 614.062 612.515 614.062 614.984C614.062 617.452 612.061 619.454 609.593 619.454Z" fill="#BEF5FF"/>
<path d="M609.593 619.454C607.124 619.454 605.123 617.452 605.123 614.984C605.123 612.515 607.124 610.514 609.593 610.514C612.061 610.514 614.062 612.515 614.062 614.984C614.062 617.452 612.061 619.454 609.593 619.454Z" stroke="black" stroke-width="0.323988" stroke-miterlimit="10"/>
</g>
</g>
<defs>
<linearGradient id="paint0_linear_1911_4123" x1="83.8308" y1="139.446" x2="-1.30912" y2="52.3349" gradientUnits="userSpaceOnUse">
<stop offset="0.15" stop-color="#0088C3"/>
<stop offset="1" stop-color="#0F1F42"/>
</linearGradient>
<linearGradient id="paint1_linear_1911_4123" x1="105.098" y1="144.058" x2="63.134" y2="330.918" gradientUnits="userSpaceOnUse">
<stop stop-color="#0088C3"/>
<stop offset="1" stop-color="#0F1F42"/>
</linearGradient>
<linearGradient id="paint2_linear_1911_4123" x1="134.673" y1="205.765" x2="116.692" y2="205.765" gradientUnits="userSpaceOnUse">
<stop stop-color="#0088C3"/>
<stop offset="1" stop-color="#0F1F42"/>
</linearGradient>
<linearGradient id="paint3_linear_1911_4123" x1="175.926" y1="159.96" x2="133.962" y2="346.827" gradientUnits="userSpaceOnUse">
<stop stop-color="#0088C3"/>
<stop offset="1" stop-color="#0F1F42"/>
</linearGradient>
<linearGradient id="paint4_linear_1911_4123" x1="211.571" y1="305.479" x2="180.159" y2="305.479" gradientUnits="userSpaceOnUse">
<stop stop-color="#0088C3"/>
<stop offset="1" stop-color="#0F1F42"/>
</linearGradient>
<linearGradient id="paint5_linear_1911_4123" x1="267.805" y1="180.597" x2="225.841" y2="367.463" gradientUnits="userSpaceOnUse">
<stop stop-color="#0088C3"/>
<stop offset="1" stop-color="#0F1F42"/>
</linearGradient>
<linearGradient id="paint6_linear_1911_4123" x1="175.779" y1="684.728" x2="175.21" y2="648.026" gradientUnits="userSpaceOnUse">
<stop stop-color="#0088C3"/>
<stop offset="1" stop-color="#0F1F42"/>
</linearGradient>
<linearGradient id="paint7_linear_1911_4123" x1="18.9826" y1="534.266" x2="141.867" y2="538.391" gradientUnits="userSpaceOnUse">
<stop stop-color="#BEF5FF"/>
<stop offset="1" stop-color="#0088C3"/>
</linearGradient>
<linearGradient id="paint8_linear_1911_4123" x1="255.466" y1="596.373" x2="44.5767" y2="596.373" gradientUnits="userSpaceOnUse">
<stop stop-color="#0088C3"/>
<stop offset="1" stop-color="#0F1F42"/>
</linearGradient>
<linearGradient id="paint9_linear_1911_4123" x1="120.336" y1="538.816" x2="203.986" y2="539.853" gradientUnits="userSpaceOnUse">
<stop stop-color="#0088C3"/>
<stop offset="1" stop-color="#0F1F42"/>
</linearGradient>
<linearGradient id="paint10_linear_1911_4123" x1="394.186" y1="236.233" x2="335.961" y2="393.767" gradientUnits="userSpaceOnUse">
<stop stop-color="#F0F4F8"/>
<stop offset="0.45" stop-color="#00DC86"/>
<stop offset="1" stop-color="#23626A"/>
</linearGradient>
<linearGradient id="paint11_linear_1911_4123" x1="297.491" y1="196.28" x2="259.035" y2="601.554" gradientUnits="userSpaceOnUse">
<stop offset="0.07" stop-color="white"/>
<stop offset="0.33" stop-color="#BEF5FF"/>
</linearGradient>
<linearGradient id="paint12_linear_1911_4123" x1="453.562" y1="211.085" x2="415.106" y2="616.365" gradientUnits="userSpaceOnUse">
<stop offset="0.11" stop-color="white"/>
<stop offset="0.6" stop-color="#BEF5FF"/>
</linearGradient>
<linearGradient id="paint13_linear_1911_4123" x1="438.492" y1="93.3627" x2="372.438" y2="243.223" gradientUnits="userSpaceOnUse">
<stop offset="0.3" stop-color="white"/>
<stop offset="0.46" stop-color="#FFCE4E"/>
<stop offset="0.94" stop-color="#C69024"/>
</linearGradient>
<linearGradient id="paint14_linear_1911_4123" x1="686.691" y1="120.685" x2="567.146" y2="262.038" gradientUnits="userSpaceOnUse">
<stop stop-color="#BEF5FF"/>
<stop offset="1" stop-color="#0088C3"/>
</linearGradient>
<linearGradient id="paint15_linear_1911_4123" x1="641.843" y1="157.935" x2="575.526" y2="285.326" gradientUnits="userSpaceOnUse">
<stop stop-color="#0088C3"/>
<stop offset="1" stop-color="#0F1F42"/>
</linearGradient>
<linearGradient id="paint16_linear_1911_4123" x1="648.873" y1="161.593" x2="582.556" y2="288.99" gradientUnits="userSpaceOnUse">
<stop stop-color="#0088C3"/>
<stop offset="1" stop-color="#0F1F42"/>
</linearGradient>
<linearGradient id="paint17_linear_1911_4123" x1="666.95" y1="171.004" x2="600.64" y2="298.401" gradientUnits="userSpaceOnUse">
<stop stop-color="#0088C3"/>
<stop offset="1" stop-color="#0F1F42"/>
</linearGradient>
<linearGradient id="paint18_linear_1911_4123" x1="584.787" y1="229.744" x2="560.449" y2="229.744" gradientUnits="userSpaceOnUse">
<stop stop-color="#0088C3"/>
<stop offset="1" stop-color="#0F1F42"/>
</linearGradient>
<linearGradient id="paint19_linear_1911_4123" x1="567.531" y1="229.104" x2="560.436" y2="229.104" gradientUnits="userSpaceOnUse">
<stop stop-color="#0088C3"/>
<stop offset="1" stop-color="#0F1F42"/>
</linearGradient>
<linearGradient id="paint20_linear_1911_4123" x1="190.468" y1="6.60445" x2="202.185" y2="229.197" gradientUnits="userSpaceOnUse">
<stop stop-color="white"/>
<stop offset="0.46" stop-color="#FFCE4E"/>
<stop offset="0.94" stop-color="#C69024"/>
</linearGradient>
<linearGradient id="paint21_linear_1911_4123" x1="145.349" y1="397.749" x2="145.349" y2="490.353" gradientUnits="userSpaceOnUse">
<stop stop-color="white"/>
<stop offset="0.46" stop-color="#FFCE4E"/>
<stop offset="0.94" stop-color="#C69024"/>
</linearGradient>
<linearGradient id="paint22_linear_1911_4123" x1="540.612" y1="67.8146" x2="432.987" y2="527.662" gradientUnits="userSpaceOnUse">
<stop offset="0.21" stop-color="#F5CCFF"/>
<stop offset="0.77" stop-color="#BB7AC9"/>
</linearGradient>
<linearGradient id="paint23_linear_1911_4123" x1="496.318" y1="449.96" x2="253.942" y2="744.831" gradientUnits="userSpaceOnUse">
<stop offset="0.26" stop-color="white"/>
<stop offset="0.9" stop-color="#BEF5FF"/>
</linearGradient>
<linearGradient id="paint24_linear_1911_4123" x1="637.714" y1="66.2598" x2="636.028" y2="172.585" gradientUnits="userSpaceOnUse">
<stop stop-color="white"/>
<stop offset="0.46" stop-color="#FFCE4E"/>
<stop offset="0.94" stop-color="#C69024"/>
</linearGradient>
<linearGradient id="paint25_linear_1911_4123" x1="568.956" y1="522.267" x2="568.956" y2="482.05" gradientUnits="userSpaceOnUse">
<stop offset="0.2" stop-color="#BEF5FF"/>
<stop offset="0.76" stop-color="#39C7DF"/>
</linearGradient>
<linearGradient id="paint26_linear_1911_4123" x1="568.955" y1="580.41" x2="568.955" y2="679.908" gradientUnits="userSpaceOnUse">
<stop stop-color="#0088C3"/>
<stop offset="1" stop-color="#0F1F42"/>
</linearGradient>
<linearGradient id="paint27_linear_1911_4123" x1="614.434" y1="335" x2="563.239" y2="418.433" gradientUnits="userSpaceOnUse">
<stop stop-color="#BEF5FF"/>
<stop offset="1" stop-color="#0088C3"/>
</linearGradient>
<linearGradient id="paint28_linear_1911_4123" x1="634.414" y1="501.378" x2="629.036" y2="662.765" gradientUnits="userSpaceOnUse">
<stop stop-color="white"/>
<stop offset="0.46" stop-color="#FFCE4E"/>
<stop offset="0.94" stop-color="#C69024"/>
</linearGradient>
<linearGradient id="paint29_linear_1911_4123" x1="569.735" y1="410.684" x2="569.735" y2="487.06" gradientUnits="userSpaceOnUse">
<stop stop-color="#BEF5FF"/>
<stop offset="1" stop-color="#0088C3"/>
</linearGradient>
<clipPath id="clip0_1911_4123">
<rect width="745" height="745" fill="white" transform="matrix(-1 0 0 1 745.5 0)"/>
</clipPath>
</defs>
</svg>
