<svg width="300" height="284" viewBox="0 0 300 284" fill="none" xmlns="http://www.w3.org/2000/svg">
<g clip-path="url(#clip0_469_1223)">
<path d="M234.811 38.0059L363.208 112.346V261.026L234.811 335.366L106.414 261.026V112.346L234.811 38.0059Z" fill="#019DD8"/>
<path d="M236.977 286.255C304.26 253.156 353.866 216.229 347.775 203.776C341.684 191.323 282.201 208.06 214.918 241.16C147.634 274.259 98.0279 311.186 104.119 323.639C110.211 336.092 169.693 319.354 236.977 286.255Z" fill="url(#paint0_linear_469_1223)"/>
<path d="M194.986 132.046L217.899 118.948L233.428 114.684L262.278 126.182L267.297 157.778V283.397L211.706 307.218L194.986 132.046Z" fill="url(#paint1_linear_469_1223)"/>
<path d="M245.369 221.967H243.386L210.971 126.181L243.386 123.166L245.369 221.967Z" fill="url(#paint2_linear_469_1223)"/>
<path d="M219.784 141.02C217.926 134.684 225.005 135.427 222.633 142.047C225.265 136.273 230.184 143.366 224.78 144.718C230.682 143.241 227.986 152.461 224.28 148.406C227.502 151.93 220.531 155.94 220.862 149.902C219.745 155.332 213.741 150.421 217.733 148.052C213.025 150.845 212.887 141.291 217.733 143.576C212.422 141.069 218.799 134.938 219.784 141.017V141.02Z" fill="white"/>
<path d="M217.417 115.384C217.417 115.384 207.648 122.66 206.146 127.185C206.146 127.185 214.936 131.584 212.513 134.783C210.09 137.982 207.369 148.93 207.369 148.93L243.388 221.964C243.388 221.964 215.655 134.667 217.414 115.381L217.417 115.384Z" fill="url(#paint3_linear_469_1223)"/>
<path d="M80.9711 54.9668L54.4062 70.6232V35.1428L80.9711 19.4863V54.9668Z" fill="url(#paint4_linear_469_1223)"/>
<path d="M103.944 106.046C103.871 103.043 104.605 94.6049 104.785 93.1374C105.093 90.6369 106.046 88.4164 105.854 85.8772C104.904 85.7067 103.954 86.2795 103.322 86.9875C102.67 87.7148 101.242 92.8703 100.844 93.765C100.527 93.7521 100.61 92.8253 100.533 92.5131C99.2784 87.6376 97.7797 78.4754 96.8619 73.5258C96.2971 73.2716 95.6007 73.5902 95.2477 74.1019C94.8947 74.6136 94.8081 75.2604 94.7792 75.8815C94.5706 80.0137 96.2779 84.1137 95.7548 88.2201C93.441 87.6279 91.7691 88.9184 91.6696 92.2235C91.1882 91.5123 90.4309 91.6828 89.8533 92.32C89.0221 93.2308 88.4541 94.901 87.8861 95.5446C87.6647 95.7924 87.3758 95.9791 87.1897 96.2559C86.9843 96.5616 86.9266 96.9381 86.8849 97.305C86.6313 99.5577 86.8624 99.4837 87.4625 101.669C87.655 102.37 90.0972 104.797 89.8404 104.115C90.6812 107.095 90.402 108.128 92.9147 111.555C94.1406 113.229 95.1964 117.084 95.9473 119.021C96.0179 119.201 96.0949 119.391 96.249 119.51C96.403 119.626 96.6052 119.652 96.8009 119.665C98.2418 119.774 99.6987 119.63 101.088 119.237C101.599 119.092 102.115 118.909 102.513 118.555C102.853 118.252 103.084 117.847 103.287 117.438C104.14 115.703 104.564 113.756 104.509 111.819C104.461 110.091 103.989 107.774 103.948 106.046H103.944Z" fill="#FEE2CC"/>
<path d="M80.9727 54.9668L107.538 70.6232V35.1428L80.9727 19.4863V54.9668Z" fill="#FFD066"/>
<path d="M54.4062 70.623L80.9711 86.2794L107.536 70.6262L80.9711 54.9697L54.4062 70.623Z" fill="#C69024"/>
<path d="M157.181 116.99C155.172 112.462 156.892 106.827 160.55 103.496C164.209 100.166 169.42 98.9331 174.346 99.2968C179.311 99.6604 184.262 101.62 187.677 105.254C191.438 109.254 189.689 116.678 191.64 121.914C193.851 127.852 197.586 133.155 201.742 137.883C208.898 146.028 217.444 153.156 222.688 162.653C229.045 174.168 231.115 190.558 227.184 203.205C226.677 204.837 226.048 206.498 226.215 208.197C226.426 210.34 227.877 212.181 228.236 214.305C228.987 218.707 225.091 222.315 222.373 225.855C220.031 228.912 218.41 232.452 216.809 235.957C211.151 229.82 205.282 223.293 203.382 215.155C201.572 207.412 202.763 200.727 196.803 194.841C191.155 189.264 186.088 183.121 182.08 176.247C178.088 169.395 174.869 162.122 171.66 154.868C170.065 151.261 168.464 147.647 167.26 143.888C164.568 135.492 163.705 126.136 158.236 119.23C157.758 118.628 157.492 117.692 157.181 116.987V116.99Z" fill="url(#paint5_linear_469_1223)"/>
<path d="M328.959 83.9686L299.76 101.179V62.1815L328.959 44.9707V83.9686Z" fill="#00DC86"/>
<path d="M299.76 101.179L328.959 118.387L358.162 101.183L328.959 83.9717L299.76 101.179Z" fill="#23626A"/>
<path d="M131.703 327.325C131.703 327.325 141.857 223.786 141.424 209.819C140.991 195.852 139.623 183.25 139.623 183.25C139.623 183.25 106.846 182.143 102.205 178.999C102.205 178.999 95.922 157.994 88.8203 118.854C88.8203 118.854 102.478 113.734 105.755 106.995L119.14 155.609C119.14 155.609 133.115 158.872 141.424 156.681C149.732 154.489 177.59 146.547 185.51 146.82C185.51 146.82 202.99 156.134 206.543 159.966C206.543 159.966 212.004 172.173 217.742 197.844C223.48 223.516 233.586 257.889 233.586 257.889C233.586 257.889 229.215 264.326 220.749 265.697L224.847 294.074C224.847 294.074 166.67 333.079 131.71 327.328L131.703 327.325Z" fill="white"/>
<path d="M146.299 329.637L150.942 259.4L154.662 211.06H176.079C176.079 211.06 174.532 261.833 177.084 284.573L179.888 323.397L146.299 329.633V329.637Z" fill="url(#paint6_linear_469_1223)"/>
<path d="M174.595 238.348H153.181L145.627 176.407L163.376 154.469L185.51 146.819L174.595 238.348Z" fill="url(#paint7_linear_469_1223)"/>
<path d="M162.01 139.144C162.989 143.81 163.765 148.521 164.343 153.255C164.375 153.51 164.401 153.78 164.279 154.005C164.109 154.311 163.727 154.414 163.38 154.469C162.626 154.591 161.859 154.623 161.099 154.572C160.12 158.108 160.014 162.102 160.149 165.771C160.261 168.809 160.967 172.175 163.464 173.9C164.025 174.289 164.674 174.579 165.354 174.64C166.853 174.775 168.22 173.813 169.336 172.799C173.001 169.469 175.617 165.101 177.468 160.499C179.32 155.897 180.446 151.041 181.499 146.195C180.17 144.962 178.325 143.504 177.731 141.789C176.64 138.638 176.993 135.095 175.7 132.025C175.408 131.333 175.02 130.654 174.413 130.213C173.749 129.727 172.895 129.582 172.074 129.569C169.738 129.531 167.401 130.5 165.774 132.183C164.147 133.866 161.535 136.849 162.013 139.144H162.01Z" fill="#FEE2CC"/>
<path d="M217.113 269.456L217.305 278.592C217.308 278.772 217.318 278.965 217.43 279.107C217.742 279.496 218.355 279.075 218.605 278.64C219.073 277.829 220.627 271.367 221.483 272.5C222.032 273.224 222.109 274.193 222.161 275.1C222.363 278.808 222.443 282.521 222.395 286.235C222.382 287.133 223.463 287.616 224.115 286.998C224.503 286.625 224.792 286.171 224.946 285.505C224.519 286.036 225.35 286.818 225.995 286.605C226.64 286.393 226.971 285.691 227.215 285.057C228.094 282.769 228.781 280.407 229.272 278.003C229.018 278.521 229.862 279.004 230.35 278.698C230.838 278.393 230.97 277.752 231.056 277.182C231.528 274.064 232.003 270.907 231.727 267.763C231.582 266.089 231.22 264.422 230.549 262.884C229.705 260.947 228.027 259.373 227.43 257.349C226.952 255.72 226.403 254.111 225.61 252.612C225.264 251.955 224.946 251.215 224.378 250.703C223.223 249.667 221.294 249.925 220.136 250.961C218.977 251.997 218.483 253.596 218.345 255.148C218.207 256.699 218.383 258.256 218.323 259.811C218.175 263.55 217.029 265.716 217.109 269.459L217.113 269.456Z" fill="#FEE2CC"/>
<path d="M200.916 196.931C203.779 225.479 209.192 250.04 214.587 266.817C217.244 267.242 220.013 266.916 222.5 265.883C222.5 265.883 232.128 261.668 233.585 257.893" fill="white"/>
<path d="M200.916 196.931C203.779 225.479 209.192 250.04 214.587 266.817C217.244 267.242 220.013 266.916 222.5 265.883C222.5 265.883 232.128 261.668 233.585 257.893" stroke="#264F85" stroke-width="0.474185" stroke-miterlimit="10"/>
<path d="M177.727 141.789L185.509 146.819C185.509 146.819 193.156 163.255 198.345 166.54C198.345 166.54 186.738 176.388 188.035 178.998C188.035 178.998 196.978 181.881 198.345 185.714C198.345 185.714 174.585 252.752 175.952 266.993C175.952 266.993 173.299 210.366 177.766 187.082C182.233 163.799 180.24 146.816 180.24 146.816L177.727 141.786V141.789Z" fill="url(#paint8_linear_469_1223)"/>
<g style="mix-blend-mode:darken" opacity="0.22">
<path d="M113.357 162.705C118.591 160.658 125.462 157.803 126.797 156.677C121.31 156.49 122.924 156.236 119.14 155.605C119.192 158.46 117.898 159.155 113.357 162.705Z" fill="#0088C7"/>
</g>
<path d="M204.714 159.692C203.125 164.034 202.313 168.658 202.332 173.283" stroke="#264F85" stroke-width="0.474185" stroke-miterlimit="10"/>
<path d="M205.753 252.246C199.634 253.343 193.386 253.71 187.182 253.34C186.855 259.378 187.77 265.843 189.692 271.574C190.472 273.898 191.589 276.341 193.764 277.457C194.49 277.827 195.289 278.027 196.088 278.175C198.141 278.555 200.388 278.597 202.188 277.531C205.028 275.855 205.792 272.154 206.277 268.887" stroke="#264F85" stroke-width="0.474185" stroke-miterlimit="10"/>
<path d="M186.824 258.953C193.345 260.475 200.27 260.195 206.65 258.158" stroke="#264F85" stroke-width="0.474185" stroke-miterlimit="10"/>
<path d="M208.508 85.8295C208.626 86.5278 208.886 87.2326 208.736 87.9213C208.617 88.4555 208.27 88.8996 207.994 89.3727C207.157 90.8048 206.974 92.5136 206.81 94.1678L206.194 100.382C206.136 100.958 206.085 101.566 206.335 102.085C206.704 102.847 207.59 103.179 208.402 103.41C213.148 104.765 218.193 105.048 223.058 104.237C225.468 103.835 226.1 100.694 226.755 98.3353C228.096 99.3426 229.755 98.1422 230.962 96.974C232.98 95.0174 234.283 91.8764 233.016 89.363C232.313 87.9696 230.968 87.0363 229.957 85.8488C228.064 83.625 227.319 80.4808 225.041 78.6594C224.126 77.9256 223.026 77.4654 221.906 77.1179C220.17 76.5804 218.324 76.2972 216.53 76.5804C214.737 76.8636 212.994 77.755 211.919 79.2225C211.223 80.1719 208.213 84.0691 208.511 85.8263L208.508 85.8295Z" fill="#FEE2CC"/>
<path d="M216.318 104.913C216.318 104.913 217.451 106.667 217.451 112.038C217.451 117.409 216.999 125.178 218.132 128.508C218.132 128.508 231.838 138.44 239.539 125.371L237.954 118.851C237.954 118.851 234.617 120.061 232.547 109.878L229.174 94.7852L216.318 104.913Z" fill="#FEE2CC"/>
<path d="M211.803 73.5832C209.791 75.5205 208.257 77.9535 207.371 80.6053C209.021 80.5956 210.683 80.6149 212.291 80.9818C214.242 81.4259 216.042 82.3656 217.817 83.2957L222.704 85.8541C223.474 84.8951 224.35 84.0841 224.906 82.9835C226.225 85.8573 226.94 89.0691 226.468 92.2004C226.937 91.8625 227.418 91.5181 227.967 91.3411C228.516 91.1641 229.161 91.177 229.629 91.5181C230.185 91.9236 230.364 92.6767 230.358 93.3654C230.342 95.4894 229.369 97.5587 227.341 98.1669C227.02 98.2634 226.468 98.0929 226.096 97.7678C225.413 98.5209 225.233 100.198 225.541 101.169C225.849 102.141 226.703 102.917 227.694 103.129C228.182 103.236 228.696 103.213 229.177 103.351C229.658 103.49 230.13 103.86 230.156 104.359C230.191 105.006 229.527 105.363 229.312 105.929C229.026 106.676 229.154 107.59 229.578 108.256C230.207 109.244 231.382 109.785 232.546 109.875C233.711 109.965 234.873 109.656 235.967 109.254C237.168 108.813 238.355 108.23 239.228 107.294C239.674 106.814 240.027 106.254 240.322 105.668C240.585 105.147 240.807 104.549 240.633 103.992C240.537 103.683 240.325 103.419 240.255 103.104C239.979 101.865 242.463 101.781 243.162 101.684C244.385 101.517 245.633 101.07 246.429 100.12C247.225 99.171 247.392 97.6359 246.557 96.7251C245.81 95.9109 244.388 95.6277 244.176 94.5432C243.958 93.4136 245.245 92.6574 245.98 91.7756C246.756 90.8455 246.958 89.4746 246.487 88.3579C246.015 87.2412 244.889 86.4334 243.685 86.3465C242.726 86.2757 241.57 86.5557 240.948 85.8252C240.669 85.4937 240.592 85.0431 240.499 84.6216C239.86 81.6608 237.918 79.0091 235.297 77.5094C230.82 74.9509 227.046 71.6877 221.95 70.9089C218.779 70.4229 214.117 71.353 211.803 73.58V73.5832Z" fill="#F97803"/>
<path d="M211.052 74.2921C211.052 74.2921 210.911 67.6852 213.635 62.3655C213.635 62.3655 232.973 61.4612 241.984 80.0333L240.553 84.5066C240.553 84.5066 216.662 71.2606 211.055 74.2921H211.052Z" fill="url(#paint9_linear_469_1223)"/>
<path d="M233.428 113.361C233.428 113.361 249.345 120.135 252.015 126.227L245.369 134.784L255.099 137.684C255.099 137.684 249.569 210.833 245.369 221.965C245.369 221.965 241.399 131.279 237.953 118.848C237.953 118.848 234.451 119.9 233.428 113.357V113.361Z" fill="url(#paint10_linear_469_1223)"/>
<path d="M208.102 87.0132L208.387 86.2184C208.387 86.2184 208.766 85.9416 209.834 86.5659" stroke="#C69024" stroke-width="0.474185" stroke-miterlimit="10" stroke-linecap="round"/>
<path d="M209.545 87.271C209.092 87.0103 208.864 86.6242 208.19 86.637C208.184 86.6821 207.812 86.8784 207.809 86.9267C207.924 86.9524 208.03 86.9846 208.085 87.0393C208.085 87.0393 207.963 87.4094 208.085 87.7891C208.303 88.0788 208.614 88.2365 208.922 88.1689C209.285 88.0884 209.522 87.7183 209.545 87.271Z" fill="#C69024"/>
<path d="M210.493 88.0723C210.493 88.0723 209.068 86.0899 207.168 86.8622C207.168 86.8622 207.893 86.8365 208.079 87.0231C208.079 87.0231 207.823 86.5887 208.079 87.0231" stroke="#C69024" stroke-width="0.474185" stroke-miterlimit="10" stroke-linecap="round"/>
<path d="M151.26 178.455C149.402 172.118 156.481 172.862 154.11 179.481C156.741 173.708 161.661 180.801 156.257 182.153C162.158 180.675 159.463 189.896 155.756 185.841C158.978 189.365 152.008 193.374 152.339 187.337C151.222 192.766 145.218 187.855 149.21 185.487C144.502 188.28 144.364 178.725 149.21 181.01C143.899 178.503 150.275 172.373 151.26 178.452V178.455Z" fill="white"/>
<path d="M209.273 84.519C209.526 84.6059 209.764 84.7282 210.014 84.8183C210.027 84.5898 210.181 84.3839 210.168 84.1554C210.159 83.9784 210.046 83.8239 209.902 83.7209C209.757 83.6179 209.591 83.56 209.424 83.5085C209.34 83.4828 209.25 83.457 209.164 83.4602C209.006 83.4667 208.865 83.56 208.763 83.6791C208.637 83.8271 208.426 84.1393 208.57 84.3291C208.692 84.4901 209.093 84.4611 209.273 84.5222V84.519Z" fill="#C69024"/>
<path d="M95.5938 53.3154C92.6446 51.5743 89.1499 48.7101 88.6172 45.08C88.6172 45.08 88.6236 41.0702 88.6397 39.2744C88.6429 38.7724 88.8258 38.4023 89.1403 38.2575C89.8495 37.9357 90.2057 37.7748 90.9149 37.4497C91.0946 37.3693 91.2005 37.1536 91.2005 36.8608V36.333C94.1336 38.0612 97.0635 39.7893 99.9966 41.5175V42.0453C99.9966 42.3349 100.099 42.6728 100.282 42.9689C100.991 44.1274 101.348 44.7067 102.057 45.8653C102.371 46.377 102.554 46.9627 102.557 47.4711C102.57 49.2798 102.58 53.2993 102.58 53.2993C102.58 55.5713 99.4511 55.5777 95.6034 53.3089L95.5938 53.3154Z" fill="#D7F4FB"/>
<path d="M99.8939 41.5843V41.9931C99.8939 42.3213 100.009 42.6978 100.215 43.0293C100.924 44.1879 101.28 44.7671 101.989 45.9257C102.282 46.402 102.452 46.9458 102.455 47.4189C102.468 49.2275 102.477 53.247 102.477 53.247C102.477 55.4515 99.3901 55.429 95.6002 53.1955C92.712 51.4899 89.2558 48.6965 88.7231 45.1404C88.7231 45.1404 88.7295 41.1306 88.7456 39.3381C88.7488 38.8714 88.9189 38.5271 89.2109 38.3919C89.9201 38.0701 90.2763 37.9092 90.9855 37.5841C91.1877 37.4908 91.3064 37.2527 91.3064 36.9244V36.5157C94.1721 38.2053 97.0379 39.8948 99.9036 41.5811L99.8939 41.5843ZM100.103 41.4556C97.1052 39.6888 94.108 37.9221 91.1107 36.1553V36.8053C91.1107 37.0596 91.0208 37.2495 90.8604 37.3203C90.1511 37.6421 89.7949 37.803 89.0857 38.128C88.7488 38.2793 88.5562 38.6751 88.5498 39.2125C88.537 41.0051 88.5273 45.0181 88.5273 45.0181C89.0568 48.7223 92.5933 51.6508 95.6034 53.4305C99.5121 55.7347 102.679 55.7025 102.679 53.3565C102.679 53.3565 102.673 49.3369 102.657 47.5251C102.654 46.9812 102.458 46.3569 102.121 45.8098C101.412 44.6513 101.056 44.072 100.346 42.9135C100.189 42.656 100.096 42.3567 100.096 42.1025V41.4524L100.103 41.4556Z" fill="black"/>
<path d="M95.5938 53.3144C92.6446 51.5734 89.1499 48.7092 88.6172 45.0791C88.6172 45.0791 88.6236 41.1143 88.6397 39.3057C90.2025 41.906 93.1869 43.7017 95.597 45.2046C98.5814 47.0679 101.912 48.2619 102.554 47.5024C102.564 49.282 102.574 53.3015 102.574 53.3015C102.574 55.5736 99.4447 55.58 95.597 53.3112L95.5938 53.3144Z" fill="#D7F4FB"/>
<path d="M102.452 47.7533C102.465 49.681 102.471 53.2467 102.471 53.2467C102.471 55.4512 99.3841 55.4286 95.5942 53.1952C92.706 51.4896 89.2498 48.6962 88.7171 45.1401C88.7171 45.1401 88.7235 41.5808 88.7364 39.6692C89.6991 41.2912 92.722 43.634 95.5942 45.33C98.4695 47.0227 101.489 48.2424 102.452 47.7565V47.7533ZM102.568 47.0935C102.568 48.2553 99.4451 47.3574 95.591 45.0886C92.921 43.5375 90.0457 41.6806 88.6144 38.8711L88.5342 39.2187C88.5213 41.0112 88.5117 45.0243 88.5117 45.0243C89.0412 48.7284 92.5776 51.6569 95.5878 53.4366C99.4964 55.7408 102.664 55.7086 102.664 53.3626C102.664 53.3626 102.657 49.3431 102.641 47.5312C102.609 47.3542 102.593 47.2673 102.561 47.0903L102.568 47.0935Z" fill="black"/>
<path d="M95.5947 40.2781C92.4818 38.4437 90.3125 36.413 90.3125 35.7404L90.3253 35.6117L90.3125 35.5988V33.2109C93.8329 35.2867 97.3565 37.3624 100.877 39.4381V41.8003L100.864 41.7938L100.874 41.9354C100.877 42.6434 98.7075 42.1157 95.5947 40.2781Z" fill="#D7F4FB"/>
<path d="M100.777 39.5021V41.6358L100.748 41.6229L100.777 41.9126C100.777 42.4436 98.7587 42.0252 95.5945 40.1619C92.4304 38.2953 90.4119 36.3355 90.4119 35.7884L90.4343 35.5309L90.4086 35.5148V33.3973C93.8648 35.4344 97.321 37.4715 100.777 39.5086V39.5021ZM100.976 39.3831L90.2129 33.04V35.6435H90.2161C90.2161 35.6596 90.2129 35.6725 90.2129 35.6886C90.2129 36.5414 92.6229 38.6525 95.5945 40.4065C98.5662 42.1571 100.976 42.8877 100.976 42.0316C100.976 42.0155 100.976 41.9995 100.973 41.9834H100.976V39.3831Z" fill="black"/>
<path d="M95.5947 37.7544C92.4818 35.92 90.3125 33.825 90.3125 33.0912C90.3125 32.3575 92.4818 32.8209 95.5947 34.6553C98.7075 36.4896 100.877 38.5847 100.877 39.3184C100.877 40.0522 98.7075 39.5887 95.5947 37.7544Z" fill="#D7F4FB"/>
<path d="M95.5945 34.7776C98.8068 36.6699 100.777 38.6651 100.777 39.2605C100.777 39.8559 98.8036 39.5244 95.5945 37.6321C92.3854 35.7398 90.4119 33.7445 90.4119 33.1492C90.4119 32.5538 92.3854 32.8853 95.5945 34.7776ZM95.5945 34.5362C92.6229 32.7855 90.2129 32.1129 90.2129 33.0333C90.2129 33.9537 92.6229 36.1228 95.5945 37.8735C98.5662 39.6241 100.976 40.2967 100.976 39.3763C100.976 38.4559 98.5662 36.2869 95.5945 34.5362Z" fill="black"/>
<path d="M209.885 87.5766C210.262 85.8307 209.743 84.2367 208.726 84.0162C207.709 83.7957 206.579 85.0323 206.203 86.7782C205.827 88.5241 206.346 90.1182 207.363 90.3387C208.38 90.5591 209.509 89.3225 209.885 87.5766Z" stroke="#0F1F42" stroke-width="0.948369" stroke-miterlimit="10"/>
<path d="M94.8418 90.9834C94.8321 91.5981 95.0407 92.8853 94.9733 94.5137C94.8386 97.8574 95.2878 99.4987 95.2269 99.8398C95.137 100.348 94.7198 100.844 94.2064 100.815C93.8084 100.792 93.494 100.474 93.2501 100.158C92.0723 98.6491 91.5204 94.0986 91.668 92.2192" stroke="#C69024" stroke-width="0.474185" stroke-miterlimit="10" stroke-linecap="round"/>
<path d="M94.9727 93.1375L96.2178 92.1946V90.6885" stroke="#C69024" stroke-width="0.474185" stroke-miterlimit="10" stroke-linecap="round"/>
<path d="M100.846 93.7617C100.846 93.7617 97.9671 97.9647 99.1577 101.666" stroke="#C69024" stroke-width="0.474185" stroke-miterlimit="10" stroke-linecap="round"/>
<path d="M93.2524 100.16C93.2524 100.16 94.3435 102.982 92.7806 103.046C91.2178 103.111 89.716 98.8434 89.716 98.8434L88.5254 94.5117" stroke="#C69024" stroke-width="0.474185" stroke-miterlimit="10" stroke-linecap="round"/>
<path d="M89.8379 104.111C89.8379 104.111 91.5804 105.054 91.0702 102.216" stroke="#C69024" stroke-width="0.474185" stroke-miterlimit="10" stroke-linecap="round"/>
<path d="M219.829 96.0107C220.834 96.0107 221.649 95.1938 221.649 94.186C221.649 93.1783 220.834 92.3613 219.829 92.3613C218.824 92.3613 218.01 93.1783 218.01 94.186C218.01 95.1938 218.824 96.0107 219.829 96.0107Z" fill="#EAB892"/>
<path d="M213.574 87.9073L213.693 87.4986C213.805 87.1092 214.226 86.8968 214.604 87.048C215.532 87.4149 217.136 88.2066 217.951 89.5582" stroke="#C69024" stroke-width="0.474185" stroke-miterlimit="10" stroke-linecap="round"/>
<path d="M217.9 90.3529C217.711 89.8605 215.712 88.6923 215.339 88.5153C214.9 88.3061 214.28 88.0937 213.796 88.0454C213.719 88.039 212.862 87.5949 212.865 87.6721C212.865 87.7139 213.433 88.0712 213.465 88.1001C213.777 88.3898 213.645 89.278 213.289 89.5033C213.854 89.5387 214.014 89.6255 214.457 89.8637C215.08 90.1984 217.207 90.4687 217.904 90.3496" fill="#FFFEFD"/>
<path d="M215.246 88.8575C215.272 88.7159 215.272 88.5807 215.253 88.452C214.845 88.2782 214.322 88.1076 213.87 88.04C213.744 88.1945 213.648 88.3908 213.61 88.6129C213.51 89.1793 213.796 89.6942 214.248 89.7618C214.701 89.8294 215.147 89.4239 215.246 88.8575Z" fill="#C69024"/>
<path d="M217.9 90.3529C217.711 89.8605 215.712 88.6923 215.339 88.5153C214.9 88.3061 214.28 88.0937 213.796 88.0454C213.719 88.039 212.862 87.5949 212.865 87.6721C212.865 87.7139 213.433 88.0712 213.465 88.1001C213.777 88.3898 213.645 89.278 213.289 89.5033" stroke="#C69024" stroke-width="0.474185" stroke-miterlimit="10" stroke-linecap="round"/>
<path d="M217.068 86.4179L218.233 86.9715C218.326 86.7913 218.178 86.5821 218.037 86.434C217.527 85.8934 217.01 85.3527 216.407 84.9183C215.804 84.4838 215.094 84.1684 214.353 84.1395C213.984 84.1234 213.365 84.2103 213.249 84.6512C213.121 85.1371 213.682 85.2497 214.026 85.3109C215.101 85.5008 216.092 85.9545 217.071 86.4212L217.068 86.4179Z" fill="#C69024"/>
<path d="M210.041 92.8866C210.468 92.8834 210.821 92.5519 210.853 92.1271C210.965 90.7047 211.139 87.7407 210.606 87.6699C209.948 87.5798 208.421 89.5944 207.204 91.049C207.063 91.2196 207.05 91.4609 207.179 91.6379C207.5 92.082 208.109 92.8512 208.488 92.8769C208.79 92.8962 209.489 92.893 210.038 92.8866H210.041Z" fill="#F9CCA7"/>
<path d="M119.775 56.817L208.751 6.2207L299.067 58.1429" stroke="#019DD8" stroke-width="0.474185" stroke-linecap="round" stroke-linejoin="round"/>
<path d="M174.408 130.215L177.081 134.949C177.081 139.873 163.641 148.172 163.641 148.172L162.008 139.145L174.408 130.215Z" fill="#EAB892"/>
<path d="M165.712 104.955C161.376 105.876 158.154 109.808 157.499 114.127C157.23 115.903 157.429 116.795 156.354 118.362C151.916 122.71 152.856 128.927 152.269 134.826C152.14 135.65 154.531 136.983 155.375 137.118C162.669 139.602 169.537 140.77 174.363 133.43C176.253 136.007 179.758 134.997 181.481 132.76C185.72 128.258 179.979 122.633 175.682 127.808C176.969 122.806 172.091 119.257 169.181 115.923C168.552 115.176 164.531 105.184 165.917 104.91C165.85 104.923 165.782 104.936 165.715 104.952L165.712 104.955Z" fill="#FEE2CC"/>
<path d="M163.444 121.421C163.399 120.758 163.679 120.417 164.006 119.841L163.383 118.946C163.383 118.946 166.233 120.33 168.374 123.677C168.374 123.677 166.317 123.893 164.154 122.592C164.154 122.592 163.541 122.113 162.979 121.736C162.738 121.576 163.165 121.492 163.444 121.418V121.421Z" fill="white"/>
<path d="M154.729 122.607L159.251 118.97C159.556 118.703 160.037 118.916 160.037 119.321L158.956 124.258C158.24 126.871 156.106 126.044 155.599 125.394L154.591 124.107C154.232 123.65 154.293 122.993 154.732 122.607H154.729Z" fill="#F9CCA7"/>
<path d="M154.355 123.166C154.714 124.263 157.028 125.203 158.472 125.187C157.824 127.684 153.851 124.901 154.355 123.166Z" fill="#C69024"/>
<path d="M168.332 132.177C169.97 132.177 171.298 130.845 171.298 129.203C171.298 127.561 169.97 126.229 168.332 126.229C166.695 126.229 165.367 127.561 165.367 129.203C165.367 130.845 166.695 132.177 168.332 132.177Z" fill="#EAB892"/>
<path d="M168.373 123.677C166.233 120.33 163.383 118.946 163.383 118.946L164.006 119.841C163.675 120.417 163.399 120.758 163.444 121.421C163.162 121.495 162.735 121.576 162.979 121.74" stroke="#C69024" stroke-width="0.474185" stroke-miterlimit="10" stroke-linecap="round"/>
<path d="M164.102 119.346L164.641 118.986C164.727 118.928 164.814 118.87 164.917 118.854C165.023 118.838 165.125 118.873 165.225 118.908C166.55 119.388 168.318 120.952 168.825 122.271" stroke="#C69024" stroke-width="0.474185" stroke-miterlimit="10" stroke-linecap="round"/>
<path d="M166.464 117.789C167.603 118.217 168.707 118.738 169.766 119.343C170.062 119.51 170.36 119.694 170.623 119.913C170.732 120.003 170.883 119.871 170.816 119.748C170.174 118.6 169.295 117.586 168.252 116.807C167.6 116.318 165.097 114.426 164.362 115.278C163.284 116.527 165.729 117.512 166.464 117.789Z" fill="url(#paint11_linear_469_1223)"/>
<path d="M159.128 113.293C158.871 112.817 158.508 112.144 157.924 112.041C157.616 112.556 157.305 113.238 157.786 113.724C158.075 114.017 159.044 114.693 159.42 114.683C159.635 114.236 159.343 113.686 159.128 113.293Z" fill="url(#paint12_linear_469_1223)"/>
<path d="M177.08 130.024C178.608 128.753 180.819 128.36 182.69 129.029" stroke="#C69024" stroke-width="0.474185" stroke-miterlimit="10" stroke-linecap="round"/>
<path d="M158.237 119.23C158.237 119.23 158.079 117.534 157.54 116.81C157.329 116.524 156.469 115.928 156.135 115.758L156.732 116.746L156.719 116.772C156.462 117.261 156.337 117.811 156.353 118.365C156.353 118.365 156.969 118.883 157.579 119.063C158.189 119.243 158.237 119.23 158.237 119.23Z" fill="white"/>
<path d="M158.237 119.23C158.237 119.23 158.079 117.534 157.54 116.81C157.329 116.524 156.469 115.928 156.135 115.758L156.732 116.746L156.719 116.772C156.462 117.261 156.337 117.811 156.353 118.365" stroke="#C69024" stroke-width="0.474185" stroke-miterlimit="10" stroke-linecap="round"/>
<path d="M156.885 116.244L157.539 115.758C157.539 115.758 158.695 116.691 158.762 117.927" stroke="#C69024" stroke-width="0.474185" stroke-miterlimit="10" stroke-linecap="round"/>
<path d="M153.584 128.038C153.106 128.453 152.759 129.666 152.981 130.259C153.202 130.851 153.715 131.305 154.29 131.572C154.864 131.839 155.5 131.939 156.132 132C156.408 132.025 156.69 132.045 156.969 132.045C157.768 132.045 158.513 131.63 158.953 130.96L153.584 128.038Z" fill="#F49C95"/>
<path d="M165.639 120.753C165.639 120.669 165.632 120.592 165.623 120.511C165.067 120.032 164.564 119.668 164.175 119.414C164.079 119.491 163.992 119.591 163.915 119.71L164.005 119.839C163.88 120.058 163.761 120.244 163.665 120.428C163.649 120.531 163.643 120.64 163.643 120.75C163.643 121.59 164.089 122.272 164.641 122.272C165.193 122.272 165.639 121.59 165.639 120.75V120.753Z" fill="#C69024"/>
<path d="M157.617 116.81C157.498 116.652 157.184 116.398 156.866 116.176C156.776 116.237 156.693 116.33 156.622 116.443L156.805 116.745L156.792 116.771C156.625 117.093 156.516 117.444 156.465 117.801C156.58 118.235 156.844 118.541 157.148 118.541C157.553 118.541 157.883 118.007 157.893 117.344C157.813 117.141 157.72 116.955 157.614 116.807L157.617 116.81Z" fill="#C69024"/>
<path d="M154.175 126.783L154.556 127.494C154.662 127.691 154.881 127.794 155.096 127.755L156.155 127.562C156.155 127.562 157.621 128.672 157.964 129.544C158.308 130.417 160.249 131.195 160.249 131.195C160.249 131.195 158.956 131.498 157.534 130.764C156.113 130.03 153.87 129.023 153.87 129.023L153.18 127.739C153.18 127.739 153.613 125.75 154.171 126.786L154.175 126.783Z" fill="#E28883"/>
<path d="M160.547 103.277C160.547 103.277 172.029 100.783 191.691 122.413L196.778 113.434C196.778 113.434 194.127 99.0134 166.259 90.1055L160.547 103.274V103.277Z" fill="white"/>
<path d="M170.082 94.3184L170.043 94.9716C169.96 96.452 170.486 97.9002 171.503 98.9783C170.046 99.2261 168.756 100.066 167.935 101.302L167.572 101.846L167.611 101.192C167.694 99.712 167.168 98.2639 166.15 97.1858C167.607 96.938 168.897 96.098 169.719 94.8622L170.082 94.3184Z" fill="#FFD066"/>
<path d="M207.051 92.3584C207.994 93.1855 209.121 93.6843 210.295 93.8001L222.714 94.9941C222.714 94.9941 222.631 98.6532 225.471 98.9203C225.471 98.9203 225.131 101.672 224.271 103.908C223.738 105.289 222.605 106.216 221.318 106.374C218.228 106.747 211.505 107.3 207.494 105.704C206.399 105.27 205.751 104.134 205.879 102.959L207.054 92.3616L207.051 92.3584Z" fill="url(#paint13_linear_469_1223)"/>
<path d="M217.449 89.468C217.901 87.3729 217.052 85.4112 215.554 85.0863C214.056 84.7614 212.475 86.1964 212.023 88.2915C211.571 90.3866 212.42 92.3483 213.918 92.6732C215.417 92.9981 216.998 91.5631 217.449 89.468Z" stroke="#0F1F42" stroke-width="0.948369" stroke-miterlimit="10"/>
<path d="M150.735 262.494C148.027 244.739 149.859 225.813 145.886 208.296C145.383 206.073 144.779 203.862 144.507 201.596C144.057 197.86 144.513 194.082 144.667 190.32C144.978 182.586 143.682 174.895 141.426 167.49C148.771 161.581 155.863 152.924 163.508 147.405C163.941 149.906 165.196 152.657 164.278 153.999C163.995 154.414 161.489 157.012 161.203 157.539C158.819 161.939 155.453 165.424 153.072 169.82C149.785 175.886 146.39 182.535 147.488 189.351C148.441 195.269 153.611 202.224 154.355 208.171C154.753 211.357 154.628 217.845 154.355 221.044C152.873 238.345 152.943 246.989 150.739 262.491L150.735 262.494Z" fill="url(#paint14_linear_469_1223)"/>
<path d="M236.987 285.686C169.706 318.788 110.222 335.529 104.131 323.075C103.871 322.54 103.714 321.961 103.653 321.337L103.467 321.427V349.934H348.279V205.801C347.627 220.234 300.078 254.643 236.984 285.683L236.987 285.686Z" fill="white"/>
<path d="M154.729 122.606L159.568 118.558C159.568 118.558 160.457 115.877 159.497 114.136" stroke="#C69024" stroke-width="0.474185" stroke-miterlimit="10" stroke-linecap="round"/>
<path d="M216.398 64.6982L216.386 65.3419C216.357 66.7997 216.774 68.1256 217.538 69.0042C216.475 69.4901 215.551 70.5232 214.977 71.8619L214.723 72.4541L214.736 71.8104C214.765 70.3526 214.348 69.0267 213.584 68.1481C214.646 67.6622 215.57 66.6292 216.145 65.2904L216.398 64.6982Z" fill="#FFD066"/>
<path d="M224.947 285.505C224.947 285.505 226.497 275.795 226.279 273.504" stroke="#C69024" stroke-width="0.474185" stroke-miterlimit="10" stroke-linecap="round"/>
<path d="M229.273 278.004L229.723 272.881" stroke="#C69024" stroke-width="0.474185" stroke-miterlimit="10" stroke-linecap="round"/>
<path d="M233.881 98.3319C235.447 99.8476 237.815 98.6054 237.886 96.52C237.921 95.8346 237.716 95.0944 237.176 94.6599C237.003 94.5248 236.769 94.4153 236.531 94.2512C236.044 93.9165 235.707 93.3212 235.79 92.7C235.877 92.0854 236.429 91.5576 237.064 91.6123C237.266 91.6348 237.247 91.9373 237.045 91.9341C236.621 91.9277 236.236 92.3396 236.214 92.7483C236.185 93.1731 236.438 93.6108 236.811 93.8425C237.003 93.968 237.247 94.071 237.491 94.2416C238.678 95.1459 238.694 96.9641 237.976 98.1645C237.141 99.7253 234.677 100.028 233.63 98.5346C233.515 98.3737 233.752 98.187 233.881 98.3351V98.3319Z" fill="#FEE2CC"/>
<path d="M231.205 87.6047C232.071 87.6915 232.835 86.8291 232.842 86.0116C232.842 85.5804 232.684 85.1492 232.421 84.7727C232.155 84.3961 231.799 84.0711 231.394 83.8169C231.227 83.7203 231.365 83.4532 231.539 83.5304C232.534 83.9327 233.394 84.8692 233.422 86.0084C233.432 86.9031 232.829 87.7398 231.975 87.9683C231.757 88.0359 230.932 88.0681 231.032 87.7044C231.061 87.6336 231.131 87.595 231.202 87.6047H231.205Z" fill="#FEE2CC"/>
<path d="M209.945 87.3155C209.945 87.3155 211.261 87.2897 212.031 88.297" stroke="#0F1F42" stroke-width="0.948369" stroke-miterlimit="10"/>
<path d="M217.566 89.0244L227.967 91.3383" stroke="#0F1F42" stroke-width="0.948369" stroke-miterlimit="10"/>
<path d="M227.968 91.3379L222.182 95.3671" stroke="#D7F4FB" stroke-width="0.948369" stroke-miterlimit="10" stroke-linecap="round"/>
<path d="M226.516 94.7845C226.516 94.7845 228.605 92.3515 230.357 93.3653" stroke="#C69024" stroke-width="0.474185" stroke-miterlimit="10" stroke-linecap="round"/>
<path d="M281.055 293.386L248.807 312.393V269.324L281.055 250.317V293.386Z" fill="#DE97FF"/>
<path d="M281.055 293.386L313.306 312.393V269.324L281.055 250.317V293.386Z" fill="#A827D8"/>
<path d="M273.261 271.605C274.722 263.673 270.794 259.264 263.772 264.233C257.749 268.493 252.633 277.234 254.838 284.758C253.895 288.43 251.895 299.8 259.433 298.204C260.817 298.094 261.179 299.8 264.231 297.592C266.984 295.6 266.92 293.985 267.992 292.466C272.061 286.473 276.48 279.01 273.261 271.609V271.605ZM264.748 283.223C265.184 283.107 265.406 283.049 265.842 282.933C266.012 282.888 266.128 283.011 266.128 283.242C266.128 283.545 265.935 283.928 265.698 284.102C264.411 285.032 263.766 285.498 262.479 286.432C262.241 286.602 262.049 286.499 262.049 286.197C262.049 285.965 262.161 285.678 262.334 285.476C262.771 284.958 262.992 284.7 263.429 284.182C263.856 283.677 264.324 283.339 264.751 283.226L264.748 283.223ZM259.427 283.155C258.278 283.625 257.428 283.155 256.998 282.801C256.821 282.657 256.901 282.19 257.158 281.868C257.781 281.086 258.933 279.792 260.082 279.323C261.231 278.853 262.081 279.323 262.511 279.677C262.687 279.821 262.607 280.288 262.35 280.61C261.728 281.392 260.576 282.686 259.427 283.155ZM268.059 285.572C267.28 287.037 265.794 289.508 264.09 290.741C262.386 291.973 260.9 291.651 260.12 291.317C259.931 291.236 260.078 290.734 260.332 290.602C261.153 290.174 262.53 289.399 264.09 288.269C265.649 287.14 267.029 285.923 267.848 285.164C268.098 284.932 268.249 285.218 268.059 285.572ZM271.179 272.545C270.752 273.517 269.901 275.219 268.749 276.413C267.601 277.604 266.448 277.977 265.826 278.096C265.572 278.145 265.492 277.791 265.665 277.395C266.092 276.423 266.946 274.721 268.095 273.527C269.244 272.336 270.396 271.963 271.018 271.844C271.272 271.795 271.352 272.149 271.179 272.545Z" fill="white"/>
<path d="M296.556 276.017L295.744 293.63C295.705 294.335 295.539 294.95 295.247 295.452L295.224 295.491C295.141 295.635 294.81 295.417 294.74 295.169C294.512 294.374 294.393 293.624 294.383 292.942C294.05 286.634 293.716 280.323 293.379 274.016C294.65 274.817 295.285 275.216 296.556 276.017Z" fill="#D7F4FB"/>
<path d="M293.378 274.019C292.133 270.971 290.75 267.898 289.852 264.731V264.96C289.852 263.956 290.468 263.393 291.549 263.405C292.197 263.415 292.518 263.418 293.167 263.425C294.331 263.441 296.129 264.619 297.229 266.093C297.858 266.936 298.173 267.357 298.802 268.201C299.745 269.465 300.275 270.695 300.275 271.622V271.596C300.275 272.384 296.555 276.021 296.555 276.021C295.285 275.219 294.649 274.817 293.378 274.016V274.019Z" fill="#0F1F42" stroke="#264F85" stroke-width="0.0663859" stroke-miterlimit="10"/>
<path d="M303.679 282.749C299.629 285.111 295.579 287.47 291.529 289.832C291.035 290.112 290.438 290.257 289.761 290.264H289.706C289.51 290.264 289.238 289.932 289.308 289.771C289.53 289.26 289.854 288.848 290.277 288.542C293.852 285.549 297.43 282.559 301.005 279.566C302.077 280.838 302.613 281.475 303.682 282.746L303.679 282.749Z" fill="white"/>
<path d="M57.3763 50.6125C56.6286 48.0348 59.1413 40.4881 62.6745 38.5701C66.641 36.4171 71.2974 38.4414 75.6104 36.8451C77.0352 36.1886 77.9209 34.6696 77.5776 36.401C76.4897 41.9202 74.1695 50.3229 68.6338 53.2611C65.0268 55.1759 58.1465 53.2611 57.3763 50.6125Z" fill="#264F85"/>
<path d="M73.4742 44.7423C73.256 47.3136 69.5912 52.4434 66.1768 54.1844C62.8425 55.8836 60.824 55.1434 58.2246 53.0226C57.7786 52.659 57.6823 52.9357 56.9153 53.0741C56.2735 53.19 56.1227 51.8641 56.6875 51.0853C57.0084 50.6412 58.0995 48.1213 58.2599 47.6418C59.5115 43.928 60.885 41.9971 62.8746 40.9995C66.3854 39.2424 73.7213 41.8073 73.471 44.7423H73.4742Z" fill="white"/>
<path d="M60.1302 47.1303C60.1302 51.7002 62.3188 53.7888 64.7256 52.6141C68.0085 51.0115 69.3338 46.5993 69.321 43.0497C69.321 42.2323 69.2536 41.4663 69.1285 40.7712C67.004 39.7543 64.363 39.9313 62.0588 41.3601C60.419 42.3771 60.127 44.6716 60.127 47.1303H60.1302Z" fill="#0088C7"/>
<path d="M56.916 48.8196C57.5097 45.418 57.9237 41.6173 59.2554 38.6244C62.5351 31.258 70.5643 34.901 75.7213 38.943" stroke="black" stroke-width="0.422024" stroke-linecap="round" stroke-linejoin="round"/>
<path d="M66.4784 44.4883C66.8121 42.5999 66.2989 40.9298 65.3321 40.758C64.3653 40.5862 63.311 41.9777 62.9773 43.866C62.6436 45.7544 63.1568 47.4245 64.1236 47.5963C65.0904 47.7681 66.1447 46.3766 66.4784 44.4883Z" fill="black"/>
<path d="M63.898 43.8245C64.0928 42.7219 63.7938 41.7469 63.2302 41.6467C62.6665 41.5465 62.0516 42.3591 61.8567 43.4617C61.6619 44.5642 61.9609 45.5392 62.5245 45.6394C63.0882 45.7396 63.7031 44.927 63.898 43.8245Z" fill="white"/>
<path d="M90.8519 239.536L106.204 242.867L90.7011 244.637L87.6942 259.994L85.6179 244.38L70.2656 241.049L85.7687 239.279L88.7757 223.922L90.8519 239.536Z" fill="#FFD066"/>
<path d="M187.652 30.3345L178.551 31.6701L176.892 40.7421L175.56 31.6153L166.514 29.9515L175.615 28.616L177.274 19.5439L178.606 28.6707L187.652 30.3345Z" fill="#FFD066"/>
</g>
<defs>
<linearGradient id="paint0_linear_469_1223" x1="291.118" y1="337.831" x2="229.729" y2="268.378" gradientUnits="userSpaceOnUse">
<stop offset="0.27" stop-color="#0088C3"/>
<stop offset="1" stop-color="#0F1F42"/>
</linearGradient>
<linearGradient id="paint1_linear_469_1223" x1="193.744" y1="133.854" x2="311.79" y2="358.701" gradientUnits="userSpaceOnUse">
<stop offset="0.11" stop-color="white"/>
<stop offset="0.94" stop-color="#BEF5FF"/>
<stop offset="0.96" stop-color="#39C7DF"/>
</linearGradient>
<linearGradient id="paint2_linear_469_1223" x1="275.518" y1="256.344" x2="227.944" y2="133.004" gradientUnits="userSpaceOnUse">
<stop offset="0.14" stop-color="#F0F4F8"/>
<stop offset="0.44" stop-color="#DE97FF"/>
<stop offset="0.83" stop-color="#A827D8"/>
</linearGradient>
<linearGradient id="paint3_linear_469_1223" x1="195.797" y1="103.712" x2="287.469" y2="274.835" gradientUnits="userSpaceOnUse">
<stop stop-color="#F0F4F8"/>
<stop offset="0.54" stop-color="#BEF5FF"/>
<stop offset="0.96" stop-color="#39C7DF"/>
</linearGradient>
<linearGradient id="paint4_linear_469_1223" x1="56.2547" y1="34.9754" x2="117.172" y2="88.3808" gradientUnits="userSpaceOnUse">
<stop offset="0.2" stop-color="#FFFFA8"/>
<stop offset="0.53" stop-color="#FFCE4E"/>
<stop offset="0.94" stop-color="#C69024"/>
</linearGradient>
<linearGradient id="paint5_linear_469_1223" x1="137.259" y1="93.2273" x2="184.531" y2="149.317" gradientUnits="userSpaceOnUse">
<stop stop-color="#0088C3"/>
<stop offset="1" stop-color="#0F1F42"/>
</linearGradient>
<linearGradient id="paint6_linear_469_1223" x1="118.11" y1="172.39" x2="187.017" y2="328.202" gradientUnits="userSpaceOnUse">
<stop stop-color="#F0F4F8"/>
<stop offset="0.32" stop-color="#00DC86"/>
<stop offset="1" stop-color="#23626A"/>
</linearGradient>
<linearGradient id="paint7_linear_469_1223" x1="143.028" y1="158.363" x2="254.257" y2="302.166" gradientUnits="userSpaceOnUse">
<stop stop-color="#F0F4F8"/>
<stop offset="0.45" stop-color="#00DC86"/>
<stop offset="1" stop-color="#23626A"/>
</linearGradient>
<linearGradient id="paint8_linear_469_1223" x1="178.93" y1="182.709" x2="213.161" y2="323.727" gradientUnits="userSpaceOnUse">
<stop stop-color="#F0F4F8"/>
<stop offset="0.54" stop-color="#BEF5FF"/>
<stop offset="0.96" stop-color="#39C7DF"/>
</linearGradient>
<linearGradient id="paint9_linear_469_1223" x1="214.897" y1="63.2859" x2="244.705" y2="96.1948" gradientUnits="userSpaceOnUse">
<stop stop-color="#F0F4F8"/>
<stop offset="0.54" stop-color="#BEF5FF"/>
<stop offset="0.96" stop-color="#39C7DF"/>
</linearGradient>
<linearGradient id="paint10_linear_469_1223" x1="207.784" y1="97.289" x2="299.459" y2="268.41" gradientUnits="userSpaceOnUse">
<stop stop-color="#F0F4F8"/>
<stop offset="0.54" stop-color="#BEF5FF"/>
<stop offset="0.96" stop-color="#39C7DF"/>
</linearGradient>
<linearGradient id="paint11_linear_469_1223" x1="153.13" y1="102.486" x2="171.316" y2="121.821" gradientUnits="userSpaceOnUse">
<stop stop-color="#0088C3"/>
<stop offset="1" stop-color="#0F1F42"/>
</linearGradient>
<linearGradient id="paint12_linear_469_1223" x1="150.547" y1="104.919" x2="168.729" y2="124.254" gradientUnits="userSpaceOnUse">
<stop stop-color="#0088C3"/>
<stop offset="1" stop-color="#0F1F42"/>
</linearGradient>
<linearGradient id="paint13_linear_469_1223" x1="196.965" y1="85.1851" x2="229.751" y2="112.587" gradientUnits="userSpaceOnUse">
<stop offset="0.11" stop-color="white"/>
<stop offset="0.94" stop-color="#BEF5FF"/>
<stop offset="0.96" stop-color="#39C7DF"/>
</linearGradient>
<linearGradient id="paint14_linear_469_1223" x1="143.958" y1="150.424" x2="177.121" y2="287.038" gradientUnits="userSpaceOnUse">
<stop stop-color="#F0F4F8"/>
<stop offset="0.54" stop-color="#BEF5FF"/>
<stop offset="0.96" stop-color="#39C7DF"/>
</linearGradient>
<clipPath id="clip0_469_1223">
<rect width="482" height="284" fill="white" transform="translate(-91)"/>
</clipPath>
</defs>
</svg>
