<svg width="34" height="34" viewBox="0 0 34 34" fill="none" xmlns="http://www.w3.org/2000/svg">
<path fill-rule="evenodd" clip-rule="evenodd" d="M22.3132 7.80583C25.6005 9.70035 27.626 13.2059 27.6257 17C27.6311 20.7992 25.6049 24.3113 22.3132 26.2083V30.345C22.3132 31.7768 21.1525 32.9375 19.7207 32.9375H14.2807C12.8489 32.9375 11.6882 31.7768 11.6882 30.345V26.2083C8.38652 24.3179 6.34961 20.8046 6.34961 17C6.34961 13.1954 8.38652 9.68205 11.6882 7.79167V3.655C11.6882 2.2232 12.8489 1.0625 14.2807 1.0625H19.7207C21.1525 1.0625 22.3132 2.2232 22.3132 3.655V7.80583ZM19.7207 30.8125C19.9789 30.8125 20.1882 30.6032 20.1882 30.345V27.1433C18.1118 27.786 15.8896 27.786 13.8132 27.1433V30.345C13.8132 30.6032 14.0225 30.8125 14.2807 30.8125H19.7207ZM14.9324 13.2317C14.7399 12.89 14.7512 12.4701 14.9619 12.1394C15.1725 11.8086 15.5482 11.6208 15.9392 11.6507C16.3302 11.6806 16.6729 11.9235 16.8307 12.2825L18.9557 16.5325C19.1565 16.9393 19.0768 17.4287 18.7574 17.7508L16.6324 19.8333C16.4342 20.034 16.1636 20.1463 15.8815 20.145C15.5992 20.148 15.328 20.0354 15.1307 19.8333C14.9282 19.636 14.814 19.3652 14.814 19.0825C14.814 18.7998 14.9282 18.529 15.1307 18.3317L16.7174 16.745L14.9324 13.2317ZM13.8132 6.85667C15.8896 6.21402 18.1118 6.21402 20.1882 6.85667V3.655C20.1882 3.39681 19.9789 3.1875 19.7207 3.1875H14.2807C14.0225 3.1875 13.8132 3.39681 13.8132 3.655V6.85667Z" fill="#0199D6"/>
</svg>
