<svg width="616" height="574" viewBox="0 0 616 574" fill="none" xmlns="http://www.w3.org/2000/svg">
<path d="M622.894 -47.6719H-2.67676V577.898H622.894V-47.6719Z" stroke="white" stroke-width="1.2283" stroke-miterlimit="10"/>
<path d="M493.389 321.917C495.332 292.517 472.848 289.263 457.325 271.741C440.704 252.981 466.733 215.175 418.416 212.325C395.489 210.97 416.741 181.312 398.323 163.487C388.579 154.057 371.208 161.074 368.71 142.863C367.993 137.632 373.078 123.66 359.291 119.69C347.621 116.324 343.611 105.527 341.421 92.2386C340.385 85.961 337.949 79.969 334.063 74.929C309.361 42.8802 259.415 66.893 263.268 110.03C266.846 150.103 236.091 118.407 238.113 163.146C237.502 175.063 201.08 178.96 200.71 212.79C200.71 213.176 200.738 213.563 200.761 213.949C201.483 227.462 167.978 230.659 179.128 261.191C180.141 310.258 144.167 281.373 135.28 311.837C133.863 316.703 133.969 321.878 135.392 326.744C142.437 350.824 130.749 343.779 121.504 360.059C116.245 369.321 114.974 380.325 117.606 390.646C155.49 538.99 313.892 452.503 423.786 476.639C471.532 488.534 498.978 477.855 524.155 453.999C534.924 443.795 543.598 401.991 514.943 386.003C497.516 376.282 491.748 346.669 493.383 321.934L493.389 321.917Z" fill="url(#paint0_linear_1920_4882)"/>
<path d="M396.917 199.86C411.404 184.847 438.755 156.029 441.202 148.122C442.26 144.695 441.952 140.052 448.319 134.049C452.547 130.062 454.877 125.923 455.963 123.588C456.456 122.53 457.951 122.502 458.489 123.538C459.346 125.184 459.654 128.068 456.747 132.739C456.747 132.739 462.073 131.535 466.015 129.653C472.416 126.601 484.798 122.619 484.103 125.979C484.103 125.979 490.129 123.818 491.411 125.789C492.408 127.329 491.411 128.947 491.411 128.947C491.411 128.947 494.122 129.899 491.383 132.47C489.351 134.379 477.731 138.742 469.863 142.684C469.863 142.684 469.678 143.81 475.485 143.25C481.292 142.69 487.85 142.875 488.415 144C488.981 145.126 483.919 145.316 471.363 148.318C458.808 151.319 448.784 160.705 444.803 168.399C440.821 176.094 418.701 223.705 403.811 237.565C403.811 237.565 390.981 233.707 379.367 223.761C379.367 223.761 390.751 200.297 390.796 199.737C391.306 193.639 396.917 199.866 396.917 199.866V199.86Z" fill="#FEE2CC"/>
<path d="M155.949 423.221C149.078 445.728 136.17 466.358 118.938 482.38C109.469 491.183 98.0895 499.622 95.2279 512.228C94.1191 517.1 94.4327 522.213 93.3127 527.085C92.1927 531.957 89.0399 536.929 84.1287 537.865C80.7463 538.509 77.3527 537.114 73.9367 536.644C68.8575 535.949 63.7615 537.327 58.7047 538.189C46.8215 540.228 34.4567 539.41 22.9375 535.837C23.6655 532.522 28.0839 532.063 31.4719 531.8C40.5495 531.094 48.9271 526.525 56.0895 520.908C63.2519 515.285 69.4791 508.571 76.3727 502.624C80.3207 499.219 84.4983 496.055 88.0767 492.264C93.2231 486.815 96.9807 480.235 101.007 473.913C112.896 455.242 127.467 438.319 138.376 419.061C141.904 417.481 144.486 415.219 148.26 414.39C150.102 413.981 152.074 413.679 153.843 414.329C155.613 414.978 156.498 421.407 155.949 423.21V423.221Z" fill="url(#paint1_linear_1920_4882)"/>
<path d="M264.718 333.107C266.89 321.907 269.058 310.713 271.23 299.513C272.3 293.985 273.375 288.458 274.098 282.875C276.814 262.009 275.682 245.249 273.521 224.321C271.432 230.941 270.659 233.64 267.473 240.298C255.741 236.255 241.713 234.004 229.505 236.238C235.805 217.831 242.581 199.581 249.822 181.521C251.927 176.262 254.089 170.998 256.973 166.126C258.955 162.777 261.313 159.585 264.404 157.222C266.241 155.822 268.296 154.736 270.374 153.728C277.57 150.239 285.152 147.545 292.936 145.725C305.71 142.735 318.45 147.814 331.195 144.701C331.195 144.701 351.154 140.853 376.107 169.626L399.885 193.992C399.885 193.992 384.619 219.237 381.685 233.332C381.685 233.332 365.848 220.989 354.346 206.642C354.346 206.642 360.685 216.851 350.162 235.068C342.406 248.491 399.885 448.876 399.885 448.876H240.755L264.718 333.101V333.107Z" fill="url(#paint2_linear_1920_4882)"/>
<path d="M272.916 539.132H167.54C167.54 539.132 154.889 531.606 158.827 512.53C162.765 493.455 173.694 469.226 251.099 441.174L305.519 440.34L323.109 521.335L308.903 539.132H272.911H272.916Z" fill="url(#paint3_linear_1920_4882)"/>
<path d="M375.39 413.656C357.532 431.867 352.856 461.698 364.285 484.502C366.189 488.298 368.53 491.95 371.694 494.783C378.257 500.652 387.452 502.315 396.144 503.749C388.796 514.68 390.964 530.954 400.915 539.583H548.884C548.884 539.583 575.288 532.281 577.701 509.153C580.115 486.025 561.153 477.205 544.241 470.854C544.241 470.854 549.32 456.182 517.787 446.573C486.253 436.963 440.434 439.819 440.434 439.819L375.384 413.65L375.39 413.656Z" fill="url(#paint4_linear_1920_4882)"/>
<path d="M549.197 472.786C549.197 472.786 478.061 442.294 430.539 441.404L440.44 439.83C440.44 439.83 526.439 431.296 549.197 466.772V472.792V472.786Z" fill="url(#paint5_linear_1920_4882)"/>
<path d="M297.551 187.953C292.785 174.524 310.946 176.098 304.864 190.126C311.612 177.89 324.229 192.92 310.369 195.787C325.506 192.657 318.59 212.195 309.081 203.599C317.341 211.07 299.466 219.565 300.317 206.775C297.456 218.283 282.056 207.878 292.292 202.855C280.224 208.774 279.866 188.524 292.292 193.368C278.673 188.054 295.025 175.062 297.551 187.947V187.953Z" fill="white"/>
<path d="M253.557 129.467C251.989 128.755 250.701 127.686 249.911 126.191C248.282 126.213 246.719 126 245.23 125.58C245.14 125.558 245.056 125.535 244.972 125.507C244.938 125.496 244.91 125.485 244.877 125.479C241.606 124.522 238.857 122.685 236.886 120.479C235.424 118.995 234.125 117.275 233.01 115.383C233.582 116.822 234.41 117.936 234.41 117.936C219.856 101.455 229.432 87.4386 229.432 87.4386C229.253 88.609 229.18 89.8018 229.174 90.9946C229.225 90.7706 229.275 90.5466 229.331 90.3226C229.538 87.3434 230.222 84.2298 231.616 81.1498C235.48 72.621 239.596 71.8538 241.354 71.9826C242.06 71.4394 242.788 70.9298 243.527 70.4482C248.774 63.0618 255.438 65.7274 255.438 65.7274C260.826 61.4266 265.866 65.6546 265.866 65.6546C265.866 65.6546 271.953 61.6618 274.915 68.6226C274.915 68.6226 284.575 65.3914 284.99 76.8042C293.63 75.6842 291.161 89.2082 291.161 89.2082C296.01 99.1426 293.009 107.302 288.053 113.367C280.706 126.353 263.654 135.503 253.574 129.472L253.557 129.467Z" fill="url(#paint6_radial_1920_4882)"/>
<path d="M271.718 125.77C271.718 125.77 273.599 129.618 265.468 130.827C265.468 130.827 297.556 123.76 293.776 99.0137C293.776 99.0137 294.084 113.988 271.718 125.77Z" fill="url(#paint7_linear_1920_4882)"/>
<path d="M233.913 110.351C233.913 110.351 225.132 95.511 231.572 81.3038C236.657 70.0814 242.184 72.299 242.184 72.299C242.184 72.299 234.45 86.6182 239.776 104.997C239.776 104.997 232.401 104.034 233.913 110.345V110.351Z" stroke="white" stroke-width="1.2283" stroke-linecap="round" stroke-linejoin="round"/>
<path d="M247.722 103.853C247.722 103.853 243.125 73.1817 255.394 65.8849C255.394 65.8849 246.77 62.4297 241.422 74.2401C241.422 74.2401 234.355 90.0489 239.776 105.001C239.776 105.001 243.181 99.6641 247.722 103.847V103.853Z" stroke="white" stroke-width="1.2283" stroke-linecap="round" stroke-linejoin="round"/>
<path d="M256.066 105.341C256.066 105.341 258.026 82.7727 265.821 65.8103C265.821 65.8103 260.781 61.5879 255.394 65.8831C250.343 69.9151 245.269 75.0391 247.722 103.851C247.722 103.851 252.672 100.626 256.066 105.341Z" stroke="white" stroke-width="1.2283" stroke-linecap="round" stroke-linejoin="round"/>
<path d="M229.393 87.5957C229.393 87.5957 219.823 101.613 234.371 118.093C234.371 118.093 230.345 112.673 233.912 110.354C233.912 110.354 227.808 98.0453 229.387 87.5957H229.393Z" stroke="white" stroke-width="1.2283" stroke-linecap="round" stroke-linejoin="round"/>
<path d="M265.822 65.8097C265.822 65.8097 271.909 61.8169 274.871 68.7777C274.871 68.7777 271.013 94.8905 262.109 107.916C262.109 107.916 261.51 102.546 256.066 105.34C256.066 105.34 259.264 75.4585 265.822 65.8097Z" stroke="white" stroke-width="1.2283" stroke-linecap="round" stroke-linejoin="round"/>
<path d="M274.871 68.7798C274.871 68.7798 284.531 65.5485 284.945 76.9613C284.945 76.9613 280.527 105.801 267.63 111.833C267.63 111.833 268.98 106.322 262.108 107.924C262.108 107.924 273.723 87.9261 274.871 68.7853V68.7798Z" stroke="white" stroke-width="1.2283" stroke-linecap="round" stroke-linejoin="round"/>
<path d="M272.233 118.165C272.233 118.165 288.977 109.804 291.111 89.3644C291.111 89.3644 293.581 75.8404 284.94 76.9604C284.94 76.9604 280.079 107.318 267.625 111.832C267.625 111.832 273.449 111.988 272.228 118.171L272.233 118.165Z" stroke="white" stroke-width="1.2283" stroke-linecap="round" stroke-linejoin="round"/>
<path d="M271.718 125.769C271.718 125.769 301.936 110.352 291.111 89.3633C291.111 89.3633 292.477 105.189 272.233 118.164C272.233 118.164 275.101 121.283 271.718 125.769V125.769Z" stroke="white" stroke-width="1.2283" stroke-linecap="round" stroke-linejoin="round"/>
<path d="M223.507 150.141C223.115 148.466 222.314 146.993 220.998 145.929C221.334 144.339 221.43 142.76 221.306 141.214C221.301 141.125 221.295 141.035 221.284 140.945C221.284 140.912 221.278 140.878 221.273 140.845C220.97 137.451 219.699 134.399 217.913 132.036C216.742 130.317 215.303 128.709 213.662 127.248C214.962 128.088 215.897 129.118 215.897 129.118C202.541 111.652 186.939 118.327 186.939 118.327C188.121 118.377 189.308 118.534 190.478 118.764C190.249 118.764 190.019 118.775 189.79 118.786C186.822 118.417 183.641 118.478 180.348 119.251C171.231 121.39 169.686 125.282 169.467 127.029C168.801 127.617 168.157 128.228 167.541 128.866C159.281 132.585 160.602 139.641 160.602 139.641L160.614 139.629V139.641C155.344 144.093 158.514 149.855 158.514 149.855C158.514 149.855 153.418 155.052 159.673 159.308C159.673 159.308 154.633 168.156 165.749 170.771C162.977 179.031 176.725 179.227 176.725 179.227H176.742L176.758 179.238L176.725 179.227C180.062 184.295 195.978 186.479 202.882 182.789C226.29 171.925 223.502 156.043 223.502 150.146L223.507 150.141Z" fill="url(#paint8_radial_1920_4882)"/>
<path d="M226.218 149.389L235.727 148.313L234.618 138.508L197.803 142.663C196.443 142.814 195.586 145.138 195.894 147.843C196.202 150.548 197.551 152.62 198.912 152.469L226.218 149.389Z" fill="url(#paint9_linear_1920_4882)"/>
<path d="M235.73 148.31C237.091 148.156 237.947 145.837 237.641 143.129C237.336 140.422 235.984 138.351 234.623 138.505C233.261 138.659 232.405 140.978 232.711 143.686C233.017 146.393 234.368 148.464 235.73 148.31Z" fill="white" stroke="black" stroke-width="1.2283" stroke-linecap="round" stroke-linejoin="round"/>
<path d="M244.562 123.089L240.038 132.749L248.975 136.933L262.494 108.395C263.076 107.768 260.707 106.581 258.238 105.421C255.768 104.262 254.049 104.044 253.741 104.374L244.562 123.089Z" fill="url(#paint10_linear_1920_4882)"/>
<path d="M248.963 136.915C249.611 135.531 248.136 133.473 245.668 132.318C243.201 131.162 240.675 131.347 240.027 132.731C239.379 134.115 240.854 136.173 243.322 137.328C245.79 138.484 248.315 138.299 248.963 136.915Z" fill="white" stroke="black" stroke-width="1.2283" stroke-linecap="round" stroke-linejoin="round"/>
<path d="M230.558 142.915C230.558 142.915 225.199 132.567 229.511 128.462C233.823 124.357 246.933 128.96 263.419 148.011C279.906 167.063 381.422 307.169 381.422 307.169L373.784 335.931C373.784 335.931 242.279 168.58 230.564 142.91L230.558 142.915Z" fill="url(#paint11_linear_1920_4882)"/>
<path d="M208.561 127.174C208.561 127.174 195.698 115.688 180.516 119.255C168.521 122.072 169.63 127.924 169.63 127.924C169.63 127.924 185.175 123.108 202.177 131.895C202.177 131.895 202.658 124.475 208.561 127.179V127.174Z" stroke="white" stroke-width="1.2283" stroke-linecap="round" stroke-linejoin="round"/>
<path d="M199.505 139.457C199.505 139.457 170.307 129.008 160.77 139.636C160.77 139.636 159.051 130.508 171.673 127.546C171.673 127.546 188.552 123.671 202.171 131.886C202.171 131.886 196.274 134.193 199.505 139.457V139.457Z" stroke="white" stroke-width="1.2283" stroke-linecap="round" stroke-linejoin="round"/>
<path d="M199.355 147.935C199.355 147.935 176.837 145.487 158.682 149.85C158.682 149.85 155.512 144.087 160.776 139.635C165.71 135.458 171.719 131.471 199.511 139.456C199.511 139.456 195.384 143.684 199.36 147.935H199.355Z" stroke="white" stroke-width="1.2283" stroke-linecap="round" stroke-linejoin="round"/>
<path d="M187.107 118.329C187.107 118.329 202.709 111.654 216.065 129.12C216.065 129.12 211.523 124.119 208.561 127.171C208.561 127.171 197.663 118.799 187.107 118.329V118.329Z" stroke="white" stroke-width="1.2283" stroke-linecap="round" stroke-linejoin="round"/>
<path d="M158.681 149.851C158.681 149.851 153.585 155.048 159.841 159.304C159.841 159.304 186.205 160.57 200.709 154.359C200.709 154.359 195.557 152.735 199.354 147.936C199.354 147.936 169.417 145.287 158.681 149.851Z" stroke="white" stroke-width="1.2283" stroke-linecap="round" stroke-linejoin="round"/>
<path d="M159.841 159.304C159.841 159.304 154.801 168.152 165.917 170.767C165.917 170.767 195.071 172.016 203.476 160.531C203.476 160.531 197.809 160.783 200.71 154.359C200.71 154.359 178.842 161.886 159.841 159.304V159.304Z" stroke="white" stroke-width="1.2283" stroke-linecap="round" stroke-linejoin="round"/>
<path d="M208.807 166.283C208.807 166.283 197.36 181.095 176.898 179.23C176.898 179.23 163.15 179.034 165.922 170.774C165.922 170.774 196.643 171.883 203.481 160.537C203.481 160.537 202.507 166.283 208.807 166.283V166.283Z" stroke="white" stroke-width="1.2283" stroke-linecap="round" stroke-linejoin="round"/>
<path d="M216.361 168.607C216.361 168.607 199.505 192.485 176.893 179.225C176.893 179.225 192.158 183.632 208.801 166.277C208.801 166.277 211.31 171.054 216.361 168.607Z" stroke="white" stroke-width="1.2283" stroke-linecap="round" stroke-linejoin="round"/>
<path d="M381.416 307.177C381.416 307.177 279.893 167.071 263.412 148.02C258.591 142.448 254.06 138.119 249.95 134.871L262.488 108.394C263.071 107.767 260.702 106.58 258.232 105.421C255.763 104.267 254.044 104.043 253.736 104.373L244.557 123.089L241.595 129.417C235.866 126.544 231.621 126.454 229.499 128.47C226.872 130.962 227.83 135.773 228.984 139.155L197.792 142.677C196.431 142.829 195.574 145.153 195.882 147.857C196.19 150.562 197.54 152.634 198.9 152.483L226.206 149.403L233.626 148.569C256.67 186.934 373.766 335.95 373.766 335.95L381.404 307.189L381.416 307.177Z" stroke="white" stroke-width="1.2283" stroke-miterlimit="10"/>
<path d="M378.532 331.771L383.332 326.037L232.77 127.119C231.409 127.248 230.306 127.707 229.511 128.463C228.38 129.538 227.915 131.05 227.848 132.686L378.538 331.766L378.532 331.771Z" fill="url(#paint12_linear_1920_4882)"/>
<path d="M316.221 219.498C316.467 219.016 316.781 218.478 317.313 218.389C317.777 218.31 318.237 218.63 318.466 219.038C318.696 219.447 318.741 219.934 318.769 220.405C318.953 223.457 318.533 226.699 316.691 229.141C315.907 230.182 314.899 231.028 313.902 231.862C313.017 232.602 311.158 234.769 309.814 234.035C308.325 233.223 309.489 231.342 310.061 230.395C312.217 226.817 314.322 223.227 316.221 219.503V219.498Z" fill="#F9CCA7"/>
<path d="M233.733 236.221C233.733 236.221 225.91 264.949 229.001 274.547C232.092 284.146 253.809 298.224 292.202 262.664L314.266 246.284C314.266 246.284 326.194 238.847 332.158 240.185L335.927 243.467C335.927 243.467 337.876 236.657 335.927 235.196C335.927 235.196 336.414 229.965 333.01 229.842C333.01 229.842 332.769 224.853 328.754 225.463C328.754 225.463 328.754 220.233 324.985 221.084C321.216 221.935 304.668 236.047 304.668 236.047C304.668 236.047 288.019 245.455 261.716 253.424L267.518 239.995C267.518 239.995 258.098 236.618 250.443 235.801C243.93 235.106 237.149 235.767 233.733 236.221Z" fill="#FEE2CC"/>
<path d="M461.664 231.634C462.583 230.178 462.975 228.442 462.846 226.723C461.843 213.613 450.509 202.368 437.315 208.248C434.459 209.52 433.328 207.257 429.05 207.991C420.644 209.436 417.402 212.146 413.151 217.197C404.091 227.96 402.534 235.924 405.832 250.472C406.935 257.775 411.147 266.259 419.216 267.138C407.753 271.444 388.612 296.101 397.023 307.228C423.993 317.017 440.395 290.753 446.947 268.303C453.449 259.08 463.921 277.257 465.842 245.337C467.583 239.776 458.607 236.5 461.675 231.628L461.664 231.634Z" fill="#C69024"/>
<path d="M406.761 494.062H468.535L407.265 490.344L406.761 494.062Z" fill="#057C49"/>
<path d="M468.535 132.984L471.918 131.606C475.793 130.027 480.57 127.541 484.45 125.973" fill="white"/>
<path d="M468.535 132.984L471.918 131.606C475.793 130.027 480.57 127.541 484.45 125.973" stroke="#AB8360" stroke-width="1.2283" stroke-miterlimit="10"/>
<path d="M497.913 340.588L509.6 391.929L550.015 462.259C550.015 462.259 559.575 464.902 566.888 468.542C569.683 469.931 571.732 472.468 572.544 475.475L577.209 498.575C577.209 498.575 572.074 482.755 563.181 479.849L544.247 470.855C544.247 470.855 493.556 419.721 487.43 404.529C481.303 389.336 477.188 357.086 477.188 357.086L497.913 340.588Z" fill="#FEE2CC"/>
<path d="M111.63 282.225L123.664 375.689C124.112 379.161 126.363 383.826 129.595 385.17C136.494 388.031 149.419 388.938 164.023 378.069C164.023 378.069 154.739 353.07 149.217 351.071L147.638 350.326L122.606 274.357C122.606 274.357 123.395 266.707 121.335 261.555C119.274 256.403 116.373 253.077 116.054 253.077C115.735 253.077 111.523 246.547 109.944 241.703C109.944 241.703 106.808 242.017 106.573 245.282C106.338 248.546 108.466 254.13 108.046 255.916C107.626 257.702 78.4554 253.917 78.4554 253.917C78.4554 253.917 72.4914 253.351 74.1882 256.336C74.1882 256.336 68.3586 256.039 69.081 259.08C69.081 259.08 70.369 260.239 71.0018 260.239C71.2258 260.239 71.041 260.239 70.705 260.239C69.249 260.239 67.8098 260.738 66.7402 261.729C65.9954 262.412 65.5978 263.185 66.6618 263.717C66.6618 263.717 100.805 269.502 105.968 272.554C105.968 272.554 110.734 274.894 111.624 282.225H111.63Z" fill="#FEE2CC"/>
<path d="M424.368 285.651L402.763 286.894C395.102 287.336 382.357 291.71 372.725 327.421C363.093 363.132 361.39 370.216 361.39 370.216C361.39 370.216 383.779 366.532 397.096 368.234C397.096 368.234 392.56 401.957 373.005 413.863C373.005 413.863 394.229 450.212 440.44 439.83C440.44 439.83 448.806 413.661 474.745 362.281L478.145 383.819C478.145 383.819 497.537 370.088 509.6 366.453C509.6 366.453 500.813 331.392 495.432 312.402C490.05 293.412 468.966 282.364 456.181 284.217L424.368 285.656V285.651Z" fill="url(#paint13_linear_1920_4882)"/>
<path d="M521.288 270.045L464.716 520.444C463.305 526.609 460.964 532.523 457.772 537.977L457.52 538.408C456.591 539.993 454.183 539.484 453.97 537.664C453.298 531.828 453.46 525.932 454.44 520.141L481.808 354.84L497.908 266.002L521.282 270.045H521.288Z" fill="url(#paint14_linear_1920_4882)" stroke="#264F85" stroke-width="1.2283" stroke-miterlimit="10"/>
<path d="M442.529 333.19C441.891 330.916 439.292 329.651 436.722 330.367C436.588 330.407 436.453 330.457 436.313 330.513C436.386 330.384 436.453 330.255 436.504 330.127C437.545 327.668 436.621 324.93 434.448 324.006C432.27 323.082 429.666 324.331 428.624 326.789C428.568 326.918 428.524 327.052 428.484 327.198C428.428 327.058 428.367 326.929 428.3 326.806C427.028 324.459 424.312 323.474 422.235 324.599C420.157 325.725 419.502 328.542 420.779 330.888C420.846 331.011 420.924 331.135 421.008 331.252C420.868 331.213 420.723 331.174 420.588 331.151C417.962 330.681 415.492 332.193 415.078 334.517C414.664 336.847 416.461 339.109 419.088 339.579C419.222 339.602 419.368 339.619 419.519 339.63C419.396 339.714 419.284 339.803 419.177 339.899C417.172 341.663 416.814 344.53 418.376 346.305C419.939 348.08 422.828 348.091 424.833 346.327C424.94 346.238 425.04 346.131 425.136 346.025C425.13 346.171 425.124 346.316 425.136 346.456C425.264 349.122 427.28 351.188 429.644 351.076C432.007 350.964 433.816 348.707 433.687 346.042C433.681 345.902 433.664 345.762 433.636 345.611C433.748 345.711 433.86 345.801 433.972 345.885C436.14 347.447 439.012 347.156 440.396 345.241C441.779 343.326 441.146 340.503 438.979 338.941C438.867 338.857 438.744 338.784 438.615 338.711C438.76 338.689 438.906 338.655 439.04 338.622C441.611 337.905 443.179 335.475 442.54 333.201L442.529 333.19Z" fill="white"/>
<path d="M364.151 369.906C364.151 369.906 355.516 398.27 362.505 403.73C381.685 418.727 455.902 386.168 465.131 384.942C474.359 383.716 488.527 386.017 497.051 383.284C497.051 383.284 505.087 380.714 502.354 375.405C502.354 375.405 506.285 370.886 502.919 368.495C502.919 368.495 507.976 363.836 505.087 361.26C505.087 361.26 509.914 359.204 502.679 352.932C502.679 352.932 500.108 355.133 501.234 357.088C502.359 359.042 486.769 362.088 484.518 360.487C483.286 359.613 481.091 357.67 481.819 354.842C483.84 347.013 483.549 343.939 483.549 343.446C483.549 342.701 480.295 349.914 474.163 354.652C472.999 355.553 471.918 356.567 471.022 357.737C469.482 359.742 467.27 363.001 466.088 366.451C464.162 372.079 427.207 373.367 411.091 375.814L395.327 376.889L397.096 368.226C397.096 368.226 379.288 365.09 364.151 369.9V369.906Z" fill="#FEE2CC"/>
<path d="M202.099 289.452C202.099 289.452 201.975 299.762 200.777 309.064C200.777 309.064 196.98 323.562 203.79 327.516C210.599 331.469 239.837 338.632 240.711 302.187L226.543 279.731C226.543 279.731 202.972 273.851 202.099 289.452Z" fill="#FEE2CC"/>
<path d="M201.835 298.958C201.835 298.958 210.425 298.958 222.667 278.691L217.101 276.244L202.098 289.455L201.841 298.958H201.835Z" fill="#EAB892"/>
<path d="M513.414 196.896L497.913 266L521.287 270.044L531.983 198.89L513.414 196.896Z" fill="url(#paint15_linear_1920_4882)"/>
<path d="M200.772 309.067C200.772 309.067 181.099 312.309 169.703 328.498L146.799 347.208C146.799 347.208 164.792 375.275 165.867 383.91L187.931 369.518L189.236 381.895C189.65 385.837 191.632 389.482 194.802 391.863C197.972 394.243 202.468 396.326 207.66 395.066L214.508 413.663C214.508 413.663 224.868 427.4 225.591 433.006L221.828 448.887C221.828 448.887 272.334 456.066 303.487 439.832L289.504 407.671V357.092C289.504 357.092 299.92 322.68 277.693 313.093C255.467 303.506 240.694 302.195 240.694 302.195C240.694 302.195 230.972 328.661 210.532 323.705C210.532 323.705 199.652 318.995 200.755 309.067H200.772Z" fill="url(#paint16_linear_1920_4882)"/>
<path d="M189.476 253.619C187.057 255.433 184.996 258.099 184.19 261.017C183.725 262.697 182.655 274.457 182.767 281.333C182.779 282.039 182.958 285.382 183.417 285.92C185.719 288.636 195.435 291.234 209.171 289.252C211.355 288.367 216.205 285.802 218.294 279.502C218.988 282.666 223.771 282.134 225.563 281.048C227.775 279.704 229.925 278.069 230.485 275.453C230.67 274.585 230.362 273.93 230.412 273.045C230.474 271.847 229.315 270.206 228.48 269.344C227.825 268.666 226.817 268.481 225.876 268.459C223.138 268.386 221.559 269.316 219.537 271.169C217.09 267.809 213.243 264.237 210.795 260.877C208.331 257.494 207.155 256.682 205.627 252.79C204.092 248.898 202.278 241.797 203.863 237.922C202.155 237.306 199.892 237.513 198.235 238.269C195.451 239.541 187.085 245.415 189.482 253.625L189.476 253.619Z" fill="#FEE2CC"/>
<path d="M186.351 263.432L191.57 258.801C192.035 258.392 192.763 258.717 192.763 259.338V265.963C192.763 267.139 192.04 268.192 190.943 268.618C189.767 269.071 188.434 268.702 187.667 267.705L186.138 265.734C185.595 265.028 185.684 264.026 186.351 263.432Z" fill="#F9CCA7"/>
<path d="M184.862 275.665C182.112 279.109 190.658 282.85 195.765 277.905C195.933 277.743 189.661 275.503 188.429 274.887C187.113 274.226 186.385 273.761 184.856 275.665H184.862Z" fill="#F49C95"/>
<path d="M204.955 276.982C207.971 276.982 210.415 275.026 210.415 272.614C210.415 270.202 207.971 268.246 204.955 268.246C201.94 268.246 199.495 270.202 199.495 272.614C199.495 275.026 201.94 276.982 204.955 276.982Z" fill="#F9CCA7"/>
<path d="M202.966 254.958C205.324 256.016 207.698 257.08 210.218 257.651C210.302 256.548 209.552 255.551 208.729 254.812C206.858 253.138 204.355 252.186 201.846 252.186C201.146 252.186 199.528 252.398 199.981 253.457C200.289 254.168 202.311 254.666 202.972 254.963L202.966 254.958Z" fill="#C69024"/>
<path d="M189.09 249.822C189.09 249.822 190.618 250.572 191.873 251.328C192.584 251.759 193.474 251.166 193.346 250.342C193.306 250.102 193.239 249.838 193.138 249.564C192.668 248.31 190.691 247.218 190.047 246.887C189.93 246.826 189.79 246.87 189.728 246.982C189.442 247.526 188.709 249.049 189.09 249.816V249.822Z" fill="#C69024"/>
<path d="M185.781 264.287C186.324 265.973 189.841 267.412 192.03 267.389C191.045 271.22 185.013 266.953 185.781 264.287Z" fill="#C69024"/>
<path d="M188.188 253.625L189.207 252.315C189.207 252.315 190.086 252.029 191.716 253.855" fill="#FEE2CC"/>
<path d="M188.188 253.625L189.207 252.315C189.207 252.315 190.086 252.029 191.716 253.855" stroke="#C69024" stroke-width="1.2283" stroke-linecap="round" stroke-linejoin="round"/>
<path d="M200.245 258.391L200.637 257.545C201.012 256.739 201.992 256.425 202.759 256.873C204.646 257.971 207.855 260.222 209.171 263.403" stroke="#C69024" stroke-width="1.2283" stroke-linecap="round" stroke-linejoin="round"/>
<path d="M190.932 244.699C190.932 244.699 188.127 238.701 194.18 233.095C200.234 227.49 213.971 221.436 225.63 223.609C225.63 223.609 234.937 224.606 235.48 229.847C235.48 229.847 246.776 232.015 249.038 243.495C251.3 254.975 247.464 268.919 247.464 268.919C247.464 268.919 244.81 273.203 249.749 275.37C254.688 277.537 259.751 278.114 259.028 288.233C259.028 288.233 259.174 292.567 264.668 291.991C270.161 291.414 275.072 300.665 269.87 307.603C264.668 314.542 274.35 317.146 277.24 316.855C280.129 316.563 293.401 325.204 283.164 336.371C283.164 336.371 278.225 344.776 286.984 345.616C295.742 346.456 307.933 350.382 307.166 361.604C306.399 372.827 324.067 445.179 284.805 438.167C245.544 431.156 268.257 403.951 268.257 403.951C268.257 403.951 268.257 397.22 260.126 396.66C251.995 396.1 246.944 381.63 253.955 375.823C260.966 370.015 253.815 367.109 250.382 366.459C246.949 365.81 234.607 354.246 248.349 341.943C262.092 329.639 239.568 329.634 237.788 327.394C236.007 325.154 224.79 315.992 234.887 302.199C234.887 302.199 226.616 296.42 226.548 280.41C230.541 277.582 230.412 274.703 230.054 272.352C229.533 268.896 225.322 266.69 219.532 271.175C212.599 262.109 199.971 253.463 203.852 237.928C203.852 237.928 198.347 235.565 190.932 244.71V244.699Z" fill="url(#paint17_linear_1920_4882)"/>
<path d="M97.8765 264.286C97.8765 264.286 85.7189 259.688 78.4333 261.105C77.5149 261.284 77.4533 262.583 78.3437 262.863C80.7461 263.625 84.3749 264.919 87.4941 266.599" stroke="#AB8360" stroke-width="1.2283" stroke-miterlimit="10"/>
<path d="M74.1992 256.334L94.7008 259.593" stroke="#AB8360" stroke-width="1.2283" stroke-miterlimit="10"/>
<path d="M71.0083 260.24L77.9019 261.422" stroke="#AB8360" stroke-width="1.2283" stroke-miterlimit="10"/>
<path d="M127.344 206.474C127.322 204.11 126.275 201.876 124.477 200.347L114.968 192.249C114.117 191.527 113.63 190.463 113.63 189.349V186.504H65.4197V189.349C65.4197 190.463 64.9325 191.527 64.0813 192.249L54.5725 200.347C52.7749 201.882 51.7277 204.11 51.7053 206.474C51.6325 214.353 51.5933 231.914 51.5933 231.914C51.5933 242.162 68.5781 250.467 89.5277 250.467C110.477 250.467 127.462 242.162 127.462 231.914C127.462 231.914 127.423 214.353 127.35 206.474H127.344Z" fill="url(#paint18_linear_1920_4882)"/>
<path d="M51.7053 206.473C51.6325 214.352 51.5933 231.914 51.5933 231.914C51.5933 242.162 68.5781 250.467 89.5277 250.467C110.477 250.467 127.462 242.162 127.462 231.914C127.462 231.914 127.423 214.352 127.35 206.473L126.924 204.754C126.924 209.839 110.18 213.96 89.5277 213.96C68.8749 213.96 52.1309 209.839 52.1309 204.754L51.7053 206.473Z" fill="url(#paint19_linear_1920_4882)"/>
<path d="M118.379 175.123H60.6768V186.508H60.6992C60.6936 186.575 60.6768 186.642 60.6768 186.704C60.6768 190.439 73.596 193.463 89.528 193.463C105.46 193.463 118.379 190.439 118.379 186.704C118.379 186.637 118.368 186.569 118.357 186.508H118.379V175.123Z" fill="url(#paint20_linear_1920_4882)"/>
<path d="M89.528 182.425C105.462 182.425 118.379 179.156 118.379 175.123C118.379 171.09 105.462 167.82 89.528 167.82C73.5939 167.82 60.6768 171.09 60.6768 175.123C60.6768 179.156 73.5939 182.425 89.528 182.425Z" fill="url(#paint21_linear_1920_4882)"/>
<path d="M208.796 265.109C208.549 263.984 204.607 260.797 203.857 260.288C202.972 259.689 201.701 259.022 200.67 258.759C200.508 258.714 198.8 257.477 198.777 257.645C198.766 257.734 199.875 258.697 199.931 258.77C200.508 259.493 199.931 261.374 199.08 261.738C200.289 262.001 200.609 262.242 201.493 262.909C202.731 263.844 207.245 265.132 208.79 265.109H208.796Z" fill="#FFFEFD"/>
<path d="M192.035 257.117C192.035 257.117 190.568 252.53 186.525 252.805C186.525 252.805 187.903 253.202 188.138 253.667C188.138 253.667 187.97 254.182 188.183 255.157C188.183 255.157 186.699 255.958 188.58 256.422C190.462 256.887 192.035 257.117 192.035 257.117Z" fill="#FFFEFD"/>
<path d="M195.692 349.53C192.45 338.504 204.803 339.798 200.665 351.317C205.257 341.27 213.842 353.613 204.411 355.965C214.71 353.394 210.006 369.438 203.538 362.382C209.16 368.514 196.997 375.492 197.574 364.986C195.625 374.434 185.147 365.888 192.114 361.766C183.899 366.627 183.658 350.001 192.114 353.977C182.846 349.614 193.973 338.946 195.692 349.525V349.53Z" fill="white"/>
<path d="M188.171 369.254L185.471 353.395L178.359 375.761L188.171 369.254Z" fill="#009EDE"/>
<path d="M203.857 237.917C203.857 237.917 214.861 231.376 235.486 229.842L238.291 230.743L234.007 231.46C223.491 233.219 213.209 236.187 203.364 240.303L203.471 239.076L203.857 237.923V237.917Z" fill="#E5AE4C"/>
<path d="M190.736 254.996C190.047 254.229 189.851 253.361 188.58 252.98C188.54 253.064 187.717 253.199 187.689 253.288C187.891 253.406 188.064 253.535 188.137 253.669C188.137 253.669 187.678 254.291 187.672 255.075C187.902 255.747 188.395 256.24 189.016 256.296C189.744 256.368 190.422 255.82 190.741 254.996H190.736Z" fill="#C69024"/>
<path d="M203.548 260.993C203.649 260.696 203.694 260.405 203.694 260.119C202.871 259.604 201.79 259.066 200.832 258.77C200.507 259.061 200.239 259.453 200.082 259.923C199.679 261.116 200.127 262.32 201.084 262.617C202.042 262.914 203.145 262.186 203.548 260.998V260.993Z" fill="#C69024"/>
<path d="M270.744 295.852C269.361 293.36 267.07 291.731 264.662 291.983C259.169 292.56 259.023 288.225 259.023 288.225C259.096 287.228 259.107 286.321 259.073 285.498L228.094 291.277C230.508 299.117 234.881 302.18 234.881 302.18C234.781 302.32 234.691 302.455 234.596 302.595L270.738 295.852H270.744Z" fill="#C69024"/>
<path d="M310.392 398.308C310.252 394.102 309.944 389.913 309.563 385.932L257.058 395.732C258.01 396.247 259.04 396.577 260.121 396.65C268.252 397.21 268.252 403.941 268.252 403.941C268.252 403.941 267.446 404.904 266.404 406.517L310.386 398.308H310.392Z" fill="#C69024"/>
<path d="M251.519 276.092C250.936 275.857 250.343 275.621 249.755 275.364C244.816 273.196 247.47 268.913 247.47 268.913C247.47 268.913 247.991 267.008 248.54 264.029L216.597 267.636C217.644 268.817 218.641 269.988 219.543 271.164C225.333 266.678 229.544 268.885 230.065 272.34C230.351 274.221 230.485 276.433 228.492 278.69L251.524 276.092H251.519Z" fill="#C69024"/>
<path d="M283.853 344.741C279.636 342.378 283.17 336.363 283.17 336.363C284.626 334.773 285.606 333.239 286.205 331.771L251.692 338.211C250.981 339.309 249.9 340.541 248.344 341.93C244.216 345.626 242.447 349.249 242.077 352.536L283.848 344.741H283.853Z" fill="#C69024"/>
<path d="M314.894 77.6442C314.894 77.6442 310.845 94.2202 305.514 99.5514L303.509 97.5522C302.221 96.2698 300.255 95.8106 298.603 96.5722C298.374 96.6786 298.155 96.8018 297.954 96.9474C296.766 97.7986 295.77 99.9938 296.8 103.012C299.354 110.483 305.962 107.834 305.962 107.834C305.962 107.834 306.152 132.86 292.292 146.076C292.292 146.076 299.538 162.283 315.958 158.441C332.377 154.599 331.307 144.794 331.307 144.794C331.307 144.794 320.645 140.745 322.14 127.098L323.635 119.633C323.635 119.633 335.787 121.341 336.857 116.01C336.857 116.01 336.84 113.249 335.238 112.336C335.238 112.336 334.667 110.964 335.927 109.015C335.927 109.015 335.815 107.755 335.014 107.296C335.014 107.296 335.586 105.353 335.356 104.552C335.356 104.552 334.27 104.25 333.754 103.219L333.066 101.803C333.066 101.803 335.726 99.1426 335.681 97.8546C335.681 97.8546 330.182 94.7074 329.846 92.333C329.51 89.9586 329.151 88.2618 328.132 86.481C327.113 84.7002 320.062 77.0058 314.899 77.6274L314.894 77.6442Z" fill="#FEE2CC"/>
<path d="M317.627 111.66C319.888 111.66 321.72 109.827 321.72 107.566C321.72 105.305 319.888 103.473 317.627 103.473C315.366 103.473 313.533 105.305 313.533 107.566C313.533 109.827 315.366 111.66 317.627 111.66Z" fill="#F9CCA7"/>
<path d="M317.984 96.9827C317.984 96.9827 323.904 98.7355 325.673 94.5859" stroke="black" stroke-width="1.2283" stroke-linecap="round" stroke-linejoin="round"/>
<path d="M335.351 104.557C335.351 104.557 334.494 105.363 333.727 104.965C333.727 104.965 332.909 106.349 331.66 107.323C330.999 107.838 330.176 108.068 329.336 108.135C329.23 108.141 329.163 108.174 329.202 108.247C329.269 108.365 332.758 109.283 335.003 107.306C335.003 107.306 335.922 104.82 335.345 104.562L335.351 104.557Z" fill="#E27E79"/>
<path d="M315.493 93.0963C315.493 93.0963 320.068 89.3667 325.573 88.5043C325.573 88.5043 325.433 88.0059 324.649 87.3675C323.865 86.7291 316.271 88.2691 315.487 93.0907L315.493 93.0963Z" fill="url(#paint22_linear_1920_4882)"/>
<path d="M335.921 109.022L335.227 110.562C335.227 110.562 332.897 110.674 330.17 108.915C329.991 108.798 330.215 108.557 330.428 108.574C331.649 108.669 333.793 108.613 335.003 107.297C335.003 107.297 336.19 108.047 335.916 109.016L335.921 109.022Z" fill="#F49C95"/>
<path d="M323.635 119.646C323.635 119.646 315.879 118.486 312.514 114.902L322.034 128.466L323.635 119.646Z" fill="#EAB892"/>
<path d="M512.893 199.605L484.562 139.422C484.562 139.422 491.826 131.784 503.855 128.816L508.844 142.575L512.271 127.326C512.271 127.326 546.919 119.822 567.672 140.178L534.24 195.848L574.583 148.953C574.583 148.953 579.998 153.282 580.905 155.808L563.366 175.178L582.792 158.21C582.792 158.21 585.671 161.049 586.32 163.351L531.3 202.775C531.3 202.775 521.237 200.473 512.893 199.605Z" fill="url(#paint23_linear_1920_4882)"/>
<path d="M501.306 129.535L514.948 196.897L512.271 127.328" stroke="#BEF5FF" stroke-width="1.2283" stroke-miterlimit="10"/>
<path d="M470.501 136.561C474.236 134.915 487.598 128.939 491.764 128.939" stroke="#AB8360" stroke-width="1.2283" stroke-miterlimit="10"/>
<path d="M521.377 200.817L526.949 125.973" stroke="#BEF5FF" stroke-width="1.2283" stroke-miterlimit="10"/>
<path d="M533.529 126.213L524.16 200.816" stroke="#BEF5FF" stroke-width="1.2283" stroke-miterlimit="10"/>
<path d="M560.269 134.357L526.949 201.854" stroke="#BEF5FF" stroke-width="1.2283" stroke-miterlimit="10"/>
<path d="M516.717 200.111L503.815 267.02L511.095 268.28L522.463 201.007L516.717 200.111Z" fill="white"/>
<path d="M435.266 258.01C435.501 268.179 431.48 278.383 424.368 285.651C424.368 285.651 437.489 303.678 452.503 296.706C452.503 296.706 457.867 291.263 456.182 284.212C456.182 284.212 452.2 284.061 451.433 282.375C450.666 280.69 456.512 266.746 456.512 266.746L435.271 258.01H435.266Z" fill="#FEE2CC"/>
<path d="M434.856 258.34C434.856 258.34 444.393 280.23 452.222 278.158L456.512 266.745L434.856 258.34Z" fill="#EAB892"/>
<path d="M445.62 217.197C445.62 217.197 460.387 225.58 462.235 230.777L462.263 234.294C462.056 235.262 462.314 236.27 462.952 237.026C464.044 238.309 465.668 240.375 466.099 241.714C466.76 243.78 466.816 252.494 467.589 255.338C468.182 257.522 469.23 259.516 467.88 261.627C466.368 263.99 449.529 269.333 444.702 267.037C439.88 264.741 434.851 258.334 434.851 258.334C434.851 258.334 431.609 262.137 427.935 259.146C424.906 256.682 422.184 253.02 424.934 250.265C426.037 249.162 427.605 248.663 429.156 248.786L433.289 251.01C433.289 251.01 444.433 227.63 445.62 217.186V217.197Z" fill="#FEE2CC"/>
<path d="M456.646 238.996L458.203 244.904C458.505 246.046 459.805 246.59 460.829 246.002L463.445 244.495C464.128 244.103 464.313 243.202 463.837 242.574C462.078 240.25 458.153 235.53 456.792 237.719C456.557 238.094 456.529 238.565 456.641 238.996H456.646Z" fill="#EAB892"/>
<path d="M451.752 237.309C451.522 238.384 451.841 238.065 452.026 239.218C452.222 240.445 452.233 241.201 453.202 240.954C453.353 240.977 448.806 243.905 444.993 244.611C446.404 242.399 446.521 241.38 451.752 237.309Z" fill="white"/>
<path d="M447.159 234.771C448.436 234.138 449.797 233.679 451.057 233.007C451.152 232.957 451.253 232.895 451.314 232.806C451.393 232.677 451.37 232.52 451.348 232.374C451.275 231.915 451.158 231.389 450.749 231.159C450.402 230.963 449.97 231.058 449.595 231.182C447.394 231.898 445.546 233.416 443.883 235.029C442.69 236.182 441.554 237.414 440.708 238.842C440.568 239.083 440.428 239.363 440.506 239.632C440.758 240.489 441.509 239.369 441.694 239.15C442.192 238.534 442.735 237.958 443.318 237.426C444.466 236.367 445.765 235.477 447.165 234.782L447.159 234.771Z" fill="#C69024"/>
<path d="M445.502 257.064C447.333 257.064 448.817 255.58 448.817 253.749C448.817 251.918 447.333 250.434 445.502 250.434C443.671 250.434 442.187 251.918 442.187 253.749C442.187 255.58 443.671 257.064 445.502 257.064Z" fill="#F9CCA7"/>
<path d="M452.221 240.691C452.558 239.456 452.108 238.257 451.215 238.014C450.323 237.771 449.327 238.575 448.99 239.81C448.653 241.045 449.104 242.244 449.996 242.487C450.888 242.731 451.884 241.926 452.221 240.691Z" fill="#C69024"/>
<path d="M460.197 255.646C461.574 255.522 462.89 255.03 464.173 254.526C464.951 254.218 465.746 253.887 466.329 253.294C466.911 252.7 467.225 251.77 466.855 251.026C466.754 250.824 466.609 250.639 466.407 250.533C465.819 250.208 464.481 250.69 463.938 251.082C462.291 252.263 460.734 252.134 458.808 252.829C458.31 253.008 457.106 253.966 457.369 254.811C457.604 255.556 459.592 255.707 460.191 255.651L460.197 255.646Z" fill="#F49C95"/>
<path d="M466.374 248.569C465.545 247.987 464.257 247.617 463.652 248.418C463.367 248.793 463.137 249.325 462.667 249.364C462.437 249.381 462.224 249.263 461.995 249.23C461.412 249.135 460.88 249.549 460.477 249.975C459.211 251.313 458.327 253.027 456.943 254.208C456.77 254.354 456.899 254.639 457.123 254.6C458.343 254.404 459.29 253.928 460.466 253.245C461.888 252.416 463.081 251.845 464.531 251.072C465.03 250.809 465.567 250.781 465.999 250.417C466.43 250.053 466.374 249.123 466.379 248.569H466.374Z" fill="#E28883"/>
<path d="M233.134 505.208L281.843 499.631L279.944 505.208H233.134Z" fill="#009EDE"/>
<path d="M395.326 376.892L404.527 335.934L401.301 376.326L395.326 376.892Z" fill="#05AF66"/>
<path d="M508.637 52.3852C492.078 80.8836 486.932 95.5332 481.096 106.806C480.816 107.344 480.301 107.696 479.758 107.428L474.718 106.985L474.707 87.3124C471.464 81.3652 467.539 75.4516 462.992 70.7868C468.009 61.9332 471.789 54.4572 474.679 48.09L474.656 10.2676L483.964 13.0004C483.964 13.0004 491.759 28.35 508.643 52.3908L508.637 52.3852Z" fill="#A37624"/>
<path d="M501.548 52.6354C490.706 69.945 482.256 87.6746 474.712 106.989C471.935 100.011 462.426 80.4506 452.492 65.0506C466.878 36.1322 472.641 18.9906 474.651 10.7754C479.613 22.1882 492.851 42.9026 501.548 52.6354Z" fill="#FFD066"/>
<path d="M216.361 168.604C216.361 168.604 216.378 171.426 219.228 169.959C219.228 169.959 204.142 193.972 178.617 181.041L176.887 179.221C176.887 179.221 197.5 193.171 216.356 168.604H216.361Z" stroke="white" stroke-width="1.2283" stroke-linecap="round" stroke-linejoin="round"/>
<path d="M462.229 237.217C462.347 237.172 462.47 237.127 462.56 237.032C462.633 236.959 462.678 236.864 462.717 236.763C463.154 235.671 462.907 234.311 462.106 233.471C462.045 233.409 461.978 233.347 461.899 233.331C461.826 233.319 461.759 233.347 461.692 233.381C460.706 233.818 458.729 235.106 458.729 236.416C458.729 238.292 461.311 237.547 462.235 237.211L462.229 237.217Z" fill="white"/>
<path d="M333.06 101.812C333.06 101.812 332.483 102.081 330.03 102.277L330.333 102.49C331.363 103.212 332.612 103.56 333.872 103.47H333.889C333.889 103.47 333.536 102.793 333.065 101.812H333.06Z" fill="#F9CCA7"/>
<path d="M186.351 263.43C186.351 263.43 192.713 257.617 193.032 257.119C193.351 256.62 192.763 254.918 192.763 254.918" stroke="#C69024" stroke-width="1.2283" stroke-linecap="round" stroke-linejoin="round"/>
<path d="M208.796 265.109C208.549 263.984 204.607 260.797 203.857 260.288C202.972 259.689 201.701 259.022 200.67 258.759C200.508 258.714 198.8 257.477 198.777 257.645C198.766 257.734 199.875 258.697 199.931 258.77C200.508 259.493 199.931 261.374 199.08 261.738" stroke="#C69024" stroke-width="1.2283" stroke-linecap="round" stroke-linejoin="round"/>
<path d="M192.035 257.078C192.035 257.078 190.568 252.491 186.525 252.766C186.525 252.766 187.903 253.163 188.138 253.628C188.138 253.628 187.925 252.654 188.138 253.628" stroke="#C69024" stroke-width="1.2283" stroke-linecap="round" stroke-linejoin="round"/>
<path d="M315.011 357.088H308V375.814H315.011V357.088Z" fill="white" stroke="black" stroke-width="1.2283" stroke-miterlimit="10"/>
<path d="M360.83 384.248L350.425 375.82H304.192L293.815 384.164C291.34 386.152 289.906 389.154 289.906 392.329V509.162H364.717V392.391C364.717 389.232 363.289 386.236 360.836 384.248H360.83Z" fill="url(#paint24_linear_1920_4882)"/>
<path d="M360.477 384.248L350.072 375.82H303.839L293.462 384.164C290.987 386.152 289.553 389.154 289.553 392.329V509.162H364.364V392.391C364.364 389.232 362.936 386.236 360.483 384.248H360.477Z" stroke="white" stroke-width="1.2283" stroke-miterlimit="10"/>
<path d="M348.695 354.809L341.717 348.61C339.455 346.599 337.568 344.208 336.14 341.537L335.961 341.201C333.978 337.488 332.937 333.344 332.937 329.133V305.17C332.937 301.861 330.344 299.022 327.034 298.96C323.725 298.898 320.908 301.614 320.908 304.974V329.542C320.908 333.495 319.995 337.393 318.237 340.932C316.713 343.995 314.591 346.722 311.998 348.957L305.116 355.24C304.449 355.85 304.069 356.707 304.069 357.609L304.052 375.814H349.781L349.77 357.211C349.77 356.293 349.378 355.419 348.689 354.809H348.695Z" fill="url(#paint25_linear_1920_4882)"/>
<g style="mix-blend-mode:screen">
<path d="M322.56 391.922C323.994 391.933 325.444 391.933 326.922 391.933C328.866 391.933 330.775 391.928 332.64 391.911V388.108C330.775 388.092 328.866 388.086 326.922 388.086C325.444 388.086 323.994 388.086 322.56 388.097V391.916V391.922Z" fill="#BEF5FF"/>
<path d="M322.56 391.922C323.994 391.933 325.444 391.933 326.922 391.933C328.866 391.933 330.775 391.928 332.64 391.911V388.108C330.775 388.092 328.866 388.086 326.922 388.086C325.444 388.086 323.994 388.086 322.56 388.097V391.916V391.922Z" stroke="black" stroke-width="1.2283" stroke-miterlimit="10"/>
</g>
<path d="M332.64 360.979H322.56V502.323H332.64V360.979Z" fill="#00A8E1"/>
<path d="M326.922 439.834C347.644 439.834 364.442 438.305 364.442 436.418C364.442 434.531 347.644 433.002 326.922 433.002C306.201 433.002 289.402 434.531 289.402 436.418C289.402 438.305 306.201 439.834 326.922 439.834Z" fill="url(#paint26_linear_1920_4882)"/>
<path d="M364.442 436.416C364.442 437.374 345.621 439.832 326.922 439.832C308.218 439.832 289.638 437.374 289.638 436.416V509.16H364.448V436.416" fill="url(#paint27_linear_1920_4882)"/>
<g style="mix-blend-mode:screen">
<path d="M322.56 435.365C323.994 435.365 325.444 435.376 326.922 435.376C328.866 435.376 330.775 435.376 332.64 435.359V433.013C330.775 433.002 328.866 432.996 326.922 432.996C325.444 432.996 323.994 432.996 322.56 433.007V435.365Z" fill="#0F1F42"/>
</g>
<g style="mix-blend-mode:screen" opacity="0.53">
<path d="M303.498 452.469C305.524 452.469 307.166 450.827 307.166 448.801C307.166 446.775 305.524 445.133 303.498 445.133C301.472 445.133 299.83 446.775 299.83 448.801C299.83 450.827 301.472 452.469 303.498 452.469Z" fill="#BEF5FF"/>
</g>
<g style="mix-blend-mode:screen" opacity="0.53">
<path d="M316.943 474.106C318.969 474.106 320.611 472.463 320.611 470.438C320.611 468.412 318.969 466.77 316.943 466.77C314.918 466.77 313.275 468.412 313.275 470.438C313.275 472.463 314.918 474.106 316.943 474.106Z" fill="#BEF5FF"/>
</g>
<g style="mix-blend-mode:screen" opacity="0.53">
<path d="M347.474 449.826C349.5 449.826 351.142 448.184 351.142 446.158C351.142 444.132 349.5 442.49 347.474 442.49C345.448 442.49 343.806 444.132 343.806 446.158C343.806 448.184 345.448 449.826 347.474 449.826Z" fill="#BEF5FF"/>
</g>
<path d="M349.787 357.088H304.058V375.814H349.787V357.088Z" fill="url(#paint28_linear_1920_4882)"/>
<path d="M319.899 357.088H310.105V375.814H319.899V357.088Z" fill="#009EDE"/>
<g style="mix-blend-mode:screen" opacity="0.73">
<path d="M315.532 509.162H301.476V396.232C301.476 393.539 301.716 387.552 303.469 385.032L308.509 375.82H322.565L317.525 385.032C315.772 387.552 315.537 393.539 315.537 396.232V509.162H315.532Z" fill="#009EDE"/>
<path d="M315.532 509.162H301.476V396.232C301.476 393.539 301.716 387.552 303.469 385.032L308.509 375.82H322.565L317.525 385.032C315.772 387.552 315.537 393.539 315.537 396.232V509.162H315.532Z" stroke="black" stroke-width="1.2283" stroke-miterlimit="10"/>
</g>
<g style="mix-blend-mode:screen" opacity="0.55">
<path d="M326.923 391.939C347.295 391.939 363.81 391.076 363.81 390.012C363.81 388.948 347.295 388.086 326.923 388.086C306.551 388.086 290.036 388.948 290.036 390.012C290.036 391.076 306.551 391.939 326.923 391.939Z" fill="#BEF5FF"/>
<path d="M326.923 391.939C347.295 391.939 363.81 391.076 363.81 390.012C363.81 388.948 347.295 388.086 326.923 388.086C306.551 388.086 290.036 388.948 290.036 390.012C290.036 391.076 306.551 391.939 326.923 391.939Z" stroke="black" stroke-width="1.2283" stroke-miterlimit="10"/>
</g>
<path d="M311.607 397.428H301.611L302.098 388.625H311.607V397.428Z" fill="white"/>
<g style="mix-blend-mode:darken" opacity="0.22">
<path d="M347.731 509.162H361.384V396.232C361.384 393.539 361.474 385.912 359.777 383.392L350.431 375.82H340.911L345.805 385.032C347.502 387.552 347.737 393.539 347.737 396.232V509.162H347.731Z" fill="#0088C7"/>
</g>
<g style="mix-blend-mode:screen" opacity="0.73">
<path d="M311.052 509.162H304.489V396.232C304.489 393.539 304.601 387.552 305.419 385.032L307.771 375.82H314.334L311.982 385.032C311.164 387.552 311.052 393.539 311.052 396.232V509.162Z" fill="#BEF5FF"/>
<path d="M311.052 509.162H304.489V396.232C304.489 393.539 304.601 387.552 305.419 385.032L307.771 375.82H314.334L311.982 385.032C311.164 387.552 311.052 393.539 311.052 396.232V509.162Z" stroke="black" stroke-width="1.2283" stroke-miterlimit="10"/>
</g>
<path d="M390.964 508.515H390.852C389.172 508.543 388.321 506.723 389.497 505.625L389.536 505.591C405.21 490.942 404.247 477.267 394.385 468.497C384.524 459.733 369.499 459.195 353.825 473.845L353.746 473.918C352.576 475.021 350.56 474.282 350.543 472.747V472.697C350.263 452.235 338.968 443.185 325.197 443.342C311.427 443.499 300.384 452.806 300.669 473.268V473.369C300.697 474.903 298.704 475.676 297.5 474.607L297.461 474.573C281.389 460.287 266.386 461.167 256.765 470.155C247.15 479.143 246.562 492.84 262.634 507.126L262.713 507.199C263.922 508.268 263.11 510.099 261.43 510.116H261.374C238.924 510.374 229.001 520.667 229.169 533.222C229.191 534.969 229.415 536.66 229.835 538.29C230.031 539.057 230.787 539.595 231.649 539.595H420.767C421.562 539.595 422.273 539.13 422.531 538.441C423.416 536.072 423.83 533.524 423.791 530.881C423.617 518.326 413.409 508.263 390.964 508.52V508.515Z" fill="url(#paint29_linear_1920_4882)"/>
<path d="M185.001 274.127C184.441 273.348 184.329 271.758 184.979 271.058C185.052 270.979 185.147 270.901 185.253 270.907C185.438 270.918 185.517 271.136 185.584 271.31C185.897 272.122 186.345 272.99 187.129 272.62C187.353 272.514 188.02 272.183 188.574 272.279C188.966 272.346 190.131 274.239 190.389 274.541C191.8 276.199 194.264 276.971 195.731 277.671C195.86 277.733 196.224 277.94 196.084 277.929C191.083 277.559 189.7 276.792 187.981 276.249C186.004 275.622 185.489 274.827 184.99 274.138L185.001 274.127Z" fill="#E28883"/>
<path d="M451.214 237.558C451.046 237.16 450.816 236.455 450.402 236.343C450.032 236.242 449.657 236.449 449.332 236.662C447.103 238.112 445.429 240.985 443.895 243.158" stroke="#C69024" stroke-width="1.2283" stroke-miterlimit="10"/>
<path d="M444.993 244.608C446.281 242.592 446.174 241.595 449.898 238.476C450.1 238.302 450.324 238.146 450.565 238.045C451.69 237.552 452.928 236.062 453.202 235.85C453.096 236.342 451.483 237.53 451.494 237.793C451.511 238.101 451.925 238.599 452.026 239.221C452.222 240.447 452.233 241.203 453.202 240.957" stroke="#C69024" stroke-width="1.2283" stroke-miterlimit="10" stroke-linecap="round"/>
<path d="M458.472 236.344C459.447 234.463 461.272 233.046 463.333 232.559" stroke="#C69024" stroke-width="1.2283" stroke-miterlimit="10" stroke-linecap="round"/>
<path d="M460.834 228.28C461.226 229.109 459.849 230.19 459.222 230.543C457.822 231.338 456.718 231.45 455.985 229.815C456.59 228.874 457.676 228.387 458.706 227.95C459.205 227.737 459.793 227.524 460.274 227.771C460.571 227.922 460.745 228.095 460.834 228.28Z" fill="#C69024"/>
<path d="M458.119 234.074C458.702 232.809 460.001 231.902 461.39 231.801" stroke="#C69024" stroke-width="1.2283" stroke-miterlimit="10" stroke-linecap="round"/>
<path d="M464.414 242.395C464.414 242.395 459.228 237.915 458.534 236.482C457.84 235.048 456.787 231.8 459.732 230.479" stroke="#C69024" stroke-width="1.2283" stroke-linecap="round" stroke-linejoin="round"/>
<path d="M462.937 235.396C463.042 234.35 462.512 233.44 461.755 233.365C460.998 233.289 460.3 234.077 460.196 235.123C460.091 236.169 460.621 237.079 461.378 237.154C462.135 237.23 462.833 236.442 462.937 235.396Z" fill="#C69024"/>
<path style="mix-blend-mode:lighten" d="M89.5274 199.32L90.4234 202.624C92.4562 210.112 97.485 216.423 104.328 220.08C97.485 223.736 92.4562 230.053 90.4234 237.535L89.5274 240.839L88.6314 237.535C86.5986 230.048 81.5698 223.736 74.7266 220.08C81.5698 216.423 86.5986 210.106 88.6314 202.624L89.5274 199.32Z" fill="url(#paint30_linear_1920_4882)"/>
<defs>
<linearGradient id="paint0_linear_1920_4882" x1="324.198" y1="488.205" x2="328.385" y2="172.589" gradientUnits="userSpaceOnUse">
<stop stop-color="#0088C3"/>
<stop offset="1" stop-color="#0F1F42"/>
</linearGradient>
<linearGradient id="paint1_linear_1920_4882" x1="31.9031" y1="433.329" x2="159.734" y2="527.773" gradientUnits="userSpaceOnUse">
<stop stop-color="#0088C3"/>
<stop offset="1" stop-color="#0F1F42"/>
</linearGradient>
<linearGradient id="paint2_linear_1920_4882" x1="214.642" y1="104.269" x2="339.444" y2="360.732" gradientUnits="userSpaceOnUse">
<stop offset="0.14" stop-color="#F0F4F8"/>
<stop offset="0.44" stop-color="#DE97FF"/>
<stop offset="0.83" stop-color="#A827D8"/>
</linearGradient>
<linearGradient id="paint3_linear_1920_4882" x1="158.062" y1="489.736" x2="323.109" y2="489.736" gradientUnits="userSpaceOnUse">
<stop stop-color="#F0F4F8"/>
<stop offset="0.54" stop-color="#BEF5FF"/>
<stop offset="0.96" stop-color="#39C7DF"/>
</linearGradient>
<linearGradient id="paint4_linear_1920_4882" x1="434.14" y1="348.528" x2="487.771" y2="562.118" gradientUnits="userSpaceOnUse">
<stop stop-color="#F0F4F8"/>
<stop offset="0.45" stop-color="#00DC86"/>
<stop offset="1" stop-color="#23626A"/>
</linearGradient>
<linearGradient id="paint5_linear_1920_4882" x1="420.453" y1="376.679" x2="512.915" y2="479.316" gradientUnits="userSpaceOnUse">
<stop stop-color="#F0F4F8"/>
<stop offset="0.45" stop-color="#00DC86"/>
<stop offset="1" stop-color="#23626A"/>
</linearGradient>
<radialGradient id="paint6_radial_1920_4882" cx="0" cy="0" r="1" gradientUnits="userSpaceOnUse" gradientTransform="translate(245.963 77.381) scale(33.2808 33.2808)">
<stop stop-color="#F0F4F8"/>
<stop offset="0.27" stop-color="#D7F4FB"/>
<stop offset="0.54" stop-color="#BEF5FF"/>
<stop offset="0.96" stop-color="#39C7DF"/>
</radialGradient>
<linearGradient id="paint7_linear_1920_4882" x1="265.468" y1="114.923" x2="294.09" y2="114.923" gradientUnits="userSpaceOnUse">
<stop stop-color="#0088C3"/>
<stop offset="1" stop-color="#0F1F42"/>
</linearGradient>
<radialGradient id="paint8_radial_1920_4882" cx="0" cy="0" r="1" gradientUnits="userSpaceOnUse" gradientTransform="translate(176.898 140.033) scale(36.876 36.876)">
<stop stop-color="#F0F4F8"/>
<stop offset="0.54" stop-color="#BEF5FF"/>
<stop offset="0.96" stop-color="#39C7DF"/>
</radialGradient>
<linearGradient id="paint9_linear_1920_4882" x1="195.832" y1="145.491" x2="235.727" y2="145.491" gradientUnits="userSpaceOnUse">
<stop stop-color="#F0F4F8"/>
<stop offset="0.54" stop-color="#BEF5FF"/>
<stop offset="0.96" stop-color="#39C7DF"/>
</linearGradient>
<linearGradient id="paint10_linear_1920_4882" x1="240.043" y1="120.581" x2="262.583" y2="120.581" gradientUnits="userSpaceOnUse">
<stop stop-color="#F0F4F8"/>
<stop offset="0.54" stop-color="#BEF5FF"/>
<stop offset="0.96" stop-color="#39C7DF"/>
</linearGradient>
<linearGradient id="paint11_linear_1920_4882" x1="166.556" y1="75.9114" x2="395.87" y2="326.31" gradientUnits="userSpaceOnUse">
<stop offset="0.08" stop-color="#F0F4F8"/>
<stop offset="0.37" stop-color="#BEF5FF"/>
<stop offset="0.96" stop-color="#39C7DF"/>
</linearGradient>
<linearGradient id="paint12_linear_1920_4882" x1="213.086" y1="134.338" x2="414.843" y2="341.638" gradientUnits="userSpaceOnUse">
<stop stop-color="#F0F4F8"/>
<stop offset="0.54" stop-color="#BEF5FF"/>
<stop offset="0.96" stop-color="#39C7DF"/>
</linearGradient>
<linearGradient id="paint13_linear_1920_4882" x1="361.933" y1="249.648" x2="501.888" y2="466.676" gradientUnits="userSpaceOnUse">
<stop stop-color="#F0F4F8"/>
<stop offset="0.45" stop-color="#00DC86"/>
<stop offset="1" stop-color="#23626A"/>
</linearGradient>
<linearGradient id="paint14_linear_1920_4882" x1="410.66" y1="342.957" x2="509.08" y2="421.29" gradientUnits="userSpaceOnUse">
<stop stop-color="#0088C3"/>
<stop offset="1" stop-color="#0F1F42"/>
</linearGradient>
<linearGradient id="paint15_linear_1920_4882" x1="495.987" y1="229.925" x2="534.369" y2="235.615" gradientUnits="userSpaceOnUse">
<stop stop-color="#F0F4F8"/>
<stop offset="0.54" stop-color="#BEF5FF"/>
<stop offset="0.96" stop-color="#39C7DF"/>
</linearGradient>
<linearGradient id="paint16_linear_1920_4882" x1="160.698" y1="275.999" x2="313.444" y2="453.093" gradientUnits="userSpaceOnUse">
<stop offset="0.17" stop-color="#BEF5FF"/>
<stop offset="1" stop-color="#0088C3"/>
</linearGradient>
<linearGradient id="paint17_linear_1920_4882" x1="174.883" y1="83.4411" x2="297.293" y2="443.459" gradientUnits="userSpaceOnUse">
<stop offset="0.3" stop-color="white"/>
<stop offset="0.46" stop-color="#FFCE4E"/>
<stop offset="0.94" stop-color="#C69024"/>
</linearGradient>
<linearGradient id="paint18_linear_1920_4882" x1="59.2709" y1="187.602" x2="99.3613" y2="228.358" gradientUnits="userSpaceOnUse">
<stop stop-color="#F0F4F8"/>
<stop offset="0.45" stop-color="#00DC86"/>
<stop offset="1" stop-color="#23626A"/>
</linearGradient>
<linearGradient id="paint19_linear_1920_4882" x1="46.1109" y1="226.224" x2="134.972" y2="228.229" gradientUnits="userSpaceOnUse">
<stop stop-color="#F0F4F8"/>
<stop offset="0.45" stop-color="#00DC86"/>
<stop offset="1" stop-color="#23626A"/>
</linearGradient>
<linearGradient id="paint20_linear_1920_4882" x1="60.6768" y1="184.296" x2="118.379" y2="184.296" gradientUnits="userSpaceOnUse">
<stop stop-color="#0088C3"/>
<stop offset="1" stop-color="#0F1F42"/>
</linearGradient>
<linearGradient id="paint21_linear_1920_4882" x1="84.9976" y1="162.797" x2="93.5208" y2="186.004" gradientUnits="userSpaceOnUse">
<stop stop-color="#0088C3"/>
<stop offset="1" stop-color="#0F1F42"/>
</linearGradient>
<linearGradient id="paint22_linear_1920_4882" x1="299.818" y1="78.5139" x2="326.755" y2="94.0987" gradientUnits="userSpaceOnUse">
<stop stop-color="#0088C3"/>
<stop offset="1" stop-color="#0F1F42"/>
</linearGradient>
<linearGradient id="paint23_linear_1920_4882" x1="498.843" y1="108.857" x2="542.31" y2="170.765" gradientUnits="userSpaceOnUse">
<stop stop-color="#0088C3"/>
<stop offset="1" stop-color="#0F1F42"/>
</linearGradient>
<linearGradient id="paint24_linear_1920_4882" x1="289.195" y1="388.157" x2="371.504" y2="520.144" gradientUnits="userSpaceOnUse">
<stop offset="0.2" stop-color="#BEF5FF"/>
<stop offset="0.76" stop-color="#39C7DF"/>
</linearGradient>
<linearGradient id="paint25_linear_1920_4882" x1="290.612" y1="320.901" x2="339.892" y2="352.474" gradientUnits="userSpaceOnUse">
<stop stop-color="#0088C3"/>
<stop offset="1" stop-color="#0F1F42"/>
</linearGradient>
<linearGradient id="paint26_linear_1920_4882" x1="326.463" y1="414.696" x2="326.962" y2="438.143" gradientUnits="userSpaceOnUse">
<stop stop-color="#0088C3"/>
<stop offset="1" stop-color="#0F1F42"/>
</linearGradient>
<linearGradient id="paint27_linear_1920_4882" x1="303.285" y1="414.055" x2="329.98" y2="480.051" gradientUnits="userSpaceOnUse">
<stop stop-color="#0088C3"/>
<stop offset="1" stop-color="#0F1F42"/>
</linearGradient>
<linearGradient id="paint28_linear_1920_4882" x1="313.572" y1="365.253" x2="343.605" y2="367.946" gradientUnits="userSpaceOnUse">
<stop stop-color="#0088C3"/>
<stop offset="1" stop-color="#0F1F42"/>
</linearGradient>
<linearGradient id="paint29_linear_1920_4882" x1="235.396" y1="357.723" x2="381.623" y2="632.426" gradientUnits="userSpaceOnUse">
<stop offset="0.14" stop-color="#F0F4F8"/>
<stop offset="0.52" stop-color="#DE97FF"/>
<stop offset="0.83" stop-color="#A827D8"/>
</linearGradient>
<linearGradient id="paint30_linear_1920_4882" x1="59.713" y1="198.055" x2="118.939" y2="241.813" gradientUnits="userSpaceOnUse">
<stop offset="0.3" stop-color="white"/>
<stop offset="0.46" stop-color="#FFCE4E"/>
<stop offset="0.94" stop-color="#C69024"/>
</linearGradient>
</defs>
</svg>
