<?xml version="1.0" encoding="utf-8"?>
<!-- Generator: Adobe Illustrator 24.2.1, SVG Export Plug-In . SVG Version: 6.00 Build 0)  -->
<svg version="1.1" id="Слой_1" xmlns="http://www.w3.org/2000/svg" xmlns:xlink="http://www.w3.org/1999/xlink" x="0px" y="0px"
	 viewBox="0 0 131 74" style="enable-background:new 0 0 131 74;" xml:space="preserve">
<style type="text/css">
	.st0{fill:url(#SVGID_1_);}
	.st1{fill:url(#SVGID_2_);}
	.st2{fill:#58595B;}
</style>
<linearGradient id="SVGID_1_" gradientUnits="userSpaceOnUse" x1="30.9587" y1="68.1181" x2="17.3855" y2="14.5099" gradientTransform="matrix(1 0 0 -1 0 74)">
	<stop  offset="0" style="stop-color:#F0F4F8"/>
	<stop  offset="7.546560e-02" style="stop-color:#F0F4F8"/>
	<stop  offset="0.3396" style="stop-color:#DE97FF"/>
	<stop  offset="0.83" style="stop-color:#A827D8"/>
	<stop  offset="0.954" style="stop-color:#8520AB"/>
</linearGradient>
<path class="st0" d="M21,27.8l-5.6,7.3c2.1,0.6,3.8,1.7,5,3.2c1.3,1.5,1.9,3.3,1.9,5.4c0,3.1-1,5.5-3.1,7.3c-2,1.7-4.6,2.6-7.6,2.6
	c-2.4,0-4.5-0.5-6.3-1.6c-1.8-1.1-3.2-2.7-4-4.7l5.1-2.9c0.7,2.3,2.5,3.5,5.2,3.5c1.5,0,2.7-0.4,3.5-1.1c0.9-0.7,1.3-1.7,1.3-3
	c0-1.2-0.4-2.2-1.3-3c-0.8-0.7-2-1.1-3.5-1.1h-1.3L8,36.2l5.9-7.7H2.1v-5.5H21V27.8z M32.2,33.9h3.1c2.9,0,5.4,0.9,7.3,2.6
	c2,1.7,3,4.1,3,7.2c0,3.1-1,5.5-3.1,7.3c-2,1.7-4.6,2.6-7.6,2.6c-2.5,0-4.6-0.5-6.5-1.6c-1.8-1.1-3.2-2.7-4-4.8l5.1-3
	c0.7,2.4,2.5,3.6,5.4,3.6c1.5,0,2.7-0.4,3.5-1.1c0.9-0.7,1.3-1.7,1.3-3c0-1.2-0.4-2.2-1.2-3c-0.8-0.7-2-1.1-3.4-1.1h-9.1l1.2-16.7
	h17.1v5.5H32.6L32.2,33.9z"/>
<linearGradient id="SVGID_2_" gradientUnits="userSpaceOnUse" x1="98.2006" y1="69.1936" x2="89.4816" y2="13.5138" gradientTransform="matrix(1 0 0 -1 0 74)">
	<stop  offset="0" style="stop-color:#F0F4F8"/>
	<stop  offset="7.546560e-02" style="stop-color:#F0F4F8"/>
	<stop  offset="0.3396" style="stop-color:#DE97FF"/>
	<stop  offset="0.83" style="stop-color:#A827D8"/>
	<stop  offset="0.954" style="stop-color:#8520AB"/>
</linearGradient>
<path class="st1" d="M67.8,52.6c-3.5,0-6.2-1.3-8.2-4c-2-2.7-3-6.2-3-10.6s1-7.9,3-10.6c2-2.7,4.7-4,8.2-4c3.5,0,6.3,1.3,8.2,4
	c2,2.7,3,6.2,3,10.6s-1,7.9-3,10.6C74.1,51.2,71.4,52.6,67.8,52.6z M73.5,38c0-3-0.5-5.3-1.5-6.8c-1-1.6-2.4-2.4-4.2-2.4
	c-1.9,0-3.3,0.8-4.2,2.4c-1,1.6-1.4,3.9-1.4,6.8s0.5,5.3,1.4,6.8c1,1.5,2.4,2.3,4.2,2.3c1.9,0,3.3-0.8,4.2-2.4
	C73,43.2,73.5,41,73.5,38z M93,52.6c-3.5,0-6.2-1.3-8.2-4c-2-2.7-3-6.2-3-10.6s1-7.9,3-10.6c2-2.7,4.7-4,8.2-4c3.5,0,6.3,1.3,8.2,4
	c2,2.7,3,6.2,3,10.6s-1,7.9-3,10.6C99.3,51.2,96.5,52.6,93,52.6z M98.7,38c0-3-0.5-5.3-1.5-6.8c-1-1.6-2.4-2.4-4.2-2.4
	c-1.9,0-3.3,0.8-4.2,2.4S87.3,35,87.3,38s0.5,5.3,1.4,6.8c1,1.5,2.4,2.3,4.2,2.3c1.9,0,3.3-0.8,4.2-2.4C98.2,43.2,98.7,41,98.7,38z
	 M118.2,52.6c-3.5,0-6.2-1.3-8.2-4c-2-2.7-3-6.2-3-10.6s1-7.9,3-10.6c2-2.7,4.7-4,8.2-4c3.5,0,6.3,1.3,8.2,4c2,2.7,3,6.2,3,10.6
	s-1,7.9-3,10.6C124.5,51.2,121.7,52.6,118.2,52.6z M123.9,38c0-3-0.5-5.3-1.5-6.8c-1-1.6-2.4-2.4-4.2-2.4c-1.9,0-3.3,0.8-4.2,2.4
	s-1.4,3.9-1.4,6.8s0.5,5.3,1.4,6.8c1,1.5,2.4,2.3,4.2,2.3c1.9,0,3.3-0.8,4.2-2.4C123.4,43.2,123.9,41,123.9,38z"/>
<path class="st2" d="M3.1,7.3h1.9c0.7,0,1.2,0.2,1.7,0.7c0.5,0.5,0.7,1,0.7,1.7c0,0.7-0.2,1.2-0.7,1.7c-0.5,0.5-1,0.7-1.7,0.7H2V4.2
	h4.7v1H3.1V7.3z M3.1,11h1.9c0.4,0,0.7-0.1,1-0.4c0.3-0.3,0.4-0.6,0.4-1c0-0.4-0.1-0.7-0.4-1c-0.3-0.3-0.6-0.4-1-0.4H3.1V11z
	 M13.3,11.3c-0.6,0.6-1.3,0.8-2.1,0.8c-0.8,0-1.5-0.3-2.1-0.8c-0.6-0.6-0.8-1.3-0.8-2.1c0-0.8,0.3-1.5,0.8-2.1
	c0.6-0.6,1.3-0.8,2.1-0.8c0.8,0,1.5,0.3,2.1,0.8c0.6,0.6,0.9,1.3,0.9,2.1C14.2,10,13.9,10.7,13.3,11.3z M11.2,11.2
	c0.6,0,1-0.2,1.4-0.6c0.4-0.4,0.6-0.8,0.6-1.4s-0.2-1-0.6-1.4s-0.8-0.6-1.4-0.6c-0.5,0-1,0.2-1.4,0.6C9.5,8.2,9.3,8.7,9.3,9.2
	s0.2,1,0.6,1.4C10.2,11,10.7,11.2,11.2,11.2z M15.8,6.5h4.1V12h-1V7.4h-2.2v2.3c0,0.9-0.2,1.5-0.5,1.9c-0.4,0.4-0.9,0.5-1.6,0.5
	v-0.9c0.4,0.1,0.7,0,0.9-0.3c0.2-0.2,0.3-0.6,0.3-1.2V6.5z M26.9,9.7h-4.6c0.1,0.5,0.3,0.9,0.7,1.2c0.4,0.3,0.8,0.4,1.3,0.4
	c0.7,0,1.3-0.3,1.6-0.8l0.8,0.5c-0.5,0.8-1.4,1.3-2.4,1.3c-0.9,0-1.6-0.3-2.1-0.8c-0.5-0.6-0.8-1.3-0.8-2.1c0-0.8,0.3-1.5,0.8-2.1
	c0.5-0.6,1.2-0.8,2.1-0.8c0.8,0,1.5,0.3,2,0.9C26.7,7.7,27,8.4,27,9.2C27,9.4,27,9.5,26.9,9.7z M24.2,7.2c-0.5,0-0.9,0.1-1.3,0.4
	c-0.3,0.3-0.6,0.7-0.6,1.2H26c-0.1-0.5-0.3-0.9-0.6-1.2C25.1,7.4,24.7,7.2,24.2,7.2z M33.6,9.7H29c0.1,0.5,0.3,0.9,0.7,1.2
	c0.4,0.3,0.8,0.4,1.3,0.4c0.7,0,1.3-0.3,1.6-0.8l0.8,0.5c-0.5,0.8-1.4,1.3-2.4,1.3c-0.9,0-1.6-0.3-2.1-0.8c-0.5-0.6-0.8-1.3-0.8-2.1
	c0-0.8,0.3-1.5,0.8-2.1c0.5-0.6,1.2-0.8,2.1-0.8c0.8,0,1.5,0.3,2,0.9c0.5,0.6,0.8,1.2,0.8,2.1C33.6,9.4,33.6,9.5,33.6,9.7z
	 M30.9,7.2c-0.5,0-0.9,0.1-1.3,0.4c-0.3,0.3-0.6,0.7-0.6,1.2h3.7c-0.1-0.5-0.3-0.9-0.6-1.2C31.7,7.4,31.3,7.2,30.9,7.2z"/>
<path class="st2" d="M79.8,67.1c-0.8,0-1.5-0.3-2.1-0.8c-0.6-0.6-0.8-1.3-0.8-2.1c0-0.8,0.3-1.5,0.8-2.1c0.6-0.6,1.2-0.8,2.1-0.8
	c0.5,0,1,0.1,1.5,0.4c0.4,0.3,0.8,0.6,1,1.1l-0.8,0.5c-0.1-0.3-0.4-0.5-0.7-0.7c-0.3-0.2-0.6-0.3-1-0.3c-0.6,0-1,0.2-1.4,0.6
	c-0.4,0.4-0.6,0.9-0.6,1.4c0,0.5,0.2,1,0.6,1.4c0.4,0.4,0.8,0.6,1.4,0.6c0.4,0,0.7-0.1,1-0.3c0.3-0.2,0.5-0.4,0.7-0.7l0.8,0.5
	c-0.2,0.4-0.6,0.8-1,1.1C80.8,67,80.3,67.1,79.8,67.1z M82.7,61.5h4.7v0.9h-1.9V67h-1v-4.6h-1.9V61.5z M90.8,65.8l1.6-4.3h1
	l-2.3,5.9c-0.2,0.6-0.6,1.1-1,1.4c-0.4,0.3-0.9,0.5-1.5,0.4v-0.9c0.7,0.1,1.2-0.3,1.5-1.1l0.1-0.2l-2.4-5.5h1L90.8,65.8z M98.9,61.5
	v4.6h0.8v2.4h-1V67h-4.2v1.5h-1v-2.4h0.7c0.4-0.5,0.5-1.2,0.5-2v-2.6H98.9z M95.4,66.1h2.6v-3.7h-2.2V64
	C95.8,64.8,95.6,65.5,95.4,66.1z M106,64.7h-4.6c0.1,0.5,0.3,0.9,0.7,1.2c0.4,0.3,0.8,0.4,1.3,0.4c0.7,0,1.3-0.3,1.6-0.8l0.8,0.5
	c-0.5,0.8-1.4,1.3-2.4,1.3c-0.9,0-1.6-0.3-2.1-0.8c-0.5-0.6-0.8-1.3-0.8-2.1c0-0.8,0.3-1.5,0.8-2.1c0.5-0.6,1.2-0.8,2.1-0.8
	c0.8,0,1.5,0.3,2,0.9c0.5,0.6,0.8,1.2,0.8,2.1C106.1,64.4,106,64.5,106,64.7z M103.3,62.2c-0.5,0-0.9,0.1-1.3,0.4
	c-0.3,0.3-0.6,0.7-0.6,1.2h3.7c-0.1-0.5-0.3-0.9-0.6-1.2C104.1,62.4,103.8,62.2,103.3,62.2z M111.2,63.8v-2.3h1V67h-1v-2.3h-2.9V67
	h-1v-5.5h1v2.3H111.2z M113.2,61.5h4.7v0.9h-1.9V67h-1v-4.6h-1.9V61.5z M123.5,66.3c-0.6,0.6-1.3,0.8-2.1,0.8
	c-0.8,0-1.5-0.3-2.1-0.8c-0.6-0.6-0.8-1.3-0.8-2.1c0-0.8,0.3-1.5,0.8-2.1c0.6-0.6,1.3-0.8,2.1-0.8c0.8,0,1.5,0.3,2.1,0.8
	c0.6,0.6,0.9,1.3,0.9,2.1C124.4,65,124.1,65.7,123.5,66.3z M121.4,66.2c0.6,0,1-0.2,1.4-0.6c0.4-0.4,0.6-0.8,0.6-1.4
	c0-0.6-0.2-1-0.6-1.4c-0.4-0.4-0.8-0.6-1.4-0.6c-0.5,0-1,0.2-1.4,0.6c-0.4,0.4-0.6,0.8-0.6,1.4c0,0.6,0.2,1,0.6,1.4
	C120.4,66,120.9,66.2,121.4,66.2z M129.4,64.2c0.6,0.2,0.9,0.7,0.9,1.3c0,0.5-0.2,0.9-0.5,1.1c-0.3,0.3-0.7,0.4-1.3,0.4h-2.8v-5.5
	h2.5c0.5,0,1,0.1,1.3,0.4c0.3,0.3,0.5,0.6,0.5,1.1C130,63.5,129.8,63.9,129.4,64.2z M128.2,62.3h-1.6v1.5h1.6c0.6,0,0.8-0.2,0.8-0.7
	C129.1,62.6,128.8,62.3,128.2,62.3z M126.7,66.1h1.8c0.3,0,0.5-0.1,0.6-0.2c0.2-0.1,0.2-0.3,0.2-0.6c0-0.2-0.1-0.4-0.2-0.5
	c-0.1-0.1-0.4-0.2-0.6-0.2h-1.8V66.1z"/>
</svg>
