<svg width="65" height="53" viewBox="0 0 65 53" fill="none" xmlns="http://www.w3.org/2000/svg">
<path d="M33.5023 5.9C34.2303 5.9 34.8463 6.148 35.3503 6.644C35.8543 7.132 36.1063 7.732 36.1063 8.444C36.1063 9.172 35.8543 9.78 35.3503 10.268C34.8543 10.756 34.2383 11 33.5023 11H30.3463V2.6H35.3863V3.656H31.4623V5.9H33.5023ZM33.5023 9.956C33.9183 9.956 34.2703 9.812 34.5583 9.524C34.8543 9.236 35.0023 8.876 35.0023 8.444C35.0023 8.02 34.8543 7.664 34.5583 7.376C34.2703 7.088 33.9183 6.944 33.5023 6.944H31.4623V9.956H33.5023ZM42.5618 10.244C41.9458 10.852 41.1978 11.156 40.3178 11.156C39.4378 11.156 38.6898 10.852 38.0738 10.244C37.4658 9.636 37.1618 8.888 37.1618 8C37.1618 7.112 37.4658 6.364 38.0738 5.756C38.6898 5.148 39.4378 4.844 40.3178 4.844C41.1978 4.844 41.9458 5.148 42.5618 5.756C43.1778 6.364 43.4858 7.112 43.4858 8C43.4858 8.888 43.1778 9.636 42.5618 10.244ZM40.3178 10.136C40.9178 10.136 41.4218 9.932 41.8298 9.524C42.2378 9.116 42.4418 8.608 42.4418 8C42.4418 7.392 42.2378 6.884 41.8298 6.476C41.4218 6.068 40.9178 5.864 40.3178 5.864C39.7258 5.864 39.2258 6.068 38.8178 6.476C38.4098 6.884 38.2058 7.392 38.2058 8C38.2058 8.608 38.4098 9.116 38.8178 9.524C39.2258 9.932 39.7258 10.136 40.3178 10.136ZM49.7496 5V11H48.7056V6.008H46.3416V8.456C46.3416 9.44 46.1416 10.128 45.7416 10.52C45.3496 10.904 44.7936 11.064 44.0736 11V10.016C44.4816 10.072 44.7856 9.984 44.9856 9.752C45.1936 9.512 45.2976 9.072 45.2976 8.432V5H49.7496ZM52.3035 8.48C52.4075 9.016 52.6515 9.432 53.0355 9.728C53.4275 10.024 53.9075 10.172 54.4755 10.172C55.2675 10.172 55.8435 9.88 56.2035 9.296L57.0915 9.8C56.5075 10.704 55.6275 11.156 54.4515 11.156C53.4995 11.156 52.7235 10.86 52.1235 10.268C51.5315 9.668 51.2355 8.912 51.2355 8C51.2355 7.096 51.5275 6.344 52.1115 5.744C52.6955 5.144 53.4515 4.844 54.3795 4.844C55.2595 4.844 55.9755 5.156 56.5275 5.78C57.0875 6.396 57.3675 7.14 57.3675 8.012C57.3675 8.164 57.3555 8.32 57.3315 8.48H52.3035ZM54.3795 5.828C53.8195 5.828 53.3555 5.988 52.9875 6.308C52.6195 6.62 52.3915 7.04 52.3035 7.568H56.3115C56.2235 7 55.9995 6.568 55.6395 6.272C55.2795 5.976 54.8595 5.828 54.3795 5.828ZM59.5279 8.48C59.6319 9.016 59.8759 9.432 60.2599 9.728C60.6519 10.024 61.1319 10.172 61.6999 10.172C62.4919 10.172 63.0679 9.88 63.4279 9.296L64.3159 9.8C63.7319 10.704 62.8519 11.156 61.6759 11.156C60.7239 11.156 59.9479 10.86 59.3479 10.268C58.7559 9.668 58.4599 8.912 58.4599 8C58.4599 7.096 58.7519 6.344 59.3359 5.744C59.9199 5.144 60.6759 4.844 61.6039 4.844C62.4839 4.844 63.1999 5.156 63.7519 5.78C64.3119 6.396 64.5919 7.14 64.5919 8.012C64.5919 8.164 64.5799 8.32 64.5559 8.48H59.5279ZM61.6039 5.828C61.0439 5.828 60.5799 5.988 60.2119 6.308C59.8439 6.62 59.6159 7.04 59.5279 7.568H63.5359C63.4479 7 63.2239 6.568 62.8639 6.272C62.5039 5.976 62.0839 5.828 61.6039 5.828Z" fill="#58595B"/>
<path d="M7.50922 26.68C8.45589 26.96 9.22255 27.4533 9.80922 28.16C10.4092 28.8533 10.7092 29.6933 10.7092 30.68C10.7092 32.12 10.2226 33.2467 9.24922 34.06C8.28922 34.8733 7.10922 35.28 5.70922 35.28C4.61589 35.28 3.63589 35.0333 2.76922 34.54C1.91589 34.0333 1.29589 33.2933 0.909219 32.32L3.26922 30.96C3.61589 32.04 4.42922 32.58 5.70922 32.58C6.41589 32.58 6.96255 32.4133 7.34922 32.08C7.74922 31.7333 7.94922 31.2667 7.94922 30.68C7.94922 30.1067 7.74922 29.6467 7.34922 29.3C6.96255 28.9533 6.41589 28.78 5.70922 28.78H5.10922L4.04922 27.18L6.80922 23.58H1.32922V21H10.1292V23.28L7.50922 26.68ZM16.85 26.1C18.1967 26.1 19.33 26.5067 20.25 27.32C21.17 28.12 21.63 29.24 21.63 30.68C21.63 32.12 21.1433 33.2467 20.17 34.06C19.21 34.8733 18.03 35.28 16.63 35.28C15.4967 35.28 14.4967 35.0267 13.63 34.52C12.7633 34.0133 12.1367 33.2667 11.75 32.28L14.11 30.9C14.4567 32.02 15.2967 32.58 16.63 32.58C17.3367 32.58 17.8833 32.4133 18.27 32.08C18.67 31.7333 18.87 31.2667 18.87 30.68C18.87 30.1067 18.6767 29.6467 18.29 29.3C17.9033 28.9533 17.3767 28.78 16.71 28.78H12.47L13.03 21H20.97V23.58H15.59L15.41 26.1H16.85ZM33.507 35.28C31.7604 35.28 30.387 34.62 29.387 33.3C28.4004 31.9667 27.907 30.2 27.907 28C27.907 25.8 28.4004 24.04 29.387 22.72C30.387 21.3867 31.7604 20.72 33.507 20.72C35.267 20.72 36.6404 21.3867 37.627 22.72C38.6137 24.04 39.107 25.8 39.107 28C39.107 30.2 38.6137 31.9667 37.627 33.3C36.6404 34.62 35.267 35.28 33.507 35.28ZM31.387 31.42C31.867 32.1933 32.5737 32.58 33.507 32.58C34.4404 32.58 35.147 32.1867 35.627 31.4C36.1204 30.6133 36.367 29.48 36.367 28C36.367 26.5067 36.1204 25.3667 35.627 24.58C35.147 23.7933 34.4404 23.4 33.507 23.4C32.5737 23.4 31.867 23.7933 31.387 24.58C30.907 25.3667 30.667 26.5067 30.667 28C30.667 29.4933 30.907 30.6333 31.387 31.42ZM46.1047 35.28C44.358 35.28 42.9847 34.62 41.9847 33.3C40.998 31.9667 40.5047 30.2 40.5047 28C40.5047 25.8 40.998 24.04 41.9847 22.72C42.9847 21.3867 44.358 20.72 46.1047 20.72C47.8647 20.72 49.238 21.3867 50.2247 22.72C51.2114 24.04 51.7047 25.8 51.7047 28C51.7047 30.2 51.2114 31.9667 50.2247 33.3C49.238 34.62 47.8647 35.28 46.1047 35.28ZM43.9847 31.42C44.4647 32.1933 45.1714 32.58 46.1047 32.58C47.038 32.58 47.7447 32.1867 48.2247 31.4C48.718 30.6133 48.9647 29.48 48.9647 28C48.9647 26.5067 48.718 25.3667 48.2247 24.58C47.7447 23.7933 47.038 23.4 46.1047 23.4C45.1714 23.4 44.4647 23.7933 43.9847 24.58C43.5047 25.3667 43.2647 26.5067 43.2647 28C43.2647 29.4933 43.5047 30.6333 43.9847 31.42ZM58.7023 35.28C56.9557 35.28 55.5823 34.62 54.5823 33.3C53.5957 31.9667 53.1023 30.2 53.1023 28C53.1023 25.8 53.5957 24.04 54.5823 22.72C55.5823 21.3867 56.9557 20.72 58.7023 20.72C60.4623 20.72 61.8357 21.3867 62.8223 22.72C63.809 24.04 64.3023 25.8 64.3023 28C64.3023 30.2 63.809 31.9667 62.8223 33.3C61.8357 34.62 60.4623 35.28 58.7023 35.28ZM56.5823 31.42C57.0623 32.1933 57.769 32.58 58.7023 32.58C59.6357 32.58 60.3423 32.1867 60.8223 31.4C61.3157 30.6133 61.5623 29.48 61.5623 28C61.5623 26.5067 61.3157 25.3667 60.8223 24.58C60.3423 23.7933 59.6357 23.4 58.7023 23.4C57.769 23.4 57.0623 23.7933 56.5823 24.58C56.1023 25.3667 55.8623 26.5067 55.8623 28C55.8623 29.4933 56.1023 30.6333 56.5823 31.42Z" fill="white"/>
<path d="M7.50922 26.68C8.45589 26.96 9.22255 27.4533 9.80922 28.16C10.4092 28.8533 10.7092 29.6933 10.7092 30.68C10.7092 32.12 10.2226 33.2467 9.24922 34.06C8.28922 34.8733 7.10922 35.28 5.70922 35.28C4.61589 35.28 3.63589 35.0333 2.76922 34.54C1.91589 34.0333 1.29589 33.2933 0.909219 32.32L3.26922 30.96C3.61589 32.04 4.42922 32.58 5.70922 32.58C6.41589 32.58 6.96255 32.4133 7.34922 32.08C7.74922 31.7333 7.94922 31.2667 7.94922 30.68C7.94922 30.1067 7.74922 29.6467 7.34922 29.3C6.96255 28.9533 6.41589 28.78 5.70922 28.78H5.10922L4.04922 27.18L6.80922 23.58H1.32922V21H10.1292V23.28L7.50922 26.68ZM16.85 26.1C18.1967 26.1 19.33 26.5067 20.25 27.32C21.17 28.12 21.63 29.24 21.63 30.68C21.63 32.12 21.1433 33.2467 20.17 34.06C19.21 34.8733 18.03 35.28 16.63 35.28C15.4967 35.28 14.4967 35.0267 13.63 34.52C12.7633 34.0133 12.1367 33.2667 11.75 32.28L14.11 30.9C14.4567 32.02 15.2967 32.58 16.63 32.58C17.3367 32.58 17.8833 32.4133 18.27 32.08C18.67 31.7333 18.87 31.2667 18.87 30.68C18.87 30.1067 18.6767 29.6467 18.29 29.3C17.9033 28.9533 17.3767 28.78 16.71 28.78H12.47L13.03 21H20.97V23.58H15.59L15.41 26.1H16.85ZM33.507 35.28C31.7604 35.28 30.387 34.62 29.387 33.3C28.4004 31.9667 27.907 30.2 27.907 28C27.907 25.8 28.4004 24.04 29.387 22.72C30.387 21.3867 31.7604 20.72 33.507 20.72C35.267 20.72 36.6404 21.3867 37.627 22.72C38.6137 24.04 39.107 25.8 39.107 28C39.107 30.2 38.6137 31.9667 37.627 33.3C36.6404 34.62 35.267 35.28 33.507 35.28ZM31.387 31.42C31.867 32.1933 32.5737 32.58 33.507 32.58C34.4404 32.58 35.147 32.1867 35.627 31.4C36.1204 30.6133 36.367 29.48 36.367 28C36.367 26.5067 36.1204 25.3667 35.627 24.58C35.147 23.7933 34.4404 23.4 33.507 23.4C32.5737 23.4 31.867 23.7933 31.387 24.58C30.907 25.3667 30.667 26.5067 30.667 28C30.667 29.4933 30.907 30.6333 31.387 31.42ZM46.1047 35.28C44.358 35.28 42.9847 34.62 41.9847 33.3C40.998 31.9667 40.5047 30.2 40.5047 28C40.5047 25.8 40.998 24.04 41.9847 22.72C42.9847 21.3867 44.358 20.72 46.1047 20.72C47.8647 20.72 49.238 21.3867 50.2247 22.72C51.2114 24.04 51.7047 25.8 51.7047 28C51.7047 30.2 51.2114 31.9667 50.2247 33.3C49.238 34.62 47.8647 35.28 46.1047 35.28ZM43.9847 31.42C44.4647 32.1933 45.1714 32.58 46.1047 32.58C47.038 32.58 47.7447 32.1867 48.2247 31.4C48.718 30.6133 48.9647 29.48 48.9647 28C48.9647 26.5067 48.718 25.3667 48.2247 24.58C47.7447 23.7933 47.038 23.4 46.1047 23.4C45.1714 23.4 44.4647 23.7933 43.9847 24.58C43.5047 25.3667 43.2647 26.5067 43.2647 28C43.2647 29.4933 43.5047 30.6333 43.9847 31.42ZM58.7023 35.28C56.9557 35.28 55.5823 34.62 54.5823 33.3C53.5957 31.9667 53.1023 30.2 53.1023 28C53.1023 25.8 53.5957 24.04 54.5823 22.72C55.5823 21.3867 56.9557 20.72 58.7023 20.72C60.4623 20.72 61.8357 21.3867 62.8223 22.72C63.809 24.04 64.3023 25.8 64.3023 28C64.3023 30.2 63.809 31.9667 62.8223 33.3C61.8357 34.62 60.4623 35.28 58.7023 35.28ZM56.5823 31.42C57.0623 32.1933 57.769 32.58 58.7023 32.58C59.6357 32.58 60.3423 32.1867 60.8223 31.4C61.3157 30.6133 61.5623 29.48 61.5623 28C61.5623 26.5067 61.3157 25.3667 60.8223 24.58C60.3423 23.7933 59.6357 23.4 58.7023 23.4C57.769 23.4 57.0623 23.7933 56.5823 24.58C56.1023 25.3667 55.8623 26.5067 55.8623 28C55.8623 29.4933 56.1023 30.6333 56.5823 31.42Z" fill="url(#paint0_linear_2035_24306)"/>
<path d="M9.94981 50.156C9.04581 50.156 8.29381 49.856 7.69381 49.256C7.09381 48.648 6.79381 47.896 6.79381 47C6.79381 46.104 7.09381 45.356 7.69381 44.756C8.29381 44.148 9.04581 43.844 9.94981 43.844C10.5418 43.844 11.0738 43.988 11.5458 44.276C12.0178 44.556 12.3698 44.936 12.6018 45.416L11.7258 45.92C11.5738 45.6 11.3378 45.344 11.0178 45.152C10.7058 44.96 10.3498 44.864 9.94981 44.864C9.34981 44.864 8.84581 45.068 8.43781 45.476C8.03781 45.884 7.83781 46.392 7.83781 47C7.83781 47.6 8.03781 48.104 8.43781 48.512C8.84581 48.92 9.34981 49.124 9.94981 49.124C10.3498 49.124 10.7098 49.032 11.0298 48.848C11.3498 48.656 11.5938 48.4 11.7618 48.08L12.6498 48.596C12.3938 49.068 12.0258 49.448 11.5458 49.736C11.0658 50.016 10.5338 50.156 9.94981 50.156ZM18.2908 44V45.008H16.2508V50H15.2068V45.008H13.1548V44H18.2908ZM23.6689 44H24.7849L22.3369 50.372C22.0809 51.052 21.7209 51.568 21.2569 51.92C20.7929 52.28 20.2649 52.44 19.6729 52.4V51.428C20.4089 51.484 20.9489 51.084 21.2929 50.228L21.3889 50.012L18.7849 44H19.8889L21.9409 48.704L23.6689 44ZM30.6817 49.004H31.5097V51.608H30.4777V50H25.9777V51.608H24.9457V49.004H25.6777C26.0617 48.476 26.2537 47.736 26.2537 46.784V44H30.6817V49.004ZM26.8657 49.004H29.6497V44.972H27.2857V46.784C27.2857 47.68 27.1457 48.42 26.8657 49.004ZM33.3726 47.48C33.4766 48.016 33.7206 48.432 34.1046 48.728C34.4966 49.024 34.9766 49.172 35.5446 49.172C36.3366 49.172 36.9126 48.88 37.2726 48.296L38.1606 48.8C37.5766 49.704 36.6966 50.156 35.5206 50.156C34.5686 50.156 33.7926 49.86 33.1926 49.268C32.6006 48.668 32.3046 47.912 32.3046 47C32.3046 46.096 32.5966 45.344 33.1806 44.744C33.7646 44.144 34.5206 43.844 35.4486 43.844C36.3286 43.844 37.0446 44.156 37.5966 44.78C38.1566 45.396 38.4366 46.14 38.4366 47.012C38.4366 47.164 38.4246 47.32 38.4006 47.48H33.3726ZM35.4486 44.828C34.8886 44.828 34.4246 44.988 34.0566 45.308C33.6886 45.62 33.4606 46.04 33.3726 46.568H37.3806C37.2926 46 37.0686 45.568 36.7086 45.272C36.3486 44.976 35.9286 44.828 35.4486 44.828ZM44.0287 44H45.0727V50H44.0287V47.492H40.9207V50H39.8767V44H40.9207V46.496H44.0287V44ZM51.3658 44V45.008H49.3258V50H48.2818V45.008H46.2298V44H51.3658ZM57.3504 49.244C56.7344 49.852 55.9864 50.156 55.1064 50.156C54.2264 50.156 53.4784 49.852 52.8624 49.244C52.2544 48.636 51.9504 47.888 51.9504 47C51.9504 46.112 52.2544 45.364 52.8624 44.756C53.4784 44.148 54.2264 43.844 55.1064 43.844C55.9864 43.844 56.7344 44.148 57.3504 44.756C57.9664 45.364 58.2744 46.112 58.2744 47C58.2744 47.888 57.9664 48.636 57.3504 49.244ZM55.1064 49.136C55.7064 49.136 56.2104 48.932 56.6184 48.524C57.0264 48.116 57.2304 47.608 57.2304 47C57.2304 46.392 57.0264 45.884 56.6184 45.476C56.2104 45.068 55.7064 44.864 55.1064 44.864C54.5144 44.864 54.0144 45.068 53.6064 45.476C53.1984 45.884 52.9944 46.392 52.9944 47C52.9944 47.608 53.1984 48.116 53.6064 48.524C54.0144 48.932 54.5144 49.136 55.1064 49.136ZM63.7411 46.916C64.3571 47.172 64.6651 47.636 64.6651 48.308C64.6651 48.804 64.4971 49.212 64.1611 49.532C63.8331 49.844 63.3611 50 62.7451 50H59.7451V44H62.5051C63.1051 44 63.5691 44.152 63.8971 44.456C64.2251 44.752 64.3891 45.144 64.3891 45.632C64.3891 46.208 64.1731 46.636 63.7411 46.916ZM62.4571 44.936H60.7651V46.508H62.4571C63.0651 46.508 63.3691 46.24 63.3691 45.704C63.3691 45.192 63.0651 44.936 62.4571 44.936ZM62.6851 49.052C62.9891 49.052 63.2211 48.98 63.3811 48.836C63.5491 48.692 63.6331 48.488 63.6331 48.224C63.6331 47.976 63.5491 47.784 63.3811 47.648C63.2211 47.504 62.9891 47.432 62.6851 47.432H60.7651V49.052H62.6851Z" fill="#58595B"/>
<defs>
<linearGradient id="paint0_linear_2035_24306" x1="119.328" y1="7.59462" x2="111.364" y2="56.7677" gradientUnits="userSpaceOnUse">
<stop stop-color="#F0F4F8"/>
<stop offset="0.0754656" stop-color="#F0F4F8"/>
<stop offset="0.33956" stop-color="#DE97FF"/>
<stop offset="0.83" stop-color="#A827D8"/>
<stop offset="0.953982" stop-color="#8520AB"/>
</linearGradient>
</defs>
</svg>
