<?xml version="1.0" encoding="utf-8"?>
<!-- Generator: Adobe Illustrator 24.2.1, SVG Export Plug-In . SVG Version: 6.00 Build 0)  -->
<svg version="1.1" id="Слой_1" xmlns="http://www.w3.org/2000/svg" xmlns:xlink="http://www.w3.org/1999/xlink" x="0px" y="0px"
	 viewBox="0 0 56 73" style="enable-background:new 0 0 56 73;" xml:space="preserve">
<style type="text/css">
	.st0{fill:#58595B;}
	.st1{fill:url(#SVGID_1_);}
</style>
<path class="st0" d="M18,7.8h1.9c0.7,0,1.2,0.2,1.7,0.7c0.5,0.5,0.7,1,0.7,1.7c0,0.7-0.2,1.2-0.7,1.7c-0.5,0.5-1,0.7-1.7,0.7h-2.9
	V4.7h4.7v1H18V7.8z M18,11.5h1.9c0.4,0,0.7-0.1,1-0.4c0.3-0.3,0.4-0.6,0.4-1c0-0.4-0.1-0.7-0.4-1c-0.3-0.3-0.6-0.4-1-0.4H18V11.5z
	 M28.2,11.8c-0.6,0.6-1.3,0.8-2.1,0.8c-0.8,0-1.5-0.3-2.1-0.8c-0.6-0.6-0.8-1.3-0.8-2.1c0-0.8,0.3-1.5,0.8-2.1
	c0.6-0.6,1.3-0.8,2.1-0.8c0.8,0,1.5,0.3,2.1,0.8c0.6,0.6,0.9,1.3,0.9,2.1C29.1,10.5,28.8,11.2,28.2,11.8z M26.1,11.7
	c0.6,0,1-0.2,1.4-0.6c0.4-0.4,0.6-0.8,0.6-1.4s-0.2-1-0.6-1.4c-0.4-0.4-0.8-0.6-1.4-0.6c-0.5,0-1,0.2-1.4,0.6
	c-0.4,0.4-0.6,0.8-0.6,1.4s0.2,1,0.6,1.4C25.1,11.5,25.6,11.7,26.1,11.7z M30.7,7h4.1v5.5h-1V7.9h-2.2v2.3c0,0.9-0.2,1.5-0.5,1.9
	c-0.4,0.4-0.9,0.5-1.6,0.5v-0.9c0.4,0.1,0.7,0,0.9-0.3c0.2-0.2,0.3-0.6,0.3-1.2V7z M41.8,10.2h-4.6c0.1,0.5,0.3,0.9,0.7,1.2
	c0.4,0.3,0.8,0.4,1.3,0.4c0.7,0,1.3-0.3,1.6-0.8l0.8,0.5c-0.5,0.8-1.4,1.3-2.4,1.3c-0.9,0-1.6-0.3-2.1-0.8c-0.5-0.6-0.8-1.3-0.8-2.1
	c0-0.8,0.3-1.5,0.8-2.1c0.5-0.6,1.2-0.8,2.1-0.8c0.8,0,1.5,0.3,2,0.9c0.5,0.6,0.8,1.2,0.8,2.1C41.9,9.9,41.9,10,41.8,10.2z
	 M39.1,7.7c-0.5,0-0.9,0.1-1.3,0.4c-0.3,0.3-0.6,0.7-0.6,1.2h3.7c-0.1-0.5-0.3-0.9-0.6-1.2C40,7.9,39.6,7.7,39.1,7.7z M48.5,10.2
	h-4.6c0.1,0.5,0.3,0.9,0.7,1.2c0.4,0.3,0.8,0.4,1.3,0.4c0.7,0,1.3-0.3,1.6-0.8l0.8,0.5c-0.5,0.8-1.4,1.3-2.4,1.3
	c-0.9,0-1.6-0.3-2.1-0.8c-0.5-0.6-0.8-1.3-0.8-2.1c0-0.8,0.3-1.5,0.8-2.1c0.5-0.6,1.2-0.8,2.1-0.8c0.8,0,1.5,0.3,2,0.9
	c0.5,0.6,0.8,1.2,0.8,2.1C48.5,9.9,48.5,10,48.5,10.2z M45.8,7.7c-0.5,0-0.9,0.1-1.3,0.4c-0.3,0.3-0.6,0.7-0.6,1.2h3.7
	c-0.1-0.5-0.3-0.9-0.6-1.2C46.6,7.9,46.2,7.7,45.8,7.7z"/>
<linearGradient id="SVGID_1_" gradientUnits="userSpaceOnUse" x1="9.0387" y1="64.9991" x2="34.8171" y2="15.615" gradientTransform="matrix(1 0 0 -1 0 74)">
	<stop  offset="0" style="stop-color:#BEF5FF"/>
	<stop  offset="1" style="stop-color:#0088C3"/>
</linearGradient>
<path class="st1" d="M24.1,56.5H1.7v-4.9l11.5-11.8c2.6-2.7,3.8-5,3.8-6.7c0-1.3-0.4-2.4-1.2-3.2c-0.8-0.8-1.8-1.2-3.1-1.2
	C10,28.7,8.2,30,7,32.6l-5.6-3.3c1-2.3,2.5-4,4.5-5.2c2-1.2,4.2-1.9,6.6-1.9c3,0,5.6,1,7.8,2.9c2.2,1.9,3.3,4.4,3.3,7.7
	c0,3.5-1.8,7.1-5.5,10.8l-6.6,6.6h12.6V56.5z M40.5,57.2c-4.2,0-7.5-1.6-9.9-4.8c-2.4-3.2-3.6-7.5-3.6-12.7s1.2-9.5,3.6-12.7
	c2.4-3.2,5.7-4.8,9.9-4.8c4.3,0,7.6,1.6,9.9,4.8c2.4,3.2,3.6,7.4,3.6,12.7s-1.2,9.5-3.6,12.7C48.1,55.6,44.8,57.2,40.5,57.2z
	 M47.4,39.7c0-3.6-0.6-6.3-1.8-8.2c-1.2-1.9-2.8-2.8-5.1-2.8c-2.2,0-3.9,0.9-5.1,2.8s-1.7,4.6-1.7,8.2s0.6,6.3,1.7,8.2
	c1.2,1.9,2.8,2.8,5.1,2.8c2.2,0,3.9-0.9,5.1-2.8C46.8,46,47.4,43.3,47.4,39.7z"/>
<path class="st0" d="M33.5,67h4.1v5.5h-1v-4.6h-2.2v2.3c0,0.9-0.2,1.5-0.5,1.9c-0.4,0.4-0.9,0.5-1.6,0.5v-0.9c0.4,0.1,0.7,0,0.9-0.3
	c0.2-0.2,0.3-0.6,0.3-1.2V67z M44.6,70.2H40c0.1,0.5,0.3,0.9,0.7,1.2c0.4,0.3,0.8,0.4,1.3,0.4c0.7,0,1.3-0.3,1.6-0.8l0.8,0.5
	c-0.5,0.8-1.4,1.3-2.4,1.3c-0.9,0-1.6-0.3-2.1-0.8c-0.5-0.6-0.8-1.3-0.8-2.1c0-0.8,0.3-1.5,0.8-2.1c0.5-0.6,1.2-0.8,2.1-0.8
	c0.8,0,1.5,0.3,2,0.9c0.5,0.6,0.8,1.2,0.8,2.1C44.7,69.9,44.6,70,44.6,70.2z M41.9,67.7c-0.5,0-0.9,0.1-1.3,0.4
	c-0.3,0.3-0.6,0.7-0.6,1.2h3.7c-0.1-0.5-0.3-0.9-0.6-1.2C42.7,67.9,42.4,67.7,41.9,67.7z M45.1,67h4.7v0.9H48v4.6h-1v-4.6h-1.9V67z"
	/>
</svg>
