<svg width="36" height="54" viewBox="0 0 36 54" fill="none" xmlns="http://www.w3.org/2000/svg">
<path d="M4.50225 6.4C5.23025 6.4 5.84625 6.648 6.35025 7.144C6.85425 7.632 7.10625 8.232 7.10625 8.944C7.10625 9.672 6.85425 10.28 6.35025 10.768C5.85425 11.256 5.23825 11.5 4.50225 11.5H1.34625V3.1H6.38625V4.156H2.46225V6.4H4.50225ZM4.50225 10.456C4.91825 10.456 5.27025 10.312 5.55825 10.024C5.85425 9.736 6.00225 9.376 6.00225 8.944C6.00225 8.52 5.85425 8.164 5.55825 7.876C5.27025 7.588 4.91825 7.444 4.50225 7.444H2.46225V10.456H4.50225ZM13.5618 10.744C12.9458 11.352 12.1978 11.656 11.3178 11.656C10.4378 11.656 9.68978 11.352 9.07378 10.744C8.46578 10.136 8.16178 9.388 8.16178 8.5C8.16178 7.612 8.46578 6.864 9.07378 6.256C9.68978 5.648 10.4378 5.344 11.3178 5.344C12.1978 5.344 12.9458 5.648 13.5618 6.256C14.1778 6.864 14.4858 7.612 14.4858 8.5C14.4858 9.388 14.1778 10.136 13.5618 10.744ZM11.3178 10.636C11.9178 10.636 12.4218 10.432 12.8298 10.024C13.2378 9.616 13.4418 9.108 13.4418 8.5C13.4418 7.892 13.2378 7.384 12.8298 6.976C12.4218 6.568 11.9178 6.364 11.3178 6.364C10.7258 6.364 10.2258 6.568 9.81778 6.976C9.40978 7.384 9.20578 7.892 9.20578 8.5C9.20578 9.108 9.40978 9.616 9.81778 10.024C10.2258 10.432 10.7258 10.636 11.3178 10.636ZM20.7496 5.5V11.5H19.7056V6.508H17.3416V8.956C17.3416 9.94 17.1416 10.628 16.7416 11.02C16.3496 11.404 15.7936 11.564 15.0736 11.5V10.516C15.4816 10.572 15.7856 10.484 15.9856 10.252C16.1936 10.012 16.2976 9.572 16.2976 8.932V5.5H20.7496ZM23.3035 8.98C23.4075 9.516 23.6515 9.932 24.0355 10.228C24.4275 10.524 24.9075 10.672 25.4755 10.672C26.2675 10.672 26.8435 10.38 27.2035 9.796L28.0915 10.3C27.5075 11.204 26.6275 11.656 25.4515 11.656C24.4995 11.656 23.7235 11.36 23.1235 10.768C22.5315 10.168 22.2355 9.412 22.2355 8.5C22.2355 7.596 22.5275 6.844 23.1115 6.244C23.6955 5.644 24.4515 5.344 25.3795 5.344C26.2595 5.344 26.9755 5.656 27.5275 6.28C28.0875 6.896 28.3675 7.64 28.3675 8.512C28.3675 8.664 28.3555 8.82 28.3315 8.98H23.3035ZM25.3795 6.328C24.8195 6.328 24.3555 6.488 23.9875 6.808C23.6195 7.12 23.3915 7.54 23.3035 8.068H27.3115C27.2235 7.5 26.9995 7.068 26.6395 6.772C26.2795 6.476 25.8595 6.328 25.3795 6.328ZM30.5279 8.98C30.6319 9.516 30.8759 9.932 31.2599 10.228C31.6519 10.524 32.1319 10.672 32.6999 10.672C33.4919 10.672 34.0679 10.38 34.4279 9.796L35.3159 10.3C34.7319 11.204 33.8519 11.656 32.6759 11.656C31.7239 11.656 30.9479 11.36 30.3479 10.768C29.7559 10.168 29.4599 9.412 29.4599 8.5C29.4599 7.596 29.7519 6.844 30.3359 6.244C30.9199 5.644 31.6759 5.344 32.6039 5.344C33.4839 5.344 34.1999 5.656 34.7519 6.28C35.3119 6.896 35.5919 7.64 35.5919 8.512C35.5919 8.664 35.5799 8.82 35.5559 8.98H30.5279ZM32.6039 6.328C32.0439 6.328 31.5799 6.488 31.2119 6.808C30.8439 7.12 30.6159 7.54 30.5279 8.068H34.5359C34.4479 7.5 34.2239 7.068 33.8639 6.772C33.5039 6.476 33.0839 6.328 32.6039 6.328Z" fill="#58595B"/>
<path d="M9.01519 36.5V34.028L14.7512 28.124C16.0312 26.78 16.6712 25.66 16.6712 24.764C16.6712 24.108 16.4632 23.58 16.0472 23.18C15.6472 22.78 15.1272 22.58 14.4872 22.58C13.2232 22.58 12.2872 23.236 11.6792 24.548L8.89519 22.916C9.42319 21.764 10.1832 20.884 11.1752 20.276C12.1672 19.668 13.2552 19.364 14.4392 19.364C15.9592 19.364 17.2632 19.844 18.3512 20.804C19.4392 21.748 19.9832 23.028 19.9832 24.644C19.9832 26.388 19.0632 28.18 17.2232 30.02L13.9352 33.308H20.2472V36.5H9.01519ZM28.4428 36.836C26.3468 36.836 24.6988 36.044 23.4988 34.46C22.3148 32.86 21.7228 30.74 21.7228 28.1C21.7228 25.46 22.3148 23.348 23.4988 21.764C24.6988 20.164 26.3468 19.364 28.4428 19.364C30.5548 19.364 32.2028 20.164 33.3868 21.764C34.5708 23.348 35.1628 25.46 35.1628 28.1C35.1628 30.74 34.5708 32.86 33.3868 34.46C32.2028 36.044 30.5548 36.836 28.4428 36.836ZM25.8988 32.204C26.4748 33.132 27.3228 33.596 28.4428 33.596C29.5628 33.596 30.4108 33.124 30.9868 32.18C31.5788 31.236 31.8748 29.876 31.8748 28.1C31.8748 26.308 31.5788 24.94 30.9868 23.996C30.4108 23.052 29.5628 22.58 28.4428 22.58C27.3228 22.58 26.4748 23.052 25.8988 23.996C25.3228 24.94 25.0348 26.308 25.0348 28.1C25.0348 29.892 25.3228 31.26 25.8988 32.204Z" fill="white"/>
<path d="M9.01519 36.5V34.028L14.7512 28.124C16.0312 26.78 16.6712 25.66 16.6712 24.764C16.6712 24.108 16.4632 23.58 16.0472 23.18C15.6472 22.78 15.1272 22.58 14.4872 22.58C13.2232 22.58 12.2872 23.236 11.6792 24.548L8.89519 22.916C9.42319 21.764 10.1832 20.884 11.1752 20.276C12.1672 19.668 13.2552 19.364 14.4392 19.364C15.9592 19.364 17.2632 19.844 18.3512 20.804C19.4392 21.748 19.9832 23.028 19.9832 24.644C19.9832 26.388 19.0632 28.18 17.2232 30.02L13.9352 33.308H20.2472V36.5H9.01519ZM28.4428 36.836C26.3468 36.836 24.6988 36.044 23.4988 34.46C22.3148 32.86 21.7228 30.74 21.7228 28.1C21.7228 25.46 22.3148 23.348 23.4988 21.764C24.6988 20.164 26.3468 19.364 28.4428 19.364C30.5548 19.364 32.2028 20.164 33.3868 21.764C34.5708 23.348 35.1628 25.46 35.1628 28.1C35.1628 30.74 34.5708 32.86 33.3868 34.46C32.2028 36.044 30.5548 36.836 28.4428 36.836ZM25.8988 32.204C26.4748 33.132 27.3228 33.596 28.4428 33.596C29.5628 33.596 30.4108 33.124 30.9868 32.18C31.5788 31.236 31.8748 29.876 31.8748 28.1C31.8748 26.308 31.5788 24.94 30.9868 23.996C30.4108 23.052 29.5628 22.58 28.4428 22.58C27.3228 22.58 26.4748 23.052 25.8988 23.996C25.3228 24.94 25.0348 26.308 25.0348 28.1C25.0348 29.892 25.3228 31.26 25.8988 32.204Z" fill="url(#paint0_linear_2035_24290)"/>
<path d="M22.5894 44.5V50.5H21.5454V45.508H19.1814V47.956C19.1814 48.94 18.9814 49.628 18.5814 50.02C18.1894 50.404 17.6334 50.564 16.9134 50.5V49.516C17.3214 49.572 17.6254 49.484 17.8254 49.252C18.0334 49.012 18.1374 48.572 18.1374 47.932V44.5H22.5894ZM25.1434 47.98C25.2474 48.516 25.4914 48.932 25.8754 49.228C26.2674 49.524 26.7474 49.672 27.3154 49.672C28.1074 49.672 28.6834 49.38 29.0434 48.796L29.9314 49.3C29.3474 50.204 28.4674 50.656 27.2914 50.656C26.3394 50.656 25.5634 50.36 24.9634 49.768C24.3714 49.168 24.0754 48.412 24.0754 47.5C24.0754 46.596 24.3674 45.844 24.9514 45.244C25.5354 44.644 26.2914 44.344 27.2194 44.344C28.0994 44.344 28.8154 44.656 29.3674 45.28C29.9274 45.896 30.2074 46.64 30.2074 47.512C30.2074 47.664 30.1954 47.82 30.1714 47.98H25.1434ZM27.2194 45.328C26.6594 45.328 26.1954 45.488 25.8274 45.808C25.4594 46.12 25.2314 46.54 25.1434 47.068H29.1514C29.0634 46.5 28.8394 46.068 28.4794 45.772C28.1194 45.476 27.6994 45.328 27.2194 45.328ZM35.8771 44.5V45.508H33.8371V50.5H32.7931V45.508H30.7411V44.5H35.8771Z" fill="#58595B"/>
<defs>
<linearGradient id="paint0_linear_2035_24290" x1="-1.28306" y1="6.63891" x2="15.1281" y2="38.2732" gradientUnits="userSpaceOnUse">
<stop stop-color="#BEF5FF"/>
<stop offset="1" stop-color="#0088C3"/>
</linearGradient>
</defs>
</svg>
