<svg xmlns="http://www.w3.org/2000/svg" xmlns:xlink="http://www.w3.org/1999/xlink" viewBox="0 0 66 43"><defs><style>.cls-1{fill:url(#Безымянный_градиент_8);}.cls-2{fill:url(#Безымянный_градиент_8-2);}.cls-3{fill:url(#Безымянный_градиент_8-3);}.cls-4{fill:url(#Безымянный_градиент_8-4);}</style><linearGradient id="Безымянный_градиент_8" x1="25.33" y1="243.85" x2="37.85" y2="106.08" gradientTransform="matrix(1, 0, 0, -1, 0, 183)" gradientUnits="userSpaceOnUse"><stop offset="0.2" stop-color="#ffffa8"/><stop offset="0.63" stop-color="#ffce4e"/><stop offset="0.94" stop-color="#c69024"/></linearGradient><linearGradient id="Безымянный_градиент_8-2" x1="26.25" y1="243.93" x2="38.78" y2="106.16" xlink:href="#Безымянный_градиент_8"/><linearGradient id="Безымянный_градиент_8-3" x1="24.05" y1="243.73" x2="36.58" y2="105.96" xlink:href="#Безымянный_градиент_8"/><linearGradient id="Безымянный_градиент_8-4" x1="26.6" y1="243.96" x2="39.12" y2="106.19" xlink:href="#Безымянный_градиент_8"/></defs><g id="Слой_2" data-name="Слой 2"><g id="Слой_1-2" data-name="Слой 1"><path class="cls-1" d="M24.68,23a4.29,4.29,0,0,1,4.11-3H38a4.28,4.28,0,0,1,4.11,3l1.42,4.62H23.27Z"/><path class="cls-2" d="M55,0H12.06A4.83,4.83,0,0,0,7.21,4.77V33.15a1.26,1.26,0,0,0,1.26,1.24H58.55a1.24,1.24,0,0,0,1.25-1.24V4.77A4.82,4.82,0,0,0,55,0Zm.59,30.26H11.27V4H55.54Z"/><path class="cls-3" d="M66,37.61c0,3-3.56,5.39-7.94,5.39H8c-4.39,0-8-2.41-8-5.36,0-.54.65-1,1.45-1h63.1C65.36,36.63,66,37.07,66,37.61Z"/><path class="cls-4" d="M38.73,13.53a5.36,5.36,0,1,1-5.36-5.29A5.33,5.33,0,0,1,38.73,13.53Z"/></g></g></svg>