<?xml version="1.0" encoding="utf-8"?>
<!-- Generator: Adobe Illustrator 24.2.1, SVG Export Plug-In . SVG Version: 6.00 Build 0)  -->
<svg version="1.1" id="Слой_1" xmlns="http://www.w3.org/2000/svg" xmlns:xlink="http://www.w3.org/1999/xlink" x="0px" y="0px"
	 viewBox="0 0 57 69" style="enable-background:new 0 0 57 69;" xml:space="preserve">
<style type="text/css">
	.st0{fill:#58595B;}
	.st1{fill:url(#SVGID_1_);}
</style>
<path class="st0" d="M2.1,7.8h1.9c0.7,0,1.2,0.2,1.7,0.7c0.5,0.5,0.7,1,0.7,1.7c0,0.7-0.2,1.2-0.7,1.7c-0.5,0.5-1,0.7-1.7,0.7H1V4.7
	h4.7v1H2.1V7.8z M2.1,11.5h1.9c0.4,0,0.7-0.1,1-0.4c0.3-0.3,0.4-0.6,0.4-1c0-0.4-0.1-0.7-0.4-1c-0.3-0.3-0.6-0.4-1-0.4H2.1V11.5z
	 M12.3,11.8c-0.6,0.6-1.3,0.8-2.1,0.8c-0.8,0-1.5-0.3-2.1-0.8c-0.6-0.6-0.8-1.3-0.8-2.1c0-0.8,0.3-1.5,0.8-2.1
	c0.6-0.6,1.3-0.8,2.1-0.8c0.8,0,1.5,0.3,2.1,0.8c0.6,0.6,0.9,1.3,0.9,2.1C13.2,10.5,12.9,11.2,12.3,11.8z M10.2,11.7
	c0.6,0,1-0.2,1.4-0.6c0.4-0.4,0.6-0.8,0.6-1.4s-0.2-1-0.6-1.4c-0.4-0.4-0.8-0.6-1.4-0.6c-0.5,0-1,0.2-1.4,0.6
	C8.5,8.7,8.3,9.2,8.3,9.7s0.2,1,0.6,1.4C9.2,11.5,9.7,11.7,10.2,11.7z M14.8,7h4.1v5.5h-1V7.9h-2.2v2.3c0,0.9-0.2,1.5-0.5,1.9
	c-0.4,0.4-0.9,0.5-1.6,0.5v-0.9c0.4,0.1,0.7,0,0.9-0.3c0.2-0.2,0.3-0.6,0.3-1.2V7z M25.9,10.2h-4.6c0.1,0.5,0.3,0.9,0.7,1.2
	c0.4,0.3,0.8,0.4,1.3,0.4c0.7,0,1.3-0.3,1.6-0.8l0.8,0.5c-0.5,0.8-1.4,1.3-2.4,1.3c-0.9,0-1.6-0.3-2.1-0.8c-0.5-0.6-0.8-1.3-0.8-2.1
	c0-0.8,0.3-1.5,0.8-2.1c0.5-0.6,1.2-0.8,2.1-0.8c0.8,0,1.5,0.3,2,0.9C25.7,8.2,26,8.9,26,9.7C26,9.9,26,10,25.9,10.2z M23.2,7.7
	c-0.5,0-0.9,0.1-1.3,0.4c-0.3,0.3-0.6,0.7-0.6,1.2H25c-0.1-0.5-0.3-0.9-0.6-1.2C24.1,7.9,23.7,7.7,23.2,7.7z M32.6,10.2H28
	c0.1,0.5,0.3,0.9,0.7,1.2c0.4,0.3,0.8,0.4,1.3,0.4c0.7,0,1.3-0.3,1.6-0.8l0.8,0.5c-0.5,0.8-1.4,1.3-2.4,1.3c-0.9,0-1.6-0.3-2.1-0.8
	c-0.5-0.6-0.8-1.3-0.8-2.1c0-0.8,0.3-1.5,0.8-2.1c0.5-0.6,1.2-0.8,2.1-0.8c0.8,0,1.5,0.3,2,0.9c0.5,0.6,0.8,1.2,0.8,2.1
	C32.6,9.9,32.6,10,32.6,10.2z M29.9,7.7c-0.5,0-0.9,0.1-1.3,0.4c-0.3,0.3-0.6,0.7-0.6,1.2h3.7c-0.1-0.5-0.3-0.9-0.6-1.2
	C30.7,7.9,30.3,7.7,29.9,7.7z"/>
<linearGradient id="SVGID_1_" gradientUnits="userSpaceOnUse" x1="89.8053" y1="-15.2464" x2="-11.8571" y2="57.4147" gradientTransform="matrix(1 0 0 -1 0 70)">
	<stop  offset="0" style="stop-color:#F0F4F8"/>
	<stop  offset="0.3" style="stop-color:#00DC86"/>
	<stop  offset="1" style="stop-color:#23626A"/>
</linearGradient>
<path class="st1" d="M21.2,23.9l-7.4,10.9c3.5,0.1,6.3,1.2,8.5,3.4c2.2,2.2,3.3,4.9,3.3,8.3c0,3.4-1.1,6.2-3.4,8.4
	c-2.3,2.2-5.2,3.3-8.8,3.3c-3.6,0-6.5-1.1-8.8-3.3c-2.2-2.1-3.4-5-3.4-8.4c0-2.5,0.7-4.8,2-6.8l10.5-15.8H21.2z M19,46.5
	c0-1.6-0.5-2.9-1.6-3.9c-1.1-1-2.4-1.5-4-1.5s-3,0.5-4,1.5c-1,1-1.5,2.3-1.5,3.9s0.5,3,1.5,4c1.1,1,2.4,1.5,4,1.5s3-0.5,4-1.5
	C18.5,49.4,19,48.1,19,46.5z M41.8,58.2c-4.2,0-7.5-1.6-9.9-4.8c-2.4-3.2-3.6-7.5-3.6-12.7s1.2-9.5,3.6-12.7
	c2.4-3.2,5.7-4.8,9.9-4.8c4.3,0,7.6,1.6,9.9,4.8c2.4,3.2,3.6,7.4,3.6,12.7s-1.2,9.5-3.6,12.7C49.3,56.6,46,58.2,41.8,58.2z
	 M48.6,40.7c0-3.6-0.6-6.3-1.8-8.2c-1.2-1.9-2.8-2.8-5.1-2.8c-2.2,0-3.9,0.9-5.1,2.8S35,37.1,35,40.7s0.6,6.3,1.7,8.2
	c1.2,1.9,2.8,2.8,5.1,2.8c2.2,0,3.9-0.9,5.1-2.8C48,47,48.6,44.3,48.6,40.7z"/>
</svg>
