<svg width="42" height="39" viewBox="0 0 42 39" fill="none" xmlns="http://www.w3.org/2000/svg">
<path d="M10.5023 5.9C11.2303 5.9 11.8463 6.148 12.3503 6.644C12.8543 7.132 13.1063 7.732 13.1063 8.444C13.1063 9.172 12.8543 9.78 12.3503 10.268C11.8543 10.756 11.2383 11 10.5023 11H7.34625V2.6H12.3863V3.656H8.46225V5.9H10.5023ZM10.5023 9.956C10.9183 9.956 11.2703 9.812 11.5583 9.524C11.8543 9.236 12.0023 8.876 12.0023 8.444C12.0023 8.02 11.8543 7.664 11.5583 7.376C11.2703 7.088 10.9183 6.944 10.5023 6.944H8.46225V9.956H10.5023ZM19.5618 10.244C18.9458 10.852 18.1978 11.156 17.3178 11.156C16.4378 11.156 15.6898 10.852 15.0738 10.244C14.4658 9.636 14.1618 8.888 14.1618 8C14.1618 7.112 14.4658 6.364 15.0738 5.756C15.6898 5.148 16.4378 4.844 17.3178 4.844C18.1978 4.844 18.9458 5.148 19.5618 5.756C20.1778 6.364 20.4858 7.112 20.4858 8C20.4858 8.888 20.1778 9.636 19.5618 10.244ZM17.3178 10.136C17.9178 10.136 18.4218 9.932 18.8298 9.524C19.2378 9.116 19.4418 8.608 19.4418 8C19.4418 7.392 19.2378 6.884 18.8298 6.476C18.4218 6.068 17.9178 5.864 17.3178 5.864C16.7258 5.864 16.2258 6.068 15.8178 6.476C15.4098 6.884 15.2058 7.392 15.2058 8C15.2058 8.608 15.4098 9.116 15.8178 9.524C16.2258 9.932 16.7258 10.136 17.3178 10.136ZM26.7496 5V11H25.7056V6.008H23.3416V8.456C23.3416 9.44 23.1416 10.128 22.7416 10.52C22.3496 10.904 21.7936 11.064 21.0736 11V10.016C21.4816 10.072 21.7856 9.984 21.9856 9.752C22.1936 9.512 22.2976 9.072 22.2976 8.432V5H26.7496ZM29.3035 8.48C29.4075 9.016 29.6515 9.432 30.0355 9.728C30.4275 10.024 30.9075 10.172 31.4755 10.172C32.2675 10.172 32.8435 9.88 33.2035 9.296L34.0915 9.8C33.5075 10.704 32.6275 11.156 31.4515 11.156C30.4995 11.156 29.7235 10.86 29.1235 10.268C28.5315 9.668 28.2355 8.912 28.2355 8C28.2355 7.096 28.5275 6.344 29.1115 5.744C29.6955 5.144 30.4515 4.844 31.3795 4.844C32.2595 4.844 32.9755 5.156 33.5275 5.78C34.0875 6.396 34.3675 7.14 34.3675 8.012C34.3675 8.164 34.3555 8.32 34.3315 8.48H29.3035ZM31.3795 5.828C30.8195 5.828 30.3555 5.988 29.9875 6.308C29.6195 6.62 29.3915 7.04 29.3035 7.568H33.3115C33.2235 7 32.9995 6.568 32.6395 6.272C32.2795 5.976 31.8595 5.828 31.3795 5.828ZM36.5279 8.48C36.6319 9.016 36.8759 9.432 37.2599 9.728C37.6519 10.024 38.1319 10.172 38.6999 10.172C39.4919 10.172 40.0679 9.88 40.4279 9.296L41.3159 9.8C40.7319 10.704 39.8519 11.156 38.6759 11.156C37.7239 11.156 36.9479 10.86 36.3479 10.268C35.7559 9.668 35.4599 8.912 35.4599 8C35.4599 7.096 35.7519 6.344 36.3359 5.744C36.9199 5.144 37.6759 4.844 38.6039 4.844C39.4839 4.844 40.1999 5.156 40.7519 5.78C41.3119 6.396 41.5919 7.14 41.5919 8.012C41.5919 8.164 41.5799 8.32 41.5559 8.48H36.5279ZM38.6039 5.828C38.0439 5.828 37.5799 5.988 37.2119 6.308C36.8439 6.62 36.6159 7.04 36.5279 7.568H40.5359C40.4479 7 40.2239 6.568 39.8639 6.272C39.5039 5.976 39.0839 5.828 38.6039 5.828Z" fill="#58595B"/>
<path d="M20.4572 24.648C22.2012 24.696 23.6172 25.264 24.7052 26.352C25.7932 27.424 26.3372 28.8 26.3372 30.48C26.3372 32.192 25.7692 33.6 24.6332 34.704C23.4972 35.792 22.0332 36.336 20.2412 36.336C18.4492 36.336 16.9852 35.792 15.8492 34.704C14.7292 33.616 14.1692 32.208 14.1692 30.48C14.1692 29.2 14.4972 28.072 15.1532 27.096L20.3852 19.2H24.1772L20.4572 24.648ZM18.2492 32.472C18.7772 32.968 19.4412 33.216 20.2412 33.216C21.0412 33.216 21.7052 32.968 22.2332 32.472C22.7772 31.976 23.0492 31.312 23.0492 30.48C23.0492 29.664 22.7772 29.008 22.2332 28.512C21.7052 28.016 21.0412 27.768 20.2412 27.768C19.4412 27.768 18.7772 28.016 18.2492 28.512C17.7212 28.992 17.4572 29.648 17.4572 30.48C17.4572 31.312 17.7212 31.976 18.2492 32.472ZM34.4428 36.336C32.3468 36.336 30.6988 35.544 29.4988 33.96C28.3148 32.36 27.7228 30.24 27.7228 27.6C27.7228 24.96 28.3148 22.848 29.4988 21.264C30.6988 19.664 32.3468 18.864 34.4428 18.864C36.5548 18.864 38.2028 19.664 39.3868 21.264C40.5708 22.848 41.1628 24.96 41.1628 27.6C41.1628 30.24 40.5708 32.36 39.3868 33.96C38.2028 35.544 36.5548 36.336 34.4428 36.336ZM31.8988 31.704C32.4748 32.632 33.3228 33.096 34.4428 33.096C35.5628 33.096 36.4108 32.624 36.9868 31.68C37.5788 30.736 37.8748 29.376 37.8748 27.6C37.8748 25.808 37.5788 24.44 36.9868 23.496C36.4108 22.552 35.5628 22.08 34.4428 22.08C33.3228 22.08 32.4748 22.552 31.8988 23.496C31.3228 24.44 31.0348 25.808 31.0348 27.6C31.0348 29.392 31.3228 30.76 31.8988 31.704Z" fill="white"/>
<path d="M20.4572 24.648C22.2012 24.696 23.6172 25.264 24.7052 26.352C25.7932 27.424 26.3372 28.8 26.3372 30.48C26.3372 32.192 25.7692 33.6 24.6332 34.704C23.4972 35.792 22.0332 36.336 20.2412 36.336C18.4492 36.336 16.9852 35.792 15.8492 34.704C14.7292 33.616 14.1692 32.208 14.1692 30.48C14.1692 29.2 14.4972 28.072 15.1532 27.096L20.3852 19.2H24.1772L20.4572 24.648ZM18.2492 32.472C18.7772 32.968 19.4412 33.216 20.2412 33.216C21.0412 33.216 21.7052 32.968 22.2332 32.472C22.7772 31.976 23.0492 31.312 23.0492 30.48C23.0492 29.664 22.7772 29.008 22.2332 28.512C21.7052 28.016 21.0412 27.768 20.2412 27.768C19.4412 27.768 18.7772 28.016 18.2492 28.512C17.7212 28.992 17.4572 29.648 17.4572 30.48C17.4572 31.312 17.7212 31.976 18.2492 32.472ZM34.4428 36.336C32.3468 36.336 30.6988 35.544 29.4988 33.96C28.3148 32.36 27.7228 30.24 27.7228 27.6C27.7228 24.96 28.3148 22.848 29.4988 21.264C30.6988 19.664 32.3468 18.864 34.4428 18.864C36.5548 18.864 38.2028 19.664 39.3868 21.264C40.5708 22.848 41.1628 24.96 41.1628 27.6C41.1628 30.24 40.5708 32.36 39.3868 33.96C38.2028 35.544 36.5548 36.336 34.4428 36.336ZM31.8988 31.704C32.4748 32.632 33.3228 33.096 34.4428 33.096C35.5628 33.096 36.4108 32.624 36.9868 31.68C37.5788 30.736 37.8748 29.376 37.8748 27.6C37.8748 25.808 37.5788 24.44 36.9868 23.496C36.4108 22.552 35.5628 22.08 34.4428 22.08C33.3228 22.08 32.4748 22.552 31.8988 23.496C31.3228 24.44 31.0348 25.808 31.0348 27.6C31.0348 29.392 31.3228 30.76 31.8988 31.704Z" fill="url(#paint0_linear_2035_24325)"/>
<defs>
<linearGradient id="paint0_linear_2035_24325" x1="99.2174" y1="13" x2="50.9009" y2="-42.98" gradientUnits="userSpaceOnUse">
<stop stop-color="#F0F4F8"/>
<stop offset="0.300019" stop-color="#00DC86"/>
<stop offset="1" stop-color="#23626A"/>
</linearGradient>
</defs>
</svg>
