<svg width="59" height="59" viewBox="0 0 59 59" fill="none" xmlns="http://www.w3.org/2000/svg">
<circle cx="29.5" cy="29.5" r="27.5" stroke="#0199D6" stroke-width="4"/>
<path d="M17.5764 29.0945V24.5455H19.8182V36H17.5764V31.2545H13.3218V36H11.0636V24.5455H13.3218V29.0945H17.5764ZM30.8315 24.5455H33.1552V36H30.9134V28.5709L27.6897 33.8891H27.4279L24.2043 28.5873V36H21.9461V24.5455H24.2697L27.5588 29.9618L30.8315 24.5455ZM44.9277 34.5109C43.7713 35.6564 42.364 36.2291 40.7059 36.2291C39.0477 36.2291 37.6404 35.6564 36.484 34.5109C35.3386 33.3436 34.7659 31.9309 34.7659 30.2727C34.7659 28.6036 35.3386 27.1964 36.484 26.0509C37.6404 24.8945 39.0477 24.3164 40.7059 24.3164C42.364 24.3164 43.7713 24.8945 44.9277 26.0509C46.084 27.1964 46.6622 28.6036 46.6622 30.2727C46.6622 31.9418 46.084 33.3545 44.9277 34.5109ZM38.0713 32.9727C38.7695 33.6709 39.6477 34.02 40.7059 34.02C41.764 34.02 42.6422 33.6709 43.3404 32.9727C44.0495 32.2636 44.404 31.3636 44.404 30.2727C44.404 29.1818 44.0495 28.2818 43.3404 27.5727C42.6313 26.8636 41.7531 26.5091 40.7059 26.5091C39.6586 26.5091 38.7804 26.8636 38.0713 27.5727C37.3622 28.2818 37.0077 29.1818 37.0077 30.2727C37.0077 31.3636 37.3622 32.2636 38.0713 32.9727Z" fill="#0199D6"/>
</svg>
