<svg width="27" height="24" viewBox="0 0 27 24" fill="none" xmlns="http://www.w3.org/2000/svg">
<path d="M25.5184 11.8894C26.8678 10.4128 27.2896 7.84012 26.5731 5.26755C26.5307 5.05661 26.2773 4.93049 26.0675 4.9718L17.7157 7.37697C17.5895 7.41937 17.5047 7.50309 17.4623 7.58791C17.4199 7.67272 17.3775 7.79885 17.4199 7.92497C18.1365 10.4976 19.8664 12.4374 21.8063 12.9866L26.1926 22.814C26.2774 22.9825 26.446 23.1098 26.6982 23.0674C26.9092 23.0249 27.0353 22.814 26.994 22.6031L25.5184 11.8894Z" fill="#199BD7"/>
<path d="M24.5441 4.55112L25.3455 4.34018L24.3756 0.881319C24.2908 0.670378 24.0798 0.544257 23.87 0.585565C23.659 0.670378 23.5329 0.88132 23.5742 1.09117L24.5441 4.55112Z" fill="#199BD7"/>
<path d="M17.923 6.44956L18.7244 6.23862L17.7545 2.77976C17.6697 2.56881 17.4587 2.44269 17.2489 2.484C17.0379 2.52641 16.9118 2.77976 16.9531 2.98961L17.923 6.44956Z" fill="#199BD7"/>
<path d="M20.1183 5.81668L20.9197 5.56333L19.9498 2.10446C19.865 1.89352 19.654 1.7674 19.4442 1.80871C19.2332 1.89352 19.1071 2.10446 19.1484 2.31432L20.1183 5.81668Z" fill="#199BD7"/>
<path d="M22.3527 5.18386L23.1541 4.93051L22.1842 1.47165C22.0994 1.26071 21.8884 1.13459 21.6786 1.1759C21.4676 1.2183 21.3415 1.47165 21.3828 1.6815L22.3527 5.18386Z" fill="#199BD7"/>
<path d="M7.08325 1.55652C7.08325 1.30317 6.87231 1.13464 6.66137 1.13464L2.82422 1.13573C2.57087 1.13573 2.40234 1.34667 2.40234 1.55761V4.29878H7.08319L7.08325 1.55652Z" fill="#199BD7"/>
<path d="M0 11.595H2.78357V17.5415H0V11.595Z" fill="#199BD7"/>
<path d="M5.39862 14.0414H6.57947C7.08507 13.6195 7.84513 12.692 9.44793 12.144V10.2042C9.44793 7.63154 8.01376 6.28212 7.42333 5.18512L2.0246 5.18403C1.47549 6.19633 0 7.58812 0 10.1608V10.7512H3.20556C3.45891 10.7512 3.62744 10.9197 3.62744 11.1731V17.9636C3.62744 18.1745 3.4589 18.3855 3.20556 18.3855H0V22.9828C0 23.2362 0.210942 23.4047 0.421878 23.4047H7.71789C6.32611 21.8433 5.06044 18.5117 4.17524 15.6859C3.92189 14.8432 4.55487 14.0414 5.39862 14.0414Z" fill="#199BD7"/>
<path d="M21.6346 14.8839H5.39747C5.10172 14.8839 4.89186 15.1373 4.97559 15.4319C5.35508 16.6552 7.37968 22.8552 9.02485 23.4032C9.15098 23.4457 8.64537 23.4032 16.7429 23.4032C16.869 23.4032 17.0386 23.3184 17.0799 23.2347C17.0799 23.1923 18.8512 20.536 20.6649 18.8484C21.5086 18.047 22.0143 16.9085 22.0143 15.7277V15.3058C22.0567 15.0536 21.8455 14.8839 21.6346 14.8839Z" fill="#199BD7"/>
<path d="M20.0323 14.0414C19.9899 13.451 19.779 12.9454 19.4843 12.4387C18.3883 10.8784 16.2364 10.5413 16.1526 10.4989C15.9841 10.4989 15.8569 10.5413 15.7308 10.6674C15.646 10.7936 15.6046 10.9632 15.6884 11.0893C16.0254 11.8059 16.1527 12.355 15.9841 12.6072C15.7732 12.8606 15.2252 12.8606 15.0566 12.8606C11.1769 11.8907 8.984 13.0291 7.88672 14.0414L20.0323 14.0414Z" fill="#199BD7"/>
</svg>
