<svg width="16" height="16" viewBox="0 0 16 16" fill="none" xmlns="http://www.w3.org/2000/svg">
<path d="M8.0013 0.666748C6.55091 0.666748 5.13308 1.09684 3.92712 1.90264C2.72116 2.70844 1.78123 3.85375 1.22619 5.19374C0.671146 6.53373 0.525922 8.00822 0.80888 9.43075C1.09184 10.8533 1.79027 12.16 2.81586 13.1855C3.84144 14.2111 5.14812 14.9096 6.57064 15.1925C7.99317 15.4755 9.46766 15.3302 10.8076 14.7752C12.1476 14.2202 13.293 13.2802 14.0987 12.0743C14.9045 10.8683 15.3346 9.45048 15.3346 8.00009C15.3323 6.05587 14.559 4.19194 13.1842 2.81717C11.8095 1.4424 9.94552 0.669042 8.0013 0.666748ZM8.0013 14.0001C6.81462 14.0001 5.65458 13.6482 4.66788 12.9889C3.68119 12.3296 2.91215 11.3925 2.45803 10.2962C2.0039 9.19983 1.88508 7.99343 2.11659 6.82954C2.3481 5.66566 2.91955 4.59656 3.75866 3.75744C4.59778 2.91833 5.66688 2.34688 6.83076 2.11537C7.99465 1.88386 9.20105 2.00268 10.2974 2.45681C11.3938 2.91093 12.3308 3.67997 12.9901 4.66666C13.6494 5.65336 14.0013 6.8134 14.0013 8.00009C13.9994 9.59079 13.3666 11.1158 12.2418 12.2406C11.117 13.3654 9.59201 13.9981 8.0013 14.0001Z" fill="#269CD5"/>
<path d="M8.66537 7.72392V3.99992C8.66537 3.82311 8.59513 3.65354 8.47011 3.52851C8.34508 3.40349 8.17551 3.33325 7.9987 3.33325C7.82189 3.33325 7.65232 3.40349 7.52729 3.52851C7.40227 3.65354 7.33203 3.82311 7.33203 3.99992V7.99992C7.33207 8.17671 7.40233 8.34625 7.52737 8.47125L9.52737 10.4712C9.65311 10.5927 9.82151 10.6599 9.99631 10.6584C10.1711 10.6568 10.3383 10.5867 10.4619 10.4631C10.5855 10.3395 10.6556 10.1723 10.6572 9.99751C10.6587 9.82272 10.5915 9.65432 10.47 9.52858L8.66537 7.72392Z" fill="#269CD5"/>
</svg>
