<svg width="22" height="27" viewBox="0 0 22 27" fill="none" xmlns="http://www.w3.org/2000/svg">
<path d="M20.6643 20.7289L20.6643 20.7289L20.6613 20.715C19.8069 16.7838 16.5942 13.6385 12.663 12.8854L12.663 12.8854C9.60465 12.2999 6.49485 13.0854 4.13076 15.041L4.13074 15.041C1.76488 16.9985 0.406193 19.8787 0.406193 22.943C0.406193 23.4891 0.451587 24.0351 0.538337 24.5676L0.538394 24.5679C0.730163 25.7298 1.71974 26.5765 2.89245 26.5765H18.4191C19.5863 26.5765 20.5743 25.7432 20.7665 24.5959C20.9807 23.3276 20.9468 22.0257 20.6643 20.7289ZM18.4859 21.1883C18.7097 22.2133 18.7392 23.234 18.5743 24.2229L12.2769 14.908L12.2452 15.073C12.2452 15.073 12.2452 15.073 12.2452 15.073C15.3081 15.6601 17.8189 18.1187 18.4859 21.1882L18.4859 21.1883ZM10.6558 11.4542C13.5289 11.4542 15.8646 9.11712 15.8646 6.24537C15.8646 3.37362 13.5289 1.03656 10.6558 1.03656C7.784 1.03656 5.44697 3.37359 5.44697 6.24537C5.44697 9.11715 7.784 11.4542 10.6558 11.4542ZM10.6558 3.26291C12.301 3.26291 13.6382 4.60141 13.6382 6.24537C13.6382 7.88933 12.301 9.22783 10.6558 9.22783C9.01186 9.22783 7.67332 7.88929 7.67332 6.24537C7.67332 4.60145 9.01186 3.26291 10.6558 3.26291Z" fill="white" stroke="white" stroke-width="0.336052"/>
</svg>
