<svg width="21" height="21" viewBox="0 0 21 21" fill="none" xmlns="http://www.w3.org/2000/svg">
<path d="M8.80337 16.8585C10.7586 16.8585 12.5521 16.1601 13.9479 14.9995L18.8116 19.8632C19.2447 20.2974 19.9496 20.2975 20.3827 19.8635C20.8167 19.4303 20.8166 18.7262 20.3825 18.2932L15.4464 13.3571C16.3365 12.0616 16.8576 10.4933 16.8576 8.80423C16.8576 4.35922 13.2484 0.75 8.80337 0.75C4.35832 0.75 0.75 4.35926 0.75 8.80423C0.75 13.2492 4.35832 16.8585 8.80337 16.8585ZM8.80337 2.97174C12.0223 2.97174 14.6359 5.58533 14.6359 8.80423C14.6359 12.0231 12.0223 14.6367 8.80337 14.6367C5.58452 14.6367 2.97174 12.0232 2.97174 8.80423C2.97174 5.58529 5.58452 2.97174 8.80337 2.97174Z" fill="white" stroke="white" stroke-width="0.5"/>
</svg>
