<svg width="25" height="26" viewBox="0 0 25 26" fill="none" xmlns="http://www.w3.org/2000/svg">
<path d="M4.19793 25.4085H18.9422V22.9695H4.19793C3.75491 22.9742 3.3325 22.7853 3.04188 22.4518C2.7497 22.1199 2.61789 21.6753 2.68142 21.237L4.30748 9.96111H7.96611V13.2132H10.4052V9.96111H14.4703V13.2132H16.9094V9.96111H20.5681L21.9623 19.7175H24.4252L22.9833 9.61476C22.8102 8.41428 21.7813 7.52186 20.5681 7.52186H16.9094V4.67625C16.9094 2.207 14.907 0.20459 12.4378 0.20459C9.96852 0.20459 7.96611 2.207 7.96611 4.67625V7.52186H4.30748C3.09427 7.52186 2.0653 8.41428 1.89221 9.61476L0.266149 20.8907V20.8923C0.104177 22.0308 0.443999 23.1821 1.19829 24.0491C1.95416 24.9177 3.04826 25.4131 4.19792 25.4084L4.19793 25.4085ZM10.4054 4.67629C10.4054 3.55362 11.3153 2.64372 12.438 2.64372C13.5607 2.64372 14.4706 3.55362 14.4706 4.67629V7.5219H10.4054V4.67629Z" fill="white"/>
</svg>
